<svg width="80" height="80" viewBox="0 0 80 80" fill="none" xmlns="http://www.w3.org/2000/svg">
<path fill-rule="evenodd" clip-rule="evenodd" d="M18.1964 26.2783C17.6441 26.2783 17.1964 26.726 17.1964 27.2783C17.1964 27.8305 17.6441 28.2783 18.1964 28.2783H38.0179C38.5601 28.2783 39 28.718 39 29.2609V46.1043H13.25V39.8348C13.25 37.0928 11.0276 34.8696 8.28571 34.8696H6.96429C4.22237 34.8696 2 37.0928 2 39.8348V57.6783C2 58.9603 3.03912 60 4.32143 60H12.25V59.9564C12.4662 59.9852 12.6867 60 12.9107 60H67.0893C67.3133 60 67.5339 59.9852 67.75 59.9564V60H75.6786C76.9609 60 78 58.9603 78 57.6783V39.1739C78 36.4319 75.7776 34.2087 73.0357 34.2087H71.7143C71.378 34.2087 71.0496 34.2421 70.7321 34.3059V32.2435C70.7321 31.6912 70.2844 31.2435 69.7321 31.2435C69.1799 31.2435 68.7321 31.6912 68.7321 32.2435V35.2041C67.5284 36.1101 66.75 37.5512 66.75 39.1739V46.1043H55.5268C54.9745 46.1043 54.5268 46.5521 54.5268 47.1043C54.5268 47.6566 54.9745 48.1043 55.5268 48.1043H67.0893C68.7262 48.1043 70.0536 49.4317 70.0536 51.0696V55.0348C70.0536 56.6726 68.7262 58 67.0893 58H41V48.1043H46.2768C46.8291 48.1043 47.2768 47.6566 47.2768 47.1043C47.2768 46.5521 46.8291 46.1043 46.2768 46.1043H41V29.2609C41 28.718 41.4399 28.2783 41.9821 28.2783H61C61.5523 28.2783 62 27.8305 62 27.2783C62 26.726 61.5523 26.2783 61 26.2783H41.9821C41.2212 26.2783 40.5268 26.5633 40 27.0324C39.4732 26.5633 38.7788 26.2783 38.0179 26.2783H18.1964ZM39 48.1043H12.9107C11.2738 48.1043 9.94643 49.4317 9.94643 51.0696V55.0348C9.94643 56.6726 11.2738 58 12.9107 58H39V48.1043ZM68.75 46.389C70.6751 47.0723 72.0536 48.91 72.0536 51.0696V55.0348C72.0536 56.1463 71.6884 57.1725 71.0715 58H75.6786C75.8559 58 76 57.8562 76 57.6783V39.1739C76 37.5361 74.6726 36.2087 73.0357 36.2087H71.7143C70.0774 36.2087 68.75 37.5361 68.75 39.1739V46.389ZM11.25 46.389V39.8348C11.25 38.1969 9.92262 36.8696 8.28571 36.8696H6.96429C5.32738 36.8696 4 38.1969 4 39.8348V57.6783C4 57.8562 4.14413 58 4.32143 58H8.92852C8.3116 57.1725 7.94643 56.1463 7.94643 55.0348V51.0696C7.94643 48.91 9.3249 47.0723 11.25 46.389Z" fill="#274430"/>
<path fill-rule="evenodd" clip-rule="evenodd" d="M56.5179 20C55.9656 20 55.5179 20.4477 55.5179 21C55.5179 21.5523 55.9656 22 56.5179 22H57.1786C57.7309 22 58.1786 21.5523 58.1786 21C58.1786 20.4477 57.7309 20 57.1786 20H56.5179ZM60.1518 20C59.5995 20 59.1518 20.4477 59.1518 21C59.1518 21.5523 59.5995 22 60.1518 22H63.4554C64.0076 22 64.4554 21.5523 64.4554 21C64.4554 20.4477 64.0076 20 63.4554 20H60.1518ZM67.0893 20C66.537 20 66.0893 20.4477 66.0893 21C66.0893 21.5523 66.537 22 67.0893 22H71.0536C72.6905 22 74.0179 23.3274 74.0179 24.9652C74.0179 25.5175 74.4656 25.9652 75.0179 25.9652C75.5701 25.9652 76.0179 25.5175 76.0179 24.9652C76.0179 22.2232 73.7955 20 71.0536 20H67.0893Z" fill="#274430"/>
<path d="M70.9943 23.2265L70.2926 27.3353L72.9547 30.5428L68.8459 29.8411L65.6384 32.5031L66.3401 28.3944L63.678 25.1869L67.7868 25.8886L70.9943 23.2265Z" fill="#80B990"/>
<path fill-rule="evenodd" clip-rule="evenodd" d="M41 21C40.4486 21 40 20.5514 40 20C40 19.4486 40.4486 19 41 19C41.5514 19 42 19.4486 42 20C42 20.5514 41.5514 21 41 21Z" fill="#CACAFB"/>
<path fill-rule="evenodd" clip-rule="evenodd" d="M19 10C18.4486 10 18 9.5514 18 9C18 8.44855 18.4486 8 19 8C19.5514 8 20 8.44855 20 9C20 9.5514 19.5514 10 19 10Z" fill="#CACAFB"/>
<path fill-rule="evenodd" clip-rule="evenodd" d="M57 68C56.4486 68 56 67.5514 56 67C56 66.4486 56.4486 66 57 66C57.5514 66 58 66.4486 58 67C58 67.5514 57.5514 68 57 68Z" fill="#CACAFB"/>
<path fill-rule="evenodd" clip-rule="evenodd" d="M18 72C17.4486 72 17 71.5514 17 71C17 70.4486 17.4486 70 18 70C18.5514 70 19 70.4486 19 71C19 71.5514 18.5514 72 18 72Z" fill="#CACAFB"/>
<path fill-rule="evenodd" clip-rule="evenodd" d="M69 8C68.4486 8 68 7.5514 68 7C68 6.44855 68.4486 6 69 6C69.5514 6 70 6.44855 70 7C70 7.5514 69.5514 8 69 8Z" fill="#CACAFB"/>
</svg>
