<svg width="80" height="80" viewBox="0 0 80 80" fill="none" xmlns="http://www.w3.org/2000/svg">
<path fill-rule="evenodd" clip-rule="evenodd" d="M63 5C62.4486 5 62 4.5514 62 4C62 3.44855 62.4486 3 63 3C63.5514 3 64 3.44855 64 4C64 4.5514 63.5514 5 63 5Z" fill="#CACAFB"/>
<path fill-rule="evenodd" clip-rule="evenodd" d="M27 77C26.4486 77 26 76.5514 26 76C26 75.4486 26.4486 75 27 75C27.5514 75 28 75.4486 28 76C28 76.5514 27.5514 77 27 77Z" fill="#CACAFB"/>
<path fill-rule="evenodd" clip-rule="evenodd" d="M17 13C16.4486 13 16 12.5514 16 12C16 11.4486 16.4486 11 17 11C17.5514 11 18 11.4486 18 12C18 12.5514 17.5514 13 17 13Z" fill="#CACAFB"/>
<path fill-rule="evenodd" clip-rule="evenodd" d="M49.1679 12.2494C48.8201 11.1568 48.4217 10.4137 47.8397 10.0503C46.7852 9.3917 45.8931 10.076 45.386 11.3462L45.2951 11.5663C44.8408 12.6268 44.377 13.109 43.2996 13.8754L42.8175 14.2231C41.8084 14.9746 41.1837 15.6475 40.5721 16.7887C39.1269 19.4852 39.636 22.9242 41.4818 24.5291C41.1828 25.1637 40.895 25.8461 40.6181 26.5764C40.0483 25.5446 39.204 24.6101 38.1372 23.9484C37.0369 23.2659 36.1594 22.9956 34.9098 22.8493L34.3184 22.7893C33.0022 22.6642 32.3594 22.4785 31.4357 21.7872L31.247 21.6421C30.1728 20.7956 29.058 20.649 28.474 21.7466C28.1517 22.3524 28.1783 23.1951 28.4233 24.3152C28.8307 26.1775 29.8594 28.6497 30.9132 30.2622C32.7267 33.0372 36.1016 34.3063 38.6216 33.5244C37.6042 38.3229 37.399 42.863 38.0102 47.1414C38.0883 47.6882 38.5948 48.0681 39.1415 47.99C39.6883 47.9119 40.0682 47.4053 39.9901 46.8586C39.5024 43.4453 39.5661 39.8409 40.1835 36.0432C40.3982 36.463 40.6944 36.8437 41.077 37.1647C43.4118 39.1239 47.5478 38.2652 49.4673 35.2559C50.371 33.8391 51.2128 31.6546 51.5116 29.9897C51.6928 28.9802 51.6831 28.2054 51.3602 27.6402C50.788 26.6386 49.7325 26.7296 48.7466 27.4772L48.5778 27.6015C47.8076 28.1513 47.259 28.2836 46.1028 28.3414L45.5457 28.3732C44.4141 28.4566 43.6153 28.6686 42.6272 29.2445C42.2383 29.4711 41.8847 29.7393 41.569 30.0389C42.1001 28.2419 42.6751 26.6895 43.2904 25.3827C46.4544 25.8938 49.7634 22.6531 49.9851 18.6446C50.0915 16.7212 49.7463 14.0658 49.1679 12.2494ZM45.7072 21.7071C45.2471 22.1672 44.8023 22.7313 44.3738 23.3992C46.0774 23.1038 47.8487 21.0563 47.9882 18.5341C48.081 16.8553 47.7674 14.4428 47.2622 12.8562L47.157 12.5476L47.1071 12.4147L47.0105 12.6295C46.457 13.8181 45.8167 14.5086 44.7047 15.3275L44.2222 15.6738C43.2969 16.3367 42.8273 16.8146 42.3349 17.7334C41.4076 19.4636 41.6318 21.5684 42.4722 22.6702C43.0426 21.7292 43.649 20.9369 44.293 20.2929C44.6835 19.9024 45.3167 19.9024 45.7072 20.2929C46.0977 20.6834 46.0977 21.3166 45.7072 21.7071ZM30.2899 23.427L30.4818 23.5657C31.5554 24.3184 32.4552 24.5961 33.8277 24.7493L34.4187 24.808C35.5514 24.9194 36.1971 25.0985 37.083 25.648C38.7863 26.7045 39.6451 28.6995 39.4199 30.078L36.5548 28.168C36.0953 27.8616 35.4744 27.9858 35.1681 28.4453C34.8836 28.872 34.9703 29.4378 35.3521 29.7618L35.4454 29.8321L38.0903 31.5953C36.4647 32.1483 33.9524 31.2568 32.5874 29.1681C31.6676 27.7606 30.7329 25.5145 30.3771 23.8879L30.314 23.568L30.2899 23.427ZM49.5914 29.3329L49.5293 29.3749C48.5654 30.0178 47.7435 30.2369 46.4979 30.3216L45.9424 30.3521C44.9418 30.4055 44.3856 30.5346 43.6342 30.9725C42.5679 31.5939 41.927 32.6797 41.7797 33.686L43.6839 33.0513L43.7966 33.0208C44.2867 32.9184 44.7866 33.1973 44.9488 33.6838C45.1234 34.2077 44.8403 34.7741 44.3163 34.9487L42.3352 35.6091C42.3442 35.617 42.3533 35.6249 42.3626 35.6326C43.7326 36.7822 46.4862 36.2106 47.7812 34.1803C48.5427 32.9864 49.2898 31.0476 49.543 29.6364C49.5617 29.5323 49.5768 29.4339 49.5914 29.3329Z" fill="#80B990"/>
<path d="M22.1735 25.0149C24.5629 25.4362 26.4424 28.5774 25.9847 31.1733C25.8888 31.7172 25.3701 32.0804 24.8262 31.9845C24.2823 31.8886 23.9192 31.3699 24.0151 30.826C24.2912 29.26 23.0598 27.202 21.8262 26.9845C20.4508 26.742 18.9157 27.6443 18.5719 29.0137L18.5375 29.1738L13.985 47.1796L13.9678 47.3384C13.8346 48.8473 14.4468 50.8423 15.7714 53.4971L16.0903 54.1228L16.3698 54.6533L16.8327 55.5045L17.3698 56.4642L18.3424 58.1792L19.0208 59.3883L19.7434 60.7044L20.1138 61.4002L20.4391 62.0326L20.7215 62.6074L20.8869 62.9614L21.0347 63.2942L21.1654 63.6073L21.2798 63.9025L21.3784 64.1815L21.4618 64.4461C21.4744 64.489 21.4865 64.5315 21.498 64.5734L21.5596 64.8194C21.5688 64.8595 21.5773 64.8992 21.5853 64.9385L21.6267 65.1698L21.6552 65.3935L21.6715 65.6112L21.6762 65.8247L21.671 66H31.9996C31.9997 65.9257 32.0081 65.8502 32.0256 65.7747C33.3861 59.8925 30.9814 53.9038 27.4413 51.5972L27.2408 51.4632C24.5544 49.6208 24.033 47.2913 24.8043 43.0374L24.9263 42.401C24.9482 42.2926 24.9707 42.183 24.9941 42.0722L25.1097 41.543L25.3854 40.2018C25.6283 39.0594 24.6709 37.165 23.7919 36.9781C22.8058 36.7685 22.1966 37.1794 21.9815 38.1905L21.0485 42.9531L20.4468 45.9511L20.08 47.7262L19.9779 48.2085C19.7291 49.3751 20.5306 51.483 22.4338 54.4155L22.8585 55.0565C23.0057 55.2743 23.1585 55.4963 23.317 55.7225L23.8095 56.4131C24.1337 56.8603 24.0339 57.4856 23.5867 57.8097C23.1395 58.1338 22.5143 58.034 22.1902 57.5869L21.9267 57.2205L21.4248 56.505L20.9562 55.8119C18.6964 52.4027 17.6892 49.8306 17.9876 47.9747L18.0218 47.7915L18.3585 46.1801L19.0063 42.9689L19.9192 38.3198L20.0217 37.7921C20.4668 35.6982 22.1256 34.5793 24.2078 35.0219C26.2133 35.4482 27.7092 38.3068 27.3772 40.4261L27.3431 40.6111L27.1078 41.7558C27.104 41.7819 27.0992 41.808 27.0933 41.8341L27.0683 41.9482L26.9131 42.7029C26.9054 42.7403 26.8957 42.7769 26.8842 42.8124L26.8307 43.0752L26.7259 43.6449L26.6391 44.1827C26.1872 47.2294 26.6857 48.7178 28.5331 49.9215L28.7551 50.0708C32.8258 52.8945 35.4365 59.4905 34.0246 66H36.9998C37.5521 66 37.9998 66.4477 37.9998 67C37.9998 67.5128 37.6138 67.9355 37.1165 67.9933L36.9998 68H16.9998C16.4476 68 15.9998 67.5523 15.9998 67C15.9998 66.4872 16.3859 66.0645 16.8832 66.0067L16.9998 66H19.6482L19.6503 65.9199L19.6438 65.7536L19.6261 65.5791L19.5967 65.395L19.5548 65.1999L19.5 64.9922L19.4316 64.7706L19.3491 64.5336L19.2519 64.2797L19.0773 63.8641L18.9408 63.5617L18.7876 63.2374L18.5251 62.7065L18.2217 62.1181L17.8754 61.4672L17.3435 60.4937L16.3861 58.7835L15.4346 57.1041L14.9129 56.164L14.4566 55.3145L14.176 54.7743C12.5533 51.603 11.7808 49.1859 11.9793 47.1201L12.0092 46.8637L12.0304 46.7546L16.5832 28.7551C17.0296 26.2238 19.7068 24.5799 22.1735 25.0149Z" fill="#304436"/>
<path d="M54.2041 31.1733C53.7464 28.5774 55.6259 25.4362 58.0153 25.0149C60.4821 24.5799 63.1593 26.2238 63.6056 28.7551L68.1585 46.7546L68.1797 46.8637L68.2081 47.1076C68.413 49.2353 67.538 51.7456 65.7065 55.1043L65.3886 55.6791L65.0491 56.2775L64.4774 57.2585L63.4676 58.9557L62.7827 60.1153L62.1837 61.1448L61.6662 62.0545L61.2258 62.8549L60.9433 63.3896L60.6999 63.8732L60.4935 64.3098L60.3756 64.577L60.2729 64.8267L60.1846 65.0601L60.1104 65.2785L60.0496 65.4832L60.0017 65.6756L59.966 65.8568L59.9462 66H62.9998L63.1165 66.0067C63.6138 66.0645 63.9998 66.4872 63.9998 67C63.9998 67.5523 63.5521 68 62.9998 68H42.9998L42.8832 67.9933C42.3859 67.9355 41.9998 67.5128 41.9998 67C41.9998 66.4477 42.4476 66 42.9998 66H46.1605C44.7486 59.4905 47.3594 52.8945 51.43 50.0708L51.652 49.9215C53.4994 48.7178 53.998 47.2294 53.546 44.1827L53.4593 43.6449L53.3544 43.0752C53.3382 42.9919 53.3215 42.9077 53.3043 42.8224C53.2913 42.7838 53.2805 42.7439 53.272 42.7029L53.1097 41.9131L53.0919 41.8341C53.086 41.808 53.0811 41.7818 53.0773 41.7558L52.8421 40.6111L52.808 40.4261C52.476 38.3068 53.9718 35.4482 55.9774 35.0219C58.0596 34.5793 59.7184 35.6982 60.1635 37.7921L60.3327 38.7987L60.8067 41.5616L61.1632 43.5709L61.3605 44.6492L61.6042 45.939L61.7725 46.7958L61.9779 47.7915C62.3763 49.6601 61.3786 52.289 59.0435 55.8119L58.5749 56.505L58.073 57.2205L57.8095 57.5869C57.4854 58.034 56.8602 58.1338 56.413 57.8097C55.9658 57.4856 55.8661 56.8603 56.1902 56.4131C56.2751 56.296 56.3586 56.1798 56.4407 56.0647L56.9162 55.3864L57.3578 54.7329C59.4105 51.6348 60.2795 49.4167 60.0218 48.2085L59.9162 47.7044L59.6878 46.5621L59.3698 44.8827L59.0894 43.3378L58.6254 40.6844L58.199 38.1649C57.9886 37.1794 57.3794 36.7685 56.3932 36.9781C55.5143 37.165 54.5569 39.0594 54.7997 40.2018L55.0755 41.5432L55.1911 42.0722L55.3221 42.7227C56.1763 47.1774 55.6963 49.5758 52.9443 51.4632L52.7439 51.5972C49.2038 53.9038 46.799 59.8925 48.1596 65.7747C48.177 65.8502 48.1854 65.9257 48.1855 66H57.905L57.9063 65.9514L57.9238 65.7362C57.9278 65.6999 57.9322 65.6634 57.9372 65.6265L57.9735 65.402L58.0232 65.1693L58.0868 64.9266L58.1649 64.6723C58.1935 64.5854 58.2245 64.4963 58.2583 64.4048L58.3674 64.1223L58.493 63.8233L58.6356 63.5061L58.7959 63.169L59.0708 62.6224L59.278 62.2284L59.6261 61.5886L60.1634 60.6359L60.7887 59.5572L62.9487 55.9124L63.4803 54.9914L63.7986 54.4235L64.1434 53.7894C65.6526 50.9606 66.3554 48.8704 66.2196 47.3259L66.2037 47.1797L61.6513 29.1738L61.617 29.0137C61.2731 27.6443 59.738 26.742 58.3626 26.9845C57.129 27.202 55.8976 29.26 56.1738 30.826C56.2697 31.3699 55.9065 31.8886 55.3626 31.9845C54.8187 32.0804 54.3 31.7172 54.2041 31.1733Z" fill="#304436"/>
<path d="M55.1998 60C55.7521 60 56.1998 59.5523 56.1998 59C56.1998 58.4477 55.7521 58 55.1998 58C54.6476 58 54.1998 58.4477 54.1998 59C54.1998 59.5523 54.6476 60 55.1998 60Z" fill="#304436"/>
</svg>
