<svg width="60" height="60" viewBox="0 0 60 60" fill="none" xmlns="http://www.w3.org/2000/svg">
<path d="M32.1929 47.45C31.9857 47.6167 31.7703 47.75 31.5466 47.85C31.3229 47.95 31.0722 48 30.7946 48C30.5171 48 30.2409 47.9413 29.9661 47.824C29.6913 47.7067 29.4496 47.5487 29.2411 47.35C27.8256 45.8833 26.7809 44.3833 26.107 42.85C25.4331 41.3167 25.0975 39.7 25.1003 38C25.1003 36.7667 25.2902 35.4667 25.6699 34.1C26.0497 32.7333 26.7056 30.9667 27.6378 28.8C28.4318 26.9 28.9842 25.442 29.2949 24.426C29.6056 23.41 29.761 22.468 29.761 21.6C29.761 20.4667 29.5021 19.4087 28.9842 18.426C28.4664 17.4434 27.655 16.4514 26.5503 15.45C26.3431 15.25 26.1795 15.0167 26.0594 14.75C25.9392 14.4834 25.8785 14.2167 25.8771 13.95C25.8757 13.6834 25.9275 13.442 26.0324 13.226C26.1374 13.01 26.2755 12.8014 26.4467 12.6C26.6539 12.4 26.8865 12.25 27.1448 12.15C27.403 12.05 27.6702 12 27.9464 12C28.2226 12 28.4815 12.05 28.7232 12.15C28.9649 12.25 29.1893 12.3834 29.3964 12.55C30.9155 13.9167 32.0458 15.35 32.7874 16.85C33.5289 18.35 33.9004 19.9334 33.9018 21.6C33.9018 22.7667 33.7202 23.992 33.357 25.276C32.9938 26.56 32.3641 28.2347 31.4679 30.3C30.6048 32.3 30.0179 33.8333 29.7071 34.9C29.3964 35.9667 29.2411 36.9833 29.2411 37.95C29.2411 39.1167 29.4917 40.242 29.993 41.326C30.4943 42.41 31.2621 43.5013 32.2964 44.6C32.469 44.8 32.6071 45.0167 32.7107 45.25C32.8143 45.4833 32.8661 45.7333 32.8661 46C32.8661 46.2667 32.8143 46.5253 32.7107 46.776C32.6071 47.0267 32.4345 47.2513 32.1929 47.45ZM42.2911 47.45C42.0839 47.6167 41.8685 47.75 41.6448 47.85C41.4211 47.95 41.1704 48 40.8929 48C40.6153 48 40.3391 47.9413 40.0643 47.824C39.7895 47.7067 39.5478 47.5487 39.3393 47.35C37.9238 45.8833 36.8791 44.3913 36.2052 42.874C35.5313 41.3567 35.195 39.7487 35.1964 38.05C35.1964 36.8167 35.3863 35.5 35.7661 34.1C36.1458 32.7 36.8018 30.9333 37.7339 28.8C38.528 26.9 39.0804 25.45 39.3911 24.45C39.7018 23.45 39.8571 22.5167 39.8571 21.65C39.8571 20.5167 39.5982 19.442 39.0804 18.426C38.5625 17.41 37.7512 16.418 36.6464 15.45C36.4393 15.25 36.2839 15.0254 36.1804 14.776C36.0768 14.5267 36.025 14.268 36.025 14C36.025 13.732 36.0685 13.49 36.1555 13.274C36.2425 13.058 36.3716 12.85 36.5429 12.65C36.75 12.45 36.9917 12.2914 37.2679 12.174C37.544 12.0567 37.8202 11.9987 38.0964 12C38.3726 12.0014 38.6233 12.0514 38.8484 12.15C39.0735 12.2487 39.2889 12.382 39.4946 12.55C41.0137 13.9167 42.1447 15.35 42.8876 16.85C43.6306 18.35 44.0014 19.9334 44 21.6C44 22.7667 43.8191 23.992 43.4573 25.276C43.0955 26.56 42.4651 28.2513 41.5661 30.35C40.703 32.35 40.1161 33.8833 39.8054 34.95C39.4946 36.0167 39.3393 37.0167 39.3393 37.95C39.3393 39.1167 39.5982 40.2587 40.1161 41.376C40.6339 42.4933 41.4107 43.5847 42.4464 44.65C42.619 44.85 42.7482 45.0667 42.8338 45.3C42.9194 45.5333 42.9629 45.7667 42.9643 46C42.9643 46.2667 42.9125 46.5333 42.8089 46.8C42.7054 47.0667 42.5327 47.2833 42.2911 47.45ZM22.0946 47.45C21.8875 47.6167 21.6714 47.75 21.4463 47.85C21.2212 47.95 20.9712 48 20.6964 48C20.4216 48 20.1454 47.9413 19.8679 47.824C19.5903 47.7067 19.3486 47.5487 19.1429 47.35C17.7274 45.8833 16.6827 44.3913 16.0088 42.874C15.3349 41.3567 14.9986 39.7487 15 38.05C15 36.8167 15.1899 35.5 15.5696 34.1C15.9494 32.7 16.6054 30.9333 17.5375 28.8C18.3316 26.9 18.8839 25.45 19.1946 24.45C19.5054 23.45 19.6607 22.5167 19.6607 21.65C19.6607 20.5167 19.4018 19.442 18.8839 18.426C18.3661 17.41 17.5548 16.418 16.45 15.45C16.2083 15.25 16.0357 15.0254 15.9321 14.776C15.8286 14.5267 15.7768 14.268 15.7768 14C15.7768 13.732 15.8286 13.482 15.9321 13.25C16.0357 13.018 16.1738 12.8014 16.3464 12.6C16.5536 12.4 16.787 12.25 17.0466 12.15C17.3062 12.05 17.5734 12 17.8482 12C18.123 12 18.382 12.05 18.625 12.15C18.8681 12.25 19.0925 12.3834 19.2982 12.55C20.8173 13.9167 21.9483 15.342 22.6912 16.826C23.4342 18.31 23.805 19.9014 23.8036 21.6C23.8036 22.7667 23.631 23.992 23.2857 25.276C22.9405 26.56 22.3191 28.2347 21.4214 30.3C20.5583 32.3 19.9714 33.8333 19.6607 34.9C19.35 35.9667 19.1946 36.9833 19.1946 37.95C19.1946 39.1167 19.4453 40.2587 19.9466 41.376C20.4479 42.4933 21.2157 43.5847 22.25 44.65C22.4226 44.85 22.5524 45.0667 22.6394 45.3C22.7264 45.5333 22.7692 45.7667 22.7679 46C22.7679 46.2667 22.7161 46.5333 22.6125 46.8C22.5089 47.0667 22.3363 47.2833 22.0946 47.45Z" fill="#304436"/>
</svg>
