<svg width="284" height="226" viewBox="0 0 284 226" fill="none" xmlns="http://www.w3.org/2000/svg">
<path d="M283 82.0127C283 125.018 248.059 159.884 204.952 159.884C161.845 159.884 126.904 125.018 126.904 82.0127C126.904 39.0076 161.845 4.1413 204.952 4.1413C248.059 4.1413 283 39.0076 283 82.0127Z" fill="white" fill-opacity="0.6" stroke="#274430" stroke-width="2"/>
<g filter="url(#filter0_d_781_7968)">
<mask id="path-2-inside-1_781_7968" fill="white">
<path d="M197.224 0.426373C208.86 0.426372 220.352 2.98951 230.881 7.9328C241.409 12.8761 250.714 20.0776 258.131 29.0232C265.548 37.9689 270.894 48.438 273.788 59.6832C276.682 70.9285 277.052 82.6724 274.871 94.0768L197.224 79.2977L197.224 0.426373Z"/>
</mask>
<path d="M197.224 0.426373C208.86 0.426372 220.352 2.98951 230.881 7.9328C241.409 12.8761 250.714 20.0776 258.131 29.0232C265.548 37.9689 270.894 48.438 273.788 59.6832C276.682 70.9285 277.052 82.6724 274.871 94.0768L197.224 79.2977L197.224 0.426373Z" fill="#EFFBF2"/>
<path d="M197.224 0.426373C208.86 0.426372 220.352 2.98951 230.881 7.9328C241.409 12.8761 250.714 20.0776 258.131 29.0232C265.548 37.9689 270.894 48.438 273.788 59.6832C276.682 70.9285 277.052 82.6724 274.871 94.0768L197.224 79.2977L197.224 0.426373Z" stroke="#274430" stroke-width="4" mask="url(#path-2-inside-1_781_7968)"/>
</g>
<path d="M214.392 61V58.072L220.152 52.408C221.448 51.088 222.264 50.176 222.264 48.808C222.264 47.416 221.304 46.6 219.984 46.6C218.376 46.6 217.392 47.584 216.504 49.072L213.864 47.464C215.28 45.16 217.368 43.72 220.296 43.72C223.224 43.72 225.576 45.592 225.576 48.472C225.576 50.776 224.064 52.552 222.408 54.16L218.352 58.072H226.008V61H214.392ZM234.356 43.72C238.124 43.72 240.044 45.88 240.044 48.256C240.044 49.792 239.3 51.112 237.836 51.904C239.756 52.696 240.788 54.256 240.788 56.296C240.788 59.224 238.532 61.48 234.356 61.48C230.204 61.48 227.924 59.224 227.924 56.296C227.924 54.256 228.956 52.696 230.9 51.904C229.412 51.112 228.668 49.792 228.668 48.256C228.668 45.88 230.612 43.72 234.356 43.72ZM234.404 50.68C235.796 50.68 236.708 49.864 236.708 48.616C236.708 47.344 235.796 46.504 234.404 46.504C232.892 46.504 232.004 47.344 232.004 48.616C232.004 49.864 232.916 50.68 234.404 50.68ZM234.38 58.672C236.276 58.672 237.452 57.664 237.452 56.128C237.452 54.544 236.276 53.464 234.38 53.464C232.46 53.464 231.26 54.544 231.26 56.128C231.26 57.688 232.46 58.672 234.38 58.672Z" fill="#304436"/>
<path d="M245.264 49.448C246.88 49.448 247.984 50.616 247.984 52.12C247.984 53.624 246.88 54.792 245.264 54.792C243.632 54.792 242.512 53.624 242.512 52.12C242.512 50.616 243.632 49.448 245.264 49.448ZM243.456 60.984L251.68 49.784H253.76L245.536 60.984H243.456ZM245.264 53.432C245.968 53.432 246.48 52.888 246.48 52.12C246.48 51.336 245.968 50.808 245.264 50.808C244.544 50.808 244.032 51.336 244.032 52.12C244.032 52.904 244.544 53.432 245.264 53.432ZM252.016 55.96C253.632 55.96 254.736 57.128 254.736 58.632C254.736 60.136 253.632 61.304 252.016 61.304C250.384 61.304 249.264 60.136 249.264 58.632C249.264 57.128 250.384 55.96 252.016 55.96ZM252.016 59.944C252.72 59.944 253.232 59.4 253.232 58.632C253.232 57.848 252.72 57.32 252.016 57.32C251.296 57.32 250.784 57.848 250.784 58.632C250.784 59.416 251.296 59.944 252.016 59.944Z" fill="#304436"/>
<path d="M179.671 224.996H180.671V223.996V61.7932C180.671 59.0317 178.433 56.7932 175.671 56.7932H16C13.2386 56.7932 11 59.0317 11 61.7931V223.996V224.996H12H179.671Z" fill="white" stroke="#274430" stroke-width="2"/>
<path d="M179.671 58.291C180.02 58.291 180.344 58.109 180.525 57.8108C180.707 57.5126 180.72 57.1414 180.559 56.8314L165.565 27.8612C164.706 26.2015 162.994 25.1594 161.125 25.1594H30.5463C28.6775 25.1594 26.9647 26.2015 26.1058 27.8612L11.1119 56.8314C10.9515 57.1414 10.9643 57.5126 11.1457 57.8108C11.3271 58.109 11.6509 58.291 12 58.291H179.671Z" fill="#889596" stroke="#274430" stroke-width="2" stroke-linejoin="round"/>
<path d="M25.0913 173.286H24.0913V174.286V223.996V224.996H25.0913H167.587H168.587V223.996V174.286V173.286H167.587H25.0913Z" fill="#80B990" stroke="#274430" stroke-width="2"/>
<path d="M163.559 174.286H167.587V223.996H163.559V174.286Z" fill="#565656" fill-opacity="0.3"/>
<g clip-path="url(#clip0_781_7968)">
<rect x="33.6514" y="184.328" width="36.2532" height="29.1231" rx="2" fill="#93D3F6"/>
<path d="M33.6514 197.069L55.961 184.328H69.9046L33.6514 206.17V197.069Z" fill="white" fill-opacity="0.3"/>
<path d="M35.0459 213.451L69.9048 192.822V196.463L40.6233 213.451H35.0459Z" fill="white" fill-opacity="0.3"/>
<rect x="33.6514" y="184.328" width="36.2532" height="4.85385" fill="#565656" fill-opacity="0.3"/>
</g>
<rect x="32.6514" y="183.328" width="38.2532" height="31.1231" rx="3" stroke="#274430" stroke-width="2"/>
<path fill-rule="evenodd" clip-rule="evenodd" d="M39.1899 213.953L39.1899 183.826L40.197 183.826L40.197 213.953L39.1899 213.953Z" fill="#304436"/>
<path fill-rule="evenodd" clip-rule="evenodd" d="M45.2324 213.953L45.2324 184.328L46.2395 184.328L46.2395 213.953L45.2324 213.953Z" fill="#304436"/>
<path fill-rule="evenodd" clip-rule="evenodd" d="M69.9046 204.413L33.6514 204.413L33.6514 203.409L69.9046 203.409L69.9046 204.413Z" fill="#304436"/>
<path fill-rule="evenodd" clip-rule="evenodd" d="M51.2744 213.953L51.2744 184.328L52.2814 184.328L52.2815 213.953L51.2744 213.953Z" fill="#304436"/>
<path fill-rule="evenodd" clip-rule="evenodd" d="M57.3169 213.953L57.3169 184.328L58.3239 184.328L58.3239 213.953L57.3169 213.953Z" fill="#304436"/>
<path fill-rule="evenodd" clip-rule="evenodd" d="M69.9046 194.371L33.6514 194.371L33.6514 193.366L69.9046 193.366L69.9046 194.371Z" fill="#304436"/>
<path fill-rule="evenodd" clip-rule="evenodd" d="M63.3589 213.953L63.3589 184.328L64.3659 184.328L64.3659 213.953L63.3589 213.953Z" fill="#304436"/>
<g clip-path="url(#clip1_781_7968)">
<rect x="122.27" y="184.328" width="36.2532" height="29.1231" rx="2" fill="#93D3F6"/>
<path d="M122.27 197.069L144.58 184.328H158.523L122.27 206.17V197.069Z" fill="white" fill-opacity="0.3"/>
<path d="M123.665 213.451L158.523 192.822V196.463L129.242 213.451H123.665Z" fill="white" fill-opacity="0.3"/>
<rect x="122.27" y="184.328" width="36.2532" height="4.85385" fill="#565656" fill-opacity="0.3"/>
</g>
<rect x="121.27" y="183.328" width="38.2532" height="31.1231" rx="3" stroke="#274430" stroke-width="2"/>
<path fill-rule="evenodd" clip-rule="evenodd" d="M127.809 213.953L127.809 183.826L128.816 183.826L128.816 213.953L127.809 213.953Z" fill="#304436"/>
<path fill-rule="evenodd" clip-rule="evenodd" d="M133.851 213.953L133.851 184.328L134.858 184.328L134.858 213.953L133.851 213.953Z" fill="#304436"/>
<path fill-rule="evenodd" clip-rule="evenodd" d="M158.523 204.413L122.27 204.413L122.27 203.409L158.523 203.409L158.523 204.413Z" fill="#304436"/>
<path fill-rule="evenodd" clip-rule="evenodd" d="M139.893 213.953L139.893 184.328L140.9 184.328L140.9 213.953L139.893 213.953Z" fill="#304436"/>
<path fill-rule="evenodd" clip-rule="evenodd" d="M145.936 213.953L145.936 184.328L146.943 184.328L146.943 213.953L145.936 213.953Z" fill="#304436"/>
<path fill-rule="evenodd" clip-rule="evenodd" d="M158.523 194.371L122.27 194.371L122.27 193.366L158.523 193.366L158.523 194.371Z" fill="#304436"/>
<path fill-rule="evenodd" clip-rule="evenodd" d="M151.978 213.953L151.978 184.328L152.985 184.328L152.985 213.953L151.978 213.953Z" fill="#304436"/>
<path d="M112.2 224.996H113.2V223.996V189.332C113.2 186.571 110.961 184.332 108.2 184.332H82.9678C80.2063 184.332 77.9678 186.571 77.9678 189.332V223.996V224.996H78.9678H112.2Z" fill="#4B7857" stroke="#274430" stroke-width="2"/>
<g clip-path="url(#clip2_781_7968)">
<rect x="81.9893" y="188.847" width="10.5739" height="17.0722" rx="2" fill="#93D3F6"/>
<path d="M81.9893 196.316L88.4962 188.847H92.5631L81.9893 201.651V196.316Z" fill="white" fill-opacity="0.3"/>
<path d="M82.396 205.919L92.5632 193.827V195.961L84.0227 205.919H82.396Z" fill="white" fill-opacity="0.3"/>
<rect x="81.9893" y="188.847" width="10.5739" height="2.84536" fill="#565656" fill-opacity="0.3"/>
</g>
<rect x="80.9893" y="187.847" width="12.5739" height="19.0722" rx="3" stroke="#274430" stroke-width="2"/>
<g clip-path="url(#clip3_781_7968)">
<rect x="98.605" y="188.847" width="10.5739" height="17.0722" rx="2" fill="#93D3F6"/>
<path d="M98.605 196.316L105.112 188.847H109.179L98.605 201.651V196.316Z" fill="white" fill-opacity="0.3"/>
<path d="M99.0117 205.919L109.179 193.827V195.961L100.638 205.919H99.0117Z" fill="white" fill-opacity="0.3"/>
<rect x="98.605" y="188.847" width="10.5739" height="2.84536" fill="#565656" fill-opacity="0.3"/>
</g>
<rect x="97.605" y="187.847" width="12.5739" height="19.0722" rx="3" stroke="#274430" stroke-width="2"/>
<rect x="95.0806" y="185.332" width="1.00703" height="39.6677" fill="#274430"/>
<rect x="97.5981" y="208.43" width="3.0211" height="1.00425" rx="0.502124" fill="#274430"/>
<g clip-path="url(#clip4_781_7968)">
<rect x="51.7778" y="126.584" width="22.6583" height="27.1146" rx="2" fill="#93D3F6"/>
<path d="M51.7778 138.447L65.7214 126.584H74.4361L51.7778 146.92V138.447Z" fill="white" fill-opacity="0.3"/>
<path d="M52.6494 153.699L74.4362 134.492V137.882L56.1353 153.699H52.6494Z" fill="white" fill-opacity="0.3"/>
<rect x="51.7778" y="126.584" width="22.6583" height="4.5191" fill="#565656" fill-opacity="0.3"/>
</g>
<rect x="50.7778" y="125.584" width="24.6583" height="29.1146" rx="3" stroke="#274430" stroke-width="2"/>
<path fill-rule="evenodd" clip-rule="evenodd" d="M62.8555 154.703L62.8555 126.584L63.8625 126.584L63.8625 154.703L62.8555 154.703Z" fill="#304436"/>
<path fill-rule="evenodd" clip-rule="evenodd" d="M75.4431 140.643L51.7778 140.643L51.7778 139.639L75.4431 139.639L75.4431 140.643Z" fill="#304436"/>
<rect x="49.771" y="153.201" width="26.6723" height="3.00424" rx="1.50212" fill="white" stroke="#274430" stroke-width="2"/>
<rect x="50.771" y="155.205" width="24.6723" height="2.00849" rx="1.00425" fill="#565656" fill-opacity="0.3"/>
<rect x="114.718" y="155.205" width="24.6723" height="2.00849" rx="1.00425" fill="#565656" fill-opacity="0.3"/>
<rect x="114.718" y="105.495" width="24.6723" height="2.00849" rx="1.00424" fill="#565656" fill-opacity="0.3"/>
<rect x="50.771" y="105.495" width="24.6723" height="2.00849" rx="1.00424" fill="#565656" fill-opacity="0.3"/>
<g clip-path="url(#clip5_781_7968)">
<rect x="51.7778" y="70.3462" width="22.6583" height="27.1146" rx="2" fill="#93D3F6"/>
<path d="M51.7778 82.2089L65.7214 70.3462H74.4361L51.7778 90.6822V82.2089Z" fill="white" fill-opacity="0.3"/>
<path d="M52.6494 97.4608L74.4362 78.2546V81.644L56.1353 97.4608H52.6494Z" fill="white" fill-opacity="0.3"/>
<rect x="51.7778" y="70.3462" width="22.6583" height="4.5191" fill="#565656" fill-opacity="0.3"/>
</g>
<rect x="50.7778" y="69.3462" width="24.6583" height="29.1146" rx="3" stroke="#274430" stroke-width="2"/>
<path fill-rule="evenodd" clip-rule="evenodd" d="M62.8555 98.4651L62.8555 70.3462L63.8625 70.3462L63.8625 98.4651L62.8555 98.4651Z" fill="#304436"/>
<path fill-rule="evenodd" clip-rule="evenodd" d="M75.4431 84.4056L51.7778 84.4056L51.7778 83.4014L75.4431 83.4014L75.4431 84.4056Z" fill="#304436"/>
<g clip-path="url(#clip6_781_7968)">
<rect x="115.724" y="126.584" width="22.6583" height="27.1146" rx="2" fill="#93D3F6"/>
<path d="M115.724 138.447L129.668 126.584H138.382L115.724 146.92V138.447Z" fill="white" fill-opacity="0.3"/>
<path d="M116.596 153.699L138.382 134.492V137.882L120.082 153.699H116.596Z" fill="white" fill-opacity="0.3"/>
<rect x="115.724" y="126.584" width="22.6583" height="4.5191" fill="#565656" fill-opacity="0.3"/>
</g>
<rect x="114.724" y="125.584" width="24.6583" height="29.1146" rx="3" stroke="#274430" stroke-width="2"/>
<path fill-rule="evenodd" clip-rule="evenodd" d="M126.802 154.703L126.802 126.584L127.809 126.584L127.809 154.703L126.802 154.703Z" fill="#304436"/>
<path fill-rule="evenodd" clip-rule="evenodd" d="M139.389 140.643L115.724 140.643L115.724 139.639L139.389 139.639L139.389 140.643Z" fill="#304436"/>
<rect x="113.717" y="153.201" width="26.6723" height="3.00426" rx="1.50213" fill="white" stroke="#274430" stroke-width="2"/>
<g clip-path="url(#clip7_781_7968)">
<rect x="115.724" y="70.3462" width="22.6583" height="27.1146" rx="2" fill="#93D3F6"/>
<path d="M115.724 82.2089L129.668 70.3462H138.382L115.724 90.6822V82.2089Z" fill="white" fill-opacity="0.3"/>
<path d="M116.596 97.4608L138.382 78.2546V81.644L120.082 97.4608H116.596Z" fill="white" fill-opacity="0.3"/>
<rect x="115.724" y="70.3462" width="22.6583" height="4.5191" fill="#565656" fill-opacity="0.3"/>
</g>
<rect x="114.724" y="69.3462" width="24.6583" height="29.1146" rx="3" stroke="#274430" stroke-width="2"/>
<path fill-rule="evenodd" clip-rule="evenodd" d="M126.802 98.4651L126.802 70.3462L127.809 70.3462L127.809 98.4651L126.802 98.4651Z" fill="#304436"/>
<path fill-rule="evenodd" clip-rule="evenodd" d="M139.389 84.4056L115.724 84.4056L115.724 83.4014L139.389 83.4014L139.389 84.4056Z" fill="#304436"/>
<rect x="113.717" y="96.4608" width="26.6723" height="3.00425" rx="1.50212" fill="white" stroke="#274430" stroke-width="2"/>
<path d="M88.0308 28.1679L100.87 24.653L110.689 28.1679V57.7931H88.0308V28.1679Z" fill="#565656" fill-opacity="0.3"/>
<path d="M84.0681 27.269C83.7244 27.4366 83.5063 27.7855 83.5063 28.1679V57.7931C83.5063 58.3454 83.9541 58.7931 84.5063 58.7931H107.165C107.717 58.7931 108.165 58.3454 108.165 57.7931V28.1679C108.165 27.7855 107.947 27.4366 107.603 27.269L96.2737 21.7457C95.9971 21.6108 95.6738 21.6108 95.3973 21.7457L84.0681 27.269Z" fill="white" stroke="#274430" stroke-width="2" stroke-linejoin="round"/>
<g clip-path="url(#clip8_781_7968)">
<rect x="87.5273" y="29.1722" width="16.6161" height="27.1146" rx="2" fill="#93D3F6"/>
<path d="M87.5273 41.0348L97.7526 29.1722H104.143L87.5273 49.5081V41.0348Z" fill="white" fill-opacity="0.3"/>
<path d="M88.1665 56.2868L104.143 37.0806V40.4699L90.7228 56.2868H88.1665Z" fill="white" fill-opacity="0.3"/>
<rect x="87.5273" y="29.1722" width="16.6161" height="4.5191" fill="#565656" fill-opacity="0.3"/>
</g>
<rect x="86.5273" y="28.1722" width="18.6161" height="29.1146" rx="3" stroke="#274430" stroke-width="2"/>
<path fill-rule="evenodd" clip-rule="evenodd" d="M95.5835 57.291L95.5835 29.1722L96.5905 29.1722L96.5905 57.291L95.5835 57.291Z" fill="#304436"/>
<path fill-rule="evenodd" clip-rule="evenodd" d="M104.143 43.2316L87.5273 43.2316L87.5273 42.2273L104.143 42.2273L104.143 43.2316Z" fill="#304436"/>
<rect x="81.9956" y="55.7889" width="27.6794" height="3.00425" rx="1.50212" fill="white" stroke="#274430" stroke-width="2"/>
<path d="M43.2178 28.1679L56.0575 24.653L65.876 28.1679V57.7931H43.2178V28.1679Z" fill="#565656" fill-opacity="0.3"/>
<path d="M39.7585 27.269C39.4148 27.4366 39.1968 27.7855 39.1968 28.1679V57.7931C39.1968 58.3454 39.6445 58.7931 40.1968 58.7931H43.9732H62.855C63.4073 58.7931 63.855 58.3454 63.855 57.7931V28.1679C63.855 27.7855 63.637 27.4366 63.2933 27.269L51.9641 21.7457C51.6875 21.6108 51.3643 21.6108 51.0877 21.7457L43.5349 25.4279L39.7585 27.269Z" fill="white" stroke="#274430" stroke-width="2" stroke-linejoin="round"/>
<g clip-path="url(#clip9_781_7968)">
<rect x="43.2178" y="29.1722" width="16.6161" height="27.1146" rx="2" fill="#93D3F6"/>
<path d="M43.2178 41.0348L53.443 29.1722H59.8338L43.2178 49.5081V41.0348Z" fill="white" fill-opacity="0.3"/>
<path d="M43.8569 56.2868L59.8339 37.0806V40.4699L46.4133 56.2868H43.8569Z" fill="white" fill-opacity="0.3"/>
<rect x="43.2178" y="29.1722" width="16.6161" height="4.5191" fill="#565656" fill-opacity="0.3"/>
</g>
<rect x="42.2178" y="28.1722" width="18.6161" height="29.1146" rx="3" stroke="#274430" stroke-width="2"/>
<path fill-rule="evenodd" clip-rule="evenodd" d="M51.2739 57.291L51.2739 29.1722L52.281 29.1722L52.281 57.291L51.2739 57.291Z" fill="#304436"/>
<path fill-rule="evenodd" clip-rule="evenodd" d="M59.8338 43.2316L43.2178 43.2316L43.2178 42.2273L59.8338 42.2273L59.8338 43.2316Z" fill="#304436"/>
<rect x="37.686" y="55.7889" width="27.6794" height="3.00425" rx="1.50212" fill="white" stroke="#274430" stroke-width="2"/>
<path d="M132.341 28.1679L145.181 24.6531L154.999 28.1679V57.7931H132.341V28.1679Z" fill="#565656" fill-opacity="0.3"/>
<path d="M128.378 27.269C128.034 27.4366 127.816 27.7855 127.816 28.1679V57.7931C127.816 58.3454 128.264 58.7931 128.816 58.7931H151.474C152.026 58.7931 152.474 58.3454 152.474 57.7931V28.1679C152.474 27.7855 152.256 27.4366 151.912 27.269L140.583 21.7457C140.307 21.6108 139.983 21.6108 139.707 21.7457L128.378 27.269Z" fill="white" stroke="#274430" stroke-width="2" stroke-linejoin="round"/>
<g clip-path="url(#clip10_781_7968)">
<rect x="131.837" y="29.1722" width="16.6161" height="27.1146" rx="2" fill="#93D3F6"/>
<path d="M131.837 41.0348L142.062 29.1722H148.453L131.837 49.5081V41.0348Z" fill="white" fill-opacity="0.3"/>
<path d="M132.476 56.2868L148.453 37.0806V40.4699L135.032 56.2868H132.476Z" fill="white" fill-opacity="0.3"/>
<rect x="131.837" y="29.1722" width="16.6161" height="4.5191" fill="#565656" fill-opacity="0.3"/>
</g>
<rect x="130.837" y="28.1722" width="18.6161" height="29.1146" rx="3" stroke="#274430" stroke-width="2"/>
<path fill-rule="evenodd" clip-rule="evenodd" d="M139.893 57.291L139.893 29.1722L140.9 29.1722L140.9 57.291L139.893 57.291Z" fill="#304436"/>
<path fill-rule="evenodd" clip-rule="evenodd" d="M148.453 43.2316L131.837 43.2316L131.837 42.2273L148.453 42.2273L148.453 43.2316Z" fill="#304436"/>
<rect x="126.305" y="55.7889" width="27.6794" height="3.00425" rx="1.50212" fill="white" stroke="#274430" stroke-width="2"/>
<rect x="49.771" y="96.4608" width="26.6723" height="3.00425" rx="1.50212" fill="white" stroke="#274430" stroke-width="2"/>
<path d="M25.0913 174.286H167.587V178.805H25.0913V174.286Z" fill="#565656" fill-opacity="0.3"/>
<path d="M23.3199 166.758C20.9651 166.758 19.0562 168.667 19.0562 171.022C19.0562 173.377 20.9651 175.286 23.32 175.286H169.358C171.713 175.286 173.622 173.377 173.622 171.022C173.622 168.667 171.713 166.758 169.358 166.758H23.3199Z" fill="#80B990" stroke="#274430" stroke-width="2"/>
<path d="M169.358 167.758H156.509C156.509 167.758 154.461 169.694 152.977 170.556C149.474 172.591 143.139 174.286 143.139 174.286H169.358C171.161 174.286 172.622 172.824 172.622 171.022C172.622 169.219 171.161 167.758 169.358 167.758Z" fill="#565656" fill-opacity="0.3"/>
<rect x="11" y="105.499" width="169.671" height="5.51485" fill="white" stroke="#274430" stroke-width="2"/>
<rect x="14.5176" y="106.499" width="1.00703" height="3.51485" fill="#274430"/>
<rect x="19.5527" y="106.499" width="1.00703" height="3.51485" fill="#274430"/>
<rect x="24.5879" y="106.499" width="1.00703" height="3.51485" fill="#274430"/>
<rect x="29.623" y="106.499" width="1.00703" height="3.51485" fill="#274430"/>
<rect x="34.6582" y="106.499" width="1.00703" height="3.51485" fill="#274430"/>
<rect x="39.6934" y="106.499" width="1.00703" height="3.51485" fill="#274430"/>
<rect x="44.7285" y="106.499" width="1.00703" height="3.51485" fill="#274430"/>
<rect x="49.7637" y="106.499" width="1.00703" height="3.51485" fill="#274430"/>
<rect x="54.7988" y="106.499" width="1.00703" height="3.51485" fill="#274430"/>
<rect x="59.834" y="106.499" width="1.00703" height="3.51485" fill="#274430"/>
<rect x="64.8691" y="106.499" width="1.00703" height="3.51485" fill="#274430"/>
<rect x="69.9043" y="106.499" width="1.00703" height="3.51485" fill="#274430"/>
<rect x="74.9395" y="106.499" width="1.00703" height="3.51485" fill="#274430"/>
<rect x="79.9746" y="106.499" width="1.00703" height="3.51485" fill="#274430"/>
<rect x="85.0098" y="106.499" width="1.00703" height="3.51485" fill="#274430"/>
<rect x="90.0449" y="106.499" width="1.00703" height="3.51485" fill="#274430"/>
<rect x="95.0801" y="106.499" width="1.00703" height="3.51485" fill="#274430"/>
<rect x="100.115" y="106.499" width="1.00703" height="3.51485" fill="#274430"/>
<rect x="105.151" y="106.499" width="1.00703" height="3.51485" fill="#274430"/>
<rect x="110.186" y="106.499" width="1.00704" height="3.51485" fill="#274430"/>
<rect x="115.221" y="106.499" width="1.00703" height="3.51485" fill="#274430"/>
<rect x="120.256" y="106.499" width="1.00704" height="3.51485" fill="#274430"/>
<rect x="125.292" y="106.499" width="1.00703" height="3.51485" fill="#274430"/>
<rect x="130.327" y="106.499" width="1.00703" height="3.51485" fill="#274430"/>
<rect x="135.362" y="106.499" width="1.00703" height="3.51485" fill="#274430"/>
<rect x="140.397" y="106.499" width="1.00702" height="3.51485" fill="#274430"/>
<rect x="145.432" y="106.499" width="1.00703" height="3.51485" fill="#274430"/>
<rect x="150.467" y="106.499" width="1.00703" height="3.51485" fill="#274430"/>
<rect x="155.502" y="106.499" width="1.00703" height="3.51485" fill="#274430"/>
<rect x="160.538" y="106.499" width="1.00703" height="3.51485" fill="#274430"/>
<rect x="165.573" y="106.499" width="1.00702" height="3.51485" fill="#274430"/>
<rect x="170.608" y="106.499" width="1.00703" height="3.51485" fill="#274430"/>
<rect x="175.643" y="106.499" width="1.00705" height="3.51485" fill="#274430"/>
<rect x="11" y="57.2953" width="169.671" height="4.51062" fill="white" stroke="#274430" stroke-width="2"/>
<rect x="12" y="110.516" width="167.671" height="3.51486" fill="#565656" fill-opacity="0.3"/>
<rect x="12" y="61.308" width="167.671" height="3.51486" fill="#565656" fill-opacity="0.3"/>
<path d="M172.622 223.996H179.671V57.291L172.622 43.7337V223.996Z" fill="#565656" fill-opacity="0.3"/>
<path d="M5.08515 223.996H200.713C200.713 223.996 206.61 223.996 206.61 224.748C206.61 225.501 200.713 225.501 200.713 225.501H5.08515C5.08515 225.501 0.922852 225.501 0.922852 224.748C0.922852 223.996 5.08515 223.996 5.08515 223.996Z" fill="#274430"/>
<path d="M197.231 189.726C202.979 189.726 208.097 186.529 211.741 181.532C215.385 176.535 217.609 169.68 217.609 162.155C217.609 154.71 215.422 138.348 211.904 123.862C210.145 116.616 208.039 109.778 205.679 104.732C204.501 102.213 203.235 100.086 201.881 98.5738C200.538 97.075 198.982 96.0452 197.231 96.0452C195.52 96.0452 193.997 97.0285 192.678 98.4682C191.349 99.9187 190.108 101.96 188.951 104.381C186.634 109.23 184.559 115.817 182.811 122.85C179.15 137.584 176.862 154.542 176.862 162.155C176.862 169.676 179.083 176.53 182.726 181.529C186.367 186.526 191.483 189.726 197.231 189.726Z" fill="#92E3A9" stroke="#274430" stroke-width="2"/>
<path d="M197.231 97.0452C192.006 97.0452 187.105 109.595 183.622 123.612C183.622 123.612 187.896 111.755 191.999 104.859C193.877 101.704 197.231 97.0452 197.231 97.0452Z" fill="white" fill-opacity="0.3"/>
<path d="M197.669 188.72C208.167 188.401 216.609 176.627 216.609 162.155C216.609 147.483 207.931 97.0452 197.231 97.0452C207.931 97.0452 213.991 147.483 213.991 162.155C213.991 176.626 208.096 188.4 197.669 188.72Z" fill="#565656" fill-opacity="0.3"/>
<path d="M208.231 169.951L202.263 172.123L203.463 168.593L200.613 172.725L197.762 173.752L197.564 162.178L207.92 148.66L202.366 154.108L203.308 150.323L200.656 155.796L197.503 158.894L197.192 140.802L196.061 167.184L186.24 156.967L191.638 164.163L186.551 163.612L192.83 165.759L195.94 169.917L195.396 182.637L191.777 180.227L195.283 185.267L193.625 224.149H198.652L197.797 175.602L208.231 169.951Z" fill="#274430"/>
<path d="M208.192 140.802C208.353 141.764 208.015 142.736 207.25 143.513C206.484 144.29 205.352 144.812 204.09 144.969C203.911 144.005 204.242 143.026 205.011 142.246C205.779 141.466 206.922 140.947 208.192 140.802Z" fill="white"/>
<path d="M213.437 149.137C213.559 150.098 213.307 151.07 212.733 151.848C212.159 152.625 211.308 153.147 210.36 153.304C210.228 152.341 210.477 151.364 211.053 150.584C211.628 149.805 212.485 149.285 213.437 149.137Z" fill="white"/>
<path d="M213.467 164.832C213.273 165.819 212.725 166.685 211.942 167.244C211.159 167.803 210.202 168.011 209.278 167.822C209.473 166.835 210.02 165.969 210.803 165.41C211.587 164.851 212.543 164.644 213.467 164.832Z" fill="white"/>
<path d="M182.051 164.804C182.245 165.802 182.792 166.676 183.576 167.24C184.359 167.804 185.316 168.012 186.24 167.82C185.993 166.849 185.458 165.993 184.718 165.385C183.913 164.875 182.975 164.67 182.051 164.804Z" fill="white"/>
<path d="M207.144 158.513C207.307 159.475 206.97 160.447 206.203 161.224C205.437 162.002 204.301 162.524 203.035 162.681C202.872 161.719 203.209 160.747 203.976 159.97C204.742 159.192 205.878 158.67 207.144 158.513Z" fill="white"/>
<path d="M205.06 131.426C205.181 132.628 204.927 133.843 204.352 134.814C203.777 135.786 202.925 136.438 201.977 136.635C201.857 135.432 202.111 134.218 202.686 133.246C203.261 132.275 204.112 131.622 205.06 131.426Z" fill="white"/>
<path d="M201.912 138.718C202.046 139.681 201.799 140.658 201.223 141.438C200.648 142.218 199.79 142.738 198.836 142.886C198.714 141.925 198.966 140.954 199.539 140.177C200.113 139.4 200.964 138.877 201.912 138.718Z" fill="white"/>
<path d="M210.295 133.509C210.418 134.71 210.166 135.924 209.591 136.895C209.017 137.867 208.165 138.52 207.214 138.718C207.092 137.518 207.344 136.304 207.919 135.333C208.493 134.361 209.345 133.708 210.295 133.509Z" fill="white"/>
<path d="M183.138 133.509C182.975 134.711 183.312 135.926 184.079 136.898C184.845 137.87 185.981 138.522 187.247 138.718C187.41 137.517 187.073 136.302 186.306 135.33C185.54 134.358 184.404 133.705 183.138 133.509Z" fill="white"/>
<path d="M206.108 123.091C206.228 124.294 205.974 125.508 205.399 126.48C204.824 127.451 203.973 128.104 203.024 128.3C202.904 127.098 203.158 125.883 203.733 124.911C204.308 123.94 205.159 123.288 206.108 123.091Z" fill="white"/>
<path d="M204.793 114.756C205.188 115.741 205.188 116.81 204.793 117.794C204.265 118.732 203.391 119.495 202.304 119.965C201.832 118.993 201.829 117.9 202.295 116.925C202.76 115.95 203.658 115.171 204.793 114.756Z" fill="white"/>
<path d="M191.897 112.673C193.026 113.127 193.897 113.924 194.326 114.895C194.755 115.867 194.708 116.938 194.196 117.882C193.067 117.428 192.196 116.631 191.767 115.659C191.338 114.687 191.384 113.617 191.897 112.673Z" fill="white"/>
<path d="M197.9 123.091C198.532 123.825 198.856 124.783 198.8 125.757C198.745 126.732 198.315 127.645 197.604 128.3C196.981 127.562 196.663 126.606 196.718 125.635C196.773 124.663 197.197 123.751 197.9 123.091Z" fill="white"/>
<path d="M197.906 107.464C198.534 108.198 198.855 109.155 198.8 110.13C198.745 111.104 198.319 112.017 197.612 112.673C196.984 111.938 196.663 110.981 196.718 110.007C196.773 109.032 197.2 108.119 197.906 107.464Z" fill="white"/>
<path d="M185.228 140.802C185.094 141.766 185.342 142.745 185.918 143.526C186.495 144.306 187.352 144.825 188.305 144.969C188.425 144.007 188.172 143.036 187.598 142.259C187.024 141.481 186.174 140.959 185.228 140.802Z" fill="white"/>
<path d="M181.044 150.179C180.881 151.381 181.217 152.595 181.982 153.567C182.747 154.539 183.88 155.192 185.144 155.388C185.325 154.183 184.995 152.959 184.227 151.984C183.459 151.008 182.315 150.359 181.044 150.179Z" fill="white"/>
<path d="M190.464 154.346C190.33 155.308 190.578 156.285 191.153 157.065C191.729 157.845 192.586 158.365 193.54 158.513C193.663 157.553 193.411 156.582 192.837 155.805C192.264 155.028 191.413 154.505 190.464 154.346Z" fill="white"/>
<path d="M192.957 140.802C192.434 141.746 192.381 142.822 192.811 143.798C193.241 144.774 194.118 145.569 195.251 146.011C195.757 145.066 195.8 143.995 195.372 143.023C194.945 142.052 194.079 141.255 192.957 140.802Z" fill="white"/>
<path d="M186.24 176.22C187.28 176.273 188.298 175.869 189.079 175.094C189.861 174.318 190.344 173.231 190.429 172.062C189.388 172.009 188.37 172.412 187.589 173.188C186.808 173.964 186.324 175.05 186.24 176.22Z" fill="white"/>
<path d="M204.042 174.265C204.389 175.248 205.077 176.102 206.004 176.695C207.002 177.193 208.155 177.373 209.279 177.205C209.009 176.182 208.307 175.297 207.327 174.742C206.347 174.187 205.167 174.007 204.042 174.241V174.265Z" fill="white"/>
<path d="M188.38 131.426C188.204 132.629 188.535 133.85 189.301 134.825C190.068 135.799 191.208 136.45 192.477 136.635C192.653 135.431 192.322 134.21 191.555 133.236C190.789 132.261 189.649 131.611 188.38 131.426Z" fill="white"/>
<path d="M188.374 124.133C188.211 125.094 188.548 126.066 189.315 126.844C190.081 127.621 191.217 128.143 192.483 128.3C192.646 127.339 192.309 126.367 191.542 125.589C190.776 124.812 189.64 124.29 188.374 124.133Z" fill="white"/>
<defs>
<filter id="filter0_d_781_7968" x="197.224" y="0.426373" width="86.0479" height="97.6504" filterUnits="userSpaceOnUse" color-interpolation-filters="sRGB">
<feFlood flood-opacity="0" result="BackgroundImageFix"/>
<feColorMatrix in="SourceAlpha" type="matrix" values="0 0 0 0 0 0 0 0 0 0 0 0 0 0 0 0 0 0 127 0" result="hardAlpha"/>
<feOffset dx="7" dy="4"/>
<feComposite in2="hardAlpha" operator="out"/>
<feColorMatrix type="matrix" values="0 0 0 0 0.0941176 0 0 0 0 0.239216 0 0 0 0 0.184314 0 0 0 1 0"/>
<feBlend mode="normal" in2="BackgroundImageFix" result="effect1_dropShadow_781_7968"/>
<feBlend mode="normal" in="SourceGraphic" in2="effect1_dropShadow_781_7968" result="shape"/>
</filter>
<clipPath id="clip0_781_7968">
<rect x="33.6514" y="184.328" width="36.2532" height="29.1231" rx="2" fill="white"/>
</clipPath>
<clipPath id="clip1_781_7968">
<rect x="122.27" y="184.328" width="36.2532" height="29.1231" rx="2" fill="white"/>
</clipPath>
<clipPath id="clip2_781_7968">
<rect x="81.9893" y="188.847" width="10.5739" height="17.0722" rx="2" fill="white"/>
</clipPath>
<clipPath id="clip3_781_7968">
<rect x="98.605" y="188.847" width="10.5739" height="17.0722" rx="2" fill="white"/>
</clipPath>
<clipPath id="clip4_781_7968">
<rect x="51.7778" y="126.584" width="22.6583" height="27.1146" rx="2" fill="white"/>
</clipPath>
<clipPath id="clip5_781_7968">
<rect x="51.7778" y="70.3462" width="22.6583" height="27.1146" rx="2" fill="white"/>
</clipPath>
<clipPath id="clip6_781_7968">
<rect x="115.724" y="126.584" width="22.6583" height="27.1146" rx="2" fill="white"/>
</clipPath>
<clipPath id="clip7_781_7968">
<rect x="115.724" y="70.3462" width="22.6583" height="27.1146" rx="2" fill="white"/>
</clipPath>
<clipPath id="clip8_781_7968">
<rect x="87.5273" y="29.1722" width="16.6161" height="27.1146" rx="2" fill="white"/>
</clipPath>
<clipPath id="clip9_781_7968">
<rect x="43.2178" y="29.1722" width="16.6161" height="27.1146" rx="2" fill="white"/>
</clipPath>
<clipPath id="clip10_781_7968">
<rect x="131.837" y="29.1722" width="16.6161" height="27.1146" rx="2" fill="white"/>
</clipPath>
</defs>
</svg>
