<svg width="71" height="76" viewBox="0 0 71 76" fill="none" xmlns="http://www.w3.org/2000/svg">
<path d="M35.5003 6C30.9385 6 27.2087 9.66862 27.2087 14.2332V47.2106C23.4147 49.8164 20.917 54.1707 20.917 59.1125C20.917 67.1197 27.4638 73.579 35.5003 73.579C43.5368 73.579 50.0837 67.1197 50.0837 59.1125C50.0837 54.1707 47.5859 49.8164 43.792 47.2106V14.2332C43.792 9.66862 40.0621 6 35.5003 6Z" stroke="#304436" stroke-width="4" stroke-linejoin="round"/>
<path d="M30.8643 13.9604C30.8643 11.4001 32.9399 9.32446 35.5002 9.32446C38.0606 9.32446 40.1362 11.4001 40.1362 13.9604V29.5175C40.1362 30.0697 39.6885 30.5175 39.1362 30.5175H31.8643C31.312 30.5175 30.8643 30.0698 30.8643 29.5175V13.9604Z" fill="#304436"/>
</svg>
