<svg width="60" height="60" viewBox="0 0 60 60" fill="none" xmlns="http://www.w3.org/2000/svg">
<path d="M22.7663 36.9724L22.8134 36.772M22.8134 36.772C22.8134 36.772 21.5032 35.693 21 34.7647C20.7815 34.3617 20.6255 33.8219 20.5177 33.3263C20.3753 32.6724 19.6833 32.2519 19.0702 32.5204C16.6181 33.5943 14.0955 34.968 11.7383 36.5054C9.86045 37.7302 8.08753 39.0589 6.53875 40.4227M22.8134 36.772C22.445 38.1115 22.1771 39.4724 22.0103 40.8438C21.7365 43.0947 21.7354 45.3741 22.0103 47.6346C22.3263 53.4827 17.432 58.705 11.3245 57.3401C9.96702 57.0367 8.54955 56.4079 7.11604 55.3881C5.63964 54.3379 4.48128 52.9856 3.77455 51.4492C2.28979 48.2213 2.79835 44.181 6.53875 40.4227M6.53875 40.4227C6.52942 40.431 6.54808 40.4145 6.53875 40.4227ZM22.7592 25.6701L22.7616 25.6723M22.7616 25.6723C20.147 23.1446 17.0715 21.1177 13.6941 19.6966C7.15373 16.4587 5.35435 7.08146 14.2617 3.2105C19.4313 0.951403 25.1294 4.88155 27.8017 10.2089C29.3949 13.3849 28.7784 16.1192 28.7767 19.2589C28.7767 21.3477 28.626 23.3995 28.3622 25.1773C28.3622 25.1773 26.8272 25.0313 25.8461 25.0942C24.623 25.1727 22.7616 25.6723 22.7616 25.6723ZM42.5829 26.6303C39.7059 28.7378 36.2297 30.3591 32.7692 31.3109C32.7692 31.3109 32.557 33.0701 32.0769 34.074C31.6056 35.0595 30.3995 36.3138 30.3995 36.3138C34.3708 39.3449 38.8446 41.6872 43.6262 43.2385L43.9395 43.326C47.0782 44.1062 49.7189 43.8379 51.7856 42.8719C54.7761 41.4741 56.5648 38.6154 56.9213 35.3581C57.4713 30.27 55.0737 27.0007 51.7856 25.6701C48.9485 24.522 45.4482 24.8172 42.6064 26.6327L42.5829 26.6303Z" stroke="#304436" stroke-width="4" stroke-linejoin="round"/>
</svg>
