<svg width="60" height="60" viewBox="0 0 60 60" fill="none" xmlns="http://www.w3.org/2000/svg">
<path fill-rule="evenodd" clip-rule="evenodd" d="M6 3.6193C6 1.62041 7.6531 0 9.69231 0H50.3077C52.3469 0 54 1.62042 54 3.6193V50.3807C54 52.3796 52.3469 54 50.3077 54H9.69231C7.6531 54 6 52.3796 6 50.3807V3.6193ZM28.1538 3.6193L9.69231 3.6193V25.1903H28.1538V3.6193ZM31.8462 3.6193V25.1903H50.3077V3.6193H31.8462ZM50.3077 28.8097H31.8462V50.3807H50.3077V28.8097ZM28.1538 50.3807V28.8097H9.69231V50.3807H28.1538Z" fill="#304436"/>
<path fill-rule="evenodd" clip-rule="evenodd" d="M57.6406 59C58.3914 59 59 58.3284 59 57.5C59 56.6716 58.3914 56 57.6406 56H2.35938C1.60861 56 1 56.6716 1 57.5C1 58.3284 1.60861 59 2.35938 59H57.6406Z" fill="#304436"/>
</svg>
