<svg width="56" height="56" viewBox="0 0 56 56" fill="none" xmlns="http://www.w3.org/2000/svg">
    <path
        d="M11.2 7.70001C10.8134 7.70001 10.5 8.01341 10.5 8.40001V27.02C10.5 27.4066 10.8134 27.72 11.2 27.72C11.5866 27.72 11.9 27.4066 11.9 27.02V18.34H21.7V36.26C21.7 36.6466 22.0134 36.96 22.4 36.96C22.7866 36.96 23.1 36.6466 23.1 36.26V18.34H32.9V36.26C32.9 36.6466 33.2134 36.96 33.6 36.96C33.9866 36.96 34.3 36.6466 34.3 36.26V18.34H44.1V36.4C44.1 36.7866 44.4134 37.1 44.8 37.1C45.1866 37.1 45.5 36.7866 45.5 36.4V13.86C45.5 13.4734 45.1866 13.16 44.8 13.16C44.4134 13.16 44.1 13.4734 44.1 13.86V16.94H11.9V9.10001H39.06C39.4466 9.10001 39.76 8.78661 39.76 8.40001C39.76 8.01341 39.4466 7.70001 39.06 7.70001H11.2Z"
        fill="#304436" />
    <path
        d="M11.9 31.71C11.9 31.3234 11.5866 31.01 11.2 31.01C10.8134 31.01 10.5 31.3234 10.5 31.71V36.4C10.5 36.7866 10.8134 37.1 11.2 37.1C11.5866 37.1 11.9 36.7866 11.9 36.4V31.71Z"
        fill="#304436" />
    <path
        d="M11.9 38.92C11.9 38.5334 11.5866 38.22 11.2 38.22C10.8134 38.22 10.5 38.5334 10.5 38.92V47.6C10.5 47.9866 10.8134 48.3 11.2 48.3C11.5866 48.3 11.9 47.9866 11.9 47.6V38.92Z"
        fill="#304436" />
    <path
        d="M45.5 38.92C45.5 38.5334 45.1866 38.22 44.8 38.22C44.4134 38.22 44.1 38.5334 44.1 38.92V46.9H20.86C20.4734 46.9 20.16 47.2134 20.16 47.6C20.16 47.9866 20.4734 48.3 20.86 48.3H44.8C45.1866 48.3 45.5 47.9866 45.5 47.6V38.92Z"
        fill="#304436" />
    <path fill-rule="evenodd" clip-rule="evenodd"
        d="M33.6 39.62C33.9866 39.62 34.3 39.9334 34.3 40.32V45.36C34.3 45.7466 33.9866 46.06 33.6 46.06C33.2134 46.06 32.9 45.7466 32.9 45.36V40.32C32.9 39.9334 33.2134 39.62 33.6 39.62Z"
        fill="#304436" />
    <path fill-rule="evenodd" clip-rule="evenodd"
        d="M22.4 39.62C22.7866 39.62 23.1 39.9334 23.1 40.32V45.36C23.1 45.7466 22.7866 46.06 22.4 46.06C22.0134 46.06 21.7 45.7466 21.7 45.36V40.32C21.7 39.9334 22.0134 39.62 22.4 39.62Z"
        fill="#304436" />
    <path fill-rule="evenodd" clip-rule="evenodd"
        d="M7.90498 35.905C8.03625 35.7738 8.2143 35.7 8.39995 35.7H47.6C47.9865 35.7 48.2999 36.0134 48.2999 36.4V38.5C48.2999 38.8866 47.9865 39.2 47.6 39.2H8.39995C8.01335 39.2 7.69995 38.8866 7.69995 38.5V36.4C7.69995 36.2143 7.7737 36.0363 7.90498 35.905ZM9.09995 37.1V37.8H46.9V37.1H9.09995Z"
        fill="#304436" />
    <path fill-rule="evenodd" clip-rule="evenodd"
        d="M17.36 11.2C17.36 10.8134 17.6734 10.5 18.06 10.5H21.42C21.8066 10.5 22.12 10.8134 22.12 11.2C22.12 11.5866 21.8066 11.9 21.42 11.9H18.06C17.6734 11.9 17.36 11.5866 17.36 11.2ZM31.64 11.2C31.64 10.8134 31.9534 10.5 32.34 10.5H40.4599C40.8465 10.5 41.16 10.8134 41.16 11.2C41.16 11.5866 40.8465 11.9 40.4599 11.9H32.34C31.9534 11.9 31.64 11.5866 31.64 11.2ZM13.58 14C13.58 13.6134 13.8934 13.3 14.28 13.3H25.9C26.2866 13.3 26.6 13.6134 26.6 14C26.6 14.3866 26.2866 14.7 25.9 14.7H14.28C13.8934 14.7 13.58 14.3866 13.58 14ZM35.7 14C35.7 13.6134 36.0134 13.3 36.4 13.3H38.64C39.0266 13.3 39.34 13.6134 39.34 14C39.34 14.3866 39.0266 14.7 38.64 14.7H36.4C36.0134 14.7 35.7 14.3866 35.7 14Z"
        fill="#304436" />
    <path fill-rule="evenodd" clip-rule="evenodd"
        d="M37.38 5.32001C36.994 5.32001 36.68 5.00599 36.68 4.62001C36.68 4.234 36.994 3.92001 37.38 3.92001C37.7659 3.92001 38.08 4.234 38.08 4.62001C38.08 5.00599 37.7659 5.32001 37.38 5.32001ZM15.82 49.98C15.434 49.98 15.12 49.666 15.12 49.28C15.12 48.894 15.434 48.58 15.82 48.58C16.2059 48.58 16.52 48.894 16.52 49.28C16.52 49.666 16.2059 49.98 15.82 49.98ZM7.27996 15.4C6.89398 15.4 6.57996 15.086 6.57996 14.7C6.57996 14.314 6.89398 14 7.27996 14C7.66594 14 7.97996 14.314 7.97996 14.7C7.97996 15.086 7.66594 15.4 7.27996 15.4Z"
        fill="#CACAFB" />
    <path fill-rule="evenodd" clip-rule="evenodd"
        d="M49.56 23.24C49.174 23.24 48.86 22.926 48.86 22.54C48.86 22.154 49.174 21.84 49.56 21.84C49.9459 21.84 50.26 22.154 50.26 22.54C50.26 22.926 49.9459 23.24 49.56 23.24Z"
        fill="#CACAFB" />
</svg>
