<svg width="56" height="56" viewBox="0 0 56 56" fill="none" xmlns="http://www.w3.org/2000/svg">
    <path fill-rule="evenodd" clip-rule="evenodd"
        d="M7.69995 8.40001C7.69995 8.01341 8.01335 7.70001 8.39995 7.70001H44.7999C45.1866 7.70001 45.5 8.01341 45.5 8.40001C45.5 8.78661 45.1866 9.10001 44.7999 9.10001H21.14V32.2H46.9V11.2C46.9 10.8134 47.2134 10.5 47.6 10.5C47.9865 10.5 48.2999 10.8134 48.2999 11.2V47.6C48.2999 47.9866 47.9865 48.3 47.6 48.3H8.39995C8.01335 48.3 7.69995 47.9866 7.69995 47.6V17.36C7.69995 16.9734 8.01335 16.66 8.39995 16.66C8.78655 16.66 9.09995 16.9734 9.09995 17.36V46.9H19.74V42.7C19.74 42.3134 20.0534 42 20.44 42C20.8266 42 21.14 42.3134 21.14 42.7V46.9H46.9V33.6H21.14V37.8C21.14 38.1866 20.8266 38.5 20.44 38.5C20.0534 38.5 19.74 38.1866 19.74 37.8V9.10001H9.09995V11.2C9.09995 11.5866 8.78655 11.9 8.39995 11.9C8.01335 11.9 7.69995 11.5866 7.69995 11.2V8.40001Z"
        fill="#304436" />
    <path fill-rule="evenodd" clip-rule="evenodd"
        d="M22.54 28C22.54 27.6134 22.8534 27.3 23.24 27.3H44.8C45.1866 27.3 45.5 27.6134 45.5 28C45.5 28.3866 45.1866 28.7 44.8 28.7H23.24C22.8534 28.7 22.54 28.3866 22.54 28Z"
        fill="#304436" />
    <path fill-rule="evenodd" clip-rule="evenodd"
        d="M15.75 51.59C15.75 51.204 15.436 50.89 15.05 50.89C14.664 50.89 14.3501 51.204 14.3501 51.59C14.3501 51.976 14.664 52.29 15.05 52.29C15.436 52.29 15.75 51.976 15.75 51.59ZM51.45 5.39C51.45 5.00402 51.136 4.69 50.75 4.69C50.364 4.69 50.05 5.00402 50.05 5.39C50.05 5.77598 50.364 6.09 50.75 6.09C51.136 6.09 51.45 5.77598 51.45 5.39ZM4.20005 9.24C4.20005 8.85402 3.88603 8.54 3.50005 8.54C3.11404 8.54 2.80005 8.85402 2.80005 9.24C2.80005 9.62598 3.11404 9.94 3.50005 9.94C3.88603 9.94 4.20005 9.62598 4.20005 9.24Z"
        fill="#CACAFB" />
    <path fill-rule="evenodd" clip-rule="evenodd"
        d="M53.76 52.36C53.76 51.974 53.446 51.66 53.06 51.66C52.674 51.66 52.36 51.974 52.36 52.36C52.36 52.746 52.674 53.06 53.06 53.06C53.446 53.06 53.76 52.746 53.76 52.36Z"
        fill="#CACAFB" />
</svg>
