<svg width="56" height="56" viewBox="0 0 56 56" fill="none" xmlns="http://www.w3.org/2000/svg">
    <path fill-rule="evenodd" clip-rule="evenodd"
        d="M33.6 35.56C33.9866 35.56 34.3 35.8734 34.3 36.26V42.98C34.3 43.3666 33.9866 43.68 33.6 43.68C33.2134 43.68 32.9 43.3666 32.9 42.98V36.26C32.9 35.8734 33.2134 35.56 33.6 35.56Z"
        fill="#304436" />
    <path
        d="M11.2 7.70001H21.28C21.6666 7.70001 21.98 8.01341 21.98 8.40001C21.98 8.78661 21.6666 9.10001 21.28 9.10001H11.9V27.02C11.9 27.4066 11.5866 27.72 11.2 27.72C10.8134 27.72 10.5 27.4066 10.5 27.02V8.40001C10.5 8.01341 10.8134 7.70001 11.2 7.70001Z"
        fill="#304436" />
    <path fill-rule="evenodd" clip-rule="evenodd"
        d="M29.26 7.70001C28.8734 7.70001 28.56 8.01341 28.56 8.40001C28.56 8.78661 28.8734 9.10001 29.26 9.10001H44.1V31.22H8.39995C8.01335 31.22 7.69995 31.5334 7.69995 31.92C7.69995 32.3066 8.01335 32.62 8.39995 32.62H16.1V46.9H11.9V36.4C11.9 36.0134 11.5866 35.7 11.2 35.7C10.8134 35.7 10.5 36.0134 10.5 36.4V47.6C10.5 47.7857 10.5737 47.9637 10.705 48.095C10.8363 48.2263 11.0143 48.3 11.2 48.3H44.7999C45.1866 48.3 45.5 47.9866 45.5 47.6V32.62H47.6C47.9865 32.62 48.2999 32.3066 48.2999 31.92C48.2999 31.5334 47.9865 31.22 47.6 31.22H45.5V8.40001C45.5 8.01341 45.1866 7.70001 44.7999 7.70001H29.26ZM44.1 32.62H23.1V42C23.1 42.3866 22.7866 42.7 22.4 42.7C22.0134 42.7 21.7 42.3866 21.7 42V32.62H17.5V46.9H38.5V34.3C38.5 33.9134 38.8134 33.6 39.2 33.6C39.5866 33.6 39.9 33.9134 39.9 34.3V46.9H44.1V32.62Z"
        fill="#304436" />
    <path fill-rule="evenodd" clip-rule="evenodd"
        d="M28 13.02C28.3866 13.02 28.7001 13.3334 28.7001 13.72V29.54C28.7001 29.9266 28.3866 30.24 28 30.24C27.6134 30.24 27.3 29.9266 27.3 29.54V13.72C27.3 13.3334 27.6134 13.02 28 13.02ZM28 33.6C28.3866 33.6 28.7001 33.9134 28.7001 34.3V45.78C28.7001 46.1666 28.3866 46.48 28 46.48C27.6134 46.48 27.3 46.1666 27.3 45.78V34.3C27.3 33.9134 27.6134 33.6 28 33.6Z"
        fill="#304436" />
    <path fill-rule="evenodd" clip-rule="evenodd"
        d="M50.0499 35.91C50.0499 35.524 50.364 35.21 50.7499 35.21C51.136 35.21 51.4499 35.524 51.4499 35.91C51.4499 36.296 51.136 36.61 50.7499 36.61C50.364 36.61 50.0499 36.296 50.0499 35.91ZM5.38996 14.35C5.38996 13.964 5.70398 13.65 6.08995 13.65C6.47597 13.65 6.78995 13.964 6.78995 14.35C6.78995 14.736 6.47597 15.05 6.08995 15.05C5.70398 15.05 5.38996 14.736 5.38996 14.35ZM43.68 2.52001C43.68 2.13403 43.994 1.82001 44.38 1.82001C44.766 1.82001 45.08 2.13403 45.08 2.52001C45.08 2.90599 44.766 3.22001 44.38 3.22001C43.994 3.22001 43.68 2.90599 43.68 2.52001Z"
        fill="#CACAFB" />
    <path fill-rule="evenodd" clip-rule="evenodd"
        d="M14.28 52.36C14.28 51.974 14.594 51.66 14.98 51.66C15.366 51.66 15.68 51.974 15.68 52.36C15.68 52.746 15.366 53.06 14.98 53.06C14.594 53.06 14.28 52.746 14.28 52.36Z"
        fill="#CACAFB" />
</svg>
