<svg width="56" height="56" viewBox="0 0 56 56" fill="none" xmlns="http://www.w3.org/2000/svg">
    <path fill-rule="evenodd" clip-rule="evenodd"
        d="M16.1 16.66H31.92C32.3066 16.66 32.62 16.9734 32.62 17.36C32.62 17.7466 32.3066 18.06 31.92 18.06H17.5V27.3H27.3V22.68C27.3 22.2934 27.6134 21.98 28 21.98C28.3866 21.98 28.7 22.2934 28.7 22.68V27.3H38.5V17.36C38.5 16.9734 38.8134 16.66 39.2 16.66C39.5866 16.66 39.9 16.9734 39.9 17.36V39.34H16.1V16.66ZM38.5 28.7H28.7V37.94H38.5V28.7ZM27.3 37.94V28.7H17.5V37.94H27.3Z"
        fill="#304436" />
    <path fill-rule="evenodd" clip-rule="evenodd"
        d="M14.84 42C14.84 41.6134 15.1534 41.3 15.54 41.3H48.2999V48.3H7.69995V46.06C7.69995 45.6734 8.01335 45.36 8.39995 45.36C8.78655 45.36 9.09995 45.6734 9.09995 46.06V46.9H46.9V42.7H15.54C15.1534 42.7 14.84 42.3866 14.84 42Z"
        fill="#304436" />
    <path fill-rule="evenodd" clip-rule="evenodd"
        d="M27.3678 2.22014C27.6019 2.06181 27.9083 2.05978 28.1444 2.21502L41.1244 10.7465C41.4475 10.9588 41.5373 11.3928 41.3249 11.7159C41.1126 12.039 40.6785 12.1287 40.3555 11.9164L27.7655 3.64129L13.4844 13.3H37.52C37.9066 13.3 38.22 13.6134 38.22 14C38.22 14.3866 37.9066 14.7 37.52 14.7H11.2C10.8923 14.7 10.6208 14.4992 10.5307 14.2051C10.4405 13.9109 10.553 13.5925 10.8078 13.4201L27.3678 2.22014Z"
        fill="#304436" />
    <path fill-rule="evenodd" clip-rule="evenodd"
        d="M47.6 9.09998C47.214 9.09998 46.9 8.78596 46.9 8.39998C46.9 8.01396 47.214 7.69998 47.6 7.69998C47.9859 7.69998 48.3 8.01396 48.3 8.39998C48.3 8.78596 47.9859 9.09998 47.6 9.09998ZM28.7 53.2C28.314 53.2 28 52.886 28 52.5C28 52.114 28.314 51.8 28.7 51.8C29.0859 51.8 29.4 52.114 29.4 52.5C29.4 52.886 29.0859 53.2 28.7 53.2ZM10.5 6.99998C10.114 6.99998 9.79996 6.68596 9.79996 6.29998C9.79996 5.91396 10.114 5.59998 10.5 5.59998C10.8859 5.59998 11.2 5.91396 11.2 6.29998C11.2 6.68596 10.8859 6.99998 10.5 6.99998Z"
        fill="#CACAFB" />
    <path fill-rule="evenodd" clip-rule="evenodd"
        d="M51.1 34.86C50.714 34.86 50.4 34.546 50.4 34.16C50.4 33.774 50.714 33.46 51.1 33.46C51.4859 33.46 51.8 33.774 51.8 34.16C51.8 34.546 51.4859 34.86 51.1 34.86ZM6.15996 29.82C5.77398 29.82 5.45996 29.506 5.45996 29.12C5.45996 28.734 5.77398 28.42 6.15996 28.42C6.54594 28.42 6.85996 28.734 6.85996 29.12C6.85996 29.506 6.54594 29.82 6.15996 29.82Z"
        fill="#CACAFB" />
    <path fill-rule="evenodd" clip-rule="evenodd"
        d="M11.2 16.66C11.5866 16.66 11.9 16.9734 11.9 17.36V38.64C11.9 39.0266 11.5866 39.34 11.2 39.34C10.8134 39.34 10.5 39.0266 10.5 38.64V17.36C10.5 16.9734 10.8134 16.66 11.2 16.66Z"
        fill="#304436" />
    <path fill-rule="evenodd" clip-rule="evenodd"
        d="M44.8 16.66C45.1866 16.66 45.5 16.9734 45.5 17.36V38.64C45.5 39.0266 45.1866 39.34 44.8 39.34C44.4134 39.34 44.1 39.0266 44.1 38.64V17.36C44.1 16.9734 44.4134 16.66 44.8 16.66Z"
        fill="#304436" />
</svg>
