<svg width="200" height="200" viewBox="0 0 200 200" fill="none" xmlns="http://www.w3.org/2000/svg">
    <rect width="200" height="200" fill="white" />
    <path fill-rule="evenodd" clip-rule="evenodd"
        d="M100 79.5C95.3764 79.5 91.3359 82.009 89.1708 85.7518C88.4794 86.947 86.9501 87.3554 85.7549 86.664C84.5598 85.9727 84.1514 84.4433 84.8427 83.2482C87.8648 78.0239 93.5194 74.5 100 74.5C106.481 74.5 112.135 78.0239 115.157 83.2482C115.849 84.4433 115.44 85.9727 114.245 86.664C113.05 87.3554 111.521 86.947 110.829 85.7518C108.664 82.009 104.624 79.5 100 79.5ZM106.272 105.859C106.625 107.194 105.83 108.563 104.496 108.916C103.058 109.298 101.551 109.5 100 109.5C98.4491 109.5 96.9416 109.298 95.5042 108.916C94.1697 108.563 93.3746 107.194 93.7285 105.859C94.0824 104.525 95.4512 103.73 96.7858 104.084C97.8087 104.355 98.8855 104.5 100 104.5C101.115 104.5 102.191 104.355 103.214 104.084C104.549 103.73 105.918 104.525 106.272 105.859Z"
        fill="#304436" />
    <path fill-rule="evenodd" clip-rule="evenodd"
        d="M85.3074 116.144C89.6673 112.961 92.5 107.811 92.5 102C92.5 92.335 84.665 84.5 75 84.5C65.335 84.5 57.5 92.335 57.5 102C57.5 107.811 60.3327 112.961 64.6926 116.144C54.816 119.412 47.5 127.257 47.5 137C47.5 138.381 48.6193 139.5 50 139.5C51.3807 139.5 52.5 138.381 52.5 137C52.5 127.827 62.0242 119.5 75 119.5C87.9758 119.5 97.5 127.827 97.5 137C97.5 138.381 98.6193 139.5 100 139.5C101.381 139.5 102.5 138.381 102.5 137C102.5 127.257 95.184 119.412 85.3074 116.144ZM62.5 102C62.5 95.0964 68.0964 89.5 75 89.5C81.9036 89.5 87.5 95.0964 87.5 102C87.5 108.904 81.9036 114.5 75 114.5C68.0964 114.5 62.5 108.904 62.5 102Z"
        fill="#304436" />
    <path fill-rule="evenodd" clip-rule="evenodd"
        d="M135.307 116.144C139.667 112.961 142.5 107.811 142.5 102C142.5 92.335 134.665 84.5 125 84.5C115.335 84.5 107.5 92.335 107.5 102C107.5 107.811 110.333 112.961 114.693 116.144C104.816 119.412 97.5 127.257 97.5 137C97.5 138.381 98.6193 139.5 100 139.5C101.381 139.5 102.5 138.381 102.5 137C102.5 127.827 112.024 119.5 125 119.5C137.976 119.5 147.5 127.827 147.5 137C147.5 138.381 148.619 139.5 150 139.5C151.381 139.5 152.5 138.381 152.5 137C152.5 127.257 145.184 119.412 135.307 116.144ZM112.5 102C112.5 95.0964 118.096 89.5 125 89.5C131.904 89.5 137.5 95.0964 137.5 102C137.5 108.904 131.904 114.5 125 114.5C118.096 114.5 112.5 108.904 112.5 102Z"
        fill="#304436" />
    <path fill-rule="evenodd" clip-rule="evenodd"
        d="M37.5 29C37.5 27.6193 38.6193 26.5 40 26.5H144C145.381 26.5 146.5 27.6193 146.5 29C146.5 30.3807 145.381 31.5 144 31.5H42.5V166.5H157.5V68C157.5 66.6193 158.619 65.5 160 65.5C161.381 65.5 162.5 66.6193 162.5 68V169C162.5 170.381 161.381 171.5 160 171.5H40C38.6193 171.5 37.5 170.381 37.5 169V29ZM160 42C161.381 42 162.5 43.1193 162.5 44.5V56.5C162.5 57.8807 161.381 59 160 59C158.619 59 157.5 57.8807 157.5 56.5V44.5C157.5 43.1193 158.619 42 160 42Z"
        fill="#304436" />
    <path fill-rule="evenodd" clip-rule="evenodd"
        d="M27 79C27 77.6215 25.8785 76.5 24.5 76.5C23.1214 76.5 22 77.6215 22 79C22 80.3785 23.1214 81.5 24.5 81.5C25.8785 81.5 27 80.3785 27 79ZM186 52.5C186 51.1215 184.878 50 183.5 50C182.121 50 181 51.1215 181 52.5C181 53.8785 182.121 55 183.5 55C184.878 55 186 53.8785 186 52.5Z"
        fill="#CACAFB" />
    <path fill-rule="evenodd" clip-rule="evenodd"
        d="M65 183.5C65 182.122 63.8785 181 62.5 181C61.1214 181 60 182.122 60 183.5C60 184.879 61.1214 186 62.5 186C63.8785 186 65 184.879 65 183.5Z"
        fill="#CACAFB" />
    <path
        d="M162 20.5C162 19.1215 160.878 18 159.5 18C158.121 18 157 19.1215 157 20.5C157 21.8785 158.121 23 159.5 23C160.878 23 162 21.8785 162 20.5Z"
        fill="#CACAFB" />
</svg>
