<svg width="200" height="200" viewBox="0 0 200 200" fill="none" xmlns="http://www.w3.org/2000/svg">
    <rect width="200" height="200" fill="white" />
    <path fill-rule="evenodd" clip-rule="evenodd"
        d="M112.461 106.149C119.081 102.111 123.5 94.8214 123.5 86.5C123.5 73.7975 113.203 63.5 100.5 63.5C87.7975 63.5 77.5 73.7975 77.5 86.5C77.5 94.8214 81.9192 102.111 88.5387 106.149C74.7825 110.055 64.5 120.527 64.5 133.5C64.5 134.881 65.6193 136 67 136C68.3807 136 69.5 134.881 69.5 133.5C69.5 120.76 82.8011 109.5 100.5 109.5C118.199 109.5 131.5 120.76 131.5 133.5C131.5 134.881 132.619 136 134 136C135.381 136 136.5 134.881 136.5 133.5C136.5 120.527 126.218 110.055 112.461 106.149ZM82.5 86.5C82.5 76.5589 90.5589 68.5 100.5 68.5C110.441 68.5 118.5 76.5589 118.5 86.5C118.5 96.4411 110.441 104.5 100.5 104.5C90.5589 104.5 82.5 96.4411 82.5 86.5Z"
        fill="#304436" />
    <path fill-rule="evenodd" clip-rule="evenodd"
        d="M37.5 29C37.5 27.6193 38.6193 26.5 40 26.5H145.5C146.881 26.5 148 27.6193 148 29C148 30.3807 146.881 31.5 145.5 31.5H42.5V166.5H157.5V87.5C157.5 86.1193 158.619 85 160 85C161.381 85 162.5 86.1193 162.5 87.5V169C162.5 170.381 161.381 171.5 160 171.5H40C38.6193 171.5 37.5 170.381 37.5 169V29ZM160 37C161.381 37 162.5 38.1193 162.5 39.5V76.5C162.5 77.8807 161.381 79 160 79C158.619 79 157.5 77.8807 157.5 76.5V39.5C157.5 38.1193 158.619 37 160 37Z"
        fill="#304436" />
    <path fill-rule="evenodd" clip-rule="evenodd"
        d="M19 143C19 141.621 17.8785 140.5 16.5 140.5C15.1214 140.5 14 141.621 14 143C14 144.379 15.1214 145.5 16.5 145.5C17.8785 145.5 19 144.379 19 143ZM186 76.5C186 75.1215 184.878 74 183.5 74C182.121 74 181 75.1215 181 76.5C181 77.8785 182.121 79 183.5 79C184.878 79 186 77.8785 186 76.5Z"
        fill="#CACAFB" />
    <path fill-rule="evenodd" clip-rule="evenodd"
        d="M145 191.5C145 190.121 143.878 189 142.5 189C141.121 189 140 190.121 140 191.5C140 192.878 141.121 194 142.5 194C143.878 194 145 192.878 145 191.5Z"
        fill="#CACAFB" />
    <path
        d="M66 12.5C66 11.1215 64.8785 10 63.5 10C62.1214 10 61 11.1215 61 12.5C61 13.8785 62.1214 15 63.5 15C64.8785 15 66 13.8785 66 12.5Z"
        fill="#CACAFB" />
</svg>
