<svg width="56" height="56" viewBox="0 0 56 56" fill="none" xmlns="http://www.w3.org/2000/svg">
    <path fill-rule="evenodd" clip-rule="evenodd"
        d="M17.7762 15.481C20.562 13.2032 24.1208 11.8373 28 11.8373C28.3306 11.8373 28.5986 11.5692 28.5986 11.2386C28.5986 10.908 28.3306 10.64 28 10.64C23.5884 10.64 19.5598 12.2864 16.4975 14.9974C16.2323 15.2322 15.9743 15.4749 15.724 15.7253C15.4773 15.972 15.2379 16.2262 15.0064 16.4874C12.29 19.5509 10.64 23.5835 10.64 28C10.64 34.5283 14.2438 40.2141 19.5676 43.1779C19.8565 43.3388 20.221 43.235 20.3818 42.9461C20.5426 42.6572 20.4388 42.2927 20.15 42.1319C15.1903 39.3708 11.8373 34.0765 11.8373 28C11.8373 24.1161 13.2065 20.5533 15.4893 17.7661L34.2877 36.5645C34.5215 36.7983 34.9005 36.7983 35.1343 36.5645C35.3681 36.3308 35.3681 35.9517 35.1343 35.718L16.2831 16.8667C16.3777 16.7672 16.4736 16.6689 16.5706 16.5718C16.6712 16.4712 16.773 16.372 16.8762 16.2741L20.2736 19.6715C20.5073 19.9053 20.8864 19.9053 21.1201 19.6715C21.3539 19.4377 21.3539 19.0587 21.1201 18.8249L17.7762 15.481ZM37.7012 14.3167C37.9021 14.0541 38.2778 14.0041 38.5403 14.205C42.685 17.3765 45.36 22.376 45.36 28C45.36 32.4117 43.7136 36.4402 41.0026 39.5026C40.7683 39.7673 40.5259 40.0248 40.276 40.2748C40.0289 40.5219 39.7743 40.7617 39.5127 40.9937C36.4491 43.71 32.4165 45.36 28 45.36C27.6694 45.36 27.4014 45.092 27.4014 44.7614C27.4014 44.4308 27.6694 44.1628 28 44.1628C31.8839 44.1628 35.4467 42.7936 38.2339 40.5107L35.718 37.9948C35.4842 37.761 35.4842 37.382 35.718 37.1482C35.9517 36.9144 36.3308 36.9144 36.5645 37.1482L39.1333 39.7169C39.2332 39.622 39.3319 39.5257 39.4294 39.4282C39.5295 39.3281 39.6284 39.2266 39.7259 39.1238L22.68 22.0779C22.4462 21.8441 22.4462 21.4651 22.68 21.2313C22.9138 20.9976 23.2928 20.9976 23.5266 21.2313L40.519 38.2238C42.7969 35.4381 44.1628 31.8792 44.1628 28C44.1628 22.7645 41.6741 18.1105 37.8128 15.1559C37.5502 14.955 37.5002 14.5792 37.7012 14.3167Z"
        fill="#304436" />
    <path fill-rule="evenodd" clip-rule="evenodd"
        d="M9.79999 46.76C9.79999 46.374 9.48598 46.06 9.1 46.06C8.71398 46.06 8.4 46.374 8.4 46.76C8.4 47.146 8.71398 47.46 9.1 47.46C9.48598 47.46 9.79999 47.146 9.79999 46.76ZM47.6 14.7C47.6 14.314 47.286 14 46.9 14C46.514 14 46.2 14.314 46.2 14.7C46.2 15.086 46.514 15.4 46.9 15.4C47.286 15.4 47.6 15.086 47.6 14.7ZM7.13999 11.9C7.13999 11.514 6.82597 11.2 6.43999 11.2C6.05398 11.2 5.73999 11.514 5.73999 11.9C5.73999 12.286 6.05398 12.6 6.43999 12.6C6.82597 12.6 7.13999 12.286 7.13999 11.9Z"
        fill="#CACAFB" />
    <path fill-rule="evenodd" clip-rule="evenodd"
        d="M45.08 44.66C45.08 44.274 44.766 43.96 44.38 43.96C43.994 43.96 43.68 44.274 43.68 44.66C43.68 45.046 43.994 45.36 44.38 45.36C44.766 45.36 45.08 45.046 45.08 44.66Z"
        fill="#CACAFB" />
    <path
        d="M38.64 3.49999C38.64 3.11401 38.326 2.79999 37.94 2.79999C37.554 2.79999 37.24 3.11401 37.24 3.49999C37.24 3.88597 37.554 4.19999 37.94 4.19999C38.326 4.19999 38.64 3.88597 38.64 3.49999Z"
        fill="#CACAFB" />
</svg>
