<svg width="56" height="56" viewBox="0 0 56 56" fill="none" xmlns="http://www.w3.org/2000/svg">
    <path fill-rule="evenodd" clip-rule="evenodd"
        d="M28.5153 27.0536C28.7365 26.8318 29.0918 26.8212 29.3257 27.0296L45.1666 41.1376C45.4076 41.3523 45.4235 41.7319 45.2137 41.9774L45.1887 42.0064C45.1669 42.0316 45.1352 42.0681 45.0946 42.1145C45.0135 42.2072 44.897 42.3391 44.7543 42.4973C44.4695 42.813 44.0782 43.2356 43.6553 43.6598C43.4061 43.9096 43.1578 44.1482 42.9317 44.3602C42.6933 44.5838 42.3192 44.5712 42.0963 44.3321C41.8733 44.093 41.8859 43.7178 42.1243 43.4942C42.343 43.2892 42.5816 43.06 42.8193 42.8215C43.2239 42.4158 43.601 42.0086 43.8777 41.7018C43.8994 41.6778 43.9205 41.6543 43.9409 41.6316L28.9573 28.287L28.5568 28.6886L40.4032 42.4984C40.6161 42.7466 40.588 43.1208 40.3406 43.3343C40.0931 43.5479 39.7199 43.5197 39.507 43.2716L27.303 29.0449C27.1013 28.8098 27.1145 28.4585 27.3332 28.2392L28.5153 27.0536Z"
        fill="#304436" />
    <path fill-rule="evenodd" clip-rule="evenodd"
        d="M15.2716 13.6104C14.387 13.2196 13.4882 14.1304 13.8751 15.0255L24.2258 38.9753L28.9215 34.3577C29.1551 34.128 29.5283 34.1335 29.7551 34.3699C29.982 34.6063 29.9766 34.9841 29.7431 35.2138L24.4374 40.4313C24.2987 40.5676 24.1028 40.6265 23.9131 40.5888C23.7234 40.5512 23.564 40.4217 23.4865 40.2424L12.7949 15.5039C11.9782 13.6142 13.8756 11.6916 15.7431 12.5164L26.2043 17.137C26.5027 17.2688 26.6391 17.6205 26.5089 17.9226C26.3787 18.2247 26.0312 18.3627 25.7328 18.2309L15.2716 13.6104ZM29.0087 19.0267C29.1389 18.7247 29.4864 18.5866 29.7848 18.7184L40.5262 23.4628C40.7063 23.5423 40.8354 23.7074 40.8705 23.903C40.9056 24.0987 40.8421 24.2992 40.7012 24.4378L35.3609 29.6894C35.1273 29.919 34.7541 29.9136 34.5272 29.6772C34.3004 29.4407 34.3058 29.0629 34.5393 28.8333L39.2497 24.2012L29.3133 19.8124C29.0149 19.6806 28.8785 19.3288 29.0087 19.0267Z"
        fill="#304436" />
    <path fill-rule="evenodd" clip-rule="evenodd"
        d="M9.80003 46.76C9.80003 46.374 9.48601 46.06 9.10003 46.06C8.71401 46.06 8.40003 46.374 8.40003 46.76C8.40003 47.146 8.71401 47.46 9.10003 47.46C9.48601 47.46 9.80003 47.146 9.80003 46.76ZM47.6 14.7C47.6 14.314 47.286 14 46.9 14C46.514 14 46.2 14.314 46.2 14.7C46.2 15.086 46.514 15.4 46.9 15.4C47.286 15.4 47.6 15.086 47.6 14.7Z"
        fill="#CACAFB" />
    <path fill-rule="evenodd" clip-rule="evenodd"
        d="M36.12 51.38C36.12 50.994 35.806 50.68 35.42 50.68C35.034 50.68 34.72 50.994 34.72 51.38C34.72 51.766 35.034 52.08 35.42 52.08C35.806 52.08 36.12 51.766 36.12 51.38Z"
        fill="#CACAFB" />
    <path
        d="M25.2 10.22C25.2 9.83401 24.886 9.51999 24.5 9.51999C24.114 9.51999 23.8 9.83401 23.8 10.22C23.8 10.606 24.114 10.92 24.5 10.92C24.886 10.92 25.2 10.606 25.2 10.22Z"
        fill="#CACAFB" />
</svg>
