<svg width="56" height="56" viewBox="0 0 56 56" fill="none" xmlns="http://www.w3.org/2000/svg">
    <path fill-rule="evenodd" clip-rule="evenodd"
        d="M46.2 46.76C46.2 46.374 46.514 46.06 46.9 46.06C47.286 46.06 47.6 46.374 47.6 46.76C47.6 47.146 47.286 47.46 46.9 47.46C46.514 47.46 46.2 47.146 46.2 46.76ZM8.39998 14.7C8.39998 14.314 8.714 14 9.09998 14C9.48599 14 9.79998 14.314 9.79998 14.7C9.79998 15.086 9.48599 15.4 9.09998 15.4C8.714 15.4 8.39998 15.086 8.39998 14.7Z"
        fill="#CACAFB" />
    <path fill-rule="evenodd" clip-rule="evenodd"
        d="M19.88 51.38C19.88 50.994 20.194 50.68 20.58 50.68C20.966 50.68 21.28 50.994 21.28 51.38C21.28 51.766 20.966 52.08 20.58 52.08C20.194 52.08 19.88 51.766 19.88 51.38Z"
        fill="#CACAFB" />
    <path
        d="M30.8 10.22C30.8 9.83403 31.114 9.52001 31.5 9.52001C31.886 9.52001 32.2 9.83403 32.2 10.22C32.2 10.606 31.886 10.92 31.5 10.92C31.114 10.92 30.8 10.606 30.8 10.22Z"
        fill="#CACAFB" />
    <path
        d="M40.32 6.30001C40.32 5.91403 40.634 5.60001 41.02 5.60001C41.406 5.60001 41.72 5.91403 41.72 6.30001C41.72 6.68599 41.406 7.00001 41.02 7.00001C40.634 7.00001 40.32 6.68599 40.32 6.30001Z"
        fill="#CACAFB" />
    <path
        d="M5.03998 49.42C5.03998 49.034 5.354 48.72 5.73998 48.72C6.12599 48.72 6.43998 49.034 6.43998 49.42C6.43998 49.806 6.12599 50.12 5.73998 50.12C5.354 50.12 5.03998 49.806 5.03998 49.42Z"
        fill="#CACAFB" />
    <path fill-rule="evenodd" clip-rule="evenodd"
        d="M19.46 32.34C16.5219 32.34 14.14 34.7219 14.14 37.66C14.14 40.5982 16.5219 42.98 19.46 42.98C22.3982 42.98 24.78 40.5982 24.78 37.66C24.78 34.7219 22.3982 32.34 19.46 32.34ZM12.74 37.66C12.74 33.9487 15.7487 30.94 19.46 30.94C23.1714 30.94 26.18 33.9487 26.18 37.66C26.18 41.3714 23.1714 44.38 19.46 44.38C15.7487 44.38 12.74 41.3714 12.74 37.66Z"
        fill="#304436" />
    <path fill-rule="evenodd" clip-rule="evenodd"
        d="M18.76 35C18.76 34.6134 19.0734 34.3 19.46 34.3C21.3157 34.3 22.82 35.8043 22.82 37.66C22.82 39.5157 21.3157 41.02 19.46 41.02C17.6044 41.02 16.1 39.5157 16.1 37.66C16.1 37.2734 16.4134 36.96 16.8 36.96C17.1866 36.96 17.5 37.2734 17.5 37.66C17.5 38.7425 18.3776 39.62 19.46 39.62C20.5425 39.62 21.42 38.7425 21.42 37.66C21.42 36.5775 20.5425 35.7 19.46 35.7C19.0734 35.7 18.76 35.3866 18.76 35Z"
        fill="#304436" />
    <path fill-rule="evenodd" clip-rule="evenodd"
        d="M38.5 32.34C35.5619 32.34 33.18 34.7219 33.18 37.66C33.18 40.5982 35.5619 42.98 38.5 42.98C40.4963 42.98 42.2368 41.8808 43.1475 40.2513C43.3362 39.9138 43.7626 39.7932 44.1001 39.9818C44.4376 40.1704 44.5582 40.5969 44.3696 40.9343C43.2215 42.9886 41.0237 44.38 38.5 44.38C34.7887 44.38 31.78 41.3714 31.78 37.66C31.78 33.9487 34.7887 30.94 38.5 30.94C42.2114 30.94 45.22 33.9487 45.22 37.66C45.22 38.0466 44.9066 38.36 44.52 38.36C44.1334 38.36 43.82 38.0466 43.82 37.66C43.82 34.7219 41.4382 32.34 38.5 32.34Z"
        fill="#304436" />
    <path fill-rule="evenodd" clip-rule="evenodd"
        d="M15.346 16.0742C15.479 15.9132 15.6769 15.82 15.8857 15.82H24.4279C24.6902 15.82 24.9304 15.9666 25.0504 16.1999L27.6507 21.2568H47.88C48.2666 21.2568 48.58 21.5702 48.58 21.9568V28.481C48.58 28.8676 48.2666 29.181 47.88 29.181C47.4935 29.181 47.18 28.8676 47.18 28.481V22.6568H27.2235C26.9612 22.6568 26.7209 22.5102 26.601 22.2769L24.0007 17.22H16.7331L17.2405 19.8588H19.9238C20.1861 19.8588 20.4264 20.0054 20.5463 20.2387L23.3419 25.6755C23.5187 26.0193 23.3833 26.4413 23.0395 26.6181C22.6957 26.7949 22.2737 26.6595 22.0969 26.3157L19.4966 21.2588H16.6622C16.3266 21.2588 16.0382 21.0206 15.9748 20.691L15.1983 16.6522C15.1588 16.4471 15.213 16.2352 15.346 16.0742ZM13.4315 22.0587C13.8042 22.1615 14.023 22.547 13.9202 22.9196L12.6777 27.4244C12.6148 27.6522 12.4413 27.833 12.2162 27.905L8.82004 28.9919V34.4869L11.2532 34.5805C11.6395 34.5954 11.9406 34.9206 11.9258 35.3069C11.9109 35.6932 11.5857 35.9944 11.1994 35.9795L8.09314 35.86C7.71728 35.8455 7.42004 35.5366 7.42004 35.1605V28.481C7.42004 28.1766 7.61676 27.9071 7.90667 27.8143L11.4288 26.6871L12.5706 22.5474C12.6733 22.1747 13.0588 21.9559 13.4315 22.0587ZM25.7469 32.6751C25.7469 32.2885 26.0603 31.9751 26.4469 31.9751H31.5722C31.9588 31.9751 32.2722 32.2885 32.2722 32.6751C32.2722 33.0617 31.9588 33.3751 31.5722 33.3751H26.4469C26.0603 33.3751 25.7469 33.0617 25.7469 32.6751Z"
        fill="#304436" />
    <path fill-rule="evenodd" clip-rule="evenodd"
        d="M38.5 35.7C37.4176 35.7 36.54 36.5775 36.54 37.66C36.54 38.7425 37.4176 39.62 38.5 39.62C39.5825 39.62 40.46 38.7425 40.46 37.66C40.46 36.5775 39.5825 35.7 38.5 35.7ZM35.14 37.66C35.14 35.8043 36.6444 34.3 38.5 34.3C40.3557 34.3 41.86 35.8043 41.86 37.66C41.86 39.5157 40.3557 41.02 38.5 41.02C36.6444 41.02 35.14 39.5157 35.14 37.66Z"
        fill="#304436" />
    <path
        d="M13.72 27.7743C13.72 27.3404 14.0738 26.9886 14.5102 26.9886H17.4944C17.9309 26.9886 18.2847 27.3404 18.2847 27.7743C18.2847 28.2082 17.9309 28.56 17.4944 28.56H14.5102C14.0738 28.56 13.72 28.2082 13.72 27.7743Z"
        fill="#304436" />
    <path
        d="M36.3404 16.3953C36.5269 16.5628 36.7022 16.729 36.8586 16.8823C37.1236 16.4969 37.4708 16.0185 37.8666 15.5379C38.3168 14.9913 38.8494 14.4178 39.4125 13.9756C39.9505 13.5533 40.6381 13.1531 41.3816 13.1601C41.493 13.1605 41.5987 13.1733 41.6705 13.1838C41.6758 13.1846 41.6811 13.1854 41.6864 13.1863C42.2958 13.2881 42.8438 13.6082 43.3149 13.9961C43.7906 14.3878 44.2343 14.887 44.6378 15.4208C45.4445 16.488 46.1519 17.7766 46.6794 18.8489C46.8712 19.2388 46.7088 19.7093 46.3168 19.9C45.9247 20.0907 45.4515 19.9292 45.2597 19.5394C44.7503 18.5039 44.0939 17.3168 43.3744 16.3649C43.0148 15.8891 42.6548 15.4929 42.3069 15.2064C41.958 14.9191 41.6001 14.7723 41.3675 14.7315C41.1851 14.7294 40.8717 14.8405 40.4325 15.1775C40.4191 15.1878 40.4056 15.1983 40.3919 15.209C39.9556 15.5515 39.5054 16.0284 39.0894 16.5335C38.6771 17.0341 38.3175 17.5389 38.06 17.9207C37.9317 18.1109 37.8298 18.269 37.7605 18.3786C37.7259 18.4334 37.6749 18.5162 37.6575 18.5445C37.5284 18.7595 37.304 18.9004 37.0534 18.924C36.8027 18.9475 36.5556 18.8507 36.3883 18.6636L36.3878 18.6631L36.3844 18.6593L36.3691 18.6424C36.3553 18.6271 36.3342 18.604 36.3066 18.5742C36.2514 18.5146 36.1705 18.4283 36.0698 18.3242C35.8675 18.1152 35.5892 17.8381 35.2811 17.5615C34.9701 17.2823 34.6447 17.0178 34.3474 16.8245C34.0207 16.6121 33.8392 16.5604 33.7917 16.558L33.7897 16.5579C33.3102 16.5319 32.6998 16.8378 32.011 17.4946C31.3513 18.1237 30.7598 18.9412 30.3317 19.6142C30.0984 19.9809 29.6103 20.0902 29.2415 19.8582C28.8726 19.6263 28.7627 19.1409 28.996 18.7742C29.4546 18.0532 30.1252 17.1156 30.9171 16.3605C31.6796 15.6333 32.71 14.926 33.8747 14.9887C34.3667 15.0145 34.8481 15.2725 35.2123 15.5093C35.6061 15.7653 35.9998 16.0895 36.3404 16.3953Z"
        fill="#304436" />
</svg>
