<svg width="16" height="16" viewBox="0 0 16 16" fill="none" xmlns="http://www.w3.org/2000/svg">
    <path fill-rule="evenodd" clip-rule="evenodd"
        d="M7.99992 1.33334C11.6819 1.33334 14.6666 4.31801 14.6666 8.00001C14.6666 11.682 11.6819 14.6667 7.99992 14.6667C4.31792 14.6667 1.33325 11.682 1.33325 8.00001C1.33325 4.31801 4.31792 1.33334 7.99992 1.33334ZM7.40202 4.81507C6.28415 5.18013 5.48265 6.16466 5.35192 7.33334H4.66659V8.66668H5.35125C5.48176 9.83566 6.28338 10.8205 7.40153 11.1856C8.51968 11.5507 9.74803 11.2287 10.5433 10.362L9.40925 9.60601C8.9598 9.98616 8.34316 10.101 7.78698 9.90819C7.23081 9.71536 6.8176 9.24345 6.69992 8.66668L9.99992 8.66734V7.33401H6.69992V7.33334C6.81742 6.75646 7.23055 6.28436 7.78675 6.09138C8.34296 5.89841 8.95971 6.01319 9.40925 6.39334L10.5433 5.63801C9.74797 4.77174 8.51989 4.45001 7.40202 4.81507Z"
        fill="#FED992" />
</svg>
