<svg width="287" height="191" viewBox="0 0 287 191" fill="none" xmlns="http://www.w3.org/2000/svg">
    <path d="M84.1418 46.7038L41.2063 75.3749L83.4976 138.486L126.433 109.815L84.1418 46.7038Z" fill="#F5F5F5" />
    <path d="M104.246 106.83L103.76 109.84L82.4148 106.769L82.9008 103.759L104.246 106.83Z" fill="#E0E0E0" />
    <path d="M93.4967 96.092L96.558 96.5313L93.1638 117.511L90.0986 117.068L93.4967 96.092Z" fill="#E0E0E0" />
    <path
        d="M73.8545 69.4285C73.8851 69.4705 69.584 72.4005 64.2458 75.9607C58.9076 79.521 54.5567 82.3783 54.526 82.3325C54.4954 82.2866 58.7966 79.3605 64.1348 75.7965C69.473 72.2324 73.8048 69.3827 73.8545 69.4285Z"
        fill="#E0E0E0" />
    <path
        d="M89.6282 65.471C89.6588 65.5169 82.5029 70.3454 73.648 76.2587C64.7931 82.1721 57.576 86.928 57.553 86.886C57.5301 86.8439 64.6706 82.0078 73.537 76.0945C82.4034 70.1811 89.5975 65.4252 89.6282 65.471Z"
        fill="#E0E0E0" />
    <path
        d="M92.7927 70.1925C92.8233 70.2383 85.6675 75.0706 76.8125 80.984C67.9576 86.8973 60.7405 91.6532 60.7176 91.6074C60.6946 91.5615 67.8428 86.7331 76.7016 80.8159C85.5603 74.8987 92.7621 70.1466 92.7927 70.1925Z"
        fill="#E0E0E0" />
    <path
        d="M95.9574 74.9178C95.988 74.9636 88.8322 79.796 79.9773 85.7055C71.1224 91.615 63.9053 96.3786 63.9053 96.3327C63.9053 96.2869 71.0267 91.4546 79.8854 85.5412C88.7442 79.6279 95.9268 74.872 95.9574 74.9178Z"
        fill="#E0E0E0" />
    <path
        d="M99.1106 79.6432C99.1413 79.689 91.9854 84.5175 83.1305 90.4308C74.2756 96.3442 67.0585 101.1 67.0393 101.054C67.0202 101.008 74.1723 96.1799 83.0386 90.2666C91.905 84.3532 99.1106 79.5973 99.1106 79.6432Z"
        fill="#E0E0E0" />
    <path d="M227.713 88.9925L191.654 113.072L227.171 166.074L263.23 141.995L227.713 88.9925Z" fill="#F5F5F5" />
    <path d="M244.6 139.499L244.191 142.028L226.263 139.449L226.676 136.92L244.6 139.499Z" fill="#E0E0E0" />
    <path d="M235.573 130.48L238.145 130.85L235.294 148.468L232.719 148.098L235.573 130.48Z" fill="#E0E0E0" />
    <path
        d="M219.061 108.106C219.092 108.152 215.483 110.616 210.998 113.607C206.514 116.598 202.855 118.989 202.825 118.955C202.794 118.92 206.406 116.449 210.887 113.454C215.368 110.459 219.031 108.041 219.061 108.106Z"
        fill="#E0E0E0" />
    <path
        d="M232.321 104.763C232.351 104.809 226.347 108.874 218.927 113.836C211.507 118.798 205.435 122.794 205.404 122.748C205.373 122.702 211.377 118.638 218.797 113.672C226.217 108.706 232.279 104.718 232.321 104.763Z"
        fill="#E0E0E0" />
    <path
        d="M234.98 108.729C235.011 108.774 229.007 112.839 221.587 117.805C214.167 122.771 208.094 126.759 208.063 126.713C208.033 126.667 214.018 122.622 221.457 117.656C228.896 112.69 234.957 108.687 234.98 108.729Z"
        fill="#E0E0E0" />
    <path
        d="M237.636 112.69C237.667 112.736 231.659 116.8 224.243 121.766C216.826 126.732 210.75 130.72 210.719 130.675C210.688 130.629 216.693 126.568 224.112 121.598C231.532 116.628 237.609 112.652 237.636 112.69Z"
        fill="#E0E0E0" />
    <path
        d="M240.315 116.667C240.345 116.712 234.341 120.773 226.921 125.739C219.501 130.705 213.428 134.693 213.398 134.651C213.367 134.609 219.371 130.541 226.791 125.575C234.211 120.609 240.265 116.621 240.315 116.667Z"
        fill="#E0E0E0" />
    <path d="M170.666 49.0257L131.321 28.0188L100.335 85.852L139.68 106.859L170.666 49.0257Z" fill="#F5F5F5" />
    <path d="M132.946 88.7653L130.451 89.6172L124.114 72.133L126.613 71.2773L132.946 88.7653Z" fill="#E0E0E0" />
    <path d="M136.773 76.2205L137.683 78.7302L120.287 84.6779L119.376 82.1682L136.773 76.2205Z" fill="#E0E0E0" />
    <path
        d="M149.133 50.424C149.102 50.4813 145.115 48.4109 140.22 45.8018C135.326 43.1928 131.389 41.0268 131.419 40.9695C131.45 40.9122 135.441 42.9827 140.335 45.5917C145.23 48.2008 149.163 50.3629 149.133 50.424Z"
        fill="#E0E0E0" />
    <path
        d="M158.577 60.8258C158.546 60.8831 151.941 57.4146 143.825 53.0827C135.709 48.7508 129.157 45.1906 129.188 45.1333C129.219 45.076 135.82 48.5407 143.936 52.8764C152.052 57.2121 158.608 60.7685 158.577 60.8258Z"
        fill="#E0E0E0" />
    <path
        d="M156.258 65.154C156.227 65.2113 149.623 61.7465 141.506 57.4108C133.39 53.0751 126.839 49.5187 126.869 49.4614C126.9 49.4041 133.501 52.8727 141.617 57.2045C149.734 61.5364 156.289 65.0967 156.258 65.154Z"
        fill="#E0E0E0" />
    <path
        d="M153.939 69.482C153.908 69.5393 147.304 66.0745 139.187 61.7427C131.071 57.4108 124.52 53.862 124.55 53.7932C124.581 53.7245 131.182 57.2007 139.298 61.5326C147.414 65.8644 153.97 69.4247 153.939 69.482Z"
        fill="#E0E0E0" />
    <path
        d="M151.62 73.81C151.59 73.8673 144.985 70.4026 136.868 66.0707C128.752 61.7389 122.197 58.1786 122.231 58.1213C122.266 58.064 128.863 61.5287 136.979 65.8606C145.096 70.1925 151.651 73.7527 151.62 73.81Z"
        fill="#E0E0E0" />
    <path opacity="0.2" d="M151.823 0H150.836V16.8004H151.823V0Z" fill="black" />
    <path
        d="M128.281 37.1266H174.377C174.377 37.1266 170.122 16.808 150.981 16.808C133.956 16.808 128.281 37.1266 128.281 37.1266Z"
        fill="#92E3A9" />
    <path d="M151.823 0H150.836V16.8004H151.823V0Z" fill="#92E3A9" />
    <path
        d="M253.964 168.015C253.964 168.069 204.505 168.114 143.504 168.114C82.503 168.114 33.0356 168.08 33.0356 168.015C33.0356 167.95 82.4877 167.916 143.504 167.916C204.52 167.916 253.964 167.958 253.964 168.015Z"
        fill="#263238" />
    <path
        d="M45.2657 144.09C45.9126 144.137 46.5436 144.313 47.1208 144.609C47.6981 144.904 48.2098 145.312 48.6255 145.809C49.452 146.809 50.0372 147.986 50.336 149.247C50.9827 151.662 50.5847 154.515 49.8959 156.918C47.2785 155.982 45.6598 153.193 44.9213 151.727C43.7733 149.412 43.0883 144.522 45.2542 144.087"
        fill="#92E3A9" />
    <path
        d="M53.6651 159.848C53.272 159.239 53.0473 158.538 53.0137 157.815C52.9801 157.091 53.1388 156.372 53.4738 155.73C53.8192 155.094 54.2881 154.533 54.8532 154.079C55.4182 153.626 56.068 153.29 56.7647 153.09C57.4037 152.892 58.1461 152.811 58.701 153.182C58.9511 153.371 59.1459 153.623 59.265 153.913C59.3842 154.202 59.4233 154.519 59.3783 154.828C59.2779 155.449 59.0137 156.032 58.613 156.517C57.3387 158.24 55.7927 159.672 53.6383 159.848"
        fill="#92E3A9" />
    <path
        d="M53.9558 167.92C53.899 167.757 53.8593 167.59 53.8372 167.419C53.7683 167.06 53.6765 166.598 53.5655 166.044C53.222 164.527 53.1264 162.965 53.2823 161.418C53.4628 159.863 54.0559 158.385 55.0005 157.136C55.2891 156.762 55.6219 156.425 55.9916 156.131C56.0921 156.051 56.1968 155.978 56.3054 155.909C56.3399 155.881 56.3786 155.858 56.4202 155.841C55.9361 156.254 55.494 156.713 55.1 157.212C54.2052 158.462 53.6418 159.918 53.4622 161.445C53.2173 163.225 53.5196 164.856 53.6956 166.029C53.7874 166.613 53.864 167.087 53.9061 167.415C53.9362 167.582 53.9529 167.75 53.9558 167.92Z"
        fill="#263238" />
    <path
        d="M46.1074 147.769C46.1511 147.829 46.1871 147.895 46.2146 147.964C46.2834 148.117 46.3753 148.308 46.4824 148.548C46.7159 149.056 47.0411 149.794 47.4353 150.707C48.2236 152.536 49.2797 155.081 50.3818 157.915C51.4839 160.749 52.4214 163.336 53.0605 165.219C53.3896 166.159 53.646 166.923 53.8258 167.454C53.9062 167.706 53.9674 167.908 54.0171 168.065C54.0445 168.135 54.0637 168.208 54.0745 168.282C54.0357 168.218 54.0049 168.148 53.9827 168.076C53.9253 167.923 53.8526 167.725 53.7569 167.476L52.9495 165.261C52.2645 163.393 51.3079 160.811 50.2096 157.98C49.1114 155.149 48.0705 152.598 47.3128 150.756C46.9302 149.851 46.6355 149.114 46.4174 148.575C46.3179 148.331 46.2375 148.136 46.1763 147.979C46.1476 147.911 46.1245 147.841 46.1074 147.769Z"
        fill="#263238" />
    <path
        d="M50.8448 162.579C50.0574 161.271 48.9693 160.168 47.6705 159.362C46.3716 158.556 44.8993 158.071 43.3752 157.946C42.6099 157.892 41.6685 158.022 41.3241 158.71C40.9797 159.397 41.4389 160.238 41.967 160.795C43.089 161.967 44.5334 162.781 46.118 163.134C47.7027 163.488 49.3567 163.365 50.8716 162.782"
        fill="#92E3A9" />
    <path
        d="M44.5537 160.016C44.716 160.008 44.8786 160.014 45.0397 160.035C45.2284 160.045 45.4162 160.067 45.6022 160.1C45.8204 160.142 46.0767 160.165 46.3446 160.241C46.644 160.305 46.9392 160.386 47.2286 160.486C47.5638 160.593 47.8922 160.721 48.212 160.868C48.9477 161.197 49.6435 161.608 50.2861 162.094C50.9212 162.591 51.4965 163.161 52.0004 163.79C52.218 164.064 52.4187 164.351 52.6012 164.65C52.7662 164.907 52.917 165.174 53.0528 165.448C53.1677 165.671 53.2699 165.901 53.3589 166.136C53.4356 166.309 53.5008 166.488 53.554 166.67C53.6107 166.823 53.653 166.98 53.6803 167.14C53.6382 167.14 53.4546 166.483 52.938 165.505C52.7973 165.243 52.6427 164.988 52.4749 164.741C52.2884 164.452 52.0866 164.173 51.8703 163.905C50.8694 162.67 49.593 161.686 48.1431 161.032C47.8102 160.887 47.4926 160.749 47.1826 160.65C46.8981 160.547 46.6081 160.459 46.314 160.386C45.2425 160.092 44.5499 160.058 44.5537 160.016Z"
        fill="#263238" />
    <path
        d="M114.417 89.5943L100.871 159.042L99.1106 168.133L189.42 167.698C193.476 167.679 197.073 164.084 198.371 158.744L214.389 93.1813C215.38 89.1283 213.206 84.911 210.13 84.9148L118.703 85.0103C116.713 85.0065 114.93 86.8859 114.417 89.5943Z"
        fill="#92E3A9" />
    <g opacity="0.5">
        <path
            d="M114.417 89.5943L100.871 159.042L99.1106 168.133L189.42 167.698C193.476 167.679 197.073 164.084 198.371 158.744L214.389 93.1813C215.38 89.1283 213.206 84.911 210.13 84.9148L118.703 85.0103C116.713 85.0065 114.93 86.8859 114.417 89.5943Z"
            fill="black" />
    </g>
    <path
        d="M180.768 154.328L171.201 77.3894C170.818 74.2379 168.297 71.8848 165.323 71.8963L144.353 71.9612C143.574 71.97 142.805 72.1371 142.092 72.4523C141.38 72.7676 140.739 73.2243 140.209 73.7948L130.26 84.3648L71.9412 84.678C68.3786 84.6971 65.6387 88.0663 66.1094 91.8481L74.9911 162.957C75.3737 166.105 77.8955 168.454 80.8612 168.451L182.517 168.248C193.836 168.481 194.919 165.146 194.919 165.146C181.923 168.015 180.768 154.347 180.768 154.328Z"
        fill="#92E3A9" />
    <g opacity="0.5">
        <path d="M136.933 138.941L133.505 142.616L107.101 118.901L110.529 115.226L136.933 138.941Z" fill="white" />
        <path d="M132.069 114.413L135.858 117.816L111.968 143.43L108.176 140.026L132.069 114.413Z" fill="white" />
    </g>
</svg>
