<svg width="10" height="15" viewBox="0 0 10 15" fill="none" xmlns="http://www.w3.org/2000/svg">
<path d="M1.55371 1.39001C2.1428 0.909952 3.01158 0.944562 3.56055 1.49353L8.51074 6.44373L8.61035 6.5531C8.82906 6.82002 8.9502 7.15617 8.9502 7.50427C8.95014 7.85216 8.82886 8.18766 8.61035 8.45447L8.51074 8.56482L3.56055 13.515C3.0115 14.0639 2.14274 14.0978 1.55371 13.6176L1.43945 13.515C0.853791 12.9294 0.853921 11.9797 1.43945 11.3939L4.97559 7.85779L5.03906 7.77869C5.14881 7.61231 5.14895 7.39519 5.03906 7.22888L4.97559 7.15076L1.43945 3.61462C0.853726 3.0289 0.853725 2.07926 1.43945 1.49353L1.55371 1.39001Z" fill="white" stroke="#111827"/>
</svg>
