<svg width="10" height="15" viewBox="0 0 10 15" fill="none" xmlns="http://www.w3.org/2000/svg">
<path d="M8.44629 1.39001C7.8572 0.909952 6.98842 0.944562 6.43945 1.49353L1.48926 6.44373L1.38965 6.5531C1.17094 6.82002 1.0498 7.15617 1.0498 7.50427C1.04986 7.85216 1.17114 8.18766 1.38965 8.45447L1.48926 8.56482L6.43945 13.515C6.9885 14.0639 7.85726 14.0978 8.44629 13.6176L8.56055 13.515C9.14621 12.9294 9.14608 11.9797 8.56055 11.3939L5.02441 7.85779L4.96094 7.77869C4.85119 7.61231 4.85105 7.39519 4.96094 7.22888L5.02441 7.15076L8.56055 3.61462C9.14627 3.0289 9.14628 2.07926 8.56055 1.49353L8.44629 1.39001Z" fill="white" stroke="#111827"/>
</svg>
