<svg width="16" height="16" viewBox="0 0 16 16" fill="none" xmlns="http://www.w3.org/2000/svg">
<path d="M13.2433 5.64337C13.3371 5.31415 13.3575 4.96833 13.3029 4.63038C13.2483 4.29243 13.1201 3.97059 12.9274 3.68765C12.7347 3.4047 12.4822 3.16756 12.1877 2.99298C11.8933 2.8184 11.564 2.71066 11.2233 2.67737C11.0866 2.28512 10.8313 1.94506 10.4928 1.70427C10.1544 1.46348 9.74938 1.33387 9.33398 1.33337C8.84037 1.33505 8.36506 1.52042 8.00065 1.85337C7.63624 1.52042 7.16093 1.33505 6.66732 1.33337C5.79998 1.33337 5.06065 1.88737 4.78398 2.67671C4.44267 2.70916 4.11268 2.81632 3.81743 2.99059C3.52217 3.16486 3.26888 3.40197 3.07553 3.6851C2.88218 3.96823 2.7535 4.29043 2.69862 4.62886C2.64374 4.96729 2.66401 5.31365 2.75798 5.64337C2.3301 5.87119 1.97182 6.21052 1.72113 6.62541C1.47043 7.04031 1.33666 7.5153 1.33398 8.00004C1.33398 8.71671 1.61932 9.39071 2.11532 9.88804C2.03879 10.1405 2.00015 10.4029 2.00065 10.6667C2.00065 11.9714 2.94198 13.06 4.20465 13.2894C4.39035 13.6988 4.68976 14.0463 5.06724 14.2904C5.44473 14.5346 5.88441 14.6652 6.33398 14.6667C6.98665 14.6667 7.57665 14.3954 8.00065 13.9607C8.21697 14.1841 8.47598 14.3617 8.76229 14.4829C9.04861 14.6042 9.35638 14.6667 9.66732 14.6667C10.1162 14.6659 10.5553 14.536 10.9324 14.2925C11.3095 14.049 11.6086 13.7021 11.794 13.2934C12.166 13.2278 12.5198 13.0841 12.8321 12.8717C13.1444 12.6593 13.4082 12.383 13.6059 12.0612C13.8036 11.7394 13.9308 11.3793 13.9791 11.0047C14.0273 10.6301 13.9956 10.2495 13.886 9.88804C14.1339 9.64016 14.3306 9.34581 14.4647 9.02184C14.5987 8.69788 14.6676 8.35065 14.6673 8.00004C14.6646 7.5153 14.5309 7.04031 14.2802 6.62541C14.0295 6.21052 13.6712 5.87119 13.2433 5.64337ZM6.33398 13.3334C5.85998 13.3334 5.44732 12.9974 5.35398 12.5347L5.21265 12H4.66732C3.93198 12 3.33398 11.402 3.33398 10.6667C3.33398 10.432 3.39065 10.212 3.50265 10.0127L3.80665 9.46871L3.28398 9.12871C3.09522 9.00694 2.93991 8.83988 2.8322 8.64275C2.7245 8.44562 2.66781 8.22468 2.66732 8.00004C2.66732 7.34871 3.14932 6.78404 3.78865 6.68537L4.91732 6.51204L4.21132 5.61471C4.08559 5.45262 4.01268 5.25583 4.00244 5.05096C3.9922 4.84608 4.04513 4.643 4.15407 4.46919C4.26302 4.29538 4.42271 4.15922 4.61156 4.07913C4.80041 3.99903 5.0093 3.97887 5.20998 4.02137L6.00065 4.13804V3.33337C6.00065 3.15656 6.07089 2.98699 6.19591 2.86197C6.32094 2.73695 6.49051 2.66671 6.66732 2.66671C6.84413 2.66671 7.0137 2.73695 7.13872 2.86197C7.26375 2.98699 7.33398 3.15656 7.33398 3.33337V12.3334C7.33398 12.8847 6.88532 13.3334 6.33398 13.3334ZM12.7173 9.12804L12.1947 9.46804L12.4987 10.012C12.6107 10.2129 12.6669 10.4312 12.6673 10.6667C12.6673 11.402 12.0693 12 11.3007 12H10.7553L10.6473 12.5347C10.6009 12.7603 10.4781 12.963 10.2995 13.1086C10.121 13.2541 9.89766 13.3335 9.66732 13.3334C9.11598 13.3334 8.66732 12.8847 8.66732 12.3334V3.33337C8.66732 2.96537 8.96598 2.66671 9.33398 2.66671C9.70198 2.66671 10.0007 2.96537 10.0007 3.36671V4.17137L10.7913 4.02137C10.992 3.97887 11.2009 3.99903 11.3897 4.07913C11.5786 4.15922 11.7383 4.29538 11.8472 4.46919C11.9562 4.643 12.0091 4.84608 11.9989 5.05096C11.9886 5.25583 11.9157 5.45262 11.79 5.61471L11.084 6.51271L12.2127 6.68604C12.5251 6.73636 12.8095 6.89617 13.0149 7.1369C13.2203 7.37762 13.3334 7.68357 13.334 8.00004C13.334 8.45537 13.1033 8.87671 12.7173 9.12804Z" fill="#111827"/>
</svg>
