<svg width="16" height="16" viewBox="0 0 16 16" fill="none" xmlns="http://www.w3.org/2000/svg">
<path d="M7.99935 4.00004C10.9449 4.00004 13.3327 3.40309 13.3327 2.66671C13.3327 1.93033 10.9449 1.33337 7.99935 1.33337C5.05383 1.33337 2.66602 1.93033 2.66602 2.66671C2.66602 3.40309 5.05383 4.00004 7.99935 4.00004Z" stroke="#111827" stroke-linecap="round" stroke-linejoin="round"/>
<path d="M8 8.33341C8.26522 8.33341 8.51957 8.22806 8.70711 8.04052C8.89464 7.85299 9 7.59863 9 7.33341C9 6.66675 8 5.66675 8 5.66675C8 5.66675 7 6.66675 7 7.33341C7 7.59863 7.10536 7.85299 7.29289 8.04052C7.48043 8.22806 7.73478 8.33341 8 8.33341Z" stroke="#111827" stroke-linecap="round" stroke-linejoin="round"/>
<path d="M12.666 3.33337V7.03137C13.0907 7.31804 13.3327 7.64871 13.3327 8.00004C13.3327 9.10471 10.9447 10 7.99935 10C5.05402 10 2.66602 9.10471 2.66602 8.00004C2.66602 7.64871 2.90802 7.31804 3.33268 7.03137V3.33337" stroke="#111827" stroke-linecap="round" stroke-linejoin="round"/>
<path d="M12.666 9V11.698C13.0907 11.9847 13.3327 12.3153 13.3327 12.6667C13.3327 13.7713 10.9447 14.6667 7.99935 14.6667C5.05402 14.6667 2.66602 13.7713 2.66602 12.6667C2.66602 12.3153 2.90802 11.9847 3.33268 11.698V9" stroke="#111827" stroke-linecap="round" stroke-linejoin="round"/>
</svg>
