<svg width="25" height="24" viewBox="0 0 25 24" fill="none" xmlns="http://www.w3.org/2000/svg">
<path fill-rule="evenodd" clip-rule="evenodd" d="M8.70117 6.00007C8.70117 4.03946 10.2906 2.45007 12.2512 2.45007C14.2118 2.45007 15.8012 4.03946 15.8012 6.00007C15.8012 7.96068 14.2118 9.55007 12.2512 9.55007C10.2906 9.55007 8.70117 7.96068 8.70117 6.00007ZM12.2512 3.55007C10.8981 3.55007 9.80117 4.64698 9.80117 6.00007C9.80117 7.35317 10.8981 8.45007 12.2512 8.45007C13.6043 8.45007 14.7012 7.35317 14.7012 6.00007C14.7012 4.64698 13.6043 3.55007 12.2512 3.55007Z" fill="#111827"/>
<path d="M7.70117 16.0001C7.70117 13.4872 9.73828 11.4501 12.2512 11.4501C14.7641 11.4501 16.8012 13.4872 16.8012 16.0001V21.5501H15.7012V16.0001C15.7013 14.1732 14.2773 12.663 12.4536 12.5559L12.4468 12.5554L12.2576 12.5501H12.2512C10.4244 12.55 8.91412 13.974 8.80695 15.7977L8.80655 15.8045L8.80117 15.9937V21.5501H7.70117V16.0001Z" fill="#111827"/>
<path fill-rule="evenodd" clip-rule="evenodd" d="M3.70117 10.5C3.70117 9.36777 4.61899 8.44995 5.75117 8.44995C6.88336 8.44995 7.80117 9.36777 7.80117 10.5C7.80117 11.6321 6.88336 12.55 5.75117 12.55C4.61899 12.55 3.70117 11.6321 3.70117 10.5ZM5.75117 9.54995C5.2265 9.54995 4.80117 9.97528 4.80117 10.5C4.80117 11.0246 5.2265 11.45 5.75117 11.45C6.27584 11.45 6.70117 11.0246 6.70117 10.5C6.70117 9.97528 6.27584 9.54995 5.75117 9.54995Z" fill="#E41571"/>
<path fill-rule="evenodd" clip-rule="evenodd" d="M16.7012 10.5C16.7012 9.36777 17.619 8.44995 18.7512 8.44995C19.8834 8.44995 20.8012 9.36777 20.8012 10.5C20.8012 11.6321 19.8834 12.55 18.7512 12.55C17.619 12.55 16.7012 11.6321 16.7012 10.5ZM18.7512 9.54995C18.2265 9.54995 17.8012 9.97528 17.8012 10.5C17.8012 11.0246 18.2265 11.45 18.7512 11.45C19.2758 11.45 19.7012 11.0246 19.7012 10.5C19.7012 9.97528 19.2758 9.54995 18.7512 9.54995Z" fill="#E41571"/>
<path d="M2.70117 17.5C2.70117 15.8155 4.0667 14.45 5.75117 14.45C5.83052 14.45 5.90914 14.453 5.98695 14.459C5.89872 14.8175 5.84162 15.1833 5.81646 15.5523L5.76053 15.55H5.75115C4.74674 15.55 3.90667 16.313 3.81025 17.3128L3.80922 17.3234L3.80117 17.489V21.55H2.70117V17.5Z" fill="#E41571"/>
<path d="M18.6858 15.551C18.6602 15.1776 18.6027 14.8127 18.5158 14.459C18.5933 14.453 18.6718 14.45 18.7512 14.45C20.4356 14.45 21.8012 15.8155 21.8012 17.5V21.55H20.7012V17.4999C20.7011 16.4955 19.9381 15.6555 18.9384 15.559L18.9277 15.558L18.7621 15.55H18.7512C18.7293 15.55 18.7075 15.5503 18.6858 15.551Z" fill="#E41571"/>
<path fill-rule="evenodd" clip-rule="evenodd" d="M22.6742 13.2C22.3434 13.2 22.0742 12.9308 22.0742 12.6C22.0742 12.2691 22.3434 12 22.6742 12C23.0051 12 23.2742 12.2691 23.2742 12.6C23.2742 12.9308 23.0051 13.2 22.6742 13.2Z" fill="#CACAFB"/>
<path fill-rule="evenodd" clip-rule="evenodd" d="M2.27578 13.2C1.94494 13.2 1.67578 12.9308 1.67578 12.6C1.67578 12.2691 1.94494 12 2.27578 12C2.60662 12 2.87578 12.2691 2.87578 12.6C2.87578 12.9308 2.60662 13.2 2.27578 13.2Z" fill="#CACAFB"/>
<path fill-rule="evenodd" clip-rule="evenodd" d="M5.27578 4.2C4.94494 4.2 4.67578 3.93084 4.67578 3.6C4.67578 3.26913 4.94494 3 5.27578 3C5.60662 3 5.87578 3.26913 5.87578 3.6C5.87578 3.93084 5.60662 4.2 5.27578 4.2Z" fill="#CACAFB"/>
<path fill-rule="evenodd" clip-rule="evenodd" d="M17.8754 6.60002C17.5446 6.60002 17.2754 6.33086 17.2754 6.00002C17.2754 5.66916 17.5446 5.40002 17.8754 5.40002C18.2062 5.40002 18.4754 5.66916 18.4754 6.00002C18.4754 6.33086 18.2062 6.60002 17.8754 6.60002Z" fill="#CACAFB"/>
</svg>
