<svg width="25" height="24" viewBox="0 0 25 24" fill="none" xmlns="http://www.w3.org/2000/svg">
<path d="M9.65039 5.99998V5.49998H8.65039V5.99998H9.65039ZM8.65039 10.2C8.65039 10.4761 8.87425 10.7 9.15039 10.7C9.42653 10.7 9.65039 10.4761 9.65039 10.2H8.65039ZM13.3062 5.09998V4.59998H12.3062V5.09998H13.3062ZM12.3062 8.26151C12.3062 8.53766 12.5301 8.76151 12.8062 8.76151C13.0823 8.76151 13.3062 8.53766 13.3062 8.26151H12.3062ZM16.8504 5.99998V5.49998H15.8504V5.99998H16.8504ZM15.8504 10.2C15.8504 10.4761 16.0742 10.7 16.3504 10.7C16.6265 10.7 16.8504 10.4761 16.8504 10.2H15.8504ZM8.65039 5.99998V10.2H9.65039V5.99998H8.65039ZM12.3062 5.09998V8.26151H13.3062V5.09998H12.3062ZM15.8504 5.99998V10.2H16.8504V5.99998H15.8504Z" fill="#E41571"/>
<path d="M21.75 13.6C21.75 12.7986 21.3117 12.0472 20.546 11.4M20.8452 15.525C20.752 15.6186 20.6521 15.7103 20.546 15.8M18.375 17.035C16.8342 17.6388 14.8784 18 12.75 18C7.77944 18 3.75 16.0301 3.75 13.6C3.75 12.8523 4.13148 12.1482 4.80448 11.5316" stroke="#111827" stroke-linecap="round"/>
<path d="M5.39305 13.8C5.10562 13.0963 4.94922 12.339 4.94922 11.55C4.94922 9.20221 6.33438 7.13434 8.43609 5.92505C9.67148 5.21422 11.1545 4.80005 12.7492 4.80005C14.4252 4.80005 15.9778 5.2575 17.2492 6.03598C19.2458 7.25843 20.5492 9.27251 20.5492 11.55C20.5492 12.339 20.3928 13.0963 20.1054 13.8" stroke="#111827" stroke-linecap="round"/>
<path fill-rule="evenodd" clip-rule="evenodd" d="M4.35 22.2C4.01916 22.2 3.75 21.9308 3.75 21.6C3.75 21.2691 4.01916 21 4.35 21C4.68084 21 4.95 21.2691 4.95 21.6C4.95 21.9308 4.68084 22.2 4.35 22.2Z" fill="#CACAFB"/>
<path fill-rule="evenodd" clip-rule="evenodd" d="M21.7504 21C21.4196 21 21.1504 20.7309 21.1504 20.4C21.1504 20.0692 21.4196 19.8 21.7504 19.8C22.0812 19.8 22.3504 20.0692 22.3504 20.4C22.3504 20.7309 22.0812 21 21.7504 21Z" fill="#CACAFB"/>
<path fill-rule="evenodd" clip-rule="evenodd" d="M2.54922 7.79998C2.21838 7.79998 1.94922 7.53082 1.94922 7.19998C1.94922 6.86911 2.21838 6.59998 2.54922 6.59998C2.88006 6.59998 3.14922 6.86911 3.14922 7.19998C3.14922 7.53082 2.88006 7.79998 2.54922 7.79998Z" fill="#CACAFB"/>
<path fill-rule="evenodd" clip-rule="evenodd" d="M19.9496 2.39995C19.6188 2.39995 19.3496 2.13079 19.3496 1.79995C19.3496 1.46908 19.6188 1.19995 19.9496 1.19995C20.2804 1.19995 20.5496 1.46908 20.5496 1.79995C20.5496 2.13079 20.2804 2.39995 19.9496 2.39995Z" fill="#CACAFB"/>
</svg>
