<svg width="25" height="24" viewBox="0 0 25 24" fill="none" xmlns="http://www.w3.org/2000/svg">
<g clip-path="url(#clip0_18090_2288)">
<rect width="24" height="24" transform="translate(0.25)" fill="white"/>
<path d="M14.3492 4.19995H17.0492C18.7061 4.19995 20.0492 5.5431 20.0492 7.19995V10.8M10.4492 4.19995H10.1492M8.04922 4.19995H7.44922C5.79237 4.19995 4.44922 5.5431 4.44922 7.19995V16.8C4.44922 18.4568 5.79236 19.8 7.44922 19.8H17.6492C18.9747 19.8 20.0492 18.7254 20.0492 17.4V17.4" stroke="#111827" stroke-linecap="round"/>
<path d="M14.6492 7.19995H16.4492C16.7806 7.19995 17.0492 7.46858 17.0492 7.79995V9.59995M9.84922 16.8H8.04922C7.71785 16.8 7.44922 16.5313 7.44922 16.2V14.4M7.44922 9.59995L7.44922 7.79995C7.44922 7.46858 7.71785 7.19995 8.04922 7.19995L9.84922 7.19995M17.0492 14.4V16.2C17.0492 16.5313 16.7806 16.8 16.4492 16.8H14.6492" stroke="#E41571" stroke-linecap="round" stroke-linejoin="round"/>
<path fill-rule="evenodd" clip-rule="evenodd" d="M23.0492 3.00005C22.7184 3.00005 22.4492 2.73089 22.4492 2.40005C22.4492 2.06918 22.7184 1.80005 23.0492 1.80005C23.3801 1.80005 23.6492 2.06918 23.6492 2.40005C23.6492 2.73089 23.3801 3.00005 23.0492 3.00005Z" fill="#CACAFB"/>
<path fill-rule="evenodd" clip-rule="evenodd" d="M0.85 9.00005C0.51916 9.00005 0.25 8.73089 0.25 8.40005C0.25 8.06918 0.51916 7.80005 0.85 7.80005C1.18084 7.80005 1.45 8.06918 1.45 8.40005C1.45 8.73089 1.18084 9.00005 0.85 9.00005Z" fill="#CACAFB"/>
<path fill-rule="evenodd" clip-rule="evenodd" d="M21.85 22.2C21.5192 22.2 21.25 21.9308 21.25 21.6C21.25 21.2691 21.5192 21 21.85 21C22.1808 21 22.45 21.2691 22.45 21.6C22.45 21.9308 22.1808 22.2 21.85 22.2Z" fill="#CACAFB"/>
</g>
<defs>
<clipPath id="clip0_18090_2288">
<rect width="24" height="24" fill="white" transform="translate(0.25)"/>
</clipPath>
</defs>
</svg>
