<svg width="16" height="16" viewBox="0 0 16 16" fill="none" xmlns="http://www.w3.org/2000/svg">
<path d="M7.75195 6.27478L7.34082 6.94568L8.12305 7.03259L12.7148 7.54431H12.7197C12.7515 7.54758 12.7716 7.55375 12.7832 7.55798C12.7943 7.56203 12.7991 7.56524 12.7998 7.5658C12.8006 7.56647 12.8019 7.56857 12.8047 7.57263L12.8232 7.61267C12.8309 7.63562 12.8328 7.64891 12.833 7.65369L12.8301 7.65759L12.793 7.69666L12.791 7.69861L5.79785 13.7562L8.20898 9.73572L8.6084 9.06775L7.83594 8.98181L3.27246 8.47009L3.26758 8.46912L3.20801 8.4574L3.19629 8.45154L3.19336 8.44763C3.19013 8.44264 3.18302 8.43007 3.17578 8.40662C3.16818 8.38184 3.16626 8.36611 3.16602 8.35876V8.35095L3.16699 8.34998C3.16753 8.34885 3.16838 8.34582 3.1709 8.34216L3.20898 8.3031L3.21094 8.30115L10.2188 2.24451L7.75195 6.27478Z" stroke="#111827"/>
</svg>
