<svg width="25" height="24" viewBox="0 0 25 24" fill="none" xmlns="http://www.w3.org/2000/svg">
<path d="M3.75 21H21.75M18.75 21V5C18.75 4.46957 18.5393 3.96086 18.1642 3.58579C17.7891 3.21071 17.2804 3 16.75 3H8.75C8.21957 3 7.71086 3.21071 7.33579 3.58579C6.96071 3.96086 6.75 4.46957 6.75 5V14.7M6.75 17.4V18" stroke="#111827" stroke-linecap="round" stroke-linejoin="round"/>
<path d="M14.75 12V12.01" stroke="#E41571" stroke-width="2" stroke-linecap="round" stroke-linejoin="round"/>
<path fill-rule="evenodd" clip-rule="evenodd" d="M3.75039 1.2C3.41955 1.2 3.15039 0.93084 3.15039 0.6C3.15039 0.269132 3.41955 0 3.75039 0C4.08123 0 4.35039 0.269132 4.35039 0.6C4.35039 0.93084 4.08123 1.2 3.75039 1.2Z" fill="#CACAFB"/>
<path fill-rule="evenodd" clip-rule="evenodd" d="M1.75039 16.2C1.41955 16.2 1.15039 15.9308 1.15039 15.6C1.15039 15.2691 1.41955 15 1.75039 15C2.08123 15 2.35039 15.2691 2.35039 15.6C2.35039 15.9308 2.08123 16.2 1.75039 16.2Z" fill="#CACAFB"/>
<path fill-rule="evenodd" clip-rule="evenodd" d="M22.35 3.00005C22.0192 3.00005 21.75 2.73089 21.75 2.40005C21.75 2.06918 22.0192 1.80005 22.35 1.80005C22.6808 1.80005 22.95 2.06918 22.95 2.40005C22.95 2.73089 22.6808 3.00005 22.35 3.00005Z" fill="#CACAFB"/>
</svg>
