<svg width="16" height="16" viewBox="0 0 16 16" fill="none" xmlns="http://www.w3.org/2000/svg">
<path d="M14.5631 8.43749C14.4117 7.87191 14.1299 7.34964 13.7404 6.91251C13.3509 6.47538 12.8645 6.13552 12.32 5.92016C11.7756 5.7048 11.1883 5.61992 10.6051 5.67231C10.022 5.7247 9.4592 5.9129 8.96185 6.22186L9.98623 2.13186C10.0116 2.03024 10.0045 1.92321 9.96581 1.82587C9.92712 1.72854 9.85884 1.64581 9.7706 1.58936C9.34535 1.32083 8.87041 1.14059 8.37407 1.05936C7.87773 0.978135 7.37012 0.997579 6.88145 1.11654C6.39278 1.2355 5.93303 1.45154 5.52956 1.75181C5.12609 2.05209 4.78714 2.43045 4.53289 2.8644C4.27864 3.29834 4.11427 3.779 4.04958 4.27776C3.98489 4.77653 4.02118 5.28321 4.15631 5.76766C4.29144 6.25211 4.52264 6.70443 4.83615 7.0977C5.14966 7.49098 5.53908 7.81716 5.98123 8.05686L1.92685 9.21499C1.82613 9.24367 1.73695 9.30326 1.67191 9.38535C1.60687 9.46743 1.56925 9.56787 1.56435 9.67249C1.52587 10.5262 1.78012 11.3674 2.28501 12.0569C2.78989 12.7464 3.51512 13.2427 4.3406 13.4637C4.65899 13.5492 4.98719 13.5927 5.31685 13.5931C5.8192 13.5918 6.31617 13.4897 6.77833 13.2928C7.2405 13.0959 7.65845 12.8083 8.00743 12.4469C8.35641 12.0856 8.62933 11.6579 8.81002 11.1892C8.99071 10.7204 9.07549 10.2202 9.05935 9.71811L12.0894 12.6506C12.1647 12.7235 12.2611 12.7709 12.3648 12.786C12.4686 12.8012 12.5744 12.7833 12.6675 12.735C13.4256 12.3416 14.0268 11.7012 14.3715 10.9198C14.7162 10.1383 14.7838 9.2626 14.5631 8.43749ZM7.0006 7.99999C7.0006 7.8022 7.05925 7.60886 7.16913 7.44442C7.27901 7.27997 7.43519 7.15179 7.61792 7.07611C7.80065 7.00042 8.00171 6.98062 8.19569 7.0192C8.38967 7.05779 8.56786 7.15303 8.70771 7.29288C8.84756 7.43273 8.9428 7.61091 8.98139 7.8049C9.01997 7.99888 9.00017 8.19994 8.92448 8.38267C8.84879 8.5654 8.72062 8.72157 8.55617 8.83146C8.39172 8.94134 8.19838 8.99999 8.0006 8.99999C7.73539 8.99999 7.48103 8.89463 7.2935 8.70709C7.10596 8.51956 7.0006 8.2652 7.0006 7.99999ZM5.0006 4.74999C5.00044 4.28661 5.11738 3.8307 5.34055 3.4246C5.56372 3.01851 5.88589 2.67539 6.27714 2.42711C6.66839 2.17883 7.11604 2.03344 7.57851 2.00444C8.04098 1.97544 8.50328 2.06377 8.92248 2.26124L7.98623 5.99999C7.62798 6.00267 7.27704 6.10154 6.97007 6.28624C6.66311 6.47095 6.41139 6.73472 6.24123 7.04999C5.85929 6.80022 5.54578 6.45902 5.32913 6.05738C5.11248 5.65573 4.99955 5.20634 5.0006 4.74999ZM6.6881 12.2231C6.2869 12.4549 5.83362 12.5816 5.37036 12.5914C4.9071 12.6012 4.44888 12.4938 4.03824 12.2791C3.6276 12.0644 3.27787 11.7495 3.02151 11.3635C2.76515 10.9775 2.61048 10.533 2.57185 10.0712L6.27873 9.01249C6.45497 9.31271 6.70652 9.56173 7.00851 9.73492C7.3105 9.90811 7.65247 9.99948 8.0006 9.99999H8.05748C8.03232 10.4552 7.8939 10.897 7.65477 11.2852C7.41564 11.6735 7.08337 11.9958 6.6881 12.2231ZM13.3237 10.7856C13.1215 11.1366 12.844 11.4384 12.5112 11.6694L9.74123 8.98874C9.91848 8.6774 10.0086 8.32406 10.0021 7.96586C9.99562 7.60766 9.89277 7.25782 9.70435 6.95311C10.2332 6.68613 10.8341 6.59708 11.4177 6.6992C12.0013 6.80132 12.5362 7.08917 12.943 7.51988C13.3497 7.95059 13.6065 8.50114 13.6751 9.08958C13.7437 9.67802 13.6205 10.2729 13.3237 10.7856Z" fill="#E41571"/>
</svg>
