<svg width="56" height="56" viewBox="0 0 56 56" fill="none" xmlns="http://www.w3.org/2000/svg">
<rect width="56" height="56" fill="white"/>
<path fill-rule="evenodd" clip-rule="evenodd" d="M13.375 8.16663H42.6237L47.8327 15.9801V52.5H8.16602V15.9801L13.375 8.16663ZM14.6237 10.5L10.4993 16.6865V50.1666H45.4994V16.6865L41.375 10.5H14.6237Z" fill="#111827"/>
<path fill-rule="evenodd" clip-rule="evenodd" d="M9.33398 54.8333C9.33398 54.189 9.85632 53.6666 10.5007 53.6666H45.5006C46.145 53.6666 46.6673 54.189 46.6673 54.8333C46.6673 55.4776 46.145 56 45.5006 56H10.5007C9.85632 56 9.33398 55.4776 9.33398 54.8333Z" fill="#E41571"/>
<path fill-rule="evenodd" clip-rule="evenodd" d="M51.3327 51.3334C50.6884 51.3334 50.166 50.811 50.166 50.1667V17.5C50.166 16.8557 50.6884 16.3334 51.3327 16.3334C51.977 16.3334 52.4993 16.8557 52.4993 17.5V50.1667C52.4993 50.811 51.977 51.3334 51.3327 51.3334Z" fill="#E41571"/>
<path fill-rule="evenodd" clip-rule="evenodd" d="M9.29471 6.1214C10.3865 4.48369 12.2246 3.5 14.1928 3.5H41.8072C43.7755 3.5 45.6135 4.48369 46.7053 6.12139L49.3236 10.0488C49.681 10.5849 49.5361 11.3093 49 11.6667C48.4639 12.0241 47.7396 11.8792 47.3821 11.3431L45.2151 8.09251C44.2742 6.6811 42.6901 5.83333 40.9938 5.83333H15.0063C13.31 5.83333 11.7259 6.6811 10.785 8.09251L8.6179 11.3431C8.26049 11.8792 7.53614 12.0241 7.00002 11.6667C6.46391 11.3093 6.31904 10.5849 6.67645 10.0488L9.29471 6.1214Z" fill="#E41571"/>
<path fill-rule="evenodd" clip-rule="evenodd" d="M12.834 17.5H19.834V26.8333H12.834V17.5ZM15.1673 19.8333V24.5H17.5007V19.8333H15.1673Z" fill="#111827"/>
<path fill-rule="evenodd" clip-rule="evenodd" d="M12.834 29.1666H19.834V38.5H12.834V29.1666ZM15.1673 31.5V36.1666H17.5007V31.5H15.1673Z" fill="#111827"/>
<path fill-rule="evenodd" clip-rule="evenodd" d="M24.5 17.5H31.5V26.8333H24.5V17.5ZM26.8333 19.8333V24.5H29.1667V19.8333H26.8333Z" fill="#111827"/>
<path fill-rule="evenodd" clip-rule="evenodd" d="M24.5 29.1666H31.5V38.5H24.5V29.1666ZM26.8333 31.5V36.1666H29.1667V31.5H26.8333Z" fill="#111827"/>
<path fill-rule="evenodd" clip-rule="evenodd" d="M22.166 40.8334H29.166V52.5H22.166V40.8334ZM24.4993 43.1667V50.1667H26.8327V43.1667H24.4993Z" fill="#111827"/>
<path fill-rule="evenodd" clip-rule="evenodd" d="M26.834 40.8334H33.834V52.5H26.834V40.8334ZM29.1673 43.1667V50.1667H31.5007V43.1667H29.1673Z" fill="#111827"/>
<path fill-rule="evenodd" clip-rule="evenodd" d="M36.166 17.5H43.166V26.8333H36.166V17.5ZM38.4993 19.8333V24.5H40.8327V19.8333H38.4993Z" fill="#E41571"/>
<path fill-rule="evenodd" clip-rule="evenodd" d="M36.166 29.1666H43.166V38.5H36.166V29.1666ZM38.4993 31.5V36.1666H40.8327V31.5H38.4993Z" fill="#111827"/>
</svg>
