<svg width="40" height="40" viewBox="0 0 40 40" fill="none" xmlns="http://www.w3.org/2000/svg">
<path d="M28.5723 1.78577L28.8037 1.79163C31.1814 1.91209 33.0723 3.87811 33.0723 6.28577V33.7145C33.0722 36.1997 31.0575 38.2145 28.5723 38.2145H12.5723C10.087 38.2145 8.07234 36.1997 8.07227 33.7145V6.28577C8.07227 3.80049 10.087 1.78577 12.5723 1.78577H28.5723Z" fill="white" stroke="#111827"/>
<path fill-rule="evenodd" clip-rule="evenodd" d="M16.4127 7.18494H24.7316C25.994 7.18494 27.0173 8.20829 27.0173 9.47065V10.7553C27.0173 12.0176 25.994 13.041 24.7316 13.041H16.4127C15.1503 13.041 14.127 12.0176 14.127 10.7553V9.47065C14.127 8.20829 15.1503 7.18494 16.4127 7.18494Z" fill="#111827"/>
<path d="M28.5728 28.0001C27.9666 28.0001 27.3852 27.7413 26.9566 27.2807C26.5279 26.82 26.2871 26.1952 26.2871 25.5438C26.2871 23.9063 28.5728 21.1429 28.5728 21.1429C28.5728 21.1429 29.3366 22.0663 29.9811 23.1617C30.4516 23.9614 30.8585 24.8528 30.8585 25.5438C30.8585 26.1952 30.6177 26.82 30.1891 27.2807C29.7604 27.7413 29.179 28.0001 28.5728 28.0001Z" stroke="#D7156B"/>
<path d="M13.2434 28.0001C12.9339 28.0001 12.6708 27.8824 12.4541 27.6471C12.2375 27.4119 12.1291 27.1261 12.1291 26.79H12.872C12.872 26.9043 12.9076 27.0002 12.979 27.0776C13.0503 27.155 13.1384 27.1936 13.2434 27.1934C13.3487 27.1934 13.4369 27.1546 13.5082 27.0772C13.5796 26.9998 13.6151 26.904 13.6148 26.79C13.6148 26.6757 13.5792 26.58 13.5079 26.5028C13.4366 26.4256 13.3484 26.3869 13.2434 26.3866H9.71484V25.5799H13.2434C13.5529 25.5799 13.816 25.6976 14.0327 25.9329C14.2494 26.1682 14.3577 26.4539 14.3577 26.79C14.3577 27.1261 14.2494 27.4119 14.0327 27.6471C13.816 27.8824 13.5529 28.0001 13.2434 28.0001ZM9.71484 23.9665V23.1598H14.7291C14.8901 23.1598 15.0232 23.1026 15.1284 22.9883C15.2337 22.874 15.2863 22.7295 15.2863 22.5547C15.2863 22.3799 15.2337 22.2354 15.1284 22.1211C15.0232 22.0068 14.8901 21.9497 14.7291 21.9497C14.5682 21.9497 14.4351 22.0068 14.3298 22.1211C14.2246 22.2354 14.172 22.3799 14.172 22.5547H13.4291C13.4291 22.1581 13.5545 21.8235 13.8054 21.5511C14.0562 21.2787 14.3641 21.1427 14.7291 21.1429C15.0944 21.1429 15.4024 21.2791 15.6532 21.5515C15.9041 21.824 16.0294 22.1583 16.0291 22.5547C16.0291 22.9513 15.9038 23.2859 15.6532 23.5583C15.4027 23.8307 15.0946 23.9667 14.7291 23.9665H9.71484ZM15.8434 27.1934V26.3866C16.0044 26.3866 16.1375 26.3295 16.2427 26.2152C16.3479 26.1009 16.4006 25.9564 16.4006 25.7816C16.4006 25.6068 16.3479 25.4623 16.2427 25.348C16.1375 25.2337 16.0044 25.1766 15.8434 25.1766H9.71484V24.3698H15.8434C16.2087 24.3698 16.5167 24.506 16.7675 24.7784C17.0184 25.0508 17.1437 25.3852 17.1434 25.7816C17.1434 26.1782 17.0181 26.5128 16.7675 26.7852C16.5169 27.0576 16.2089 27.1936 15.8434 27.1934Z" fill="#D8156C"/>
</svg>
