<svg width="39" height="41" viewBox="0 0 39 41" fill="none" xmlns="http://www.w3.org/2000/svg">
<path d="M8.11328 33.5911H9.23714V39.5666H8.11328V33.5911Z" fill="#9CADE8"/>
<path d="M11.9336 33.5911H13.0575V39.5666H11.9336V33.5911Z" fill="#E89C9C"/>
<rect width="0.224772" height="5.97551" transform="matrix(-1 0 0 1 13.0586 33.5911)" fill="#565656" fill-opacity="0.3"/>
<rect width="0.224772" height="5.74569" transform="matrix(-1 0 0 1 9.23633 33.8209)" fill="#565656" fill-opacity="0.3"/>
<rect width="0.224772" height="5.97551" transform="matrix(-1 0 0 1 12.1582 33.5911)" fill="white" fill-opacity="0.3"/>
<rect width="0.322174" height="5.92954" transform="matrix(-1 0 0 1 8.33008 33.6984)" fill="white" fill-opacity="0.3"/>
<path d="M0.919922 2.83053C0.919922 1.78834 1.74416 0.94348 2.76092 0.943482L10.4607 0.943493L18.4094 0.943481C19.4261 0.94348 20.2504 1.78834 20.2504 2.83052V28.7042C20.2504 29.7463 19.4261 30.5912 18.4094 30.5912H2.76092C1.74416 30.5912 0.919922 29.7463 0.919922 28.7042V2.83053Z" fill="white"/>
<ellipse cx="10.585" cy="7.99998" rx="3.34286" ry="3.42857" fill="#274430"/>
<path d="M10.585 5.14282L11.3549 7.51167C11.5249 8.03472 11.135 8.57139 10.585 8.57139C10.035 8.57139 9.64512 8.03472 9.81511 7.51167L10.585 5.14282Z" fill="white"/>
<path d="M12.6253 23.1032C12.5023 22.7683 12.3237 22.4678 12.1004 22.2203L11.9162 22.0157C11.9099 22.0089 11.9024 22.0041 11.8942 22.0017C11.8861 21.9993 11.8776 21.9993 11.8695 22.0018C11.8613 22.0043 11.8538 22.0092 11.8476 22.016C11.8414 22.0229 11.8367 22.0314 11.8339 22.041L11.7516 22.3268C11.7003 22.5062 11.6059 22.6894 11.4724 22.8695C11.4635 22.881 11.4534 22.884 11.4464 22.8848C11.4394 22.8856 11.4287 22.884 11.4192 22.8733C11.4103 22.8641 11.4059 22.8503 11.4065 22.8365C11.4299 22.3751 11.316 21.8547 11.0665 21.2883C10.8601 20.8178 10.5733 20.4506 10.215 20.1947L9.95351 20.0084C9.91932 19.9839 9.87563 20.0161 9.87753 20.0644L9.89146 20.4323C9.90096 20.6836 9.8769 20.9059 9.81992 21.0906C9.75028 21.3167 9.65025 21.5267 9.52236 21.7152C9.43336 21.8463 9.33248 21.9648 9.22163 22.0686C8.95464 22.317 8.73755 22.6353 8.58661 22.9998C8.43604 23.3673 8.35761 23.772 8.35742 24.1823C8.35742 24.5441 8.4163 24.8943 8.5328 25.2247C8.64528 25.5427 8.8076 25.8313 9.0108 26.0746C9.21593 26.3199 9.45398 26.513 9.71926 26.6471C9.99403 26.7866 10.2853 26.8571 10.586 26.8571C10.8867 26.8571 11.178 26.7866 11.4527 26.6479C11.7174 26.5146 11.958 26.3201 12.1612 26.0754C12.3663 25.8301 12.5271 25.5435 12.6392 25.2254C12.7555 24.896 12.8152 24.5414 12.8146 24.1831C12.8146 23.8091 12.7512 23.4458 12.6253 23.1032Z" stroke="#E41571" stroke-linejoin="round"/>
<path fill-rule="evenodd" clip-rule="evenodd" d="M21.1714 28.7042V2.83057C21.1714 1.26729 19.9351 -2.24952e-06 18.4099 0H2.76149C1.23636 -2.24952e-06 0 1.26729 0 2.83057V28.7042C0 30.1674 1.08319 31.3714 2.4725 31.5195V32.4178C2.4725 33.4599 3.29674 34.3048 4.31349 34.3048H7.19272V40.5101H10.1576V34.3048H11.0139V40.5101H13.9787V34.3048H16.8579C17.8747 34.3048 18.6989 33.4599 18.6989 32.4178V31.5195C20.0882 31.3714 21.1714 30.1675 21.1714 28.7042ZM3.39299 31.5348H17.7784V32.4178C17.7784 32.434 17.778 32.4501 17.7772 32.4662C17.7527 32.9648 17.3505 33.3613 16.8579 33.3613H4.31349C3.82096 33.3613 3.41878 32.9648 3.39419 32.4662C3.39339 32.4501 3.39299 32.434 3.39299 32.4178V31.5348ZM18.6197 30.5791C19.5377 30.4724 20.2509 29.6737 20.2509 28.7042V2.83057C20.2509 1.78838 19.4267 0.94352 18.4099 0.943522H2.76149C1.74474 0.94352 0.920497 1.78838 0.920497 2.83057V28.7042C0.920497 29.6737 1.63376 30.4724 2.55176 30.5791H18.6197Z" fill="#111827"/>
<path d="M16.4707 22.0405C16.4707 21.4127 17.2516 20.9037 18.2148 20.9037L25.5093 20.9037L33.0396 20.9037C34.0029 20.9037 34.7837 21.4127 34.7837 22.0405V37.3881C34.7837 38.016 34.0029 38.5249 33.0396 38.5249H18.2148C17.2516 38.5249 16.4707 38.016 16.4707 37.3881V22.0405Z" fill="white"/>
<path d="M26.0146 32.9669C26.0479 33.0073 26.0848 33.0524 26.124 33.1017L26.416 33.4845C26.5208 33.6285 26.6307 33.7865 26.7354 33.9513L26.9551 34.3234C27.0241 34.4502 27.0874 34.5791 27.1416 34.7072L27.2158 34.8995C27.2833 35.0937 27.3281 35.2924 27.3281 35.4825C27.3281 35.8782 27.1899 36.2587 26.9414 36.5607L26.8281 36.6857C26.509 37.0032 26.0774 37.1808 25.6289 37.1808C25.2365 37.1808 24.8572 37.0446 24.5547 36.798L24.4297 36.6857C24.1103 36.3678 23.9297 35.9347 23.9297 35.4825C23.9297 35.1841 24.0394 34.8615 24.1797 34.5646L24.2949 34.338C24.4168 34.1125 24.5573 33.8918 24.6953 33.6915L24.9658 33.3175C25.052 33.2038 25.1324 33.1023 25.2012 33.0177L25.2432 32.9669L25.6289 32.4972L26.0146 32.9669Z" stroke="#E41571"/>
<path fill-rule="evenodd" clip-rule="evenodd" d="M35.6568 22.711V36.7176C35.6568 38.2148 34.4855 39.4286 33.0406 39.4286H18.2158C16.7709 39.4286 15.5996 38.2148 15.5996 36.7176V22.711C15.5996 21.2137 16.7709 20 18.2158 20L33.0406 20C34.4855 20 35.6568 21.2137 35.6568 22.711ZM18.2158 20.9037C17.2525 20.9037 16.4717 21.7128 16.4717 22.711V36.7176C16.4717 37.7158 17.2525 38.5249 18.2158 38.5249H33.0406C34.0038 38.5249 34.7847 37.7158 34.7847 36.7176V22.711C34.7847 21.7128 34.0038 20.9037 33.0406 20.9037L18.2158 20.9037Z" fill="#111827"/>
<path d="M33.041 38.5249C34.0043 38.5249 34.7851 37.7158 34.7851 36.7176V22.711C34.7851 21.7128 34.0043 20.9037 33.041 20.9037L33.041 38.5249Z" fill="#565656" fill-opacity="0.3"/>
<path fill-rule="evenodd" clip-rule="evenodd" d="M22.455 24.7775H28.8027C29.766 24.7775 30.5468 25.5866 30.5468 26.5848V27.6005C30.5468 28.5987 29.766 29.4078 28.8027 29.4078H22.455C21.4918 29.4078 20.7109 28.5987 20.7109 27.6005V26.5848C20.7109 25.5866 21.4918 24.7775 22.455 24.7775Z" fill="#111827"/>
<path d="M27.375 10.375C27.375 10.1679 27.2071 10 27 10C26.7929 10 26.625 10.1679 26.625 10.375V12.625H24.375C24.1679 12.625 24 12.7929 24 13C24 13.2071 24.1679 13.375 24.375 13.375H26.625V15.625C26.625 15.8321 26.7929 16 27 16C27.2071 16 27.375 15.8321 27.375 15.625V13.375H29.625C29.8321 13.375 30 13.2071 30 13C30 12.7929 29.8321 12.625 29.625 12.625H27.375V10.375Z" fill="#E41571"/>
</svg>
