<?xml version="1.0" encoding="UTF-8" standalone="no"?>
<!DOCTYPE svg PUBLIC "-//W3C//DTD SVG 1.1//EN"
 "http://www.w3.org/Graphics/SVG/1.1/DTD/svg11.dtd">
<!-- Generated by graphviz version 10.0.1 (20240210.2158)
 -->
<!-- Title: structs Pages: 1 -->
<svg width="401pt" height="816pt"
 viewBox="0.00 0.00 401.00 816.00" xmlns="http://www.w3.org/2000/svg" xmlns:xlink="http://www.w3.org/1999/xlink">
<g id="graph0" class="graph" transform="scale(1 1) rotate(0) translate(4 812)">
<title>structs</title>
<polygon fill="white" stroke="none" points="-4,4 -4,-812 397,-812 397,4 -4,4"/>
<!-- criteres -->
<g id="node1" class="node">
<title>criteres</title>
<polygon fill="none" stroke="black" points="226.5,-782 226.5,-804 352.5,-804 352.5,-782 226.5,-782"/>
<text text-anchor="start" x="267.75" y="-788.7" font-family="Times,serif" font-weight="bold" font-size="14.00">criteres</text>
<polygon fill="none" stroke="black" points="226.5,-758 226.5,-782 246.5,-782 246.5,-758 226.5,-758"/>
<text text-anchor="start" x="229.38" y="-765.7" font-family="Times,serif" font-size="14.00">🔑</text>
<polygon fill="none" stroke="black" points="246.5,-758 246.5,-782 352.5,-782 352.5,-758 246.5,-758"/>
<text text-anchor="start" x="294.25" y="-764.95" font-family="Times,serif" font-size="14.00">id</text>
<polygon fill="none" stroke="black" points="226.5,-736 226.5,-758 246.5,-758 246.5,-736 226.5,-736"/>
<text text-anchor="start" x="234.62" y="-741.7" font-family="Times,serif" font-size="14.00"> </text>
<polygon fill="none" stroke="black" points="246.5,-736 246.5,-758 352.5,-758 352.5,-736 246.5,-736"/>
<text text-anchor="start" x="290.12" y="-741.7" font-family="Times,serif" font-size="14.00">CH</text>
<polygon fill="none" stroke="black" points="226.5,-714 226.5,-736 246.5,-736 246.5,-714 226.5,-714"/>
<text text-anchor="start" x="234.62" y="-719.7" font-family="Times,serif" font-size="14.00"> </text>
<polygon fill="none" stroke="black" points="246.5,-714 246.5,-736 352.5,-736 352.5,-714 246.5,-714"/>
<text text-anchor="start" x="287.12" y="-719.7" font-family="Times,serif" font-size="14.00">ECS</text>
<polygon fill="none" stroke="black" points="226.5,-692 226.5,-714 246.5,-714 246.5,-692 226.5,-692"/>
<text text-anchor="start" x="234.62" y="-697.7" font-family="Times,serif" font-size="14.00"> </text>
<polygon fill="none" stroke="black" points="246.5,-692 246.5,-714 352.5,-714 352.5,-692 246.5,-692"/>
<text text-anchor="start" x="275.5" y="-697.7" font-family="Times,serif" font-size="14.00">emetteur</text>
<polygon fill="none" stroke="black" points="226.5,-670 226.5,-692 246.5,-692 246.5,-670 226.5,-670"/>
<text text-anchor="start" x="234.62" y="-675.7" font-family="Times,serif" font-size="14.00"> </text>
<polygon fill="none" stroke="black" points="246.5,-670 246.5,-692 352.5,-692 352.5,-670 246.5,-670"/>
<text text-anchor="start" x="254.12" y="-675.7" font-family="Times,serif" font-size="14.00">espace_exterieur</text>
<polygon fill="none" stroke="black" points="226.5,-648 226.5,-670 246.5,-670 246.5,-648 226.5,-648"/>
<text text-anchor="start" x="234.62" y="-653.7" font-family="Times,serif" font-size="14.00"> </text>
<polygon fill="none" stroke="black" points="246.5,-648 246.5,-670 352.5,-670 352.5,-648 246.5,-648"/>
<text text-anchor="start" x="262.38" y="-653.7" font-family="Times,serif" font-size="14.00">env_contraint</text>
<polygon fill="none" stroke="black" points="226.5,-626 226.5,-648 246.5,-648 246.5,-626 226.5,-626"/>
<text text-anchor="start" x="234.62" y="-631.7" font-family="Times,serif" font-size="14.00"> </text>
<polygon fill="none" stroke="black" points="246.5,-626 246.5,-648 352.5,-648 352.5,-626 246.5,-626"/>
<text text-anchor="start" x="257.88" y="-631.7" font-family="Times,serif" font-size="14.00">toiture_terrasse</text>
<polygon fill="none" stroke="black" points="226.5,-604 226.5,-626 246.5,-626 246.5,-604 226.5,-604"/>
<text text-anchor="start" x="234.62" y="-609.7" font-family="Times,serif" font-size="14.00"> </text>
<polygon fill="none" stroke="black" points="246.5,-604 246.5,-626 352.5,-626 352.5,-604 246.5,-604"/>
<text text-anchor="start" x="266.88" y="-609.7" font-family="Times,serif" font-size="14.00">temperature</text>
<polygon fill="none" stroke="black" points="226.5,-582 226.5,-604 246.5,-604 246.5,-582 226.5,-582"/>
<text text-anchor="start" x="234.62" y="-587.7" font-family="Times,serif" font-size="14.00"> </text>
<polygon fill="none" stroke="black" points="246.5,-582 246.5,-604 352.5,-604 352.5,-582 246.5,-582"/>
<text text-anchor="start" x="279.62" y="-587.7" font-family="Times,serif" font-size="14.00">nb_lgts</text>
<polygon fill="none" stroke="black" points="226.5,-560 226.5,-582 246.5,-582 246.5,-560 226.5,-560"/>
<text text-anchor="start" x="234.62" y="-565.7" font-family="Times,serif" font-size="14.00"> </text>
<polygon fill="none" stroke="black" points="246.5,-560 246.5,-582 352.5,-582 352.5,-560 246.5,-560"/>
<text text-anchor="start" x="249.25" y="-565.7" font-family="Times,serif" font-size="14.00">niveau_renovation</text>
</g>
<!-- solutions -->
<g id="node2" class="node">
<title>solutions</title>
<polygon fill="none" stroke="black" points="194,-512 194,-534 385,-534 385,-512 194,-512"/>
<text text-anchor="start" x="264" y="-518.7" font-family="Times,serif" font-weight="bold" font-size="14.00">solutions</text>
<polygon fill="none" stroke="black" points="194,-488 194,-512 214,-512 214,-488 194,-488"/>
<text text-anchor="start" x="196.88" y="-495.7" font-family="Times,serif" font-size="14.00">🔑</text>
<polygon fill="none" stroke="black" points="214,-488 214,-512 385,-512 385,-488 214,-488"/>
<text text-anchor="start" x="294.25" y="-494.95" font-family="Times,serif" font-size="14.00">id</text>
<polygon fill="none" stroke="black" points="194,-466 194,-488 214,-488 214,-466 194,-466"/>
<text text-anchor="start" x="202.12" y="-471.7" font-family="Times,serif" font-size="14.00"> </text>
<polygon fill="none" stroke="black" points="214,-466 214,-488 385,-488 385,-466 214,-466"/>
<text text-anchor="start" x="284.5" y="-471.7" font-family="Times,serif" font-size="14.00">name</text>
<polygon fill="none" stroke="black" points="194,-444 194,-466 214,-466 214,-444 194,-444"/>
<text text-anchor="start" x="202.12" y="-449.7" font-family="Times,serif" font-size="14.00"> </text>
<polygon fill="none" stroke="black" points="214,-444 214,-466 385,-466 385,-444 214,-444"/>
<text text-anchor="start" x="287.88" y="-449.7" font-family="Times,serif" font-size="14.00">type</text>
<polygon fill="none" stroke="black" points="194,-422 194,-444 214,-444 214,-422 194,-422"/>
<text text-anchor="start" x="202.12" y="-427.7" font-family="Times,serif" font-size="14.00"> </text>
<polygon fill="none" stroke="black" points="214,-422 214,-444 385,-444 385,-422 214,-422"/>
<text text-anchor="start" x="271.38" y="-427.7" font-family="Times,serif" font-size="14.00">usage_CH</text>
<polygon fill="none" stroke="black" points="194,-400 194,-422 214,-422 214,-400 194,-400"/>
<text text-anchor="start" x="202.12" y="-405.7" font-family="Times,serif" font-size="14.00"> </text>
<polygon fill="none" stroke="black" points="214,-400 214,-422 385,-422 385,-400 214,-400"/>
<text text-anchor="start" x="268.38" y="-405.7" font-family="Times,serif" font-size="14.00">usage_ECS</text>
<polygon fill="none" stroke="black" points="194,-378 194,-400 214,-400 214,-378 194,-378"/>
<text text-anchor="start" x="202.12" y="-383.7" font-family="Times,serif" font-size="14.00"> </text>
<polygon fill="none" stroke="black" points="214,-378 214,-400 385,-400 385,-378 214,-378"/>
<text text-anchor="start" x="272.5" y="-383.7" font-family="Times,serif" font-size="14.00">usage_FR</text>
<polygon fill="none" stroke="black" points="194,-356 194,-378 214,-378 214,-356 194,-356"/>
<text text-anchor="start" x="202.12" y="-361.7" font-family="Times,serif" font-size="14.00"> </text>
<polygon fill="none" stroke="black" points="214,-356 214,-378 385,-378 385,-356 214,-356"/>
<text text-anchor="start" x="262" y="-361.7" font-family="Times,serif" font-size="14.00">num_AFPAC</text>
<polygon fill="none" stroke="black" points="194,-334 194,-356 214,-356 214,-334 194,-334"/>
<text text-anchor="start" x="202.12" y="-339.7" font-family="Times,serif" font-size="14.00"> </text>
<polygon fill="none" stroke="black" points="214,-334 214,-356 385,-356 385,-334 214,-334"/>
<text text-anchor="start" x="233.88" y="-339.7" font-family="Times,serif" font-size="14.00">emprise_PAC_exterieur</text>
<polygon fill="none" stroke="black" points="194,-312 194,-334 214,-334 214,-312 194,-312"/>
<text text-anchor="start" x="202.12" y="-317.7" font-family="Times,serif" font-size="14.00"> </text>
<polygon fill="none" stroke="black" points="214,-312 214,-334 385,-334 385,-312 214,-312"/>
<text text-anchor="start" x="256.75" y="-317.7" font-family="Times,serif" font-size="14.00">local_technique</text>
<polygon fill="none" stroke="black" points="194,-290 194,-312 214,-312 214,-290 194,-290"/>
<text text-anchor="start" x="202.12" y="-295.7" font-family="Times,serif" font-size="14.00"> </text>
<polygon fill="none" stroke="black" points="214,-290 214,-312 385,-312 385,-290 214,-290"/>
<text text-anchor="start" x="248.88" y="-295.7" font-family="Times,serif" font-size="14.00">emprise_logement</text>
<polygon fill="none" stroke="black" points="194,-268 194,-290 214,-290 214,-268 194,-268"/>
<text text-anchor="start" x="202.12" y="-273.7" font-family="Times,serif" font-size="14.00"> </text>
<polygon fill="none" stroke="black" points="214,-268 214,-290 385,-290 385,-268 214,-268"/>
<text text-anchor="start" x="275.88" y="-273.7" font-family="Times,serif" font-size="14.00">structure</text>
<polygon fill="none" stroke="black" points="194,-246 194,-268 214,-268 214,-246 194,-246"/>
<text text-anchor="start" x="202.12" y="-251.7" font-family="Times,serif" font-size="14.00"> </text>
<polygon fill="none" stroke="black" points="214,-246 214,-268 385,-268 385,-246 214,-246"/>
<text text-anchor="start" x="270.62" y="-251.7" font-family="Times,serif" font-size="14.00">acoustique</text>
<polygon fill="none" stroke="black" points="194,-224 194,-246 214,-246 214,-224 194,-224"/>
<text text-anchor="start" x="202.12" y="-229.7" font-family="Times,serif" font-size="14.00"> </text>
<polygon fill="none" stroke="black" points="214,-224 214,-246 385,-246 385,-224 214,-224"/>
<text text-anchor="start" x="240.62" y="-229.7" font-family="Times,serif" font-size="14.00">reseaux_hydrauliques</text>
<polygon fill="none" stroke="black" points="194,-202 194,-224 214,-224 214,-202 194,-202"/>
<text text-anchor="start" x="202.12" y="-207.7" font-family="Times,serif" font-size="14.00"> </text>
<polygon fill="none" stroke="black" points="214,-202 214,-224 385,-224 385,-202 214,-202"/>
<text text-anchor="start" x="286.75" y="-207.7" font-family="Times,serif" font-size="14.00">PLU</text>
<polygon fill="none" stroke="black" points="194,-180 194,-202 214,-202 214,-180 194,-180"/>
<text text-anchor="start" x="202.12" y="-185.7" font-family="Times,serif" font-size="14.00"> </text>
<polygon fill="none" stroke="black" points="214,-180 214,-202 385,-202 385,-180 214,-180"/>
<text text-anchor="start" x="232.38" y="-185.7" font-family="Times,serif" font-size="14.00">raccordement_electrique</text>
<polygon fill="none" stroke="black" points="194,-158 194,-180 214,-180 214,-158 194,-158"/>
<text text-anchor="start" x="202.12" y="-163.7" font-family="Times,serif" font-size="14.00"> </text>
<polygon fill="none" stroke="black" points="214,-158 214,-180 385,-180 385,-158 214,-158"/>
<text text-anchor="start" x="261.25" y="-163.7" font-family="Times,serif" font-size="14.00">impact_visuel</text>
<polygon fill="none" stroke="black" points="194,-136 194,-158 214,-158 214,-136 194,-136"/>
<text text-anchor="start" x="202.12" y="-141.7" font-family="Times,serif" font-size="14.00"> </text>
<polygon fill="none" stroke="black" points="214,-136 214,-158 385,-158 385,-136 214,-136"/>
<text text-anchor="start" x="246.25" y="-141.7" font-family="Times,serif" font-size="14.00">note_impact_visuel</text>
<polygon fill="none" stroke="black" points="194,-114 194,-136 214,-136 214,-114 194,-114"/>
<text text-anchor="start" x="202.12" y="-119.7" font-family="Times,serif" font-size="14.00"> </text>
<polygon fill="none" stroke="black" points="214,-114 214,-136 385,-136 385,-114 214,-114"/>
<text text-anchor="start" x="244" y="-119.7" font-family="Times,serif" font-size="14.00">note_Impact_sonore</text>
<polygon fill="none" stroke="black" points="194,-92 194,-114 214,-114 214,-92 194,-92"/>
<text text-anchor="start" x="202.12" y="-97.7" font-family="Times,serif" font-size="14.00"> </text>
<polygon fill="none" stroke="black" points="214,-92 214,-114 385,-114 385,-92 214,-92"/>
<text text-anchor="start" x="217" y="-97.7" font-family="Times,serif" font-size="14.00">note_impact_espace_exterieur</text>
<polygon fill="none" stroke="black" points="194,-70 194,-92 214,-92 214,-70 194,-70"/>
<text text-anchor="start" x="202.12" y="-75.7" font-family="Times,serif" font-size="14.00"> </text>
<polygon fill="none" stroke="black" points="214,-70 214,-92 385,-92 385,-70 214,-70"/>
<text text-anchor="start" x="238.75" y="-75.7" font-family="Times,serif" font-size="14.00">note_environnemental</text>
<polygon fill="none" stroke="black" points="194,-48 194,-70 214,-70 214,-48 194,-48"/>
<text text-anchor="start" x="202.12" y="-53.7" font-family="Times,serif" font-size="14.00"> </text>
<polygon fill="none" stroke="black" points="214,-48 214,-70 385,-70 385,-48 214,-48"/>
<text text-anchor="start" x="261.62" y="-53.7" font-family="Times,serif" font-size="14.00">note_maturite</text>
<polygon fill="none" stroke="black" points="194,-26 194,-48 214,-48 214,-26 194,-26"/>
<text text-anchor="start" x="202.12" y="-31.7" font-family="Times,serif" font-size="14.00"> </text>
<polygon fill="none" stroke="black" points="214,-26 214,-48 385,-48 385,-26 214,-26"/>
<text text-anchor="start" x="250.38" y="-31.7" font-family="Times,serif" font-size="14.00">commentaire_app</text>
<polygon fill="none" stroke="black" points="194,-4 194,-26 214,-26 214,-4 194,-4"/>
<text text-anchor="start" x="202.12" y="-9.7" font-family="Times,serif" font-size="14.00"> </text>
<polygon fill="none" stroke="black" points="214,-4 214,-26 385,-26 385,-4 214,-4"/>
<text text-anchor="start" x="241.75" y="-9.7" font-family="Times,serif" font-size="14.00">commentaire_pouget</text>
</g>
<!-- solutions_par_criteres -->
<g id="node3" class="node">
<title>solutions_par_criteres</title>
<polygon fill="none" stroke="black" points="8,-657 8,-679 142,-679 142,-657 8,-657"/>
<text text-anchor="start" x="10.88" y="-663.7" font-family="Times,serif" font-weight="bold" font-size="14.00">solutions_par_criteres</text>
<polygon fill="none" stroke="black" points="8,-635 8,-657 17,-657 17,-635 8,-635"/>
<text text-anchor="start" x="10.62" y="-640.7" font-family="Times,serif" font-size="14.00"> </text>
<polygon fill="none" stroke="black" points="17,-635 17,-657 142,-657 142,-635 17,-635"/>
<text text-anchor="start" x="51" y="-640.7" font-family="Times,serif" font-size="14.00">criteres_id</text>
<polygon fill="none" stroke="black" points="8,-613 8,-635 17,-635 17,-613 8,-613"/>
<text text-anchor="start" x="10.62" y="-618.7" font-family="Times,serif" font-size="14.00"> </text>
<polygon fill="none" stroke="black" points="17,-613 17,-635 142,-635 142,-613 17,-613"/>
<text text-anchor="start" x="46.5" y="-618.7" font-family="Times,serif" font-size="14.00">solutions_id</text>
<polygon fill="none" stroke="black" points="8,-591 8,-613 17,-613 17,-591 8,-591"/>
<text text-anchor="start" x="10.62" y="-596.7" font-family="Times,serif" font-size="14.00"> </text>
<polygon fill="none" stroke="black" points="17,-591 17,-613 142,-613 142,-591 17,-591"/>
<text text-anchor="start" x="40.12" y="-596.7" font-family="Times,serif" font-size="14.00">ordre_solution</text>
<polygon fill="none" stroke="black" points="8,-569 8,-591 17,-591 17,-569 8,-569"/>
<text text-anchor="start" x="10.62" y="-574.7" font-family="Times,serif" font-size="14.00"> </text>
<polygon fill="none" stroke="black" points="17,-569 17,-591 142,-591 142,-569 17,-569"/>
<text text-anchor="start" x="54.75" y="-574.7" font-family="Times,serif" font-size="14.00">difficulte</text>
<polygon fill="none" stroke="black" points="8,-547 8,-569 17,-569 17,-547 8,-547"/>
<text text-anchor="start" x="10.62" y="-552.7" font-family="Times,serif" font-size="14.00"> </text>
<polygon fill="none" stroke="black" points="17,-547 17,-569 142,-569 142,-547 17,-547"/>
<text text-anchor="start" x="23.62" y="-552.7" font-family="Times,serif" font-size="14.00">impact_travaux_coll</text>
<polygon fill="none" stroke="black" points="8,-525 8,-547 17,-547 17,-525 8,-525"/>
<text text-anchor="start" x="10.62" y="-530.7" font-family="Times,serif" font-size="14.00"> </text>
<polygon fill="none" stroke="black" points="17,-525 17,-547 142,-547 142,-525 17,-525"/>
<text text-anchor="start" x="19.88" y="-530.7" font-family="Times,serif" font-size="14.00">impact_travaux_indiv</text>
<polygon fill="none" stroke="black" points="8,-503 8,-525 17,-525 17,-503 8,-503"/>
<text text-anchor="start" x="10.62" y="-508.7" font-family="Times,serif" font-size="14.00"> </text>
<polygon fill="none" stroke="black" points="17,-503 17,-525 142,-525 142,-503 17,-503"/>
<text text-anchor="start" x="67.88" y="-508.7" font-family="Times,serif" font-size="14.00">cout</text>
<polygon fill="none" stroke="black" points="8,-481 8,-503 17,-503 17,-481 8,-481"/>
<text text-anchor="start" x="10.62" y="-486.7" font-family="Times,serif" font-size="14.00"> </text>
<polygon fill="none" stroke="black" points="17,-481 17,-503 142,-503 142,-481 17,-481"/>
<text text-anchor="start" x="42.75" y="-486.7" font-family="Times,serif" font-size="14.00">type_solution</text>
<polygon fill="none" stroke="black" points="8,-459 8,-481 17,-481 17,-459 8,-459"/>
<text text-anchor="start" x="10.62" y="-464.7" font-family="Times,serif" font-size="14.00"> </text>
<polygon fill="none" stroke="black" points="17,-459 17,-481 142,-481 142,-459 17,-459"/>
<text text-anchor="start" x="51.38" y="-464.7" font-family="Times,serif" font-size="14.00">usage_CH</text>
<polygon fill="none" stroke="black" points="8,-437 8,-459 17,-459 17,-437 8,-437"/>
<text text-anchor="start" x="10.62" y="-442.7" font-family="Times,serif" font-size="14.00"> </text>
<polygon fill="none" stroke="black" points="17,-437 17,-459 142,-459 142,-437 17,-437"/>
<text text-anchor="start" x="48.38" y="-442.7" font-family="Times,serif" font-size="14.00">usage_ECS</text>
<polygon fill="none" stroke="black" points="8,-415 8,-437 17,-437 17,-415 8,-415"/>
<text text-anchor="start" x="10.62" y="-420.7" font-family="Times,serif" font-size="14.00"> </text>
<polygon fill="none" stroke="black" points="17,-415 17,-437 142,-437 142,-415 17,-415"/>
<text text-anchor="start" x="52.5" y="-420.7" font-family="Times,serif" font-size="14.00">usage_FR</text>
</g>
<!-- solutions_par_criteres&#45;&gt;criteres -->
<g id="edge2" class="edge">
<title>solutions_par_criteres:e&#45;&gt;criteres:w</title>
<path fill="none" stroke="black" d="M143,-646C204.93,-646 165.25,-754.53 214.09,-768.52"/>
<polygon fill="black" stroke="black" points="213.63,-771.99 224,-769.81 214.53,-765.05 213.63,-771.99"/>
</g>
<!-- solutions_par_criteres&#45;&gt;solutions -->
<g id="edge1" class="edge">
<title>solutions_par_criteres:e&#45;&gt;solutions:w</title>
<path fill="none" stroke="black" d="M143,-624C197.94,-624 142.72,-517.72 181.31,-501.95"/>
<polygon fill="black" stroke="black" points="181.76,-505.42 191.01,-500.26 180.56,-498.53 181.76,-505.42"/>
</g>
</g>
</svg>
