<svg width="227" height="224" viewBox="0 0 227 224" fill="none"
    xmlns="http://www.w3.org/2000/svg">
    <path d="M226 113.5C226 173.979 177.195 223 117 223C56.8052 223 8 173.979 8 113.5C8 53.0205 56.8052 4 117 4C177.195 4 226 53.0205 226 113.5Z" fill="white" stroke="#274430" stroke-width="2"/>
    <path d="M117.5 5.00001C138.469 5.00001 159.004 10.9662 176.709 22.2018C194.413 33.4373 208.555 49.4784 217.483 68.4514L117.5 115.5L117.5 5.00001Z" fill="#274430"/>
    <mask id="path-3-inside-1_295_1892" fill="white">
        <path d="M110.5 1.00001C131.469 1.00001 152.004 6.96621 169.709 18.2018C187.413 29.4373 201.555 45.4784 210.483 64.4514L110.5 111.5L110.5 1.00001Z"/>
    </mask>
    <path d="M110.5 1.00001C131.469 1.00001 152.004 6.96621 169.709 18.2018C187.413 29.4373 201.555 45.4784 210.483 64.4514L110.5 111.5L110.5 1.00001Z" fill="#E9DEF7" stroke="#274430" stroke-width="4" mask="url(#path-3-inside-1_295_1892)"/>
    <path d="M126.456 64.952V39.8L120.936 43.016L116.952 37.256L126.84 31.352H134.568V64.952H126.456ZM153.572 30.44C161.684 30.44 165.524 35.048 165.524 39.752C165.524 42.68 164.18 45.272 161.348 46.904C165.044 48.584 166.916 51.608 166.916 55.544C166.916 61.4 162.452 65.96 153.572 65.96C144.788 65.96 140.228 61.4 140.228 55.544C140.228 51.608 142.1 48.584 145.796 46.952C143.012 45.272 141.62 42.68 141.62 39.752C141.62 35.048 145.508 30.44 153.572 30.44ZM153.716 43.88C155.876 43.88 157.22 42.68 157.22 40.664C157.22 38.696 155.876 37.4 153.716 37.4C151.268 37.4 149.924 38.696 149.924 40.664C149.924 42.68 151.316 43.88 153.716 43.88ZM153.62 59C156.788 59 158.612 57.512 158.612 55.064C158.612 52.52 156.788 50.888 153.62 50.888C150.404 50.888 148.532 52.52 148.532 55.064C148.532 57.512 150.404 59 153.62 59Z" fill="#304436"/>
    <path d="M174.464 41.896C177.728 41.896 179.968 44.168 179.968 47.24C179.968 50.312 177.728 52.584 174.464 52.584C171.168 52.584 168.928 50.312 168.928 47.24C168.928 44.168 171.168 41.896 174.464 41.896ZM170.496 64.968L186.944 42.568H192.064L175.616 64.968H170.496ZM174.464 49.288C175.52 49.288 176.32 48.52 176.32 47.24C176.32 45.928 175.52 45.224 174.464 45.224C173.408 45.224 172.608 45.928 172.608 47.24C172.608 48.552 173.408 49.288 174.464 49.288ZM188.224 54.92C191.488 54.92 193.728 57.192 193.728 60.264C193.728 63.336 191.488 65.608 188.224 65.608C184.928 65.608 182.688 63.336 182.688 60.264C182.688 57.192 184.928 54.92 188.224 54.92ZM188.224 62.312C189.28 62.312 190.08 61.544 190.08 60.264C190.08 58.952 189.28 58.248 188.224 58.248C187.168 58.248 186.368 58.952 186.368 60.264C186.368 61.576 187.168 62.312 188.224 62.312Z" fill="#304436"/>
</svg>
