<svg width="228" height="227" viewBox="0 0 228 227" fill="none"
    xmlns="http://www.w3.org/2000/svg">
    <circle cx="116.5" cy="116.5" r="109.5" fill="white" stroke="#274430" stroke-width="2"/>
    <path d="M117.5 4.00001C145.006 4.00001 171.523 14.2588 191.868 32.7708C212.212 51.2828 224.921 76.717 227.51 104.101C230.098 131.485 222.38 158.85 205.865 180.846C189.35 202.843 165.225 217.889 138.206 223.043L117.5 114.5L117.5 4.00001Z" fill="#274430"/>
    <mask id="path-3-inside-1_295_1898" fill="white">
        <path d="M110.5 1.04287e-05C138.006 9.22635e-06 164.523 10.2588 184.868 28.7708C205.212 47.2828 217.921 72.717 220.51 100.101C223.098 127.485 215.38 154.85 198.865 176.846C182.35 198.843 158.225 213.889 131.206 219.043L110.5 110.5L110.5 1.04287e-05Z"/>
    </mask>
    <path d="M110.5 1.04287e-05C138.006 9.22635e-06 164.523 10.2588 184.868 28.7708C205.212 47.2828 217.921 72.717 220.51 100.101C223.098 127.485 215.38 154.85 198.865 176.846C182.35 198.843 158.225 213.889 131.206 219.043L110.5 110.5L110.5 1.04287e-05Z" fill="#EFFBF2" stroke="#274430" stroke-width="4" mask="url(#path-3-inside-1_295_1898)"/>
    <path d="M126.632 117.648V110.352L139.976 92.4H149.288V110.352H152.36V117.648H149.288V126H141.176V117.648H126.632ZM134.744 110.352H141.176V101.856L134.744 110.352ZM164.844 126H155.484L171.66 99.696H155.484V92.4H180.3V99.696L164.844 126Z" fill="#304436"/>
    <path d="M188.464 102.896C191.728 102.896 193.968 105.168 193.968 108.24C193.968 111.312 191.728 113.584 188.464 113.584C185.168 113.584 182.928 111.312 182.928 108.24C182.928 105.168 185.168 102.896 188.464 102.896ZM184.496 125.968L200.944 103.568H206.064L189.616 125.968H184.496ZM188.464 110.288C189.52 110.288 190.32 109.52 190.32 108.24C190.32 106.928 189.52 106.224 188.464 106.224C187.408 106.224 186.608 106.928 186.608 108.24C186.608 109.552 187.408 110.288 188.464 110.288ZM202.224 115.92C205.488 115.92 207.728 118.192 207.728 121.264C207.728 124.336 205.488 126.608 202.224 126.608C198.928 126.608 196.688 124.336 196.688 121.264C196.688 118.192 198.928 115.92 202.224 115.92ZM202.224 123.312C203.28 123.312 204.08 122.544 204.08 121.264C204.08 119.952 203.28 119.248 202.224 119.248C201.168 119.248 200.368 119.952 200.368 121.264C200.368 122.576 201.168 123.312 202.224 123.312Z" fill="#304436"/>
</svg>
