 <svg xmlns="http://www.w3.org/2000/svg" width="97" height="114" fill="none" viewBox="0 0 97 114">
      <path fill="#00489A" d="M.333 113.584h96V.416h-96v113.168z"></path>
      <path fill="#fff" d="M2.468 111.449h91.73V2.549H2.468v108.9z"></path>
      <path
        fill="#8F9ACE"
        d="M29.48 64.006c4.07 6.149 11.055 10.209 18.984 10.209 12.566 0 22.75-10.19 22.75-22.753a22.94 22.94 0 00-.283-3.6c-1.059-6.661-5.008-12.36-10.523-15.768a22.643 22.643 0 00-11.944-3.384c-3.867 0-7.51.964-10.698 2.665a22.885 22.885 0 00-6.951 5.726 22.67 22.67 0 00-5.105 14.36c0 4.637 1.387 8.95 3.77 12.545z"
      ></path>
      <path
        fill="#00489A"
        d="M60.356 32.775l-3.563.76 2.457 1.413.83-.965 1.006-.644-.73-.564zm.052-.676c5.515 3.409 9.465 9.107 10.524 15.77l-.002-.005-1.778 1.521-1.135-.267-.532.466.038.316c.018.144.083.44.192.881.228.906.343 1.81.343 2.691 0 .82-.032 1.087-.215 1.88l-.969.006-2.724-2.209-2.076.469-1.338-.228-1.699.52.768.662 1.333-.377 1.152.922-.182.404-.475.766-1.023 1.464-1.577 1.272-2.915-3.025-.754.081 3.11 3.563 1.261-.253.314.644-1.27 2.076-2.469 2.358-1.11 2.815c-.026.071-.142.161-.32.247-.357.17-.775.478-1.24.913a74.87 74.87 0 01-1 .93c-.492.43-1.08.88-1.768 1.342-.682.46-1.364.865-2.04 1.21-1.195.607-2.537.945-3.752.945a7.436 7.436 0 01-2.39-.402c-.109-.036-.179-.09-.179-.138l.54-1.524c.022-.071.48-.588 1.34-1.527.388-.425.704-.999.924-1.686.327-1.012.557-1.634.693-1.853.493-.797.728-1.477.563-1.644l-3.225-3.243-1.353-2.516.143-.596c.101-.414.43-1.142 1.057-2.343.34-.65.62-.994.93-1.146l2.158-1.064 4.19.632 1.275.852.601-.074 2.558.666.641-1.667-3.253-.915-1.15-1.145-.16.044.538 1.36-.649.129-.07-.16.226-.041c.011.014-.194-.836-.7-1.075-.18-.082-.299-.163-.484-.163-.248 0-.655.152-.865.348-.71.655-1.267 1.103-1.319 1.064l-1.334-1.01.495-1.245.204.05c.121.028.25.043.38.043.42 0 .677-.244.73-.485.064-.3-.143-.446-.143-.446.008-.008-.127-.142-.127-.142 0 .016.192-.217.183-.217-.005 0 .508.13.8.147.341.02.675-.058.811-.208l.323-.512.545-.15.096-.721.333.023s.19.258.266.606l.94-.244.278-.965-.15-.17.412-.924-.357-.253-.605 1.706-.332.043-.147-.38-.848.064-.476-.762 1.032-1.063 1.004-1.347 1.418.445.346.702.432-.011-.157-1.023 1.16-1.089-.773-3.498.495-1.098.562.032.075-.863-3.699-4.053.118-1.094 3.063-.698.44.13 1.741-.168.404.181 2.81-.28v.004zm-30.93 31.907l1.572-1.303 1.292.325 3.454-2.6.167-1.387-2.272-3.31c-.036-.048-.183-2.117-.622-3.667-.232-.81-.76-3.163-.782-3.212l-.3-.599-2.158-3.242 1.401-3.504 1.118-.048.066-.515-.827-.693-.025-.148-.027-.657c0-.447.757-.895 1.261-.895.135 0 .276.02.424.06.353.098.687.388.986.607.056.04.996 2.234.996 2.234l-.798.64-.39.962.544.427.76-1.312 3.148 1.057 1.93 1.1.585-.64 1.62.134 1.184-1.613-1.07-.407 1.122-1.353-.133-.454-1.713-.332 1.313-1.376 1.245.813-.025.364.806.1.68-1.291-.476-.418 2.006-1.929 1.814-.847 1.412-.926.273-.215.057-.994-.24-.703-.625-.24.801-.628-.22-.119c-.536.357-1.804 1.227-4.018 1.385-1.575.111-4.762-.59-4.762-.59l-3.16-.474-1.104-.195a22.837 22.837 0 00-6.953 5.723l-.095 2.985-.477 1.364-1.13 3.95.364 1.115-1.796.255-1.812 2.016c-.1.877-.153 1.77-.153 2.675 0 4.636 1.386 8.95 3.766 12.545h-.005zm3.546-14.644l.1.43.411-.136-.136-.434-.375.14zm16.99 2.978l-.285-.036-.02.539.287.052.171-.691-.09-.036-.063.172zm7.625 17.136c0 .007-.245-.271-.245-.271.001.009-.38.231-.38.231s.288.287.28.287l.345-.247zm.53-2.765l-.718.416-.917.194-2.013 1.98.124.439.292-.04 1.15-.495c.298-.127 1.24-.655 1.73-1.182.461-.5.601-.695.868-1.202l-.516-.11zM47.49 48.813l.496.138.15-.461-.354-.084-.293.407zm1.336-.981s-.578 1.413-.578 1.42c0 0 .912.087.912.094l.215-1.163-.158-.118.108-.397-.458-.25-.149.299.108.115zm-15.114 1.324c.007 0 .318-.122.318-.122l-.122-.268s-.18.155-.176.172l-.02.218zm-.226-.858l.126.301.37-.165s-.1-.276-.114-.276l-.382.14zm-.249-.994l.071.465.44-.002-.059-.499-.452.036zm-.415-.861l.226.355.434.065.194-.872-.708-.172-.146.624zm-.377-1.11l.715.086.22-1.687.006-.508-.126-.513-.368-.029-.447 2.65zm15.835-9.145l-2.059 1.638.732.527 1.643-1.674-.316-.491zm-1.813 2.822l-.29-.013-.563 1.021-.873.068-.998 1.437.544.343 1.343-.854 1.027-1.096-.19-.906zm-.499 2.395l-1.016.895v.608l1.615.399 3.22-2.186-.087-.891-1.276-.441-2.456 1.616zm-4.878 2.657l1.211.194-.417.797-1.04-.575.246-.416z"
      ></path>
      <path
        fill="#E42313"
        d="M20.377 13.74l-1.143 3.395h2.214l-1.07-3.395zm2.481 7.896l-.588-1.894h-3.909l-.627 1.894h-3.267l4.624-12.718h2.411l4.623 12.718h-3.267zM35.684 12.419c-.286-.43-.714-.715-1.5-.715h-1.375v7.145h1.375c.786 0 1.214-.285 1.5-.714.249-.357.339-.696.339-2.858 0-2.144-.09-2.501-.34-2.858zm2.142 7.965c-.876.876-2.106 1.251-3.43 1.251h-4.712V8.918h4.713c1.323 0 2.553.375 3.429 1.25 1.482 1.483 1.32 3.108 1.32 5.109 0 2 .162 3.626-1.32 5.107zM43.39 21.635V8.917h8.64v2.786h-5.516v2.126h4.715v2.787h-4.715v2.233h5.517v2.786h-8.64zM65.092 21.635v-6.09l-1.803 3.143h-2l-1.804-3.144v6.091h-3.124V8.917h3.072l2.856 5.61 2.856-5.61h3.07v12.718h-3.123zM72.85 21.635V8.917h8.642v2.786h-5.517v2.126h4.715v2.787h-4.715v2.233h5.517v2.786H72.85zM16.925 85.051l.608-1.803.569 1.803h-1.177zM17 81.37l-2.024 5.565h1.32l.28-.849h1.85l.264.849h1.323l-2.026-5.565H17zM23.62 86.982c.707 0 1.188-.184 1.61-.619.405-.413.558-.916.558-1.851v-.725h-2.101v1.035h.84v.147c0 .271-.083.505-.235.655-.151.162-.377.242-.671.242-.255 0-.476-.095-.605-.265-.135-.176-.223-.371-.223-1.448 0-1.069.088-1.265.223-1.442.13-.173.357-.273.605-.273.475 0 .737.192.868.639h1.279c-.104-.584-.515-1.755-2.147-1.755-.634 0-1.107.192-1.538.621-.558.558-.558 1.315-.556 2.115v.19c-.002.8-.002 1.556.556 2.114.423.423.91.62 1.538.62zM29.196 84.686h2.114V83.57h-2.114v-1.086h2.473V81.37h-3.74v5.566h3.74V85.82h-2.473v-1.134zM38.151 86.934v-5.565h-1.267v3.029l-1.928-3.029h-1.122v5.565h1.267v-3.026l1.928 3.026h1.122zM43.175 85.26c-.085.274-.26.608-.78.608-.254 0-.474-.097-.604-.267-.134-.176-.23-.383-.23-1.448 0-1.066.096-1.274.23-1.45.13-.169.35-.265.605-.265.519 0 .694.331.779.608h1.295c-.212-1.096-.965-1.724-2.081-1.724-.626 0-1.116.197-1.538.622-.558.556-.558 1.313-.556 2.112v.192c-.002.8-.002 1.555.556 2.113.422.424.912.621 1.538.621 1.116 0 1.869-.626 2.08-1.722h-1.294zM47.66 84.686h2.114V83.57H47.66v-1.086h2.472V81.37h-3.738v5.566h3.738V85.82H47.66v-1.134zM58.62 85.473c-.16.237-.39.348-.729.348h-.68v-3.333h.68c.34 0 .57.111.73.348.124.181.162.377.162 1.319 0 .995-.04 1.144-.163 1.318zm1.431-1.078v-.24-.243c.006-.791.011-1.415-.574-1.998-.353-.356-.868-.542-1.489-.542h-2.045v5.565h2.045c.621 0 1.136-.188 1.49-.542.584-.583.58-1.209.573-2zM63.46 84.688h2.114v-1.116H63.46v-1.086h2.472v-1.114h-3.738v5.566h3.738v-1.116H63.46v-1.134zM73.014 81.37h-1.267v5.565h3.66v-1.116h-2.393V81.37zM78.582 85.051l.608-1.803.57 1.803h-1.178zm1.766 1.884h1.322l-2.026-5.565h-.987l-2.023 5.565h1.32l.28-.849h1.85l.264.849zM16.59 96.005h1.268v-4.449h1.404V90.44h-4.075v1.116h1.403v4.449zM24.697 92.849h-.859v-1.284h.86c.44 0 .676.33.676.642 0 .31-.237.642-.677.642zm1.053.786c.208-.104.892-.517.892-1.428 0-.877-.646-1.767-1.88-1.767H22.57v5.565h1.27v-2.121h.58l1.01 2.121h1.475l-1.215-2.339.061-.031zM31.554 94.122l.608-1.803.57 1.803h-1.178zm.075-3.682l-2.027 5.566h1.324l.28-.849h1.85l.267.849h1.322l-2.027-5.566h-.99zM37.74 90.44v5.566h1.269v-3.029l1.93 3.029h1.124V90.44h-1.27v3.027l-1.93-3.027h-1.122zM47.914 92.673l-.689-.096a.73.73 0 01-.43-.186.457.457 0 01-.134-.312c0-.287.237-.596.757-.596h.043c.252 0 .686-.002 1.037.31l.79-.785c-.452-.426-1.019-.616-1.83-.616-1.206 0-2.017.696-2.017 1.735 0 .472.126.842.373 1.098.246.251.618.415 1.11.485l.688.095c.185.025.325.082.415.17a.546.546 0 01.131.384c0 .264-.153.579-.885.579-.258 0-.886-.037-1.272-.374l-.804.803c.492.479 1.116.686 2.07.686 1.063 0 2.136-.533 2.136-1.726 0-.542-.13-.935-.404-1.201-.233-.233-.599-.385-1.085-.453zM54.085 90.44h-1.268v5.565h1.268V90.44zM58.795 96.005h1.27v-4.449h1.4V90.44h-4.073v1.116h1.403v4.449zM64.773 96.005h1.268V90.44h-1.268v5.565zM72.222 94.656a.778.778 0 01-.614.282.782.782 0 01-.615-.282c-.138-.181-.224-.368-.224-1.433 0-1.07.088-1.265.224-1.441a.772.772 0 01.615-.275c.25 0 .48.103.614.275.134.176.222.371.222 1.441 0 1.065-.085 1.252-.222 1.433zm1.49-1.529c.002-.8.002-1.555-.558-2.115-.43-.429-.905-.621-1.546-.621-.64 0-1.118.192-1.549.623-.558.558-.558 1.313-.558 2.113v.191c0 .8 0 1.555.558 2.115.431.429.909.621 1.549.621.64 0 1.115-.192 1.546-.621.56-.56.56-1.315.559-2.115v-.191zM81.494 96.005V90.44h-1.269v3.028l-1.93-3.028h-1.123v5.565h1.268v-3.027l1.931 3.027h1.123zM16.464 102.832h2.12v-1.119h-2.12v-1.089h2.483v-1.12h-3.755v5.585h3.755v-1.119h-2.483v-1.138zM17 97.497l-.357 1.311h.67l.862-1.311H17zM24.99 101.185h1.3c-.212-1.099-.969-1.729-2.09-1.729-.629 0-1.118.2-1.542.622-.56.562-.56 1.319-.559 2.123v.192c-.002.802-.002 1.561.56 2.12.423.426.912.625 1.54.625 1.122 0 1.88-.63 2.091-1.732h-1.3c-.085.277-.263.61-.782.61-.256 0-.477-.096-.606-.265-.136-.178-.23-.386-.23-1.455 0-1.068.094-1.276.23-1.453.13-.171.35-.268.606-.268.52 0 .697.334.781.61zM31.924 103.735a.77.77 0 01-.616.282.769.769 0 01-.615-.282c-.138-.181-.223-.369-.223-1.439 0-1.076.085-1.265.223-1.446.133-.172.362-.274.615-.274s.483.102.616.274c.138.181.222.37.222 1.446 0 1.07-.084 1.258-.222 1.439zm-.616-4.279c-.642 0-1.12.192-1.552.623-.559.561-.559 1.318-.558 2.122v.19c0 .804 0 1.563.558 2.123.431.43.91.624 1.552.624.643 0 1.12-.194 1.552-.624.558-.56.558-1.319.558-2.121v-.194c0-.802 0-1.561-.558-2.12-.43-.43-.909-.623-1.552-.623zM38.004 99.504h-1.272v5.585h3.672v-1.119h-2.4v-4.466zM45.898 103.735a.77.77 0 01-.616.282.78.78 0 01-.615-.282c-.138-.181-.222-.369-.222-1.439 0-1.073.088-1.268.222-1.446.133-.172.362-.274.615-.274s.483.102.616.274c.138.181.222.37.222 1.446 0 1.07-.084 1.258-.222 1.439zm-.616-4.279c-.642 0-1.12.192-1.55.623-.56.561-.559 1.318-.559 2.122v.19c0 .804-.002 1.563.56 2.123.428.43.907.624 1.55.624.642 0 1.12-.194 1.551-.624.56-.56.558-1.319.558-2.123v-.19c0-.804.002-1.561-.558-2.122-.43-.43-.909-.623-1.552-.623zM53.495 101.219h1.284c-.104-.587-.514-1.762-2.154-1.762-.637 0-1.113.192-1.543.622-.56.56-.56 1.319-.558 2.123v.19c-.002.804-.002 1.561.558 2.122.425.426.915.623 1.543.623.708 0 1.193-.187 1.614-.623.408-.414.56-.918.56-1.857v-.728h-2.106v1.039h.84v.147c0 .273-.081.506-.234.658-.152.162-.38.244-.674.244-.255 0-.478-.097-.607-.267-.134-.176-.222-.371-.222-1.453 0-1.073.088-1.27.222-1.446a.75.75 0 01.607-.275c.477 0 .739.192.87.643zM58.111 105.089h1.272v-5.585h-1.272v5.585zM65.613 103.146l-.013.143-.326-.328-.62.621.401.403-.122.024c-.047.008-.085.008-.126.008a.774.774 0 01-.615-.283c-.138-.181-.223-.37-.223-1.439 0-1.071.088-1.268.223-1.444a.772.772 0 01.615-.275c.253 0 .483.103.616.275.134.176.222.373.222 1.444 0 .415-.02.684-.032.851zm.985 1.067c.321-.513.32-1.15.32-1.825v-.186c0-.804.001-1.563-.56-2.124-.429-.429-.908-.621-1.55-.621-.643 0-1.12.192-1.55.622-.562.56-.56 1.319-.56 2.123v.19c0 .804-.002 1.561.56 2.122.43.431.907.623 1.55.623.424 0 .776-.084 1.074-.257l.045-.025.43.431.621-.621-.407-.407.027-.045zM71.406 103.116v-3.611h-1.272v3.643c0 1.152.881 1.99 2.094 1.99 1.224 0 2.11-.838 2.11-1.99v-3.643h-1.272v3.611c0 .556-.32.901-.838.901-.508 0-.822-.345-.822-.901zM79.013 102.832h2.12v-1.119h-2.12v-1.089h2.482v-1.12H77.74v5.585h3.754v-1.119h-2.482v-1.138z"
      ></path>
    </svg>
