<svg width="168" height="58" fill="none" xmlns="http://www.w3.org/2000/svg">
    <path d="M7.32 36.2V18.716h3.34v5.58c.653-.608 1.31-1.041 1.97-1.3.658-.257 1.442-.387 2.35-.387 1.326 0 2.525.301 3.596.902a6.5 6.5 0 0 1 2.517 2.49c.606 1.059.91 2.243.91 3.552 0 1.78-.545 3.332-1.634 4.657-1.277 1.534-2.995 2.3-5.156 2.3-1.031 0-1.915-.15-2.651-.45-.737-.3-1.465-.814-2.185-1.538V36.2H7.32Zm7.132-10.701c-1.162 0-2.117.386-2.867 1.155-.748.771-1.123 1.753-1.123 2.947 0 1.179.385 2.143 1.155 2.895.77.75 1.755 1.127 2.958 1.127 1.194 0 2.169-.372 2.921-1.116.754-.742 1.13-1.711 1.13-2.906 0-1.21-.387-2.196-1.16-2.958-.774-.762-1.778-1.144-3.014-1.144Zm24.605 5.546h-10.79a3.152 3.152 0 0 0 1.338 1.884c.688.461 1.526.694 2.516.694.688 0 1.261-.099 1.719-.295.458-.197.904-.533 1.338-1.012h3.646c-.196.594-.564 1.203-1.106 1.827-1.439 1.579-3.28 2.368-5.523 2.368a8.322 8.322 0 0 1-2.971-.531 7.488 7.488 0 0 1-2.4-1.44 6.712 6.712 0 0 1-1.589-2.171 6.255 6.255 0 0 1-.59-2.675c0-1.264.325-2.425.977-3.484a6.994 6.994 0 0 1 2.663-2.508 7.633 7.633 0 0 1 3.702-.918c1.367 0 2.598.302 3.695.906a6.574 6.574 0 0 1 2.57 2.52c.62 1.074.928 2.281.928 3.622 0 .432-.04.837-.123 1.213Zm-10.888-2.773h7.721c-.212-.84-.651-1.482-1.314-1.93-.662-.446-1.509-.67-2.54-.67-1 0-1.827.221-2.486.665-.66.443-1.12 1.088-1.38 1.935Zm14.71 7.927V25.951h-1.632v-2.866h1.633v-4.368h3.338v4.368h2.014v2.866h-2.014v10.248H42.88Zm22.236-13.114v13.114H62.06v-1.698c-.671.716-1.365 1.23-2.08 1.541-.717.312-1.565.47-2.549.47-1.34 0-2.546-.291-3.613-.873a6.338 6.338 0 0 1-2.505-2.432c-.602-1.04-.902-2.212-.902-3.513 0-1.318.303-2.502.907-3.554a6.44 6.44 0 0 1 2.53-2.467c1.08-.592 2.3-.889 3.657-.889 1.008 0 1.874.164 2.603.49.73.328 1.379.85 1.952 1.566v-1.755h3.056ZM57.8 25.673c-1.163 0-2.122.384-2.879 1.155-.757.77-1.136 1.749-1.136 2.934 0 1.149.382 2.08 1.147 2.792.766.712 1.759 1.069 2.977 1.069 1.212 0 2.188-.362 2.929-1.088.74-.723 1.111-1.671 1.111-2.841 0-1.187-.387-2.153-1.161-2.9-.773-.748-1.769-1.121-2.988-1.121Zm13.078 8.16a1.364 1.364 0 0 0-1.383 1.349c0 .685.628 1.278 1.358 1.278.779 0 1.433-.569 1.433-1.278 0-.734-.654-1.35-1.408-1.35Zm16.514-10.748h3.193v10.63c0 1.301-.122 2.381-.362 3.24a5.497 5.497 0 0 1-1.173 2.202c-1.325 1.518-3.22 2.276-5.683 2.276-1.703 0-3.18-.366-4.432-1.097a6.4 6.4 0 0 1-2.725-3.074h3.794c.49.509 1.002.868 1.533 1.08.533.213 1.187.318 1.965.318 1.244 0 2.189-.346 2.836-1.04.646-.693.998-1.744 1.055-3.154-.655.724-1.336 1.246-2.044 1.565-.708.32-1.553.48-2.535.48-1.31 0-2.485-.296-3.528-.89a6.242 6.242 0 0 1-2.437-2.479c-.582-1.058-.872-2.254-.872-3.588 0-1.94.651-3.554 1.952-4.84 1.301-1.287 2.937-1.93 4.91-1.93 1.997 0 3.515.654 4.553 1.964v-1.663Zm-4.222 2.588c-1.145 0-2.067.367-2.767 1.103-.7.736-1.05 1.708-1.05 2.918 0 1.194.353 2.147 1.061 2.86.709.712 1.66 1.069 2.855 1.069 1.21 0 2.177-.36 2.897-1.082.72-.72 1.08-1.684 1.08-2.894 0-1.186-.375-2.145-1.123-2.877-.75-.731-1.733-1.097-2.953-1.097Zm18.197-2.889c1.326 0 2.554.308 3.683.925a7.043 7.043 0 0 1 2.676 2.512 6.436 6.436 0 0 1 .982 3.45c0 1.231-.33 2.374-.988 3.426a7.058 7.058 0 0 1-2.695 2.495 7.688 7.688 0 0 1-3.706.92 7.757 7.757 0 0 1-3.726-.92 7.098 7.098 0 0 1-2.706-2.495 6.296 6.296 0 0 1-.995-3.426c0-.94.194-1.835.583-2.687a6.749 6.749 0 0 1 1.583-2.195 7.559 7.559 0 0 1 2.388-1.462 7.94 7.94 0 0 1 2.921-.543Zm-.135 2.889c-1.08 0-2.01.39-2.791 1.172-.783.783-1.173 1.716-1.173 2.802 0 1.094.392 2.03 1.178 2.809a3.882 3.882 0 0 0 2.836 1.167c1.113 0 2.066-.388 2.86-1.162.794-.775 1.19-1.704 1.19-2.79 0-1.126-.396-2.073-1.19-2.843-.794-.77-1.764-1.155-2.91-1.155Zm23.121-2.588v13.114h-3.094v-1.26c-.638.578-1.254.985-1.848 1.219-.593.235-1.307.353-2.142.353-.94 0-1.784-.18-2.528-.537a4.558 4.558 0 0 1-1.805-1.532 5.16 5.16 0 0 1-.761-1.755c-.147-.64-.221-1.495-.221-2.565v-7.037h3.351v6.412c0 .91.053 1.62.16 2.132.105.512.286.915.54 1.207.483.525 1.129.787 1.939.787.582 0 1.099-.11 1.554-.33.453-.22.799-.53 1.037-.93.18-.294.304-.673.373-1.139.07-.466.105-1.118.105-1.957v-6.182h3.34Zm8.29 13.114-5.61-13.114h3.719l3.217 8.688 3.167-8.688h3.781l-5.61 13.114h-2.664Zm10.035-2.365c-.709 0-1.301.591-1.301 1.348 0 .685.592 1.276 1.277 1.276.734 0 1.348-.567 1.348-1.276 0-.734-.614-1.348-1.324-1.348Z" fill="#1E1E1E"/>
    <path d="M147.115 24.065h2.748l-2.778 12.858c-.723 3.32-1.719 4.98-3.018 4.98-.362 0-.604-.21-.604-.513 0-.09.031-.15.121-.302a.892.892 0 0 0 .151-.513 1.191 1.191 0 0 0-.358-.84 1.187 1.187 0 0 0-.849-.337c-.634 0-1.117.574-1.117 1.298 0 1.026 1.056 1.842 2.384 1.842 2.748 0 4.891-3.019 6.219-8.663l2.263-9.81h3.351l.181-.966h-3.29c.905-4.83 2.082-6.973 3.773-6.973.422 0 .664.152.664.392 0 .062-.031.151-.121.302a1.03 1.03 0 0 0-.181.635c0 .724.454 1.207 1.118 1.207.694 0 1.296-.573 1.296-1.237 0-1.117-1.115-1.963-2.625-1.963-1.479 0-2.687.665-3.803 2.084-.906 1.207-1.54 2.595-2.475 5.553h-2.837l-.213.966ZM157.772 36.2c1.66-5.282 2.173-6.52 3.561-8.843 1.056-1.722 1.901-2.657 2.414-2.657.212 0 .363.12.514.422.241.513.482.664 1.086.664.906 0 1.419-.543 1.419-1.509 0-.966-.574-1.569-1.419-1.569-.694 0-1.539.452-2.324 1.297-1.269 1.268-2.535 3.11-3.018 4.286l-.454 1.117 1.69-6.64-.089-.06c-2.203.392-2.535.452-4.74.815v.513c.664-.12.785-.15 1.028-.15.664 0 1.055.301 1.055.844 0 .392-.242 1.63-.483 2.535l-2.565 8.935h2.325Z" fill="#1E1E1E"/>
</svg>
