<svg width="1920" height="1080" viewBox="0 0 1920 1080" fill="none" xmlns="http://www.w3.org/2000/svg">
<g clip-path="url(#clip0_59_492)">
<path opacity="0.24" fill-rule="evenodd" clip-rule="evenodd" d="M1988.08 1182.82C1968.72 1594.97 1526.76 1785.16 1131 1907.82C756.19 2023.99 312.414 2086.51 74.0452 1776.05C-177.316 1448.67 -67.9866 996.185 174.826 662.473C418.978 326.919 810.618 99.2933 1210.56 214.065C1651.66 340.647 2009.53 726.369 1988.08 1182.82Z" fill="#B2D4D0"/>
<path d="M449.486 330.408C449.486 308.903 466.934 291.47 488.457 291.47H1493.54C1515.07 291.47 1532.51 308.903 1532.51 330.408V1092H449.486V330.408Z" fill="white"/>
<path d="M430 330.408C430 298.15 456.172 272 488.457 272H1493.54C1525.83 272 1552 298.15 1552 330.408V1092L1532.51 1092V330.408C1532.51 308.903 1515.07 291.47 1493.54 291.47L1136.57 291.469V307.333C1136.57 312.709 1132.21 317.067 1126.83 317.067H841.2C835.819 317.067 831.457 312.709 831.457 307.333V291.469L488.457 291.47C466.934 291.47 449.486 308.903 449.486 330.408V1092L430 1092V330.408Z" fill="#353F5F"/>
<path d="M831.457 291.469L488.457 291.47C466.934 291.47 449.486 308.903 449.486 330.408V421.788H1532.51V330.408C1532.51 308.903 1515.07 291.47 1493.54 291.47L1136.57 291.469V307.333C1136.57 312.709 1132.21 317.067 1126.83 317.067H841.2C835.819 317.067 831.457 312.709 831.457 307.333V291.469Z" fill="#9BD0C9"/>
<path d="M801.179 999.341C801.179 993.964 805.541 989.606 810.922 989.606H996.396C1001.78 989.606 1006.14 993.964 1006.14 999.341V1035.72C1006.14 1041.1 1001.78 1045.46 996.396 1045.46H810.922C805.541 1045.46 801.179 1041.1 801.179 1035.72V999.341Z" fill="#156DCB"/>
<path d="M801.179 490.322C801.179 483.318 806.862 477.64 813.872 477.64H1093.13C1100.14 477.64 1105.82 483.318 1105.82 490.322C1105.82 497.327 1100.14 503.005 1093.13 503.005H813.872C806.862 503.005 801.179 497.327 801.179 490.322Z" fill="#9CAAD2"/>
<path fill-rule="evenodd" clip-rule="evenodd" d="M837.691 572.349H810.922C808.231 572.349 806.05 574.528 806.05 577.216V603.962C806.05 606.65 808.231 608.83 810.922 608.83H837.691C840.381 608.83 842.562 606.65 842.562 603.962V577.216C842.562 574.528 840.381 572.349 837.691 572.349ZM810.922 567.481C805.541 567.481 801.179 571.84 801.179 577.216V603.962C801.179 609.339 805.541 613.697 810.922 613.697H837.691C843.072 613.697 847.434 609.339 847.434 603.962V577.216C847.434 571.84 843.072 567.481 837.691 567.481H810.922Z" fill="#CFD9F4"/>
<path fill-rule="evenodd" clip-rule="evenodd" d="M837.691 709.07H810.922C808.231 709.07 806.05 711.249 806.05 713.937V740.683C806.05 743.372 808.231 745.551 810.922 745.551H837.691C840.381 745.551 842.562 743.372 842.562 740.683V713.937C842.562 711.249 840.381 709.07 837.691 709.07ZM810.922 704.203C805.541 704.203 801.179 708.561 801.179 713.937V740.683C801.179 746.06 805.541 750.418 810.922 750.418H837.691C843.072 750.418 847.434 746.06 847.434 740.683V713.937C847.434 708.561 843.072 704.203 837.691 704.203H810.922Z" fill="#CFD9F4"/>
<path fill-rule="evenodd" clip-rule="evenodd" d="M837.691 799.575H810.922C808.231 799.575 806.05 801.754 806.05 804.442V831.188C806.05 833.877 808.231 836.056 810.922 836.056H837.691C840.381 836.056 842.562 833.877 842.562 831.188V804.442C842.562 801.754 840.381 799.575 837.691 799.575ZM810.922 794.708C805.541 794.708 801.179 799.066 801.179 804.442V831.188C801.179 836.565 805.541 840.923 810.922 840.923H837.691C843.072 840.923 847.434 836.565 847.434 831.188V804.442C847.434 799.066 843.072 794.708 837.691 794.708H810.922Z" fill="#CFD9F4"/>
<path fill-rule="evenodd" clip-rule="evenodd" d="M837.691 890.081H810.922C808.231 890.081 806.05 892.26 806.05 894.948V921.695C806.05 924.383 808.231 926.562 810.922 926.562H837.691C840.381 926.562 842.562 924.383 842.562 921.695V894.948C842.562 892.26 840.381 890.081 837.691 890.081ZM810.922 885.214C805.541 885.214 801.179 889.572 801.179 894.948V921.695C801.179 927.071 805.541 931.429 810.922 931.429H837.691C843.072 931.429 847.434 927.071 847.434 921.695V894.948C847.434 889.572 843.072 885.214 837.691 885.214H810.922Z" fill="#CFD9F4"/>
<path d="M880.197 589.792C880.197 582.788 885.88 577.11 892.891 577.11H1172.15C1179.16 577.11 1184.84 582.788 1184.84 589.792C1184.84 596.797 1179.16 602.475 1172.15 602.475H892.891C885.88 602.475 880.197 596.797 880.197 589.792Z" fill="#CFD9F4"/>
<path d="M880.197 726.514C880.197 719.509 885.88 713.831 892.891 713.831H1172.15C1179.16 713.831 1184.84 719.509 1184.84 726.514C1184.84 733.518 1179.16 739.196 1172.15 739.196H892.891C885.88 739.196 880.197 733.518 880.197 726.514Z" fill="#CFD9F4"/>
<path d="M880.197 817.019C880.197 810.014 885.88 804.336 892.891 804.336H1172.15C1179.16 804.336 1184.84 810.014 1184.84 817.019C1184.84 824.023 1179.16 829.701 1172.15 829.701H892.891C885.88 829.701 880.197 824.023 880.197 817.019Z" fill="#CFD9F4"/>
<path d="M880.197 907.525C880.197 900.52 885.88 894.842 892.891 894.842H1172.15C1179.16 894.842 1184.84 900.52 1184.84 907.525C1184.84 914.529 1179.16 920.207 1172.15 920.207H892.891C885.88 920.207 880.197 914.529 880.197 907.525Z" fill="#CFD9F4"/>
<path d="M880.197 637.934C880.197 630.929 885.88 625.251 892.891 625.251H1070.6C1077.61 625.251 1083.29 630.929 1083.29 637.934C1083.29 644.938 1077.61 650.616 1070.6 650.616H892.891C885.88 650.616 880.197 644.938 880.197 637.934Z" fill="#CFD9F4"/>
<path d="M1655.57 256.92C1659.08 255.551 1660.8 251.609 1659.41 248.117C1658.02 244.625 1654.04 242.904 1650.53 244.274L1599.68 264.114C1596.17 265.484 1594.45 269.425 1595.85 272.918C1597.24 276.41 1601.21 278.131 1604.72 276.761L1655.57 256.92Z" fill="#156DCB"/>
<path d="M1540.83 165.841C1541.12 162.102 1538.3 158.827 1534.53 158.527C1530.77 158.228 1527.48 161.016 1527.19 164.755L1523.03 218.92C1522.74 222.659 1525.56 225.934 1529.32 226.234C1533.09 226.534 1536.37 223.745 1536.66 220.006L1540.83 165.841Z" fill="#156DCB"/>
<path d="M1611.91 195.285C1614.15 192.273 1613.5 188.019 1610.46 185.783C1607.42 183.547 1603.14 184.176 1600.9 187.189L1568.46 230.821C1566.22 233.834 1566.87 238.088 1569.91 240.324C1572.95 242.56 1577.23 241.93 1579.47 238.918L1611.91 195.285Z" fill="#156DCB"/>
</g>
<defs>
<clipPath id="clip0_59_492">
<rect width="1920" height="1080" fill="white"/>
</clipPath>
</defs>
</svg>
