<svg width="1920" height="1080" viewBox="0 0 1920 1080" fill="none" xmlns="http://www.w3.org/2000/svg">
<path opacity="0.24" fill-rule="evenodd" clip-rule="evenodd" d="M504.845 582.917C514.097 780.946 725.277 872.332 914.382 931.269C1093.47 987.085 1305.52 1017.13 1419.42 867.956C1539.52 710.655 1487.28 493.242 1371.26 332.898C1254.6 171.67 1067.47 62.2998 876.363 117.446C665.595 178.266 494.6 363.6 504.845 582.917Z" fill="#9BD0C9"/>
<g clip-path="url(#clip0_59_438)">
<rect width="438.163" height="262.517" rx="24" transform="matrix(0.977964 0.208773 -0.207054 0.97833 1203.49 492.986)" fill="url(#paint0_linear_59_438)"/>
<rect width="438.163" height="262.517" rx="24" transform="matrix(0.977964 0.208773 -0.207054 0.97833 1203.49 492.986)" fill="url(#paint1_linear_59_438)"/>
<path fill-rule="evenodd" clip-rule="evenodd" d="M1119.38 818.259C1133.43 748.281 1203.22 710.781 1273.81 702.132C1349.17 692.898 1431.79 707.879 1466.35 775.746C1506.52 854.63 1500.82 957.675 1432.47 1013.7C1370.53 1064.47 1286.11 1021.56 1218.18 979.163C1159.26 942.379 1105.67 886.533 1119.38 818.259Z" fill="#119787" fill-opacity="0.16"/>
<g style="mix-blend-mode:multiply">
<path fill-rule="evenodd" clip-rule="evenodd" d="M1372.16 767.596C1383.73 709.966 1441.2 679.082 1499.34 671.959C1561.4 664.354 1629.45 676.692 1657.91 732.584C1690.99 797.549 1686.29 882.412 1630 928.549C1578.99 970.362 1509.47 935.027 1453.53 900.109C1405 869.815 1360.87 823.823 1372.16 767.596Z" fill="#0B6B5F" fill-opacity="0.2"/>
</g>
<path fill-rule="evenodd" clip-rule="evenodd" d="M1583.05 604.173C1583.99 603.882 1584.99 604.41 1585.28 605.352C1587.05 611.016 1587.32 617.068 1586.09 622.901C1584.85 628.735 1582.15 634.151 1578.25 638.604C1577.6 639.345 1576.47 639.419 1575.72 638.767C1574.98 638.116 1574.91 636.987 1575.56 636.246C1579.05 632.255 1581.48 627.396 1582.59 622.154C1583.7 616.913 1583.45 611.482 1581.87 606.407C1581.58 605.464 1582.1 604.464 1583.05 604.173ZM1575.58 606.205C1576.52 605.914 1577.52 606.442 1577.82 607.385C1579.21 611.867 1579.43 616.656 1578.45 621.271C1577.48 625.887 1575.34 630.172 1572.25 633.697C1571.6 634.438 1570.47 634.511 1569.73 633.86C1568.98 633.209 1568.91 632.08 1569.56 631.339C1572.24 628.277 1574.1 624.547 1574.96 620.524C1575.81 616.502 1575.61 612.333 1574.4 608.44C1574.11 607.497 1574.64 606.497 1575.58 606.205ZM1568.48 608.017C1569.43 607.73 1570.43 608.263 1570.72 609.207C1571.74 612.556 1571.9 616.135 1571.17 619.584C1570.44 623.033 1568.85 626.239 1566.55 628.88C1565.91 629.624 1564.78 629.702 1564.03 629.055C1563.29 628.407 1563.2 627.278 1563.85 626.534C1565.74 624.355 1567.06 621.7 1567.67 618.837C1568.27 615.974 1568.15 613.01 1567.3 610.246C1567.01 609.302 1567.54 608.304 1568.48 608.017ZM1561.22 610.12C1562.14 609.773 1563.18 610.241 1563.52 611.165C1564.38 613.418 1564.57 615.857 1564.07 618.201C1563.57 620.545 1562.41 622.695 1560.72 624.406C1560.03 625.107 1558.9 625.113 1558.19 624.419C1557.49 623.725 1557.48 622.594 1558.18 621.892C1559.39 620.663 1560.22 619.125 1560.57 617.454C1560.93 615.783 1560.79 614.039 1560.18 612.42C1559.83 611.497 1560.3 610.467 1561.22 610.12Z" fill="white"/>
<g filter="url(#filter0_ii_59_438)">
<path d="M1214.25 583.218C1214.89 580.216 1217.84 578.302 1220.85 578.944L1267.1 588.817C1270.1 589.459 1272.02 592.413 1271.39 595.415L1265.02 625.487C1264.39 628.489 1261.44 630.403 1258.43 629.761L1212.18 619.887C1209.17 619.246 1207.25 616.292 1207.89 613.29L1214.25 583.218Z" fill="#CDC9C1"/>
<path d="M1214.25 583.218C1214.89 580.216 1217.84 578.302 1220.85 578.944L1267.1 588.817C1270.1 589.459 1272.02 592.413 1271.39 595.415L1265.02 625.487C1264.39 628.489 1261.44 630.403 1258.43 629.761L1212.18 619.887C1209.17 619.246 1207.25 616.292 1207.89 613.29L1214.25 583.218Z" fill="url(#paint2_radial_59_438)" fill-opacity="0.1"/>
<path d="M1214.25 583.218C1214.89 580.216 1217.84 578.302 1220.85 578.944L1267.1 588.817C1270.1 589.459 1272.02 592.413 1271.39 595.415L1265.02 625.487C1264.39 628.489 1261.44 630.403 1258.43 629.761L1212.18 619.887C1209.17 619.246 1207.25 616.292 1207.89 613.29L1214.25 583.218Z" fill="url(#paint3_radial_59_438)" fill-opacity="0.1"/>
<path d="M1214.25 583.218C1214.89 580.216 1217.84 578.302 1220.85 578.944L1267.1 588.817C1270.1 589.459 1272.02 592.413 1271.39 595.415L1265.02 625.487C1264.39 628.489 1261.44 630.403 1258.43 629.761L1212.18 619.887C1209.17 619.246 1207.25 616.292 1207.89 613.29L1214.25 583.218Z" fill="url(#paint4_radial_59_438)" fill-opacity="0.1"/>
</g>
<mask id="mask0_59_438" style="mask-type:alpha" maskUnits="userSpaceOnUse" x="1207" y="578" width="65" height="52">
<path d="M1214.25 583.218C1214.89 580.216 1217.84 578.302 1220.85 578.944L1267.1 588.817C1270.1 589.459 1272.02 592.413 1271.39 595.415L1265.02 625.487C1264.39 628.489 1261.44 630.403 1258.43 629.761L1212.18 619.887C1209.17 619.246 1207.25 616.292 1207.89 613.29L1214.25 583.218Z" fill="#D9D9D9"/>
</mask>
<g mask="url(#mask0_59_438)">
<path fill-rule="evenodd" clip-rule="evenodd" d="M1213.99 582.79C1214.19 581.852 1215.11 581.254 1216.05 581.455L1229.47 584.321C1230.41 584.521 1231.01 585.444 1230.82 586.383L1229.03 594.831C1228.83 595.769 1227.91 596.367 1226.97 596.167L1213.54 593.301C1212.6 593.1 1212 592.177 1212.2 591.239L1213.99 582.79ZM1215.9 582.134C1215.34 582.014 1214.79 582.373 1214.67 582.936L1212.88 591.384C1212.76 591.947 1213.12 592.501 1213.69 592.621L1227.11 595.487C1227.67 595.608 1228.23 595.249 1228.35 594.686L1230.14 586.237C1230.25 585.674 1229.89 585.121 1229.33 585L1215.9 582.134Z" fill="#10141E"/>
<path fill-rule="evenodd" clip-rule="evenodd" d="M1211.63 593.956C1211.82 593.018 1212.75 592.42 1213.69 592.621L1227.11 595.487C1228.05 595.687 1228.65 596.61 1228.45 597.549L1226.66 605.997C1226.47 606.935 1225.54 607.533 1224.6 607.333L1211.18 604.467C1210.24 604.266 1209.64 603.343 1209.84 602.405L1211.63 593.956ZM1213.54 593.3C1212.98 593.18 1212.42 593.539 1212.31 594.102L1210.52 602.55C1210.4 603.113 1210.76 603.667 1211.32 603.787L1224.75 606.653C1225.31 606.774 1225.86 606.415 1225.98 605.852L1227.77 597.403C1227.89 596.84 1227.53 596.287 1226.97 596.166L1213.54 593.3Z" fill="#10141E"/>
<path fill-rule="evenodd" clip-rule="evenodd" d="M1231.76 596.959C1231.96 596.021 1232.88 595.423 1233.82 595.623L1252.21 599.55C1253.15 599.751 1253.75 600.674 1253.56 601.612L1253.47 601.996C1253.28 602.934 1252.35 603.532 1251.41 603.331L1250.41 603.117C1249.85 602.996 1249.29 603.355 1249.17 603.918L1247.25 612.987C1247.06 613.925 1246.13 614.523 1245.19 614.323L1226.8 610.396C1225.86 610.195 1225.26 609.272 1225.46 608.334L1225.67 607.33C1225.87 606.392 1226.79 605.794 1227.73 605.994L1228.74 606.209C1229.3 606.329 1229.85 605.97 1229.97 605.408L1231.76 596.959ZM1233.68 596.303C1233.11 596.182 1232.56 596.541 1232.44 597.104L1230.65 605.553C1230.45 606.491 1229.53 607.089 1228.59 606.888L1227.59 606.674C1227.02 606.553 1226.47 606.912 1226.35 607.475L1226.14 608.479C1226.02 609.042 1226.38 609.596 1226.94 609.716L1245.34 613.643C1245.9 613.763 1246.45 613.405 1246.57 612.842L1248.49 603.773C1248.69 602.835 1249.61 602.237 1250.55 602.437L1251.56 602.652C1252.12 602.772 1252.68 602.413 1252.79 601.85L1252.88 601.466C1252.99 600.904 1252.63 600.35 1252.07 600.229L1233.68 596.303Z" fill="#10141E"/>
<path fill-rule="evenodd" clip-rule="evenodd" d="M1209.26 605.123C1209.46 604.185 1210.38 603.587 1211.32 603.788L1224.75 606.654C1225.69 606.854 1226.29 607.777 1226.09 608.716L1224.3 617.164C1224.1 618.102 1223.18 618.7 1222.24 618.5L1208.81 615.634C1207.88 615.433 1207.28 614.51 1207.47 613.572L1209.26 605.123ZM1211.18 604.467C1210.61 604.347 1210.06 604.706 1209.94 605.269L1208.15 613.717C1208.04 614.28 1208.4 614.834 1208.96 614.954L1222.38 617.82C1222.95 617.941 1223.5 617.582 1223.62 617.019L1225.41 608.57C1225.53 608.007 1225.17 607.454 1224.6 607.333L1211.18 604.467Z" fill="#10141E"/>
<path fill-rule="evenodd" clip-rule="evenodd" d="M1254.98 591.54C1255.17 590.602 1256.1 590.004 1257.04 590.205L1270.46 593.071C1271.4 593.271 1272 594.194 1271.8 595.133L1270.01 603.581C1269.82 604.519 1268.89 605.117 1267.96 604.917L1254.53 602.051C1253.59 601.85 1252.99 600.927 1253.19 599.989L1254.98 591.54ZM1256.89 590.884C1256.33 590.764 1255.78 591.123 1255.66 591.686L1253.87 600.134C1253.75 600.697 1254.11 601.251 1254.67 601.371L1268.1 604.237C1268.66 604.358 1269.22 603.999 1269.33 603.436L1271.12 594.987C1271.24 594.424 1270.88 593.871 1270.32 593.75L1256.89 590.884Z" fill="#10141E"/>
<path fill-rule="evenodd" clip-rule="evenodd" d="M1252.61 602.706C1252.81 601.768 1253.73 601.17 1254.67 601.371L1268.1 604.237C1269.04 604.437 1269.64 605.36 1269.44 606.299L1267.65 614.747C1267.45 615.685 1266.53 616.283 1265.59 616.083L1252.17 613.217C1251.23 613.016 1250.63 612.093 1250.83 611.155L1252.61 602.706ZM1254.53 602.05C1253.97 601.93 1253.41 602.289 1253.29 602.852L1251.51 611.3C1251.39 611.863 1251.75 612.417 1252.31 612.537L1265.74 615.403C1266.3 615.524 1266.85 615.165 1266.97 614.602L1268.76 606.153C1268.88 605.59 1268.52 605.037 1267.96 604.916L1254.53 602.05Z" fill="#10141E"/>
<path fill-rule="evenodd" clip-rule="evenodd" d="M1250.25 613.873C1250.45 612.935 1251.37 612.337 1252.31 612.538L1265.74 615.404C1266.67 615.604 1267.28 616.527 1267.08 617.466L1265.29 625.914C1265.09 626.852 1264.17 627.45 1263.23 627.25L1249.8 624.384C1248.86 624.183 1248.26 623.26 1248.46 622.322L1250.25 613.873ZM1252.17 613.217C1251.6 613.097 1251.05 613.456 1250.93 614.019L1249.14 622.467C1249.02 623.03 1249.38 623.584 1249.95 623.704L1263.37 626.57C1263.94 626.691 1264.49 626.332 1264.61 625.769L1266.4 617.32C1266.52 616.757 1266.16 616.204 1265.59 616.083L1252.17 613.217Z" fill="#10141E"/>
</g>
<path d="M1208.95 640.973L1208.63 642.499L1206.5 641.949L1207.39 643.957L1205.87 644.483L1205.21 642.303L1203.74 644.029L1202.59 642.932L1204.19 641.455L1202.04 641.102L1202.36 639.576L1204.46 640.15L1203.61 638.12L1205.1 637.588L1205.75 639.768L1207.23 638.042L1208.41 639.145L1206.78 640.646L1208.95 640.973Z" fill="white"/>
<path d="M1220.03 643.329L1219.71 644.856L1217.58 644.305L1218.47 646.313L1216.95 646.84L1216.3 644.66L1214.82 646.385L1213.67 645.289L1215.27 643.812L1213.12 643.459L1213.44 641.932L1215.55 642.507L1214.69 640.477L1216.19 639.945L1216.84 642.125L1218.31 640.399L1219.49 641.502L1217.87 643.003L1220.03 643.329Z" fill="white"/>
<path d="M1231.12 645.686L1230.8 647.213L1228.67 646.662L1229.56 648.67L1228.04 649.197L1227.39 647.017L1225.91 648.742L1224.76 647.646L1226.36 646.169L1224.21 645.816L1224.53 644.289L1226.63 644.864L1225.78 642.834L1227.27 642.302L1227.92 644.481L1229.4 642.756L1230.58 643.858L1228.95 645.359L1231.12 645.686Z" fill="white"/>
<path d="M1242.2 648.043L1241.88 649.57L1239.75 649.019L1240.64 651.027L1239.12 651.553L1238.47 649.374L1236.99 651.099L1235.84 650.003L1237.44 648.525L1235.29 648.173L1235.62 646.646L1237.72 647.221L1236.86 645.191L1238.36 644.659L1239.01 646.838L1240.49 645.113L1241.66 646.215L1240.04 647.716L1242.2 648.043Z" fill="white"/>
<path d="M1260.97 652.03L1260.65 653.557L1258.52 653.006L1259.41 655.014L1257.89 655.54L1257.24 653.361L1255.76 655.086L1254.61 653.99L1256.21 652.512L1254.06 652.16L1254.38 650.633L1256.49 651.208L1255.63 649.178L1257.12 648.646L1257.77 650.825L1259.25 649.1L1260.43 650.202L1258.81 651.703L1260.97 652.03Z" fill="white"/>
<path d="M1272.06 654.396L1271.73 655.923L1269.6 655.372L1270.49 657.38L1268.97 657.907L1268.32 655.727L1266.84 657.452L1265.69 656.356L1267.29 654.879L1265.14 654.526L1265.47 652.999L1267.57 653.574L1266.71 651.544L1268.21 651.012L1268.86 653.191L1270.34 651.466L1271.51 652.568L1269.89 654.069L1272.06 654.396Z" fill="white"/>
<path d="M1283.14 656.753L1282.82 658.28L1280.68 657.718L1281.57 659.726L1280.05 660.252L1279.4 658.072L1277.92 659.798L1276.77 658.701L1278.37 657.224L1276.22 656.871L1276.54 655.345L1278.65 655.919L1277.79 653.889L1279.29 653.357L1279.94 655.537L1281.41 653.812L1282.59 654.914L1280.97 656.415L1283.14 656.753Z" fill="white"/>
<path d="M1294.23 659.11L1293.9 660.637L1291.77 660.084L1292.66 662.092L1291.13 662.618L1290.48 660.438L1289.01 662.164L1287.86 661.067L1289.45 659.59L1287.3 659.238L1287.63 657.711L1289.73 658.285L1288.88 656.256L1290.37 655.723L1291.02 657.903L1292.5 656.178L1293.68 657.271L1292.05 658.772L1294.23 659.11Z" fill="white"/>
<path d="M1312.99 663.097L1312.67 664.624L1310.54 664.073L1311.43 666.081L1309.91 666.607L1309.26 664.427L1307.78 666.153L1306.63 665.056L1308.23 663.579L1306.08 663.227L1306.4 661.7L1308.51 662.274L1307.65 660.244L1309.14 659.712L1309.8 661.892L1311.27 660.167L1312.45 661.269L1310.83 662.77L1312.99 663.097Z" fill="white"/>
<path d="M1324.07 665.461L1323.74 666.988L1321.62 666.437L1322.51 668.445L1320.98 668.971L1320.33 666.792L1318.86 668.517L1317.71 667.42L1319.3 665.943L1317.15 665.591L1317.48 664.064L1319.58 664.639L1318.73 662.609L1320.22 662.076L1320.87 664.256L1322.35 662.531L1323.53 663.624L1321.9 665.125L1324.07 665.461Z" fill="white"/>
<path d="M1335.15 667.818L1334.83 669.345L1332.7 668.794L1333.59 670.802L1332.07 671.328L1331.42 669.148L1329.94 670.874L1328.79 669.777L1330.39 668.3L1328.24 667.947L1328.56 666.421L1330.67 666.995L1329.81 664.965L1331.3 664.433L1331.96 666.613L1333.43 664.888L1334.61 665.99L1332.99 667.491L1335.15 667.818Z" fill="white"/>
<path d="M1346.24 670.174L1345.92 671.701L1343.79 671.15L1344.68 673.158L1343.16 673.685L1342.5 671.505L1341.03 673.23L1339.88 672.134L1341.48 670.657L1339.33 670.304L1339.65 668.777L1341.75 669.352L1340.9 667.322L1342.39 666.79L1343.04 668.97L1344.52 667.244L1345.7 668.347L1344.07 669.848L1346.24 670.174Z" fill="white"/>
<path d="M1354.83 687.192L1355.21 685.379L1362.32 680.609C1364.21 679.369 1365.28 678.185 1365.52 677.056C1365.71 676.121 1365.58 675.329 1365.13 674.68C1364.67 674.032 1364.04 673.626 1363.21 673.449C1361.65 673.116 1360.35 673.623 1359.33 674.962L1357.72 673.476C1358.46 672.503 1359.36 671.844 1360.39 671.484C1361.43 671.125 1362.52 671.067 1363.63 671.295C1365.01 671.59 1366.12 672.31 1366.95 673.445C1367.78 674.59 1368.04 675.93 1367.7 677.494C1367.35 679.178 1365.98 680.81 1363.59 682.381L1358.47 685.718L1365.95 687.305L1365.5 689.452L1354.83 687.192Z" fill="white"/>
<path d="M1377.5 681.723C1378.72 682.234 1379.63 682.999 1380.25 684.032C1380.88 685.065 1381.05 686.234 1380.77 687.557C1380.43 689.177 1379.61 690.336 1378.31 691.045C1377.01 691.754 1375.57 691.931 1373.99 691.594C1372.74 691.325 1371.68 690.8 1370.82 690.007C1369.97 689.216 1369.45 688.235 1369.27 687.045L1371.35 686.338C1371.51 687.987 1372.55 689.012 1374.45 689.419C1375.48 689.638 1376.37 689.548 1377.13 689.139C1377.89 688.74 1378.38 688.052 1378.57 687.078C1378.78 686.106 1378.62 685.279 1378.08 684.594C1377.56 683.911 1376.78 683.455 1375.75 683.236L1375.18 683.114L1374.6 681.568L1379.53 677.166L1372.18 675.606L1372.62 673.533L1382.55 675.643L1382.13 677.584L1377.5 681.723Z" fill="white"/>
<path d="M1397.17 690.718L1396.73 692.791L1394.72 692.362L1394.05 695.536L1391.85 695.068L1392.52 691.894L1384.09 690.103L1384.53 688.03L1392.88 677.849L1395.25 678.354L1386.9 688.535L1392.97 689.832L1393.97 685.113L1396.16 685.581L1395.16 690.3L1397.17 690.718Z" fill="white"/>
<path d="M1406.85 687.622C1408.41 687.955 1409.64 688.699 1410.52 689.856C1411.41 691.012 1411.68 692.414 1411.33 694.052C1410.99 695.671 1410.17 696.831 1408.87 697.54C1407.57 698.248 1406.13 698.425 1404.55 698.088C1403.3 697.82 1402.23 697.274 1401.37 696.451C1400.51 695.629 1400 694.592 1399.85 693.351L1401.94 692.675C1401.99 693.536 1402.29 694.239 1402.82 694.798C1403.37 695.359 1404.09 695.727 1405 695.921C1406.04 696.142 1406.94 696.054 1407.71 695.647C1408.46 695.248 1408.94 694.557 1409.15 693.586C1409.36 692.614 1409.19 691.787 1408.66 691.102C1408.12 690.417 1407.36 689.963 1406.35 689.747L1401.67 688.748L1404.09 680.222L1413.16 682.15L1412.72 684.222L1405.66 682.723L1404.43 687.095L1406.85 687.622Z" fill="white"/>
<path fill-rule="evenodd" clip-rule="evenodd" d="M1515.55 799.244C1533.65 803.107 1551.37 791.809 1555.14 774.008C1558.91 756.207 1547.29 738.644 1529.19 734.781C1521.08 733.049 1513.05 734.363 1506.31 737.943C1501.6 731.921 1494.79 727.438 1486.68 725.706C1468.59 721.843 1450.86 733.141 1447.09 750.942C1443.33 768.743 1454.94 786.306 1473.04 790.169C1481.15 791.901 1489.19 790.587 1495.93 787.007C1500.63 793.029 1507.44 797.512 1515.55 799.244Z" fill="#ED0006"/>
<path fill-rule="evenodd" clip-rule="evenodd" d="M1495.93 787.007C1504.22 782.599 1510.55 774.755 1512.63 764.932C1514.71 755.11 1512.1 745.359 1506.31 737.943C1513.05 734.363 1521.08 733.049 1529.19 734.781C1547.29 738.644 1558.91 756.207 1555.14 774.008C1551.37 791.809 1533.65 803.107 1515.55 799.244C1507.44 797.512 1500.63 793.029 1495.93 787.007Z" fill="#F9A000"/>
<path fill-rule="evenodd" clip-rule="evenodd" d="M1495.93 787.005C1504.22 782.597 1510.55 774.754 1512.63 764.932C1514.71 755.109 1512.1 745.358 1506.31 737.943C1498.01 742.35 1491.68 750.193 1489.61 760.016C1487.53 769.839 1490.13 779.589 1495.93 787.005Z" fill="#FF5E00"/>
</g>
<g clip-path="url(#clip1_59_438)">
<rect width="438.163" height="262.517" rx="24" transform="matrix(0.977964 -0.208773 0.207054 0.97833 360.016 329.881)" fill="#0D3D76"/>
<path fill-rule="evenodd" clip-rule="evenodd" d="M414.904 661.393C399.4 591.725 447.968 528.958 508.954 492.221C574.061 453 655.607 432.934 714.665 480.817C783.309 536.471 819.826 632.939 780.076 712.037C744.051 783.723 649.553 779.012 570.33 768.025C501.6 758.493 430.03 729.365 414.904 661.393Z" fill="#1155A5" fill-opacity="0.16"/>
<g style="mix-blend-mode:multiply">
<path fill-rule="evenodd" clip-rule="evenodd" d="M625.311 511.851C612.543 454.476 652.542 402.784 702.766 372.528C756.386 340.228 823.542 323.703 872.18 363.137C928.712 408.971 958.786 488.417 926.049 553.559C896.381 612.595 818.557 608.715 753.313 599.667C696.71 591.817 637.768 567.829 625.311 511.851Z" fill="#104C91" fill-opacity="0.2"/>
</g>
<path fill-rule="evenodd" clip-rule="evenodd" d="M751.784 276.408C752.527 275.756 753.657 275.83 754.307 276.571C758.211 281.024 760.914 286.44 762.149 292.274C763.383 298.107 763.107 304.159 761.344 309.823C761.051 310.765 760.048 311.293 759.106 311.002C758.163 310.711 757.637 309.711 757.93 308.768C759.51 303.693 759.76 298.262 758.651 293.021C757.541 287.779 755.114 282.92 751.615 278.929C750.965 278.188 751.041 277.059 751.784 276.408ZM745.785 281.315C746.528 280.664 747.657 280.737 748.307 281.478C751.397 285.003 753.536 289.288 754.513 293.904C755.49 298.519 755.271 303.308 753.876 307.79C753.582 308.733 752.58 309.261 751.638 308.97C750.695 308.678 750.169 307.678 750.462 306.735C751.674 302.842 751.866 298.673 751.015 294.651C750.163 290.628 748.3 286.898 745.616 283.836C744.966 283.095 745.042 281.966 745.785 281.315ZM740.038 285.868C740.784 285.22 741.913 285.298 742.559 286.043C744.853 288.683 746.443 291.89 747.173 295.339C747.903 298.788 747.749 302.366 746.723 305.716C746.434 306.66 745.434 307.193 744.49 306.906C743.546 306.619 743.015 305.621 743.305 304.677C744.151 301.913 744.281 298.949 743.675 296.086C743.069 293.222 741.75 290.568 739.857 288.389C739.211 287.644 739.291 286.516 740.038 285.868ZM734.254 290.756C734.957 290.062 736.089 290.068 736.782 290.77C738.472 292.48 739.634 294.63 740.13 296.974C740.626 299.319 740.435 301.757 739.584 304.01C739.235 304.934 738.204 305.402 737.28 305.055C736.356 304.708 735.891 303.678 736.24 302.755C736.851 301.136 736.986 299.392 736.632 297.721C736.278 296.05 735.449 294.512 734.235 293.283C733.542 292.581 733.55 291.45 734.254 290.756Z" fill="white"/>
<g filter="url(#filter1_ii_59_438)">
<path d="M406.389 407.916C405.754 404.914 407.675 401.96 410.68 401.319L456.932 391.445C459.937 390.804 462.888 392.717 463.524 395.719L469.888 425.792C470.524 428.794 468.603 431.747 465.597 432.389L419.346 442.262C416.341 442.904 413.389 440.991 412.754 437.989L406.389 407.916Z" fill="#CDC9C1"/>
<path d="M406.389 407.916C405.754 404.914 407.675 401.96 410.68 401.319L456.932 391.445C459.937 390.804 462.888 392.717 463.524 395.719L469.888 425.792C470.524 428.794 468.603 431.747 465.597 432.389L419.346 442.262C416.341 442.904 413.389 440.991 412.754 437.989L406.389 407.916Z" fill="url(#paint5_radial_59_438)" fill-opacity="0.1"/>
<path d="M406.389 407.916C405.754 404.914 407.675 401.96 410.68 401.319L456.932 391.445C459.937 390.804 462.888 392.717 463.524 395.719L469.888 425.792C470.524 428.794 468.603 431.747 465.597 432.389L419.346 442.262C416.341 442.904 413.389 440.991 412.754 437.989L406.389 407.916Z" fill="url(#paint6_radial_59_438)" fill-opacity="0.1"/>
<path d="M406.389 407.916C405.754 404.914 407.675 401.96 410.68 401.319L456.932 391.445C459.937 390.804 462.888 392.717 463.524 395.719L469.888 425.792C470.524 428.794 468.603 431.747 465.597 432.389L419.346 442.262C416.341 442.904 413.389 440.991 412.754 437.989L406.389 407.916Z" fill="url(#paint7_radial_59_438)" fill-opacity="0.1"/>
</g>
<mask id="mask1_59_438" style="mask-type:alpha" maskUnits="userSpaceOnUse" x="406" y="391" width="65" height="52">
<path d="M406.389 407.916C405.754 404.914 407.675 401.96 410.68 401.319L456.932 391.445C459.937 390.804 462.888 392.717 463.524 395.719L469.888 425.792C470.524 428.794 468.603 431.747 465.597 432.389L419.346 442.262C416.341 442.904 413.389 440.991 412.754 437.989L406.389 407.916Z" fill="#D9D9D9"/>
</mask>
<g mask="url(#mask1_59_438)">
<path fill-rule="evenodd" clip-rule="evenodd" d="M405.974 407.634C405.776 406.696 406.376 405.773 407.315 405.573L420.741 402.706C421.68 402.506 422.603 403.104 422.801 404.042L424.589 412.491C424.788 413.429 424.187 414.352 423.248 414.552L409.822 417.418C408.883 417.619 407.961 417.021 407.762 416.083L405.974 407.634ZM407.459 406.252C406.895 406.372 406.535 406.926 406.654 407.489L408.442 415.938C408.562 416.5 409.115 416.859 409.678 416.739L423.104 413.873C423.668 413.753 424.028 413.199 423.909 412.636L422.121 404.187C422.002 403.624 421.448 403.266 420.885 403.386L407.459 406.252Z" fill="#10141E"/>
<path fill-rule="evenodd" clip-rule="evenodd" d="M408.338 418.8C408.139 417.862 408.739 416.939 409.678 416.739L423.104 413.872C424.044 413.672 424.966 414.27 425.164 415.208L426.952 423.657C427.151 424.595 426.551 425.518 425.611 425.718L412.186 428.584C411.246 428.785 410.324 428.187 410.126 427.249L408.338 418.8ZM409.822 417.418C409.259 417.538 408.899 418.092 409.018 418.655L410.806 427.104C410.925 427.667 411.478 428.025 412.042 427.905L425.468 425.039C426.031 424.919 426.391 424.365 426.272 423.802L424.484 415.353C424.365 414.79 423.812 414.432 423.248 414.552L409.822 417.418Z" fill="#10141E"/>
<path fill-rule="evenodd" clip-rule="evenodd" d="M427.948 413.317C427.749 412.379 428.35 411.456 429.289 411.256L447.683 407.329C448.622 407.128 449.544 407.726 449.743 408.664L449.824 409.049C450.023 409.987 449.422 410.91 448.483 411.11L447.478 411.325C446.914 411.445 446.554 411.999 446.673 412.562L448.592 421.631C448.791 422.569 448.191 423.492 447.251 423.692L428.857 427.619C427.918 427.82 426.996 427.222 426.797 426.283L426.585 425.279C426.386 424.341 426.987 423.418 427.926 423.217L428.931 423.003C429.495 422.883 429.855 422.329 429.736 421.766L427.948 413.317ZM429.432 411.935C428.869 412.055 428.509 412.609 428.628 413.172L430.416 421.621C430.614 422.559 430.014 423.482 429.075 423.682L428.07 423.897C427.506 424.017 427.146 424.571 427.265 425.134L427.478 426.138C427.597 426.701 428.15 427.06 428.714 426.94L447.108 423.013C447.671 422.893 448.031 422.339 447.912 421.776L445.993 412.707C445.794 411.769 446.395 410.846 447.334 410.645L448.339 410.431C448.903 410.31 449.263 409.757 449.144 409.194L449.063 408.81C448.943 408.247 448.39 407.888 447.827 408.008L429.432 411.935Z" fill="#10141E"/>
<path fill-rule="evenodd" clip-rule="evenodd" d="M410.701 429.967C410.502 429.029 411.103 428.106 412.042 427.906L425.468 425.039C426.407 424.839 427.329 425.437 427.528 426.375L429.316 434.824C429.514 435.762 428.914 436.685 427.975 436.885L414.549 439.751C413.61 439.952 412.687 439.354 412.489 438.416L410.701 429.967ZM412.186 428.585C411.622 428.705 411.262 429.259 411.381 429.822L413.169 438.271C413.288 438.834 413.842 439.192 414.405 439.072L427.831 436.206C428.394 436.086 428.755 435.532 428.636 434.969L426.847 426.52C426.728 425.957 426.175 425.599 425.612 425.719L412.186 428.585Z" fill="#10141E"/>
<path fill-rule="evenodd" clip-rule="evenodd" d="M446.962 398.884C446.763 397.946 447.364 397.023 448.303 396.823L461.729 393.956C462.668 393.756 463.59 394.354 463.789 395.292L465.577 403.741C465.775 404.679 465.175 405.602 464.236 405.802L450.81 408.668C449.871 408.869 448.948 408.271 448.75 407.333L446.962 398.884ZM448.447 397.502C447.883 397.622 447.523 398.176 447.642 398.739L449.43 407.188C449.549 407.75 450.103 408.109 450.666 407.989L464.092 405.123C464.655 405.003 465.016 404.449 464.897 403.886L463.108 395.437C462.989 394.874 462.436 394.516 461.872 394.636L448.447 397.502Z" fill="#10141E"/>
<path fill-rule="evenodd" clip-rule="evenodd" d="M449.325 410.05C449.127 409.112 449.727 408.189 450.666 407.989L464.092 405.122C465.031 404.922 465.953 405.52 466.152 406.458L467.94 414.907C468.139 415.845 467.538 416.768 466.599 416.968L453.173 419.834C452.234 420.035 451.312 419.437 451.113 418.499L449.325 410.05ZM450.81 408.668C450.246 408.788 449.886 409.342 450.005 409.905L451.793 418.354C451.912 418.917 452.466 419.275 453.029 419.155L466.455 416.289C467.019 416.169 467.379 415.615 467.26 415.052L465.472 406.603C465.353 406.04 464.799 405.682 464.236 405.802L450.81 408.668Z" fill="#10141E"/>
<path fill-rule="evenodd" clip-rule="evenodd" d="M451.688 421.217C451.49 420.279 452.09 419.356 453.029 419.156L466.455 416.289C467.394 416.089 468.317 416.687 468.515 417.625L470.303 426.074C470.502 427.012 469.901 427.935 468.962 428.135L455.536 431.001C454.597 431.202 453.675 430.604 453.476 429.666L451.688 421.217ZM453.173 419.835C452.61 419.955 452.249 420.509 452.369 421.072L454.157 429.521C454.276 430.084 454.829 430.442 455.393 430.322L468.819 427.456C469.382 427.336 469.742 426.782 469.623 426.219L467.835 417.77C467.716 417.207 467.163 416.849 466.599 416.969L453.173 419.835Z" fill="#10141E"/>
</g>
<path d="M424.932 462.845L425.256 464.371L423.089 464.737L424.714 466.209L423.538 467.311L422.06 465.585L421.409 467.765L419.916 467.233L420.777 465.231L418.67 465.787L418.347 464.26L420.501 463.926L418.897 462.421L420.046 461.325L421.524 463.05L422.175 460.87L423.696 461.397L422.822 463.43L424.932 462.845Z" fill="white"/>
<path d="M436.014 460.469L436.337 461.996L434.171 462.362L435.796 463.833L434.619 464.935L433.142 463.21L432.491 465.39L430.997 464.858L431.858 462.855L429.751 463.412L429.428 461.885L431.582 461.551L429.979 460.046L431.128 458.949L432.605 460.675L433.256 458.495L434.777 459.021L433.904 461.055L436.014 460.469Z" fill="white"/>
<path d="M447.095 458.094L447.419 459.621L445.252 459.987L446.877 461.458L445.701 462.56L444.223 460.835L443.572 463.015L442.079 462.482L442.94 460.48L440.833 461.036L440.51 459.509L442.664 459.175L441.06 457.67L442.209 456.574L443.687 458.299L444.338 456.12L445.859 456.646L444.985 458.68L447.095 458.094Z" fill="white"/>
<path d="M458.177 455.719L458.5 457.245L456.334 457.611L457.959 459.083L456.782 460.185L455.305 458.459L454.654 460.639L453.16 460.107L454.022 458.105L451.914 458.661L451.591 457.134L453.745 456.8L452.142 455.295L453.291 454.199L454.768 455.924L455.419 453.744L456.94 454.271L456.067 456.304L458.177 455.719Z" fill="white"/>
<path d="M476.936 451.695L477.259 453.221L475.093 453.587L476.718 455.059L475.542 456.161L474.064 454.435L473.413 456.615L471.919 456.083L472.781 454.081L470.674 454.637L470.35 453.11L472.505 452.776L470.901 451.271L472.05 450.175L473.527 451.9L474.179 449.72L475.7 450.247L474.826 452.28L476.936 451.695Z" fill="white"/>
<path d="M488.02 449.329L488.343 450.855L486.176 451.221L487.801 452.693L486.625 453.795L485.148 452.069L484.496 454.249L483.003 453.717L483.864 451.715L481.757 452.271L481.434 450.744L483.588 450.41L481.984 448.905L483.133 447.809L484.611 449.534L485.262 447.354L486.783 447.881L485.909 449.914L488.02 449.329Z" fill="white"/>
<path d="M499.101 446.953L499.424 448.48L497.247 448.838L498.872 450.31L497.696 451.412L496.218 449.687L495.567 451.866L494.073 451.334L494.935 449.332L492.828 449.888L492.504 448.361L494.659 448.027L493.055 446.522L494.204 445.426L495.681 447.151L496.332 444.972L497.854 445.498L496.98 447.532L499.101 446.953Z" fill="white"/>
<path d="M510.183 444.578L510.506 446.105L508.33 446.472L509.955 447.944L508.779 449.046L507.301 447.321L506.65 449.5L505.157 448.968L506.018 446.966L503.911 447.522L503.588 445.995L505.742 445.661L504.138 444.156L505.287 443.06L506.765 444.785L507.416 442.605L508.935 443.123L508.061 445.156L510.183 444.578Z" fill="white"/>
<path d="M528.942 440.554L529.265 442.081L527.099 442.446L528.724 443.918L527.547 445.02L526.07 443.295L525.419 445.475L523.925 444.942L524.786 442.94L522.679 443.496L522.356 441.969L524.51 441.635L522.907 440.13L524.056 439.034L525.533 440.759L526.184 438.58L527.705 439.106L526.832 441.14L528.942 440.554Z" fill="white"/>
<path d="M540.016 438.19L540.34 439.717L538.173 440.082L539.798 441.554L538.622 442.656L537.144 440.931L536.493 443.11L535 442.578L535.861 440.576L533.754 441.132L533.431 439.605L535.585 439.271L533.981 437.766L535.13 436.67L536.608 438.395L537.259 436.215L538.778 436.733L537.904 438.766L540.016 438.19Z" fill="white"/>
<path d="M551.098 435.814L551.421 437.341L549.254 437.707L550.88 439.178L549.703 440.281L548.226 438.555L547.575 440.735L546.081 440.203L546.942 438.201L544.835 438.757L544.512 437.23L546.666 436.896L545.063 435.391L546.211 434.295L547.689 436.02L548.34 433.84L549.861 434.367L548.987 436.4L551.098 435.814Z" fill="white"/>
<path d="M562.179 433.439L562.503 434.966L560.336 435.332L561.961 436.803L560.785 437.905L559.307 436.18L558.656 438.36L557.163 437.827L558.024 435.825L555.917 436.381L555.594 434.855L557.748 434.52L556.144 433.016L557.293 431.919L558.771 433.644L559.422 431.465L560.943 431.991L560.069 434.025L562.179 433.439Z" fill="white"/>
<path d="M576.916 445.478L576.532 443.664L581.094 436.403C582.321 434.497 582.815 432.98 582.576 431.851C582.378 430.916 581.939 430.246 581.259 429.84C580.578 429.434 579.835 429.322 579.01 429.498C577.45 429.831 576.471 430.823 576.08 432.464L574.004 431.766C574.289 430.573 574.841 429.604 575.641 428.853C576.441 428.102 577.41 427.605 578.518 427.359C579.904 427.063 581.204 427.269 582.425 427.966C583.649 428.672 584.423 429.793 584.754 431.357C585.11 433.041 584.518 435.092 582.976 437.501L579.652 442.64L587.128 441.035L587.583 443.181L576.916 445.478Z" fill="white"/>
<path d="M595.417 431.218C596.734 431.188 597.877 431.515 598.867 432.203C599.856 432.892 600.489 433.888 600.769 435.211C601.112 436.831 600.832 438.225 599.93 439.404C599.029 440.583 597.788 441.332 596.209 441.669C594.952 441.937 593.772 441.889 592.667 441.516C591.571 441.14 590.698 440.456 590.052 439.443L591.663 437.948C592.476 439.39 593.841 439.901 595.749 439.494C596.777 439.275 597.555 438.828 598.082 438.145C598.61 437.471 598.78 436.642 598.565 435.672C598.36 434.7 597.878 434.01 597.111 433.603C596.353 433.194 595.459 433.095 594.432 433.314L593.863 433.436L592.703 432.262L595.425 426.226L588.078 427.804L587.639 425.731L597.564 423.603L597.966 425.548L595.417 431.218Z" fill="white"/>
<path d="M617.023 431.403L617.462 433.476L615.452 433.905L616.124 437.079L613.931 437.547L613.26 434.373L604.83 436.182L604.391 434.109L607.896 421.397L610.263 420.892L606.758 433.604L612.832 432.307L611.833 427.588L614.026 427.12L615.025 431.839L617.023 431.403Z" fill="white"/>
<path d="M624.62 424.616C626.18 424.283 627.599 424.464 628.878 425.158C630.156 425.853 630.97 427.023 631.316 428.661C631.659 430.281 631.379 431.675 630.478 432.854C629.576 434.033 628.335 434.782 626.757 435.118C625.5 435.387 624.306 435.322 623.186 434.923C622.066 434.524 621.181 433.784 620.541 432.712L622.177 431.241C622.569 432.008 623.13 432.527 623.844 432.819C624.567 433.11 625.381 433.149 626.289 432.955C627.326 432.734 628.113 432.285 628.649 431.6C629.178 430.926 629.338 430.099 629.133 429.127C628.927 428.156 628.445 427.465 627.678 427.059C626.911 426.652 626.027 426.55 625.018 426.766L620.338 427.765L619.094 418.987L628.167 417.041L628.605 419.114L621.542 420.631L622.196 425.124L624.62 424.616Z" fill="white"/>
<path d="M801.671 434.693C801.388 433.352 800.837 432.069 800.021 430.842C799.204 429.616 798.177 428.714 797.207 428.081C795.914 427.236 794.678 426.659 793.289 426.676C791.842 426.424 790.243 426.765 788.111 427.221L758.791 433.48L762.99 453.317L792.043 447.115C794.175 446.66 795.984 445.994 796.994 445.498C798.213 444.677 799.165 443.914 800.005 442.614C800.844 441.314 801.15 440.128 801.456 438.942C801.972 437.43 801.955 436.033 801.671 434.693Z" fill="white"/>
<path d="M806.834 459.088C806.551 457.748 806 456.464 805.184 455.237C804.367 454.011 803.34 453.109 802.37 452.476C801.077 451.631 799.841 451.054 798.452 451.071C797.005 450.819 795.406 451.161 793.274 451.616L763.954 457.875L768.153 477.712L797.206 471.51C799.338 471.055 801.147 470.389 802.156 469.893C803.376 469.072 804.328 468.309 805.168 467.009C806.007 465.709 806.313 464.523 806.619 463.337C807.135 461.826 807.118 460.428 806.834 459.088Z" fill="white"/>
<path d="M758.992 454.171C755.202 441.531 744.325 434.887 729.931 437.96C714.739 441.203 707.395 452.577 710.402 466.785C713.523 481.529 725.257 488.271 739.917 485.141C754.31 482.068 761.614 471.823 759.9 458.46L735.111 463.752L734.147 459.195L758.935 453.903L758.992 454.171Z" fill="white"/>
</g>
<path d="M245.197 308.535C242.311 307.815 240.567 304.891 241.303 302.004C242.039 299.117 244.975 297.36 247.862 298.079L289.677 308.505C292.563 309.225 294.307 312.149 293.571 315.036C292.835 317.923 289.898 319.68 287.012 318.96L245.197 308.535Z" fill="#156DCB"/>
<path d="M325.791 225.258C325.187 222.348 327.063 219.487 329.98 218.868C332.897 218.249 335.751 220.107 336.355 223.018L345.105 265.177C345.709 268.087 343.834 270.948 340.916 271.567C337.999 272.186 335.145 270.328 334.541 267.417L325.791 225.258Z" fill="#156DCB"/>
<path d="M273.132 255.637C271.074 253.497 271.152 250.086 273.305 248.019C275.459 245.952 278.874 246.011 280.932 248.152L310.744 279.155C312.802 281.295 312.724 284.706 310.57 286.773C308.417 288.84 305.002 288.781 302.944 286.641L273.132 255.637Z" fill="#156DCB"/>
<path d="M917.527 387.521C918.454 386.541 919.445 385.517 920.275 384.73C924.772 380.477 929.18 376.094 932.515 370.562C932.536 370.527 932.558 370.492 932.581 370.456L932.625 370.388C933.17 369.535 933.968 368.287 930.871 364.9C927.429 361.129 924.647 359.693 923.575 361.038C922.927 361.849 922.306 362.695 921.686 363.541C919.84 366.055 917.99 368.575 915.39 370.234C911.961 372.412 909.132 375.265 906.307 378.115C904.951 379.483 903.594 380.851 902.174 382.141L900.682 383.539L898.111 386.048C896.351 387.701 894.719 389.501 893.749 391.259C892.759 393.008 892.169 394.766 892.028 396.645C891.835 398.479 892.366 400.737 893.347 402.469L893.461 402.656C894.433 404.224 895.501 405.324 896.982 406.392C898.437 407.472 900.591 408.341 902.948 408.88L906.469 409.799L908.271 410.265L909.305 410.566C910.521 410.921 911.758 411.216 912.99 411.462C915.563 411.957 918.202 412.01 920.839 412.063C922.576 412.098 924.314 412.132 926.031 412.294C926.543 412.337 927.068 412.648 927.605 412.966C928.138 413.282 928.681 413.604 929.234 413.677C929.375 413.695 929.53 413.716 929.695 413.739C930.605 413.863 931.816 414.029 932.641 413.832L932.722 413.812L932.791 413.794C933.159 413.699 933.534 413.602 933.845 413.836C935.488 415.019 936.2 413.359 936.382 407.711C936.398 407.319 936.446 406.891 936.494 406.461C936.598 405.546 936.702 404.618 936.494 403.996C936.492 403.99 936.489 403.984 936.486 403.976L936.475 403.94C936.465 403.907 936.453 403.867 936.439 403.834C935.825 401.138 934.818 401.182 933.795 401.226C933.45 401.241 933.103 401.256 932.768 401.166C930.098 400.47 927.419 399.829 924.738 399.212C931.809 396.764 939.006 394.728 946.412 393.801C963.87 391.569 981.229 389.433 998.705 390.741C1006.53 391.363 1014.31 392.478 1022.01 394.039C1029.71 395.698 1037.21 398.008 1044.53 400.978C1058.2 406.876 1070.73 415.387 1082.05 425.048C1091.87 433.281 1101.51 442.202 1108.71 453.202C1109.5 454.431 1110.18 455.878 1110.87 457.368L1111 457.64C1111.17 458.062 1111.34 458.489 1111.51 458.914C1111.98 460.121 1112.45 461.321 1113.05 462.41C1113.75 463.577 1114.51 465.197 1115.27 466.826C1116.08 468.534 1116.88 470.253 1117.64 471.471C1118.31 472.494 1118.83 473.617 1119.05 474.774C1119.96 480.053 1122.06 481.014 1126.56 477.827C1126.89 477.587 1127.28 477.433 1127.67 477.28C1128.48 476.963 1129.28 476.647 1129.49 475.584C1129.51 475.523 1129.53 475.394 1129.55 475.334C1130.42 472.792 1130.1 470.489 1129.43 468.331C1129.01 467.28 1128.5 466.263 1127.99 465.242C1127.48 464.218 1126.97 463.19 1126.54 462.12C1117.8 441.343 1103.15 423.667 1086.11 410.08C1075.57 401.746 1063.99 395.187 1052.14 389.411C1051.9 389.288 1051.66 389.164 1051.43 389.04C1051.28 388.963 1051.13 388.885 1050.98 388.808L1050.72 388.669C1047.97 387.219 1045.19 385.751 1042.16 385.035C1040.65 384.374 1039.11 383.822 1037.56 383.266L1036.86 383.012C1036.56 382.907 1036.26 382.802 1035.96 382.696C1034.45 382.164 1032.94 381.632 1031.4 381.247C1017.56 377.72 1002.79 375.507 989.346 375.753C989.123 375.765 988.845 375.725 988.532 375.679C988.175 375.627 987.773 375.569 987.354 375.575C987.045 375.582 986.671 375.587 986.241 375.593C984.069 375.623 980.455 375.673 976.471 375.984C974.078 376.122 971.541 376.29 969.079 376.56C968.253 376.644 967.434 376.718 966.63 376.79L966.613 376.792L966.61 376.792C965.034 376.934 963.523 377.069 962.157 377.266C946.834 378.943 931.81 382.354 917.527 387.521Z" fill="#B2D4D0"/>
<path d="M1006.52 704.407L1005.96 704.415C1005.76 704.418 1005.57 704.421 1005.4 704.424C1004.98 704.431 1004.58 704.372 1004.22 704.32C1003.91 704.275 1003.63 704.234 1003.41 704.247C989.97 704.493 975.199 702.28 961.356 698.753C959.814 698.367 958.308 697.836 956.8 697.305L956.797 697.303C956.497 697.198 956.197 697.092 955.897 696.988L955.189 696.733L955.184 696.731C953.639 696.176 952.104 695.625 950.591 694.965C947.564 694.249 944.783 692.781 942.035 691.331C941.775 691.194 941.516 691.057 941.257 690.921C941.045 690.81 940.832 690.699 940.62 690.589C928.766 684.813 917.185 678.253 906.646 669.92C889.61 656.333 874.958 638.657 866.211 617.88C865.79 616.81 865.275 615.782 864.763 614.758C864.252 613.737 863.743 612.72 863.329 611.669C862.652 609.511 862.338 607.208 863.202 604.666C863.223 604.605 863.246 604.477 863.267 604.416C863.472 603.353 864.277 603.037 865.085 602.72C865.476 602.566 865.868 602.412 866.192 602.173C870.697 598.985 872.796 599.946 873.703 605.226C873.925 606.382 874.449 607.505 875.12 608.529C875.873 609.747 876.679 611.466 877.481 613.174C878.245 614.803 879.005 616.423 879.71 617.59C880.305 618.679 880.775 619.879 881.248 621.086C881.415 621.511 881.582 621.938 881.755 622.36L881.881 622.631C882.579 624.121 883.256 625.569 884.049 626.798C891.246 637.798 900.888 646.719 910.702 654.952C922.028 664.613 934.56 673.123 948.224 679.022C955.541 681.992 963.042 684.302 970.749 685.961C978.445 687.522 986.229 688.636 994.051 689.259C1011.53 690.566 1028.89 688.431 1046.34 686.199C1053.75 685.271 1060.95 683.235 1068.02 680.788C1065.34 680.171 1062.66 679.53 1059.99 678.834C1059.65 678.744 1059.31 678.759 1058.96 678.774C1057.94 678.818 1056.93 678.861 1056.32 676.166C1056.3 676.133 1056.29 676.093 1056.28 676.06C1056.27 676.036 1056.27 676.016 1056.26 676.004C1056.05 675.382 1056.16 674.454 1056.26 673.539C1056.31 673.108 1056.36 672.681 1056.37 672.288C1056.56 666.641 1057.27 664.981 1058.91 666.164C1059.22 666.398 1059.6 666.301 1059.97 666.205C1060.01 666.192 1060.06 666.179 1060.11 666.167C1060.94 665.97 1062.15 666.136 1063.06 666.261C1063.22 666.283 1063.38 666.305 1063.52 666.322C1064.07 666.396 1064.62 666.718 1065.15 667.033C1065.69 667.351 1066.21 667.663 1066.72 667.706C1068.44 667.867 1070.18 667.902 1071.92 667.937C1074.55 667.99 1077.19 668.043 1079.77 668.538C1081 668.784 1082.23 669.079 1083.45 669.434L1084.48 669.735L1086.29 670.201L1089.81 671.119C1092.16 671.659 1094.32 672.528 1095.77 673.608C1097.25 674.676 1098.32 675.776 1099.29 677.343L1099.41 677.53C1100.39 679.263 1100.92 681.52 1100.73 683.355C1100.59 685.234 1100 686.991 1099.01 688.741C1098.04 690.499 1096.4 692.299 1094.64 693.952L1092.07 696.461L1090.58 697.858C1089.16 699.149 1087.81 700.515 1086.45 701.883L1086.45 701.885C1083.62 704.735 1080.79 707.588 1077.37 709.765C1074.77 711.424 1072.92 713.945 1071.07 716.459L1071.07 716.462C1070.45 717.307 1069.83 718.151 1069.18 718.962C1068.11 720.307 1065.33 718.871 1061.88 715.1C1058.79 711.713 1059.59 710.465 1060.13 709.612L1060.13 709.608L1060.14 709.602C1060.17 709.546 1060.21 709.491 1060.24 709.438C1063.58 703.906 1067.98 699.523 1072.48 695.27C1073.31 694.483 1074.3 693.458 1075.23 692.478C1060.95 697.646 1045.92 701.056 1030.6 702.733C1029.23 702.93 1027.72 703.066 1026.15 703.207L1026.14 703.208C1025.71 703.247 1025.27 703.287 1024.82 703.328C1024.44 703.363 1024.06 703.4 1023.68 703.439C1021.22 703.71 1018.68 703.878 1016.28 704.016C1012.3 704.326 1008.69 704.377 1006.52 704.407L1006.52 704.407Z" fill="#B2D4D0"/>
<defs>
<filter id="filter0_ii_59_438" x="1207.77" y="578.82" width="63.7417" height="51.0645" filterUnits="userSpaceOnUse" color-interpolation-filters="sRGB">
<feFlood flood-opacity="0" result="BackgroundImageFix"/>
<feBlend mode="normal" in="SourceGraphic" in2="BackgroundImageFix" result="shape"/>
<feColorMatrix in="SourceAlpha" type="matrix" values="0 0 0 0 0 0 0 0 0 0 0 0 0 0 0 0 0 0 127 0" result="hardAlpha"/>
<feOffset dx="-1" dy="-1"/>
<feComposite in2="hardAlpha" operator="arithmetic" k2="-1" k3="1"/>
<feColorMatrix type="matrix" values="0 0 0 0 0.184314 0 0 0 0 0.152941 0 0 0 0 0.0941176 0 0 0 0.2 0"/>
<feBlend mode="normal" in2="shape" result="effect1_innerShadow_59_438"/>
<feColorMatrix in="SourceAlpha" type="matrix" values="0 0 0 0 0 0 0 0 0 0 0 0 0 0 0 0 0 0 127 0" result="hardAlpha"/>
<feOffset dx="1" dy="1"/>
<feComposite in2="hardAlpha" operator="arithmetic" k2="-1" k3="1"/>
<feColorMatrix type="matrix" values="0 0 0 0 0.184314 0 0 0 0 0.152941 0 0 0 0 0.0941176 0 0 0 0.2 0"/>
<feBlend mode="normal" in2="effect1_innerShadow_59_438" result="effect2_innerShadow_59_438"/>
</filter>
<filter id="filter1_ii_59_438" x="406.268" y="391.321" width="63.7417" height="51.0654" filterUnits="userSpaceOnUse" color-interpolation-filters="sRGB">
<feFlood flood-opacity="0" result="BackgroundImageFix"/>
<feBlend mode="normal" in="SourceGraphic" in2="BackgroundImageFix" result="shape"/>
<feColorMatrix in="SourceAlpha" type="matrix" values="0 0 0 0 0 0 0 0 0 0 0 0 0 0 0 0 0 0 127 0" result="hardAlpha"/>
<feOffset dx="-1" dy="-1"/>
<feComposite in2="hardAlpha" operator="arithmetic" k2="-1" k3="1"/>
<feColorMatrix type="matrix" values="0 0 0 0 0.184314 0 0 0 0 0.152941 0 0 0 0 0.0941176 0 0 0 0.2 0"/>
<feBlend mode="normal" in2="shape" result="effect1_innerShadow_59_438"/>
<feColorMatrix in="SourceAlpha" type="matrix" values="0 0 0 0 0 0 0 0 0 0 0 0 0 0 0 0 0 0 127 0" result="hardAlpha"/>
<feOffset dx="1" dy="1"/>
<feComposite in2="hardAlpha" operator="arithmetic" k2="-1" k3="1"/>
<feColorMatrix type="matrix" values="0 0 0 0 0.184314 0 0 0 0 0.152941 0 0 0 0 0.0941176 0 0 0 0.2 0"/>
<feBlend mode="normal" in2="effect1_innerShadow_59_438" result="effect2_innerShadow_59_438"/>
</filter>
<linearGradient id="paint0_linear_59_438" x1="-0.0068235" y1="262.515" x2="231.468" y2="-123.837" gradientUnits="userSpaceOnUse">
<stop stop-color="#0C6B62"/>
<stop offset="1" stop-color="#0B6A61"/>
</linearGradient>
<linearGradient id="paint1_linear_59_438" x1="-0.0068235" y1="262.515" x2="231.468" y2="-123.837" gradientUnits="userSpaceOnUse">
<stop offset="0.546119" stop-color="#0C6B62"/>
<stop offset="1" stop-color="#004C43"/>
</linearGradient>
<radialGradient id="paint2_radial_59_438" cx="0" cy="0" r="1" gradientUnits="userSpaceOnUse" gradientTransform="translate(1229.69 580.831) rotate(82.7222) scale(44.3501 61.8239)">
<stop stop-color="#C29632"/>
<stop offset="1" stop-color="#C29632" stop-opacity="0"/>
</radialGradient>
<radialGradient id="paint3_radial_59_438" cx="0" cy="0" r="1" gradientUnits="userSpaceOnUse" gradientTransform="translate(1268.07 611.071) rotate(157.232) scale(35.5376 49.5939)">
<stop stop-color="#664700"/>
<stop offset="1" stop-color="#664700"/>
</radialGradient>
<radialGradient id="paint4_radial_59_438" cx="0" cy="0" r="1" gradientUnits="userSpaceOnUse" gradientTransform="translate(1214.19 620.317) rotate(-9.73616) scale(54.6709 76.22)">
<stop stop-color="#402200"/>
<stop offset="1" stop-color="#402200" stop-opacity="0"/>
</radialGradient>
<radialGradient id="paint5_radial_59_438" cx="0" cy="0" r="1" gradientUnits="userSpaceOnUse" gradientTransform="translate(419.523 399.431) rotate(58.8008) scale(44.3017 61.8916)">
<stop stop-color="#C29632"/>
<stop offset="1" stop-color="#C29632" stop-opacity="0"/>
</radialGradient>
<radialGradient id="paint6_radial_59_438" cx="0" cy="0" r="1" gradientUnits="userSpaceOnUse" gradientTransform="translate(466.837 411.376) rotate(133.197) scale(35.5962 49.5123)">
<stop stop-color="#664700"/>
<stop offset="1" stop-color="#664700"/>
</radialGradient>
<radialGradient id="paint7_radial_59_438" cx="0" cy="0" r="1" gradientUnits="userSpaceOnUse" gradientTransform="translate(421.357 441.833) rotate(-33.8093) scale(54.7371 76.1278)">
<stop stop-color="#402200"/>
<stop offset="1" stop-color="#402200" stop-opacity="0"/>
</radialGradient>
<clipPath id="clip0_59_438">
<rect width="438.163" height="262.517" rx="24" transform="matrix(0.977964 0.208773 -0.207054 0.97833 1203.49 492.986)" fill="white"/>
</clipPath>
<clipPath id="clip1_59_438">
<rect width="438.163" height="262.517" rx="24" transform="matrix(0.977964 -0.208773 0.207054 0.97833 360.016 329.881)" fill="white"/>
</clipPath>
</defs>
</svg>
