<svg width="1920" height="1080" viewBox="0 0 1920 1080" fill="none" xmlns="http://www.w3.org/2000/svg">
<path opacity="0.24" fill-rule="evenodd" clip-rule="evenodd" d="M413.437 615.27C422.685 812.619 633.788 903.691 822.824 962.426C1001.85 1018.05 1213.82 1047.99 1327.67 899.331C1447.74 742.569 1395.52 525.902 1279.54 366.109C1162.92 205.435 975.852 96.4395 784.819 151.396C574.128 212.008 403.195 396.705 413.437 615.27Z" fill="#9BD0C9"/>
<path d="M638.849 510.562C635.593 525.86 620.537 535.627 605.222 532.375L411.096 491.158C395.781 487.907 386.003 472.867 389.259 457.569L415.785 332.912C419.04 317.614 434.096 307.847 449.412 311.099L643.537 352.316C658.852 355.568 668.63 370.607 665.375 385.905L638.849 510.562Z" fill="#0B3C6F"/>
<path d="M632.215 502.088C628.96 517.386 613.904 527.153 598.588 523.901L404.463 482.684C389.148 479.432 379.37 464.393 382.625 449.095L409.151 324.438C412.407 309.14 427.463 299.373 442.778 302.625L636.904 343.842C652.219 347.093 661.997 362.133 658.741 377.431L632.215 502.088Z" fill="#B5C2E7"/>
<path fill-rule="evenodd" clip-rule="evenodd" d="M442.778 302.625L636.904 343.842C652.219 347.093 661.997 362.133 658.741 377.431L657.254 384.418L574.837 437.596L624.925 514.654C625.013 514.791 625.06 514.939 625.106 515.084C625.137 515.181 625.167 515.276 625.208 515.366C622.011 518.813 618.033 521.399 613.573 522.913C613.502 522.824 613.416 522.749 613.331 522.674C613.224 522.58 613.117 522.487 613.038 522.365L562.927 445.28L534.721 463.48C518.786 473.799 497.336 469.244 486.994 453.346L468.841 425.491L391.887 475.41C391.758 475.494 391.621 475.537 391.484 475.579C391.38 475.611 391.276 475.643 391.175 475.693C387.725 472.493 385.136 468.519 383.619 464.071C383.709 464 383.782 463.915 383.857 463.829C383.949 463.723 384.043 463.615 384.169 463.53L461.105 413.622L407.633 331.571L409.151 324.438C412.407 309.14 427.463 299.373 442.778 302.625ZM442.778 302.625L636.904 343.842C647.92 346.181 655.973 354.651 658.475 364.889L534.333 445.418C521.209 453.938 503.641 450.208 495.113 437.091L414.501 313.088C420.956 304.752 431.768 300.287 442.778 302.625Z" fill="#9CAAD2"/>
<path d="M636.904 343.842L442.778 302.625C431.768 300.287 420.956 304.752 414.501 313.088L495.113 437.091C503.641 450.208 521.209 453.938 534.333 445.418L658.475 364.889C655.973 354.651 647.92 346.181 636.904 343.842Z" fill="#CFD9F4"/>
<path d="M789.789 263.749C795.153 278.485 787.554 294.781 772.818 300.144L586.037 368.127C571.301 373.49 555.006 365.892 549.642 351.156L505.939 231.082C500.576 216.347 508.174 200.051 522.91 194.687L709.691 126.705C724.427 121.341 740.723 128.94 746.086 143.676L789.789 263.749Z" fill="#0B3C6F"/>
<path d="M779.653 260.064C785.016 274.8 777.417 291.096 762.681 296.459L575.9 364.442C561.165 369.805 544.869 362.207 539.505 347.471L495.802 227.397C490.439 212.662 498.038 196.366 512.773 191.002L699.555 123.02C714.29 117.656 730.586 125.255 735.949 139.991L779.653 260.064Z" fill="#CFD9F4"/>
<path fill-rule="evenodd" clip-rule="evenodd" d="M512.773 191.002L699.555 123.02C714.29 117.656 730.586 125.255 735.949 139.991L738.398 146.722L696.652 235.68L780.137 274.619C780.285 274.688 780.403 274.789 780.52 274.889C780.597 274.954 780.673 275.02 780.756 275.074C779.872 279.701 777.868 284.012 774.884 287.666C774.776 287.628 774.664 287.61 774.551 287.592C774.41 287.569 774.269 287.546 774.138 287.485L690.619 248.535L676.332 278.98C668.28 296.211 647.641 303.723 630.411 295.694L600.192 281.643L561.354 364.931C561.289 365.071 561.195 365.18 561.101 365.289C561.03 365.371 560.959 365.454 560.9 365.55C556.269 364.659 551.959 362.655 548.307 359.678C548.345 359.57 548.363 359.458 548.38 359.346C548.402 359.206 548.424 359.065 548.486 358.925L587.315 275.656L498.302 234.268L495.802 227.397C490.439 212.662 498.038 196.366 512.773 191.002ZM512.773 191.002L699.555 123.02C710.154 119.162 721.494 122.09 729.06 129.467L666.406 263.828C659.786 278.038 642.882 284.19 628.67 277.563L494.316 214.907C495.369 204.393 502.18 194.858 512.773 191.002Z" fill="#9CAAD2"/>
<path d="M699.555 123.02L512.773 191.002C502.18 194.858 495.369 204.393 494.316 214.907L628.67 277.563C642.882 284.19 659.786 278.038 666.406 263.828L729.06 129.467C721.494 122.09 710.154 119.162 699.555 123.02Z" fill="#EAEFFD"/>
<path d="M882.717 604.582C884.9 620.111 874.079 634.47 858.55 636.653L661.716 664.316C646.187 666.498 631.828 655.678 629.645 640.149L611.862 513.613C609.679 498.084 620.5 483.724 636.029 481.542L832.863 453.879C848.392 451.696 862.751 462.517 864.934 478.046L882.717 604.582Z" fill="#0B3C6F"/>
<path d="M873.568 598.87C875.751 614.399 864.93 628.758 849.401 630.941L652.567 658.604C637.038 660.786 622.678 649.965 620.496 634.437L602.713 507.901C600.53 492.372 611.351 478.012 626.88 475.83L823.714 448.166C839.242 445.984 853.602 456.805 855.785 472.334L873.568 598.87Z" fill="#B5C2E7"/>
<path fill-rule="evenodd" clip-rule="evenodd" d="M626.88 475.83L823.714 448.166C839.242 445.984 853.602 456.805 855.785 472.334L856.781 479.426L797.451 557.761L871.016 613.207C871.146 613.305 871.241 613.429 871.334 613.55C871.396 613.631 871.457 613.71 871.527 613.78C869.7 618.123 866.843 621.923 863.165 624.877C863.068 624.817 862.961 624.776 862.855 624.735C862.722 624.683 862.589 624.631 862.473 624.544L788.878 569.081L768.573 595.89C757.115 611.071 735.364 614.128 720.18 602.691L693.543 582.665L638.237 656.058C638.144 656.182 638.03 656.269 637.915 656.356C637.829 656.421 637.742 656.487 637.664 656.569C633.32 654.735 629.52 651.878 626.567 648.207C626.627 648.109 626.667 648.004 626.708 647.897C626.758 647.765 626.809 647.632 626.899 647.508L682.192 574.132L603.729 515.141L602.713 507.901C600.53 492.372 611.351 478.012 626.88 475.83ZM626.88 475.83L823.714 448.166C834.884 446.597 845.367 451.819 851.234 460.608L762.014 579.006C752.584 591.529 734.77 594.032 722.247 584.595L603.856 495.374C607.072 485.309 615.717 477.399 626.88 475.83Z" fill="#9CAAD2"/>
<path d="M823.714 448.166L626.88 475.83C615.717 477.399 607.072 485.309 603.856 495.374L722.247 584.595C734.77 594.032 752.584 591.529 762.014 579.006L851.234 460.608C845.367 451.819 834.884 446.597 823.714 448.166Z" fill="#CFD9F4"/>
<path d="M981.284 536.066C973.922 549.912 956.727 555.169 942.881 547.807L767.379 454.491C753.533 447.129 748.276 429.934 755.638 416.088L815.627 303.266C822.989 289.42 840.184 284.163 854.03 291.525L1029.53 384.841C1043.38 392.203 1048.63 409.398 1041.27 423.244L981.284 536.066Z" fill="#0B3C6F"/>
<path d="M977.24 526.067C969.878 539.913 952.683 545.17 938.837 537.808L763.335 444.492C749.489 437.13 744.232 419.935 751.594 406.09L811.583 293.267C818.945 279.421 836.14 274.164 849.986 281.526L1025.49 374.842C1039.33 382.204 1044.59 399.399 1037.23 413.245L977.24 526.067Z" fill="#CFD9F4"/>
<path fill-rule="evenodd" clip-rule="evenodd" d="M849.986 281.526L1025.49 374.842C1039.33 382.204 1044.59 399.399 1037.23 413.245L1033.87 419.568L939.822 448.069L966.748 536.166C966.795 536.322 966.799 536.478 966.803 536.631C966.806 536.732 966.809 536.833 966.824 536.931C962.793 539.37 958.249 540.765 953.537 540.993C953.493 540.887 953.431 540.791 953.369 540.695C953.292 540.576 953.215 540.456 953.173 540.317L926.233 452.188L894.048 461.942C875.855 467.489 856.462 457.177 850.899 439L841.121 407.141L753.238 434.01C753.09 434.055 752.947 434.058 752.803 434.061C752.694 434.063 752.585 434.066 752.474 434.086C750.038 430.049 748.643 425.505 748.412 420.799C748.518 420.755 748.612 420.693 748.708 420.631C748.826 420.554 748.946 420.476 749.091 420.428L836.954 393.566L808.15 299.722L811.583 293.267C818.945 279.421 836.14 274.164 849.986 281.526ZM849.986 281.526L1025.49 374.842C1035.45 380.138 1040.86 390.525 1040.44 401.083L898.666 444.427C883.676 449.015 867.793 440.57 863.208 425.574L819.87 283.805C828.389 277.552 840.032 276.234 849.986 281.526Z" fill="#9CAAD2"/>
<path d="M1025.49 374.842L849.986 281.526C840.032 276.234 828.389 277.552 819.87 283.805L863.208 425.574C867.793 440.57 883.676 449.015 898.666 444.427L1040.44 401.083C1040.86 390.525 1035.45 380.138 1025.49 374.842Z" fill="#EAEFFD"/>
<path d="M1385.41 931.746C1381.62 946.961 1366.21 956.222 1350.99 952.428L1158.13 904.342C1142.91 900.548 1133.65 885.136 1137.45 869.92L1168.36 745.936C1172.15 730.721 1187.57 721.46 1202.78 725.254L1395.64 773.34C1410.86 777.134 1420.12 792.546 1416.33 807.762L1385.41 931.746Z" fill="#0B3C6F"/>
<path d="M1379.07 923.022C1375.28 938.238 1359.87 947.499 1344.65 943.705L1151.79 895.619C1136.57 891.825 1127.31 876.413 1131.1 861.197L1162.02 737.213C1165.81 721.997 1181.22 712.737 1196.44 716.531L1389.3 764.617C1404.52 768.411 1413.78 783.823 1409.98 799.038L1379.07 923.022Z" fill="#71C6BB"/>
<path fill-rule="evenodd" clip-rule="evenodd" d="M1196.44 716.531L1389.3 764.617C1404.52 768.411 1413.78 783.823 1409.98 799.038L1408.25 805.988L1323.9 856.393L1371.33 935.36C1371.42 935.499 1371.46 935.65 1371.5 935.797C1371.53 935.895 1371.56 935.991 1371.59 936.083C1368.27 939.425 1364.2 941.878 1359.68 943.239C1359.62 943.147 1359.53 943.069 1359.45 942.991C1359.35 942.893 1359.24 942.795 1359.17 942.671L1311.71 863.677L1282.84 880.928C1266.53 890.711 1245.22 885.397 1235.42 869.106L1218.23 840.559L1139.45 887.89C1139.32 887.97 1139.18 888.007 1139.04 888.045C1138.94 888.074 1138.83 888.102 1138.73 888.149C1135.39 884.821 1132.94 880.749 1131.57 876.239C1131.67 876.171 1131.74 876.088 1131.82 876.004C1131.92 875.901 1132.01 875.796 1132.14 875.715L1210.9 828.395L1160.25 744.307L1162.02 737.213C1165.81 721.997 1181.22 712.737 1196.44 716.531ZM1196.44 716.531L1389.3 764.617C1400.25 767.346 1408.01 776.115 1410.16 786.461L1283.08 862.816C1269.65 870.894 1252.19 866.542 1244.12 853.101L1167.77 726.027C1174.52 717.9 1185.5 713.803 1196.44 716.531Z" fill="#25A292"/>
<path d="M1389.3 764.617L1196.44 716.531C1185.5 713.803 1174.52 717.9 1167.77 726.027L1244.12 853.101C1252.19 866.542 1269.65 870.894 1283.08 862.816L1410.16 786.461C1408.01 776.115 1400.25 767.346 1389.3 764.617Z" fill="#9BD0C9"/>
<path d="M1507.03 812.809C1510 812.76 1512.36 810.317 1512.29 807.351C1512.22 804.386 1509.75 802.022 1506.78 802.071L1463.72 802.779C1460.75 802.828 1458.39 805.271 1458.46 808.236C1458.53 811.201 1461 813.566 1463.97 813.517L1507.03 812.809Z" fill="#156DCB"/>
<path d="M1447.18 713.932C1448.42 711.245 1447.24 708.049 1444.53 706.793C1441.83 705.537 1438.64 706.697 1437.4 709.383L1419.44 748.299C1418.2 750.986 1419.38 754.182 1422.08 755.438C1424.79 756.694 1427.98 755.534 1429.22 752.847L1447.18 713.932Z" fill="#156DCB"/>
<path d="M1491.67 755.231C1494.15 753.619 1494.84 750.294 1493.2 747.805C1491.57 745.316 1488.23 744.606 1485.75 746.219L1449.77 769.58C1447.29 771.193 1446.6 774.518 1448.24 777.007C1449.87 779.496 1453.21 780.206 1455.69 778.593L1491.67 755.231Z" fill="#156DCB"/>
<path d="M998.993 772.803C1000.5 773.396 1003.91 774.811 1007.87 776.124C1009.84 776.818 1011.93 777.538 1014 778.157C1016.06 778.788 1018.04 779.47 1019.8 779.937C1036.01 784.785 1052.81 787.434 1069.52 787.554C1072.13 787.54 1076.55 787.817 1076.71 783.784C1076.87 779.574 1074.17 776.933 1069.81 776.771C1059.23 776.269 1048.47 775.742 1038.31 772.864C1023.52 768.71 1008.83 764.519 995.28 757.723C989.228 754.653 983.38 751.229 977.762 747.502C972.171 743.699 966.975 739.479 962.162 734.829C953.299 725.882 946.274 715.367 940.624 704.396C935.679 694.993 931.118 685.134 929.256 674.541C929.045 673.29 929.026 671.899 928.994 670.471C929.038 669.042 929.172 667.601 929.05 666.236C928.742 663.973 928.924 660.219 928.59 657.956C928.416 656.97 928.395 655.959 928.628 655.023C929.778 650.788 928.436 649.373 923.689 650.247C922.633 650.462 921.351 649.868 920.545 650.943C920.507 650.981 920.443 651.07 920.405 651.108C918.808 652.714 918.241 654.534 918.016 656.367C917.932 658.213 918.204 660.084 918.12 661.955C917.748 680.348 923.214 698.398 932.048 714.197C937.538 723.916 944.495 732.661 951.95 740.913C953.936 743.226 955.846 745.69 958.394 747.497L958.356 747.459C959.496 748.622 960.712 749.683 961.928 750.77C963.157 751.844 964.361 752.943 965.679 753.903C975.529 761.143 986.59 767.713 997.457 772.007C997.851 772.146 998.358 772.55 998.993 772.803Z" fill="#B2D4D0"/>
<path d="M1062.59 785.861C1061.62 786.216 1058.26 787.607 1056.05 788.329C1050.93 789.999 1045.84 791.796 1041.2 794.807C1040.47 795.275 1039.13 795.768 1040.5 799.573C1041.92 803.529 1043.64 805.526 1044.98 804.881C1048.19 803.337 1051.24 801.25 1054.82 800.756C1060.03 800.046 1064.72 797.794 1069.65 796.288L1071.34 795.743L1074.3 794.731C1076.3 794.086 1078.25 793.289 1079.65 792.302C1081.07 791.328 1082.17 790.215 1082.95 788.862C1083.75 787.56 1084.13 785.701 1083.96 784.083L1083.93 783.906C1083.71 782.415 1083.25 781.239 1082.44 779.95C1081.66 778.661 1080.24 777.296 1078.54 776.109L1076.04 774.251L1074.76 773.304L1074.04 772.735C1073.19 772.065 1072.3 771.434 1071.4 770.84C1068.27 768.806 1064.56 767.619 1061.24 765.876C1060.45 765.471 1060 764.258 1059.16 763.778C1058.46 763.386 1057.35 762.679 1056.48 762.527C1056.11 762.464 1055.71 762.439 1055.52 762.123C1054.62 760.695 1053.46 761.694 1051.3 765.841C1050.83 766.739 1049.97 767.789 1049.89 768.572C1049.89 768.598 1049.88 768.661 1049.88 768.712C1049.26 771.67 1050.94 771.214 1051.88 771.922C1056.46 775.333 1061.21 778.517 1065.89 781.789L1067.94 783.179C1068.09 783.28 1068.23 783.369 1068.35 783.482C1068.59 783.697 1068.81 783.925 1068.57 784.14C1068.52 784.19 1068.34 784.241 1068.16 784.266C1067.9 784.329 1067.66 784.317 1068 784.406C1067.72 784.456 1067.29 784.33 1067.3 784.343C1067.29 784.38 1067.16 784.33 1067.15 784.292L1067.13 784.279L1065.78 784.76C1064.89 785.089 1064.01 785.456 1063.16 785.848C1063.03 785.899 1062.79 785.785 1062.59 785.861Z" fill="#B2D4D0"/>
</svg>
