<svg width="1920" height="1080" viewBox="0 0 1920 1080" fill="none" xmlns="http://www.w3.org/2000/svg">
<path opacity="0.24" fill-rule="evenodd" clip-rule="evenodd" d="M1476.56 522.69C1467.16 322.848 1252.62 230.626 1060.51 171.149C878.566 114.822 663.147 84.5053 547.437 235.042C425.421 393.783 478.492 613.186 596.359 774.997C714.876 937.701 904.987 1048.07 1099.13 992.422C1313.25 931.045 1486.96 744.015 1476.56 522.69Z" fill="#9BD0C9"/>
<path d="M1001.86 833.491C992.369 830.946 986.738 821.185 989.281 811.688L1095.16 416.19C1097.71 406.693 1107.46 401.057 1116.95 403.602L1340.3 463.5C1349.79 466.044 1355.42 475.806 1352.88 485.303L1247 880.801C1244.45 890.298 1234.7 895.934 1225.21 893.389L1001.86 833.491Z" fill="#2F3860"/>
<path d="M995.188 833.491C985.699 830.946 980.068 821.185 982.61 811.688L1088.49 416.19C1091.04 406.693 1100.79 401.057 1110.28 403.602L1333.63 463.5C1343.12 466.044 1348.75 475.806 1346.21 485.303L1240.33 880.801C1237.78 890.298 1228.03 895.934 1218.54 893.389L995.188 833.491Z" fill="#0B6B5F"/>
<path fill-rule="evenodd" clip-rule="evenodd" d="M1215.37 853.444C1215.62 854.416 1215.03 855.405 1214.06 855.653C1208.25 857.141 1202.13 857.1 1196.3 855.538C1190.48 853.975 1185.15 850.945 1180.86 846.748C1180.15 846.049 1180.13 844.899 1180.83 844.18C1181.53 843.46 1182.67 843.444 1183.38 844.142C1187.23 847.904 1192.01 850.625 1197.24 852.028C1202.47 853.432 1207.97 853.467 1213.18 852.133C1214.15 851.885 1215.13 852.472 1215.37 853.444ZM1213.72 845.76C1213.96 846.731 1213.38 847.72 1212.41 847.968C1207.81 849.146 1202.96 849.113 1198.35 847.877C1193.74 846.641 1189.53 844.244 1186.13 840.922C1185.42 840.223 1185.41 839.073 1186.1 838.354C1186.8 837.634 1187.94 837.617 1188.66 838.316C1191.61 841.202 1195.27 843.29 1199.29 844.368C1203.31 845.445 1207.53 845.472 1211.52 844.448C1212.49 844.201 1213.47 844.788 1213.72 845.76ZM1212.26 838.466C1212.5 839.439 1211.91 840.425 1210.95 840.668C1207.51 841.532 1203.89 841.498 1200.44 840.574C1197 839.65 1193.84 837.867 1191.3 835.4C1190.58 834.704 1190.56 833.555 1191.26 832.832C1191.95 832.109 1193.09 832.087 1193.81 832.783C1195.91 834.819 1198.52 836.298 1201.38 837.065C1204.24 837.831 1207.24 837.857 1210.08 837.145C1211.05 836.902 1212.03 837.493 1212.26 838.466ZM1210.53 830.985C1210.83 831.941 1210.3 832.962 1209.35 833.267C1207.03 834.011 1204.56 834.075 1202.21 833.448C1199.87 832.82 1197.76 831.527 1196.13 829.722C1195.46 828.981 1195.51 827.833 1196.25 827.156C1196.99 826.479 1198.13 826.531 1198.8 827.271C1199.98 828.568 1201.49 829.491 1203.15 829.938C1204.82 830.386 1206.59 830.342 1208.26 829.808C1209.21 829.503 1210.23 830.03 1210.53 830.985Z" fill="white"/>
<path fill-rule="evenodd" clip-rule="evenodd" d="M1021.56 775.27C1016.7 793.425 1027.17 812.008 1044.95 816.775C1062.73 821.542 1081.08 810.688 1085.94 792.533C1088.11 784.396 1087.21 776.173 1083.96 769.147C1090.29 764.692 1095.18 758.022 1097.35 749.885C1102.21 731.73 1091.74 713.147 1073.97 708.38C1056.19 703.613 1037.84 714.467 1032.98 732.622C1030.8 740.759 1031.7 748.982 1034.96 756.008C1028.63 760.463 1023.74 767.133 1021.56 775.27Z" fill="#ED0006"/>
<path fill-rule="evenodd" clip-rule="evenodd" d="M1034.96 756.008C1038.97 764.659 1046.56 771.497 1056.37 774.127C1066.18 776.758 1076.16 774.632 1083.96 769.147C1087.21 776.173 1088.11 784.396 1085.94 792.533C1081.08 810.688 1062.73 821.542 1044.95 816.775C1027.17 812.008 1016.7 793.425 1021.56 775.27C1023.74 767.133 1028.63 760.463 1034.96 756.008Z" fill="#F9A000"/>
<path fill-rule="evenodd" clip-rule="evenodd" d="M1034.96 756.008C1038.97 764.659 1046.56 771.497 1056.37 774.127C1066.18 776.758 1076.16 774.632 1083.96 769.147C1079.95 760.496 1072.36 753.659 1062.55 751.029C1052.74 748.398 1042.76 750.523 1034.96 756.008Z" fill="#FF5E00"/>
<path d="M1126.05 136.987C1127.78 130.525 1134.41 126.686 1140.85 128.414L1444.11 209.74C1450.55 211.468 1454.37 218.107 1452.64 224.569L1321.06 716.017C1319.33 722.479 1312.71 726.317 1306.27 724.59L1003.01 643.263C996.569 641.536 992.75 634.897 994.48 628.434L1126.05 136.987Z" fill="#3DB4A4"/>
<path fill-rule="evenodd" clip-rule="evenodd" d="M1461.17 239.398C1464.63 226.474 1456.99 213.195 1444.11 209.74C1450.55 211.468 1454.37 218.107 1452.64 224.569L1321.06 716.017C1319.33 722.479 1312.71 726.317 1306.27 724.59C1319.15 728.045 1332.4 720.368 1335.86 707.443L1461.17 239.398Z" fill="#2F3860"/>
<path d="M1139.11 228.279C1140.84 221.816 1147.47 217.978 1153.91 219.706L1387.19 282.264C1393.63 283.992 1397.45 290.631 1395.72 297.093L1376.92 367.3C1375.19 373.762 1368.57 377.601 1362.12 375.873L1128.85 313.315C1122.41 311.587 1118.59 304.948 1120.32 298.485L1139.11 228.279Z" fill="#0B3C6F"/>
<path d="M1151.64 181.474C1153.37 175.012 1160 171.174 1166.44 172.901L1236.42 191.669C1242.87 193.396 1246.68 200.035 1244.95 206.498C1243.22 212.96 1236.6 216.798 1230.16 215.071L1160.18 196.303C1153.73 194.576 1149.91 187.937 1151.64 181.474Z" fill="#9BD0C9"/>
<path d="M1256.62 209.626C1258.35 203.163 1264.97 199.325 1271.41 201.052L1283.08 204.18C1289.52 205.908 1293.34 212.547 1291.61 219.009C1289.88 225.472 1283.25 229.31 1276.81 227.583L1265.15 224.455C1258.71 222.727 1254.89 216.088 1256.62 209.626Z" fill="#9BD0C9"/>
<path d="M1373.26 240.905C1374.99 234.443 1381.61 230.604 1388.05 232.332C1394.49 234.059 1398.31 240.699 1396.58 247.161C1394.85 253.623 1388.23 257.462 1381.79 255.734C1375.35 254.007 1371.53 247.367 1373.26 240.905Z" fill="#156DCB"/>
<path d="M1338.26 231.521C1339.99 225.059 1346.62 221.221 1353.06 222.948C1359.5 224.676 1363.32 231.315 1361.59 237.777C1359.86 244.239 1353.24 248.078 1346.8 246.35C1340.35 244.623 1336.53 237.984 1338.26 231.521Z" fill="#9BD0C9"/>
<path d="M1107.79 345.29C1109.52 338.828 1116.14 334.989 1122.58 336.717L1145.91 342.973C1152.35 344.7 1156.17 351.339 1154.44 357.802L1148.18 381.204C1146.45 387.666 1139.82 391.505 1133.38 389.777L1110.05 383.521C1103.61 381.794 1099.79 375.155 1101.52 368.692L1107.79 345.29Z" fill="white"/>
<path d="M1088.99 415.497C1090.72 409.034 1097.35 405.196 1103.79 406.924L1127.12 413.179C1133.56 414.907 1137.38 421.546 1135.65 428.009L1129.38 451.411C1127.65 457.873 1121.03 461.711 1114.58 459.984L1091.26 453.728C1084.82 452.001 1081 445.361 1082.73 438.899L1088.99 415.497Z" fill="white"/>
<path d="M1070.2 485.703C1071.93 479.241 1078.55 475.403 1084.99 477.13L1108.32 483.386C1114.76 485.114 1118.58 491.753 1116.85 498.215L1110.59 521.617C1108.86 528.08 1102.23 531.918 1095.79 530.191L1072.46 523.935C1066.02 522.207 1062.2 515.568 1063.93 509.106L1070.2 485.703Z" fill="white"/>
<path d="M1051.4 555.91C1053.13 549.448 1059.75 545.61 1066.2 547.337L1159.51 572.36C1165.95 574.088 1169.77 580.727 1168.04 587.19L1161.77 610.592C1160.04 617.054 1153.42 620.893 1146.98 619.165L1053.67 594.142C1047.22 592.414 1043.4 585.775 1045.13 579.312L1051.4 555.91Z" fill="white"/>
<path d="M1177.77 364.058C1179.5 357.595 1186.12 353.757 1192.57 355.484L1215.89 361.74C1222.34 363.468 1226.15 370.107 1224.42 376.569L1218.16 399.972C1216.43 406.434 1209.8 410.272 1203.36 408.545L1180.04 402.289C1173.59 400.561 1169.77 393.922 1171.5 387.46L1177.77 364.058Z" fill="white"/>
<path d="M1158.97 434.264C1160.7 427.802 1167.33 423.964 1173.77 425.691L1197.1 431.947C1203.54 433.675 1207.36 440.314 1205.63 446.776L1199.36 470.178C1197.63 476.641 1191.01 480.479 1184.57 478.752L1161.24 472.496C1154.8 470.768 1150.98 464.129 1152.71 457.667L1158.97 434.264Z" fill="white"/>
<path d="M1140.18 504.471C1141.91 498.009 1148.53 494.17 1154.97 495.898L1178.3 502.154C1184.74 503.881 1188.56 510.52 1186.83 516.983L1180.57 540.385C1178.84 546.847 1172.21 550.686 1165.77 548.958L1142.44 542.702C1136 540.975 1132.18 534.336 1133.91 527.873L1140.18 504.471Z" fill="white"/>
<path d="M1247.75 382.825C1249.48 376.363 1256.11 372.525 1262.55 374.252L1285.88 380.508C1292.32 382.235 1296.14 388.875 1294.41 395.337L1288.14 418.739C1286.41 425.202 1279.79 429.04 1273.35 427.312L1250.02 421.057C1243.58 419.329 1239.76 412.69 1241.49 406.227L1247.75 382.825Z" fill="white"/>
<path d="M1228.96 453.032C1230.69 446.57 1237.31 442.731 1243.75 444.459L1267.08 450.715C1273.52 452.442 1277.34 459.081 1275.61 465.544L1269.35 488.946C1267.62 495.408 1260.99 499.247 1254.55 497.519L1231.22 491.263C1224.78 489.536 1220.96 482.897 1222.69 476.434L1228.96 453.032Z" fill="white"/>
<path d="M1210.16 523.239C1211.89 516.776 1218.52 512.938 1224.96 514.666L1248.28 520.921C1254.73 522.649 1258.55 529.288 1256.82 535.75L1250.55 559.153C1248.82 565.615 1242.2 569.453 1235.75 567.726L1212.43 561.47C1205.98 559.743 1202.17 553.103 1203.9 546.641L1210.16 523.239Z" fill="white"/>
<path d="M1191.36 593.445C1193.09 586.983 1199.72 583.145 1206.16 584.872L1229.49 591.128C1235.93 592.856 1239.75 599.495 1238.02 605.957L1231.75 629.359C1230.02 635.822 1223.4 639.66 1216.96 637.933L1193.63 631.677C1187.19 629.949 1183.37 623.31 1185.1 616.848L1191.36 593.445Z" fill="white"/>
<path d="M1317.73 401.593C1319.46 395.13 1326.09 391.292 1332.53 393.02L1355.86 399.276C1362.3 401.003 1366.12 407.642 1364.39 414.105L1358.12 437.507C1356.39 443.969 1349.77 447.808 1343.33 446.08L1320 439.824C1313.56 438.097 1309.74 431.457 1311.47 424.995L1317.73 401.593Z" fill="#86CCC3"/>
<path d="M1298.94 471.8C1300.67 465.337 1307.29 461.499 1313.74 463.226L1337.06 469.482C1343.5 471.21 1347.32 477.849 1345.59 484.311L1339.33 507.714C1337.6 514.176 1330.97 518.014 1324.53 516.287L1301.2 510.031C1294.76 508.303 1290.94 501.664 1292.67 495.202L1298.94 471.8Z" fill="#86CCC3"/>
<path d="M1280.14 542.006C1281.87 535.544 1288.5 531.706 1294.94 533.433L1318.27 539.689C1324.71 541.417 1328.53 548.056 1326.8 554.518L1320.53 577.92C1318.8 584.383 1312.18 588.221 1305.74 586.493L1282.41 580.238C1275.97 578.51 1272.15 571.871 1273.88 565.409L1280.14 542.006Z" fill="#86CCC3"/>
<path d="M1261.35 612.213C1263.08 605.751 1269.7 601.912 1276.14 603.64L1299.47 609.896C1305.91 611.623 1309.73 618.262 1308 624.725L1301.74 648.127C1300.01 654.589 1293.38 658.428 1286.94 656.7L1263.61 650.444C1257.17 648.717 1253.35 642.078 1255.08 635.615L1261.35 612.213Z" fill="#156DCB"/>
<path d="M1312.4 936.761C1314.17 937.453 1315.03 939.442 1314.33 941.204C1313.63 942.967 1311.62 943.835 1309.85 943.144L1284.19 933.131C1282.42 932.439 1281.55 930.45 1282.25 928.688C1282.96 926.925 1284.96 926.057 1286.73 926.748L1312.4 936.761Z" fill="#156DCB"/>
<path d="M1254.49 982.728C1254.63 984.615 1253.21 986.267 1251.31 986.419C1249.41 986.57 1247.75 985.163 1247.61 983.276L1245.5 955.939C1245.36 954.052 1246.78 952.4 1248.68 952.248C1250.58 952.097 1252.24 953.504 1252.38 955.391L1254.49 982.728Z" fill="#156DCB"/>
<path d="M1290.36 967.868C1291.49 969.388 1291.16 971.535 1289.63 972.663C1288.09 973.792 1285.93 973.474 1284.8 971.954L1268.43 949.933C1267.3 948.413 1267.63 946.266 1269.16 945.137C1270.7 944.009 1272.86 944.327 1273.99 945.847L1290.36 967.868Z" fill="#156DCB"/>
<path fill-rule="evenodd" clip-rule="evenodd" d="M782.051 80.073C780.773 75.3147 775.872 72.4909 771.103 73.7659L600.567 119.36C595.798 120.635 592.968 125.526 594.246 130.284L679.106 446.286C679.646 448.296 682.408 448.538 683.29 446.652L684.891 443.228C685.348 442.253 686.571 441.926 687.455 442.543L696.127 448.597C697.265 449.391 698.846 448.968 699.433 447.713L703.909 438.144C704.365 437.169 705.589 436.841 706.473 437.458L715.145 443.512C716.283 444.306 717.864 443.884 718.451 442.628L722.927 433.059C723.383 432.084 724.607 431.757 725.491 432.374L734.163 438.427C735.3 439.222 736.881 438.799 737.469 437.544L741.945 427.975C742.401 426.999 743.625 426.672 744.509 427.289L754.081 433.972C755.241 434.782 756.854 434.325 757.414 433.027L761.832 422.802C762.276 421.775 763.56 421.432 764.459 422.1L773.165 428.57C774.322 429.43 775.981 428.987 776.552 427.665L780.85 417.718C781.294 416.691 782.578 416.347 783.477 417.016L792.426 423.667C793.562 424.511 795.188 424.102 795.786 422.821L800.728 412.259C801.184 411.284 802.408 410.956 803.291 411.573L811.963 417.627C813.101 418.421 814.682 417.999 815.269 416.743L819.745 407.174C820.202 406.199 821.425 405.872 822.309 406.489L830.981 412.542C832.119 413.337 833.7 412.914 834.287 411.659L838.763 402.09C839.219 401.114 840.443 400.787 841.327 401.404L849.999 407.458C851.137 408.252 852.717 407.83 853.305 406.574L857.781 397.005C858.237 396.03 859.461 395.703 860.345 396.32L863.479 398.508C865.188 399.701 867.459 398.114 866.919 396.103L782.051 80.073Z" fill="#2F3860"/>
<path fill-rule="evenodd" clip-rule="evenodd" d="M773.112 75.6132C771.834 70.8549 766.932 68.0312 762.163 69.3061L591.628 114.9C586.859 116.175 584.029 121.066 585.307 125.824L670.167 441.826C670.707 443.836 673.468 444.078 674.351 442.192L675.952 438.768C676.408 437.793 677.632 437.466 678.516 438.083L687.187 444.137C688.325 444.931 689.906 444.509 690.494 443.253L694.97 433.684C695.426 432.709 696.65 432.382 697.534 432.999L706.205 439.052C707.343 439.847 708.924 439.424 709.512 438.168L713.988 428.599C714.444 427.624 715.668 427.297 716.552 427.914L725.223 433.968C726.361 434.762 727.942 434.339 728.529 433.084L733.006 423.515C733.462 422.54 734.686 422.212 735.569 422.829L745.142 429.512C746.302 430.322 747.915 429.865 748.475 428.568L752.893 418.343C753.336 417.316 754.621 416.972 755.52 417.64L764.226 424.111C765.383 424.971 767.042 424.527 767.613 423.205L771.911 413.258C772.354 412.231 773.639 411.888 774.537 412.556L783.487 419.207C784.623 420.051 786.248 419.642 786.847 418.362L791.788 407.799C792.244 406.824 793.468 406.497 794.352 407.114L803.024 413.167C804.162 413.962 805.742 413.539 806.33 412.283L810.806 402.714C811.262 401.739 812.486 401.412 813.37 402.029L822.041 408.083C823.179 408.877 824.76 408.455 825.348 407.199L829.824 397.63C830.28 396.655 831.504 396.327 832.388 396.944L841.059 402.998C842.197 403.793 843.778 403.37 844.366 402.114L848.842 392.545C849.298 391.57 850.522 391.243 851.406 391.86L854.54 394.048C856.249 395.241 858.52 393.654 857.98 391.644L773.112 75.6132Z" fill="#F3F6FF"/>
<path d="M669.727 165.562C669.088 163.183 670.503 160.738 672.888 160.1L716.061 148.558C718.446 147.92 720.896 149.332 721.535 151.711C722.174 154.09 720.759 156.536 718.375 157.173L675.201 168.716C672.817 169.354 670.366 167.942 669.727 165.562Z" fill="#CFD9F4"/>
<path d="M648.45 189.719C647.811 187.34 649.226 184.895 651.611 184.257L746.593 158.863C748.977 158.226 751.428 159.638 752.067 162.017C752.706 164.396 751.291 166.841 748.906 167.479L653.924 192.873C651.54 193.51 649.089 192.099 648.45 189.719Z" fill="#CFD9F4"/>
<path d="M633.536 237.569C632.897 235.19 634.312 232.745 636.696 232.107L664.759 224.604C667.144 223.967 669.595 225.379 670.234 227.758C670.872 230.137 669.457 232.582 667.073 233.22L639.01 240.723C636.626 241.36 634.175 239.948 633.536 237.569Z" fill="#CFD9F4"/>
<path d="M755.042 242.021C754.403 239.641 755.818 237.196 758.202 236.558L786.265 229.056C788.65 228.418 791.101 229.83 791.739 232.209C792.378 234.588 790.963 237.034 788.579 237.671L760.516 245.174C758.132 245.812 755.681 244.4 755.042 242.021Z" fill="#CFD9F4"/>
<path d="M759.669 259.252C759.03 256.873 760.445 254.427 762.83 253.79L790.893 246.287C793.277 245.649 795.728 247.061 796.367 249.44C797.006 251.82 795.591 254.265 793.206 254.903L765.143 262.405C762.759 263.043 760.308 261.631 759.669 259.252Z" fill="#CFD9F4"/>
<path d="M775.865 319.561C775.226 317.182 776.641 314.736 779.025 314.099L807.088 306.596C809.473 305.959 811.924 307.371 812.562 309.75C813.201 312.129 811.786 314.574 809.402 315.212L781.339 322.715C778.955 323.352 776.504 321.94 775.865 319.561Z" fill="#CFD9F4"/>
<path d="M780.492 336.792C779.853 334.413 781.268 331.968 783.653 331.33L811.716 323.827C814.1 323.19 816.551 324.602 817.19 326.981C817.829 329.36 816.414 331.806 814.029 332.443L785.966 339.946C783.582 340.583 781.131 339.171 780.492 336.792Z" fill="#CFD9F4"/>
<path d="M642.791 272.032C642.152 269.653 643.567 267.207 645.951 266.57L740.933 241.176C743.317 240.538 745.768 241.95 746.407 244.329C747.046 246.708 745.631 249.154 743.247 249.791L648.265 275.185C645.88 275.823 643.43 274.411 642.791 272.032Z" fill="#CFD9F4"/>
<path d="M647.418 289.263C646.779 286.884 648.194 284.438 650.578 283.801L711.021 267.641C713.406 267.003 715.857 268.415 716.496 270.795C717.135 273.174 715.72 275.619 713.335 276.257L652.892 292.416C650.508 293.054 648.057 291.642 647.418 289.263Z" fill="#CFD9F4"/>
<path d="M663.614 349.572C662.975 347.193 664.39 344.748 666.774 344.11L727.217 327.95C729.602 327.313 732.052 328.725 732.691 331.104C733.33 333.483 731.915 335.928 729.531 336.566L669.088 352.726C666.703 353.363 664.253 351.951 663.614 349.572Z" fill="#CFD9F4"/>
<path d="M675.182 392.65C674.543 390.271 675.958 387.826 678.342 387.188L818.657 349.674C821.041 349.037 823.492 350.449 824.131 352.828C824.77 355.207 823.355 357.652 820.97 358.29L680.656 395.804C678.272 396.441 675.821 395.029 675.182 392.65Z" fill="#CFD9F4"/>
<path d="M668.241 366.803C667.602 364.424 669.017 361.979 671.401 361.341L697.306 354.416C699.69 353.778 702.141 355.19 702.78 357.569C703.419 359.948 702.004 362.394 699.619 363.031L673.715 369.957C671.331 370.594 668.88 369.183 668.241 366.803Z" fill="#CFD9F4"/>
<path d="M707.963 118.403C711.158 130.299 704.083 142.526 692.161 145.713C680.239 148.901 667.984 141.841 664.79 129.946C661.595 118.05 668.67 105.823 680.592 102.635C692.514 99.4479 704.769 106.507 707.963 118.403Z" fill="#CFD9F4"/>
<path d="M646.802 741.925C637.269 773.104 604.266 790.652 573.087 781.12C541.907 771.587 524.359 738.584 533.891 707.404C543.424 676.225 576.427 658.677 607.607 668.209C638.786 677.742 656.334 710.745 646.802 741.925Z" fill="#2F3860"/>
<path d="M643.968 729.645C634.435 760.824 601.432 778.372 570.252 768.84C539.073 759.307 521.525 726.304 531.057 695.125C540.59 663.945 573.593 646.397 604.772 655.93C635.952 665.462 653.5 698.465 643.968 729.645Z" fill="#3DB4A4"/>
<path d="M580.33 683.399C587.379 685.555 590.72 691.933 588.694 698.557C586.669 705.181 580.333 708.601 573.284 706.445C566.165 704.269 562.825 697.891 564.85 691.267C566.875 684.643 573.211 681.223 580.33 683.399ZM556.55 730.528L606.841 693.089L617.9 696.47L567.608 733.909L556.55 730.528ZM575.457 699.338C577.737 700.036 579.972 698.908 580.815 696.148C581.68 693.319 580.416 691.273 578.136 690.575C575.855 689.878 573.663 690.868 572.798 693.697C571.933 696.526 573.176 698.641 575.457 699.338ZM601.463 720.569C608.513 722.724 611.853 729.102 609.828 735.726C607.803 742.35 601.467 745.77 594.417 743.615C587.298 741.438 583.958 735.06 585.983 728.436C588.008 721.812 594.344 718.392 601.463 720.569ZM596.59 736.508C598.871 737.205 601.105 736.077 601.949 733.317C602.814 730.488 601.55 728.442 599.269 727.745C596.988 727.047 594.796 728.037 593.932 730.866C593.067 733.695 594.309 735.81 596.59 736.508Z" fill="white"/>
<path d="M755.46 592.165C745.928 623.344 712.925 640.892 681.745 631.36C650.566 621.827 633.018 588.824 642.55 557.645C652.083 526.465 685.086 508.917 716.265 518.45C747.445 527.982 764.993 560.986 755.46 592.165Z" fill="#2F3860"/>
<path d="M752.626 579.885C743.094 611.064 710.09 628.613 678.911 619.08C647.732 609.548 630.183 576.544 639.716 545.365C649.248 514.186 682.252 496.637 713.431 506.17C744.61 515.702 762.159 548.706 752.626 579.885Z" fill="#158A7B"/>
<path d="M688.988 533.64C696.038 535.795 699.378 542.173 697.353 548.797C695.328 555.421 688.992 558.841 681.942 556.686C674.824 554.509 671.483 548.131 673.509 541.507C675.534 534.883 681.87 531.463 688.988 533.64ZM665.208 580.769L715.5 543.329L726.558 546.71L676.267 584.149L665.208 580.769ZM684.115 549.579C686.396 550.276 688.63 549.148 689.474 546.388C690.339 543.559 689.075 541.513 686.794 540.816C684.514 540.118 682.322 541.108 681.457 543.937C680.592 546.766 681.834 548.881 684.115 549.579ZM710.122 570.809C717.172 572.964 720.512 579.342 718.487 585.966C716.461 592.59 710.126 596.01 703.076 593.855C695.957 591.678 692.617 585.3 694.642 578.676C696.667 572.052 703.003 568.632 710.122 570.809ZM705.249 586.748C707.53 587.445 709.764 586.317 710.608 583.557C711.472 580.728 710.209 578.682 707.928 577.985C705.647 577.287 703.455 578.277 702.59 581.106C701.725 583.935 702.968 586.051 705.249 586.748Z" fill="white"/>
<path d="M567.974 618.092C576.412 649.831 557.724 682.454 526.233 690.958C494.743 699.462 462.374 680.627 453.936 648.889C445.498 617.151 464.186 584.528 495.677 576.023C527.168 567.519 559.536 586.354 567.974 618.092Z" fill="#2F3860"/>
<path d="M559.064 609.111C567.502 640.849 548.814 673.472 517.323 681.977C485.832 690.481 453.464 671.646 445.026 639.908C436.588 608.169 455.276 575.546 486.767 567.042C518.257 558.538 550.626 577.373 559.064 609.111Z" fill="#5DC1B4"/>
<path d="M480.595 603.573C487.715 601.65 493.928 605.317 495.72 612.06C497.513 618.803 493.952 625.109 486.832 627.032C479.642 628.974 473.43 625.306 471.637 618.564C469.845 611.821 473.405 605.514 480.595 603.573ZM485.403 656.551L508.211 597.696L519.38 594.68L496.572 653.535L485.403 656.551ZM484.909 619.798C487.212 619.175 488.509 617.018 487.762 614.209C486.997 611.329 484.841 610.255 482.537 610.877C480.234 611.5 478.899 613.516 479.665 616.396C480.431 619.275 482.605 620.42 484.909 619.798ZM518.211 624.053C525.331 622.13 531.544 625.798 533.336 632.541C535.129 639.283 531.568 645.59 524.448 647.513C517.258 649.454 511.046 645.787 509.254 639.044C507.461 632.301 511.021 625.995 518.211 624.053ZM522.525 640.278C524.828 639.656 526.125 637.499 525.378 634.69C524.613 631.81 522.457 630.736 520.153 631.358C517.85 631.98 516.515 633.997 517.281 636.876C518.047 639.756 520.221 640.9 522.525 640.278Z" fill="white"/>
</svg>
