<svg width="1920" height="1080" viewBox="0 0 1920 1080" fill="none" xmlns="http://www.w3.org/2000/svg">
<path opacity="0.24" d="M856.108 182.521C666.836 241.189 455.47 332.157 446.21 529.279C440.995 640.312 482.702 742.595 552.704 824.272L426 950.977L633.853 900.477C688.236 941.744 751.143 973.417 818.055 992.62C1009.33 1047.51 1196.63 938.644 1313.39 778.154C1429.52 618.544 1481.8 402.126 1361.59 245.545C1247.59 97.0562 1035.36 126.961 856.108 182.521Z" fill="#9BD0C9"/>
<path d="M609.057 683.649V635.378L685.189 562.02C695.93 551.858 706.038 540.108 706.038 525.818C706.038 511.209 696.245 502.635 682.662 502.635C663.076 502.635 652.019 516.291 640.963 534.709L598 508.034C617.27 476.277 646.333 455 688.032 455C728.152 455 760.058 480.405 760.058 520.101C760.058 550.588 739.84 574.405 721.833 591.236L674.764 635.378H765.744V683.649H609.057Z" fill="#25A292"/>
<path d="M877.134 455C937.471 455 964.323 505.493 964.323 572.5C964.323 639.507 937.471 690 877.134 690C817.112 690 789.945 639.507 789.945 572.5C789.945 505.493 817.112 455 877.134 455ZM877.45 504.541C854.705 504.541 844.596 529.628 844.596 572.5C844.596 615.689 854.705 640.459 877.45 640.459C899.247 640.459 909.672 615.372 909.672 572.5C909.672 529.311 899.247 504.541 877.45 504.541Z" fill="#25A292"/>
<path d="M1088.87 455C1120.91 455 1142.91 477.517 1142.91 507.962C1142.91 538.408 1120.91 560.924 1088.87 560.924C1056.51 560.924 1034.52 538.408 1034.52 507.962C1034.52 477.517 1056.51 455 1088.87 455ZM1049.91 683.657L1211.4 461.66H1261.66L1100.18 683.657H1049.91ZM1088.87 528.259C1099.24 528.259 1107.09 520.648 1107.09 507.962C1107.09 494.96 1099.24 487.982 1088.87 487.982C1078.5 487.982 1070.65 494.96 1070.65 507.962C1070.65 520.965 1078.5 528.259 1088.87 528.259ZM1223.96 584.076C1256.01 584.076 1278 606.592 1278 637.038C1278 667.483 1256.01 690 1223.96 690C1191.6 690 1169.61 667.483 1169.61 637.038C1169.61 606.592 1191.6 584.076 1223.96 584.076ZM1223.96 657.335C1234.33 657.335 1242.18 649.723 1242.18 637.038C1242.18 624.035 1234.33 617.058 1223.96 617.058C1213.59 617.058 1205.74 624.035 1205.74 637.038C1205.74 650.04 1213.59 657.335 1223.96 657.335Z" fill="#25A292"/>
<path d="M1289.3 308.159C1280.07 338.349 1248.11 355.341 1217.92 346.111C1187.73 336.881 1170.74 304.924 1179.97 274.733C1189.2 244.543 1221.15 227.551 1251.35 236.781C1281.54 246.011 1298.53 277.968 1289.3 308.159Z" fill="#2F3860"/>
<path d="M1286.55 296.268C1277.32 326.459 1245.37 343.451 1215.18 334.221C1184.98 324.99 1167.99 293.033 1177.22 262.843C1186.45 232.652 1218.41 215.66 1248.6 224.891C1278.79 234.121 1295.78 266.078 1286.55 296.268Z" fill="#0B6B5F"/>
<path d="M1224.93 251.489C1231.76 253.576 1234.99 259.752 1233.03 266.166C1231.07 272.58 1224.94 275.892 1218.11 273.805C1211.22 271.697 1207.98 265.521 1209.94 259.107C1211.91 252.693 1218.04 249.382 1224.93 251.489ZM1201.91 297.124L1250.6 260.872L1261.31 264.146L1212.62 300.398L1201.91 297.124ZM1220.21 266.923C1222.42 267.598 1224.59 266.506 1225.4 263.834C1226.24 261.094 1225.02 259.113 1222.81 258.438C1220.6 257.763 1218.48 258.721 1217.64 261.46C1216.8 264.2 1218.01 266.248 1220.21 266.923ZM1245.4 287.48C1252.22 289.567 1255.46 295.743 1253.5 302.157C1251.54 308.571 1245.4 311.882 1238.57 309.795C1231.68 307.688 1228.45 301.512 1230.41 295.098C1232.37 288.684 1238.5 285.372 1245.4 287.48ZM1240.68 302.914C1242.89 303.589 1245.05 302.497 1245.87 299.824C1246.7 297.085 1245.48 295.104 1243.27 294.428C1241.06 293.753 1238.94 294.712 1238.1 297.451C1237.27 300.19 1238.47 302.238 1240.68 302.914Z" fill="white"/>
<path d="M1395.73 257.619C1385.18 292.123 1348.65 311.542 1314.15 300.993C1279.65 290.444 1260.23 253.922 1270.78 219.418C1281.32 184.914 1317.85 165.494 1352.35 176.043C1386.85 186.592 1406.27 223.115 1395.73 257.619Z" fill="#2F3860"/>
<path d="M1392.59 244.029C1382.04 278.533 1345.52 297.953 1311.01 287.404C1276.51 276.855 1257.09 240.332 1267.64 205.828C1278.19 171.325 1314.71 151.905 1349.21 162.454C1383.72 173.003 1403.14 209.526 1392.59 244.029Z" fill="#158A7B"/>
<path d="M1322.17 192.853C1329.97 195.238 1333.66 202.296 1331.42 209.627C1329.18 216.957 1322.17 220.741 1314.37 218.356C1306.49 215.948 1302.79 208.89 1305.04 201.559C1307.28 194.229 1314.29 190.444 1322.17 192.853ZM1295.85 245.007L1351.5 203.576L1363.74 207.317L1308.09 248.749L1295.85 245.007ZM1316.77 210.492C1319.3 211.263 1321.77 210.015 1322.7 206.961C1323.66 203.83 1322.26 201.566 1319.74 200.794C1317.21 200.022 1314.79 201.118 1313.83 204.248C1312.87 207.379 1314.25 209.72 1316.77 210.492ZM1345.55 233.985C1353.35 236.371 1357.05 243.429 1354.81 250.759C1352.57 258.089 1345.56 261.874 1337.76 259.489C1329.88 257.08 1326.18 250.022 1328.42 242.692C1330.66 235.361 1337.67 231.577 1345.55 233.985ZM1340.16 251.624C1342.68 252.396 1345.16 251.148 1346.09 248.093C1347.05 244.963 1345.65 242.698 1343.12 241.927C1340.6 241.155 1338.17 242.25 1337.22 245.381C1336.26 248.512 1337.64 250.852 1340.16 251.624Z" fill="white"/>
<path d="M1458.19 377.002C1469.89 420.642 1443.99 465.499 1400.35 477.192C1356.71 488.886 1311.85 462.988 1300.16 419.347C1288.46 375.707 1314.36 330.851 1358 319.157C1401.64 307.464 1446.5 333.362 1458.19 377.002Z" fill="#2F3860"/>
<path d="M1445.84 364.653C1457.54 408.293 1431.64 453.149 1388 464.843C1344.36 476.536 1299.5 450.638 1287.81 406.998C1276.11 363.358 1302.01 318.501 1345.65 306.808C1389.29 295.114 1434.15 321.012 1445.84 364.653Z" fill="#5DC1B4"/>
<path d="M1337.1 357.038C1346.97 354.394 1355.58 359.436 1358.06 368.707C1360.55 377.979 1355.61 386.65 1345.74 389.294C1335.78 391.964 1327.17 386.921 1324.69 377.65C1322.2 368.379 1327.14 359.707 1337.1 357.038ZM1343.76 429.883L1375.37 348.957L1390.85 344.809L1359.24 425.736L1343.76 429.883ZM1343.08 379.347C1346.27 378.491 1348.07 375.525 1347.03 371.662C1345.97 367.703 1342.98 366.226 1339.79 367.081C1336.6 367.937 1334.75 370.71 1335.81 374.669C1336.87 378.629 1339.89 380.202 1343.08 379.347ZM1389.23 385.198C1399.1 382.554 1407.71 387.597 1410.19 396.868C1412.67 406.14 1407.74 414.811 1397.87 417.455C1387.91 420.125 1379.3 415.082 1376.82 405.811C1374.33 396.539 1379.27 387.868 1389.23 385.198ZM1395.21 407.507C1398.4 406.652 1400.2 403.686 1399.16 399.823C1398.1 395.864 1395.11 394.387 1391.92 395.242C1388.73 396.098 1386.88 398.87 1387.94 402.83C1389 406.79 1392.02 408.363 1395.21 407.507Z" fill="white"/>
<path d="M1469.88 172.988C1473.18 172.17 1475.17 168.844 1474.33 165.56C1473.49 162.275 1470.13 160.277 1466.83 161.095L1419.06 172.954C1415.77 173.773 1413.77 177.099 1414.62 180.383C1415.46 183.667 1418.81 185.666 1422.11 184.847L1469.88 172.988Z" fill="#156DCB"/>
<path d="M1377.81 78.2626C1378.5 74.952 1376.35 71.6976 1373.02 70.9938C1369.69 70.29 1366.43 72.4032 1365.74 75.7138L1355.74 123.669C1355.05 126.98 1357.2 130.234 1360.53 130.938C1363.86 131.642 1367.12 129.529 1367.81 126.218L1377.81 78.2626Z" fill="#156DCB"/>
<path d="M1437.97 112.818C1440.32 110.384 1440.23 106.504 1437.77 104.153C1435.31 101.801 1431.41 101.869 1429.05 104.304L1395 139.569C1392.65 142.004 1392.73 145.884 1395.2 148.235C1397.66 150.586 1401.56 150.519 1403.91 148.084L1437.97 112.818Z" fill="#156DCB"/>
</svg>
