<svg width="1920" height="1080" viewBox="0 0 1920 1080" fill="none" xmlns="http://www.w3.org/2000/svg">
<g clip-path="url(#clip0_59_505)">
<path opacity="0.24" fill-rule="evenodd" clip-rule="evenodd" d="M2052.07 1332.35C2032.45 914.091 1584.47 721.072 1183.32 596.589C803.417 478.698 353.604 415.246 111.991 730.314C-142.789 1062.56 -31.9728 1521.76 214.143 1860.42C461.617 2200.96 858.586 2431.96 1263.97 2315.49C1711.07 2187.03 2073.81 1795.58 2052.07 1332.35Z" fill="#9BD0C9"/>
<g clip-path="url(#clip1_59_505)">
<rect x="436.898" y="362.312" width="949.328" height="565.722" rx="48" transform="rotate(-12 436.898 362.312)" fill="url(#paint0_linear_59_505)"/>
<rect x="436.898" y="362.312" width="949.328" height="565.722" rx="48" transform="rotate(-12 436.898 362.312)" fill="url(#paint1_linear_59_505)"/>
<path fill-rule="evenodd" clip-rule="evenodd" d="M555.626 1076.6C522.075 926.491 627.356 791.215 759.527 712.017C900.632 627.465 1077.34 584.179 1205.29 687.315C1353.99 807.193 1433.06 1015.03 1346.88 1185.49C1268.77 1339.98 1064.01 1329.88 892.35 1306.26C743.425 1285.76 588.36 1223.05 555.626 1076.6Z" fill="#119787" fill-opacity="0.16"/>
<g style="mix-blend-mode:multiply">
<path fill-rule="evenodd" clip-rule="evenodd" d="M1011.65 754.24C984.017 630.621 1070.72 519.214 1179.57 453.99C1295.78 384.358 1441.31 348.71 1546.68 433.647C1669.15 532.372 1734.26 703.538 1663.29 843.92C1598.96 971.147 1430.33 962.836 1288.96 943.38C1166.31 926.501 1038.61 874.85 1011.65 754.24Z" fill="#0B6B5F" fill-opacity="0.2"/>
</g>
<path fill-rule="evenodd" clip-rule="evenodd" d="M1285.85 246.847C1287.46 245.443 1289.9 245.6 1291.31 247.197C1299.77 256.79 1305.62 268.458 1308.3 281.027C1310.97 293.597 1310.36 306.637 1306.54 318.841C1305.9 320.872 1303.73 322.011 1301.69 321.384C1299.65 320.757 1298.51 318.602 1299.14 316.57C1302.57 305.635 1303.12 293.931 1300.72 282.639C1298.32 271.346 1293.06 260.876 1285.48 252.279C1284.07 250.682 1284.24 248.25 1285.85 246.847ZM1272.84 257.425C1274.45 256.021 1276.9 256.178 1278.31 257.775C1285 265.367 1289.63 274.6 1291.75 284.545C1293.86 294.489 1293.39 304.808 1290.36 314.466C1289.72 316.497 1287.55 317.636 1285.51 317.009C1283.47 316.382 1282.33 314.227 1282.96 312.196C1285.59 303.805 1286.01 294.823 1284.17 286.156C1282.33 277.488 1278.29 269.453 1272.48 262.857C1271.07 261.26 1271.23 258.828 1272.84 257.425ZM1260.39 267.239C1262 265.842 1264.45 266.01 1265.85 267.613C1270.82 273.302 1274.26 280.21 1275.84 287.641C1277.42 295.073 1277.09 302.783 1274.86 310.002C1274.23 312.036 1272.07 313.184 1270.02 312.566C1267.98 311.949 1266.83 309.799 1267.45 307.764C1269.29 301.808 1269.57 295.422 1268.26 289.253C1266.95 283.083 1264.1 277.364 1260 272.67C1258.59 271.066 1258.77 268.635 1260.39 267.239ZM1247.85 277.775C1249.38 276.279 1251.83 276.291 1253.33 277.802C1256.99 281.488 1259.51 286.119 1260.58 291.17C1261.65 296.22 1261.24 301.474 1259.39 306.331C1258.64 308.321 1256.4 309.33 1254.4 308.583C1252.4 307.837 1251.39 305.618 1252.15 303.627C1253.47 300.138 1253.77 296.381 1253 292.781C1252.24 289.18 1250.44 285.867 1247.81 283.219C1246.31 281.708 1246.33 279.271 1247.85 277.775Z" fill="white"/>
<g filter="url(#filter0_ii_59_505)">
<path d="M537.335 530.427C535.96 523.959 540.125 517.594 546.637 516.209L646.865 494.905C653.378 493.521 659.771 497.642 661.146 504.11L674.919 568.904C676.293 575.372 672.129 581.738 665.616 583.122L565.388 604.426C558.876 605.81 552.482 601.689 551.107 595.221L537.335 530.427Z" fill="#CDC9C1"/>
<path d="M537.335 530.427C535.96 523.959 540.125 517.594 546.637 516.209L646.865 494.905C653.378 493.521 659.771 497.642 661.146 504.11L674.919 568.904C676.293 575.372 672.129 581.738 665.616 583.122L565.388 604.426C558.876 605.81 552.482 601.689 551.107 595.221L537.335 530.427Z" fill="url(#paint2_radial_59_505)" fill-opacity="0.1"/>
<path d="M537.335 530.427C535.96 523.959 540.125 517.594 546.637 516.209L646.865 494.905C653.378 493.521 659.771 497.642 661.146 504.11L674.919 568.904C676.293 575.372 672.129 581.738 665.616 583.122L565.388 604.426C558.876 605.81 552.482 601.689 551.107 595.221L537.335 530.427Z" fill="url(#paint3_radial_59_505)" fill-opacity="0.1"/>
<path d="M537.335 530.427C535.96 523.959 540.125 517.594 546.637 516.209L646.865 494.905C653.378 493.521 659.771 497.642 661.146 504.11L674.919 568.904C676.293 575.372 672.129 581.738 665.616 583.122L565.388 604.426C558.876 605.81 552.482 601.689 551.107 595.221L537.335 530.427Z" fill="url(#paint4_radial_59_505)" fill-opacity="0.1"/>
</g>
<mask id="mask0_59_505" style="mask-type:alpha" maskUnits="userSpaceOnUse" x="537" y="494" width="139" height="111">
<path d="M537.335 530.427C535.96 523.959 540.125 517.594 546.637 516.209L646.865 494.905C653.378 493.521 659.771 497.642 661.146 504.11L674.919 568.904C676.293 575.372 672.129 581.738 665.616 583.122L565.388 604.426C558.876 605.81 552.482 601.689 551.107 595.221L537.335 530.427Z" fill="#D9D9D9"/>
</mask>
<g mask="url(#mask0_59_505)">
<path fill-rule="evenodd" clip-rule="evenodd" d="M536.436 529.82C536.006 527.799 537.308 525.809 539.343 525.377L568.437 519.193C570.472 518.76 572.47 520.048 572.9 522.069L576.769 540.273C577.199 542.294 575.898 544.283 573.862 544.716L544.768 550.9C542.733 551.333 540.735 550.045 540.305 548.023L536.436 529.82ZM539.654 526.841C538.433 527.1 537.652 528.294 537.91 529.507L541.779 547.71C542.037 548.923 543.236 549.696 544.457 549.436L573.551 543.252C574.772 542.992 575.553 541.799 575.295 540.586L571.426 522.383C571.168 521.17 569.97 520.397 568.749 520.657L539.654 526.841Z" fill="#10141E"/>
<path fill-rule="evenodd" clip-rule="evenodd" d="M541.55 553.88C541.121 551.858 542.422 549.869 544.457 549.436L573.552 543.252C575.587 542.82 577.585 544.108 578.014 546.129L581.884 564.332C582.313 566.354 581.012 568.343 578.977 568.775L549.882 574.96C547.847 575.392 545.849 574.104 545.42 572.083L541.55 553.88ZM544.768 550.9C543.547 551.16 542.767 552.353 543.024 553.566L546.894 571.77C547.151 572.982 548.35 573.755 549.571 573.496L578.666 567.311C579.887 567.052 580.667 565.858 580.41 564.646L576.54 546.442C576.283 545.229 575.084 544.457 573.863 544.716L544.768 550.9Z" fill="#10141E"/>
<path fill-rule="evenodd" clip-rule="evenodd" d="M584.047 542.052C583.617 540.031 584.919 538.041 586.954 537.609L626.814 529.136C628.849 528.704 630.847 529.992 631.277 532.013L631.453 532.84C631.883 534.861 630.581 536.851 628.546 537.283L626.367 537.746C625.146 538.006 624.365 539.199 624.623 540.412L628.776 559.952C629.206 561.973 627.904 563.963 625.869 564.395L586.009 572.868C583.974 573.3 581.976 572.013 581.546 569.991L581.086 567.827C580.657 565.806 581.958 563.817 583.993 563.384L586.172 562.921C587.393 562.662 588.174 561.468 587.916 560.255L584.047 542.052ZM587.265 539.073C586.044 539.332 585.263 540.526 585.521 541.739L589.39 559.942C589.82 561.963 588.518 563.952 586.483 564.385L584.304 564.848C583.083 565.108 582.302 566.301 582.56 567.514L583.02 569.678C583.278 570.891 584.477 571.663 585.698 571.404L625.558 562.931C626.779 562.672 627.56 561.478 627.302 560.266L623.149 540.725C622.719 538.704 624.021 536.715 626.056 536.282L628.235 535.819C629.456 535.56 630.237 534.366 629.979 533.154L629.803 532.326C629.545 531.113 628.347 530.341 627.125 530.6L587.265 539.073Z" fill="#10141E"/>
<path fill-rule="evenodd" clip-rule="evenodd" d="M546.664 577.938C546.234 575.917 547.536 573.928 549.571 573.495L578.665 567.311C580.7 566.878 582.698 568.166 583.128 570.187L586.997 588.391C587.427 590.412 586.125 592.401 584.09 592.834L554.996 599.018C552.961 599.451 550.963 598.163 550.533 596.142L546.664 577.938ZM549.882 574.959C548.661 575.219 547.88 576.412 548.138 577.625L552.007 595.828C552.265 597.041 553.463 597.814 554.685 597.554L583.779 591.37C585 591.11 585.781 589.917 585.523 588.704L581.654 570.501C581.396 569.288 580.197 568.515 578.976 568.775L549.882 574.959Z" fill="#10141E"/>
<path fill-rule="evenodd" clip-rule="evenodd" d="M625.257 510.94C624.828 508.919 626.129 506.93 628.164 506.497L657.259 500.313C659.294 499.88 661.292 501.168 661.721 503.189L665.591 521.393C666.02 523.414 664.719 525.403 662.684 525.836L633.589 532.02C631.554 532.453 629.556 531.165 629.127 529.144L625.257 510.94ZM628.476 507.961C627.254 508.22 626.474 509.414 626.731 510.627L630.601 528.83C630.858 530.043 632.057 530.816 633.278 530.556L662.373 524.372C663.594 524.112 664.375 522.919 664.117 521.706L660.247 503.503C659.99 502.29 658.791 501.517 657.57 501.777L628.476 507.961Z" fill="#10141E"/>
<path fill-rule="evenodd" clip-rule="evenodd" d="M630.371 535C629.941 532.978 631.243 530.989 633.278 530.557L662.372 524.372C664.407 523.94 666.405 525.228 666.835 527.249L670.704 545.452C671.134 547.474 669.832 549.463 667.797 549.895L638.703 556.08C636.668 556.512 634.67 555.224 634.24 553.203L630.371 535ZM633.589 532.021C632.368 532.28 631.587 533.474 631.845 534.686L635.714 552.89C635.972 554.103 637.17 554.875 638.392 554.616L667.486 548.432C668.707 548.172 669.488 546.978 669.23 545.766L665.361 527.562C665.103 526.35 663.904 525.577 662.683 525.836L633.589 532.021Z" fill="#10141E"/>
<path fill-rule="evenodd" clip-rule="evenodd" d="M635.485 559.058C635.055 557.037 636.357 555.048 638.392 554.615L667.486 548.431C669.521 547.998 671.519 549.286 671.949 551.308L675.818 569.511C676.248 571.532 674.946 573.521 672.911 573.954L643.817 580.138C641.782 580.571 639.784 579.283 639.354 577.262L635.485 559.058ZM638.703 556.079C637.482 556.339 636.701 557.532 636.959 558.745L640.828 576.948C641.086 578.161 642.285 578.934 643.506 578.674L672.6 572.49C673.821 572.231 674.602 571.037 674.344 569.824L670.475 551.621C670.217 550.408 669.018 549.635 667.797 549.895L638.703 556.079Z" fill="#10141E"/>
</g>
<path d="M577.481 648.773L578.181 652.062L573.486 652.852L577.006 656.021L574.457 658.397L571.256 654.68L569.844 659.377L566.608 658.232L568.475 653.917L563.909 655.117L563.21 651.827L567.878 651.106L564.404 647.864L566.894 645.501L570.095 649.217L571.507 644.52L574.803 645.654L572.908 650.036L577.481 648.773Z" fill="white"/>
<path d="M601.495 643.647L602.194 646.937L597.5 647.727L601.02 650.896L598.47 653.272L595.27 649.555L593.858 654.252L590.622 653.106L592.489 648.792L587.923 649.991L587.224 646.702L591.892 645.98L588.418 642.739L590.908 640.376L594.109 644.092L595.521 639.395L598.817 640.528L596.922 644.911L601.495 643.647Z" fill="white"/>
<path d="M625.509 638.522L626.208 641.812L621.513 642.602L625.034 645.771L622.484 648.147L619.284 644.43L617.872 649.127L614.636 647.981L616.503 643.667L611.937 644.866L611.238 641.577L615.905 640.855L612.432 637.613L614.922 635.25L618.123 638.967L619.535 634.27L622.83 635.403L620.936 639.786L625.509 638.522Z" fill="white"/>
<path d="M649.523 633.397L650.222 636.687L645.527 637.476L649.048 640.646L646.498 643.021L643.298 639.305L641.886 644.002L638.65 642.856L640.517 638.541L635.951 639.741L635.252 636.451L639.92 635.73L636.446 632.488L638.936 630.125L642.137 633.842L643.549 629.145L646.844 630.278L644.95 634.661L649.523 633.397Z" fill="white"/>
<path d="M690.174 624.715L690.874 628.005L686.179 628.794L689.699 631.963L687.15 634.339L683.949 630.623L682.537 635.32L679.301 634.174L681.168 629.859L676.602 631.059L675.903 627.769L680.571 627.048L677.097 623.806L679.587 621.443L682.788 625.16L684.2 620.462L687.496 621.596L685.601 625.979L690.174 624.715Z" fill="white"/>
<path d="M714.192 619.61L714.892 622.899L710.197 623.689L713.717 626.858L711.168 629.234L707.967 625.517L706.555 630.214L703.319 629.068L705.186 624.754L700.62 625.954L699.921 622.664L704.589 621.943L701.115 618.701L703.605 616.338L706.806 620.054L708.218 615.357L711.514 616.491L709.619 620.873L714.192 619.61Z" fill="white"/>
<path d="M738.207 614.484L738.906 617.774L734.187 618.548L737.707 621.717L735.158 624.093L731.957 620.376L730.545 625.073L727.309 623.928L729.176 619.613L724.61 620.813L723.911 617.523L728.579 616.802L725.105 613.56L727.595 611.197L730.796 614.913L732.208 610.216L735.504 611.35L733.609 615.732L738.207 614.484Z" fill="white"/>
<path d="M762.22 609.359L762.92 612.649L758.205 613.443L761.725 616.612L759.176 618.988L755.975 615.271L754.563 619.968L751.327 618.822L753.194 614.508L748.628 615.707L747.929 612.418L752.597 611.696L749.123 608.455L751.613 606.092L754.814 609.808L756.226 605.111L759.517 606.224L757.623 610.607L762.22 609.359Z" fill="white"/>
<path d="M802.872 600.677L803.571 603.967L798.876 604.756L802.397 607.925L799.847 610.301L796.646 606.585L795.234 611.282L791.998 610.136L793.866 605.821L789.299 607.021L788.6 603.731L793.268 603.01L789.794 599.768L792.284 597.405L795.485 601.122L796.897 596.425L800.193 597.558L798.298 601.941L802.872 600.677Z" fill="white"/>
<path d="M826.87 595.576L827.569 598.866L822.875 599.655L826.395 602.824L823.845 605.2L820.645 601.484L819.233 606.181L815.997 605.035L817.864 600.72L813.298 601.92L812.599 598.63L817.267 597.909L813.793 594.667L816.283 592.304L819.484 596.021L820.896 591.323L824.187 592.437L822.293 596.82L826.87 595.576Z" fill="white"/>
<path d="M850.884 590.451L851.583 593.74L846.888 594.53L850.409 597.699L847.859 600.075L844.658 596.358L843.246 601.056L840.01 599.91L841.878 595.595L837.312 596.795L836.612 593.505L841.28 592.784L837.807 589.542L840.297 587.179L843.497 590.896L844.909 586.198L848.205 587.332L846.311 591.715L850.884 590.451Z" fill="white"/>
<path d="M874.898 585.325L875.597 588.615L870.902 589.405L874.423 592.574L871.873 594.95L868.672 591.233L867.26 595.93L864.024 594.784L865.892 590.47L861.326 591.67L860.626 588.38L865.294 587.659L861.821 584.417L864.311 582.054L867.511 585.77L868.923 581.073L872.219 582.206L870.325 586.589L874.898 585.325Z" fill="white"/>
<path d="M906.822 611.256L905.992 607.349L915.882 591.701C918.542 587.593 919.613 584.323 919.096 581.891C918.668 579.877 917.717 578.433 916.243 577.558C914.768 576.684 913.159 576.443 911.369 576.823C907.989 577.542 905.867 579.681 905.018 583.216L900.522 581.713C901.139 579.143 902.337 577.055 904.071 575.436C905.805 573.817 907.905 572.746 910.306 572.214C913.309 571.576 916.125 572.02 918.772 573.52C921.422 575.041 923.099 577.456 923.816 580.825C924.587 584.454 923.303 588.874 919.959 594.065L912.754 605.14L928.954 601.676L929.937 606.302L906.822 611.256Z" fill="white"/>
<path d="M946.921 580.519C949.775 580.454 952.252 581.157 954.396 582.64C956.54 584.122 957.91 586.269 958.516 589.12C959.258 592.609 958.65 595.614 956.696 598.155C954.742 600.696 952.051 602.31 948.632 603.036C945.908 603.615 943.351 603.513 940.956 602.709C938.582 601.901 936.689 600.428 935.29 598.245L938.782 595.023C940.544 598.129 943.5 599.23 947.636 598.351C949.863 597.878 951.549 596.915 952.691 595.443C953.837 593.991 954.205 592.204 953.74 590.114C953.295 588.021 952.252 586.534 950.59 585.658C948.948 584.777 947.012 584.563 944.785 585.037L943.552 585.299L941.04 582.769L946.941 569.762L931.02 573.167L930.07 568.701L951.579 564.109L952.449 568.3L946.921 580.519Z" fill="white"/>
<path d="M993.739 580.904L994.688 585.37L990.334 586.295L991.788 593.134L987.036 594.144L985.582 587.305L967.314 591.209L966.365 586.743L973.967 559.35L979.096 558.26L971.495 585.653L984.657 582.855L982.496 572.687L987.247 571.677L989.409 581.845L993.739 580.904Z" fill="white"/>
<path d="M1010.21 566.276C1013.59 565.557 1016.66 565.946 1019.43 567.441C1022.2 568.936 1023.96 571.458 1024.71 574.987C1025.45 578.476 1024.85 581.481 1022.89 584.022C1020.94 586.563 1018.25 588.177 1014.83 588.903C1012.1 589.482 1009.52 589.344 1007.09 588.485C1004.66 587.625 1002.75 586.033 1001.36 583.722L1004.91 580.551C1005.76 582.204 1006.97 583.322 1008.52 583.951C1010.08 584.577 1011.85 584.661 1013.82 584.242C1016.06 583.765 1017.77 582.798 1018.93 581.321C1020.08 579.869 1020.43 578.086 1019.98 575.993C1019.54 573.899 1018.49 572.412 1016.83 571.536C1015.17 570.66 1013.25 570.442 1011.06 570.907L1000.92 573.062L998.235 554.15L1017.89 549.95L1018.84 554.416L1003.54 557.69L1004.95 567.372L1010.21 566.276Z" fill="white"/>
<path fill-rule="evenodd" clip-rule="evenodd" d="M1323.29 690.23C1362.51 681.895 1387.69 644.045 1379.54 605.691C1371.39 567.338 1332.99 543.003 1293.77 551.339C1276.2 555.075 1261.44 564.739 1251.24 577.72C1236.64 570.011 1219.23 567.185 1201.65 570.921C1162.43 579.256 1137.25 617.106 1145.4 655.46C1153.56 693.813 1191.96 718.148 1231.17 709.812C1248.75 706.076 1263.51 696.412 1273.71 683.431C1288.31 691.14 1305.72 693.966 1323.29 690.23Z" fill="#ED0006"/>
<path fill-rule="evenodd" clip-rule="evenodd" d="M1273.71 683.431C1286.27 667.449 1291.92 646.437 1287.42 625.272C1282.92 604.108 1269.21 587.212 1251.24 577.72C1261.44 564.739 1276.2 555.075 1293.77 551.339C1332.99 543.003 1371.39 567.338 1379.54 605.691C1387.69 644.045 1362.51 681.895 1323.29 690.23C1305.72 693.966 1288.31 691.14 1273.71 683.431Z" fill="#F9A000"/>
<path fill-rule="evenodd" clip-rule="evenodd" d="M1273.71 683.427C1286.27 667.445 1291.92 646.434 1287.42 625.27C1282.92 604.105 1269.21 587.21 1251.24 577.717C1238.68 593.7 1233.03 614.711 1237.53 635.875C1242.02 657.04 1255.73 673.935 1273.71 683.427Z" fill="#FF5E00"/>
</g>
<path d="M1469.88 172.988C1473.18 172.17 1475.17 168.844 1474.33 165.56C1473.49 162.275 1470.13 160.277 1466.83 161.095L1419.06 172.954C1415.77 173.773 1413.77 177.099 1414.62 180.383C1415.46 183.667 1418.81 185.666 1422.11 184.847L1469.88 172.988Z" fill="#156DCB"/>
<path d="M1377.81 78.2626C1378.5 74.952 1376.35 71.6976 1373.02 70.9938C1369.69 70.29 1366.43 72.4032 1365.74 75.7138L1355.74 123.669C1355.05 126.98 1357.2 130.234 1360.53 130.938C1363.86 131.642 1367.12 129.529 1367.81 126.218L1377.81 78.2626Z" fill="#156DCB"/>
<path d="M1437.97 112.818C1440.32 110.384 1440.23 106.504 1437.77 104.153C1435.31 101.801 1431.41 101.869 1429.05 104.304L1395 139.569C1392.65 142.004 1392.73 145.884 1395.2 148.235C1397.66 150.586 1401.56 150.519 1403.91 148.084L1437.97 112.818Z" fill="#156DCB"/>
</g>
<defs>
<filter id="filter0_ii_59_505" x="537.072" y="494.638" width="138.108" height="110.057" filterUnits="userSpaceOnUse" color-interpolation-filters="sRGB">
<feFlood flood-opacity="0" result="BackgroundImageFix"/>
<feBlend mode="normal" in="SourceGraphic" in2="BackgroundImageFix" result="shape"/>
<feColorMatrix in="SourceAlpha" type="matrix" values="0 0 0 0 0 0 0 0 0 0 0 0 0 0 0 0 0 0 127 0" result="hardAlpha"/>
<feOffset dx="-1" dy="-1"/>
<feComposite in2="hardAlpha" operator="arithmetic" k2="-1" k3="1"/>
<feColorMatrix type="matrix" values="0 0 0 0 0.184314 0 0 0 0 0.152941 0 0 0 0 0.0941176 0 0 0 0.2 0"/>
<feBlend mode="normal" in2="shape" result="effect1_innerShadow_59_505"/>
<feColorMatrix in="SourceAlpha" type="matrix" values="0 0 0 0 0 0 0 0 0 0 0 0 0 0 0 0 0 0 127 0" result="hardAlpha"/>
<feOffset dx="1" dy="1"/>
<feComposite in2="hardAlpha" operator="arithmetic" k2="-1" k3="1"/>
<feColorMatrix type="matrix" values="0 0 0 0 0.184314 0 0 0 0 0.152941 0 0 0 0 0.0941176 0 0 0 0.2 0"/>
<feBlend mode="normal" in2="effect1_innerShadow_59_505" result="effect2_innerShadow_59_505"/>
</filter>
<linearGradient id="paint0_linear_59_505" x1="436.884" y1="928.031" x2="934.441" y2="93.0862" gradientUnits="userSpaceOnUse">
<stop stop-color="#0C6B62"/>
<stop offset="1" stop-color="#0B6A61"/>
</linearGradient>
<linearGradient id="paint1_linear_59_505" x1="436.884" y1="928.031" x2="934.441" y2="93.0862" gradientUnits="userSpaceOnUse">
<stop offset="0.546119" stop-color="#0C6B62"/>
<stop offset="1" stop-color="#004C43"/>
</linearGradient>
<radialGradient id="paint2_radial_59_505" cx="0" cy="0" r="1" gradientUnits="userSpaceOnUse" gradientTransform="translate(565.798 512.137) rotate(58.6655) scale(95.578 133.943)">
<stop stop-color="#C29632"/>
<stop offset="1" stop-color="#C29632" stop-opacity="0"/>
</radialGradient>
<radialGradient id="paint3_radial_59_505" cx="0" cy="0" r="1" gradientUnits="userSpaceOnUse" gradientTransform="translate(668.316 537.844) rotate(133.359) scale(76.9254 106.973)">
<stop stop-color="#664700"/>
<stop offset="1" stop-color="#664700"/>
</radialGradient>
<radialGradient id="paint4_radial_59_505" cx="0" cy="0" r="1" gradientUnits="userSpaceOnUse" gradientTransform="translate(569.746 603.5) rotate(-33.6669) scale(118.435 164.275)">
<stop stop-color="#402200"/>
<stop offset="1" stop-color="#402200" stop-opacity="0"/>
</radialGradient>
<clipPath id="clip0_59_505">
<rect width="1920" height="1080" fill="white"/>
</clipPath>
<clipPath id="clip1_59_505">
<rect x="436.898" y="362.312" width="949.328" height="565.722" rx="48" transform="rotate(-12 436.898 362.312)" fill="white"/>
</clipPath>
</defs>
</svg>
