<svg width="229" height="227" viewBox="0 0 229 227" fill="none" xmlns="http://www.w3.org/2000/svg">
<circle cx="117" cy="116.5" r="109.5" fill="white" stroke="#274430" stroke-width="2"/>
<g filter="url(#filter0_d_134_17564)">
<mask id="path-2-inside-1_134_17564" fill="white">
<path d="M111 1.04287e-05C138.506 9.22635e-06 165.023 10.2588 185.368 28.7708C205.712 47.2828 218.421 72.717 221.01 100.101C223.598 127.485 215.88 154.85 199.365 176.846C182.85 198.843 158.725 213.889 131.706 219.043L111 110.5L111 1.04287e-05Z"/>
</mask>
<path d="M111 1.04287e-05C138.506 9.22635e-06 165.023 10.2588 185.368 28.7708C205.712 47.2828 218.421 72.717 221.01 100.101C223.598 127.485 215.88 154.85 199.365 176.846C182.85 198.843 158.725 213.889 131.706 219.043L111 110.5L111 1.04287e-05Z" fill="#EFFBF2"/>
<path d="M111 1.04287e-05C138.506 9.22635e-06 165.023 10.2588 185.368 28.7708C205.712 47.2828 218.421 72.717 221.01 100.101C223.598 127.485 215.88 154.85 199.365 176.846C182.85 198.843 158.725 213.889 131.706 219.043L111 110.5L111 1.04287e-05Z" stroke="#274430" stroke-width="4" mask="url(#path-2-inside-1_134_17564)"/>
</g>
<path d="M127.132 117.648V110.352L140.476 92.4H149.788V110.352H152.86V117.648H149.788V126H141.676V117.648H127.132ZM135.244 110.352H141.676V101.856L135.244 110.352ZM165.344 126H155.984L172.16 99.696H155.984V92.4H180.8V99.696L165.344 126Z" fill="#304436"/>
<path d="M188.964 102.896C192.228 102.896 194.468 105.168 194.468 108.24C194.468 111.312 192.228 113.584 188.964 113.584C185.668 113.584 183.428 111.312 183.428 108.24C183.428 105.168 185.668 102.896 188.964 102.896ZM184.996 125.968L201.444 103.568H206.564L190.116 125.968H184.996ZM188.964 110.288C190.02 110.288 190.82 109.52 190.82 108.24C190.82 106.928 190.02 106.224 188.964 106.224C187.908 106.224 187.108 106.928 187.108 108.24C187.108 109.552 187.908 110.288 188.964 110.288ZM202.724 115.92C205.988 115.92 208.228 118.192 208.228 121.264C208.228 124.336 205.988 126.608 202.724 126.608C199.428 126.608 197.188 124.336 197.188 121.264C197.188 118.192 199.428 115.92 202.724 115.92ZM202.724 123.312C203.78 123.312 204.58 122.544 204.58 121.264C204.58 119.952 203.78 119.248 202.724 119.248C201.668 119.248 200.868 119.952 200.868 121.264C200.868 122.576 201.668 123.312 202.724 123.312Z" fill="#304436"/>
<defs>
<filter id="filter0_d_134_17564" x="111" y="0" width="117.5" height="223.043" filterUnits="userSpaceOnUse" color-interpolation-filters="sRGB">
<feFlood flood-opacity="0" result="BackgroundImageFix"/>
<feColorMatrix in="SourceAlpha" type="matrix" values="0 0 0 0 0 0 0 0 0 0 0 0 0 0 0 0 0 0 127 0" result="hardAlpha"/>
<feOffset dx="7" dy="4"/>
<feComposite in2="hardAlpha" operator="out"/>
<feColorMatrix type="matrix" values="0 0 0 0 0.0941176 0 0 0 0 0.239216 0 0 0 0 0.184314 0 0 0 1 0"/>
<feBlend mode="normal" in2="BackgroundImageFix" result="effect1_dropShadow_134_17564"/>
<feBlend mode="normal" in="SourceGraphic" in2="effect1_dropShadow_134_17564" result="shape"/>
</filter>
</defs>
</svg>
