<svg width="228" height="224" viewBox="0 0 228 224" fill="none" xmlns="http://www.w3.org/2000/svg">
<path d="M226.5 113.5C226.5 173.979 177.695 223 117.5 223C57.3052 223 8.5 173.979 8.5 113.5C8.5 53.0205 57.3052 4 117.5 4C177.695 4 226.5 53.0205 226.5 113.5Z" fill="white" stroke="#274430" stroke-width="2"/>
<g filter="url(#filter0_d_134_17565)">
<mask id="path-2-inside-1_134_17565" fill="white">
<path d="M111 1.00001C131.969 1.00001 152.504 6.96621 170.209 18.2018C187.913 29.4373 202.055 45.4784 210.983 64.4514L111 111.5L111 1.00001Z"/>
</mask>
<path d="M111 1.00001C131.969 1.00001 152.504 6.96621 170.209 18.2018C187.913 29.4373 202.055 45.4784 210.983 64.4514L111 111.5L111 1.00001Z" fill="#E9DEF7"/>
<path d="M111 1.00001C131.969 1.00001 152.504 6.96621 170.209 18.2018C187.913 29.4373 202.055 45.4784 210.983 64.4514L111 111.5L111 1.00001Z" stroke="#274430" stroke-width="4" mask="url(#path-2-inside-1_134_17565)"/>
</g>
<path d="M126.956 64.952V39.8L121.436 43.016L117.452 37.256L127.34 31.352H135.068V64.952H126.956ZM154.072 30.44C162.184 30.44 166.024 35.048 166.024 39.752C166.024 42.68 164.68 45.272 161.848 46.904C165.544 48.584 167.416 51.608 167.416 55.544C167.416 61.4 162.952 65.96 154.072 65.96C145.288 65.96 140.728 61.4 140.728 55.544C140.728 51.608 142.6 48.584 146.296 46.952C143.512 45.272 142.12 42.68 142.12 39.752C142.12 35.048 146.008 30.44 154.072 30.44ZM154.216 43.88C156.376 43.88 157.72 42.68 157.72 40.664C157.72 38.696 156.376 37.4 154.216 37.4C151.768 37.4 150.424 38.696 150.424 40.664C150.424 42.68 151.816 43.88 154.216 43.88ZM154.12 59C157.288 59 159.112 57.512 159.112 55.064C159.112 52.52 157.288 50.888 154.12 50.888C150.904 50.888 149.032 52.52 149.032 55.064C149.032 57.512 150.904 59 154.12 59Z" fill="#304436"/>
<path d="M174.964 41.896C178.228 41.896 180.468 44.168 180.468 47.24C180.468 50.312 178.228 52.584 174.964 52.584C171.668 52.584 169.428 50.312 169.428 47.24C169.428 44.168 171.668 41.896 174.964 41.896ZM170.996 64.968L187.444 42.568H192.564L176.116 64.968H170.996ZM174.964 49.288C176.02 49.288 176.82 48.52 176.82 47.24C176.82 45.928 176.02 45.224 174.964 45.224C173.908 45.224 173.108 45.928 173.108 47.24C173.108 48.552 173.908 49.288 174.964 49.288ZM188.724 54.92C191.988 54.92 194.228 57.192 194.228 60.264C194.228 63.336 191.988 65.608 188.724 65.608C185.428 65.608 183.188 63.336 183.188 60.264C183.188 57.192 185.428 54.92 188.724 54.92ZM188.724 62.312C189.78 62.312 190.58 61.544 190.58 60.264C190.58 58.952 189.78 58.248 188.724 58.248C187.668 58.248 186.868 58.952 186.868 60.264C186.868 61.576 187.668 62.312 188.724 62.312Z" fill="#304436"/>
<defs>
<filter id="filter0_d_134_17565" x="111" y="1" width="106.983" height="114.5" filterUnits="userSpaceOnUse" color-interpolation-filters="sRGB">
<feFlood flood-opacity="0" result="BackgroundImageFix"/>
<feColorMatrix in="SourceAlpha" type="matrix" values="0 0 0 0 0 0 0 0 0 0 0 0 0 0 0 0 0 0 127 0" result="hardAlpha"/>
<feOffset dx="7" dy="4"/>
<feComposite in2="hardAlpha" operator="out"/>
<feColorMatrix type="matrix" values="0 0 0 0 0.0941176 0 0 0 0 0.239216 0 0 0 0 0.184314 0 0 0 1 0"/>
<feBlend mode="normal" in2="BackgroundImageFix" result="effect1_dropShadow_134_17565"/>
<feBlend mode="normal" in="SourceGraphic" in2="effect1_dropShadow_134_17565" result="shape"/>
</filter>
</defs>
</svg>
