<svg width="91" height="136" viewBox="0 0 91 136" fill="none" xmlns="http://www.w3.org/2000/svg">
    <path
        d="M28.7075 90.943L29.0885 103.273C29.1619 105.649 30.6644 107.644 32.7457 108.459C33.4489 108.734 34.2181 108.875 35.0205 108.85L43.5103 108.565L53.9912 90.3674L32.2011 90.835L28.7075 90.943Z"
        fill="#92E3A9" />
    <path fill-rule="evenodd" clip-rule="evenodd"
        d="M27.2476 89.5708L32.1638 89.4189L56.4726 88.8972L44.3447 109.955L35.0641 110.266C34.0667 110.297 33.1071 110.122 32.229 109.778L32.7455 108.459C33.4486 108.734 34.2178 108.875 35.0203 108.85L43.5101 108.565L53.991 90.3674L32.2009 90.8351L28.7073 90.943L29.0883 103.273C29.1617 105.649 30.6642 107.644 32.7455 108.459L32.229 109.778C29.6384 108.763 27.7639 106.279 27.6723 103.317L27.2476 89.5708Z"
        fill="#274430" />
    <path
        d="M28.6641 87.8524L29.0451 100.183C29.1185 102.558 30.6209 104.553 32.7023 105.368C33.4054 105.643 34.1746 105.784 34.9771 105.759L45.5201 105.583L55.6585 88.9807L32.1577 87.7445L28.6641 87.8524Z"
        fill="#565656" fill-opacity="0.3" />
    <path d="M43.5101 108.565L53.991 90.3674L52.3484 90.281L41.5434 108.771L43.5101 108.565Z" fill="#565656"
        fill-opacity="0.3" />
    <path
        d="M28.7075 90.943L29.0885 103.273C29.1619 105.649 30.6644 107.644 32.7457 108.459L32.2011 90.835L28.7075 90.943Z"
        fill="white" fill-opacity="0.3" />
    <path d="M39.1543 110.594L41.8259 110.511L42.245 124.074L39.5734 124.157L39.1543 110.594Z" fill="#9CADE8" />
    <path fill-rule="evenodd" clip-rule="evenodd"
        d="M37.6948 109.221L43.1984 109.051L43.705 125.447L38.2015 125.617L37.6948 109.221ZM39.1546 110.594L39.5737 124.157L42.2453 124.074L41.8262 110.511L39.1546 110.594Z"
        fill="#274430" />
    <rect width="0.616815" height="13.5699" transform="matrix(-0.999523 0.0308865 0.0308865 0.999523 41.8257 110.511)"
        fill="#565656" fill-opacity="0.3" />
    <rect width="0.616813" height="13.5699" transform="matrix(-0.999523 0.0308866 0.0308864 0.999523 39.771 110.574)"
        fill="white" fill-opacity="0.3" />
    <path
        d="M22.132 51.2399L23.3476 90.5767C23.5861 98.2946 30.036 104.358 37.7539 104.119L46.1796 103.859L55.5841 88.6726L33.0196 54.0918L44.1004 36.5732L35.6747 36.8336C27.9568 37.0721 21.8935 43.522 22.132 51.2399Z"
        fill="white" />
    <path fill-rule="evenodd" clip-rule="evenodd"
        d="M46.7247 35.0748L34.7036 54.0799L57.263 88.6527L46.9839 105.251L37.7979 105.535C29.298 105.798 22.1945 99.1203 21.9319 90.6204L20.7163 51.2836C20.4536 42.7837 27.1313 35.6802 35.6312 35.4176L46.7247 35.0748ZM33.0198 54.0918L44.1007 36.5732L35.6749 36.8336C27.9571 37.0721 21.8938 43.522 22.1323 51.2399L23.3479 90.5767C23.5863 98.2945 30.0363 104.358 37.7541 104.119L46.1799 103.859L55.5844 88.6726L33.0198 54.0918Z"
        fill="#274430" />
    <path
        d="M33.0197 54.0918L44.1005 36.5732L31.3771 54.0054L53.9416 88.5862L46.1797 103.859L55.5842 88.6726L33.0197 54.0918Z"
        fill="#565656" fill-opacity="0.3" />
    <path
        d="M46.7566 88.7219C46.8587 92.0251 44.267 94.7855 40.968 94.8875C37.669 94.9894 34.9119 92.3943 34.8098 89.0911C34.7077 85.7879 37.2994 83.0275 40.5984 82.9256C43.8974 82.8236 46.6545 85.4188 46.7566 88.7219Z"
        fill="#80B990" />
    <path fill-rule="evenodd" clip-rule="evenodd"
        d="M48.1729 88.6782C48.2991 92.7618 45.0948 96.1774 41.0121 96.3035C36.9293 96.4297 33.5203 93.2184 33.3941 89.1349C33.2679 85.0514 36.4722 81.6358 40.5549 81.5096C44.6376 81.3835 48.0467 84.5947 48.1729 88.6782ZM40.9683 94.8875C44.2673 94.7856 46.859 92.0252 46.7569 88.722C46.6548 85.4188 43.8977 82.8237 40.5987 82.9256C37.2997 83.0276 34.708 85.788 34.8101 89.0912C34.9122 92.3943 37.6693 94.9895 40.9683 94.8875Z"
        fill="#274430" />
    <ellipse cx="40.7832" cy="88.9065" rx="2.98812" ry="2.9919" transform="rotate(-1.76995 40.7832 88.9065)"
        fill="#83CC98" />
    <path
        d="M38.9678 85.6503L38.3966 86.0045C38.0106 86.2439 37.8914 86.751 38.1303 87.1373L41.2039 92.1064C41.4428 92.4927 41.8728 92.4904 42.2588 92.2511L42.83 91.8969C43.2161 91.6575 43.412 91.2717 43.173 90.8855L40.0994 85.9163C39.8605 85.5301 39.3539 85.411 38.9678 85.6503Z"
        fill="#565656" fill-opacity="0.3" />
    <path
        d="M38.8555 86.9946C38.6384 86.6436 38.7467 86.1828 39.0975 85.9653C39.4482 85.7478 39.9086 85.856 40.1257 86.207L42.8457 90.6045C43.0628 90.9555 42.9545 91.4163 42.6037 91.6338C42.253 91.8513 41.7926 91.7431 41.5755 91.3921L38.8555 86.9946Z"
        fill="white" />
    <path fill-rule="evenodd" clip-rule="evenodd"
        d="M41.3297 85.4605L44.0497 89.858C44.6784 90.8744 44.3647 92.2089 43.349 92.8386C42.3333 93.4684 41.0002 93.155 40.3716 92.1387L37.6515 87.7412C37.0228 86.7248 37.3366 85.3903 38.3523 84.7605C39.368 84.1307 40.701 84.4441 41.3297 85.4605ZM39.0975 85.9653C38.7467 86.1828 38.6384 86.6436 38.8555 86.9946L41.5755 91.3921C41.7926 91.7431 42.253 91.8513 42.6037 91.6338C42.9545 91.4163 43.0628 90.9555 42.8457 90.6045L40.1257 86.207C39.9086 85.856 39.4482 85.7478 39.0975 85.9653Z"
        fill="#274430" />
    <path
        d="M46.7568 88.722C46.9417 94.7029 40.9683 94.8875 40.9683 94.8875C40.9683 94.8875 46.3258 94.1233 46.1595 88.7404C45.9932 83.3576 40.5986 82.9256 40.5986 82.9256C40.5986 82.9256 46.572 82.741 46.7568 88.722Z"
        fill="#565656" fill-opacity="0.3" />
    <path
        d="M34.8101 89.0911C34.6252 83.1101 40.5986 82.9255 40.5986 82.9255C40.5986 82.9255 35.2411 83.6898 35.4074 89.0726C35.5737 94.4555 40.9683 94.8875 40.9683 94.8875C40.9683 94.8875 34.9949 95.072 34.8101 89.0911Z"
        fill="white" fill-opacity="0.3" />
    <path
        d="M67.3822 102.175L67.6258 89.8408L59.506 89.6804L47.1232 107.533L61.5128 107.817C64.6916 107.88 67.3195 105.353 67.3822 102.175Z"
        fill="#92E3A9" />
    <path fill-rule="evenodd" clip-rule="evenodd"
        d="M69.0698 88.4524L68.7983 102.203C68.7201 106.164 65.4455 109.311 61.4844 109.233L44.4525 108.897L58.7744 88.249L69.0698 88.4524ZM59.5057 89.6804L67.6255 89.8408L67.3819 102.175C67.3191 105.353 64.6913 107.88 61.5124 107.817L47.1229 107.533L59.5057 89.6804Z"
        fill="#274430" />
    <path
        d="M67.5877 99.7074L67.8312 87.3736L60.5549 87.4974L48.6862 104.995L61.7182 105.35C64.897 105.412 67.5249 102.886 67.5877 99.7074Z"
        fill="#565656" fill-opacity="0.3" />
    <path
        d="M67.6258 89.8408L65.1336 89.7916C65.1336 89.7916 63.4544 95.1254 62.2684 97.4907C59.4664 103.079 54.509 107.678 54.509 107.678L61.5127 107.817C64.6916 107.88 67.3194 105.354 67.3822 102.175L67.6258 89.8408Z"
        fill="#565656" fill-opacity="0.3" />
    <path d="M53.2817 109.482L55.9541 109.535L55.6861 123.102L53.0138 123.05L53.2817 109.482Z" fill="#E89C9C" />
    <path fill-rule="evenodd" clip-rule="evenodd"
        d="M51.8936 108.038L57.3987 108.147L57.0748 124.547L51.5697 124.438L51.8936 108.038ZM53.282 109.482L53.014 123.05L55.6864 123.102L55.9543 109.535L53.282 109.482Z"
        fill="#274430" />
    <rect width="0.616815" height="13.5699" transform="matrix(-0.999805 -0.0197443 -0.0197444 0.999805 55.9541 109.535)"
        fill="#565656" fill-opacity="0.3" />
    <rect width="0.616813" height="13.5699" transform="matrix(-0.999805 -0.0197444 -0.0197443 0.999805 53.8984 109.494)"
        fill="white" fill-opacity="0.3" />
    <path
        d="M72.9805 89.4147L73.7576 50.0668C73.8589 44.9354 71.1825 40.3951 67.1091 37.8825C65.0542 36.615 62.6438 35.8635 60.0552 35.8124L51.6271 35.6459L39.6737 52.5812L60.459 88.2597L50.298 102.951L58.7261 103.117C61.3147 103.168 63.7529 102.512 65.8562 101.327C70.0256 98.9772 72.8792 94.5461 72.9805 89.4147Z"
        fill="white" />
    <path
        d="M72.9805 89.4147L73.7576 50.0668C73.8589 44.9354 71.1825 40.3951 67.1091 37.8825C65.0542 36.615 62.6438 35.8635 60.0552 35.8124L51.6271 35.6459L39.6737 52.5812L60.459 88.2597L50.298 102.951L58.7261 103.117C61.3147 103.168 63.7529 102.512 65.8562 101.327C70.0256 98.9772 72.8792 94.5462 72.9805 89.4147Z"
        fill="white" />
    <path fill-rule="evenodd" clip-rule="evenodd"
        d="M50.9036 34.2147L60.0835 34.396C62.9321 34.4523 65.5887 35.28 67.8531 36.6768C72.3356 39.4418 75.2859 44.4417 75.1743 50.0948L74.3972 89.4427C74.2856 95.0959 71.1402 99.9754 66.552 102.561C64.2342 103.868 61.547 104.59 58.6984 104.533L47.6321 104.315L58.7818 88.1947L37.9918 52.5079L50.9036 34.2147ZM60.4593 88.2598L50.2982 102.951L58.7264 103.117C61.315 103.168 63.7532 102.512 65.8565 101.327C70.0259 98.9772 72.8795 94.5462 72.9808 89.4148L73.7579 50.0669C73.8592 44.9354 71.1828 40.3952 67.1094 37.8826C65.0545 36.6151 62.6441 35.8635 60.0555 35.8124L51.6274 35.646L39.674 52.5812L60.4593 88.2598Z"
        fill="#274430" />
    <path
        d="M62.0253 16.0689C62.1296 16.0645 62.2345 16.0622 62.3399 16.0622C66.4278 16.0622 69.7416 19.4221 69.7416 23.5668C69.7416 23.9568 69.7123 24.3399 69.6557 24.7138C70.235 25.7783 70.5641 26.9986 70.5641 28.2957C70.5641 31.5742 68.4618 34.3616 65.5317 35.3835C65.9782 36.1975 66.2781 37.1033 66.3959 38.0653C66.4292 38.2245 66.452 38.3424 66.452 38.3703C66.452 40.9253 64.3808 42.9964 61.8259 42.9964C59.7731 42.9964 58.0326 41.6594 57.4277 39.8086C57.428 39.8083 57.4284 39.8079 57.4287 39.8075C56.9573 40.3741 56.2468 40.7348 55.4521 40.7348C55.2706 40.7348 55.0935 40.716 54.9226 40.6802C54.4657 41.0972 53.8578 41.3516 53.1904 41.3516C52.9028 41.3516 52.6262 41.3044 52.368 41.2172C52.1885 41.2778 52 41.3191 51.8052 41.3386C51.5721 42.5182 50.5319 43.4076 49.2839 43.4076C49.1643 43.4076 49.0466 43.3995 48.9313 43.3836C48.5177 44.249 47.6342 44.8469 46.6111 44.8469C46.3929 44.8469 45.4476 44.4423 44.936 44.2301L38.4897 53.2743L41.8822 59.134C40.5412 58.4453 39.9172 57.0561 39.1963 55.7347C36.8338 55.5846 34.9641 53.621 34.9641 51.2206C34.9641 49.7561 35.6601 48.4542 36.7394 47.6275C36.9059 46.6162 37.2746 45.6731 37.8027 44.8409C36.0904 43.4655 34.9944 41.3543 34.9944 38.9872C34.9944 38.5399 35.0336 38.1017 35.1086 37.6759C34.0115 36.3669 33.3496 34.6713 33.3496 32.819C33.3496 28.7422 36.5559 25.4246 40.5513 25.3171C40.5851 25.2973 40.619 25.2777 40.6531 25.2584C40.5825 24.8423 40.5458 24.4145 40.5458 23.978C40.5458 19.8333 43.8597 16.4734 47.9475 16.4734C48.0039 16.4734 48.0601 16.4741 48.1162 16.4753C49.0926 13.4882 51.8699 11.3333 55.1437 11.3333C58.267 11.3333 60.9385 13.2947 62.0253 16.0689Z"
        fill="#E1DFDF" />
    <path fill-rule="evenodd" clip-rule="evenodd"
        d="M33.5476 51.2207C33.5476 54.0907 35.5824 56.4845 38.2888 57.0394C38.5394 57.5056 38.8233 58.0169 39.1415 58.4772C39.6346 59.1906 40.2873 59.9074 41.2351 60.3942L45.5243 62.5972L40.1729 53.3539L45.4392 45.9651C45.5914 46.0237 45.7489 46.0815 45.8927 46.1281C45.9752 46.1548 46.0699 46.1833 46.1664 46.2065C46.2384 46.2238 46.4103 46.2636 46.6112 46.2636C47.8555 46.2636 48.9648 45.6936 49.695 44.8035C51.0305 44.6668 52.1695 43.8714 52.7839 42.7477C52.9179 42.7613 53.0536 42.7683 53.1906 42.7683C53.9747 42.7683 54.7075 42.5409 55.3245 42.1495C55.367 42.1508 55.4095 42.1515 55.4523 42.1515C55.9649 42.1515 56.4551 42.0544 56.9054 41.878C58.0006 43.412 59.7953 44.4131 61.826 44.4131C65.1634 44.4131 67.8688 41.7077 67.8688 38.3704C67.8688 38.2476 67.8516 38.1392 67.849 38.1225L67.8487 38.1207C67.8426 38.0808 67.8355 38.041 67.8293 38.0076C67.8195 37.955 67.8075 37.8948 67.7946 37.8323C67.717 37.2333 67.5801 36.6528 67.3898 36.097C70.127 34.5746 71.9809 31.653 71.9809 28.2957C71.9809 26.924 71.6704 25.6215 71.115 24.4576C71.1438 24.1642 71.1585 23.8671 71.1585 23.5668C71.1585 18.8608 67.5463 14.9783 62.9402 14.6659C61.4641 11.8492 58.5339 9.91669 55.1439 9.91669C51.5848 9.91669 48.5332 12.0458 47.1378 15.0938C42.6322 15.508 39.1293 19.3437 39.1293 23.978C39.1293 24.0015 39.1294 24.0249 39.1295 24.0483C35.0215 24.82 31.9331 28.467 31.9331 32.819C31.9331 34.7806 32.5604 36.5985 33.6243 38.0734C33.5936 38.3742 33.5779 38.6791 33.5779 38.9872C33.5779 41.3703 34.5135 43.5356 36.0341 45.1346C35.7814 45.6845 35.5828 46.2647 35.4454 46.8682C34.2799 47.9514 33.5476 49.5007 33.5476 51.2207ZM34.9643 51.2207C34.9643 53.2605 36.3145 54.9849 38.1699 55.549C38.4978 55.6487 38.8416 55.7122 39.1964 55.7347C39.2748 55.8784 39.352 56.0228 39.4291 56.167C40.0614 57.3498 40.6871 58.5202 41.8824 59.1341L39.0846 54.3015L38.4899 53.2743L44.9361 44.2301C44.9885 44.2518 45.0454 44.2755 45.1055 44.3006C45.6336 44.5209 46.4154 44.8469 46.6112 44.8469C47.6344 44.8469 48.5178 44.2491 48.9314 43.3837C49.0467 43.3995 49.1645 43.4077 49.2841 43.4077C50.5321 43.4077 51.5723 42.5182 51.8054 41.3387C52.0002 41.3191 52.1886 41.2778 52.3682 41.2172C52.6264 41.3044 52.903 41.3516 53.1906 41.3516C53.858 41.3516 54.4659 41.0973 54.9228 40.6802C55.0936 40.716 55.2708 40.7348 55.4523 40.7348C55.7182 40.7348 55.9748 40.6944 56.2161 40.6194C56.6952 40.4705 57.1143 40.1851 57.4279 39.8087C57.585 40.2893 57.8186 40.7353 58.1145 41.1323C58.9578 42.2637 60.3064 42.9965 61.826 42.9965C64.381 42.9965 66.4521 40.9253 66.4521 38.3704C66.4521 38.3424 66.4294 38.2245 66.3961 38.0654C66.338 37.591 66.2356 37.1303 66.0932 36.6875C65.9469 36.2324 65.7582 35.7962 65.5319 35.3836C65.983 35.2262 66.4146 35.027 66.8218 34.7906C69.0595 33.4916 70.5642 31.0694 70.5642 28.2957C70.5642 26.9986 70.2351 25.7783 69.6559 24.7139C69.7125 24.3399 69.7418 23.9569 69.7418 23.5668C69.7418 19.4222 66.4279 16.0623 62.34 16.0623C62.2347 16.0623 62.1298 16.0645 62.0255 16.0689C60.9387 13.2947 58.2672 11.3334 55.1439 11.3334C51.8701 11.3334 49.0927 13.4883 48.1163 16.4754C48.0603 16.4741 48.0041 16.4735 47.9477 16.4735C43.8598 16.4735 40.5459 19.8334 40.5459 23.978C40.5459 24.4145 40.5827 24.8423 40.6532 25.2584C40.6192 25.2777 40.5852 25.2973 40.5515 25.3172C40.4346 25.3203 40.3183 25.3262 40.2028 25.3348C39.8796 25.3588 39.5623 25.4038 39.252 25.4686C35.8831 26.1714 33.3498 29.1953 33.3498 32.819C33.3498 34.6714 34.0117 36.367 35.1088 37.6759C35.0337 38.1017 34.9946 38.5399 34.9946 38.9872C34.9946 41.3543 36.0906 43.4655 37.8028 44.841C37.2748 45.6731 36.9061 46.6163 36.7395 47.6275C35.6603 48.4542 34.9643 49.7562 34.9643 51.2207Z"
        fill="#274430" />
    <path
        d="M37.6274 44.8386C35.9151 43.4631 34.8192 41.3519 34.8192 38.9848C34.8192 38.5375 34.8583 38.0993 34.9333 37.6735C33.8362 36.3646 33.1743 34.669 33.1743 32.8166C33.1743 28.7398 36.3806 25.4222 40.376 25.3148C40.4098 25.2949 40.4437 25.2753 40.4778 25.256C40.4072 24.8399 40.3705 24.4121 40.3705 23.9756C40.3705 19.831 43.6844 16.4711 47.7723 16.4711C47.8286 16.4711 47.8848 16.4717 47.9409 16.473C43.853 16.473 42.0153 19.831 42.0153 23.9756C42.0153 24.4121 42.0521 24.8399 42.1226 25.256C42.0885 25.2753 42.0546 25.2949 42.0209 25.3148C38.0255 25.4222 34.8192 28.7398 34.8192 32.8166C34.8192 34.669 35.4811 36.3646 36.5782 37.6735C36.5031 38.0993 36.464 38.5375 36.464 38.9848C36.464 41.3519 35.9151 43.4631 37.6274 44.8386Z"
        fill="white" fill-opacity="0.3" />
    <path
        d="M62.0556 16.0665C62.1599 16.0621 62.2648 16.0598 62.3701 16.0598C66.458 16.0598 69.7719 19.4198 69.7719 23.5644C69.7719 23.9544 69.7426 24.3375 69.686 24.7115C70.2652 25.7759 70.5943 26.9962 70.5943 28.2933C70.5943 31.5718 68.492 34.3592 65.562 35.3811C66.1486 36.4507 66.4822 37.6788 66.4822 38.9848C66.4822 38.9848 66.2463 40.0128 65.8351 40.7324C65.4239 41.452 64.628 42.0688 64.628 42.0688C64.8969 41.2961 65.043 40.4659 65.043 39.6016C65.043 38.2956 64.7094 37.0675 64.1228 35.998C67.0528 34.9761 69.1551 32.1886 69.1551 28.9101C69.1551 27.613 68.826 26.3927 68.2467 25.3283C68.3033 24.9543 68.3327 24.5712 68.3327 24.1812C68.3327 20.0366 65.0188 16.6767 60.9309 16.6767C60.8255 16.6767 60.7207 16.6789 60.6164 16.6833C59.5295 13.9091 56.858 11.9477 53.7347 11.9477C52.9891 11.9477 52.2693 12.0595 51.5906 12.2675C52.6523 11.6707 53.874 11.3309 55.174 11.3309C58.2973 11.3309 60.9688 13.2923 62.0556 16.0665Z"
        fill="#565656" fill-opacity="0.3" />
    <path
        d="M56.9559 15.4658C57.9905 16.5004 57.9905 18.1778 56.9559 19.2123C56.8745 19.2937 56.7892 19.3687 56.7005 19.4372C57.5037 18.3982 57.4288 16.8994 56.4756 15.9462C55.5224 14.993 54.0235 14.918 52.9845 15.7212C53.0531 15.6325 53.128 15.5472 53.2094 15.4658C54.244 14.4313 55.9213 14.4313 56.9559 15.4658Z"
        fill="#274430" />
    <path
        d="M63.1066 23.1611C63.3156 25.1465 62.2682 26.884 60.7672 27.042C60.6492 27.0544 60.5318 27.0567 60.4157 27.0494C61.7283 26.6825 62.6023 25.0636 62.4098 23.2344C62.2172 21.4051 61.0254 20.0037 59.6652 19.9181C59.7772 19.8868 59.8925 19.8646 60.0105 19.8522C61.5115 19.6942 62.8977 21.1756 63.1066 23.1611Z"
        fill="#274430" />
    <path
        d="M64.5428 32.3728C63.9113 33.4664 62.7292 33.966 61.9024 33.4887C61.8374 33.4511 61.7765 33.4087 61.7198 33.3617C62.5279 33.6621 63.5771 33.1588 64.1589 32.1511C64.7407 31.1435 64.652 29.9832 63.9878 29.4335C64.0567 29.4592 64.124 29.4907 64.189 29.5282C65.0158 30.0056 65.1742 31.2791 64.5428 32.3728Z"
        fill="#274430" />
    <path
        d="M44.59 21.1507C45.5577 19.4746 47.3693 18.7089 48.6364 19.4405C48.7361 19.498 48.8294 19.5631 48.9163 19.635C47.6778 19.1746 46.0698 19.9461 45.1783 21.4903C44.2867 23.0346 44.4226 24.8129 45.4405 25.6552C45.3348 25.6159 45.2318 25.5676 45.1321 25.5101C43.865 24.7785 43.6223 22.8268 44.59 21.1507Z"
        fill="white" />
    <path
        d="M40.1473 26.6623C41.1508 26.0829 42.2975 26.1901 42.7083 26.9017C42.7406 26.9577 42.7674 27.0157 42.7889 27.0755C42.3087 26.5079 41.2627 26.4589 40.338 26.9927C39.4134 27.5266 38.9328 28.457 39.1842 29.1566C39.1432 29.1082 39.1064 29.0559 39.0741 29C38.6632 28.2883 39.1437 27.2417 40.1473 26.6623Z"
        fill="white" />
    <path
        d="M45.3446 29.2887C46.4052 28.228 47.8748 27.9778 48.627 28.73C48.6861 28.7891 48.7391 28.8527 48.7859 28.9202C47.9954 28.3714 46.671 28.6606 45.6937 29.6379C44.7165 30.6151 44.4273 31.9395 44.9761 32.73C44.9086 32.6832 44.845 32.6302 44.7859 32.5711C44.0337 31.8189 44.2839 30.3494 45.3446 29.2887Z"
        fill="white" />
    <path
        d="M37.903 38.4707C37.903 35.859 39.5349 33.7418 41.5479 33.7418C41.7062 33.7418 41.8621 33.7549 42.0151 33.7803C40.2229 34.0779 38.8376 36.0644 38.8376 38.4707C38.8376 40.877 40.2229 42.8635 42.0151 43.1611C41.8621 43.1865 41.7062 43.1996 41.5479 43.1996C39.5349 43.1996 37.903 41.0824 37.903 38.4707Z"
        fill="white" />
    <path
        d="M49.3141 43.4053C49.1945 43.4053 49.0767 43.3971 48.9614 43.3813C50.2094 43.3813 51.191 42.3102 51.4241 41.1307C51.619 41.1111 51.8074 41.0698 51.987 41.0092C52.2452 41.0964 52.5218 41.1436 52.8094 41.1436C53.4767 41.1436 54.0847 40.8893 54.5416 40.4722C54.7124 40.508 54.8895 40.5268 55.071 40.5268C56.2442 40.5268 57.645 39.9464 57.953 38.8722C57.645 39.9464 56.6554 40.7324 55.4823 40.7324C55.3008 40.7324 55.1236 40.7136 54.9528 40.6778C54.4959 41.0949 53.888 41.3492 53.2206 41.3492C52.933 41.3492 52.6564 41.302 52.3982 41.2148C52.2186 41.2754 52.0302 41.3167 51.8354 41.3363C51.6023 42.5158 50.5621 43.4053 49.3141 43.4053Z"
        fill="#565656" fill-opacity="0.3" />
    <path
        d="M59.115 37.3396C58.7168 38.538 57.6595 39.2654 56.7535 38.9644C56.6823 38.9407 56.6141 38.9113 56.5491 38.8768C57.4011 39.0083 58.3275 38.304 58.6944 37.1998C59.0613 36.0957 58.7408 34.977 57.9795 34.5724C58.0522 34.5836 58.1244 34.6009 58.1957 34.6246C59.1016 34.9256 59.5133 36.1412 59.115 37.3396Z"
        fill="#274430" />
    <path
        d="M44.1094 41.9201C43.4759 40.8229 43.7392 39.485 44.6974 38.9317C44.7728 38.8882 44.8502 38.8509 44.9292 38.8195C44.1482 39.4371 43.9706 40.6524 44.5543 41.6633C45.1379 42.6742 46.2792 43.1281 47.2045 42.7605C47.1379 42.8132 47.0668 42.8616 46.9914 42.9051C46.0332 43.4583 44.7429 43.0174 44.1094 41.9201Z"
        fill="white" />
    <path
        d="M54.9275 34.5977C53.5255 37.0262 50.9005 38.1356 49.0646 37.0756C48.9202 36.9922 48.785 36.8979 48.6591 36.7937C50.4535 37.4608 52.7834 36.3431 54.0752 34.1056C55.367 31.8681 55.17 29.2916 53.6952 28.0711C53.8483 28.128 53.9976 28.198 54.142 28.2813C55.9779 29.3413 56.3296 32.1692 54.9275 34.5977Z"
        fill="#274430" />
    <path
        d="M73.0003 88.4158L73.7576 50.0669C73.823 46.7557 72.7114 41.3382 67.1091 37.8826C67.1091 37.8826 70.0385 41.2578 69.979 46.5007C69.9334 50.525 69.9578 78.5942 69.9716 91.4253C69.9716 96.6682 65.8562 101.327 65.8562 101.327C65.8562 101.327 68.9077 99.7523 70.8609 96.6682C72.3608 94.4542 72.7997 91.8155 72.9279 90.4109C72.9884 89.7475 72.9871 89.0817 73.0003 88.4158Z"
        fill="#565656" fill-opacity="0.3" />
    <path
        d="M55.7964 55.2583L52.8854 54.1496C52.4329 53.9773 52.2469 53.4374 52.4972 53.023C52.769 52.5731 53.3999 52.5177 53.7459 52.9133L55.7964 55.2583Z"
        fill="#565656" fill-opacity="0.3" />
    <path
        d="M55.8049 55.2632L52.8272 54.3465C52.3436 54.1976 52.1286 53.6339 52.3902 53.2008C52.6518 52.7677 53.2507 52.6956 53.6076 53.0544L55.8049 55.2632Z"
        fill="#274430" />
    <path
        d="M52.9735 59.1173C55.9103 59.1173 58.2912 56.7365 58.2912 53.7996C58.2912 50.8627 55.9103 48.4819 52.9735 48.4819C50.0366 48.4819 47.6558 50.8627 47.6558 53.7996C47.6558 56.7365 50.0366 59.1173 52.9735 59.1173Z"
        stroke="#274430" stroke-width="2" />
</svg>
