<svg width="91" height="165" viewBox="0 0 91 165" fill="none"
    xmlns="http://www.w3.org/2000/svg">
    <path d="M25.0211 113.394L24.0216 113.425L24.0522 114.425L24.586 131.832C24.7014 135.595 27.0643 138.758 30.3413 140.052C31.4504 140.489 32.6633 140.712 33.9261 140.673L33.9288 140.673L45.8219 140.271L46.3797 140.252L46.6567 139.768L61.3391 114.077L62.2157 112.543L60.4498 112.581L29.9247 113.241L29.9247 113.241L29.9152 113.241L25.0211 113.394Z" fill="#92E3A9" stroke="#274430" stroke-width="2"/>
    <path d="M24.9912 110.03L25.525 127.438C25.6278 130.791 27.7325 133.608 30.6482 134.758C31.6332 135.147 32.7108 135.345 33.8349 135.31L48.6043 135.061L62.8069 111.623L29.8853 109.878L24.9912 110.03Z" fill="#565656" fill-opacity="0.3"/>
    <path d="M45.7889 139.272L60.4712 113.581L58.1702 113.459L43.0337 139.562L45.7889 139.272Z" fill="#565656" fill-opacity="0.3"/>
    <path d="M25.0518 114.393L25.5855 131.801C25.6884 135.155 27.7931 137.971 30.7088 139.121L29.9459 114.241L25.0518 114.393Z" fill="white" fill-opacity="0.3"/>
    <rect x="-1.03016" y="-0.968404" width="5.74436" height="21.1574" transform="matrix(0.999516 -0.0311264 0.0306484 0.99953 39.7162 142.103)" fill="#9CADE8" stroke="#274430" stroke-width="2"/>
    <rect width="0.864084" height="19.1574" transform="matrix(-0.999516 0.0311264 0.0306484 0.99953 43.4292 142.019)" fill="#565656" fill-opacity="0.3"/>
    <rect width="0.864084" height="19.1574" transform="matrix(-0.999516 0.0311264 0.0306484 0.99953 40.5503 142.108)" fill="white" fill-opacity="0.3"/>
    <path d="M49.559 133.627L50.098 133.61L50.3803 133.151L63.5547 111.711L63.8851 111.174L63.5423 110.644L32.2787 62.3595L47.4626 38.1675L48.4601 36.5782L46.585 36.6366L34.7816 37.0042C23.4106 37.3583 14.4905 46.9325 14.8413 58.3731L16.5441 113.907C16.8949 125.348 26.3846 134.349 37.7556 133.995L49.559 133.627Z" fill="white" stroke="#274430" stroke-width="2"/>
    <path d="M31.0931 62.3682L46.616 37.6361L28.7921 62.2462L60.4021 111.066L49.5287 132.628L62.7031 111.188L31.0931 62.3682Z" fill="#565656" fill-opacity="0.3"/>
    <path d="M42.2582 120.962C47.4402 120.8 51.4958 116.434 51.3361 111.227C51.1765 106.02 46.8611 101.914 41.6791 102.075C36.4971 102.237 32.4415 106.603 32.6012 111.81C32.7608 117.017 37.0762 121.123 42.2582 120.962Z" fill="#80B990" stroke="#274430" stroke-width="2"/>
    <ellipse cx="4.18601" cy="4.22383" rx="4.18601" ry="4.22383" transform="matrix(0.999516 -0.0311264 0.0306484 0.99953 37.6553 107.427)" fill="#83CC98"/>
    <path d="M39.4253 106.921L38.6251 107.421C38.0843 107.759 37.9173 108.475 38.252 109.021L42.5577 116.036C42.8924 116.581 43.4948 116.578 44.0355 116.24L44.8357 115.74C45.3765 115.402 45.6509 114.858 45.3162 114.312L41.0105 107.297C40.6758 106.752 39.9661 106.584 39.4253 106.921Z" fill="#565656" fill-opacity="0.3"/>
    <rect x="-1.37114" y="-0.322346" width="4.09818" height="11.3898" rx="2.04909" transform="matrix(0.848044 -0.529926 0.5231 0.852272 38.6776 107.148)" fill="white" stroke="#274430" stroke-width="2"/>
    <path d="M50.3368 111.258C50.5957 119.702 42.2278 119.962 42.2278 119.962C42.2278 119.962 49.733 118.883 49.5 111.284C49.267 103.685 41.71 103.075 41.71 103.075C41.71 103.075 50.0779 102.814 50.3368 111.258Z" fill="#565656" fill-opacity="0.3"/>
    <path d="M33.6007 111.779C33.3418 103.335 41.7097 103.075 41.7097 103.075C41.7097 103.075 34.2045 104.154 34.4375 111.753C34.6705 119.352 42.2275 119.962 42.2275 119.962C42.2275 119.962 33.8596 120.223 33.6007 111.779Z" fill="white" fill-opacity="0.3"/>
    <path d="M80.5709 112.857L80.5905 111.857L79.5907 111.838L68.2159 111.611L67.6777 111.601L67.3725 112.044L50.0259 137.247L48.9728 138.777L50.8301 138.814L70.9879 139.215C76.0006 139.315 80.1311 135.302 80.2297 130.27L80.5709 112.857Z" fill="#92E3A9" stroke="#274430" stroke-width="2"/>
    <path d="M79.5179 126.767L79.8591 109.354L69.666 109.529L53.0393 134.232L71.2955 134.732C75.7487 134.821 79.43 131.255 79.5179 126.767Z" fill="#565656" fill-opacity="0.3"/>
    <path d="M79.5708 112.837L76.0796 112.768C76.0796 112.768 73.7272 120.298 72.0657 123.637C68.1405 131.526 61.1958 138.02 61.1958 138.02L71.0072 138.215C75.4603 138.304 79.1416 134.738 79.2296 130.25L79.5708 112.837Z" fill="#565656" fill-opacity="0.3"/>
    <rect x="-0.98021" y="-1.01971" width="5.74435" height="21.1575" transform="matrix(0.999802 0.0198978 -0.019592 0.999808 59.4569 140.586)" fill="#E89C9C" stroke="#274430" stroke-width="2"/>
    <rect width="0.864082" height="19.1575" transform="matrix(-0.999802 -0.0198978 -0.0195921 0.999808 63.2207 140.641)" fill="#565656" fill-opacity="0.3"/>
    <rect width="0.86408" height="19.1575" transform="matrix(-0.999802 -0.0198978 -0.019592 0.999808 60.3413 140.584)" fill="white" fill-opacity="0.3"/>
    <path d="M87.0729 112.236L88.1614 56.6859C88.3034 49.4416 84.5541 43.0318 78.8478 39.4846C75.9691 37.6952 72.5925 36.6342 68.9662 36.562L57.1594 36.327L40.4143 60.2356L69.5318 110.605L55.2975 131.345L67.1042 131.58C70.7306 131.653 74.1461 130.727 77.0926 129.053C82.9334 125.736 86.9309 119.48 87.0729 112.236Z" fill="white"/>
    <path d="M57.179 35.3272L56.6461 35.3166L56.3403 35.7532L39.5952 59.6618L39.2295 60.1839L39.5486 60.7359L68.3504 110.559L54.4729 130.779L53.4236 132.308L55.2779 132.345L67.0847 132.58C70.8961 132.656 74.4884 131.683 77.5867 129.923C83.7237 126.437 87.9236 119.865 88.0727 112.256L89.1612 56.7058C89.3103 49.097 85.3712 42.3625 79.3755 38.6354C76.3486 36.7538 72.7972 35.6381 68.9858 35.5622L57.179 35.3272Z" fill="white" stroke="#274430" stroke-width="2"/>
    <path d="M40.6356 19.8547C40.6356 20.1764 40.6485 20.4952 40.6737 20.8106C34.9666 21.4464 30.5547 26.381 30.5547 32.3361C30.5547 35.0253 31.4536 37.5047 32.9637 39.4739C32.8945 39.9878 32.8589 40.512 32.8589 41.0441C32.8589 44.3883 34.2659 47.4037 36.5156 49.5198C35.9934 50.5041 35.6079 51.5733 35.3849 52.7014C33.8131 54.0557 32.8164 56.0692 32.8164 58.3149C32.8164 62.0328 35.5479 65.1179 39.1134 65.627C39.1329 65.6638 39.1525 65.7007 39.1721 65.7378C39.5642 66.4774 39.9868 67.2746 40.476 67.9878C41.111 68.9135 41.9127 69.7871 43.0481 70.3748L46.0697 71.9388L44.3749 68.9886L39.9407 61.27L48.1391 49.6779C48.34 49.7611 48.5487 49.8462 48.7475 49.9243C48.9837 50.0171 49.2213 50.1061 49.4271 50.1733C49.5296 50.2068 49.6361 50.2388 49.7376 50.2634C49.8217 50.2837 49.9706 50.3166 50.1323 50.3166C51.7203 50.3166 53.1157 49.5077 53.9412 48.2843C55.907 48.2572 57.5674 46.992 58.2015 45.2367C58.5692 45.3317 58.9539 45.3821 59.3492 45.3821C60.3653 45.3821 61.3053 45.0497 62.0658 44.4892C62.2146 44.5038 62.3653 44.5113 62.5174 44.5113C63.3941 44.5113 64.2131 44.2642 64.9094 43.837C66.1863 46.141 68.6318 47.7042 71.4463 47.7042C75.585 47.7042 78.9269 44.3252 78.9269 40.1733C78.9269 40.0824 78.914 39.998 78.9104 39.9749L78.91 39.972C78.9039 39.9316 78.8962 39.8878 78.8884 39.8456C78.8745 39.7703 78.8562 39.6788 78.8358 39.5798C78.6997 38.4927 78.414 37.4522 78.0003 36.48C81.9501 34.641 84.6874 30.6162 84.6874 25.9503C84.6874 24.0677 84.2412 22.2873 83.4485 20.713C83.5058 20.2412 83.5353 19.761 83.5353 19.2742C83.5353 12.9648 78.582 7.80017 72.3844 7.68155C70.5747 3.74567 66.6518 1.00336 62.0854 1.00336C57.295 1.00336 53.2133 4.02068 51.5354 8.26966C45.4556 8.52076 40.6356 13.6308 40.6356 19.8547Z" fill="#E1DFDF" stroke="#274430" stroke-width="2"/>
    <path d="M37.5472 49.3049C35.1486 47.3631 33.6133 44.3826 33.6133 41.0407C33.6133 40.4092 33.6681 39.7907 33.7732 39.1896C32.2363 37.3416 31.3091 34.9478 31.3091 32.3328C31.3091 26.5772 35.8007 21.8936 41.3978 21.7419C41.4451 21.7139 41.4926 21.6862 41.5403 21.6589C41.4415 21.0715 41.39 20.4676 41.39 19.8513C41.39 14.0001 46.0323 9.25665 51.7589 9.25665C51.8379 9.25665 51.9166 9.25756 51.9952 9.25935C46.2686 9.25935 43.6942 14.0001 43.6942 19.8513C43.6942 20.4676 43.7457 21.0715 43.8445 21.6589C43.7968 21.6862 43.7493 21.7139 43.702 21.7419C38.1049 21.8936 33.6133 26.5772 33.6133 32.3328C33.6133 34.9478 34.5405 37.3416 36.0774 39.1896C35.9723 39.7907 35.9175 40.4092 35.9175 41.0407C35.9175 44.3826 35.1486 47.3631 37.5472 49.3049Z" fill="white" fill-opacity="0.3"/>
    <path d="M71.7681 8.6855C71.9142 8.67926 72.0611 8.67611 72.2088 8.67611C77.9354 8.67611 82.5777 13.4195 82.5777 19.2708C82.5777 19.8214 82.5366 20.3622 82.4573 20.8902C83.2688 22.3929 83.7298 24.1157 83.7298 25.9469C83.7298 30.5753 80.7848 34.5105 76.6802 35.9532C77.5019 37.4632 77.9693 39.197 77.9693 41.0407C77.9693 41.0407 77.6388 42.492 77.0627 43.508C76.4867 44.5239 75.3717 45.3947 75.3717 45.3947C75.7484 44.3038 75.9531 43.1317 75.9531 41.9115C75.9531 40.0678 75.4858 38.334 74.664 36.824C78.7686 35.3813 81.7136 31.4461 81.7136 26.8177C81.7136 24.9865 81.2526 23.2637 80.4411 21.761C80.5204 21.233 80.5615 20.6922 80.5615 20.1416C80.5615 14.2903 75.9192 9.5469 70.1926 9.5469C70.045 9.5469 69.898 9.55006 69.7519 9.5563C68.2294 5.6398 64.487 2.8708 60.1117 2.8708C59.0672 2.8708 58.0587 3.0286 57.108 3.32215C58.5953 2.47969 60.3068 2 62.1278 2C66.5032 2 70.2456 4.769 71.7681 8.6855Z" fill="#565656" fill-opacity="0.3"/>
    <path d="M64.6243 7.83753C66.0736 9.29809 66.0736 11.6661 64.6243 13.1267C64.5104 13.2416 64.3908 13.3474 64.2665 13.4442C65.3918 11.9773 65.2868 9.86131 63.9515 8.51562C62.6162 7.16993 60.5165 7.0641 59.0609 8.19811C59.157 8.07289 59.262 7.9524 59.376 7.83753C60.8253 6.37696 63.175 6.37696 64.6243 7.83753Z" fill="#274430"/>
    <path d="M73.2408 18.7013C73.5335 21.5042 72.0663 23.9572 69.9637 24.1803C69.7983 24.1978 69.6339 24.201 69.4712 24.1907C71.31 23.6728 72.5343 21.3873 72.2646 18.8048C71.9949 16.2224 70.3253 14.2439 68.4198 14.123C68.5768 14.0788 68.7383 14.0475 68.9036 14.03C71.0063 13.8069 72.9481 15.8984 73.2408 18.7013Z" fill="#274430"/>
    <path d="M75.2522 31.7061C74.3677 33.25 72.7117 33.9554 71.5535 33.2815C71.4624 33.2285 71.3771 33.1685 71.2976 33.1023C72.4297 33.5264 73.8995 32.8157 74.7145 31.3932C75.5295 29.9707 75.4052 28.3325 74.4748 27.5566C74.5714 27.5928 74.6656 27.6372 74.7567 27.6903C75.9149 28.3642 76.1368 30.1621 75.2522 31.7061Z" fill="#274430"/>
    <path d="M47.3006 15.8632C48.6562 13.497 51.1941 12.416 52.9692 13.4488C53.1088 13.53 53.2395 13.6219 53.3613 13.7234C51.6263 13.0735 49.3737 14.1626 48.1247 16.3427C46.8757 18.5228 47.0662 21.0334 48.4922 22.2226C48.3441 22.1671 48.1997 22.0989 48.0601 22.0177C46.2851 20.9849 45.945 18.2294 47.3006 15.8632Z" fill="white"/>
    <path d="M41.0773 23.6444C42.4832 22.8264 44.0895 22.9777 44.665 23.9824C44.7103 24.0614 44.7479 24.1433 44.7779 24.2276C44.1053 23.4263 42.6399 23.3572 41.3446 24.1108C40.0493 24.8645 39.376 26.178 39.7282 27.1657C39.6708 27.0973 39.6192 27.0236 39.5739 26.9446C38.9984 25.9399 39.6715 24.4624 41.0773 23.6444Z" fill="white"/>
    <path d="M48.3584 27.3521C49.8443 25.8546 51.903 25.5015 52.9566 26.5633C53.0395 26.6468 53.1137 26.7366 53.1793 26.8319C52.0719 26.0571 50.2166 26.4654 48.8476 27.8451C47.4785 29.2247 47.0734 31.0944 47.8422 32.2105C47.7477 32.1443 47.6586 32.0696 47.5757 31.9861C46.5221 30.9242 46.8725 28.8495 48.3584 27.3521Z" fill="white"/>
    <path d="M37.9338 40.315C37.9338 36.6279 40.2198 33.6389 43.0397 33.6389C43.2615 33.6389 43.48 33.6574 43.6943 33.6933C41.1836 34.1134 39.243 36.9179 39.243 40.315C39.243 43.7122 41.1836 46.5167 43.6943 46.9368C43.48 46.9727 43.2615 46.9911 43.0397 46.9911C40.2198 46.9912 37.9338 44.0022 37.9338 40.315Z" fill="white"/>
    <path d="M53.9189 47.2814C53.7513 47.2814 53.5863 47.2699 53.4248 47.2476C55.173 47.2476 56.5482 45.7355 56.8748 44.0702C57.1477 44.0426 57.4117 43.9843 57.6632 43.8988C58.0249 44.0218 58.4124 44.0885 58.8153 44.0885C59.7502 44.0885 60.6018 43.7294 61.2419 43.1406C61.4812 43.1912 61.7293 43.2177 61.9836 43.2177C63.6271 43.2177 65.5894 42.3982 66.0209 40.8818C65.5894 42.3982 64.2031 43.508 62.5597 43.508C62.3054 43.508 62.0573 43.4814 61.8179 43.4309C61.1779 44.0197 60.3262 44.3788 59.3914 44.3788C58.9885 44.3788 58.601 44.3121 58.2393 44.189C57.9877 44.2746 57.7238 44.3329 57.4508 44.3605C57.1243 46.0257 55.6671 47.2814 53.9189 47.2814Z" fill="#565656" fill-opacity="0.3"/>
    <path d="M67.6489 38.7181C67.0911 40.4099 65.61 41.4369 64.3408 41.0119C64.241 40.9784 64.1454 40.937 64.0544 40.8883C65.248 41.0739 66.5457 40.0795 67.0597 38.5207C67.5737 36.9619 67.1246 35.3826 66.0582 34.8114C66.1601 34.8272 66.2612 34.8517 66.361 34.8851C67.6302 35.3101 68.2068 37.0262 67.6489 38.7181Z" fill="#274430"/>
    <path d="M46.6281 45.1847C45.7406 43.6357 46.1094 41.7468 47.4518 40.9658C47.5574 40.9043 47.6658 40.8516 47.7765 40.8073C46.6824 41.6792 46.4337 43.3949 47.2513 44.8221C48.0689 46.2493 49.6677 46.89 50.964 46.3711C50.8706 46.4455 50.771 46.5138 50.6654 46.5752C49.3231 47.3563 47.5155 46.7337 46.6281 45.1847Z" fill="white"/>
    <path d="M61.7824 34.8472C59.8183 38.2756 56.1411 39.8418 53.5692 38.3454C53.367 38.2277 53.1775 38.0946 53.0012 37.9475C55.5149 38.8892 58.7787 37.3112 60.5884 34.1524C62.398 30.9937 62.1221 27.3561 60.056 25.6331C60.2706 25.7135 60.4797 25.8123 60.682 25.93C63.2539 27.4264 63.7465 31.4188 61.7824 34.8472Z" fill="#274430"/>
    <path d="M87.0923 111.245L88.1614 56.686C88.253 52.0114 86.6957 44.3632 78.8477 39.4846C78.8477 39.4846 82.9514 44.2496 82.8681 51.6514C82.8042 57.3327 82.8384 96.9598 82.8577 115.074C82.8577 122.476 77.0926 129.053 77.0926 129.053C77.0926 129.053 81.3673 126.83 84.1035 122.476C86.3626 119.115 86.9035 115.062 87.0326 113.225C87.079 112.566 87.0793 111.905 87.0923 111.245Z" fill="#565656" fill-opacity="0.3"/>
    <path d="M63 64.0151L58.9259 62.4514C58.2902 62.2074 58.0276 61.4444 58.3781 60.8596C58.7586 60.2246 59.6447 60.1482 60.1309 60.7085L63 64.0151Z" fill="#565656" fill-opacity="0.3"/>
    <path d="M63.0115 64.022L58.8447 62.7292C58.1651 62.5184 57.8616 61.7216 58.228 61.1104C58.5943 60.4991 59.4353 60.399 59.9368 60.907L63.0115 64.022Z" fill="#274430"/>
    <path d="M59.0451 69.0513C62.9452 69.0513 66.0937 65.8672 66.0937 61.9557C66.0937 58.0443 62.9452 54.8602 59.0451 54.8602C55.145 54.8602 51.9966 58.0443 51.9966 61.9557C51.9966 65.8672 55.145 69.0513 59.0451 69.0513Z" stroke="#274430" stroke-width="2"/>
</svg>
