<svg width="91" height="166" fill="none" xmlns="http://www.w3.org/2000/svg">
    <path d="m30.975 112.394-1 .031.03 1 .535 17.407a9.127 9.127 0 0 0 5.755 8.22 9 9 0 0 0 3.585.621h.002l11.894-.402.557-.019.277-.484 14.683-25.691.876-1.534-1.766.038-30.525.66h-.01l-4.893.153Z" fill="#92E3A9" stroke="#274430" stroke-width="2"/>
    <path d="m30.945 109.03.534 17.408a8.126 8.126 0 0 0 5.123 7.32 7.978 7.978 0 0 0 3.187.552l14.769-.249 14.202-23.438-32.921-1.745-4.894.152Z" fill="#565656" fill-opacity=".3"/>
    <path d="m51.742 138.272 14.683-25.691-2.301-.122-15.137 26.103 2.755-.29Z" fill="#565656" fill-opacity=".3"/>
    <path d="m31.005 113.393.534 17.408a8.125 8.125 0 0 0 5.123 7.32l-.762-24.88-4.895.152Z" fill="#fff" fill-opacity=".3"/>
    <path transform="rotate(-1.783 4490.7 -1397.393) skewX(-.027)" fill="#9CADE8" stroke="#274430" stroke-width="2" d="M-1.03-.968h5.744v21.157H-1.03z"/>
    <path fill="#565656" fill-opacity=".3" d="m49.383 139.019-.864.027.587 19.148.864-.027z"/>
    <path fill="#fff" fill-opacity=".3" d="m46.504 139.108-.864.027.587 19.148.864-.027z"/>
    <path d="m55.513 132.627.539-.017.282-.459 13.174-21.44.33-.537-.342-.53-31.264-48.285 15.184-24.192.998-1.589-1.875.059-11.804.367c-11.37.354-20.29 9.928-19.94 21.37l1.703 55.533c.35 11.441 9.84 20.442 21.211 20.088l11.804-.368Z" fill="#fff" stroke="#274430" stroke-width="2"/>
    <path d="M37.047 61.368 52.57 36.636l-17.824 24.61 31.61 48.82-10.874 21.562 13.175-21.44-31.61-48.82Z" fill="#565656" fill-opacity=".3"/>
    <path d="M48.212 119.962c5.182-.162 9.237-4.528 9.078-9.735-.16-5.207-4.475-9.313-9.657-9.152-5.182.162-9.238 4.528-9.078 9.735.16 5.207 4.475 9.313 9.657 9.152Z" fill="#75B687" stroke="#274430" stroke-width="2"/>
    <ellipse cx="4.186" cy="4.224" rx="4.186" ry="4.224" transform="rotate(-1.783 3440.141 -1347.534) skewX(-.027)" fill="#83CC98"/>
    <path d="m45.379 105.921-.8.5a1.169 1.169 0 0 0-.373 1.6l4.305 7.015c.335.545.937.542 1.478.204l.8-.5c.541-.338.816-.882.48-1.428l-4.305-7.015a1.146 1.146 0 0 0-1.585-.376Z" fill="#565656" fill-opacity=".3"/>
    <rect x="-1.371" y="-.322" width="4.098" height="11.39" rx="2.049" transform="matrix(.84804 -.52993 .5231 .85227 44.631 106.148)" fill="#fff" stroke="#274430" stroke-width="2"/>
    <path d="M56.29 110.258c.26 8.444-8.109 8.704-8.109 8.704s7.506-1.079 7.273-8.678c-.233-7.599-7.79-8.209-7.79-8.209s8.367-.261 8.626 8.183Z" fill="#565656" fill-opacity=".3"/>
    <path d="M39.554 110.779c-.259-8.444 8.11-8.704 8.11-8.704s-7.506 1.079-7.273 8.678c.233 7.599 7.79 8.209 7.79 8.209s-8.368.261-8.627-8.183Z" fill="#fff" fill-opacity=".3"/>
    <path d="m80.57 113.857.02-1-1-.019-11.374-.227-.538-.01-.305.443-17.347 25.203-1.053 1.53 1.857.037 20.158.401c5.013.1 9.143-3.913 9.242-8.945l.34-17.413Z" fill="#92E3A9" stroke="#274430" stroke-width="2"/>
    <path d="m79.518 127.767.341-17.413-10.193.175-16.627 24.703 18.257.5c4.453.089 8.134-3.477 8.222-7.965Z" fill="#565656" fill-opacity=".3"/>
    <path d="m79.57 113.837-3.49-.069s-2.353 7.53-4.014 10.869c-3.925 7.889-10.87 14.383-10.87 14.383l9.811.195c4.453.089 8.135-3.477 8.223-7.965l.34-17.413Z" fill="#565656" fill-opacity=".3"/>
    <path transform="rotate(1.14 -6984.722 3057.618) skewX(.018)" fill="#E89C9C" stroke="#274430" stroke-width="2" d="M-.98-1.02h5.744v21.157H-.98z"/>
    <path fill="#565656" fill-opacity=".3" d="m63.22 139.641-.863-.017-.375 19.153.863.017z"/>
    <path fill="#fff" fill-opacity=".3" d="m60.341 139.584-.864-.017-.375 19.153.864.017z"/>
    <path d="m87.073 113.236 1.088-55.55a19.765 19.765 0 0 0-9.313-17.201 19.387 19.387 0 0 0-9.882-2.923l-11.807-.235-16.745 23.909 29.118 50.369-14.234 20.74 11.806.235a19.364 19.364 0 0 0 9.989-2.527 19.75 19.75 0 0 0 9.98-16.817Z" fill="#fff"/>
    <path d="m57.179 36.327-.533-.01-.306.436-16.745 23.909-.365.522.319.552 28.801 49.823-13.877 20.22-1.05 1.529 1.855.037 11.807.235a20.372 20.372 0 0 0 10.502-2.657 20.751 20.751 0 0 0 10.486-17.667l1.088-55.55a20.766 20.766 0 0 0-9.785-18.07 20.386 20.386 0 0 0-10.39-3.074l-11.807-.235Z" fill="#fff" stroke="#274430" stroke-width="2"/>
    <path d="M41.628 19.855a12 12 0 0 0 .038.956c-5.707.635-10.12 5.57-10.12 11.525 0 2.69.9 5.169 2.41 7.138-.07.514-.105 1.038-.105 1.57 0 3.344 1.407 6.36 3.657 8.476a11.575 11.575 0 0 0-1.13 3.181 7.392 7.392 0 0 0-2.57 5.614c0 3.718 2.732 6.803 6.298 7.312l.058.11c.392.74.815 1.538 1.304 2.25.635.927 1.437 1.8 2.572 2.388l3.022 1.564-1.695-2.95-4.434-7.719 8.198-11.592c.201.083.41.168.609.246.236.093.474.182.68.25.102.033.208.065.31.09.084.02.233.053.395.053a4.588 4.588 0 0 0 3.808-2.033 4.603 4.603 0 0 0 4.26-3.047 4.583 4.583 0 0 0 3.865-.748 4.56 4.56 0 0 0 2.844-.652c1.276 2.304 3.722 3.867 6.537 3.867 4.138 0 7.48-3.379 7.48-7.53 0-.092-.013-.176-.016-.2v-.002a13.72 13.72 0 0 0-.074-.392 11.586 11.586 0 0 0-.836-3.1 11.601 11.601 0 0 0 6.687-10.53c0-1.882-.447-3.663-1.24-5.237.058-.472.088-.952.088-1.439 0-6.31-4.954-11.474-11.151-11.592-1.81-3.936-5.733-6.679-10.3-6.679-4.79 0-8.871 3.018-10.55 7.267-6.08.25-10.9 5.36-10.9 11.585Z" fill="#E1DFDF" stroke="#274430" stroke-width="2"/>
    <path d="M38.54 49.305a10.606 10.606 0 0 1-3.934-8.264c0-.632.054-1.25.16-1.851a10.69 10.69 0 0 1-2.465-6.857c0-5.756 4.492-10.44 10.089-10.591l.142-.083a10.892 10.892 0 0 1-.15-1.808c0-5.85 4.643-10.594 10.37-10.594.078 0 .157 0 .235.002-5.726 0-8.3 4.741-8.3 10.592 0 .617.05 1.22.15 1.808l-.143.083c-5.597.152-10.089 4.835-10.089 10.59 0 2.616.928 5.01 2.465 6.858-.105.6-.16 1.22-.16 1.85 0 3.343-.77 6.323 1.63 8.265Z" fill="#fff" fill-opacity=".3"/>
    <path d="M72.76 8.685c.146-.006.293-.009.44-.009 5.727 0 10.37 4.743 10.37 10.595 0 .55-.041 1.091-.12 1.62a10.611 10.611 0 0 1 1.272 5.056c0 4.628-2.945 8.564-7.05 10.006a10.612 10.612 0 0 1 1.29 5.088s-.331 1.451-.907 2.467c-.576 1.016-1.691 1.887-1.691 1.887.377-1.091.581-2.263.581-3.484 0-1.843-.467-3.577-1.289-5.087a10.594 10.594 0 0 0 7.05-10.006c0-1.832-.461-3.554-1.273-5.057.08-.528.12-1.069.12-1.62 0-5.85-4.642-10.594-10.368-10.594-.148 0-.295.003-.44.01-1.523-3.917-5.266-6.686-9.641-6.686-1.045 0-2.053.158-3.004.451A10.15 10.15 0 0 1 63.12 2c4.375 0 8.118 2.769 9.64 6.685Z" fill="#565656" fill-opacity=".3"/>
    <path d="M65.617 7.838a3.76 3.76 0 0 1-.358 5.606 3.762 3.762 0 0 0-.315-4.928 3.69 3.69 0 0 0-4.89-.318 3.69 3.69 0 0 1 5.563-.36ZM74.233 18.701c.293 2.803-1.175 5.256-3.277 5.48a2.92 2.92 0 0 1-.493.01c1.84-.518 3.064-2.804 2.794-5.386-.27-2.583-1.94-4.561-3.845-4.682.157-.044.318-.075.484-.093 2.103-.223 4.044 1.868 4.337 4.671ZM76.244 31.706c-.884 1.544-2.54 2.25-3.698 1.576a1.866 1.866 0 0 1-.256-.18c1.132.424 2.602-.286 3.417-1.709.815-1.422.69-3.06-.24-3.836.097.036.19.08.282.133 1.158.674 1.38 2.472.495 4.016Z" fill="#274430"/>
    <path d="M48.293 15.863c1.355-2.366 3.893-3.447 5.668-2.414.14.081.27.173.392.274-1.735-.65-3.987.44-5.236 2.62-1.25 2.18-1.059 4.69.367 5.88a2.842 2.842 0 0 1-.432-.205c-1.775-1.033-2.115-3.789-.76-6.155ZM42.07 23.644c1.405-.818 3.012-.666 3.587.338.046.08.083.161.113.246-.673-.802-2.138-.87-3.433-.117-1.296.753-1.969 2.067-1.617 3.055a1.518 1.518 0 0 1-.154-.221c-.576-1.005.098-2.483 1.503-3.3ZM49.35 27.352c1.486-1.497 3.545-1.85 4.599-.789.083.084.157.174.223.269-1.108-.775-2.963-.367-4.332 1.013-1.37 1.38-1.774 3.25-1.006 4.366a1.958 1.958 0 0 1-.266-.225c-1.054-1.062-.703-3.137.783-4.634ZM38.926 40.315c0-3.687 2.286-6.676 5.106-6.676.222 0 .44.018.655.054-2.511.42-4.452 3.225-4.452 6.622s1.94 6.202 4.452 6.622a3.958 3.958 0 0 1-.655.054c-2.82 0-5.106-2.989-5.106-6.676Z" fill="#fff"/>
    <path d="m87.092 112.245 1.07-54.559c.091-4.675-1.466-12.323-9.314-17.201 0 0 4.103 4.765 4.02 12.166-.064 5.682-.03 45.309-.01 63.423 0 7.402-5.765 13.979-5.765 13.979s4.274-2.223 7.01-6.577c2.26-3.361 2.8-7.414 2.93-9.251.046-.659.046-1.32.06-1.98ZM54.911 47.281a3.61 3.61 0 0 1-.494-.033c1.749 0 3.124-1.512 3.45-3.178a3.56 3.56 0 0 0 .789-.171 3.572 3.572 0 0 0 3.579-.758c.239.05.487.077.741.077 1.644 0 3.606-.82 4.038-2.336a3.606 3.606 0 0 1-4.203 2.549 3.572 3.572 0 0 1-3.58.758 3.556 3.556 0 0 1-.788.172c-.326 1.665-1.783 2.92-3.532 2.92Z" fill="#565656" fill-opacity=".3"/>
    <path d="M68.641 38.718c-.558 1.692-2.039 2.719-3.308 2.294a1.858 1.858 0 0 1-.286-.124c1.193.186 2.49-.808 3.005-2.367.514-1.56.065-3.138-1.002-3.71.102.016.203.04.303.074 1.27.425 1.846 2.141 1.288 3.833Z" fill="#274430"/>
    <path d="M47.62 45.185c-.887-1.55-.518-3.438.824-4.22.106-.06.214-.113.325-.158-1.094.872-1.343 2.588-.526 4.015.818 1.427 2.417 2.068 3.713 1.55a2.478 2.478 0 0 1-.298.203c-1.343.781-3.15.159-4.038-1.39Z" fill="#fff"/>
    <path d="M62.775 34.847c-1.964 3.429-5.641 4.995-8.213 3.498a4.125 4.125 0 0 1-.568-.398c2.514.942 5.777-.636 7.587-3.795 1.81-3.158 1.534-6.796-.532-8.519.214.08.423.18.626.297 2.572 1.496 3.064 5.489 1.1 8.917Z" fill="#274430"/>
    <path d="m63 65.015-4.074-1.564a1.101 1.101 0 0 1-.548-1.591 1.085 1.085 0 0 1 1.753-.151L63 65.014Z" fill="#565656" fill-opacity=".3"/>
    <path d="m63.011 65.022-4.166-1.293a1.103 1.103 0 0 1-.617-1.619 1.087 1.087 0 0 1 1.709-.203l3.075 3.115Z" fill="#274430"/>
    <path d="M59.045 70.051c3.9 0 7.049-3.184 7.049-7.095 0-3.912-3.149-7.096-7.049-7.096-3.9 0-7.048 3.184-7.048 7.096 0 3.911 3.148 7.095 7.048 7.095Z" stroke="#274430" stroke-width="2"/>
</svg>
