<svg xmlns="http://www.w3.org/2000/svg" width="91" height="136" fill="none"><path fill="#92E3A9" d="m28.707 90.943.381 12.33a5.76 5.76 0 0 0 3.658 5.186 5.74 5.74 0 0 0 2.274.391l8.49-.285 10.481-18.198-21.79.468-3.494.108Z"/><path fill="#274430" fill-rule="evenodd" d="m27.248 89.57 4.916-.151 24.309-.522-12.128 21.058-9.28.311a7.149 7.149 0 0 1-2.836-.488l.517-1.319a5.74 5.74 0 0 0 2.274.391l8.49-.285 10.481-18.198-21.79.468-3.494.108.381 12.33a5.76 5.76 0 0 0 3.657 5.186l-.516 1.319a7.177 7.177 0 0 1-4.557-6.461l-.424-13.746Z" clip-rule="evenodd"/><path fill="#565656" fill-opacity=".3" d="m28.664 87.852.381 12.331a5.759 5.759 0 0 0 5.932 5.576l10.543-.176 10.138-16.602-23.5-1.236-3.494.107Z"/><path fill="#565656" fill-opacity=".3" d="m43.51 108.565 10.481-18.198-1.643-.086-10.805 18.49 1.967-.206Z"/><path fill="#fff" fill-opacity=".3" d="m28.707 90.943.381 12.33a5.76 5.76 0 0 0 3.658 5.186L32.2 90.835l-3.494.108Z"/><path fill="#9CADE8" d="m39.154 110.594 2.672-.083.419 13.563-2.672.083-.419-13.563Z"/><path fill="#274430" fill-rule="evenodd" d="m37.695 109.221 5.503-.17.507 16.396-5.503.17-.507-16.396Zm1.46 1.373.419 13.563 2.671-.083-.419-13.563-2.671.083Z" clip-rule="evenodd"/><path fill="#565656" fill-opacity=".3" d="m41.826 110.511-.617.02.42 13.563.616-.02z"/><path fill="#fff" fill-opacity=".3" d="m39.771 110.574-.617.02.42 13.563.616-.02z"/><path fill="#fff" d="m22.132 51.24 1.216 39.337c.238 7.718 6.688 13.781 14.406 13.542l8.426-.26 9.404-15.186L33.02 54.092 44.1 36.573l-8.425.26c-7.718.24-13.781 6.689-13.543 14.407Z"/><path fill="#274430" fill-rule="evenodd" d="M46.725 35.075 34.704 54.08l22.559 34.573-10.28 16.598-9.185.284c-8.5.263-15.604-6.415-15.866-14.915l-1.216-39.336c-.262-8.5 6.415-15.604 14.915-15.866l11.094-.343ZM33.02 54.092 44.1 36.573l-8.425.26c-7.718.24-13.781 6.689-13.543 14.407l1.216 39.337c.238 7.718 6.688 13.781 14.406 13.542l8.426-.26 9.404-15.186L33.02 54.092Z" clip-rule="evenodd"/><path fill="#565656" fill-opacity=".3" d="M33.02 54.092 44.1 36.573 31.377 54.005l22.565 34.581-7.762 15.273 9.404-15.186L33.02 54.092Z"/><path fill="#80B990" d="M46.757 88.722a5.98 5.98 0 0 1-5.789 6.166 5.98 5.98 0 0 1-6.158-5.797 5.98 5.98 0 0 1 5.788-6.165 5.98 5.98 0 0 1 6.159 5.796Z"/><path fill="#274430" fill-rule="evenodd" d="M48.173 88.678c.126 4.084-3.078 7.5-7.16 7.626-4.084.126-7.493-3.086-7.619-7.17-.126-4.083 3.078-7.498 7.16-7.624 4.084-.127 7.493 3.085 7.619 7.168Zm-7.205 6.21a5.98 5.98 0 0 0 5.789-6.166 5.98 5.98 0 0 0-6.158-5.796 5.98 5.98 0 0 0-5.789 6.165 5.98 5.98 0 0 0 6.158 5.797Z" clip-rule="evenodd"/><ellipse cx="40.783" cy="88.906" fill="#83CC98" rx="2.988" ry="2.992" transform="rotate(-1.8 40.783 88.906)"/><path fill="#565656" fill-opacity=".3" d="m38.968 85.65-.571.354a.824.824 0 0 0-.267 1.133l3.074 4.97c.239.386.669.383 1.055.144l.571-.354c.386-.24.582-.625.343-1.012l-3.074-4.969a.821.821 0 0 0-1.131-.266Z"/><path fill="#fff" d="M38.855 86.995a.748.748 0 0 1 1.27-.788l2.72 4.398a.748.748 0 0 1-1.27.787l-2.72-4.397Z"/><path fill="#274430" fill-rule="evenodd" d="m41.33 85.46 2.72 4.398a2.167 2.167 0 0 1-.701 2.98 2.161 2.161 0 0 1-2.977-.7l-2.72-4.397a2.167 2.167 0 0 1 .7-2.98 2.161 2.161 0 0 1 2.978.7Zm-2.233.505a.748.748 0 0 0-.242 1.03l2.72 4.397a.746.746 0 1 0 1.27-.787l-2.72-4.398a.746.746 0 0 0-1.028-.242Z" clip-rule="evenodd"/><path fill="#565656" fill-opacity=".3" d="M46.757 88.722c.185 5.98-5.789 6.166-5.789 6.166s5.358-.765 5.191-6.148c-.166-5.382-5.56-5.814-5.56-5.814s5.973-.185 6.158 5.796Z"/><path fill="#fff" fill-opacity=".3" d="M34.81 89.091c-.185-5.98 5.789-6.165 5.789-6.165s-5.358.764-5.192 6.147c.167 5.383 5.561 5.815 5.561 5.815s-5.973.184-6.158-5.797Z"/><path fill="#92E3A9" d="m67.382 102.175.244-12.334-8.12-.16-12.383 17.852 14.39.284a5.757 5.757 0 0 0 5.87-5.642Z"/><path fill="#274430" fill-rule="evenodd" d="m69.07 88.452-.272 13.751a7.173 7.173 0 0 1-7.314 7.03l-17.032-.336 14.322-20.648 10.296.203Zm-9.564 1.228 8.12.16-.244 12.335a5.757 5.757 0 0 1-5.87 5.642l-14.39-.284L59.507 89.68Z" clip-rule="evenodd"/><path fill="#565656" fill-opacity=".3" d="m67.588 99.707.243-12.333-7.276.123-11.869 17.498 13.032.355a5.758 5.758 0 0 0 5.87-5.643Z"/><path fill="#565656" fill-opacity=".3" d="m67.626 89.84-2.492-.048s-1.68 5.333-2.866 7.699c-2.802 5.588-7.759 10.187-7.759 10.187l7.004.139a5.757 5.757 0 0 0 5.87-5.642l.243-12.334Z"/><path fill="#E89C9C" d="m53.282 109.482 2.672.053-.268 13.567-2.672-.052.268-13.568Z"/><path fill="#274430" fill-rule="evenodd" d="m51.894 108.038 5.505.109-.324 16.4-5.505-.109.324-16.4Zm1.388 1.444-.268 13.568 2.672.052.268-13.567-2.672-.053Z" clip-rule="evenodd"/><path fill="#565656" fill-opacity=".3" d="m55.954 109.535-.617-.012-.268 13.567.617.012z"/><path fill="#fff" fill-opacity=".3" d="m53.898 109.494-.616-.012-.268 13.567.616.012z"/><path fill="#fff" d="m72.98 89.415.778-39.348c.1-5.132-2.575-9.672-6.649-12.184a13.917 13.917 0 0 0-7.054-2.07l-8.428-.167L39.674 52.58 60.459 88.26 50.298 102.95l8.428.166a13.921 13.921 0 0 0 7.13-1.79c4.17-2.35 7.023-6.78 7.125-11.912Z"/><path fill="#fff" d="m72.98 89.415.778-39.348c.1-5.132-2.575-9.672-6.649-12.184a13.917 13.917 0 0 0-7.054-2.07l-8.428-.167L39.674 52.58 60.459 88.26 50.298 102.95l8.428.166a13.921 13.921 0 0 0 7.13-1.79c4.17-2.35 7.023-6.78 7.125-11.912Z"/><path fill="#274430" fill-rule="evenodd" d="m50.904 34.215 9.18.181c2.848.056 5.505.884 7.77 2.28 4.482 2.766 7.432 7.766 7.32 13.419l-.777 39.348c-.111 5.653-3.257 10.532-7.845 13.118a15.318 15.318 0 0 1-7.854 1.972l-11.066-.218 11.15-16.12-20.79-35.687 12.912-18.293Zm9.555 54.045L50.3 102.95l8.427.166a13.921 13.921 0 0 0 7.13-1.79c4.17-2.35 7.023-6.78 7.125-11.912l.777-39.348c.101-5.132-2.575-9.672-6.649-12.184a13.917 13.917 0 0 0-7.053-2.07l-8.429-.167-11.953 16.935L60.459 88.26Z" clip-rule="evenodd"/><path fill="#E1DFDF" d="M62.025 16.069c.105-.005.21-.007.315-.007 4.088 0 7.402 3.36 7.402 7.505 0 .39-.03.773-.086 1.147a7.508 7.508 0 0 1-4.124 10.67c.446.813.746 1.72.864 2.681.033.16.056.277.056.305a4.626 4.626 0 0 1-9.023 1.438 2.565 2.565 0 0 1-2.506.872 2.561 2.561 0 0 1-2.555.537c-.18.06-.368.102-.563.122a2.57 2.57 0 0 1-2.874 2.045 2.57 2.57 0 0 1-2.32 1.463c-.218 0-1.163-.405-1.675-.617l-6.446 9.044 3.392 5.86c-1.34-.689-1.965-2.078-2.686-3.4a4.524 4.524 0 0 1-2.457-8.107 7.457 7.457 0 0 1 1.064-2.786 7.49 7.49 0 0 1-2.809-5.854c0-.447.04-.885.115-1.311a7.537 7.537 0 0 1-1.76-4.857c0-4.077 3.207-7.394 7.202-7.502l.102-.059a7.65 7.65 0 0 1-.107-1.28c0-4.145 3.314-7.505 7.401-7.505l.17.002c.976-2.987 3.753-5.142 7.027-5.142 3.123 0 5.794 1.962 6.881 4.736Z"/><path fill="#274430" fill-rule="evenodd" d="M33.548 51.22a5.942 5.942 0 0 0 4.74 5.82c.251.466.535.977.854 1.437.493.714 1.145 1.43 2.093 1.917l4.29 2.203-5.352-9.243 5.266-7.389c.152.059.31.116.454.163.082.027.177.055.273.078.072.018.244.058.445.058 1.245 0 2.354-.57 3.084-1.46a3.987 3.987 0 0 0 3.089-2.056 3.973 3.973 0 0 0 2.54-.598l.128.002c.513 0 1.003-.098 1.453-.274a6.043 6.043 0 0 0 10.963-3.508c0-.122-.016-.23-.019-.247v-.002a9.498 9.498 0 0 0-.054-.288 8.874 8.874 0 0 0-.405-1.736 8.918 8.918 0 0 0 4.59-7.801c0-1.372-.31-2.674-.865-3.838.029-.294.044-.59.044-.891 0-4.706-3.613-8.589-8.219-8.901-1.476-2.817-4.406-4.75-7.796-4.75-3.56 0-6.61 2.13-8.006 5.178-4.506.414-8.009 4.25-8.009 8.884v.07c-4.107.772-7.196 4.419-7.196 8.771 0 1.962.627 3.78 1.691 5.254a8.894 8.894 0 0 0 2.41 7.061 8.862 8.862 0 0 0-.589 1.734 5.927 5.927 0 0 0-1.897 4.353Zm1.416 0a4.525 4.525 0 0 0 4.232 4.515c.079.143.156.288.233.432.632 1.183 1.258 2.353 2.453 2.967l-2.797-4.833-.595-1.027 6.446-9.044.17.07c.528.22 1.31.547 1.505.547a2.57 2.57 0 0 0 2.32-1.463 2.571 2.571 0 0 0 2.874-2.045c.195-.02.384-.061.563-.122a2.56 2.56 0 0 0 2.555-.537 2.58 2.58 0 0 0 2.505-.871c.157.48.39.926.687 1.323a4.626 4.626 0 0 0 8.338-2.762c0-.028-.024-.146-.057-.305a7.461 7.461 0 0 0-.864-2.681 7.501 7.501 0 0 0 5.032-7.088c0-1.297-.329-2.518-.908-3.582.056-.374.086-.757.086-1.147 0-4.145-3.314-7.505-7.402-7.505-.105 0-.21.002-.315.007-1.086-2.774-3.758-4.736-6.881-4.736-3.274 0-6.051 2.155-7.028 5.142a7.265 7.265 0 0 0-.168-.002c-4.088 0-7.402 3.36-7.402 7.505 0 .436.037.864.107 1.28a6.87 6.87 0 0 0-.102.06 7.305 7.305 0 0 0-1.299.15c-3.369.703-5.902 3.727-5.902 7.351 0 1.852.662 3.548 1.759 4.857a7.545 7.545 0 0 0-.114 1.311 7.49 7.49 0 0 0 2.808 5.854 7.46 7.46 0 0 0-1.063 2.786 4.516 4.516 0 0 0-1.776 3.594Z" clip-rule="evenodd"/><path fill="#fff" fill-opacity=".3" d="M37.627 44.839a7.49 7.49 0 0 1-2.808-5.854c0-.447.04-.886.114-1.312a7.536 7.536 0 0 1-1.759-4.856c0-4.077 3.207-7.395 7.202-7.502l.102-.059a7.65 7.65 0 0 1-.108-1.28c0-4.145 3.314-7.505 7.402-7.505.057 0 .113 0 .169.002-4.088 0-5.926 3.358-5.926 7.503 0 .436.037.864.108 1.28l-.102.059c-3.995.107-7.202 3.425-7.202 7.502 0 1.852.662 3.548 1.76 4.856a7.545 7.545 0 0 0-.115 1.312c0 2.367-.549 4.478 1.163 5.854Z"/><path fill="#565656" fill-opacity=".3" d="M62.056 16.067c.104-.005.209-.007.314-.007 4.088 0 7.402 3.36 7.402 7.504 0 .39-.03.773-.086 1.148a7.508 7.508 0 0 1-4.124 10.67c.587 1.069.92 2.297.92 3.603 0 0-.236 1.028-.647 1.747-.411.72-1.207 1.337-1.207 1.337a7.493 7.493 0 0 0 .415-2.467 7.47 7.47 0 0 0-.92-3.604 7.508 7.508 0 0 0 4.124-10.67c.056-.374.086-.757.086-1.147 0-4.144-3.314-7.504-7.402-7.504-.105 0-.21.002-.315.006-1.087-2.774-3.758-4.735-6.881-4.735-.746 0-1.466.111-2.144.32a7.289 7.289 0 0 1 3.583-.937c3.123 0 5.795 1.961 6.882 4.736Z"/><path fill="#274430" d="M56.956 15.466a2.65 2.65 0 0 1-.256 3.971 2.65 2.65 0 0 0-3.716-3.716 2.65 2.65 0 0 1 3.971-.255ZM63.107 23.161c.209 1.985-.839 3.723-2.34 3.881a2.1 2.1 0 0 1-.351.007c1.312-.366 2.186-1.985 1.994-3.815-.193-1.829-1.385-3.23-2.745-3.316.112-.031.227-.053.346-.066 1.5-.158 2.887 1.324 3.096 3.31ZM64.543 32.373c-.632 1.093-1.814 1.593-2.64 1.116a1.326 1.326 0 0 1-.183-.127c.808.3 1.857-.203 2.439-1.21.582-1.009.493-2.169-.171-2.719.069.026.136.058.201.095.827.478.985 1.751.354 2.845Z"/><path fill="#fff" d="M44.59 21.15c.968-1.675 2.78-2.441 4.046-1.71.1.058.193.123.28.195-1.238-.46-2.846.311-3.738 1.855-.891 1.545-.755 3.323.263 4.165a2.04 2.04 0 0 1-.309-.145c-1.267-.732-1.51-2.683-.542-4.36ZM40.147 26.662c1.004-.58 2.15-.472 2.561.24.033.056.06.114.08.174-.48-.568-1.525-.617-2.45-.083-.925.534-1.405 1.464-1.154 2.164a1.07 1.07 0 0 1-.11-.157c-.41-.712.07-1.758 1.073-2.338ZM45.345 29.289c1.06-1.061 2.53-1.311 3.282-.559.06.06.112.123.159.19-.79-.549-2.115-.26-3.092.718-.977.977-1.267 2.301-.718 3.092a1.384 1.384 0 0 1-.19-.159c-.752-.752-.502-2.222.559-3.282ZM37.903 38.47c0-2.611 1.632-4.728 3.645-4.728.158 0 .314.013.467.038-1.792.298-3.177 2.284-3.177 4.69 0 2.407 1.385 4.394 3.177 4.691a2.85 2.85 0 0 1-.467.039c-2.013 0-3.645-2.118-3.645-4.73Z"/><path fill="#565656" fill-opacity=".3" d="M49.314 43.405c-.12 0-.237-.008-.353-.024 1.248 0 2.23-1.07 2.463-2.25.195-.02.383-.061.563-.122a2.56 2.56 0 0 0 2.555-.537c.17.036.348.055.529.055 1.173 0 2.574-.58 2.882-1.655a2.571 2.571 0 0 1-3 1.806 2.56 2.56 0 0 1-2.555.537 2.56 2.56 0 0 1-.563.121 2.571 2.571 0 0 1-2.52 2.07Z"/><path fill="#274430" d="M59.115 37.34c-.398 1.198-1.456 1.925-2.361 1.624a1.335 1.335 0 0 1-.205-.087c.852.131 1.779-.573 2.145-1.677.367-1.104.047-2.223-.715-2.628.073.012.145.029.217.053.906.3 1.317 1.516.919 2.715Z"/><path fill="#fff" d="M44.11 41.92c-.634-1.097-.37-2.435.587-2.988.076-.044.153-.081.232-.113-.78.618-.958 1.833-.375 2.844.584 1.011 1.725 1.465 2.65 1.098a1.763 1.763 0 0 1-.213.144c-.958.553-2.248.112-2.882-.985Z"/><path fill="#274430" d="M54.928 34.598c-1.402 2.428-4.027 3.538-5.863 2.478a2.947 2.947 0 0 1-.406-.282c1.794.667 4.124-.45 5.416-2.688 1.292-2.238 1.095-4.814-.38-6.035.153.057.303.127.447.21 1.836 1.06 2.188 3.888.785 6.317Z"/><path fill="#565656" fill-opacity=".3" d="m73 88.416.758-38.35c.065-3.31-1.047-8.728-6.649-12.183 0 0 2.93 3.375 2.87 8.618-.046 4.024-.021 32.093-.007 44.924 0 5.243-4.116 9.902-4.116 9.902s3.052-1.575 5.005-4.659c1.5-2.214 1.939-4.853 2.067-6.257.06-.663.06-1.33.072-1.995ZM55.796 55.258l-2.91-1.108a.776.776 0 1 1 .86-1.237l2.05 2.345Z"/><path fill="#274430" d="m55.805 55.263-2.978-.916a.778.778 0 1 1 .78-1.293l2.198 2.21Z"/><path stroke="#274430" stroke-width="2" d="M52.974 59.117a5.318 5.318 0 1 0 0-10.635 5.318 5.318 0 0 0 0 10.635Z"/></svg>
