<svg width="167" height="166" viewBox="0 0 167 166" fill="none"
    xmlns="http://www.w3.org/2000/svg">
    <path fill-rule="evenodd" clip-rule="evenodd" d="M32.7168 30.8999C31.0626 30.8999 29.7168 29.5541 29.7168 27.8999C29.7168 26.2456 31.0626 24.8999 32.7168 24.8999C34.371 24.8999 35.7168 26.2456 35.7168 27.8999C35.7168 29.5541 34.371 30.8999 32.7168 30.8999Z" fill="#CACAFB"/>
    <path fill-rule="evenodd" clip-rule="evenodd" d="M11.9668 147.1C10.3126 147.1 8.9668 145.754 8.9668 144.1C8.9668 142.446 10.3126 141.1 11.9668 141.1C13.621 141.1 14.9668 142.446 14.9668 144.1C14.9668 145.754 13.621 147.1 11.9668 147.1Z" fill="#CACAFB"/>
    <path fill-rule="evenodd" clip-rule="evenodd" d="M157.217 134.65C155.563 134.65 154.217 133.304 154.217 131.65C154.217 129.996 155.563 128.65 157.217 128.65C158.871 128.65 160.217 129.996 160.217 131.65C160.217 133.304 158.871 134.65 157.217 134.65Z" fill="#CACAFB"/>
    <path fill-rule="evenodd" clip-rule="evenodd" d="M124.017 26.75C122.362 26.75 121.017 25.4042 121.017 23.75C121.017 22.0957 122.362 20.75 124.017 20.75C125.671 20.75 127.017 22.0957 127.017 23.75C127.017 25.4042 125.671 26.75 124.017 26.75Z" fill="#CACAFB"/>
    <path d="M26.6238 83C26.6238 49.0345 54.1583 21.5 88.1238 21.5C122.089 21.5 149.624 49.0345 149.624 83C149.624 83.7318 149.031 84.325 148.299 84.325C147.567 84.325 146.974 83.7318 146.974 83C146.974 50.498 120.626 24.15 88.1238 24.15C55.6218 24.15 29.2738 50.498 29.2738 83C29.2738 115.502 55.6218 141.85 88.1238 141.85C111.569 141.85 132.487 128.015 141.884 106.978C142.182 106.31 142.966 106.01 143.634 106.309C144.302 106.607 144.602 107.391 144.303 108.059C134.483 130.042 112.623 144.5 88.1238 144.5C54.1583 144.5 26.6238 116.966 26.6238 83Z" fill="#274430"/>
    <path d="M28.4286 44.49C28.8718 43.9077 29.7032 43.795 30.2854 44.2383C30.8677 44.6816 30.9803 45.5129 30.5371 46.0952C23.971 54.7202 20.359 65.2413 20.359 76.3139C20.359 77.0457 19.7658 77.6389 19.034 77.6389C18.3022 77.6389 17.709 77.0457 17.709 76.3139C17.709 64.6557 21.5145 53.572 28.4286 44.49Z" fill="#274430"/>
    <path d="M144.591 100.83C144.591 100.013 145.253 99.3509 146.07 99.3509C146.887 99.3509 147.549 100.013 147.549 100.83C147.549 101.646 146.887 102.308 146.07 102.308C145.253 102.308 144.591 101.646 144.591 100.83Z" fill="#274430"/>
    <path d="M82.0074 102.971C81.8502 102.928 81.6938 102.883 81.538 102.837C81.5224 103.006 81.5033 103.174 81.481 103.341C81.4785 103.36 81.476 103.378 81.4735 103.396" fill="#80B990"/>
    <path fill-rule="evenodd" clip-rule="evenodd" d="M65.4915 75.4053V73.5031L61.081 74.1816C60.0742 74.3365 59.1873 73.5093 59.2719 72.4941C60.0015 63.74 62.8085 57.1727 67.5563 52.7909C72.3038 48.4093 79.0602 46.1499 87.8165 46.1499C96.5728 46.1499 103.329 48.4093 108.077 52.7909C112.824 57.1727 115.632 63.74 116.361 72.4941C116.445 73.5008 115.578 74.3071 114.609 74.1898L114.396 74.1494L97.8095 70.0029C96.9656 69.7919 96.4526 68.9368 96.6635 68.0929C96.8582 67.3141 97.6021 66.8166 98.3787 66.9109L98.5875 66.9504L112.995 70.5517L112.772 69.1208L112.771 69.1148C111.675 62.6043 109.152 57.6871 105.1 54.3762C101.052 51.0685 95.5414 49.4158 88.5695 49.3058L87.8204 49.2999H87.8165C80.4869 49.2999 74.7253 50.9503 70.5326 54.3762C66.3356 57.8056 63.7797 62.9577 62.7504 69.8184L62.6175 70.7563L86.7701 67.0416L88.4828 63.6205C88.8418 62.9025 89.6759 62.5782 90.4136 62.8387L90.6078 62.9222C91.3175 63.2845 91.6367 64.1134 91.3777 64.847L91.2938 65.0421L89.2252 69.1793C89.0275 69.5748 88.6743 69.8661 88.2554 69.9875L88.0411 70.0339L68.6415 73.0184V79.8874C68.6415 91.0475 77.2253 100.1 87.8165 100.1C98.2217 100.1 106.69 91.362 106.984 80.4731L106.992 79.8941L106.992 76.8068L106.991 76.7998C106.991 76.7607 106.992 76.7204 106.994 76.6808C107.02 76.2493 107.219 75.8642 107.524 75.5941C107.697 75.4416 107.903 75.3265 108.129 75.2613C108.265 75.2218 108.408 75.2005 108.556 75.1997L108.558 75.1999L108.572 75.1999C108.643 75.2002 108.711 75.205 108.779 75.2141L108.786 75.2149C111.211 75.5071 112.755 75.9505 113.69 76.6479C115.472 77.9765 116.366 80.1227 116.366 82.9999C116.366 85.5548 115.644 87.4878 114.349 88.7823C113.054 90.0769 111.121 90.7999 108.566 90.7999C108.394 90.7999 108.229 90.7724 108.075 90.722L107.671 90.5893L107.475 90.9679C105.313 95.1605 101.963 98.5825 97.898 100.739L97.5543 100.922L97.6466 101.3C97.6759 101.419 97.6915 101.545 97.6915 101.675C97.6915 106.535 101.631 110.475 106.492 110.475H110.641L111.09 110.483L111.094 110.483C117.484 110.721 122.591 115.977 122.591 122.425C122.591 123.295 121.886 124 121.016 124C120.147 124 119.441 123.295 119.441 122.425C119.441 117.565 115.502 113.625 110.641 113.625H106.492L106.043 113.617L106.039 113.617C100.022 113.393 95.1414 108.719 94.5929 102.791L94.5367 102.183L93.9521 102.357C92.004 102.939 89.946 103.25 87.8165 103.25C85.687 103.25 83.629 102.939 81.6809 102.357L81.0964 102.183L81.0401 102.791C80.7734 105.674 79.4822 108.26 77.5325 110.183L77.2528 110.459L77.4548 110.796C78.1303 111.924 79.1159 112.643 80.4528 112.934C81.7637 113.22 83.3869 113.09 85.3595 112.597C86.2034 112.386 87.0585 112.899 87.2695 113.743C87.4804 114.587 86.9674 115.442 86.1235 115.653C80.7869 116.987 76.9561 115.906 74.8941 112.661L74.657 112.288L74.2577 112.478C72.8356 113.152 71.2589 113.555 69.5942 113.617L69.5898 113.617L69.1415 113.625H64.9915C60.1314 113.625 56.1915 117.565 56.1915 122.425C56.1915 123.295 55.4864 124 54.6165 124C53.7467 124 53.0415 123.295 53.0415 122.425C53.0415 115.977 58.1489 110.721 64.5388 110.483L64.5432 110.483L64.9915 110.475H69.1415C71.0992 110.475 72.9088 109.835 74.3709 108.753L74.378 108.748L74.385 108.742C74.4081 108.724 74.4319 108.706 74.4562 108.689L74.4635 108.684L74.4705 108.678C76.5791 107.072 77.9415 104.532 77.9415 101.675C77.9415 101.545 77.9571 101.419 77.9864 101.3L78.0787 100.922L77.735 100.739C73.6697 98.5825 70.3198 95.1604 68.1577 90.9679L67.9624 90.5892L67.5575 90.7219C67.4036 90.7724 67.2386 90.7999 67.0663 90.7999C64.5114 90.7999 62.5784 90.0769 61.2839 88.7823C59.9893 87.4878 59.2663 85.5548 59.2663 82.9999C59.2663 80.1227 60.1609 77.9765 61.9428 76.6479C62.6214 76.142 63.6295 75.7641 65.0861 75.4834L65.4915 75.4053Z" fill="#80B990"/>
</svg>
