<svg width="166" height="166" viewBox="0 0 166 166" fill="none"
    xmlns="http://www.w3.org/2000/svg">
    <path d="M114.82 126.233L114.113 126.94L114.82 127.647L120.728 133.556C122.681 135.509 125.847 135.509 127.799 133.556L136.531 124.824C138.484 122.872 138.484 119.706 136.531 117.753L130.622 111.845L129.915 111.138L129.208 111.845L114.82 126.233Z" stroke="#80B990" stroke-width="2"/>
    <path fill-rule="evenodd" clip-rule="evenodd" d="M145.685 74.5202C144.515 73.3505 144.515 71.4473 145.685 70.2776C146.855 69.1078 148.758 69.1079 149.927 70.2776C151.097 71.4473 151.097 73.3504 149.927 74.5202C148.758 75.6899 146.855 75.6899 145.685 74.5202Z" fill="#CACAFB"/>
    <path fill-rule="evenodd" clip-rule="evenodd" d="M92.6746 6.36396C91.5049 5.19426 91.5049 3.29102 92.6746 2.12132C93.8444 0.951524 95.7475 0.951624 96.9172 2.12132C98.0869 3.29102 98.087 5.19417 96.9172 6.36396C95.7475 7.53366 93.8443 7.53366 92.6746 6.36396Z" fill="#CACAFB"/>
    <path fill-rule="evenodd" clip-rule="evenodd" d="M16.9456 76.4133C15.7759 75.2436 15.7759 73.3403 16.9456 72.1706C18.1154 71.0008 20.0185 71.0009 21.1882 72.1706C22.3579 73.3403 22.358 75.2435 21.1882 76.4133C20.0185 77.583 18.1153 77.583 16.9456 76.4133Z" fill="#CACAFB"/>
    <path fill-rule="evenodd" clip-rule="evenodd" d="M59.5432 143.623C58.3735 142.453 58.3735 140.55 59.5432 139.38C60.713 138.21 62.6162 138.21 63.7859 139.38C64.9556 140.55 64.9557 142.453 63.7859 143.623C62.6162 144.792 60.7129 144.792 59.5432 143.623Z" fill="#CACAFB"/>
    <path fill-rule="evenodd" clip-rule="evenodd" d="M102.141 161.608C100.971 160.438 100.971 158.535 102.141 157.365C103.311 156.196 105.214 156.196 106.384 157.365C107.553 158.535 107.553 160.438 106.384 161.608C105.214 162.778 103.311 162.778 102.141 161.608Z" fill="#CACAFB"/>
    <path d="M37.9992 134.419C39.0448 135.464 40.74 135.464 41.7856 134.419L79.653 96.5513L77.7672 94.6506L39.8924 132.525L20.0136 112.647L57.8808 74.7794L55.9876 72.8862L18.1203 110.753C17.0747 111.799 17.0747 113.494 18.1203 114.54L37.9992 134.419Z" fill="#274430"/>
    <path d="M115.621 17.039C114.576 15.9934 112.88 15.9934 111.835 17.039L99.9619 28.9119C99.4586 29.4151 99.4371 30.2242 99.9129 30.7535C100.426 31.3241 101.313 31.3477 101.855 30.8051L113.728 18.9322L133.607 38.811L97.6257 74.7921L99.5324 76.6719L135.5 40.7042C136.546 39.6586 136.546 37.9634 135.5 36.9178L115.621 17.039Z" fill="#274430"/>
    <path d="M75.8621 53.0117L77.7732 54.8871L91.9861 40.6741C92.5118 40.1484 92.5084 39.2951 91.9786 38.7735C91.4546 38.2577 90.6128 38.261 90.0929 38.7809L75.8621 53.0117Z" fill="#274430"/>
    <path d="M94.468 34.5101C93.9316 35.0586 93.9366 35.9366 94.479 36.479C95.0377 37.0377 95.9478 37.0238 96.4891 36.4481L97.2793 35.6078C97.7839 35.0713 97.7818 34.2341 97.2747 33.7C96.7326 33.1291 95.8248 33.1224 95.2744 33.6853L94.468 34.5101Z" fill="#274430"/>
    <path fill-rule="evenodd" clip-rule="evenodd" d="M116.344 35.6558C114.909 37.0906 112.588 37.0809 111.159 35.6521C109.73 34.2232 109.721 31.9018 111.155 30.4671C112.59 29.0323 114.912 29.042 116.34 30.4708C117.769 31.8997 117.779 34.2211 116.344 35.6558Z" fill="#80B990"/>
    <path d="M120.354 44.4906C120.877 43.9678 121.725 43.9678 122.247 44.4906L125.087 47.3304L123.194 49.2236L120.354 46.3838C119.831 45.861 119.831 45.0134 120.354 44.4906Z" fill="#80B990"/>
    <path d="M108.995 55.8499C109.518 55.3271 110.366 55.3271 110.889 55.8499L113.728 58.6898L111.835 60.583L108.995 57.7432C108.472 57.2204 108.472 56.3727 108.995 55.8499Z" fill="#80B990"/>
    <path d="M98.5822 66.2625C99.105 65.7397 99.9526 65.7397 100.475 66.2625L103.315 69.1024L101.422 70.9956L98.5822 68.1557C98.0594 67.633 98.0594 66.7853 98.5822 66.2625Z" fill="#80B990"/>
    <path d="M87.9122 75.7458C88.0977 75.5603 88.3984 75.5603 88.5839 75.7458L92.6281 79.79L91.9563 80.4618L87.9122 76.4176C87.7266 76.2321 87.7266 75.9313 87.9122 75.7458Z" fill="#274430"/>
    <path d="M77.1636 86.4943C77.3491 86.3088 77.6499 86.3088 77.8354 86.4943L81.8796 90.5385L81.2078 91.2103L77.1636 87.1661C76.9781 86.9806 76.9781 86.6799 77.1636 86.4943Z" fill="#274430"/>
    <path d="M66.3976 98.4476C66.9204 97.9248 67.7681 97.9248 68.2908 98.4476L71.1307 101.287L69.2375 103.181L66.3976 100.341C65.8748 99.818 65.8748 98.9704 66.3976 98.4476Z" fill="#80B990"/>
    <path d="M55.9845 108.86C56.5073 108.337 57.355 108.337 57.8778 108.86L60.7176 111.7L58.8244 113.593L55.9845 110.753C55.4617 110.231 55.4617 109.383 55.9845 108.86Z" fill="#80B990"/>
    <path d="M44.6257 120.22C45.1485 119.697 45.9961 119.697 46.5189 120.22L49.3587 123.059L47.4655 124.953L44.6257 122.113C44.1029 121.59 44.1029 120.742 44.6257 120.22Z" fill="#80B990"/>
    <rect x="27.5864" y="17.9858" width="2.67742" height="9.37097" transform="rotate(45 27.5864 17.9858)" fill="#80B990"/>
    <path d="M116.568 97.501L100.475 113.593L26.5242 39.642L32.8033 38.3483L34.2127 30.2916L41.3228 29.8288L42.83 23.7631L116.568 97.501Z" fill="white"/>
    <rect x="113.728" y="100.341" width="2.67742" height="103.081" transform="rotate(135 113.728 100.341)" fill="#80B990"/>
    <rect x="105.208" y="108.86" width="2.67742" height="103.081" transform="rotate(135 105.208 108.86)" fill="#80B990"/>
    <path fill-rule="evenodd" clip-rule="evenodd" d="M121.301 96.5542L131.714 106.967C132.759 108.012 132.759 109.708 131.714 110.753L113.728 128.739C112.682 129.785 110.987 129.785 109.941 128.739L99.5288 118.326C98.4832 117.281 98.4832 115.585 99.5288 114.54L117.514 96.5542C118.56 95.5086 120.255 95.5086 121.301 96.5542ZM123.776 102.816L105.791 120.802L101.422 116.433L119.408 98.4474L123.776 102.816ZM125.669 104.709L107.684 122.695L111.835 126.846L129.82 108.86L125.669 104.709Z" fill="#274430"/>
    <path fill-rule="evenodd" clip-rule="evenodd" d="M118.461 99.3944C118.963 98.8923 119.245 98.2113 119.245 97.5012C119.245 96.7911 118.963 96.1101 118.461 95.6079L115 92.1469L106 83.1469L44.7231 21.87C44.3761 21.0761 43.1822 20.2755 42.3341 20.098L21.9818 15.8383C21.0973 15.6532 20.1791 15.9267 19.5401 16.5657C18.9011 17.2047 18.6276 18.123 18.8127 19.0075L23.0726 39.3595C23.222 40.0734 24.0242 41.1514 24.6309 41.5354L83.448 100.353C83.9485 100.853 84.7522 100.877 85.2821 100.408C85.8595 99.8968 85.8865 99.0047 85.3412 98.4593L27.6445 40.7626L26.5241 39.6422L31.0743 38.7047L31.4711 38.623C32.2751 38.4573 32.8962 37.8173 33.0376 37.0087L34.2127 30.2918L39.9142 30.1582C40.8431 30.1364 41.6347 29.4777 41.825 28.5681L42.8299 23.7633L104 84.9334L113.067 94L116.568 97.5012L100.475 113.594L91.5375 104.656C91.031 104.149 90.2155 104.131 89.6871 104.615C89.1245 105.129 89.105 106.01 89.6442 106.549L98.5822 115.487C99.6278 116.532 101.323 116.532 102.369 115.487L118.461 99.3944ZM38.1807 27.4518C38.6322 27.4518 39.0277 27.1492 39.1458 26.7134L40.3126 22.4103L29.2736 20.0999L23.066 26.2591L25.4357 36.1452L30.1212 35.4758L31.2409 28.2976C31.3169 27.8107 31.7362 27.4517 32.229 27.4517L33.9986 27.4517L36.6244 27.4517L38.1807 27.4518Z" fill="#274430"/>
    <path d="M111.895 80.8947L119.033 88.0331C119.564 88.5638 119.555 89.4269 119.013 89.9462C118.487 90.4501 117.655 90.4413 117.14 89.9263L110.002 82.788C109.458 82.2442 109.483 81.3552 110.056 80.8429C110.586 80.3699 111.393 80.3926 111.895 80.8947Z" fill="#274430"/>
</svg>
