<svg xmlns="http://www.w3.org/2000/svg" width="64" height="64" fill="none"><path fill="#CACAFB" fill-rule="evenodd" d="M56 55.2a.8.8 0 0 1 0-1.6.8.8 0 0 1 0 1.6ZM54.4 10.4a.8.8 0 1 1 .002-1.602.8.8 0 0 1-.002 1.602ZM11.2 55.2a.8.8 0 0 1 0-1.6.8.8 0 0 1 0 1.6ZM8 13.6A.8.8 0 0 1 8 12a.8.8 0 0 1 0 1.6Z" clip-rule="evenodd"/><path fill="#92E3A9" fill-rule="evenodd" d="M12.8 26.4a2.4 2.4 0 1 1 4.8 0 2.4 2.4 0 0 1-4.8 0Zm3.2 0a.8.8 0 1 0-1.6 0 .8.8 0 0 0 1.6 0Z" clip-rule="evenodd"/><path fill="#92E3A9" d="M15.2 27.2a.8.8 0 0 1 .795.707L16 28v3.2a.8.8 0 0 1-1.595.093L14.4 31.2V28a.8.8 0 0 1 .8-.8Z"/><path fill="#92E3A9" fill-rule="evenodd" d="M30.4 23.2a2.4 2.4 0 1 1 4.8 0 2.4 2.4 0 0 1-4.8 0Zm3.2 0a.8.8 0 1 0-1.6 0 .8.8 0 0 0 1.6 0Z" clip-rule="evenodd"/><path fill="#92E3A9" d="M32.8 24a.8.8 0 0 1 .795.707l.005.093V28a.8.8 0 0 1-1.595.093L32 28v-3.2a.8.8 0 0 1 .8-.8Z"/><path fill="#92E3A9" fill-rule="evenodd" d="M44.8 13.6a2.4 2.4 0 1 1 4.8 0 2.4 2.4 0 0 1-4.8 0Zm3.2 0a.8.8 0 1 0-1.6 0 .8.8 0 0 0 1.6 0Z" clip-rule="evenodd"/><path fill="#92E3A9" d="M47.2 14.4a.8.8 0 0 1 .795.707L48 15.2v3.2a.8.8 0 0 1-1.595.093L46.4 18.4v-3.2a.8.8 0 0 1 .8-.8Z"/><path fill="#92E3A9" fill-rule="evenodd" d="M38.4 31.2a2.4 2.4 0 1 1 4.8 0 2.4 2.4 0 0 1-4.8 0Zm3.2 0a.8.8 0 1 0-1.6 0 .8.8 0 0 0 1.6 0Z" clip-rule="evenodd"/><path fill="#92E3A9" d="M40.8 32a.8.8 0 0 1 .795.707l.005.093V36a.8.8 0 0 1-1.595.093L40 36v-3.2a.8.8 0 0 1 .8-.8Z"/><path fill="#92E3A9" fill-rule="evenodd" d="M27.2 39.2a2.4 2.4 0 1 1 4.8 0 2.4 2.4 0 0 1-4.8 0Zm3.2 0a.8.8 0 1 0-1.6 0 .8.8 0 0 0 1.6 0Z" clip-rule="evenodd"/><path fill="#92E3A9" d="M29.6 40a.8.8 0 0 1 .795.707l.005.093V44a.8.8 0 0 1-1.595.093L28.8 44v-3.2a.8.8 0 0 1 .8-.8Z"/><path fill="#92E3A9" fill-rule="evenodd" d="M40 47.2a2.4 2.4 0 1 1 4.8 0 2.4 2.4 0 0 1-4.8 0Zm3.2 0a.8.8 0 1 0-1.6 0 .8.8 0 0 0 1.6 0Z" clip-rule="evenodd"/><path fill="#92E3A9" d="M42.4 48a.8.8 0 0 1 .795.707l.005.093V52a.8.8 0 0 1-1.595.093L41.6 52v-3.2a.8.8 0 0 1 .8-.8Z"/><path fill="#304436" fill-rule="evenodd" d="m50.432 19.2 2.134.088a.8.8 0 0 1 .387.118c1.03.633 1.42 1.923.919 2.993l-.068.132-.629 1.15-.021.231a2.344 2.344 0 0 1-.066.367l-.056.182-.458 1.273.038 2.192a2.328 2.328 0 0 1-.764 1.768l-.12.103-.93.747a2.445 2.445 0 0 1-.47.295l-.095.041-.86 1.069.057.049c.264.244.472.547.602.892l.052.15.127.42.16.197.523.752c.413.599.516 1.337.313 2.004l-.046.132.26.3c.36.418.56.938.572 1.482l-.003.164-.044.82a2.342 2.342 0 0 1-.325 1.055l-.047.074.064.107c.196.355.297.756.288 1.169l-.007.127.12.013c.743.1 1.419.533 1.799 1.211l.068.13.268.561a2.31 2.31 0 0 1-.162 2.282l-.013.018v.1a2.343 2.343 0 0 1-.763 1.622l-.12.104-1.643 1.313-.078.056-.369.226-.008.053c-.024.121-.057.24-.1.356l-.072.17c-.243.528-.684.95-1.226 1.185l-.15.06-1.453.517a2.74 2.74 0 0 1-.367.097l-.116.019-1.077.148c-.304.042-.62.026-.92-.046a.8.8 0 0 1 .283-1.572l.092.017c.07.017.144.025.217.024l.11-.008 1.081-.15a.775.775 0 0 0 .11-.022l.066-.02 1.436-.511a.811.811 0 0 0 .463-.412.73.73 0 0 0 .066-.251l.002-.087a.8.8 0 0 1 .3-.659l.078-.055.674-.418 1.598-1.277a.742.742 0 0 0 .287-.594l-.008-.096a.8.8 0 0 1 .087-.508l.057-.09.106-.144a.718.718 0 0 0 .125-.663l-.037-.095-.266-.556c-.165-.341-.56-.522-.948-.437l-.097.027-.206.07a.8.8 0 0 1-.612-.039l-.092-.053-.194-.13a.8.8 0 0 1-.22-1.107l.056-.075a.728.728 0 0 0 0-.95l-.07-.072-.115-.106a.8.8 0 0 1-.01-1.169l.075-.063a.785.785 0 0 0 .306-.474l.011-.092.044-.812a.731.731 0 0 0-.123-.441l-.058-.077-.616-.71a.8.8 0 0 1-.091-.92l.056-.085a.73.73 0 0 0 .071-.767l-.053-.09-.482-.696-.222-.27a.799.799 0 0 1-.11-.178l-.038-.098-.173-.573a.794.794 0 0 0-.498-.507l-.093-.028a.8.8 0 0 1-.49-1.2l.056-.079 1.595-1.982a.8.8 0 0 1 .3-.23l.089-.033a.892.892 0 0 0 .2-.089l.086-.06.928-.746a.743.743 0 0 0 .282-.498l.004-.096-.04-2.34a.808.808 0 0 1 .02-.192l.027-.092.505-1.405.023-.083.014-.085.036-.39a.798.798 0 0 1 .05-.21l.045-.1.71-1.296a.734.734 0 0 0-.076-.806l-.073-.08-1.886-.078a.8.8 0 0 1-.765-.738l-.002-.094a.8.8 0 0 1 .74-.765l.092-.001ZM32.741 9.67c.933-.224 1.916.102 2.504.827l.094.125.258.364.14.013a2.404 2.404 0 0 1 1.972 1.515l.01.03c.261.114.495.266.697.455l.03.03.043.013c.052.017.104.036.155.057l.149.067.659.317c.208.101.397.23.565.38l.048.047.055-.013a2.473 2.473 0 0 1 1.922.336l.138.097c.42.32.715.755.852 1.243l.042.174.575.391a.799.799 0 0 1 .215.216l.051.088.8 1.6a.8.8 0 0 1-1.384.797l-.047-.081-.706-1.414-.709-.48a.8.8 0 0 1-.344-.564l-.013-.196a.75.75 0 0 0-.298-.499.88.88 0 0 0-.617-.17l-.108.02-.538.124a.8.8 0 0 1-.801-.274l-.06-.083a.804.804 0 0 0-.254-.254l-.083-.046-.66-.317a.851.851 0 0 0-.143-.055l-.074-.018a.8.8 0 0 1-.412-.213l-.064-.07a.827.827 0 0 0-.367-.256l-.112-.032a.8.8 0 0 1-.565-.452l-.034-.089-.09-.285a.803.803 0 0 0-.695-.549l-.101-.005h-.257a.8.8 0 0 1-.592-.262l-.06-.076-.495-.698a.869.869 0 0 0-.804-.34l-.105.019-2.627.66a.82.82 0 0 0-.495.346l-.049.088-.575 1.215a.745.745 0 0 0-.067.264v.09l.105 1.59a.8.8 0 0 1-.194.578l-.075.075-.742.654a.797.797 0 0 1-.178.12l-.1.04-2.768.915a.789.789 0 0 0-.535.566l-.015.098-.015.178a.8.8 0 0 1-.854.73l-.093-.013-1.457-.277a.8.8 0 0 1-.354-.163l-.072-.067-1.122-1.161a.864.864 0 0 0-.559-.256l-.1.002-1.305.064a.837.837 0 0 0-.629.324.728.728 0 0 0-.149.529l.017.093.416 1.633.553 1.277a.8.8 0 0 1-.783 1.116l-.088-.01-.435-.076a.881.881 0 0 0-.378.013l-.09.03-.125.046a.8.8 0 0 1-.766-.11l-.078-.066-.591-.58a.873.873 0 0 0-.568-.238h-.11l-3.2.277a.854.854 0 0 0-.19.038l-.096.036-2.318 1.043c-.353.159-.529.511-.45.852l.024.085.354.98c.044.12.123.233.23.325l.087.064a.8.8 0 0 1 .355.736l-.014.097a.74.74 0 0 0 .1.547l.06.102.11.17.05.07.086.11.067.073.047.041c.012.009.02.013.025.013a.8.8 0 0 1 0 1.6c-.743 0-1.33-.506-1.82-1.363a2.31 2.31 0 0 1-.33-.993l-.01-.19-.007-.006a2.374 2.374 0 0 1-.477-.695l-.064-.157-.354-.982c-.4-1.114.095-2.325 1.14-2.873l.134-.065 2.328-1.048a2.54 2.54 0 0 1 .639-.186l.162-.018 3.213-.278a2.514 2.514 0 0 1 1.799.582l.118.109.23.226-.062-.147-.041-.12-.433-1.698a2.326 2.326 0 0 1 .41-1.983 2.429 2.429 0 0 1 1.653-.938l.167-.015 1.272-.062c.635-.06 1.308.177 1.804.621l.12.116.946.98.444.084.025-.061a2.398 2.398 0 0 1 1.302-1.247l.15-.054 2.61-.863.324-.286-.079-1.2c-.02-.334.03-.667.15-.98l.065-.156.578-1.221c.285-.6.805-1.05 1.439-1.255l.16-.046 2.636-.662ZM16.313 33.765a.8.8 0 0 1 1.122.149l-.077-.104.155.064.319.115.855.286.139.051.055.023.798.394a.8.8 0 0 1 .413.49l.021.093a.707.707 0 0 0 .045.154l.035.073a.8.8 0 0 1-.092.905l-.069.072a.772.772 0 0 0-.26.58.722.722 0 0 0 .057.27l.043.084a.8.8 0 0 1 .1.508l-.033.157-.009.054-.485 4.083a.718.718 0 0 0 .016.265l.027.084a.8.8 0 0 1 .013.544l-.016.053-.01.05-.587 3.09a.8.8 0 0 1-.115.286l-.063.084-1.056 1.239a.73.73 0 0 0 .152 1.093l.087.054.68.36a.8.8 0 0 1 .264.227l.049.073.325.55a.812.812 0 0 0 .294.288l.095.047 1.588.658a.802.802 0 0 1 .186.108l.08.072.476.486a.856.856 0 0 0 .514.247l.099.006h.704a.8.8 0 0 1 .302.06l.093.045.473.268a.86.86 0 0 0 .21.087l.113.022 2.779.361a.86.86 0 0 0 .673-.192l.05-.045.043-.047a.8.8 0 0 1 .677-.28l.096.014.27.056.13.04.642.253a.8.8 0 0 1 .433.407l.037.096a.79.79 0 0 0 .34.428l.084.046.778.364c.13.06.281.087.429.077l.11-.014.665-.13a.805.805 0 0 1 .194-.015l.096.011 1.392.243.173.015a.914.914 0 0 0 .151-.012l.07-.015 1.747-.448a.827.827 0 0 0 .503-.371.738.738 0 0 0 .094-.478l-.02-.096-.425-1.44a.8.8 0 0 1 .015-.496l.04-.094.437-.853a.8.8 0 0 1 1.462.643l-.038.085-.291.569.335 1.136a2.335 2.335 0 0 1-.154 1.695l-.076.14c-.29.497-.765.876-1.325 1.062l-.155.047-1.743.446a2.333 2.333 0 0 1-.528.076l-.158.002-.31-.027-1.32-.228-.528.104a2.526 2.526 0 0 1-1.355-.115l-.16-.067-.783-.366a2.41 2.41 0 0 1-1.075-.99l-.037-.07-.1-.04c-.474.35-1.057.519-1.64.477l-.159-.017-2.77-.36a2.454 2.454 0 0 1-.742-.217l-.17-.09-.285-.162h-.493a2.468 2.468 0 0 1-1.64-.622l-.118-.113-.36-.37-1.438-.595c-.43-.178-.8-.477-1.062-.855l-.093-.145-.21-.355-.482-.256a2.388 2.388 0 0 1-1.183-1.468l-.038-.16a2.332 2.332 0 0 1 .414-1.838l.103-.13.918-1.078.548-2.879.01-.042-.011-.04a2.31 2.31 0 0 1-.058-.646l.014-.163.487-4.1-.006-.015a2.332 2.332 0 0 1-.158-.658l-.008-.17c-.006-.416.1-.82.3-1.178l.01-.019-.26-.128-.912-.305-.391-.14c-.404-.153-.589-.26-.754-.475a.8.8 0 0 1 .148-1.122ZM28 28.8a.8.8 0 0 1 .093 1.595L28 30.4h-1.6a.8.8 0 0 1-.093-1.595l.093-.005H28ZM44 24a.8.8 0 0 1 .093 1.595L44 25.6h-1.6a.8.8 0 0 1-.093-1.595L42.4 24H44ZM39.2 40a.8.8 0 0 1 .093 1.595l-.093.005h-1.6a.8.8 0 0 1-.093-1.595L37.6 40h1.6Z" clip-rule="evenodd"/></svg>
