<svg width="1920" height="1080" viewBox="0 0 1920 1080" fill="none" xmlns="http://www.w3.org/2000/svg">
<g clip-path="url(#clip0_59_419)">
<rect x="391" y="407.076" width="1032.62" height="615.36" rx="64" transform="rotate(-12 391 407.076)" fill="url(#paint0_linear_59_419)"/>
<rect x="391" y="407.076" width="1032.62" height="615.36" rx="64" transform="rotate(-12 391 407.076)" fill="url(#paint1_linear_59_419)"/>
<path fill-rule="evenodd" clip-rule="evenodd" d="M520.145 1184.03C483.65 1020.76 598.169 873.612 741.937 787.465C895.424 695.495 1087.64 648.411 1226.81 760.596C1388.57 890.992 1474.57 1117.07 1380.83 1302.48C1295.86 1470.52 1073.14 1459.55 886.414 1433.85C724.423 1411.56 555.751 1343.33 520.145 1184.03Z" fill="#119787" fill-opacity="0.16"/>
<g style="mix-blend-mode:multiply">
<path fill-rule="evenodd" clip-rule="evenodd" d="M1016.18 833.393C986.125 698.927 1080.44 577.745 1198.84 506.798C1325.24 431.056 1483.54 392.28 1598.15 484.67C1731.37 592.058 1802.2 778.242 1724.99 930.942C1655.02 1069.33 1471.6 1060.29 1317.82 1039.13C1184.41 1020.77 1045.5 964.585 1016.18 833.393Z" fill="#0B6B5F" fill-opacity="0.2"/>
</g>
<path fill-rule="evenodd" clip-rule="evenodd" d="M1314.44 281.479C1316.19 279.952 1318.85 280.123 1320.38 281.86C1329.58 292.295 1335.95 304.987 1338.86 318.659C1341.76 332.331 1341.11 346.515 1336.95 359.79C1336.26 362 1333.89 363.238 1331.67 362.556C1329.45 361.874 1328.21 359.53 1328.9 357.32C1332.63 345.425 1333.22 332.694 1330.61 320.411C1328 308.128 1322.28 296.739 1314.04 287.388C1312.51 285.651 1312.69 283.005 1314.44 281.479ZM1300.29 292.985C1302.05 291.458 1304.71 291.629 1306.24 293.366C1313.52 301.625 1318.56 311.667 1320.86 322.485C1323.16 333.302 1322.64 344.525 1319.35 355.031C1318.65 357.241 1316.29 358.48 1314.07 357.798C1311.85 357.116 1310.61 354.771 1311.3 352.562C1314.16 343.435 1314.62 333.665 1312.61 324.237C1310.61 314.809 1306.22 306.069 1299.89 298.895C1298.36 297.157 1298.54 294.512 1300.29 292.985ZM1286.74 303.66C1288.5 302.141 1291.16 302.324 1292.69 304.068C1298.09 310.256 1301.84 317.769 1303.56 325.853C1305.27 333.937 1304.91 342.324 1302.49 350.175C1301.81 352.388 1299.45 353.637 1297.22 352.965C1295 352.293 1293.75 349.954 1294.43 347.742C1296.43 341.262 1296.74 334.316 1295.31 327.606C1293.88 320.895 1290.78 314.674 1286.32 309.568C1284.79 307.824 1284.99 305.179 1286.74 303.66ZM1273.11 315.121C1274.77 313.494 1277.43 313.507 1279.07 315.15C1283.05 319.159 1285.79 324.197 1286.95 329.691C1288.12 335.185 1287.67 340.9 1285.66 346.182C1284.84 348.347 1282.41 349.445 1280.23 348.633C1278.06 347.821 1276.96 345.407 1277.78 343.242C1279.22 339.446 1279.54 335.36 1278.71 331.443C1277.88 327.527 1275.92 323.923 1273.06 321.043C1271.43 319.399 1271.45 316.748 1273.11 315.121Z" fill="white"/>
<g filter="url(#filter0_ii_59_419)">
<path d="M500.249 589.942C498.754 582.907 503.284 575.983 510.367 574.477L619.39 551.303C626.473 549.798 633.428 554.281 634.924 561.316L649.905 631.795C651.4 638.831 646.87 645.755 639.786 647.261L530.764 670.434C523.68 671.94 516.725 667.457 515.23 660.421L500.249 589.942Z" fill="#CDC9C1"/>
<path d="M500.249 589.942C498.754 582.907 503.284 575.983 510.367 574.477L619.39 551.303C626.473 549.798 633.428 554.281 634.924 561.316L649.905 631.795C651.4 638.831 646.87 645.755 639.786 647.261L530.764 670.434C523.68 671.94 516.725 667.457 515.23 660.421L500.249 589.942Z" fill="url(#paint2_radial_59_419)" fill-opacity="0.1"/>
<path d="M500.249 589.942C498.754 582.907 503.284 575.983 510.367 574.477L619.39 551.303C626.473 549.798 633.428 554.281 634.924 561.316L649.905 631.795C651.4 638.831 646.87 645.755 639.786 647.261L530.764 670.434C523.68 671.94 516.725 667.457 515.23 660.421L500.249 589.942Z" fill="url(#paint3_radial_59_419)" fill-opacity="0.1"/>
<path d="M500.249 589.942C498.754 582.907 503.284 575.983 510.367 574.477L619.39 551.303C626.473 549.798 633.428 554.281 634.924 561.316L649.905 631.795C651.4 638.831 646.87 645.755 639.786 647.261L530.764 670.434C523.68 671.94 516.725 667.457 515.23 660.421L500.249 589.942Z" fill="url(#paint4_radial_59_419)" fill-opacity="0.1"/>
</g>
<mask id="mask0_59_419" style="mask-type:alpha" maskUnits="userSpaceOnUse" x="499" y="551" width="152" height="120">
<path d="M500.249 589.942C498.754 582.907 503.284 575.983 510.367 574.477L619.39 551.303C626.473 549.798 633.428 554.281 634.924 561.316L649.905 631.795C651.4 638.831 646.87 645.755 639.786 647.261L530.764 670.434C523.68 671.94 516.725 667.457 515.23 660.421L500.249 589.942Z" fill="#D9D9D9"/>
</mask>
<g mask="url(#mask0_59_419)">
<path fill-rule="evenodd" clip-rule="evenodd" d="M499.271 589.281C498.804 587.082 500.219 584.918 502.433 584.448L534.08 577.721C536.294 577.251 538.467 578.651 538.934 580.85L543.143 600.651C543.61 602.849 542.195 605.013 539.981 605.484L508.334 612.21C506.12 612.681 503.947 611.28 503.48 609.081L499.271 589.281ZM502.771 586.04C501.443 586.323 500.594 587.621 500.874 588.94L505.083 608.741C505.363 610.06 506.667 610.9 507.995 610.618L539.643 603.891C540.971 603.609 541.82 602.311 541.54 600.991L537.331 581.191C537.051 579.872 535.747 579.031 534.418 579.313L502.771 586.04Z" fill="#10141E"/>
<path fill-rule="evenodd" clip-rule="evenodd" d="M504.833 615.451C504.366 613.252 505.782 611.088 507.995 610.618L539.642 603.891C541.856 603.42 544.029 604.821 544.497 607.02L548.706 626.821C549.173 629.019 547.757 631.183 545.544 631.653L513.896 638.38C511.683 638.851 509.509 637.45 509.042 635.251L504.833 615.451ZM508.334 612.21C507.006 612.492 506.156 613.791 506.437 615.11L510.645 634.911C510.926 636.23 512.23 637.07 513.558 636.788L545.205 630.061C546.533 629.779 547.383 628.481 547.102 627.161L542.894 607.361C542.613 606.042 541.309 605.201 539.981 605.483L508.334 612.21Z" fill="#10141E"/>
<path fill-rule="evenodd" clip-rule="evenodd" d="M551.059 602.587C550.591 600.388 552.007 598.224 554.221 597.754L597.579 588.538C599.792 588.067 601.966 589.468 602.433 591.667L602.624 592.567C603.092 594.765 601.676 596.929 599.462 597.4L597.092 597.903C595.764 598.186 594.915 599.484 595.195 600.803L599.713 622.058C600.18 624.256 598.764 626.42 596.551 626.891L553.193 636.107C550.979 636.577 548.806 635.176 548.338 632.978L547.838 630.624C547.371 628.425 548.786 626.261 551 625.791L553.37 625.287C554.698 625.005 555.548 623.706 555.267 622.387L551.059 602.587ZM554.559 599.346C553.231 599.628 552.381 600.927 552.662 602.246L556.871 622.047C557.338 624.245 555.922 626.409 553.709 626.879L551.339 627.383C550.01 627.665 549.161 628.964 549.441 630.283L549.942 632.637C550.222 633.956 551.526 634.796 552.854 634.514L596.212 625.298C597.541 625.016 598.39 623.718 598.11 622.398L593.592 601.144C593.124 598.945 594.54 596.782 596.754 596.311L599.124 595.807C600.452 595.525 601.301 594.227 601.021 592.908L600.83 592.007C600.549 590.688 599.245 589.848 597.917 590.13L554.559 599.346Z" fill="#10141E"/>
<path fill-rule="evenodd" clip-rule="evenodd" d="M510.396 641.621C509.929 639.422 511.344 637.258 513.558 636.788L545.205 630.061C547.419 629.59 549.592 630.991 550.059 633.19L554.268 652.991C554.736 655.189 553.32 657.353 551.106 657.823L519.459 664.55C517.245 665.021 515.072 663.62 514.605 661.421L510.396 641.621ZM513.896 638.38C512.568 638.662 511.719 639.961 511.999 641.28L516.208 661.08C516.488 662.4 517.792 663.24 519.121 662.958L550.768 656.231C552.096 655.949 552.945 654.65 552.665 653.331L548.456 633.531C548.176 632.211 546.872 631.371 545.544 631.653L513.896 638.38Z" fill="#10141E"/>
<path fill-rule="evenodd" clip-rule="evenodd" d="M595.885 568.745C595.418 566.546 596.833 564.382 599.047 563.912L630.694 557.185C632.908 556.714 635.081 558.115 635.549 560.314L639.757 580.115C640.225 582.313 638.809 584.477 636.595 584.947L604.948 591.674C602.735 592.145 600.561 590.744 600.094 588.545L595.885 568.745ZM599.386 565.504C598.057 565.786 597.208 567.085 597.488 568.404L601.697 588.204C601.978 589.524 603.282 590.364 604.61 590.082L636.257 583.355C637.585 583.073 638.434 581.774 638.154 580.455L633.945 560.655C633.665 559.335 632.361 558.495 631.033 558.777L599.386 565.504Z" fill="#10141E"/>
<path fill-rule="evenodd" clip-rule="evenodd" d="M601.448 594.915C600.98 592.716 602.396 590.552 604.61 590.082L636.257 583.355C638.471 582.884 640.644 584.285 641.111 586.484L645.32 606.284C645.787 608.483 644.372 610.647 642.158 611.117L610.511 617.844C608.297 618.315 606.124 616.914 605.656 614.715L601.448 594.915ZM604.948 591.674C603.62 591.956 602.771 593.255 603.051 594.574L607.26 614.374C607.54 615.694 608.844 616.534 610.172 616.252L641.819 609.525C643.148 609.243 643.997 607.944 643.717 606.625L639.508 586.825C639.228 585.505 637.924 584.665 636.595 584.947L604.948 591.674Z" fill="#10141E"/>
<path fill-rule="evenodd" clip-rule="evenodd" d="M607.01 621.085C606.543 618.887 607.959 616.723 610.172 616.253L641.819 609.526C644.033 609.055 646.206 610.456 646.674 612.655L650.883 632.455C651.35 634.654 649.934 636.818 647.721 637.288L616.073 644.015C613.86 644.486 611.686 643.085 611.219 640.886L607.01 621.085ZM610.511 617.845C609.183 618.127 608.333 619.425 608.614 620.745L612.822 640.545C613.103 641.864 614.407 642.705 615.735 642.423L647.382 635.696C648.71 635.414 649.56 634.115 649.279 632.796L645.071 612.995C644.79 611.676 643.486 610.836 642.158 611.118L610.511 617.845Z" fill="#10141E"/>
</g>
<path d="M543.918 718.671L544.679 722.25L539.572 723.108L543.401 726.556L540.628 729.14L537.146 725.097L535.61 730.207L532.09 728.96L534.122 724.267L529.155 725.572L528.394 721.993L533.472 721.209L529.693 717.683L532.402 715.112L535.883 719.155L537.419 714.046L541.004 715.278L538.943 720.046L543.918 718.671Z" fill="white"/>
<path d="M570.039 713.096L570.799 716.675L565.693 717.533L569.522 720.981L566.749 723.565L563.267 719.522L561.731 724.632L558.211 723.385L560.243 718.692L555.276 719.997L554.515 716.419L559.593 715.634L555.814 712.108L558.523 709.537L562.004 713.58L563.54 708.471L567.125 709.703L565.064 714.471L570.039 713.096Z" fill="white"/>
<path d="M596.16 707.521L596.92 711.1L591.814 711.959L595.643 715.406L592.87 717.99L589.388 713.948L587.852 719.057L584.332 717.81L586.363 713.117L581.397 714.422L580.636 710.844L585.713 710.059L581.935 706.533L584.644 703.962L588.125 708.005L589.661 702.896L593.246 704.129L591.185 708.896L596.16 707.521Z" fill="white"/>
<path d="M622.281 701.947L623.041 705.525L617.935 706.384L621.764 709.831L618.991 712.415L615.509 708.373L613.973 713.482L610.453 712.235L612.485 707.542L607.518 708.847L606.757 705.269L611.835 704.484L608.056 700.958L610.765 698.388L614.246 702.43L615.782 697.321L619.367 698.554L617.306 703.321L622.281 701.947Z" fill="white"/>
<path d="M666.499 692.502L667.26 696.081L662.153 696.94L665.982 700.387L663.209 702.971L659.727 698.928L658.191 704.038L654.671 702.791L656.703 698.098L651.736 699.403L650.975 695.825L656.053 695.04L652.274 691.514L654.983 688.943L658.464 692.986L660 687.877L663.585 689.11L661.524 693.877L666.499 692.502Z" fill="white"/>
<path d="M692.625 686.949L693.385 690.528L688.278 691.386L692.108 694.834L689.334 697.418L685.853 693.375L684.317 698.485L680.797 697.238L682.828 692.545L677.861 693.85L677.101 690.272L682.178 689.487L678.4 685.961L681.108 683.39L684.59 687.433L686.126 682.324L689.711 683.557L687.65 688.324L692.625 686.949Z" fill="white"/>
<path d="M718.746 681.374L719.506 684.953L714.373 685.794L718.203 689.242L715.429 691.826L711.948 687.783L710.412 692.893L706.892 691.646L708.923 686.953L703.956 688.258L703.196 684.68L708.273 683.895L704.495 680.369L707.203 677.798L710.685 681.841L712.221 676.732L715.806 677.964L713.745 682.732L718.746 681.374Z" fill="white"/>
<path d="M744.866 675.799L745.627 679.378L740.499 680.241L744.328 683.689L741.555 686.273L738.073 682.23L736.537 687.339L733.017 686.093L735.049 681.4L730.082 682.705L729.321 679.126L734.399 678.342L730.62 674.816L733.329 672.245L736.81 676.288L738.346 671.179L741.926 672.39L739.866 677.157L744.866 675.799Z" fill="white"/>
<path d="M789.085 666.355L789.845 669.934L784.738 670.793L788.568 674.24L785.794 676.824L782.313 672.781L780.777 677.891L777.257 676.644L779.288 671.951L774.322 673.256L773.561 669.678L778.638 668.893L774.86 665.367L777.569 662.796L781.05 666.839L782.586 661.73L786.171 662.963L784.11 667.73L789.085 666.355Z" fill="white"/>
<path d="M815.189 660.807L815.95 664.385L810.843 665.244L814.672 668.691L811.899 671.276L808.417 667.233L806.881 672.342L803.361 671.096L805.393 666.402L800.426 667.707L799.665 664.129L804.743 663.344L800.964 659.818L803.673 657.248L807.154 661.29L808.69 656.181L812.271 657.392L810.21 662.16L815.189 660.807Z" fill="white"/>
<path d="M841.31 655.232L842.07 658.81L836.963 659.669L840.793 663.117L838.019 665.701L834.538 661.658L833.002 666.767L829.482 665.521L831.513 660.828L826.547 662.133L825.786 658.554L830.863 657.77L827.085 654.243L829.794 651.673L833.275 655.716L834.811 650.606L838.396 651.839L836.335 656.607L841.31 655.232Z" fill="white"/>
<path d="M867.431 649.657L868.191 653.235L863.084 654.094L866.914 657.542L864.14 660.126L860.659 656.083L859.123 661.192L855.603 659.946L857.634 655.253L852.668 656.558L851.907 652.979L856.984 652.195L853.206 648.668L855.915 646.098L859.396 650.141L860.932 645.031L864.517 646.264L862.456 651.032L867.431 649.657Z" fill="white"/>
<path d="M902.156 677.863L901.253 673.612L912.011 656.592C914.904 652.124 916.07 648.567 915.507 645.921C915.042 643.73 914.007 642.16 912.403 641.208C910.8 640.257 909.049 639.995 907.102 640.409C903.426 641.19 901.117 643.517 900.194 647.362L895.303 645.727C895.975 642.932 897.278 640.661 899.164 638.9C901.05 637.139 903.334 635.973 905.946 635.396C909.212 634.701 912.275 635.184 915.154 636.816C918.037 638.47 919.862 641.097 920.641 644.762C921.48 648.709 920.083 653.516 916.446 659.163L908.608 671.21L926.23 667.442L927.299 672.473L902.156 677.863Z" fill="white"/>
<path d="M945.773 644.429C948.878 644.358 951.572 645.123 953.904 646.736C956.236 648.348 957.727 650.683 958.386 653.784C959.193 657.58 958.531 660.848 956.406 663.612C954.281 666.376 951.354 668.131 947.634 668.922C944.671 669.552 941.89 669.44 939.285 668.566C936.702 667.687 934.644 666.084 933.122 663.71L936.921 660.206C938.837 663.584 942.052 664.782 946.551 663.825C948.973 663.311 950.807 662.263 952.049 660.662C953.296 659.082 953.697 657.138 953.191 654.866C952.707 652.589 951.572 650.971 949.764 650.018C947.979 649.06 945.872 648.828 943.45 649.343L942.109 649.628L939.377 646.877L945.795 632.728L928.477 636.432L927.444 631.574L950.84 626.578L951.786 631.137L945.773 644.429Z" fill="white"/>
<path d="M996.699 644.847L997.732 649.705L992.996 650.712L994.577 658.151L989.408 659.249L987.827 651.811L967.956 656.057L966.923 651.199L975.192 621.402L980.772 620.216L972.503 650.013L986.82 646.97L984.469 635.909L989.638 634.811L991.989 645.871L996.699 644.847Z" fill="white"/>
<path d="M1014.61 628.936C1018.29 628.154 1021.63 628.577 1024.64 630.203C1027.66 631.829 1029.57 634.573 1030.39 638.411C1031.2 642.207 1030.54 645.475 1028.41 648.239C1026.29 651.003 1023.36 652.758 1019.64 653.549C1016.68 654.179 1013.86 654.028 1011.22 653.094C1008.58 652.159 1006.5 650.426 1004.99 647.913L1008.85 644.464C1009.77 646.262 1011.09 647.477 1012.77 648.162C1014.48 648.843 1016.4 648.934 1018.54 648.479C1020.98 647.959 1022.84 646.907 1024.1 645.301C1025.35 643.722 1025.73 641.782 1025.24 639.505C1024.76 637.228 1023.62 635.611 1021.82 634.658C1020.01 633.704 1017.92 633.467 1015.55 633.973L1004.52 636.318L1001.59 615.746L1022.97 611.178L1024.01 616.036L1007.36 619.597L1008.9 630.128L1014.61 628.936Z" fill="white"/>
<path fill-rule="evenodd" clip-rule="evenodd" d="M1355.17 763.767C1397.83 754.7 1425.22 713.529 1416.35 671.81C1407.49 630.091 1365.72 603.622 1323.06 612.689C1303.94 616.753 1287.89 627.265 1276.79 641.384C1260.91 632.999 1241.97 629.925 1222.85 633.988C1180.2 643.056 1152.8 684.226 1161.67 725.945C1170.54 767.664 1212.31 794.133 1254.97 785.066C1274.09 781.002 1290.14 770.491 1301.23 756.371C1317.11 764.757 1336.05 767.83 1355.17 763.767Z" fill="#ED0006"/>
<path fill-rule="evenodd" clip-rule="evenodd" d="M1301.23 756.371C1314.9 738.986 1321.04 716.13 1316.15 693.109C1311.26 670.088 1296.34 651.709 1276.79 641.384C1287.89 627.265 1303.94 616.753 1323.06 612.689C1365.72 603.622 1407.49 630.091 1416.35 671.81C1425.22 713.529 1397.83 754.7 1355.17 763.767C1336.05 767.83 1317.11 764.757 1301.23 756.371Z" fill="#F9A000"/>
<path fill-rule="evenodd" clip-rule="evenodd" d="M1301.23 756.367C1314.9 738.982 1321.04 716.127 1316.15 693.106C1311.26 670.085 1296.35 651.707 1276.79 641.382C1263.13 658.767 1256.98 681.621 1261.88 704.642C1266.77 727.664 1281.68 746.042 1301.23 756.367Z" fill="#FF5E00"/>
</g>
<path d="M1507.64 164.747C1510.75 163.743 1512.43 160.426 1511.41 157.338C1510.38 154.251 1507.04 152.562 1503.93 153.567L1459 168.116C1455.9 169.121 1454.21 172.438 1455.24 175.525C1456.26 178.613 1459.61 180.301 1462.71 179.297L1507.64 164.747Z" fill="#156DCB"/>
<path d="M1413.17 80.2334C1413.61 77.0181 1411.34 74.0462 1408.1 73.5956C1404.86 73.1449 1401.88 75.3861 1401.44 78.6014L1395.09 125.176C1394.65 128.391 1396.92 131.363 1400.15 131.814C1403.39 132.265 1406.37 130.023 1406.81 126.808L1413.17 80.2334Z" fill="#156DCB"/>
<path d="M1473.07 109.285C1475.15 106.797 1474.81 103.089 1472.3 101.003C1469.78 98.9172 1466.06 99.243 1463.97 101.731L1433.73 137.769C1431.64 140.257 1431.98 143.965 1434.5 146.051C1437.01 148.137 1440.74 147.811 1442.83 145.323L1473.07 109.285Z" fill="#156DCB"/>
<defs>
<filter id="filter0_ii_59_419" x="499.964" y="551.013" width="150.226" height="119.713" filterUnits="userSpaceOnUse" color-interpolation-filters="sRGB">
<feFlood flood-opacity="0" result="BackgroundImageFix"/>
<feBlend mode="normal" in="SourceGraphic" in2="BackgroundImageFix" result="shape"/>
<feColorMatrix in="SourceAlpha" type="matrix" values="0 0 0 0 0 0 0 0 0 0 0 0 0 0 0 0 0 0 127 0" result="hardAlpha"/>
<feOffset dx="-1" dy="-1"/>
<feComposite in2="hardAlpha" operator="arithmetic" k2="-1" k3="1"/>
<feColorMatrix type="matrix" values="0 0 0 0 0.184314 0 0 0 0 0.152941 0 0 0 0 0.0941176 0 0 0 0.2 0"/>
<feBlend mode="normal" in2="shape" result="effect1_innerShadow_59_419"/>
<feColorMatrix in="SourceAlpha" type="matrix" values="0 0 0 0 0 0 0 0 0 0 0 0 0 0 0 0 0 0 127 0" result="hardAlpha"/>
<feOffset dx="1" dy="1"/>
<feComposite in2="hardAlpha" operator="arithmetic" k2="-1" k3="1"/>
<feColorMatrix type="matrix" values="0 0 0 0 0.184314 0 0 0 0 0.152941 0 0 0 0 0.0941176 0 0 0 0.2 0"/>
<feBlend mode="normal" in2="effect1_innerShadow_59_419" result="effect2_innerShadow_59_419"/>
</filter>
<linearGradient id="paint0_linear_59_419" x1="390.984" y1="1022.43" x2="932.199" y2="114.227" gradientUnits="userSpaceOnUse">
<stop stop-color="#0C6B62"/>
<stop offset="1" stop-color="#0B6A61"/>
</linearGradient>
<linearGradient id="paint1_linear_59_419" x1="390.984" y1="1022.43" x2="932.199" y2="114.227" gradientUnits="userSpaceOnUse">
<stop offset="0.546119" stop-color="#0C6B62"/>
<stop offset="1" stop-color="#004C43"/>
</linearGradient>
<radialGradient id="paint2_radial_59_419" cx="0" cy="0" r="1" gradientUnits="userSpaceOnUse" gradientTransform="translate(531.21 570.047) rotate(58.6655) scale(103.964 145.696)">
<stop stop-color="#C29632"/>
<stop offset="1" stop-color="#C29632" stop-opacity="0"/>
</radialGradient>
<radialGradient id="paint3_radial_59_419" cx="0" cy="0" r="1" gradientUnits="userSpaceOnUse" gradientTransform="translate(642.723 598.01) rotate(133.359) scale(83.6751 116.359)">
<stop stop-color="#664700"/>
<stop offset="1" stop-color="#664700"/>
</radialGradient>
<radialGradient id="paint4_radial_59_419" cx="0" cy="0" r="1" gradientUnits="userSpaceOnUse" gradientTransform="translate(535.504 669.426) rotate(-33.6669) scale(128.827 178.689)">
<stop stop-color="#402200"/>
<stop offset="1" stop-color="#402200" stop-opacity="0"/>
</radialGradient>
<clipPath id="clip0_59_419">
<rect x="391" y="407.076" width="1032.62" height="615.36" rx="64" transform="rotate(-12 391 407.076)" fill="white"/>
</clipPath>
</defs>
</svg>
