<svg width="500" height="481" fill="none" xmlns="http://www.w3.org/2000/svg">
    <g clip-path="url(#a)">
        <path d="M443.79 416.239c-2.64.83-8.79 0-8.79 0s1.77-3.89 1.91-4.12c1.66-2.68 6.45-6.88 9.88-6a4.173 4.173 0 0 1 2.621 2.17 4.187 4.187 0 0 1 .139 3.4c-.85 2.34-3.51 3.85-5.76 4.55ZM388.66 414.36c-.06 0-.67-4.21-.68-4.49-.09-3.15 1.59-9.29 4.92-10.47a4.162 4.162 0 0 1 3.385.364 4.179 4.179 0 0 1 1.985 2.766c.59 2.42-.8 5.15-2.28 7-1.75 2.12-7.33 4.83-7.33 4.83Z" fill="#1E1E1E"/>
        <path d="M388.73 458.75c2.06.26 6.14-.9 7.28-1.24.19 1.76.41 3.49.72 5.19.14.73.24 1.49.42 2.18.18.69.34 1.4.5 2.09.39 1.41.74 2.72 1.14 4 .19.67.39 1.28.59 1.92-.49-1-1.29-2.6-1.38-2.74-1.52-2.32-5.81-5.91-8.8-5.09a3.668 3.668 0 0 0-2.32 4.94c.79 2 3.17 3.32 5.16 3.89 2.19.63 7-.06 7.6-.15.5 1.56 1 3.08 1.48 4.49.32.93.63 1.8.93 2.65h2c-.4-1-.81-2.11-1.24-3.27-.43-1.16-.94-2.61-1.42-4 .54-.23 4.72-2 6.4-3.63 1.331.826 2.71 1.57 4.13 2.23-.46 1.58-.88 3.12-1.25 4.56-.37 1.44-.71 2.81-1 4.11h2c.25-1.17.52-2.37.82-3.67.3-1.3.66-2.7 1-4.12.59.11 5.38 1 7.59.46 2-.49 4.44-1.68 5.3-3.69a3.683 3.683 0 0 0 .05-2.966 3.668 3.668 0 0 0-2.16-2.034c-3-.93-7.39 2.48-9 4.74-.1.15-1.12 2-1.62 2.94.22-.86.45-1.71.7-2.6.35-1.28.76-2.63 1.16-3.93l.69-2c.22-.7.52-1.33.78-2 .4-1 .86-2 1.32-3 1.28.43 5.07 1.65 7.07 1.48 2-.17 4.64-1 5.8-2.84a3.677 3.677 0 0 0-1.32-5.31c-2.79-1.37-7.68 1.34-9.61 3.33-.07.06-.43.52-.86 1.08.48-1 1-1.92 1.47-2.87 1.46-2.7 3-5.4 4.6-8.12l1-1.7c1.08.37 5.18 1.72 7.27 1.54 2.09-.18 4.64-1 5.8-2.84a3.668 3.668 0 0 0-1.32-5.3c-2.79-1.37-7.68 1.33-9.61 3.32-.07.07-.51.63-1 1.25.83-1.49 1.64-3 2.4-4.49a65.419 65.419 0 0 0 3.41-8c.38.14 5.15 1.83 7.47 1.62 2.07-.18 4.64-1 5.81-2.84a3.66 3.66 0 0 0 .518-2.947 3.663 3.663 0 0 0-1.848-2.353c-2.78-1.37-7.68 1.33-9.61 3.32-.14.14-1.69 2.15-2.22 2.89v-.09a46.84 46.84 0 0 0 1.89-8.31c.358-2.512.565-5.043.62-7.58.08-2.36 0-4.51-.07-6.42-.05-1-.12-2-.19-2.86h.05s1.3-3.53 1.35-3.76c.61-2.7.2-8.28-2.47-9.87a3.675 3.675 0 0 0-2.979-.256 3.668 3.668 0 0 0-2.181 2.046c-.92 2-.19 4.58.79 6.41s4.43 4.6 5.29 5.27c.06.92.11 1.9.14 3 0 1.91.06 4.06-.07 6.41 0 .62-.09 1.29-.14 1.94-.15-1.11-.37-2.64-.41-2.78-.7-2.68-3.64-7.45-6.73-7.62a3.68 3.68 0 0 0-2.786 1.151 3.68 3.68 0 0 0-.984 2.849c.1 2.19 1.95 4.16 3.66 5.33 1.71 1.17 6.2 2.07 7.17 2.24-.13 1.44-.3 2.92-.56 4.45a46.86 46.86 0 0 1-2 8.18h-.17c0-1-.09-3.23-.11-3.41-.41-2.75-2.8-7.81-5.86-8.32a3.673 3.673 0 0 0-3.808 2.044 3.665 3.665 0 0 0-.362 1.486c-.15 2.19 1.48 4.34 3 5.7 1.81 1.55 6.86 3 7.05 3.07a64.44 64.44 0 0 1-3.47 7.63c-1 1.83-2 3.65-3.1 5.46 0-.73-.09-3.61-.12-3.82-.4-2.74-2.79-7.8-5.85-8.31A3.676 3.676 0 0 0 416 434c-.14 2.18 1.48 4.34 3.05 5.69 1.76 1.52 6.6 2.94 7 3.06-.49.82-1 1.65-1.48 2.47-1.62 2.68-3.26 5.35-4.79 8.05-.53.93-1 1.87-1.52 2.81 0-1.1-.08-3.1-.11-3.27-.4-2.74-2.79-7.8-5.85-8.32a3.682 3.682 0 0 0-3.815 2.043 3.69 3.69 0 0 0-.365 1.487c-.14 2.19 1.48 4.34 3 5.7 1.52 1.36 5.61 2.63 6.75 3-.81 1.57-1.58 3.14-2.26 4.72-.29.69-.62 1.38-.85 2.06-.23.68-.49 1.35-.74 2-.45 1.39-.88 2.68-1.27 4-.2.66-.37 1.28-.56 1.93.15-1.12.36-2.89.36-3.05 0-2.78-1.58-8.14-4.53-9.11a3.68 3.68 0 0 0-2.966.385 3.686 3.686 0 0 0-1.694 2.465 4.496 4.496 0 0 0-.1.81 14.373 14.373 0 0 0-2.31 6.82c0 .17.16 2.28.27 3.35-.29-.84-.57-1.68-.85-2.56-.42-1.26-.81-2.61-1.2-3.92l-.54-2.07c-.2-.7-.31-1.4-.46-2.1-.21-1-.38-2.13-.54-3.21 1.31-.34 5.15-1.42 6.72-2.66 1.57-1.24 3.32-3.38 3.27-5.57a3.67 3.67 0 0 0-4-3.69c-3.08.38-5.67 5.34-6.19 8.07 0 .09-.06.67-.11 1.37-.13-1.06-.26-2.12-.36-3.2-.27-3.06-.45-6.18-.64-9.31 0-.65-.09-1.31-.13-2 1.1-.28 5.27-1.41 6.91-2.72 1.64-1.31 3.33-3.38 3.28-5.57a3.68 3.68 0 0 0-4-3.69c-3.08.39-5.67 5.35-6.19 8.07 0 .1-.07.8-.13 1.59-.13-1.7-.28-3.4-.48-5.07a66.032 66.032 0 0 0-1.58-8.53c.39-.1 5.3-1.33 7.12-2.78 1.62-1.29 3.33-3.38 3.28-5.57a3.68 3.68 0 0 0-4-3.69c-3.08.39-5.67 5.35-6.19 8.07 0 .2-.22 2.73-.26 3.64a.335.335 0 0 0 0-.1 47.07 47.07 0 0 0-3-8 66.157 66.157 0 0 0-3.67-6.67c-1.24-2-2.49-3.77-3.61-5.32a63.59 63.59 0 0 0-1.73-2.28h.06s-.87-3.65-1-3.87c-1-2.59-4.4-7-7.5-6.87a3.672 3.672 0 0 0-2.631 1.428 3.68 3.68 0 0 0-.699 2.912c.33 2.16 2.38 3.92 4.2 4.91 1.82.99 6.24 1.39 7.32 1.47.56.74 1.14 1.53 1.76 2.42 1.08 1.57 2.29 3.35 3.48 5.37.31.54.63 1.14.95 1.71-.74-.85-1.76-2-1.88-2.1-2.06-1.85-7.14-4.21-9.81-2.64a3.672 3.672 0 0 0-1.698 2.467 3.675 3.675 0 0 0 .698 2.913c1.29 1.77 3.92 2.39 6 2.43 2.08.04 6.31-1.7 7.22-2.08.69 1.27 1.36 2.59 2 4a47.301 47.301 0 0 1 2.8 8l-.16.07c-.59-.86-1.86-2.65-2-2.78-1.85-2.07-6.63-5-9.47-3.71a3.674 3.674 0 0 0-1.933 2.284 3.694 3.694 0 0 0-.114 1.526c.07.511.246 1.001.517 1.44 1.08 1.9 3.63 2.81 5.68 3.07 2.37.3 7.38-1.27 7.57-1.33a64.465 64.465 0 0 1 1.36 8.33c.2 2.07.32 4.16.42 6.27-.39-.62-2.06-3-2.2-3.12-1.85-2.07-6.63-5-9.47-3.71a3.674 3.674 0 0 0-1.933 2.284 3.694 3.694 0 0 0-.114 1.526c.07.511.246 1.001.517 1.44 1.08 1.9 3.63 2.81 5.68 3.07 2.31.3 7.13-1.19 7.53-1.32 0 1 .1 1.91.13 2.87.13 3.13.24 6.27.44 9.36.07 1.08.18 2.13.29 3.19-.62-.91-1.78-2.54-1.9-2.67-1.85-2.07-6.63-5-9.47-3.7a3.658 3.658 0 0 0-1.53 5.24c1.08 1.85 3.63 2.76 5.68 3.02Z" fill="#1E1E1E"/>
        <path d="M324.383 100.401c-2.283-1.965-4.141-4.995-5.575-9.09a23.554 23.554 0 0 1-.489-13.457c1.088-4.702 3.158-7.942 6.211-9.72 3.053-1.777 7.149-2.712 12.288-2.802l18.755-.187c8.05-.19 12.689-2.956 13.918-8.296.667-2.884-.155-5.716-2.468-8.495-2.313-2.78-6.89-4.958-13.731-6.534a64.23 64.23 0 0 0-18.089-1.67 53.32 53.32 0 0 0-14.503 2.526 28.912 28.912 0 0 1-4.944-8.709 18.725 18.725 0 0 1-.391-10.775 17.002 17.002 0 0 1 5.826-9.522 25.885 25.885 0 0 1 11.137-5.101 55.84 55.84 0 0 1 15.327-.898 117.016 117.016 0 0 1 18.651 2.878c17.913 4.117 30.554 11.22 37.923 21.307 7.369 10.087 9.545 21.59 6.529 34.51-5.622 24.298-26.383 35.893-62.284 34.785l-24.091-.75Zm-14.426 28.102c1.439-6.222 4.574-10.896 9.402-14.021 4.829-3.126 10.65-3.9 17.464-2.324 6.826 1.58 11.712 4.831 14.658 9.756 2.946 4.924 3.709 10.499 2.288 16.726-1.442 6.235-4.577 10.909-9.402 14.021-4.826 3.113-10.644 3.888-17.454 2.326-6.839-1.583-11.728-4.835-14.668-9.758-2.939-4.922-3.702-10.498-2.288-16.726ZM217.09 318.92l2.58 155.58s13.732-1.85 22.586-2c14.123-.24 21.876 3.709 36 3.5 7.732-.114 19.744-1.5 19.744-1.5l-7.04-153.6-73.87-1.98Z" fill="#274430"/>
        <path d="m217.09 261.71 1.98 160.14h78.33l-6.44-158.16-73.87-1.98Z" fill="#fff"/>
        <path d="M297.4 422.35h-78.33a.5.5 0 0 1-.5-.5l-2-160.13a.515.515 0 0 1 .15-.36.468.468 0 0 1 .37-.15l73.87 2a.492.492 0 0 1 .49.47l6.44 158.16a.471.471 0 0 1-.14.37.505.505 0 0 1-.35.14Zm-77.84-1h77.32l-6.4-157.17-72.89-2 1.97 159.17Z" fill="#274430"/>
        <path d="m243.668 278.24-.607.551.421.703 7.979 13.298-14.221 102.29-.069.493.352.352 21.52 21.53.964.964.63-1.209 14.05-26.96.154-.297-.055-.329-16.02-96.114 7.91-10.76.401-.546-.359-.576-9.06-14.51-.634-1.016-.886.806-12.47 11.33Z" fill="#274430" stroke="#274430" stroke-width="2"/>
        <path d="M259.75 417.25a.469.469 0 0 1-.35-.15l-21.53-21.52a.526.526 0 0 1-.14-.43L252 292.68l-8.06-13.44a.495.495 0 0 1 .09-.63l12.46-11.33a.53.53 0 0 1 .41-.12.483.483 0 0 1 .35.23l9.06 14.5a.5.5 0 0 1 0 .56l-8 10.93 16.05 96.32a.507.507 0 0 1-.05.32l-14 27a.495.495 0 0 1-.37.26l-.19-.03Zm-21-22.2 20.86 20.86 13.66-26.21-16.06-96.36a.523.523 0 0 1 .09-.38l8-10.83-8.57-13.7L245 279.08l8 13.24c.058.1.082.215.07.33l-14.32 102.4Z" fill="#274430"/>
        <path d="m252.5 292.58-.31 2.25 9.1-6.44 4.58-6.23-4.37-7-13.65 9.66 4.65 7.76Z" fill="#9198E3"/>
        <path d="M252.19 295.33a.503.503 0 0 1-.26-.08.505.505 0 0 1-.24-.49l.29-2.08-4.56-7.6a.488.488 0 0 1 .14-.67l13.65-9.65a.53.53 0 0 1 .39-.09.506.506 0 0 1 .32.23l4.37 7a.5.5 0 0 1 0 .56l-4.57 6.23a.597.597 0 0 1-.12.11l-9.1 6.44a.526.526 0 0 1-.31.09ZM248.51 285l4.42 7.36c.057.1.082.216.07.33l-.16 1.1 8.1-5.72 4.33-5.9-3.91-6.25-12.85 9.08Z" fill="#274430"/>
        <path d="m247.78 326.55 13.85-9.8-1.95-11.7-9.89 6.99-2.01 14.51Z" fill="#9198E3"/>
        <path d="M247.78 327a.475.475 0 0 1-.26-.07.503.503 0 0 1-.24-.49l2-14.51a.51.51 0 0 1 .069-.192.51.51 0 0 1 .141-.148l9.88-7a.492.492 0 0 1 .678.102.523.523 0 0 1 .102.228l1.95 11.7a.506.506 0 0 1-.2.49L248.07 327a.511.511 0 0 1-.29 0Zm2.48-14.71-1.83 13.14 12.65-9-1.76-10.6-9.06 6.46Z" fill="#274430"/>
        <path d="m260.15 415.98 10.79-20.71-19.13 13.54 7.66 7.66.68-.49Z" fill="#9198E3"/>
        <path d="M259.47 417a.509.509 0 0 1-.36-.15l-7.65-7.66a.5.5 0 0 1-.15-.4.491.491 0 0 1 .21-.36l19.13-13.53a.5.5 0 0 1 .62 0 .488.488 0 0 1 .11.6l-10.78 20.71a.542.542 0 0 1-.16.18l-.68.48a.465.465 0 0 1-.29.13Zm-6.89-8.11 6.94 6.94.24-.17 9.78-18.76-16.96 11.99Z" fill="#274430"/>
        <path d="m263.94 330.63-18.56 13.13-2.01 14.5 22.52-15.93-1.95-11.7Z" fill="#9198E3"/>
        <path d="M243.37 358.76a.5.5 0 0 1-.5-.57l2-14.5a.523.523 0 0 1 .2-.34l18.56-13.12a.504.504 0 0 1 .485-.061.494.494 0 0 1 .305.381l1.94 11.7a.474.474 0 0 1-.2.49l-22.52 15.93a.521.521 0 0 1-.27.09Zm2.48-14.76L244 357.19l21.33-15.09-1.77-10.6-17.71 12.5Z" fill="#274430"/>
        <path d="m269.13 361.76-29.11 20.59-1.79 12.87.86.86 31.99-22.62-1.95-11.7Z" fill="#9198E3"/>
        <path d="M239.09 396.58a.497.497 0 0 1-.36-.14l-.86-.86a.526.526 0 0 1-.14-.43l1.79-12.87a.54.54 0 0 1 .21-.34l29.11-20.59a.5.5 0 0 1 .78.33l1.95 11.7a.527.527 0 0 1-.2.49l-32 22.62a.526.526 0 0 1-.28.09Zm-.33-1.53.38.38 31.39-22.2-1.76-10.6-28.29 20-1.72 12.42Z" fill="#274430"/>
        <path d="m256.634 273.09.834-.901-1.05-.635-24.61-14.88-1.16-.701-.328 1.315-2.13 8.54-.06.239.059.24 6.8 27.87.441 1.808 1.264-1.365 19.94-21.53Z" fill="#fff" stroke="#274430" stroke-width="2"/>
        <path d="M236 294.44h-.13a.489.489 0 0 1-.229-.131.489.489 0 0 1-.131-.229l-6.79-27.87a.487.487 0 0 1 0-.24l2.13-8.54a.51.51 0 0 1 .29-.34.502.502 0 0 1 .45 0L256.16 272a.5.5 0 0 1 .11.77l-19.94 21.53a.522.522 0 0 1-.33.14Zm-6.28-28.37 6.55 26.85 18.89-20.4-23.5-14.21-1.94 7.76Z" fill="#274430"/>
        <path d="m255.33 271.588-.859.596.633.832 15.18 19.94 1.239 1.628.524-1.978 7.25-27.41.083-.316-.119-.305-2.49-6.35-.462-1.177-1.039.72-19.94 13.82Z" fill="#fff" stroke="#274430" stroke-width="2"/>
        <path d="M271.08 292.85a.53.53 0 0 1-.4-.19l-15.18-20a.45.45 0 0 1-.087-.18.45.45 0 0 1-.003-.2.482.482 0 0 1 .21-.33l19.93-13.82a.526.526 0 0 1 .44-.07.57.57 0 0 1 .32.3l2.49 6.34c.03.101.03.209 0 .31l-7.25 27.42a.478.478 0 0 1-.39.36l-.08.06Zm-14.46-20.32 14.24 18.71 6.95-26.24-2.2-5.6-18.99 13.13Z" fill="#274430"/>
        <path d="m54.4 238.9-.87.495h.001l.001.002.004.006.012.021.045.077c.038.067.096.163.17.286.15.245.368.598.651 1.031a46.235 46.235 0 0 0 2.437 3.38c2.075 2.622 5.062 5.799 8.625 7.822 1.9 1.078 4.693 1.614 7.675 1.861 3.018.25 6.37.213 9.484.055 3.118-.157 6.018-.436 8.138-.676 1.06-.12 1.927-.229 2.53-.31l.208-.028 6.035 12.717.474.998.947-.571 13.15-7.94.785-.474-.405-.823-.897.441.897-.441v-.001l-.001-.002-.004-.008-.015-.03-.058-.118a297.139 297.139 0 0 0-1.042-2.084 328.865 328.865 0 0 0-2.718-5.269c-2.117-4.011-4.703-8.677-6.459-11.017-3.458-4.607-7.065-7.579-11.286-8.325-1.473-.26-2.805-.392-4.004-.512-.402-.04-.79-.078-1.162-.119-1.505-.167-2.824-.384-4.178-.907a70.136 70.136 0 0 0-2.415-.857l-.273-.094c-.993-.34-2.04-.703-3.039-1.091-1.002-.389-1.934-.795-2.699-1.217-.784-.432-1.305-.834-1.574-1.18-1.046-1.352-2.75-1.756-4.036-.901-1.31.87-1.643 2.653-.863 4.604.788 1.968 2.51 3.524 3.915 4.547a20.044 20.044 0 0 0 2.478 1.536l.168.086.048.023.013.007.005.002h.001v.001l.427-.896-.426.896.004.002.875.411c-.948.148-2.024.321-3.113.503-1.62.27-3.277.564-4.593.834-.656.135-1.24.266-1.696.388a7.874 7.874 0 0 0-.615.188 2.332 2.332 0 0 0-.509.243 4.553 4.553 0 0 1-.45.128c-.35.082-.822.169-1.386.257a91.118 91.118 0 0 1-3.968.509 225.014 225.014 0 0 1-5.067.497l-.345.03-.09.008-.023.002h-.007l.083.997Zm0 0-.87.494-.773-1.36 1.56-.131.083.997Z" fill="#fff" stroke="#274430" stroke-width="2"/>
        <path d="m50.11 236.66-.905.425.27.575h8.205l-1.038-1.555-.832.555.832-.555v-.001l-.003-.002-.007-.011-.029-.044-.112-.169-.409-.621c-.343-.525-.81-1.246-1.31-2.035-1.011-1.6-2.108-3.408-2.586-4.434-.636-1.366-1.882-2.341-3.036-2.75-.572-.203-1.239-.308-1.854-.137a1.876 1.876 0 0 0-1.38 1.522c-.07.391-.016.835.056 1.215.078.41.203.872.352 1.354.3.964.722 2.076 1.146 3.118a89.189 89.189 0 0 0 1.581 3.645l.113.243.03.064.008.017.002.005v.001l.906-.425Z" fill="#fff" stroke="#274430" stroke-width="2"/>
        <path d="M55.81 237.16h-5.7a.513.513 0 0 1-.45-.29c-.6-1.27-3.56-7.68-3.25-9.36a1.39 1.39 0 0 1 1.27-1.18 4.548 4.548 0 0 1 4.06 2.67c1 2.14 4.45 7.34 4.49 7.39a.51.51 0 0 1-.42.78v-.01Zm-5.38-1h4.45a77.558 77.558 0 0 1-4.05-6.74 3.582 3.582 0 0 0-3-2.1c-.32 0-.39.2-.42.37-.2 1.02 1.7 5.61 3.02 8.47Z" fill="#274430"/>
        <path d="m63.86 251.26.725-.688v-.001l-.001-.001-.005-.005-.018-.019-.071-.075-.275-.292a208.483 208.483 0 0 1-4.142-4.546 112.81 112.81 0 0 1-3.469-4.093c-1.062-1.328-1.887-2.47-2.291-3.23-.953-1.789-3.134-4.787-5.264-6.612-.539-.462-1.1-.871-1.66-1.167-.55-.291-1.17-.51-1.804-.502-.679.009-1.308.28-1.79.837-.451.52-.724 1.232-.878 2.061l-.06.317.138.292.905-.426-.905.426.001.002.003.007.013.026.047.1.181.377a122.404 122.404 0 0 0 2.958 5.726c.914 1.658 1.95 3.428 2.991 4.99 1.03 1.545 2.11 2.955 3.123 3.839 2.02 1.764 4.958 2.657 7.267 3.121a29.991 29.991 0 0 0 3.9.518l.252.014.068.003H63.826v.001l.034-1Zm0 0 .725-.688 1.68 1.768-2.438-.08.033-1Z" fill="#fff" stroke="#274430" stroke-width="2"/>
        <path d="M63.86 251.76c-.3 0-7.48-.27-11.2-3.53-3.72-3.26-9-14.43-9.19-14.91a.45.45 0 0 1 0-.3c.28-1.49.93-2.32 1.92-2.47 2.82-.43 7.19 5.47 8.54 8 1.76 3.3 10.27 12.27 10.35 12.36a.51.51 0 0 1-.36.85h-.06Zm-19.44-18.71c.65 1.36 5.59 11.55 8.88 14.43 2.56 2.24 7.11 3 9.31 3.18-2.26-2.42-8.13-8.84-9.63-11.64-1.5-2.8-5.51-7.79-7.5-7.48-.48.08-.85.58-1.06 1.51Z" fill="#274430"/>
        <path d="m68.24 252.28.725-.689-.001-.001-.005-.005-.018-.019-.071-.076-.275-.291a207.048 207.048 0 0 1-4.142-4.543c-1.185-1.34-2.42-2.78-3.468-4.092-1.062-1.328-1.887-2.471-2.291-3.233-.953-1.794-3.126-4.789-5.253-6.613-.538-.461-1.099-.87-1.659-1.166-.551-.291-1.17-.509-1.804-.5a2.364 2.364 0 0 0-1.791.833c-.454.519-.73 1.229-.889 2.057l-.061.319.138.294.905-.425-.905.426.002.002.003.007.012.026.047.1.182.377a123.21 123.21 0 0 0 2.958 5.727c.913 1.658 1.949 3.429 2.99 4.993 1.03 1.546 2.11 2.958 3.122 3.844 2.02 1.77 4.96 2.661 7.27 3.121a29.739 29.739 0 0 0 3.9.51l.253.013.068.003H68.21v.001l.031-1Zm0 0 .725-.689 1.675 1.762-2.43-.073.03-1Z" fill="#fff" stroke="#274430" stroke-width="2"/>
        <path d="M68.24 252.78c-.3 0-7.47-.27-11.2-3.53-3.73-3.26-9-14.43-9.19-14.9a.48.48 0 0 1 0-.31c.287-1.487.927-2.307 1.92-2.46 2.83-.44 7.19 5.46 8.54 8 1.76 3.3 10.27 12.27 10.35 12.37a.489.489 0 0 1 .1.54.509.509 0 0 1-.52.29ZM48.8 234.07c.65 1.36 5.59 11.55 8.88 14.43 2.57 2.24 7.11 3 9.32 3.18-2.27-2.42-8.14-8.83-9.63-11.64-1.49-2.81-5.52-7.77-7.51-7.47-.5.07-.86.58-1.06 1.5Z" fill="#274430"/>
        <mask id="b" maskUnits="userSpaceOnUse" x="51.236" y="229.72" width="48" height="27" fill="#000">
            <path fill="#fff" d="M51.236 229.72h48v27h-48z"/>
            <path d="M97.5 245.93s-1.14-1.82-5-4.31c-3.86-2.49-24.27 3.85-24.27 3.85s-9.3-11.56-10.66-12.7c-1.36-1.14-3.86-1.81-4.31.46-.45 2.27 5.67 12 7.26 13.61 1.59 1.61 7.71 5.44 7.71 5.44a33.443 33.443 0 0 0 11.57 1.81 85.233 85.233 0 0 0 14.29-2.26"/>
        </mask>
        <path d="M97.5 245.93s-1.14-1.82-5-4.31c-3.86-2.49-24.27 3.85-24.27 3.85s-9.3-11.56-10.66-12.7c-1.36-1.14-3.86-1.81-4.31.46-.45 2.27 5.67 12 7.26 13.61 1.59 1.61 7.71 5.44 7.71 5.44a33.443 33.443 0 0 0 11.57 1.81 85.233 85.233 0 0 0 14.29-2.26" fill="#fff"/>
        <path d="m68.23 245.47-1.558 1.254.852 1.06 1.3-.404-.594-1.91Zm0 6.81-1.061 1.695.194.122.216.074.65-1.891Zm11.57 1.81.042 2 .05-.001.052-.004-.144-1.995Zm17.7-8.16c1.695-1.062 1.694-1.062 1.694-1.063l-.001-.002-.002-.003-.005-.007-.01-.016-.026-.039a7.378 7.378 0 0 0-.326-.441c-.214-.269-.527-.63-.963-1.066-.874-.871-2.235-2.037-4.277-3.354l-2.168 3.362c1.818 1.173 2.957 2.162 3.618 2.823.331.331.544.58.664.73.06.075.097.126.114.149l.01.015-.005-.008-.005-.008-.004-.005-.001-.002-.001-.002c0-.001-.001-.001 1.694-1.063Zm-3.916-5.991c-.916-.591-2.073-.792-3.096-.864-1.083-.075-2.32-.022-3.607.106-2.578.256-5.585.836-8.408 1.48a159.235 159.235 0 0 0-7.535 1.932 165.92 165.92 0 0 0-3.238.947l-.046.015-.012.004-.004.001.592 1.91.593 1.91.003-.001a.028.028 0 0 0 .01-.003l.04-.013.167-.05.642-.194c.558-.166 1.36-.401 2.336-.675 1.954-.55 4.592-1.256 7.341-1.883 2.761-.63 5.58-1.168 7.915-1.4 1.17-.116 2.16-.149 2.932-.095.384.027.68.073.897.127.107.027.185.053.239.075.054.021.074.035.07.033l2.17-3.362ZM68.23 245.47l1.558-1.254-.002-.002a.05.05 0 0 1-.005-.006l-.02-.025-.078-.098-.3-.37a790.057 790.057 0 0 0-4.43-5.438 317.51 317.51 0 0 0-3.623-4.341 80.903 80.903 0 0 0-1.428-1.634c-.37-.409-.754-.819-1.047-1.065l-2.57 3.066.049.045a20.038 20.038 0 0 1 .601.636c.366.406.828.935 1.354 1.551 1.05 1.23 2.332 2.77 3.576 4.283a751.926 751.926 0 0 1 3.337 4.088l1.07 1.321.296.368.077.096.02.025a.024.024 0 0 1 .005.006l.001.001v.001l1.559-1.254Zm-9.375-14.233c-.92-.771-2.301-1.471-3.72-1.515-.746-.023-1.626.137-2.401.717-.794.594-1.249 1.457-1.436 2.402l3.924.778c.037-.19.064-.094-.092.023-.137.102-.223.075-.118.078.111.004.314.042.578.157.258.111.504.266.695.426l2.57-3.066Zm-7.557 1.604c-.148.747 0 1.514.145 2.066.161.617.41 1.288.698 1.965.578 1.357 1.393 2.912 2.249 4.405.86 1.5 1.785 2.979 2.602 4.193.783 1.163 1.559 2.222 2.105 2.775l2.846-2.81c-.249-.252-.835-1.013-1.632-2.198a66.872 66.872 0 0 1-2.451-3.949c-.817-1.425-1.547-2.828-2.04-3.984a10.716 10.716 0 0 1-.508-1.41c-.11-.42-.055-.454-.09-.275l-3.924-.778Zm7.799 15.404c.967.979 3.085 2.457 4.76 3.58a141.34 141.34 0 0 0 3.239 2.104l.053.034.014.009.004.002.001.001 1.062-1.695 1.061-1.695v-.001l-.004-.002-.012-.007-.05-.031-.192-.122c-.167-.106-.409-.259-.704-.449-.591-.379-1.394-.901-2.244-1.471-1.783-1.194-3.519-2.436-4.142-3.067l-2.846 2.81Zm8.482 5.926a35.43 35.43 0 0 0 12.263 1.919l-.084-4a31.407 31.407 0 0 1-10.878-1.701l-1.3 3.782Zm12.365 1.914a87.232 87.232 0 0 0 14.625-2.313l-.958-3.884a83.234 83.234 0 0 1-13.955 2.207l.288 3.99Z" fill="#274430" mask="url(#b)"/>
        <path d="m121.911 270.06 1.031-.438-.551-.974-8.17-14.45-.507-.896-.881.532-19.79 11.94-.733.442.325.793 5.02 12.26.384.938.932-.397 22.94-9.75Z" fill="#fff" stroke="#274430" stroke-width="2"/>
        <path d="m195.34 255.64.06-.998h-.002l-.006-.001-.023-.001-.09-.005a102.202 102.202 0 0 0-5.41-.152c-1.449 0-2.987.039-4.311.161-.662.061-1.287.145-1.83.259-.525.11-1.05.264-1.46.502a2.278 2.278 0 0 0-.52.454c-.143.16-.303.359-.473.585a38.513 38.513 0 0 0-1.258 1.809c-.984 1.485-2.263 3.528-3.73 5.932-2.936 4.811-6.643 11.103-10.28 17.349a2825.64 2825.64 0 0 0-13.068 22.709l-.74 1.299-2.292-1.146-.53-.265-.487.337-3.211 2.228-23.827-38.83-2.62-4.269-.499-.813-.836.46-24.51 13.51-.847.468.44.862 1.972 3.87 39.197 76.9.037.073.049.066.805-.593-.805.594h.001l.001.002.004.005.012.016.043.057a18.643 18.643 0 0 0 .733.888 17.625 17.625 0 0 0 2.004 1.956c.813.667 1.796 1.319 2.859 1.668 1.083.355 2.305.409 3.476-.227.313-.17.702-.47 1.117-.818.432-.364.952-.831 1.54-1.383 1.179-1.104 2.664-2.57 4.34-4.267 3.352-3.396 7.493-7.743 11.521-12.026a1838.294 1838.294 0 0 0 13.739-14.783l-10.622 146.346-.088 1.21 1.204-.145-.119-.993.12.993h.002l.009-.001.034-.005.136-.016.527-.061a404.929 404.929 0 0 1 8.683-.892c5.384-.492 12.099-.988 17.495-1.018 5.728-.032 13.559-1.299 19.906-2.542a264.752 264.752 0 0 0 10.451-2.273l.276-.067.375-.091.17-.042.043-.011.011-.003.003-.001h.001l-.242-.97.243.97.737-.184.02-.761 5.157-203.33 2.308-10.133.35-1.535-1.538.336-9.005 1.968-26.851-2.188h-.01l-.01-.001-.061.998Z" fill="#B691E3" stroke="#274430" stroke-width="2"/>
        <path fill-rule="evenodd" clip-rule="evenodd" d="M153.264 305.692c4.251-7.47 27.535-48.278 29.506-49.422 1.287-.748 5.471-.83 8.661-.773-2.417.051-4.755.247-5.661.773-2.17 1.26-30.17 50.59-30.17 50.59l-2.336-1.168Zm-10.418 56.812c-3.453 1.805-7.806-4.104-7.806-4.104l-41.17-80.77 24.51-13.51.758 1.236L96.87 277.63l41.17 80.77s2.255 3.061 4.806 4.104Zm33.727-31.67c2.013-2.185 3.257-3.544 3.257-3.544l-10.805 148.869c-1.882.203-3.025.341-3.025.341l10.573-145.666Z" fill="#fff" fill-opacity=".3"/>
        <path d="m177.14 323.56 1.95-19.4-14.55 37 12.29-12.88.31-4.72Z" fill="#565656" fill-opacity=".3"/>
        <path d="M175.57 309.24a.504.504 0 0 1-.49-.43c-.32-2.19-2.43-31.77-2.52-33a.509.509 0 0 1 .122-.364.501.501 0 0 1 .878.294c0 .31 2.2 30.8 2.51 33a.499.499 0 0 1-.43.56l-.07-.06ZM173.06 320.55a.498.498 0 0 1-.5-.42l-3.45-22a.488.488 0 0 1 .227-.504.512.512 0 0 1 .763.354l3.45 22a.487.487 0 0 1-.085.372.484.484 0 0 1-.325.198h-.08ZM136.92 328.09a.432.432 0 0 1-.22 0 .5.5 0 0 1-.23-.66l8.17-17a.498.498 0 0 1 .681-.268.488.488 0 0 1 .262.301c.02.066.027.135.02.203a.515.515 0 0 1-.063.194l-8.17 17a.486.486 0 0 1-.45.23ZM145.72 322.75a.54.54 0 0 1-.22-.05.509.509 0 0 1-.23-.67l6.6-13.2a.502.502 0 0 1 .288-.252.478.478 0 0 1 .382.032.515.515 0 0 1 .156.118.513.513 0 0 1 .124.363.496.496 0 0 1-.05.189l-6.6 13.19a.495.495 0 0 1-.45.28ZM218.94 364.54a.479.479 0 0 1-.47-.33c-4.83-13.51-8.47-34.44-10.68-49.63a.5.5 0 0 1 .42-.56.51.51 0 0 1 .57.42c2.2 15.14 5.83 36 10.63 49.44a.486.486 0 0 1-.141.534.482.482 0 0 1-.169.096.437.437 0 0 1-.16.03ZM207.3 307.9a.517.517 0 0 1-.329-.123.515.515 0 0 1-.171-.307c-.6-4.56-.93-7.45-.93-7.47a.51.51 0 0 1 .23-.48l11.48-7.47-14.12-2.3a.494.494 0 0 1-.411-.582.503.503 0 0 1 .111-.238s3.16-3.8 6.25-8.44 13.09-20 13.19-20.1a.508.508 0 0 1 .7-.15.497.497 0 0 1 .14.69c-.1.16-10.09 15.46-13.2 20.12-2.35 3.52-4.72 6.55-5.77 7.85l14.53 2.38a.504.504 0 0 1 .41.39.506.506 0 0 1-.22.52l-12.31 8c.1.85.4 3.45.89 7.15a.499.499 0 0 1-.43.56h-.04Z" fill="#274430"/>
        <path d="m452.93 238.9.083-.997h-.007l-.023-.002-.091-.008-.345-.03a224.33 224.33 0 0 1-5.07-.497 90.802 90.802 0 0 1-3.968-.509 19.754 19.754 0 0 1-1.386-.257 4.19 4.19 0 0 1-.444-.127 2.326 2.326 0 0 0-.509-.244 7.855 7.855 0 0 0-.614-.187 30.296 30.296 0 0 0-1.695-.389c-1.315-.27-2.974-.564-4.594-.834a293.549 293.549 0 0 0-3.109-.502l.877-.412.005-.002-.43-.903c.43.903.431.902.431.902l.002-.001.004-.002.014-.006.047-.023.169-.086a19.876 19.876 0 0 0 2.472-1.536c1.403-1.024 3.123-2.579 3.909-4.547.779-1.947.455-3.73-.851-4.603-1.286-.858-2.986-.449-4.036.897-.271.348-.795.75-1.58 1.183-.767.422-1.7.828-2.703 1.217a81.224 81.224 0 0 1-3.309 1.183c-.886.304-1.729.592-2.419.859-1.355.524-2.668.74-4.169.907-.374.041-.762.08-1.166.12-1.195.119-2.524.251-3.999.511-4.232.746-7.819 3.719-11.285 8.324-1.762 2.34-4.351 7.007-6.469 11.018a329.963 329.963 0 0 0-3.539 6.904l-.222.449-.058.118-.015.03-.004.008-.001.002v.001l.897.441-.898-.441-.404.823.785.474 13.16 7.94.947.571.473-.998 6.035-12.717.209.028c.602.081 1.468.19 2.528.31 2.119.24 5.018.519 8.134.676 3.113.158 6.464.195 9.481-.055 2.981-.247 5.774-.783 7.674-1.861 3.563-2.023 6.55-5.2 8.625-7.822a46.023 46.023 0 0 0 2.436-3.38 35.698 35.698 0 0 0 .822-1.317l.018-.03.027-.047.012-.021.004-.006.001-.002-.869-.495Zm0 0 .083-.997 1.56.131-.774 1.36-.869-.494Z" fill="#fff" stroke="#274430" stroke-width="2"/>
        <path d="m457.855 237.66.27-.575-.905-.425.905.425.001-.001.002-.005.008-.017.03-.064.112-.243a87.753 87.753 0 0 0 1.582-3.645c.424-1.042.846-2.154 1.146-3.118.149-.482.274-.944.352-1.354.072-.38.127-.824.056-1.215a1.875 1.875 0 0 0-1.38-1.522c-.616-.171-1.282-.066-1.854.137-1.154.409-2.4 1.384-3.036 2.75-.479 1.026-1.575 2.834-2.587 4.434-.499.789-.966 1.51-1.309 2.035l-.409.621-.112.169-.029.044-.007.011-.002.002-.001.001.832.555-.832-.555-1.037 1.555h8.204Z" fill="#fff" stroke="#274430" stroke-width="2"/>
        <path d="M457.22 237.16h-5.7a.527.527 0 0 1-.256-.076.535.535 0 0 1-.184-.194.47.47 0 0 1 0-.51s3.49-5.25 4.49-7.39a4.52 4.52 0 0 1 4-2.66 1.39 1.39 0 0 1 1.27 1.18c.31 1.68-2.65 8.09-3.25 9.36a.498.498 0 0 1-.15.19.502.502 0 0 1-.22.1Zm-4.77-1h4.45c1.33-2.86 3.22-7.45 3-8.47 0-.17-.1-.33-.42-.37a3.592 3.592 0 0 0-3 2.1 77.73 77.73 0 0 1-4.03 6.74Z" fill="#274430"/>
        <path d="m443.47 251.26.034 1v-.001h.027l.068-.003.252-.014a29.983 29.983 0 0 0 3.9-.518c2.309-.464 5.248-1.357 7.267-3.121 1.012-.884 2.093-2.294 3.123-3.839 1.042-1.562 2.077-3.332 2.991-4.99a123.094 123.094 0 0 0 3.139-6.103l.047-.1.013-.026.003-.007.001-.002-.905-.426.905.426.139-.295-.062-.319c-.158-.829-.434-1.539-.886-2.058a2.36 2.36 0 0 0-1.791-.835c-.634-.008-1.252.211-1.802.502-.559.297-1.119.706-1.656 1.168-2.123 1.826-4.293 4.823-5.248 6.609-.408.761-1.235 1.903-2.299 3.232a114.72 114.72 0 0 1-3.471 4.093 210.648 210.648 0 0 1-4.144 4.546l-.275.292-.071.075-.018.019-.005.005-.001.001v.001l.725.688Zm0 0 .033 1-2.437.08 1.679-1.768.725.688Z" fill="#fff" stroke="#274430" stroke-width="2"/>
        <path d="M443.47 251.76a.505.505 0 0 1-.36-.85c.09-.09 8.6-9.06 10.36-12.36 1.35-2.53 5.72-8.44 8.54-8 1 .15 1.63 1 1.91 2.47.03.098.03.202 0 .3-.23.48-5.53 11.7-9.2 14.91-3.67 3.21-10.9 3.52-11.2 3.53h-.05Zm18.21-20.23c-2 0-5.91 4.83-7.33 7.49s-7.37 9.22-9.63 11.64c2.2-.22 6.75-.94 9.31-3.18 3.29-2.88 8.23-13.07 8.88-14.43-.2-.93-.56-1.43-1.05-1.51l-.18-.01Z" fill="#274430"/>
        <path d="m439.09 252.28.031 1v-.001h.027l.068-.003.252-.013a29.73 29.73 0 0 0 3.901-.51c2.31-.46 5.25-1.351 7.27-3.121 1.011-.886 2.092-2.298 3.122-3.844 1.041-1.564 2.077-3.335 2.991-4.993a123.91 123.91 0 0 0 2.957-5.727l.182-.377.047-.1.012-.026.004-.007v-.002h.001l-.905-.426.905.425.138-.294-.061-.319c-.159-.828-.435-1.537-.887-2.056a2.361 2.361 0 0 0-1.79-.834c-.634-.009-1.252.21-1.802.501-.559.296-1.119.704-1.656 1.166-2.123 1.823-4.293 4.818-5.249 6.61-.408.763-1.235 1.906-2.298 3.235a113.009 113.009 0 0 1-3.472 4.092 201.777 201.777 0 0 1-4.143 4.543l-.275.291-.071.076-.018.019-.005.005-.001.001.725.689Zm0 0 .03 1-2.43.073 1.675-1.762.725.689Z" fill="#fff" stroke="#274430" stroke-width="2"/>
        <path d="M439.09 252.78a.505.505 0 0 1-.45-.3.473.473 0 0 1 .09-.54c.09-.1 8.59-9.07 10.35-12.37 1.35-2.53 5.7-8.43 8.54-8 1 .15 1.64 1 1.92 2.46a.484.484 0 0 1 0 .31c-.22.47-5.53 11.7-9.19 14.9-3.66 3.2-10.9 3.52-11.2 3.53l-.06.01Zm18.21-20.23c-2.05 0-5.92 4.83-7.33 7.49-1.5 2.81-7.37 9.22-9.63 11.64 2.2-.22 6.75-.94 9.31-3.18 3.29-2.88 8.23-13.07 8.88-14.43-.2-.92-.56-1.43-1.06-1.5l-.17-.02Z" fill="#274430"/>
        <mask id="c" maskUnits="userSpaceOnUse" x="407.83" y="229.72" width="49" height="27" fill="#000">
            <path fill="#fff" d="M407.83 229.72h49v27h-49z"/>
            <path d="M409.83 245.93s1.14-1.82 5-4.31c3.86-2.49 24.27 3.85 24.27 3.85s9.3-11.56 10.66-12.7c1.36-1.14 3.86-1.81 4.31.46.45 2.27-5.67 12-7.26 13.61-1.59 1.61-7.71 5.44-7.71 5.44a33.443 33.443 0 0 1-11.57 1.81 84.915 84.915 0 0 1-14.28-2.26"/>
        </mask>
        <path d="M409.83 245.93s1.14-1.82 5-4.31c3.86-2.49 24.27 3.85 24.27 3.85s9.3-11.56 10.66-12.7c1.36-1.14 3.86-1.81 4.31.46.45 2.27-5.67 12-7.26 13.61-1.59 1.61-7.71 5.44-7.71 5.44a33.443 33.443 0 0 1-11.57 1.81 84.915 84.915 0 0 1-14.28-2.26" fill="#fff"/>
        <path d="m439.1 245.47-.593 1.91 1.299.404.852-1.06-1.558-1.254Zm0 6.81.651 1.891.216-.074.194-.122-1.061-1.695Zm-11.57 1.81-.143 1.995.05.004.051.001.042-2Zm-17.7-8.16c1.695 1.062 1.695 1.062 1.694 1.063l-.001.002-.002.002-.003.005-.005.008-.005.008.01-.015c.017-.023.054-.074.114-.149.12-.15.332-.399.664-.73.661-.661 1.8-1.65 3.618-2.823l-2.168-3.362c-2.042 1.317-3.403 2.483-4.276 3.354-.437.436-.75.797-.965 1.066a7.03 7.03 0 0 0-.25.332c-.031.042-.055.079-.075.109a.876.876 0 0 0-.026.039l-.01.016-.005.007-.002.003-.001.002c0 .001-.001.001 1.694 1.063Zm6.084-2.629c-.003.002.017-.012.071-.033.054-.022.132-.048.239-.075.217-.054.513-.1.897-.127.771-.054 1.762-.021 2.932.095 2.334.232 5.154.77 7.915 1.4 2.749.627 5.387 1.333 7.341 1.883a157.638 157.638 0 0 1 2.978.869l.166.05.041.013a.033.033 0 0 0 .01.003.003.003 0 0 0 .002.001h.001l.593-1.91.593-1.91h-.001l-.004-.001a.055.055 0 0 0-.012-.004l-.046-.015-.177-.054a170.178 170.178 0 0 0-3.06-.893c-1.994-.561-4.7-1.285-7.536-1.932-2.824-.644-5.83-1.224-8.408-1.48-1.287-.128-2.524-.181-3.608-.106-1.022.072-2.179.273-3.095.864l2.168 3.362Zm23.186 2.169 1.558 1.254.001-.001.001-.001a.027.027 0 0 1 .005-.006l.02-.025.077-.096.297-.368c.256-.317.623-.772 1.069-1.321.891-1.1 2.093-2.576 3.337-4.088a311.672 311.672 0 0 1 3.576-4.283 79.67 79.67 0 0 1 1.354-1.551c.184-.202.336-.367.457-.491.06-.062.108-.11.145-.145.038-.037.053-.049.048-.045l-2.57-3.066c-.293.246-.677.656-1.047 1.065a83.115 83.115 0 0 0-1.428 1.634 317.016 317.016 0 0 0-3.624 4.341 766.513 766.513 0 0 0-3.355 4.109c-.448.552-.817 1.01-1.075 1.329l-.298.37-.079.098-.02.025-.005.006-.002.002 1.558 1.254Zm11.945-11.167c.191-.16.437-.315.695-.426a1.71 1.71 0 0 1 .578-.157c.105-.003.019.024-.118-.078-.156-.117-.129-.213-.092-.023l3.924-.778c-.187-.945-.642-1.808-1.436-2.402-.775-.58-1.655-.74-2.401-.717-1.419.044-2.799.744-3.72 1.515l2.57 3.066Zm1.063-.684c-.035-.179.02-.145-.09.275-.093.356-.262.83-.509 1.41-.492 1.156-1.222 2.559-2.039 3.984a66.813 66.813 0 0 1-2.451 3.949c-.797 1.185-1.383 1.946-1.632 2.198l2.846 2.81c.546-.553 1.322-1.612 2.105-2.775a70.944 70.944 0 0 0 2.602-4.193c.856-1.493 1.671-3.048 2.249-4.405.288-.677.537-1.348.698-1.965.145-.552.293-1.319.145-2.066l-3.924.778Zm-6.721 11.816c-.623.631-2.359 1.873-4.142 3.067-.85.57-1.653 1.092-2.244 1.471-.295.19-.537.343-.704.449l-.193.122-.049.031-.012.007a.012.012 0 0 0-.003.002l-.001.001 1.061 1.695 1.061 1.695h.001l.001-.001.004-.002.014-.009.053-.034.202-.127.726-.462c.606-.389 1.432-.926 2.31-1.515 1.675-1.123 3.794-2.601 4.761-3.58l-2.846-2.81Zm-6.937 4.954a31.41 31.41 0 0 1-10.878 1.701l-.084 4c4.169.087 8.32-.563 12.263-1.919l-1.301-3.782Zm-10.776 1.706a82.874 82.874 0 0 1-13.944-2.207l-.959 3.884a87.11 87.11 0 0 0 14.616 2.313l.287-3.99Z" fill="#274430" mask="url(#c)"/>
        <path d="m384.94 268.648-.551.974 1.03.438 22.94 9.75.932.396.384-.936 5.03-12.26.326-.794-.735-.442-19.8-11.94-.88-.531-.506.895-8.17 14.45Z" fill="#fff" stroke="#274430" stroke-width="2"/>
        <path d="M331.698 330.063a1838.294 1838.294 0 0 0 13.746 14.792c4.028 4.283 8.169 8.63 11.522 12.026 1.675 1.697 3.16 3.163 4.339 4.267a39.71 39.71 0 0 0 1.541 1.383c.415.348.804.648 1.117.818 1.17.636 2.393.582 3.476.227 1.064-.348 2.049-1.001 2.862-1.667a17.616 17.616 0 0 0 2.008-1.956 18.675 18.675 0 0 0 .735-.889l.043-.056.012-.016.004-.005.001-.002v-.001l-.804-.594.805.594.049-.066.037-.074 41.16-80.76.439-.862-.846-.467-24.46-13.51-.836-.462-.5.814-26.447 43.1-3.222-2.229-.486-.337-.53.265-2.292 1.146-.739-1.299c-.77-1.352-1.873-3.284-3.203-5.607a2722.537 2722.537 0 0 0-9.866-17.102c-3.636-6.246-7.344-12.538-10.28-17.349-1.467-2.404-2.746-4.447-3.73-5.932a37.052 37.052 0 0 0-1.258-1.809 9.18 9.18 0 0 0-.472-.585c-.12-.133-.303-.328-.521-.454-.41-.238-.935-.392-1.459-.502a16.48 16.48 0 0 0-1.83-.259c-1.325-.122-2.863-.161-4.311-.161a100.406 100.406 0 0 0-5.41.152l-.09.005-.024.001-.006.001h-.002l.06.998-.06-.998-.011.001h-.01l-26.86 2.189-9.863-1.973-1.644-.328.492 1.602 3.106 10.118 12.822 199.813.065 1.018 1.017-.086h.007l.023-.002.095-.008.367-.028a152.42 152.42 0 0 1 6.02-.317c3.72-.119 8.277-.116 11.772.35 6.617.883 14.395 3.592 20.565 6.11a163.937 163.937 0 0 1 9.826 4.397 92.716 92.716 0 0 1 .737.368l.037.019.009.004.003.001 1.576.806-.123-1.766-10.3-146.867Z" fill="#B691E3" stroke="#274430" stroke-width="2"/>
        <path fill-rule="evenodd" clip-rule="evenodd" d="M330.748 330.814 341 477s-1.158-.592-3.106-1.504L327.5 327.28s1.24 1.355 3.248 3.534Zm33.737 31.68c-1.009.412-2.065.508-3.045-.024-2.762-1.501-22.744-23.032-30.692-31.656l-.248-3.534s30.48 33.31 33.94 35.19l.045.024Zm23.756-97.137.759-1.237 24.46 13.51-41.16 80.76s-4.362 5.908-7.815 4.104c2.555-1.042 4.815-4.104 4.815-4.104l41.16-80.76-22.219-12.273Zm-28.347 41.306L386 264.12l2.241 1.237L362 308.12l-2.106-1.457Zm-3.726-.502 1.742-.871 1.984 1.373-.894 1.457-2.832-1.959Zm-2.062-.469.804-.402 1.258.871-1.398.699-.664-1.168Zm-38.167-50.195c3.19-.057 7.374.025 8.661.773 1.971 1.144 25.255 41.952 29.506 49.422l-2.336 1.168s-28-49.33-30.17-50.59c-.905-.526-3.243-.723-5.661-.773Z" fill="#565656" fill-opacity=".3"/>
        <path d="M271 266.07 283.83 466s5.336-.098 7.157-.2L278.17 266.07 276 259l-5.5 3.5.5 3.57ZM327.5 327.28l-.38-15.33 12.13 27.3-11.75-11.97Z" fill="#565656" fill-opacity=".3"/>
        <path d="M330.19 323.06a.503.503 0 0 1-.5-.46l-2.83-41.48a.509.509 0 0 1 .276-.484.516.516 0 0 1 .383-.026.488.488 0 0 1 .29.251.497.497 0 0 1 .051.189l2.83 41.48a.512.512 0 0 1-.125.363.503.503 0 0 1-.345.167h-.03ZM331.76 309.24h-.07a.498.498 0 0 1-.42-.56c.3-2.16 1.81-19.56 1.82-19.73a.53.53 0 0 1 .55-.46.502.502 0 0 1 .45.54c-.06.72-1.52 17.6-1.83 19.79a.512.512 0 0 1-.5.42ZM334.28 320.55h-.08a.496.496 0 0 1-.332-.195.494.494 0 0 1-.088-.375l3.46-22a.513.513 0 0 1 .2-.332.511.511 0 0 1 .375-.093.495.495 0 0 1 .332.199.516.516 0 0 1 .093.376l-3.46 22a.484.484 0 0 1-.17.305.484.484 0 0 1-.33.115ZM363.83 320.22a.508.508 0 0 1-.49-.42l-1.59-9.09a.514.514 0 0 1 .415-.585.508.508 0 0 1 .585.415l1.6 9.09a.51.51 0 0 1-.41.58l-.11.01ZM354.91 315.76a.516.516 0 0 1-.49-.51l.1-6.21a.548.548 0 0 1 .51-.49.505.505 0 0 1 .456.318.502.502 0 0 1 .034.192l-.1 6.2a.498.498 0 0 1-.51.5ZM288.4 364.54a.327.327 0 0 1-.17 0 .498.498 0 0 1-.31-.63c.76-2.12 1.52-4.52 2.26-7.14a.513.513 0 0 1 .433-.378.51.51 0 0 1 .383.103.51.51 0 0 1 .198.343.529.529 0 0 1-.014.202c-.75 2.64-1.52 5.07-2.28 7.2a.498.498 0 0 1-.5.3ZM292 352.59h-.13a.497.497 0 0 1-.36-.6c5.32-21 8.6-48.57 9-51.78l-12.31-8a.494.494 0 0 1-.21-.52.481.481 0 0 1 .4-.39l14.55-2.38c-1-1.3-3.42-4.33-5.77-7.85-3.11-4.66-13.1-20-13.2-20.12a.5.5 0 0 1 .84-.54c.1.15 10.09 15.45 13.19 20.1 3.1 4.65 6.23 8.41 6.26 8.44a.533.533 0 0 1 .08.5.485.485 0 0 1-.39.32l-14.12 2.3 11.49 7.47a.504.504 0 0 1 .22.48c0 .29-3.38 29.9-9 52.21a.498.498 0 0 1-.54.36Z" fill="#274430"/>
        <path d="m234 235.807.405-.914-1.411-.625.006 1.543.079 21.336.002.522.429.297 21.501 14.857.609.42.58-.459 17.421-13.798.412-.327-.035-.524-1.608-24.201-.121-1.829-1.472 1.092.595.803-.595-.803h-.001l-.002.001-.007.006-.028.021-.113.083-.429.317a449.424 449.424 0 0 1-6.358 4.604 184.527 184.527 0 0 1-5.127 3.536c-.75.494-1.405.907-1.921 1.206a9.716 9.716 0 0 1-.638.348 2.69 2.69 0 0 1-.215.096 1.817 1.817 0 0 1-.182-.024 8.668 8.668 0 0 1-.819-.199 40.305 40.305 0 0 1-2.68-.895c-2.139-.778-4.836-1.859-7.489-2.958a511.96 511.96 0 0 1-9.508-4.061l-.648-.285-.169-.075-.044-.019-.011-.005-.002-.001h-.001l-.405.914Z" fill="#fff" stroke="#274430" stroke-width="2"/>
        <path d="m231.54 253.44 23.37-5.79-23.62-9.64.25 15.43Z" fill="#565656" fill-opacity=".3"/>
        <path d="M274 209.42s-.23-9.74 2.49-15.18a12.78 12.78 0 0 0 0-11.33L279 182a43.242 43.242 0 0 0-4.3-3.17c-.68-.23.45-6.34-1.59-9.52-2.04-3.18-4.08-3.85-4.08-3.85l-1.13 4.08s-6.12-7.25-9.52-8.61c-3.4-1.36-13.13-7.93-13.38-4.53-.25 3.4 1.14 4.76 1.14 4.76s-6.8-3.86-12-2.5c-5.2 1.36-10.2 4.54-9.07 5.67 1.13 1.13 6.12 5.89 6.12 5.89s-11.55.45-12.91 1.81a10.003 10.003 0 0 0-2 3.63l6.57 3.4s-5.89-.46-8.16 3.17c-2.27 3.63-2.72 5-1.13 5.66a38.18 38.18 0 0 1 4.53 2.72s-1.59 2.72.23 7.25c1.82 4.53 6.11 14.51 6.11 14.51s1.59-16.32 2.72-19.49c1.13-3.17 15.19-10.65 17.22-11.33 2.03-.68 16.32 3.17 17.23 3.17.91 0 6.79 22.89 8.15 23.79 1.36.9 4.25.91 4.25.91Z" fill="#274430"/>
        <path fill-rule="evenodd" clip-rule="evenodd" d="m273.997 209.247.003.173s-2.89-.01-4.25-.91c-.711-.47-2.655-6.944-4.48-13.019-1.668-5.552-3.235-10.771-3.67-10.771-.273 0-1.756-.348-3.75-.816-3.51-.823-8.606-2.019-11.497-2.348a.325.325 0 0 1 .017-.006c1.42-.476 8.838 1.265 13.48 2.354 1.994.468 3.477.816 3.75.816.435 0 2.002 5.219 3.67 10.771 1.825 6.075 3.769 12.549 4.48 13.019.584.386 1.449.609 2.247.737Zm-3.263-42.716.296-1.071s2.04.67 4.08 3.85c1.291 2.013 1.313 5.2 1.327 7.327.008 1.232.014 2.109.263 2.193A43.242 43.242 0 0 1 281 182l-2.51.91a12.78 12.78 0 0 1 0 11.33c-2.72 5.44-2.49 15.18-2.49 15.18s-.941-.003-2.003-.173c-.015-1.33-.013-9.994 2.493-15.007a12.78 12.78 0 0 0 0-11.33L279 182a43.242 43.242 0 0 0-4.3-3.17c-.249-.084-.255-.961-.263-2.193-.014-2.127-.036-5.314-1.327-7.327-.84-1.309-1.679-2.192-2.376-2.779Zm-2.357 1.286.653-2.357s.706.232 1.704 1.071l-.834 3.009s-.597-.708-1.523-1.723Zm-20.988-12.186c1.312-.893 5.646 1.452 9.175 3.363 1.525.825 2.9 1.57 3.816 1.936 2.338.935 5.961 4.654 7.997 6.887l-.477 1.723s-6.12-7.25-9.52-8.61c-.916-.366-2.291-1.111-3.816-1.936-2.426-1.313-5.231-2.832-7.175-3.363Zm-1.979 4.256c-.288-.767-.526-1.907-.41-3.487.076-1.028 1.018-1.145 2.389-.769-.226.154-.362.404-.389.769-.25 3.4 1.14 4.76 1.14 4.76s-1.09-.618-2.73-1.273Zm-7.826-1.475c2.76-.249 5.739.642 7.826 1.475.332.883.73 1.273.73 1.273s-4.222-2.397-8.556-2.748Zm-12.764 50.195c.543-5.02 1.547-13.53 2.33-15.727 1.13-3.17 15.19-10.65 17.22-11.33.346-.116 1.05-.1 1.983.006-2.092.716-16.076 8.163-17.203 11.324-1.13 3.17-2.72 19.49-2.72 19.49s-.678-1.578-1.61-3.763Zm0 0c-.24 2.224-.39 3.763-.39 3.763s-4.29-9.98-6.11-14.51c-1.82-4.53-.23-7.25-.23-7.25a38.18 38.18 0 0 0-4.53-2.72c-1.59-.66-1.14-2.03 1.13-5.66 2.27-3.63 8.16-3.17 8.16-3.17l-6.57-3.4a10.003 10.003 0 0 1 2-3.63c1.36-1.36 12.91-1.81 12.91-1.81s-4.99-4.76-6.12-5.89 3.87-4.31 9.07-5.67c1.103-.288 2.277-.342 3.444-.248a8.93 8.93 0 0 0-1.444.248c-5.2 1.36-10.2 4.54-9.07 5.67 1.13 1.13 6.12 5.89 6.12 5.89s-11.55.45-12.91 1.81a10.003 10.003 0 0 0-2 3.63l6.57 3.4s-5.89-.46-8.16 3.17c-2.27 3.63-2.72 5-1.13 5.66a38.18 38.18 0 0 1 4.53 2.72s-1.59 2.72.23 7.25c1.096 2.729 3.089 7.436 4.5 10.747Z" fill="#fff" fill-opacity=".3"/>
        <path d="M224.4 212.87a.497.497 0 0 1-.45-.31c0-.1-4.33-10-6.13-14.51-1.49-3.72-.78-6.29-.39-7.26a33.612 33.612 0 0 0-4.1-2.44 1.874 1.874 0 0 1-1.16-1.14c-.34-1.09.43-2.62 2.07-5.25 1.54-2.47 4.57-3.18 6.6-3.36l-4.84-2.5a.482.482 0 0 1-.25-.58 10.403 10.403 0 0 1 2.16-3.84c1.24-1.24 8.8-1.74 12.08-1.91-1.47-1.41-4.44-4.25-5.28-5.09a.998.998 0 0 1-.26-1.06c.49-1.81 5.45-4.37 9.55-5.44 3.92-1 8.6.74 10.93 1.81a9.017 9.017 0 0 1-.43-3.62 1.417 1.417 0 0 1 .72-1.22c1.51-.83 4.92.88 9.57 3.4 1.48.8 2.88 1.56 3.77 1.92 2.87 1.14 7.44 6.15 9.1 8l.88-3.18a.529.529 0 0 1 .25-.31.455.455 0 0 1 .39 0c.09 0 2.23.77 4.34 4 1.37 2.13 1.39 5.42 1.4 7.6-.014.594.013 1.189.08 1.78a44.742 44.742 0 0 1 4.31 3.19.527.527 0 0 1 .154.216c.031.084.04.175.026.264a.51.51 0 0 1-.33.38l-2 .72a13.13 13.13 0 0 1-.24 11.27c-2.63 5.27-2.44 14.85-2.44 14.95a.507.507 0 0 1-.15.36.469.469 0 0 1-.35.15c-.13 0-3.12 0-4.58-1-.74-.49-1.82-3.75-4.69-13.3-1.29-4.27-2.87-9.54-3.41-10.43-.46-.06-1.47-.3-3.63-.8-3.87-.91-11.92-2.81-13.22-2.38-2.12.71-15.88 8.14-16.91 11-1.09 3.08-2.67 19.2-2.69 19.36a.497.497 0 0 1-.42.45l-.03.11Zm-2.18-33.33c-1.48 0-5.45.26-7.14 3-1.33 2.14-2.18 3.71-2 4.42 0 .13.15.33.61.53 1.6.81 3.141 1.732 4.61 2.76a.496.496 0 0 1 .15.67s-1.43 2.59.26 6.81c1.33 3.32 4 9.64 5.35 12.72.46-4.44 1.64-15.12 2.55-17.69 1.27-3.55 15.88-11.08 17.54-11.63 1.44-.49 7.33.83 13.75 2.34 1.73.41 3.37.79 3.63.8.66 0 .91.38 4.14 11.12 1.55 5.13 3.66 12.14 4.31 12.77a8.28 8.28 0 0 0 3.5.8c0-2.13.14-10.07 2.55-14.89a12.38 12.38 0 0 0 0-10.87.507.507 0 0 1-.028-.417.501.501 0 0 1 .298-.293l1.66-.6a31.053 31.053 0 0 0-3.46-2.54c-.59-.19-.59-.91-.61-2.66 0-2.06 0-5.17-1.24-7.06a10.133 10.133 0 0 0-3.34-3.41l-1 3.5a.496.496 0 0 1-.37.36.51.51 0 0 1-.49-.17c-.06-.07-6.08-7.17-9.32-8.47a42.935 42.935 0 0 1-3.88-2c-3-1.61-7.46-4-8.61-3.41-.05 0-.18.1-.2.41-.2 3.09 1 4.36 1 4.38a.488.488 0 0 1 0 .65.497.497 0 0 1-.64.13c-.06 0-6.68-3.73-11.64-2.44-4.64 1.21-8.56 3.71-8.84 4.74 1.12 1.2 6.07 5.92 6.12 6a.493.493 0 0 1 .12.539.498.498 0 0 1-.45.321c-4.72.18-11.74.82-12.58 1.67a8.911 8.911 0 0 0-1.78 3l6.19 3.2a.507.507 0 0 1 .25.58.517.517 0 0 1-.52.37s-.11-.04-.45-.04Z" fill="#274430"/>
        <path d="m236.234 174.976-.167.075-.13.128.703.711-.703-.711-.003.003-.008.008-.033.033-.128.126c-.112.112-.276.274-.484.483a336.342 336.342 0 0 0-6.987 7.177c-1.916 2.032-3.852 4.154-5.328 5.927-.736.885-1.371 1.7-1.835 2.382a9.217 9.217 0 0 0-.581.961c-.139.274-.283.612-.315.957-.025.258-.001.643.035 1.048.039.437.102.993.185 1.647.167 1.31.417 3.041.723 5.044.613 4.01 1.456 9.137 2.319 14.227.863 5.091 1.747 10.148 2.442 14.018.347 1.935.648 3.575.875 4.775.114.6.21 1.093.285 1.459.068.338.131.63.178.777.061.193.162.346.231.442.078.106.167.208.257.302.179.187.408.394.667.611a33.19 33.19 0 0 0 2.065 1.558c1.672 1.182 3.902 2.632 6.267 4.072 2.366 1.439 4.882 2.875 7.127 4.026 2.215 1.135 4.257 2.04 5.638 2.353 2.64.599 5.323.536 7.519.18a17.11 17.11 0 0 0 2.917-.724c.799-.284 1.51-.628 1.984-1.022.118-.098.418-.304.928-.641l.663-.435c.357-.233.76-.497 1.183-.777 1.452-.961 3.286-2.207 5.125-3.616 1.836-1.405 3.699-2.99 5.2-4.631 1.481-1.62 2.701-3.393 3.099-5.182.204-.918.207-2.369.102-4.092-.107-1.761-.336-3.923-.649-6.331-.627-4.818-1.601-10.671-2.646-16.372a503.733 503.733 0 0 0-3.087-15.501 179.1 179.1 0 0 0-1.203-5.229 39.245 39.245 0 0 0-.434-1.619 9.311 9.311 0 0 0-.174-.54 2.4 2.4 0 0 0-.211-.458c-.168-.266-.443-.492-.658-.655a11.273 11.273 0 0 0-.927-.616 35.888 35.888 0 0 0-2.867-1.531c-2.322-1.128-5.422-2.428-8.813-3.534-3.387-1.105-7.093-2.026-10.621-2.379-3.512-.351-6.948-.15-9.725 1.086Z" fill="#fff" stroke="#274430" stroke-width="2"/>
        <path fill-rule="evenodd" clip-rule="evenodd" d="M251.711 248.942c4.321.455 8.417-.7 9.599-1.682.24-.199.847-.596 1.69-1.149 3.939-2.578 13.05-8.541 14.17-13.581 1.36-6.12-7.17-47.81-8.17-49.39-.87-1.375-17.016-9.29-27.912-8.323 10.459.793 23.144 7.108 23.912 8.323 1 1.58 9.53 43.27 8.17 49.39-1.12 5.04-10.231 11.003-14.17 13.581-.843.553-1.45.95-1.69 1.149-.802.667-2.95 1.414-5.599 1.682Z" fill="#565656" fill-opacity=".3"/>
        <path d="M253.72 249.54a18.627 18.627 0 0 1-4.05-.43c-4.75-1.08-21.32-11.31-21.89-13-.62-1.86-7.27-40.32-7.05-42.8.22-2.48 13-15.24 15.56-17.76a.4.4 0 0 1 .15-.1c10.08-4.48 31.85 5.38 33 7.46.94 1.64 9.6 43.47 8.21 49.75-1.16 5.23-10.42 11.29-14.37 13.88-.81.53-1.44.94-1.66 1.13-1.13.95-4.35 1.87-7.9 1.87Zm-16.79-73.23c-5.83 5.74-15.05 15.39-15.2 17.07-.2 2.25 6.43 40.69 7 42.39.7 1.32 16.16 11.23 21.16 12.36 5 1.13 9.92-.24 11.13-1.25.26-.22.85-.61 1.75-1.2 3.85-2.52 12.87-8.42 13.94-13.26 1.31-5.88-7.2-47.34-8.1-49-.84-1.29-21.61-11.42-31.68-7.11Z" fill="#274430"/>
        <path d="M236.64 175.89s5.26 2.6 7.43 3.57c2.17.97 4.57-2.41 4.57-2.41s18.63 6.39 20.4 6.09c1.77-.3-5-7.3-12-9.95-7-2.65-20.36-2.32-20.4 2.7Z" fill="#274430"/>
        <path d="M268.94 183.64c-2.41 0-16.44-4.74-20.12-6-.7.86-2.84 3.21-5 2.28-2.16-.93-7.39-3.56-7.44-3.59a.495.495 0 0 1-.28-.45 3.5 3.5 0 0 1 1.73-2.9c4-2.71 13.85-2.36 19.39-.25 6.14 2.33 12.74 8.36 12.56 10.17a.802.802 0 0 1-.69.73l-.15.01Zm-20.3-7.09a.539.539 0 0 1 .17 0c6.91 2.37 18.16 6 20 6.07-.42-1.37-5.82-6.68-11.9-9-5.28-2-14.84-2.33-18.46.15a2.673 2.673 0 0 0-1.28 1.78c1.15.56 5.27 2.6 7.11 3.41 1.47.65 3.36-1.4 4-2.24a.48.48 0 0 1 .36-.17ZM250.54 218.78c-.13.011-.26.011-.39 0l-1.27-.21c-.899.147-1.809.22-2.72.22a2.78 2.78 0 0 1-2.53-2.19.507.507 0 0 1 .37-.6.498.498 0 0 1 .6.36c0 .06.39 1.44 1.56 1.44.878.003 1.755-.07 2.62-.22h.22l1.36.22c1.21.21 3.82-1.09 4-1.66.18-.57-1.13-6.36-2-10.55-1-4.92-1.64-8-1.64-8.59 0-1.48 2.76-4.51 3.31-5.1a.51.51 0 0 1 .71 0 .497.497 0 0 1 .109.547.486.486 0 0 1-.109.163c-1.26 1.35-3 3.62-3 4.42 0 .56.86 4.72 1.62 8.39 1.61 7.79 2.12 10.47 2 11-.36 1.08-3.22 2.36-4.82 2.36Z" fill="#274430"/>
        <path d="M255.57 216.79a5.545 5.545 0 0 1-.9-.08.504.504 0 0 1 .004-.984.497.497 0 0 1 .196.004 2.787 2.787 0 0 0 1.68-.15.55.55 0 0 0 .22-.35l.22-1.36a.512.512 0 0 1 .763-.344.474.474 0 0 1 .142.133.466.466 0 0 1 .08.177.47.47 0 0 1 .005.194l-.23 1.36a1.513 1.513 0 0 1-.63 1 2.77 2.77 0 0 1-1.55.4ZM248.87 218.53a.468.468 0 0 1-.28-.09 3.311 3.311 0 0 1-1.09-3.74.513.513 0 0 1 .442-.394.507.507 0 0 1 .508.304.503.503 0 0 1-.01.41 2.308 2.308 0 0 0 .73 2.61.499.499 0 0 1-.008.806.5.5 0 0 1-.292.094ZM244.8 232.35a.54.54 0 0 1-.34-.12.51.51 0 0 1 0-.71c.08-.09 7.81-8.61 16.65-5.12a.492.492 0 0 1 .275.267.5.5 0 0 1-.645.663c-8.19-3.23-15.46 4.77-15.53 4.86a.5.5 0 0 1-.41.16ZM229.16 201.13a.875.875 0 0 1-.35-.07.999.999 0 0 1-.58-1.28 14.498 14.498 0 0 1 5.14-6.37c3.82-2.55 10.44.47 10.72.6a1.018 1.018 0 0 1 .519.567 1.002 1.002 0 0 1-.266 1.084 1 1 0 0 1-1.103.169c-1.62-.76-6.37-2.36-8.76-.76a12.704 12.704 0 0 0-4.38 5.41 1 1 0 0 1-.94.65ZM268.82 196.83a.997.997 0 0 1-.89-.53A10.324 10.324 0 0 0 263 192a5.413 5.413 0 0 0-5.32.94 1.015 1.015 0 0 1-.725.261 1 1 0 0 1-.625-1.741 7.415 7.415 0 0 1 7.37-1.33 12.305 12.305 0 0 1 6 5.22 1.006 1.006 0 0 1 .078.765.992.992 0 0 1-.488.595 1 1 0 0 1-.47.12ZM239.25 206.93c.939 0 1.7-1.066 1.7-2.38 0-1.314-.761-2.38-1.7-2.38s-1.7 1.066-1.7 2.38c0 1.314.761 2.38 1.7 2.38ZM261.23 201.15c0 1.31-.77 2.38-1.7 2.38-.93 0-1.7-1.07-1.7-2.38 0-1.31.76-2.38 1.7-2.38s1.7 1.07 1.7 2.38Z" fill="#274430"/>
        <path d="m222.991 209.739-.032-.243-.141-.201-.818.575c.818-.575.818-.576.817-.576v-.001l-.001-.001-.004-.006-.012-.017-.043-.058a14.414 14.414 0 0 0-.707-.879c-.46-.526-1.121-1.209-1.88-1.742-.73-.512-1.724-1.01-2.795-.862-1.166.161-2.046 1.018-2.634 2.387-2.256 5.253.06 9.518 2.072 12.717 1.123 1.785 2.864 3.074 4.257 3.9.705.42 1.345.733 1.809.943a15.002 15.002 0 0 0 .714.3l.045.017.013.005.004.002h.002V226l.343-.94-.342.94 1.549.564-.216-1.634-2-15.191ZM276.48 202.4l-.995-.104-.001.012-.48 5.21-.013.144.028.142 1.84 9.29.648 3.27 1.259-3.086-.926-.378.926.378v-.001l.001-.003.005-.01.017-.043.068-.166.259-.63a594.548 594.548 0 0 1 3.723-8.88c1.148-2.674.779-5.036-.179-6.791-.922-1.69-2.429-2.878-3.67-3.185-.927-.229-1.654.199-2.115.726-.429.491-.707 1.137-.891 1.691a12.382 12.382 0 0 0-.491 2.248l-.005.043-.002.013v.005l-.001.001.995.104Z" fill="#fff" stroke="#274430" stroke-width="2"/>
    </g>
    <defs>
        <clipPath id="a">
            <path fill="#fff" d="M0 0h500v481H0z"/>
        </clipPath>
    </defs>
</svg>
