<svg width="500" height="481" viewBox="0 0 500 481" fill="none"
    xmlns="http://www.w3.org/2000/svg">
    <g clip-path="url(#clip0_345_3170)">
        <path d="M443.79 416.239C441.15 417.069 435 416.239 435 416.239C435 416.239 436.77 412.349 436.91 412.119C438.57 409.439 443.36 405.239 446.79 406.119C447.355 406.277 447.88 406.551 448.331 406.925C448.783 407.299 449.151 407.764 449.411 408.289C449.671 408.814 449.818 409.389 449.842 409.974C449.866 410.56 449.767 411.144 449.55 411.689C448.7 414.029 446.04 415.539 443.79 416.239Z" fill="#1E1E1E"/>
        <path d="M388.66 414.36C388.6 414.36 387.99 410.15 387.98 409.87C387.89 406.72 389.57 400.58 392.9 399.4C393.458 399.219 394.048 399.158 394.631 399.221C395.215 399.284 395.778 399.469 396.285 399.764C396.792 400.06 397.23 400.459 397.572 400.935C397.915 401.412 398.152 401.955 398.27 402.53C398.86 404.95 397.47 407.68 395.99 409.53C394.24 411.65 388.66 414.36 388.66 414.36Z" fill="#1E1E1E"/>
        <path d="M388.73 458.75C390.79 459.01 394.87 457.85 396.01 457.51C396.2 459.27 396.42 461 396.73 462.7C396.87 463.43 396.97 464.19 397.15 464.88C397.33 465.57 397.49 466.28 397.65 466.97C398.04 468.38 398.39 469.69 398.79 470.97C398.98 471.64 399.18 472.25 399.38 472.89C398.89 471.89 398.09 470.29 398 470.15C396.48 467.83 392.19 464.24 389.2 465.06C388.707 465.209 388.252 465.46 387.862 465.796C387.473 466.133 387.158 466.547 386.94 467.013C386.721 467.479 386.602 467.986 386.592 468.5C386.582 469.015 386.68 469.526 386.88 470C387.67 472 390.05 473.32 392.04 473.89C394.23 474.52 399.04 473.83 399.64 473.74C400.14 475.3 400.64 476.82 401.12 478.23C401.44 479.16 401.75 480.03 402.05 480.88H404.05C403.65 479.88 403.24 478.77 402.81 477.61C402.38 476.45 401.87 475 401.39 473.61C401.93 473.38 406.11 471.61 407.79 469.98C409.121 470.806 410.5 471.55 411.92 472.21C411.46 473.79 411.04 475.33 410.67 476.77C410.3 478.21 409.96 479.58 409.67 480.88H411.67C411.92 479.71 412.19 478.51 412.49 477.21C412.79 475.91 413.15 474.51 413.49 473.09C414.08 473.2 418.87 474.09 421.08 473.55C423.08 473.06 425.52 471.87 426.38 469.86C426.594 469.396 426.709 468.893 426.718 468.382C426.727 467.871 426.628 467.364 426.43 466.894C426.231 466.423 425.937 465.999 425.565 465.649C425.193 465.299 424.752 465.03 424.27 464.86C421.27 463.93 416.88 467.34 415.27 469.6C415.17 469.75 414.15 471.6 413.65 472.54C413.87 471.68 414.1 470.83 414.35 469.94C414.7 468.66 415.11 467.31 415.51 466.01L416.2 464.01C416.42 463.31 416.72 462.68 416.98 462.01C417.38 461.01 417.84 460.01 418.3 459.01C419.58 459.44 423.37 460.66 425.37 460.49C427.37 460.32 430.01 459.49 431.17 457.65C431.459 457.223 431.655 456.739 431.745 456.231C431.835 455.723 431.817 455.202 431.693 454.701C431.568 454.2 431.34 453.731 431.023 453.324C430.705 452.918 430.306 452.582 429.85 452.34C427.06 450.97 422.17 453.68 420.24 455.67C420.17 455.73 419.81 456.19 419.38 456.75C419.86 455.75 420.38 454.83 420.85 453.88C422.31 451.18 423.85 448.48 425.45 445.76L426.45 444.06C427.53 444.43 431.63 445.78 433.72 445.6C435.81 445.42 438.36 444.6 439.52 442.76C439.809 442.333 440.005 441.851 440.095 441.343C440.185 440.836 440.167 440.315 440.042 439.815C439.918 439.316 439.689 438.847 439.372 438.442C439.055 438.036 438.655 437.701 438.2 437.46C435.41 436.09 430.52 438.79 428.59 440.78C428.52 440.85 428.08 441.41 427.59 442.03C428.42 440.54 429.23 439.03 429.99 437.54C431.303 434.952 432.442 432.279 433.4 429.54C433.78 429.68 438.55 431.37 440.87 431.16C442.94 430.98 445.51 430.16 446.68 428.32C446.969 427.893 447.164 427.409 447.253 426.902C447.342 426.394 447.324 425.873 447.198 425.373C447.073 424.873 446.843 424.405 446.525 424C446.206 423.594 445.806 423.26 445.35 423.02C442.57 421.65 437.67 424.35 435.74 426.34C435.6 426.48 434.05 428.49 433.52 429.23V429.14C434.401 426.433 435.034 423.652 435.41 420.83C435.768 418.318 435.975 415.787 436.03 413.25C436.11 410.89 436.03 408.74 435.96 406.83C435.91 405.83 435.84 404.83 435.77 403.97H435.82C435.82 403.97 437.12 400.44 437.17 400.21C437.78 397.51 437.37 391.93 434.7 390.34C434.249 390.091 433.751 389.939 433.238 389.895C432.724 389.851 432.208 389.915 431.721 390.084C431.234 390.253 430.788 390.522 430.413 390.875C430.037 391.227 429.74 391.655 429.54 392.13C428.62 394.13 429.35 396.71 430.33 398.54C431.31 400.37 434.76 403.14 435.62 403.81C435.68 404.73 435.73 405.71 435.76 406.81C435.76 408.72 435.82 410.87 435.69 413.22C435.69 413.84 435.6 414.51 435.55 415.16C435.4 414.05 435.18 412.52 435.14 412.38C434.44 409.7 431.5 404.93 428.41 404.76C427.891 404.744 427.374 404.838 426.894 405.036C426.413 405.235 425.981 405.533 425.624 405.911C425.268 406.289 424.996 406.739 424.826 407.23C424.657 407.721 424.593 408.242 424.64 408.76C424.74 410.95 426.59 412.92 428.3 414.09C430.01 415.26 434.5 416.16 435.47 416.33C435.34 417.77 435.17 419.25 434.91 420.78C434.49 423.561 433.821 426.299 432.91 428.96H432.74C432.74 427.96 432.65 425.73 432.63 425.55C432.22 422.8 429.83 417.74 426.77 417.23C426.26 417.16 425.74 417.197 425.245 417.341C424.75 417.485 424.291 417.731 423.897 418.064C423.504 418.397 423.185 418.81 422.962 419.274C422.738 419.738 422.615 420.245 422.6 420.76C422.45 422.95 424.08 425.1 425.6 426.46C427.41 428.01 432.46 429.46 432.65 429.53C431.66 432.146 430.501 434.695 429.18 437.16C428.18 438.99 427.18 440.81 426.08 442.62C426.08 441.89 425.99 439.01 425.96 438.8C425.56 436.06 423.17 431 420.11 430.49C419.606 430.43 419.095 430.475 418.609 430.623C418.124 430.77 417.673 431.016 417.287 431.346C416.901 431.676 416.588 432.082 416.366 432.538C416.145 432.995 416.02 433.493 416 434C415.86 436.18 417.48 438.34 419.05 439.69C420.81 441.21 425.65 442.63 426.05 442.75C425.56 443.57 425.05 444.4 424.57 445.22C422.95 447.9 421.31 450.57 419.78 453.27C419.25 454.2 418.78 455.14 418.26 456.08C418.26 454.98 418.18 452.98 418.15 452.81C417.75 450.07 415.36 445.01 412.3 444.49C411.789 444.42 411.269 444.457 410.773 444.601C410.278 444.745 409.818 444.991 409.424 445.324C409.03 445.657 408.71 446.069 408.485 446.533C408.261 446.998 408.136 447.504 408.12 448.02C407.98 450.21 409.6 452.36 411.12 453.72C412.64 455.08 416.73 456.35 417.87 456.72C417.06 458.29 416.29 459.86 415.61 461.44C415.32 462.13 414.99 462.82 414.76 463.5C414.53 464.18 414.27 464.85 414.02 465.5C413.57 466.89 413.14 468.18 412.75 469.5C412.55 470.16 412.38 470.78 412.19 471.43C412.34 470.31 412.55 468.54 412.55 468.38C412.55 465.6 410.97 460.24 408.02 459.27C407.526 459.122 407.007 459.08 406.496 459.147C405.985 459.213 405.494 459.387 405.054 459.655C404.615 459.924 404.237 460.283 403.945 460.707C403.653 461.132 403.454 461.613 403.36 462.12C403.302 462.386 403.269 462.657 403.26 462.93C401.924 464.97 401.129 467.317 400.95 469.75C400.95 469.92 401.11 472.03 401.22 473.1C400.93 472.26 400.65 471.42 400.37 470.54C399.95 469.28 399.56 467.93 399.17 466.62L398.63 464.55C398.43 463.85 398.32 463.15 398.17 462.45C397.96 461.45 397.79 460.32 397.63 459.24C398.94 458.9 402.78 457.82 404.35 456.58C405.92 455.34 407.67 453.2 407.62 451.01C407.625 450.497 407.522 449.989 407.319 449.519C407.115 449.048 406.816 448.625 406.439 448.278C406.062 447.93 405.616 447.665 405.131 447.5C404.645 447.335 404.131 447.274 403.62 447.32C400.54 447.7 397.95 452.66 397.43 455.39C397.43 455.48 397.37 456.06 397.32 456.76C397.19 455.7 397.06 454.64 396.96 453.56C396.69 450.5 396.51 447.38 396.32 444.25C396.32 443.6 396.23 442.94 396.19 442.25C397.29 441.97 401.46 440.84 403.1 439.53C404.74 438.22 406.43 436.15 406.38 433.96C406.383 433.448 406.28 432.94 406.076 432.47C405.872 432.001 405.572 431.578 405.195 431.231C404.819 430.884 404.374 430.619 403.889 430.453C403.404 430.288 402.89 430.225 402.38 430.27C399.3 430.66 396.71 435.62 396.19 438.34C396.19 438.44 396.12 439.14 396.06 439.93C395.93 438.23 395.78 436.53 395.58 434.86C395.241 431.985 394.713 429.136 394 426.33C394.39 426.23 399.3 425 401.12 423.55C402.74 422.26 404.45 420.17 404.4 417.98C404.403 417.468 404.3 416.96 404.096 416.49C403.892 416.021 403.592 415.598 403.215 415.251C402.839 414.904 402.394 414.639 401.909 414.473C401.424 414.308 400.91 414.245 400.4 414.29C397.32 414.68 394.73 419.64 394.21 422.36C394.21 422.56 393.99 425.09 393.95 426C393.955 425.967 393.955 425.933 393.95 425.9C393.195 423.148 392.19 420.47 390.95 417.9C389.856 415.608 388.63 413.381 387.28 411.23C386.04 409.23 384.79 407.46 383.67 405.91C383.06 405.07 382.49 404.32 381.94 403.63H382C382 403.63 381.13 399.98 381 399.76C380 397.17 376.6 392.76 373.5 392.89C372.986 392.93 372.486 393.078 372.033 393.324C371.579 393.571 371.183 393.909 370.869 394.318C370.555 394.728 370.33 395.198 370.21 395.7C370.09 396.202 370.076 396.723 370.17 397.23C370.5 399.39 372.55 401.15 374.37 402.14C376.19 403.13 380.61 403.53 381.69 403.61C382.25 404.35 382.83 405.14 383.45 406.03C384.53 407.6 385.74 409.38 386.93 411.4C387.24 411.94 387.56 412.54 387.88 413.11C387.14 412.26 386.12 411.11 386 411.01C383.94 409.16 378.86 406.8 376.19 408.37C375.75 408.639 375.371 408.998 375.079 409.423C374.786 409.848 374.586 410.33 374.492 410.837C374.397 411.345 374.411 411.866 374.531 412.368C374.651 412.87 374.876 413.341 375.19 413.75C376.48 415.52 379.11 416.14 381.19 416.18C383.27 416.22 387.5 414.48 388.41 414.1C389.1 415.37 389.77 416.69 390.41 418.1C391.581 420.678 392.518 423.355 393.21 426.1L393.05 426.17C392.46 425.31 391.19 423.52 391.05 423.39C389.2 421.32 384.42 418.39 381.58 419.68C381.116 419.904 380.704 420.223 380.371 420.617C380.038 421.01 379.791 421.469 379.647 421.964C379.503 422.459 379.464 422.979 379.533 423.49C379.603 424.001 379.779 424.491 380.05 424.93C381.13 426.83 383.68 427.74 385.73 428C388.1 428.3 393.11 426.73 393.3 426.67C393.935 429.414 394.389 432.197 394.66 435C394.86 437.07 394.98 439.16 395.08 441.27C394.69 440.65 393.02 438.27 392.88 438.15C391.03 436.08 386.25 433.15 383.41 434.44C382.946 434.664 382.534 434.983 382.201 435.377C381.868 435.77 381.621 436.229 381.477 436.724C381.333 437.219 381.294 437.739 381.363 438.25C381.433 438.761 381.609 439.251 381.88 439.69C382.96 441.59 385.51 442.5 387.56 442.76C389.87 443.06 394.69 441.57 395.09 441.44C395.09 442.44 395.19 443.35 395.22 444.31C395.35 447.44 395.46 450.58 395.66 453.67C395.73 454.75 395.84 455.8 395.95 456.86C395.33 455.95 394.17 454.32 394.05 454.19C392.2 452.12 387.42 449.19 384.58 450.49C384.115 450.712 383.702 451.029 383.368 451.422C383.034 451.814 382.787 452.273 382.643 452.768C382.498 453.262 382.46 453.782 382.53 454.292C382.6 454.803 382.777 455.293 383.05 455.73C384.13 457.58 386.68 458.49 388.73 458.75Z" fill="#1E1E1E"/>
        <path d="M324.383 100.401C322.1 98.4364 320.242 95.4062 318.808 91.311C317.339 86.9686 317.169 82.2919 318.319 77.8543C319.407 73.1519 321.477 69.9118 324.53 68.1342C327.583 66.3566 331.679 65.4225 336.818 65.332L355.573 65.1449C363.623 64.9546 368.262 62.1892 369.491 56.8488C370.158 53.9649 369.336 51.1332 367.023 48.3536C364.71 45.5741 360.133 43.3963 353.292 41.8204C347.372 40.4093 341.281 39.8469 335.203 40.1498C330.275 40.3172 325.394 41.1672 320.7 42.6757C318.558 40.0826 316.885 37.1355 315.756 33.967C314.572 30.4912 314.436 26.7441 315.365 23.1915C316.18 19.4523 318.233 16.0974 321.191 13.6698C324.442 11.1029 328.261 9.35356 332.328 8.56889C337.371 7.56522 342.529 7.26297 347.655 7.67072C353.939 8.12639 360.176 9.08899 366.306 10.5491C384.219 14.6663 396.86 21.7686 404.229 31.856C411.598 41.9434 413.774 53.4467 410.758 66.366C405.136 90.6641 384.375 102.259 348.474 101.151L324.383 100.401ZM309.957 128.503C311.396 122.281 314.531 117.607 319.359 114.482C324.188 111.356 330.009 110.582 336.823 112.158C343.649 113.738 348.535 116.989 351.481 121.914C354.427 126.838 355.19 132.413 353.769 138.64C352.327 144.875 349.192 149.549 344.367 152.661C339.541 155.774 333.723 156.549 326.913 154.987C320.074 153.404 315.185 150.152 312.245 145.229C309.306 140.307 308.543 134.731 309.957 128.503Z" fill="#274430"/>
        <path d="M217.09 318.92L219.67 474.5C219.67 474.5 233.402 472.651 242.256 472.5C256.379 472.26 264.132 476.209 278.256 476C285.988 475.886 298 474.5 298 474.5L290.96 320.9L217.09 318.92Z" fill="#274430"/>
        <path d="M217.09 261.71L219.07 421.85H297.4L290.96 263.69L217.09 261.71Z" fill="white"/>
        <path d="M297.4 422.35H219.07C218.938 422.35 218.811 422.297 218.717 422.204C218.623 422.11 218.57 421.983 218.57 421.85L216.57 261.72C216.571 261.585 216.625 261.455 216.72 261.36C216.767 261.309 216.824 261.269 216.888 261.243C216.952 261.217 217.021 261.206 217.09 261.21L290.96 263.21C291.087 263.21 291.209 263.259 291.3 263.346C291.391 263.434 291.445 263.554 291.45 263.68L297.89 421.84C297.895 421.908 297.884 421.976 297.86 422.04C297.836 422.104 297.799 422.162 297.75 422.21C297.656 422.3 297.531 422.35 297.4 422.35ZM219.56 421.35H296.88L290.48 264.18L217.59 262.18L219.56 421.35Z" fill="#274430"/>
        <path d="M243.668 278.24L243.061 278.791L243.482 279.495L251.461 292.792L237.24 395.082L237.171 395.575L237.523 395.927L259.043 417.457L260.007 418.421L260.637 417.212L274.687 390.252L274.841 389.956L274.786 389.626L258.766 293.512L266.676 282.752L267.077 282.206L266.718 281.63L257.658 267.12L257.024 266.105L256.138 266.91L243.668 278.24Z" fill="#274430" stroke="#274430" stroke-width="2"/>
        <path d="M259.75 417.25C259.685 417.251 259.62 417.238 259.559 417.212C259.499 417.186 259.445 417.148 259.4 417.1L237.87 395.58C237.816 395.523 237.775 395.455 237.751 395.381C237.727 395.307 237.72 395.228 237.73 395.15L252 292.68L243.94 279.24C243.878 279.141 243.853 279.024 243.869 278.908C243.886 278.793 243.943 278.687 244.03 278.61L256.49 267.28C256.547 267.233 256.612 267.198 256.683 267.178C256.753 267.157 256.827 267.151 256.9 267.16C256.972 267.17 257.041 267.196 257.101 267.236C257.162 267.275 257.213 267.328 257.25 267.39L266.31 281.89C266.366 281.973 266.396 282.07 266.396 282.17C266.396 282.27 266.366 282.367 266.31 282.45L258.31 293.38L274.36 389.7C274.379 389.809 274.361 389.922 274.31 390.02L260.31 417.02C260.273 417.089 260.221 417.149 260.156 417.194C260.092 417.239 260.018 417.269 259.94 417.28L259.75 417.25ZM238.75 395.05L259.61 415.91L273.27 389.7L257.21 293.34C257.19 293.206 257.222 293.07 257.3 292.96L265.3 282.13L256.73 268.43L245 279.08L253 292.32C253.058 292.42 253.082 292.535 253.07 292.65L238.75 395.05Z" fill="#274430"/>
        <path d="M252.5 292.58L252.19 294.83L261.29 288.39L265.87 282.16L261.5 275.16L247.85 284.82L252.5 292.58Z" fill="#9198E3"/>
        <path d="M252.19 295.33C252.098 295.328 252.008 295.3 251.93 295.25C251.847 295.2 251.78 295.128 251.737 295.041C251.695 294.954 251.678 294.856 251.69 294.76L251.98 292.68L247.42 285.08C247.351 284.972 247.327 284.842 247.354 284.717C247.38 284.591 247.454 284.481 247.56 284.41L261.21 274.76C261.323 274.68 261.463 274.648 261.6 274.67C261.666 274.685 261.729 274.713 261.784 274.752C261.839 274.792 261.885 274.842 261.92 274.9L266.29 281.9C266.346 281.983 266.376 282.08 266.376 282.18C266.376 282.28 266.346 282.377 266.29 282.46L261.72 288.69C261.685 288.732 261.645 288.769 261.6 288.8L252.5 295.24C252.409 295.302 252.3 295.333 252.19 295.33ZM248.51 285L252.93 292.36C252.987 292.46 253.012 292.575 253 292.69L252.84 293.79L260.94 288.07L265.27 282.17L261.36 275.92L248.51 285Z" fill="#274430"/>
        <path d="M247.78 326.55L261.63 316.75L259.68 305.05L249.79 312.04L247.78 326.55Z" fill="#9198E3"/>
        <path d="M247.78 327C247.688 327.002 247.598 326.978 247.52 326.93C247.438 326.88 247.371 326.807 247.329 326.72C247.286 326.633 247.269 326.536 247.28 326.44L249.28 311.93C249.29 311.862 249.313 311.797 249.349 311.738C249.386 311.68 249.433 311.629 249.49 311.59L259.37 304.59C259.439 304.541 259.519 304.511 259.603 304.502C259.687 304.493 259.772 304.506 259.85 304.54C259.927 304.574 259.995 304.626 260.048 304.692C260.1 304.759 260.135 304.837 260.15 304.92L262.1 316.62C262.115 316.712 262.104 316.807 262.068 316.893C262.033 316.979 261.975 317.055 261.9 317.11L248.07 327C247.975 327.028 247.875 327.028 247.78 327ZM250.26 312.29L248.43 325.43L261.08 316.43L259.32 305.83L250.26 312.29Z" fill="#274430"/>
        <path d="M260.15 415.98L270.94 395.27L251.81 408.81L259.47 416.47L260.15 415.98Z" fill="#9198E3"/>
        <path d="M259.47 417C259.335 417 259.206 416.946 259.11 416.85L251.46 409.19C251.407 409.139 251.365 409.077 251.339 409.007C251.313 408.938 251.303 408.864 251.31 408.79C251.317 408.718 251.339 408.649 251.375 408.587C251.411 408.524 251.461 408.471 251.52 408.43L270.65 394.9C270.738 394.83 270.848 394.792 270.96 394.792C271.073 394.792 271.182 394.83 271.27 394.9C271.354 394.973 271.41 395.072 271.43 395.181C271.45 395.29 271.432 395.402 271.38 395.5L260.6 416.21C260.561 416.281 260.506 416.343 260.44 416.39L259.76 416.87C259.682 416.946 259.579 416.993 259.47 417ZM252.58 408.89L259.52 415.83L259.76 415.66L269.54 396.9L252.58 408.89Z" fill="#274430"/>
        <path d="M263.94 330.63L245.38 343.76L243.37 358.26L265.89 342.33L263.94 330.63Z" fill="#9198E3"/>
        <path d="M243.37 358.76C243.279 358.762 243.188 358.738 243.11 358.69C243.025 358.64 242.957 358.565 242.914 358.476C242.872 358.387 242.856 358.288 242.87 358.19L244.87 343.69C244.89 343.555 244.961 343.433 245.07 343.35L263.63 330.23C263.699 330.179 263.78 330.147 263.864 330.136C263.949 330.126 264.035 330.137 264.115 330.169C264.194 330.201 264.264 330.253 264.317 330.32C264.371 330.386 264.406 330.466 264.42 330.55L266.36 342.25C266.38 342.342 266.371 342.438 266.336 342.526C266.3 342.613 266.239 342.688 266.16 342.74L243.64 358.67C243.56 358.724 243.467 358.756 243.37 358.76ZM245.85 344L244 357.19L265.33 342.1L263.56 331.5L245.85 344Z" fill="#274430"/>
        <path d="M269.13 361.76L240.02 382.35L238.23 395.22L239.09 396.08L271.08 373.46L269.13 361.76Z" fill="#9198E3"/>
        <path d="M239.09 396.58C239.024 396.582 238.958 396.57 238.896 396.546C238.834 396.522 238.778 396.486 238.73 396.44L237.87 395.58C237.816 395.524 237.775 395.456 237.751 395.381C237.727 395.307 237.72 395.228 237.73 395.15L239.52 382.28C239.544 382.144 239.619 382.022 239.73 381.94L268.84 361.35C268.91 361.302 268.99 361.271 269.074 361.263C269.159 361.254 269.244 361.266 269.322 361.299C269.399 361.332 269.468 361.385 269.52 361.451C269.572 361.518 269.607 361.597 269.62 361.68L271.57 373.38C271.583 373.472 271.571 373.566 271.536 373.652C271.501 373.738 271.444 373.813 271.37 373.87L239.37 396.49C239.288 396.546 239.19 396.578 239.09 396.58ZM238.76 395.05L239.14 395.43L270.53 373.23L268.77 362.63L240.48 382.63L238.76 395.05Z" fill="#274430"/>
        <path d="M256.634 273.09L257.468 272.189L256.418 271.554L231.808 256.674L230.648 255.973L230.32 257.288L228.19 265.828L228.13 266.067L228.189 266.307L234.989 294.177L235.43 295.985L236.694 294.62L256.634 273.09Z" fill="white" stroke="#274430" stroke-width="2"/>
        <path d="M236 294.44H235.87C235.783 294.418 235.704 294.373 235.641 294.309C235.577 294.246 235.532 294.167 235.51 294.08L228.72 266.21C228.7 266.131 228.7 266.049 228.72 265.97L230.85 257.43C230.87 257.355 230.906 257.286 230.957 257.227C231.007 257.168 231.069 257.122 231.14 257.09C231.21 257.056 231.287 257.038 231.365 257.038C231.443 257.038 231.52 257.056 231.59 257.09L256.16 272C256.224 272.038 256.279 272.09 256.321 272.153C256.362 272.215 256.39 272.286 256.4 272.36C256.409 272.434 256.403 272.509 256.38 272.579C256.358 272.65 256.32 272.715 256.27 272.77L236.33 294.3C236.24 294.384 236.123 294.434 236 294.44ZM229.72 266.07L236.27 292.92L255.16 272.52L231.66 258.31L229.72 266.07Z" fill="#274430"/>
        <path d="M255.33 271.588L254.471 272.184L255.104 273.016L270.284 292.956L271.523 294.584L272.047 292.606L279.297 265.196L279.38 264.879L279.261 264.575L276.771 258.225L276.309 257.048L275.27 257.768L255.33 271.588Z" fill="white" stroke="#274430" stroke-width="2"/>
        <path d="M271.08 292.85C271.004 292.849 270.928 292.832 270.859 292.799C270.79 292.766 270.729 292.719 270.68 292.66L255.5 272.66C255.458 272.607 255.428 272.546 255.413 272.48C255.397 272.414 255.396 272.346 255.41 272.28C255.42 272.213 255.444 272.149 255.48 272.093C255.516 272.036 255.564 271.987 255.62 271.95L275.55 258.13C275.614 258.087 275.686 258.059 275.762 258.047C275.838 258.034 275.916 258.039 275.99 258.06C276.061 258.086 276.126 258.126 276.181 258.177C276.236 258.229 276.28 258.291 276.31 258.36L278.8 264.7C278.83 264.801 278.83 264.909 278.8 265.01L271.55 292.43C271.528 292.522 271.479 292.605 271.409 292.669C271.34 292.733 271.253 292.775 271.16 292.79L271.08 292.85ZM256.62 272.53L270.86 291.24L277.81 265L275.61 259.4L256.62 272.53Z" fill="#274430"/>
        <path d="M54.3999 238.9C53.5306 239.394 53.5307 239.394 53.5308 239.395L53.5312 239.395L53.5323 239.397L53.5357 239.403L53.5478 239.424C53.5581 239.442 53.5731 239.468 53.5926 239.501C53.6315 239.568 53.6886 239.664 53.7631 239.787C53.9121 240.032 54.131 240.385 54.4144 240.818C54.9808 241.685 55.8071 242.88 56.8509 244.198C58.9261 246.82 61.9132 249.997 65.4762 252.02C67.3758 253.098 70.1692 253.634 73.1515 253.881C76.169 254.131 79.5216 254.094 82.6354 253.936C85.7532 253.779 88.6535 253.5 90.773 253.26C91.8334 253.14 92.6998 253.031 93.3021 252.95C93.3758 252.941 93.4456 252.931 93.5114 252.922L99.5465 265.639L100.02 266.637L100.967 266.066L114.117 258.126L114.902 257.652L114.497 256.829L113.6 257.27C114.497 256.829 114.497 256.829 114.497 256.829L114.497 256.828L114.496 256.826L114.492 256.818L114.477 256.788L114.419 256.67C114.368 256.567 114.293 256.416 114.196 256.221C114.003 255.832 113.723 255.272 113.377 254.586C112.685 253.214 111.725 251.337 110.659 249.317C108.542 245.306 105.956 240.64 104.2 238.3C100.742 233.693 97.1346 230.721 92.9138 229.975C91.4407 229.715 90.1094 229.583 88.9101 229.463C88.5079 229.423 88.1205 229.385 87.7477 229.344C86.2426 229.177 84.9242 228.96 83.5704 228.437C82.8807 228.171 82.0388 227.882 81.1545 227.58C81.0642 227.549 80.9733 227.517 80.8822 227.486C79.8891 227.146 78.8429 226.783 77.8431 226.395C76.8406 226.006 75.9094 225.6 75.1441 225.178C74.3597 224.746 73.839 224.344 73.5705 223.998C72.5237 222.646 70.8202 222.242 69.534 223.097C68.2246 223.967 67.891 225.75 68.6714 227.701C69.4586 229.669 71.1809 231.225 72.5861 232.248C73.3049 232.772 73.9769 233.182 74.4696 233.462C74.7166 233.602 74.92 233.71 75.0635 233.784C75.1354 233.821 75.1923 233.85 75.2324 233.87L75.2797 233.893L75.2934 233.9L75.2977 233.902L75.2991 233.902L75.2997 233.903C75.3 233.903 75.3002 233.903 75.7265 233.007L75.3002 233.903L75.3044 233.905L76.1786 234.316C75.2305 234.464 74.1551 234.637 73.0663 234.819C71.4469 235.089 69.7886 235.383 68.4733 235.653C67.8173 235.788 67.2332 235.919 66.777 236.041C66.5497 236.102 66.34 236.165 66.1625 236.229C66.0285 236.277 65.8288 236.354 65.6533 236.472C65.6415 236.477 65.6229 236.484 65.5961 236.493C65.509 236.522 65.3798 236.559 65.204 236.6C64.8539 236.682 64.3814 236.769 63.8167 236.857C62.6908 237.035 61.2623 237.21 59.8491 237.366C58.4387 237.521 57.0551 237.656 56.0234 237.751C55.5078 237.799 55.0805 237.837 54.7824 237.863C54.6334 237.876 54.5167 237.886 54.4373 237.893L54.347 237.901L54.3241 237.903L54.3184 237.903L54.317 237.903L54.3167 237.903L54.3999 238.9ZM54.3999 238.9L53.5306 239.394L52.7571 238.034L54.3166 237.903L54.3999 238.9Z" fill="white" stroke="#274430" stroke-width="2"/>
        <path d="M50.1099 236.66L49.2048 237.085L49.4748 237.66H50.1099H55.8099H57.6794L56.6417 236.105L55.8099 236.66L56.6417 236.105L56.6416 236.105L56.6412 236.104L56.6394 236.102L56.6321 236.091L56.6031 236.047L56.4911 235.878C56.394 235.731 56.2538 235.519 56.0823 235.257C55.7393 234.732 55.2715 234.011 54.7725 233.222C53.7608 231.622 52.6645 229.814 52.1864 228.788C51.5504 227.422 50.3044 226.447 49.1501 226.038C48.5779 225.835 47.9115 225.73 47.2957 225.901C46.6003 226.094 46.0598 226.623 45.9157 227.423C45.8452 227.814 45.9 228.258 45.9721 228.638C46.0499 229.048 46.1746 229.51 46.3241 229.992C46.6237 230.956 47.0461 232.068 47.4697 233.11C47.8948 234.156 48.3282 235.149 48.6547 235.879C48.8181 236.245 48.9551 236.545 49.0515 236.755C49.0997 236.859 49.1378 236.942 49.1639 236.998L49.194 237.062L49.2019 237.079L49.204 237.084L49.2045 237.085L49.2047 237.085C49.2048 237.085 49.2048 237.085 50.1099 236.66Z" fill="white" stroke="#274430" stroke-width="2"/>
        <path d="M55.8099 237.16H50.1099C50.0154 237.158 49.9232 237.13 49.8438 237.079C49.7643 237.028 49.7006 236.955 49.6599 236.87C49.0599 235.6 46.0999 229.19 46.4099 227.51C46.4566 227.199 46.6077 226.912 46.8384 226.698C47.0691 226.483 47.3658 226.354 47.6799 226.33C48.5398 226.346 49.3776 226.605 50.0962 227.078C50.8147 227.55 51.3847 228.217 51.7399 229C52.7399 231.14 56.1899 236.34 56.2299 236.39C56.2775 236.466 56.3042 236.554 56.3071 236.644C56.3099 236.734 56.289 236.823 56.2464 236.902C56.2037 236.981 56.1409 237.048 56.0642 237.095C55.9876 237.142 55.8998 237.168 55.8099 237.17V237.16ZM50.4299 236.16H54.8799C53.4168 233.983 52.0651 231.734 50.8299 229.42C50.5652 228.832 50.1467 228.327 49.6187 227.957C49.0907 227.588 48.4727 227.368 47.8299 227.32C47.5099 227.32 47.4399 227.52 47.4099 227.69C47.2099 228.71 49.1099 233.3 50.4299 236.16Z" fill="#274430"/>
        <path d="M63.8599 251.26L64.5851 250.572L64.5849 250.571L64.5838 250.57L64.5793 250.565L64.5613 250.546L64.4898 250.471C64.4268 250.404 64.334 250.306 64.2152 250.179C63.9774 249.926 63.6353 249.559 63.2189 249.109C62.3859 248.209 61.2572 246.973 60.073 245.633C58.8878 244.292 57.6526 242.851 56.6043 241.54C55.5425 240.212 54.7173 239.07 54.3126 238.31C53.3601 236.521 51.1792 233.523 49.0494 231.698C48.5102 231.236 47.9491 230.827 47.3889 230.531C46.8381 230.24 46.2194 230.021 45.5853 230.029C44.906 230.038 44.277 230.309 43.7951 230.866C43.3439 231.386 43.0714 232.098 42.9168 232.927L42.8577 233.244L42.9949 233.536L43.8999 233.11C42.9949 233.536 42.995 233.536 42.9951 233.536L42.9953 233.536L42.9962 233.538L42.9994 233.545L43.0117 233.571L43.0591 233.671C43.1005 233.758 43.1616 233.885 43.2403 234.048C43.3979 234.374 43.6265 234.843 43.9121 235.414C44.4829 236.557 45.2828 238.115 46.198 239.774C47.1121 241.432 48.1474 243.202 49.1893 244.764C50.2192 246.309 51.2999 247.719 52.3121 248.603C54.3314 250.367 57.2702 251.26 59.579 251.724C60.7541 251.961 61.8095 252.094 62.5716 252.168C62.9532 252.206 63.2628 252.228 63.4789 252.242C63.587 252.248 63.6719 252.253 63.7307 252.256L63.7992 252.259L63.8183 252.259L63.8239 252.259L63.8257 252.259L63.8264 252.26C63.8266 252.26 63.8269 252.26 63.8599 251.26ZM63.8599 251.26L64.5851 250.572L66.2641 252.34L63.8269 252.26L63.8599 251.26Z" fill="white" stroke="#274430" stroke-width="2"/>
        <path d="M63.8601 251.76C63.5601 251.76 56.3801 251.49 52.6601 248.23C48.9401 244.97 43.6601 233.8 43.4701 233.32C43.4358 233.223 43.4358 233.117 43.4701 233.02C43.7501 231.53 44.4001 230.7 45.3901 230.55C48.2101 230.12 52.5801 236.02 53.9301 238.55C55.6901 241.85 64.2001 250.82 64.2801 250.91C64.3447 250.982 64.3874 251.071 64.4034 251.167C64.4193 251.262 64.4077 251.36 64.3699 251.449C64.3321 251.538 64.2698 251.615 64.1901 251.67C64.1105 251.725 64.0168 251.756 63.9201 251.76H63.8601ZM44.4201 233.05C45.0701 234.41 50.0101 244.6 53.3001 247.48C55.8601 249.72 60.4101 250.48 62.6101 250.66C60.3501 248.24 54.4801 241.82 52.9801 239.02C51.4801 236.22 47.4701 231.23 45.4801 231.54C45.0001 231.62 44.6301 232.12 44.4201 233.05Z" fill="#274430"/>
        <path d="M68.2403 252.28L68.9651 251.591L68.9649 251.591L68.9638 251.59L68.9593 251.585L68.9413 251.566L68.8698 251.49C68.8068 251.424 68.7141 251.325 68.5952 251.199C68.3574 250.946 68.0153 250.58 67.599 250.13C66.766 249.23 65.6374 247.996 64.4533 246.656C63.2681 245.316 62.0329 243.876 60.9848 242.564C59.9231 241.236 59.0981 240.093 58.6936 239.331C57.7413 237.537 55.5679 234.542 53.4411 232.718C52.9028 232.257 52.3421 231.848 51.782 231.552C51.2309 231.261 50.6123 231.043 49.9779 231.052C49.2993 231.061 48.6705 231.331 48.1868 231.885C47.7334 232.404 47.457 233.114 47.2982 233.942L47.2369 234.261L47.3753 234.555L48.2803 234.13C47.3753 234.555 47.3754 234.556 47.3754 234.556L47.3757 234.556L47.3766 234.558L47.3798 234.565L47.3921 234.591L47.4394 234.691C47.4809 234.778 47.5419 234.905 47.6207 235.068C47.7782 235.394 48.0068 235.863 48.2924 236.434C48.8632 237.577 49.6631 239.135 50.5783 240.795C51.4924 242.453 52.5276 244.224 53.5694 245.788C54.5993 247.334 55.6797 248.746 56.6913 249.632C58.7114 251.402 61.6516 252.293 63.9609 252.753C65.1363 252.988 66.192 253.119 66.9543 253.191C67.336 253.228 67.6457 253.25 67.8619 253.263C67.97 253.269 68.0548 253.273 68.1137 253.276L68.1823 253.279L68.2014 253.279L68.207 253.279L68.2088 253.279L68.2095 253.28C68.2097 253.28 68.21 253.28 68.2403 252.28ZM68.2403 252.28L68.9651 251.591L70.6398 253.353L68.21 253.28L68.2403 252.28Z" fill="white" stroke="#274430" stroke-width="2"/>
        <path d="M68.2399 252.78C67.9399 252.78 60.7699 252.51 57.0399 249.25C53.3099 245.99 48.0399 234.82 47.8499 234.35C47.8156 234.249 47.8156 234.14 47.8499 234.04C48.1366 232.553 48.7766 231.733 49.7699 231.58C52.5999 231.14 56.9599 237.04 58.3099 239.58C60.0699 242.88 68.5799 251.85 68.6599 251.95C68.7286 252.02 68.7749 252.108 68.7927 252.205C68.8105 252.301 68.7991 252.4 68.7599 252.49C68.7146 252.587 68.6399 252.667 68.5466 252.719C68.4534 252.771 68.3461 252.792 68.2399 252.78ZM48.7999 234.07C49.4499 235.43 54.3899 245.62 57.6799 248.5C60.2499 250.74 64.7899 251.5 66.9999 251.68C64.7299 249.26 58.8599 242.85 57.3699 240.04C55.8799 237.23 51.8499 232.27 49.8599 232.57C49.3599 232.64 48.9999 233.15 48.7999 234.07Z" fill="#274430"/>
        <mask id="path-29-outside-1_345_3170" maskUnits="userSpaceOnUse" x="51.2363" y="229.72" width="48" height="27" fill="black">
            <rect fill="white" x="51.2363" y="229.72" width="48" height="27"/>
            <path d="M97.4999 245.93C97.4999 245.93 96.3599 244.11 92.4999 241.62C88.6399 239.13 68.2299 245.47 68.2299 245.47C68.2299 245.47 58.9299 233.91 57.5699 232.77C56.2099 231.63 53.7099 230.96 53.2599 233.23C52.8099 235.5 58.9299 245.23 60.5199 246.84C62.1099 248.45 68.2299 252.28 68.2299 252.28C71.95 253.559 75.8668 254.172 79.7999 254.09C84.6187 253.743 89.3992 252.987 94.0899 251.83"/>
        </mask>
        <path d="M97.4999 245.93C97.4999 245.93 96.3599 244.11 92.4999 241.62C88.6399 239.13 68.2299 245.47 68.2299 245.47C68.2299 245.47 58.9299 233.91 57.5699 232.77C56.2099 231.63 53.7099 230.96 53.2599 233.23C52.8099 235.5 58.9299 245.23 60.5199 246.84C62.1099 248.45 68.2299 252.28 68.2299 252.28C71.95 253.559 75.8668 254.172 79.7999 254.09C84.6187 253.743 89.3992 252.987 94.0899 251.83" fill="white"/>
        <path d="M68.2299 245.47L66.6716 246.724L67.5242 247.784L68.8232 247.38L68.2299 245.47ZM68.2299 252.28L67.1689 253.975L67.363 254.097L67.5795 254.171L68.2299 252.28ZM79.7999 254.09L79.8417 256.09L79.8927 256.089L79.9436 256.085L79.7999 254.09ZM97.4999 245.93C99.1949 244.868 99.1944 244.868 99.1939 244.867C99.1937 244.867 99.1933 244.866 99.1929 244.865C99.1923 244.864 99.1916 244.863 99.1909 244.862C99.1895 244.86 99.188 244.857 99.1864 244.855C99.1833 244.85 99.1799 244.845 99.1762 244.839C99.1688 244.828 99.1602 244.814 99.1503 244.8C99.1305 244.77 99.1056 244.733 99.0752 244.691C99.0145 244.605 98.9321 244.494 98.8248 244.359C98.6102 244.09 98.2968 243.729 97.8605 243.293C96.9873 242.422 95.6258 241.256 93.5841 239.939L91.4158 243.301C93.234 244.474 94.3725 245.463 95.0344 246.124C95.3655 246.455 95.5784 246.704 95.6981 246.854C95.7581 246.929 95.7948 246.98 95.8116 247.003C95.8199 247.015 95.8233 247.02 95.8221 247.018C95.8215 247.017 95.8197 247.015 95.8168 247.01C95.8154 247.008 95.8137 247.005 95.8117 247.002C95.8107 247.001 95.8097 246.999 95.8085 246.997C95.808 246.996 95.8074 246.996 95.8068 246.995C95.8065 246.994 95.806 246.993 95.8059 246.993C95.8054 246.992 95.805 246.992 97.4999 245.93ZM93.5841 239.939C92.6678 239.348 91.5111 239.147 90.4885 239.075C89.4051 239 88.1679 239.053 86.8814 239.181C84.3032 239.437 81.2965 240.017 78.4727 240.661C75.6371 241.308 72.9309 242.032 70.9375 242.593C69.9395 242.874 69.1174 243.115 68.5435 243.286C68.2564 243.371 68.0313 243.439 67.8772 243.486C67.8002 243.51 67.7408 243.528 67.7004 243.54C67.6801 243.547 67.6646 243.551 67.6539 243.555C67.6486 243.556 67.6445 243.558 67.6416 243.559C67.6401 243.559 67.639 243.559 67.6382 243.56C67.6378 243.56 67.6374 243.56 67.6372 243.56C67.6368 243.56 67.6366 243.56 68.2299 245.47C68.8232 247.38 68.8231 247.38 68.8231 247.38C68.8232 247.38 68.8233 247.38 68.8235 247.38C68.8239 247.38 68.8247 247.38 68.8257 247.379C68.8278 247.379 68.831 247.378 68.8355 247.376C68.8445 247.373 68.8583 247.369 68.8768 247.363C68.9138 247.352 68.9696 247.335 69.0429 247.313C69.1897 247.268 69.4068 247.202 69.6854 247.119C70.2428 246.953 71.0453 246.718 72.0211 246.444C73.9751 245.894 76.6127 245.188 79.3621 244.561C82.1233 243.931 84.9429 243.393 87.2772 243.161C88.4469 243.045 89.4375 243.012 90.2091 243.066C90.5926 243.093 90.8885 243.139 91.1064 243.193C91.2133 243.22 91.2912 243.246 91.3447 243.268C91.3986 243.289 91.4188 243.303 91.4158 243.301L93.5841 239.939ZM68.2299 245.47C69.7882 244.216 69.7882 244.216 69.7881 244.216C69.788 244.216 69.7879 244.216 69.7877 244.216C69.7874 244.215 69.787 244.215 69.7864 244.214C69.7853 244.213 69.7835 244.211 69.7812 244.208C69.7767 244.202 69.7699 244.194 69.761 244.183C69.7432 244.161 69.7169 244.128 69.6825 244.085C69.6137 244 69.5128 243.875 69.3839 243.715C69.1262 243.396 68.7567 242.938 68.3091 242.386C67.4141 241.283 66.2059 239.798 64.9544 238.277C63.7041 236.757 62.4049 235.194 61.3297 233.936C60.7929 233.308 60.3044 232.747 59.9019 232.302C59.532 231.893 59.1479 231.483 58.8547 231.237L56.2851 234.303C56.2803 234.299 56.2948 234.311 56.3335 234.348C56.3699 234.383 56.4177 234.431 56.4779 234.493C56.5988 234.617 56.7515 234.782 56.9349 234.984C57.3014 235.39 57.7626 235.919 58.2888 236.535C59.3399 237.765 60.6207 239.305 61.8655 240.818C63.1089 242.33 64.3107 243.806 65.202 244.906C65.6475 245.455 66.0152 245.91 66.2714 246.227C66.3995 246.386 66.4997 246.51 66.5678 246.595C66.6018 246.637 66.6279 246.669 66.6454 246.691C66.6541 246.702 66.6607 246.71 66.6651 246.716C66.6673 246.718 66.6689 246.72 66.67 246.722C66.6706 246.722 66.671 246.723 66.6712 246.723C66.6714 246.723 66.6715 246.724 66.6715 246.724C66.6716 246.724 66.6716 246.724 68.2299 245.47ZM58.8547 231.237C57.9345 230.466 56.5537 229.766 55.1353 229.722C54.3887 229.699 53.5086 229.859 52.7338 230.439C51.9398 231.033 51.4854 231.896 51.2981 232.841L55.2217 233.619C55.2594 233.429 55.2863 233.525 55.1301 233.642C54.993 233.744 54.9074 233.717 55.012 233.72C55.1233 233.724 55.3256 233.762 55.5902 233.877C55.848 233.988 56.0942 234.143 56.2851 234.303L58.8547 231.237ZM51.2981 232.841C51.1501 233.588 51.298 234.355 51.4427 234.907C51.6042 235.524 51.8527 236.195 52.1409 236.872C52.7192 238.229 53.5339 239.784 54.3898 241.277C55.2498 242.777 56.1751 244.256 56.9924 245.47C57.7753 246.633 58.5506 247.692 59.0969 248.245L61.9429 245.435C61.6942 245.183 61.1083 244.422 60.3106 243.237C59.5472 242.103 58.6725 240.705 57.86 239.288C57.0434 237.863 56.3131 236.46 55.8208 235.304C55.5736 234.724 55.4055 234.25 55.3122 233.894C55.2022 233.474 55.2572 233.44 55.2217 233.619L51.2981 232.841ZM59.0969 248.245C60.0638 249.224 62.1825 250.702 63.8576 251.825C64.7361 252.414 65.5625 252.951 66.1685 253.34C66.4718 253.534 66.7207 253.692 66.8943 253.802C66.9811 253.857 67.0491 253.9 67.0958 253.929C67.1191 253.944 67.1371 253.955 67.1494 253.963C67.1555 253.967 67.1602 253.97 67.1635 253.972C67.1651 253.973 67.1664 253.974 67.1673 253.974C67.1678 253.975 67.1681 253.975 67.1684 253.975C67.1685 253.975 67.1687 253.975 67.1687 253.975C67.1688 253.975 67.1689 253.975 68.2299 252.28C69.2909 250.585 69.2909 250.585 69.291 250.585C69.2909 250.585 69.2909 250.585 69.2909 250.585C69.2908 250.585 69.2906 250.584 69.2903 250.584C69.2897 250.584 69.2887 250.583 69.2874 250.582C69.2848 250.581 69.2807 250.578 69.2753 250.575C69.2643 250.568 69.2477 250.558 69.2258 250.544C69.182 250.516 69.117 250.475 69.0334 250.422C68.8661 250.316 68.6244 250.163 68.3292 249.973C67.738 249.594 66.9349 249.072 66.0847 248.502C64.3023 247.308 62.5661 246.066 61.9429 245.435L59.0969 248.245ZM67.5795 254.171C71.5222 255.527 75.6732 256.177 79.8417 256.09L79.7582 252.09C76.0603 252.168 72.3779 251.592 68.8804 250.389L67.5795 254.171ZM79.9436 256.085C84.8754 255.73 89.7681 254.956 94.5688 253.772L93.611 249.888C89.0303 251.018 84.362 251.756 79.6563 252.095L79.9436 256.085Z" fill="#274430" mask="url(#path-29-outside-1_345_3170)"/>
        <path d="M121.911 270.06L122.942 269.622L122.391 268.648L114.221 254.198L113.714 253.302L112.833 253.834L93.0435 265.774L92.3101 266.216L92.6346 267.009L97.6546 279.269L98.0386 280.207L98.9712 279.81L121.911 270.06Z" fill="white" stroke="#274430" stroke-width="2"/>
        <path d="M195.34 255.64C195.401 254.642 195.4 254.642 195.4 254.642L195.4 254.642L195.398 254.642L195.392 254.641L195.369 254.64L195.279 254.635C195.201 254.63 195.086 254.624 194.94 254.617C194.648 254.602 194.229 254.582 193.72 254.562C192.703 254.522 191.322 254.483 189.869 254.483C188.42 254.483 186.882 254.522 185.558 254.644C184.896 254.705 184.271 254.789 183.728 254.903C183.203 255.013 182.678 255.167 182.268 255.405C182.051 255.531 181.867 255.726 181.748 255.859C181.605 256.019 181.445 256.218 181.275 256.444C180.933 256.898 180.508 257.512 180.017 258.253C179.033 259.738 177.754 261.781 176.287 264.185C173.351 268.996 169.644 275.288 166.007 281.534C162.37 287.782 158.801 293.99 156.141 298.636C154.811 300.959 153.709 302.891 152.939 304.243C152.64 304.767 152.392 305.203 152.199 305.542L149.907 304.396L149.377 304.131L148.89 304.468L145.679 306.696L121.852 267.866L119.232 263.597L118.733 262.784L117.897 263.244L93.3874 276.754L92.5395 277.222L92.9792 278.084L94.9517 281.954L134.149 358.854L134.186 358.927L134.235 358.993L135.04 358.4C134.235 358.993 134.235 358.993 134.235 358.994L134.236 358.994L134.237 358.996L134.241 359.001L134.253 359.017C134.263 359.031 134.277 359.05 134.296 359.074C134.332 359.122 134.385 359.19 134.453 359.275C134.589 359.445 134.784 359.684 135.029 359.962C135.517 360.517 136.213 361.245 137.033 361.918C137.846 362.585 138.829 363.237 139.892 363.586C140.975 363.941 142.197 363.995 143.368 363.359C143.681 363.189 144.07 362.889 144.485 362.541C144.917 362.177 145.437 361.71 146.025 361.158C147.204 360.054 148.689 358.588 150.365 356.891C153.717 353.495 157.858 349.148 161.886 344.865C165.915 340.581 169.835 336.356 172.748 333.203C173.875 331.983 174.851 330.923 175.625 330.082L165.003 476.428L164.915 477.638L166.119 477.493L166 476.5C166.119 477.493 166.119 477.493 166.12 477.493L166.12 477.493L166.122 477.493L166.131 477.492L166.165 477.487L166.301 477.471C166.421 477.457 166.598 477.436 166.828 477.41C167.288 477.357 167.959 477.281 168.797 477.19C170.474 477.008 172.823 476.764 175.511 476.518C180.895 476.026 187.61 475.53 193.006 475.5C198.734 475.468 206.565 474.201 212.912 472.958C216.096 472.334 218.927 471.713 220.962 471.247C221.979 471.014 222.798 470.82 223.363 470.685C223.463 470.661 223.555 470.638 223.639 470.618C223.792 470.581 223.918 470.55 224.014 470.527L224.184 470.485L224.227 470.474L224.238 470.471L224.241 470.47L224.242 470.47C224.242 470.47 224.243 470.47 224 469.5L224.243 470.47L224.98 470.286L225 469.525L230.157 266.195L232.465 256.062L232.815 254.527L231.277 254.863L222.272 256.831L195.421 254.643L195.411 254.643L195.401 254.642L195.34 255.64Z" fill="#B691E3" stroke="#274430" stroke-width="2"/>
        <path fill-rule="evenodd" clip-rule="evenodd" d="M153.264 305.692C157.515 298.222 180.799 257.414 182.77 256.27C184.057 255.522 188.241 255.44 191.431 255.497C189.014 255.548 186.676 255.744 185.77 256.27C183.6 257.53 155.6 306.86 155.6 306.86L153.264 305.692ZM142.846 362.504C139.393 364.309 135.04 358.4 135.04 358.4L93.8701 277.63L118.38 264.12L119.138 265.356L96.8701 277.63L138.04 358.4C138.04 358.4 140.295 361.461 142.846 362.504ZM176.573 330.834C178.586 328.649 179.83 327.29 179.83 327.29L169.025 476.159C167.143 476.362 166 476.5 166 476.5L176.573 330.834Z" fill="white" fill-opacity="0.3"/>
        <path d="M177.14 323.56L179.09 304.16L164.54 341.16L176.83 328.28L177.14 323.56Z" fill="#565656" fill-opacity="0.3"/>
        <path d="M175.57 309.24C175.451 309.239 175.335 309.195 175.246 309.116C175.156 309.037 175.097 308.928 175.08 308.81C174.76 306.62 172.65 277.04 172.56 275.81C172.556 275.744 172.564 275.678 172.585 275.616C172.606 275.554 172.639 275.496 172.682 275.446C172.769 275.346 172.893 275.284 173.025 275.275C173.158 275.266 173.289 275.31 173.389 275.397C173.489 275.484 173.551 275.607 173.56 275.74C173.56 276.05 175.76 306.54 176.07 308.74C176.087 308.871 176.052 309.004 175.971 309.109C175.89 309.214 175.772 309.283 175.64 309.3L175.57 309.24Z" fill="#274430"/>
        <path d="M173.06 320.55C172.94 320.552 172.824 320.51 172.732 320.433C172.64 320.356 172.579 320.248 172.56 320.13L169.11 298.13C169.099 298.066 169.1 298 169.115 297.936C169.129 297.872 169.157 297.812 169.195 297.759C169.233 297.705 169.281 297.66 169.337 297.626C169.393 297.592 169.455 297.57 169.52 297.56C169.653 297.54 169.788 297.573 169.896 297.651C170.005 297.73 170.078 297.848 170.1 297.98L173.55 319.98C173.561 320.045 173.56 320.111 173.545 320.174C173.531 320.238 173.504 320.298 173.465 320.352C173.427 320.405 173.379 320.45 173.323 320.484C173.267 320.518 173.205 320.54 173.14 320.55H173.06Z" fill="#274430"/>
        <path d="M136.92 328.09C136.848 328.109 136.772 328.109 136.7 328.09C136.583 328.032 136.494 327.93 136.451 327.807C136.408 327.684 136.415 327.548 136.47 327.43L144.64 310.43C144.665 310.366 144.703 310.308 144.752 310.259C144.8 310.211 144.858 310.173 144.922 310.148C144.986 310.122 145.054 310.111 145.123 310.113C145.192 310.116 145.259 310.132 145.321 310.162C145.383 310.191 145.438 310.233 145.483 310.285C145.528 310.337 145.562 310.398 145.583 310.463C145.603 310.529 145.61 310.598 145.603 310.666C145.595 310.734 145.574 310.8 145.54 310.86L137.37 327.86C137.324 327.936 137.257 327.998 137.178 328.039C137.098 328.08 137.009 328.097 136.92 328.09Z" fill="#274430"/>
        <path d="M145.72 322.75C145.644 322.749 145.569 322.732 145.5 322.7C145.382 322.64 145.293 322.536 145.25 322.412C145.207 322.287 145.214 322.15 145.27 322.03L151.87 308.83C151.899 308.771 151.939 308.718 151.989 308.675C152.038 308.631 152.096 308.598 152.158 308.578C152.221 308.557 152.287 308.55 152.353 308.555C152.418 308.561 152.482 308.579 152.54 308.61C152.599 308.639 152.652 308.679 152.696 308.728C152.739 308.778 152.773 308.835 152.794 308.897C152.816 308.96 152.824 309.025 152.82 309.091C152.816 309.157 152.799 309.221 152.77 309.28L146.17 322.47C146.129 322.554 146.065 322.625 145.985 322.675C145.906 322.724 145.814 322.75 145.72 322.75Z" fill="#274430"/>
        <path d="M218.94 364.54C218.837 364.543 218.735 364.513 218.65 364.453C218.566 364.394 218.502 364.308 218.47 364.21C213.64 350.7 210 329.77 207.79 314.58C207.773 314.45 207.807 314.319 207.886 314.214C207.964 314.11 208.081 314.04 208.21 314.02C208.341 314.003 208.473 314.037 208.58 314.115C208.686 314.193 208.758 314.31 208.78 314.44C210.98 329.58 214.61 350.44 219.41 363.88C219.432 363.942 219.441 364.007 219.437 364.073C219.434 364.138 219.417 364.202 219.388 364.26C219.359 364.319 219.319 364.372 219.269 364.414C219.22 364.457 219.162 364.49 219.1 364.51C219.049 364.53 218.995 364.54 218.94 364.54Z" fill="#274430"/>
        <path d="M207.3 307.9C207.18 307.899 207.063 307.856 206.971 307.777C206.88 307.698 206.819 307.589 206.8 307.47C206.2 302.91 205.87 300.02 205.87 300C205.861 299.907 205.877 299.812 205.918 299.728C205.958 299.643 206.021 299.571 206.1 299.52L217.58 292.05L203.46 289.75C203.372 289.737 203.29 289.7 203.221 289.644C203.152 289.588 203.1 289.514 203.07 289.43C203.04 289.346 203.033 289.256 203.049 289.168C203.064 289.08 203.103 288.998 203.16 288.93C203.16 288.93 206.32 285.13 209.41 280.49C212.5 275.85 222.5 260.49 222.6 260.39C222.674 260.278 222.789 260.2 222.92 260.172C223.051 260.144 223.187 260.168 223.3 260.24C223.41 260.313 223.486 260.427 223.512 260.556C223.539 260.685 223.513 260.82 223.44 260.93C223.34 261.09 213.35 276.39 210.24 281.05C207.89 284.57 205.52 287.6 204.47 288.9L219 291.28C219.1 291.296 219.193 291.342 219.266 291.411C219.339 291.481 219.389 291.571 219.41 291.67C219.429 291.769 219.418 291.871 219.379 291.963C219.34 292.056 219.274 292.135 219.19 292.19L206.88 300.19C206.98 301.04 207.28 303.64 207.77 307.34C207.787 307.471 207.752 307.604 207.671 307.709C207.59 307.814 207.471 307.883 207.34 307.9H207.3Z" fill="#274430"/>
        <path d="M452.93 238.9L453.013 237.903L453.013 237.903L453.011 237.903L453.006 237.903L452.983 237.901L452.892 237.893C452.813 237.886 452.696 237.876 452.547 237.863C452.249 237.837 451.821 237.799 451.305 237.751C450.272 237.656 448.888 237.521 447.477 237.366C446.063 237.21 444.634 237.035 443.509 236.857C442.945 236.769 442.473 236.682 442.123 236.6C441.948 236.559 441.82 236.523 441.733 236.493C441.708 236.485 441.69 236.478 441.679 236.473C441.503 236.354 441.303 236.277 441.17 236.229C440.993 236.165 440.783 236.103 440.556 236.042C440.1 235.919 439.517 235.788 438.861 235.653C437.546 235.383 435.887 235.089 434.267 234.819C433.18 234.637 432.105 234.465 431.158 234.317L432.035 233.905L432.04 233.903L431.61 233C432.04 233.903 432.041 233.902 432.041 233.902L432.041 233.902L432.043 233.901L432.047 233.899L432.061 233.893L432.108 233.87C432.148 233.85 432.205 233.821 432.277 233.784C432.42 233.71 432.623 233.602 432.869 233.461C433.361 233.182 434.032 232.771 434.749 232.248C436.152 231.224 437.872 229.669 438.658 227.701C439.437 225.754 439.113 223.971 437.807 223.098C436.521 222.24 434.821 222.649 433.771 223.995C433.5 224.343 432.976 224.745 432.191 225.178C431.424 225.6 430.491 226.006 429.488 226.395C428.488 226.783 427.441 227.146 426.448 227.486C426.358 227.517 426.268 227.548 426.179 227.578C425.293 227.882 424.45 228.17 423.76 228.437C422.405 228.961 421.092 229.177 419.591 229.344C419.217 229.385 418.829 229.424 418.425 229.464C417.23 229.583 415.901 229.715 414.426 229.975C410.194 230.721 406.607 233.694 403.141 238.299C401.379 240.639 398.79 245.306 396.672 249.317C395.605 251.337 394.646 253.214 393.953 254.586C393.607 255.272 393.327 255.832 393.133 256.221C393.037 256.416 392.962 256.567 392.911 256.67L392.853 256.788L392.838 256.818L392.834 256.826L392.833 256.828L392.833 256.829C392.833 256.829 392.832 256.829 393.73 257.27L392.832 256.829L392.428 257.652L393.213 258.126L406.373 266.066L407.32 266.637L407.793 265.639L413.828 252.922C413.894 252.931 413.964 252.941 414.037 252.95C414.639 253.031 415.505 253.14 416.565 253.26C418.684 253.5 421.583 253.779 424.699 253.936C427.812 254.094 431.163 254.131 434.18 253.881C437.161 253.634 439.954 253.098 441.854 252.02C445.417 249.997 448.404 246.82 450.479 244.198C451.523 242.88 452.349 241.685 452.915 240.818C453.199 240.385 453.418 240.032 453.567 239.787C453.641 239.664 453.698 239.568 453.737 239.501C453.744 239.49 453.749 239.48 453.755 239.471C453.766 239.452 453.775 239.436 453.782 239.424L453.794 239.403L453.798 239.397L453.799 239.395L453.799 239.395C453.799 239.394 453.799 239.394 452.93 238.9ZM452.93 238.9L453.013 237.903L454.573 238.034L453.799 239.394L452.93 238.9Z" fill="white" stroke="#274430" stroke-width="2"/>
        <path d="M457.855 237.66L458.125 237.085L457.22 236.66C458.125 237.085 458.125 237.085 458.125 237.085L458.125 237.085L458.126 237.084L458.128 237.079L458.136 237.062L458.166 236.998C458.192 236.942 458.23 236.859 458.278 236.755C458.375 236.545 458.512 236.245 458.675 235.879C459.002 235.149 459.435 234.156 459.86 233.11C460.284 232.068 460.706 230.956 461.006 229.992C461.155 229.51 461.28 229.048 461.358 228.638C461.43 228.258 461.485 227.814 461.414 227.423C461.27 226.623 460.73 226.094 460.034 225.901C459.418 225.73 458.752 225.835 458.18 226.038C457.026 226.447 455.78 227.422 455.144 228.788C454.665 229.814 453.569 231.622 452.557 233.222C452.058 234.011 451.591 234.732 451.248 235.257C451.076 235.519 450.936 235.731 450.839 235.878L450.727 236.047L450.698 236.091L450.691 236.102L450.689 236.104L450.688 236.105L450.688 236.105L451.52 236.66L450.688 236.105L449.651 237.66H451.52H457.22H457.855Z" fill="white" stroke="#274430" stroke-width="2"/>
        <path d="M457.22 237.16H451.52C451.43 237.157 451.341 237.131 451.264 237.084C451.187 237.036 451.124 236.969 451.08 236.89C451.031 236.814 451.005 236.726 451.005 236.635C451.005 236.545 451.031 236.456 451.08 236.38C451.08 236.38 454.57 231.13 455.57 228.99C455.919 228.216 456.48 227.555 457.187 227.085C457.895 226.614 458.721 226.353 459.57 226.33C459.884 226.354 460.181 226.483 460.412 226.698C460.642 226.912 460.793 227.199 460.84 227.51C461.15 229.19 458.19 235.6 457.59 236.87C457.556 236.945 457.505 237.01 457.44 237.06C457.376 237.111 457.3 237.145 457.22 237.16ZM452.45 236.16H456.9C458.23 233.3 460.12 228.71 459.9 227.69C459.9 227.52 459.8 227.36 459.48 227.32C458.838 227.369 458.22 227.589 457.692 227.959C457.164 228.328 456.746 228.833 456.48 229.42C455.251 231.733 453.906 233.983 452.45 236.16Z" fill="#274430"/>
        <path d="M443.47 251.26C443.503 252.26 443.503 252.26 443.504 252.26L443.504 252.259L443.506 252.259L443.512 252.259L443.531 252.259L443.599 252.256C443.658 252.253 443.743 252.248 443.851 252.242C444.067 252.228 444.377 252.206 444.759 252.168C445.521 252.094 446.576 251.961 447.751 251.724C450.06 251.26 452.999 250.367 455.018 248.603C456.03 247.719 457.111 246.309 458.141 244.764C459.183 243.202 460.218 241.432 461.132 239.774C462.047 238.115 462.847 236.557 463.418 235.414C463.704 234.843 463.932 234.374 464.09 234.048C464.169 233.885 464.23 233.758 464.271 233.671L464.318 233.571L464.331 233.545L464.334 233.538L464.335 233.536L464.335 233.536C464.335 233.536 464.335 233.536 463.43 233.11L464.335 233.536L464.474 233.241L464.412 232.922C464.254 232.093 463.978 231.383 463.526 230.864C463.043 230.309 462.414 230.038 461.735 230.029C461.101 230.021 460.483 230.24 459.933 230.531C459.374 230.828 458.814 231.237 458.277 231.699C456.154 233.525 453.984 236.522 453.029 238.308C452.621 239.069 451.794 240.211 450.73 241.54C449.681 242.851 448.444 244.291 447.259 245.633C446.074 246.973 444.945 248.208 444.111 249.109C443.695 249.559 443.353 249.926 443.115 250.179C442.996 250.306 442.903 250.404 442.84 250.471L442.769 250.546L442.751 250.565L442.746 250.57L442.745 250.571L442.745 250.572L443.47 251.26ZM443.47 251.26L443.503 252.26L441.066 252.34L442.745 250.572L443.47 251.26Z" fill="white" stroke="#274430" stroke-width="2"/>
        <path d="M443.47 251.76C443.374 251.758 443.281 251.729 443.201 251.676C443.121 251.623 443.058 251.548 443.02 251.46C442.98 251.37 442.967 251.269 442.983 251.172C442.999 251.074 443.043 250.983 443.11 250.91C443.2 250.82 451.71 241.85 453.47 238.55C454.82 236.02 459.19 230.11 462.01 230.55C463.01 230.7 463.64 231.55 463.92 233.02C463.95 233.118 463.95 233.222 463.92 233.32C463.69 233.8 458.39 245.02 454.72 248.23C451.05 251.44 443.82 251.75 443.52 251.76H443.47ZM461.68 231.53C459.68 231.53 455.77 236.36 454.35 239.02C452.93 241.68 446.98 248.24 444.72 250.66C446.92 250.44 451.47 249.72 454.03 247.48C457.32 244.6 462.26 234.41 462.91 233.05C462.71 232.12 462.35 231.62 461.86 231.54L461.68 231.53Z" fill="#274430"/>
        <path d="M439.09 252.28C439.12 253.28 439.12 253.28 439.121 253.28L439.121 253.279L439.123 253.279L439.129 253.279L439.148 253.279L439.216 253.276C439.275 253.273 439.36 253.269 439.468 253.263C439.684 253.25 439.994 253.228 440.376 253.191C441.138 253.119 442.194 252.988 443.369 252.753C445.679 252.293 448.619 251.402 450.639 249.632C451.65 248.746 452.731 247.334 453.761 245.788C454.802 244.224 455.838 242.453 456.752 240.795C457.667 239.135 458.467 237.577 459.038 236.434C459.323 235.863 459.552 235.394 459.709 235.068C459.788 234.905 459.849 234.778 459.891 234.691L459.938 234.591L459.95 234.565L459.954 234.558L459.954 234.556L459.955 234.556C459.955 234.556 459.955 234.555 459.05 234.13L459.955 234.555L460.093 234.261L460.032 233.942C459.873 233.114 459.597 232.405 459.145 231.886C458.662 231.332 458.034 231.061 457.355 231.052C456.721 231.043 456.103 231.262 455.553 231.553C454.994 231.849 454.434 232.257 453.897 232.719C451.774 234.542 449.604 237.537 448.648 239.329C448.24 240.092 447.413 241.235 446.35 242.564C445.3 243.876 444.064 245.315 442.878 246.656C441.694 247.996 440.565 249.23 439.731 250.13C439.315 250.58 438.973 250.946 438.735 251.199C438.616 251.325 438.523 251.424 438.46 251.49L438.389 251.566L438.371 251.585L438.366 251.59L438.365 251.591L438.365 251.591L439.09 252.28ZM439.09 252.28L439.12 253.28L436.69 253.353L438.365 251.591L439.09 252.28Z" fill="white" stroke="#274430" stroke-width="2"/>
        <path d="M439.09 252.78C438.994 252.778 438.901 252.749 438.821 252.696C438.741 252.643 438.678 252.568 438.64 252.48C438.597 252.392 438.582 252.292 438.598 252.196C438.614 252.099 438.66 252.009 438.73 251.94C438.82 251.84 447.32 242.87 449.08 239.57C450.43 237.04 454.78 231.14 457.62 231.57C458.62 231.72 459.26 232.57 459.54 234.03C459.574 234.131 459.574 234.24 459.54 234.34C459.32 234.81 454.01 246.04 450.35 249.24C446.69 252.44 439.45 252.76 439.15 252.77L439.09 252.78ZM457.3 232.55C455.25 232.55 451.38 237.38 449.97 240.04C448.47 242.85 442.6 249.26 440.34 251.68C442.54 251.46 447.09 250.74 449.65 248.5C452.94 245.62 457.88 235.43 458.53 234.07C458.33 233.15 457.97 232.64 457.47 232.57L457.3 232.55Z" fill="#274430"/>
        <mask id="path-48-outside-2_345_3170" maskUnits="userSpaceOnUse" x="407.83" y="229.72" width="49" height="27" fill="black">
            <rect fill="white" x="407.83" y="229.72" width="49" height="27"/>
            <path d="M409.83 245.93C409.83 245.93 410.97 244.11 414.83 241.62C418.69 239.13 439.1 245.47 439.1 245.47C439.1 245.47 448.4 233.91 449.76 232.77C451.12 231.63 453.62 230.96 454.07 233.23C454.52 235.5 448.4 245.23 446.81 246.84C445.22 248.45 439.1 252.28 439.1 252.28C435.38 253.559 431.463 254.172 427.53 254.09C422.715 253.744 417.937 252.988 413.25 251.83"/>
        </mask>
        <path d="M409.83 245.93C409.83 245.93 410.97 244.11 414.83 241.62C418.69 239.13 439.1 245.47 439.1 245.47C439.1 245.47 448.4 233.91 449.76 232.77C451.12 231.63 453.62 230.96 454.07 233.23C454.52 235.5 448.4 245.23 446.81 246.84C445.22 248.45 439.1 252.28 439.1 252.28C435.38 253.559 431.463 254.172 427.53 254.09C422.715 253.744 417.937 252.988 413.25 251.83" fill="white"/>
        <path d="M439.1 245.47L438.507 247.38L439.806 247.784L440.658 246.724L439.1 245.47ZM439.1 252.28L439.751 254.171L439.967 254.097L440.161 253.975L439.1 252.28ZM427.53 254.09L427.387 256.085L427.437 256.089L427.488 256.09L427.53 254.09ZM409.83 245.93C411.525 246.992 411.525 246.992 411.524 246.993C411.524 246.993 411.523 246.994 411.523 246.995C411.523 246.996 411.522 246.996 411.521 246.997C411.52 246.999 411.519 247.001 411.518 247.002C411.516 247.005 411.515 247.008 411.513 247.01C411.51 247.015 411.509 247.017 411.508 247.018C411.507 247.02 411.51 247.015 411.518 247.003C411.535 246.98 411.572 246.929 411.632 246.854C411.752 246.704 411.964 246.455 412.296 246.124C412.957 245.463 414.096 244.474 415.914 243.301L413.746 239.939C411.704 241.256 410.343 242.422 409.47 243.293C409.033 243.729 408.72 244.09 408.505 244.359C408.398 244.494 408.315 244.605 408.255 244.691C408.224 244.733 408.2 244.77 408.18 244.8C408.17 244.814 408.161 244.828 408.154 244.839C408.15 244.845 408.147 244.85 408.144 244.855C408.142 244.857 408.141 244.86 408.139 244.862C408.138 244.863 408.138 244.864 408.137 244.865C408.137 244.866 408.136 244.867 408.136 244.867C408.136 244.868 408.135 244.868 409.83 245.93ZM415.914 243.301C415.911 243.303 415.931 243.289 415.985 243.268C416.039 243.246 416.117 243.22 416.224 243.193C416.441 243.139 416.737 243.093 417.121 243.066C417.892 243.012 418.883 243.045 420.053 243.161C422.387 243.393 425.207 243.931 427.968 244.561C430.717 245.188 433.355 245.894 435.309 246.444C436.285 246.718 437.087 246.953 437.645 247.119C437.923 247.202 438.14 247.268 438.287 247.313C438.36 247.335 438.416 247.352 438.453 247.363C438.472 247.369 438.486 247.373 438.494 247.376C438.499 247.378 438.502 247.379 438.504 247.379C438.505 247.38 438.506 247.38 438.506 247.38C438.507 247.38 438.507 247.38 438.507 247.38C438.507 247.38 438.507 247.38 439.1 245.47C439.693 243.56 439.693 243.56 439.693 243.56C439.693 243.56 439.692 243.56 439.692 243.56C439.691 243.559 439.69 243.559 439.688 243.559C439.686 243.558 439.681 243.556 439.676 243.555C439.665 243.551 439.65 243.547 439.63 243.54C439.589 243.528 439.53 243.51 439.453 243.486C439.299 243.439 439.074 243.371 438.787 243.286C438.213 243.115 437.39 242.874 436.393 242.593C434.399 242.032 431.693 241.308 428.857 240.661C426.033 240.017 423.027 239.437 420.449 239.181C419.162 239.053 417.925 239 416.841 239.075C415.819 239.147 414.662 239.348 413.746 239.939L415.914 243.301ZM439.1 245.47C440.658 246.724 440.658 246.724 440.658 246.724C440.659 246.724 440.659 246.723 440.659 246.723C440.659 246.723 440.659 246.722 440.66 246.722C440.661 246.72 440.663 246.718 440.665 246.716C440.669 246.71 440.676 246.702 440.685 246.691C440.702 246.669 440.728 246.637 440.762 246.595C440.83 246.51 440.931 246.386 441.059 246.227C441.315 245.91 441.682 245.455 442.128 244.906C443.019 243.806 444.221 242.33 445.465 240.818C446.709 239.305 447.99 237.765 449.041 236.535C449.567 235.919 450.029 235.39 450.395 234.984C450.579 234.782 450.731 234.617 450.852 234.493C450.912 234.431 450.96 234.383 450.997 234.348C451.035 234.311 451.05 234.299 451.045 234.303L448.475 231.237C448.182 231.483 447.798 231.893 447.428 232.302C447.026 232.747 446.537 233.308 446 233.936C444.925 235.194 443.626 236.757 442.376 238.277C441.124 239.798 439.916 241.283 439.021 242.386C438.573 242.938 438.204 243.396 437.946 243.715C437.817 243.875 437.716 244 437.648 244.085C437.613 244.128 437.587 244.161 437.569 244.183C437.56 244.194 437.553 244.202 437.549 244.208C437.546 244.211 437.545 244.213 437.544 244.214C437.543 244.215 437.543 244.215 437.542 244.216C437.542 244.216 437.542 244.216 437.542 244.216C437.542 244.216 437.542 244.216 439.1 245.47ZM451.045 234.303C451.236 234.143 451.482 233.988 451.74 233.877C452.004 233.762 452.207 233.724 452.318 233.72C452.423 233.717 452.337 233.744 452.2 233.642C452.044 233.525 452.071 233.429 452.108 233.619L456.032 232.841C455.845 231.896 455.39 231.033 454.596 230.439C453.821 229.859 452.941 229.699 452.195 229.722C450.776 229.766 449.396 230.466 448.475 231.237L451.045 234.303ZM452.108 233.619C452.073 233.44 452.128 233.474 452.018 233.894C451.925 234.25 451.756 234.724 451.509 235.304C451.017 236.46 450.287 237.863 449.47 239.288C448.657 240.705 447.783 242.103 447.019 243.237C446.222 244.422 445.636 245.183 445.387 245.435L448.233 248.245C448.779 247.692 449.555 246.633 450.338 245.47C451.155 244.256 452.08 242.777 452.94 241.277C453.796 239.784 454.611 238.229 455.189 236.872C455.477 236.195 455.726 235.524 455.887 234.907C456.032 234.355 456.18 233.588 456.032 232.841L452.108 233.619ZM445.387 245.435C444.764 246.066 443.028 247.308 441.245 248.502C440.395 249.072 439.592 249.594 439.001 249.973C438.706 250.163 438.464 250.316 438.297 250.422C438.213 250.475 438.148 250.516 438.104 250.544C438.082 250.558 438.066 250.568 438.055 250.575C438.049 250.578 438.045 250.581 438.043 250.582C438.041 250.583 438.04 250.584 438.04 250.584C438.039 250.584 438.039 250.585 438.039 250.585C438.039 250.585 438.039 250.585 438.039 250.585C438.039 250.585 438.039 250.585 439.1 252.28C440.161 253.975 440.161 253.975 440.161 253.975C440.161 253.975 440.161 253.975 440.162 253.975C440.162 253.975 440.162 253.975 440.163 253.974C440.164 253.974 440.165 253.973 440.167 253.972C440.17 253.97 440.175 253.967 440.181 253.963C440.193 253.955 440.211 253.944 440.234 253.929C440.281 253.9 440.349 253.857 440.436 253.802C440.609 253.692 440.858 253.534 441.162 253.34C441.768 252.951 442.594 252.414 443.472 251.825C445.147 250.702 447.266 249.224 448.233 248.245L445.387 245.435ZM438.45 250.389C434.952 251.592 431.27 252.168 427.572 252.09L427.488 256.09C431.657 256.177 435.808 255.527 439.751 254.171L438.45 250.389ZM427.674 252.095C422.971 251.757 418.306 251.019 413.73 249.888L412.771 253.772C417.568 254.956 422.458 255.73 427.387 256.085L427.674 252.095Z" fill="#274430" mask="url(#path-48-outside-2_345_3170)"/>
        <path d="M384.94 268.648L384.389 269.622L385.419 270.06L408.359 279.81L409.291 280.206L409.675 279.27L414.705 267.01L415.031 266.216L414.296 265.774L394.496 253.834L393.616 253.303L393.11 254.198L384.94 268.648Z" fill="white" stroke="#274430" stroke-width="2"/>
        <path d="M331.698 330.063C332.473 330.906 333.452 331.969 334.582 333.193C337.495 336.346 341.415 340.571 345.444 344.855C349.472 349.138 353.613 353.485 356.966 356.881C358.641 358.578 360.126 360.044 361.305 361.148C361.894 361.7 362.413 362.167 362.846 362.531C363.261 362.879 363.65 363.179 363.963 363.349C365.133 363.985 366.356 363.931 367.439 363.576C368.503 363.228 369.488 362.575 370.301 361.909C371.123 361.236 371.82 360.508 372.309 359.953C372.555 359.674 372.75 359.436 372.886 359.266C372.954 359.181 373.007 359.113 373.044 359.064C373.062 359.04 373.077 359.021 373.087 359.008L373.099 358.992L373.103 358.987L373.104 358.985L373.104 358.984C373.105 358.984 373.105 358.984 372.3 358.39L373.105 358.984L373.154 358.918L373.191 358.844L414.351 278.084L414.79 277.222L413.944 276.755L389.484 263.245L388.648 262.783L388.148 263.597L361.701 306.697L358.479 304.468L357.993 304.131L357.463 304.396L355.171 305.542C354.979 305.203 354.73 304.767 354.432 304.243C353.662 302.891 352.559 300.959 351.229 298.636C348.57 293.99 345.001 287.782 341.363 281.534C337.727 275.288 334.019 268.996 331.083 264.185C329.616 261.781 328.337 259.738 327.353 258.253C326.863 257.512 326.438 256.898 326.095 256.444C325.925 256.218 325.766 256.019 325.623 255.859C325.503 255.726 325.32 255.531 325.102 255.405C324.692 255.167 324.167 255.013 323.643 254.903C323.1 254.789 322.474 254.705 321.813 254.644C320.488 254.522 318.95 254.483 317.502 254.483C316.049 254.483 314.667 254.522 313.65 254.562C313.141 254.582 312.722 254.602 312.43 254.617C312.284 254.624 312.17 254.63 312.092 254.635L312.002 254.64L311.978 254.641L311.972 254.642L311.971 254.642L311.97 254.642C311.97 254.642 311.97 254.642 312.03 255.64L311.97 254.642L311.959 254.643L311.949 254.643L285.089 256.832L275.226 254.859L273.582 254.531L274.074 256.133L277.18 266.251L290.002 466.064L290.067 467.082L291.084 466.996L291.084 466.996L291.085 466.996L291.091 466.996L291.114 466.994L291.209 466.986C291.292 466.98 291.415 466.97 291.576 466.958C291.896 466.934 292.364 466.901 292.947 466.864C294.114 466.79 295.744 466.701 297.596 466.641C301.316 466.522 305.873 466.525 309.368 466.991C315.985 467.874 323.763 470.583 329.933 473.101C333.008 474.355 335.664 475.555 337.551 476.44C338.495 476.882 339.245 477.246 339.759 477.498C340.016 477.625 340.213 477.723 340.346 477.79C340.412 477.823 340.463 477.849 340.496 477.866L340.533 477.885L340.542 477.889L340.545 477.89L340.545 477.89L342.121 478.696L341.998 476.93L331.698 330.063Z" fill="#B691E3" stroke="#274430" stroke-width="2"/>
        <path fill-rule="evenodd" clip-rule="evenodd" d="M330.748 330.814L341 477C341 477 339.842 476.408 337.894 475.496L327.5 327.28C327.5 327.28 328.74 328.635 330.748 330.814ZM364.485 362.494C363.476 362.906 362.42 363.002 361.44 362.47C358.678 360.969 338.696 339.438 330.748 330.814L330.5 327.28C330.5 327.28 360.98 360.59 364.44 362.47C364.455 362.478 364.47 362.486 364.485 362.494ZM388.241 265.357L389 264.12L413.46 277.63L372.3 358.39C372.3 358.39 367.938 364.298 364.485 362.494C367.04 361.452 369.3 358.39 369.3 358.39L410.46 277.63L388.241 265.357ZM359.894 306.663L386 264.12L388.241 265.357L362 308.12L359.894 306.663ZM356.168 306.161L357.91 305.29L359.894 306.663L359 308.12L356.168 306.161ZM354.106 305.692L354.91 305.29L356.168 306.161L354.77 306.86C354.77 306.86 354.535 306.445 354.106 305.692ZM315.939 255.497C319.129 255.44 323.313 255.522 324.6 256.27C326.571 257.414 349.855 298.222 354.106 305.692L351.77 306.86C351.77 306.86 323.77 257.53 321.6 256.27C320.695 255.744 318.357 255.547 315.939 255.497Z" fill="#565656" fill-opacity="0.3"/>
        <path d="M271 266.07L283.83 466C283.83 466 289.166 465.902 290.987 465.8L278.17 266.07L276 259L270.5 262.5L271 266.07Z" fill="#565656" fill-opacity="0.3"/>
        <path d="M327.5 327.28L327.12 311.95L339.25 339.25L327.5 327.28Z" fill="#565656" fill-opacity="0.3"/>
        <path d="M330.19 323.06C330.064 323.06 329.943 323.013 329.85 322.928C329.757 322.843 329.7 322.726 329.69 322.6L326.86 281.12C326.856 281.054 326.864 280.988 326.885 280.926C326.906 280.864 326.939 280.806 326.982 280.756C327.025 280.707 327.078 280.666 327.136 280.637C327.195 280.607 327.259 280.59 327.325 280.585C327.391 280.58 327.457 280.589 327.519 280.61C327.582 280.631 327.639 280.664 327.689 280.707C327.739 280.75 327.779 280.803 327.809 280.861C327.838 280.92 327.856 280.984 327.86 281.05L330.69 322.53C330.694 322.596 330.685 322.662 330.664 322.724C330.642 322.786 330.609 322.843 330.565 322.893C330.521 322.942 330.469 322.982 330.409 323.011C330.35 323.039 330.286 323.056 330.22 323.06H330.19Z" fill="#274430"/>
        <path d="M331.76 309.24H331.69C331.561 309.22 331.444 309.151 331.366 309.046C331.287 308.941 331.253 308.81 331.27 308.68C331.57 306.52 333.08 289.12 333.09 288.95C333.107 288.818 333.174 288.698 333.275 288.613C333.377 288.528 333.507 288.484 333.64 288.49C333.771 288.503 333.892 288.567 333.976 288.668C334.06 288.769 334.101 288.899 334.09 289.03C334.03 289.75 332.57 306.63 332.26 308.82C332.239 308.938 332.177 309.044 332.086 309.121C331.995 309.197 331.879 309.24 331.76 309.24Z" fill="#274430"/>
        <path d="M334.28 320.55H334.2C334.135 320.542 334.071 320.52 334.014 320.486C333.957 320.453 333.908 320.408 333.868 320.355C333.829 320.301 333.801 320.241 333.786 320.176C333.771 320.112 333.769 320.045 333.78 319.98L337.24 297.98C337.25 297.914 337.273 297.851 337.307 297.794C337.341 297.738 337.386 297.688 337.44 297.648C337.493 297.609 337.554 297.58 337.618 297.564C337.683 297.548 337.75 297.545 337.815 297.555C337.881 297.565 337.944 297.588 338.001 297.622C338.058 297.656 338.107 297.701 338.147 297.755C338.186 297.808 338.215 297.869 338.231 297.933C338.247 297.997 338.25 298.064 338.24 298.13L334.78 320.13C334.763 320.249 334.703 320.358 334.61 320.435C334.518 320.513 334.401 320.554 334.28 320.55Z" fill="#274430"/>
        <path d="M363.83 320.22C363.712 320.217 363.599 320.174 363.51 320.097C363.421 320.021 363.361 319.916 363.34 319.8L361.75 310.71C361.739 310.644 361.741 310.577 361.755 310.512C361.77 310.447 361.798 310.386 361.836 310.332C361.875 310.277 361.924 310.231 361.98 310.196C362.036 310.16 362.099 310.136 362.165 310.125C362.231 310.114 362.298 310.116 362.363 310.131C362.428 310.145 362.489 310.173 362.543 310.211C362.598 310.25 362.644 310.299 362.679 310.355C362.715 310.412 362.739 310.474 362.75 310.54L364.35 319.63C364.37 319.761 364.339 319.895 364.262 320.003C364.186 320.111 364.07 320.186 363.94 320.21L363.83 320.22Z" fill="#274430"/>
        <path d="M354.91 315.76C354.779 315.753 354.656 315.696 354.565 315.601C354.474 315.507 354.422 315.381 354.42 315.25L354.52 309.04C354.534 308.911 354.592 308.792 354.686 308.702C354.779 308.613 354.901 308.559 355.03 308.55C355.096 308.551 355.16 308.566 355.221 308.592C355.281 308.618 355.335 308.656 355.381 308.704C355.426 308.751 355.462 308.807 355.486 308.868C355.51 308.929 355.521 308.994 355.52 309.06L355.42 315.26C355.42 315.327 355.407 315.392 355.381 315.454C355.355 315.515 355.317 315.571 355.27 315.617C355.222 315.664 355.166 315.7 355.104 315.725C355.042 315.749 354.976 315.761 354.91 315.76Z" fill="#274430"/>
        <path d="M288.4 364.54C288.344 364.555 288.286 364.555 288.23 364.54C288.106 364.497 288.004 364.406 287.946 364.289C287.888 364.171 287.879 364.035 287.92 363.91C288.68 361.79 289.44 359.39 290.18 356.77C290.198 356.704 290.228 356.643 290.27 356.589C290.311 356.535 290.363 356.49 290.422 356.456C290.481 356.422 290.546 356.4 290.613 356.391C290.681 356.383 290.749 356.387 290.815 356.405C290.881 356.423 290.942 356.453 290.996 356.495C291.05 356.536 291.095 356.588 291.129 356.647C291.163 356.706 291.185 356.771 291.194 356.838C291.202 356.906 291.198 356.974 291.18 357.04C290.43 359.68 289.66 362.11 288.9 364.24C288.859 364.336 288.788 364.417 288.698 364.47C288.609 364.524 288.504 364.549 288.4 364.54Z" fill="#274430"/>
        <path d="M292 352.59H291.87C291.743 352.557 291.635 352.476 291.568 352.363C291.5 352.251 291.48 352.117 291.51 351.99C296.83 330.99 300.11 303.42 300.51 300.21L288.2 292.21C288.116 292.155 288.051 292.076 288.013 291.983C287.976 291.89 287.968 291.788 287.99 291.69C288.008 291.591 288.056 291.501 288.127 291.431C288.199 291.361 288.291 291.315 288.39 291.3L302.94 288.92C301.94 287.62 299.52 284.59 297.17 281.07C294.06 276.41 284.07 261.07 283.97 260.95C283.907 260.839 283.888 260.708 283.919 260.583C283.949 260.459 284.026 260.351 284.134 260.282C284.242 260.212 284.372 260.187 284.498 260.211C284.623 260.235 284.735 260.306 284.81 260.41C284.91 260.56 294.9 275.86 298 280.51C301.1 285.16 304.23 288.92 304.26 288.95C304.314 289.02 304.35 289.103 304.364 289.19C304.378 289.277 304.369 289.367 304.34 289.45C304.31 289.534 304.258 289.608 304.189 289.664C304.121 289.72 304.038 289.757 303.95 289.77L289.83 292.07L301.32 299.54C301.398 299.592 301.46 299.664 301.499 299.749C301.537 299.833 301.552 299.927 301.54 300.02C301.54 300.31 298.16 329.92 292.54 352.23C292.508 352.344 292.435 352.444 292.336 352.51C292.237 352.576 292.118 352.604 292 352.59Z" fill="#274430"/>
        <path d="M234 235.807L234.405 234.893L232.994 234.268L233 235.811L233.079 257.147L233.081 257.669L233.51 257.966L255.011 272.823L255.62 273.243L256.2 272.784L273.621 258.986L274.033 258.659L273.998 258.135L272.39 233.934L272.269 232.105L270.797 233.197L271.392 234C270.797 233.197 270.797 233.197 270.797 233.197L270.796 233.197L270.794 233.198L270.787 233.204L270.759 233.225L270.646 233.308C270.548 233.381 270.403 233.488 270.217 233.625C269.847 233.898 269.315 234.289 268.671 234.759C267.383 235.7 265.649 236.958 263.859 238.229C262.068 239.501 260.23 240.78 258.732 241.765C257.982 242.259 257.327 242.672 256.811 242.971C256.553 243.122 256.34 243.238 256.173 243.319C256.067 243.371 255.997 243.4 255.958 243.415C255.927 243.413 255.869 243.407 255.776 243.391C255.578 243.356 255.305 243.291 254.957 243.192C254.264 242.996 253.348 242.688 252.277 242.297C250.138 241.519 247.441 240.438 244.788 239.339C242.138 238.241 239.541 237.129 237.607 236.292C236.64 235.873 235.839 235.523 235.28 235.278C235.001 235.155 234.782 235.059 234.632 234.993L234.463 234.918L234.419 234.899L234.408 234.894L234.406 234.893L234.405 234.893C234.405 234.893 234.405 234.893 234 235.807Z" fill="white" stroke="#274430" stroke-width="2"/>
        <path d="M231.54 253.44L254.91 247.65L231.29 238.01L231.54 253.44Z" fill="#565656" fill-opacity="0.3"/>
        <path d="M274 209.42C274 209.42 273.77 199.68 276.49 194.24C277.361 192.479 277.814 190.54 277.814 188.575C277.814 186.61 277.361 184.671 276.49 182.91L279 182C277.634 180.856 276.197 179.797 274.7 178.83C274.02 178.6 275.15 172.49 273.11 169.31C271.07 166.13 269.03 165.46 269.03 165.46L267.9 169.54C267.9 169.54 261.78 162.29 258.38 160.93C254.98 159.57 245.25 153 245 156.4C244.75 159.8 246.14 161.16 246.14 161.16C246.14 161.16 239.34 157.3 234.14 158.66C228.94 160.02 223.94 163.2 225.07 164.33C226.2 165.46 231.19 170.22 231.19 170.22C231.19 170.22 219.64 170.67 218.28 172.03C217.367 173.087 216.686 174.324 216.28 175.66L222.85 179.06C222.85 179.06 216.96 178.6 214.69 182.23C212.42 185.86 211.97 187.23 213.56 187.89C215.131 188.691 216.645 189.6 218.09 190.61C218.09 190.61 216.5 193.33 218.32 197.86C220.14 202.39 224.43 212.37 224.43 212.37C224.43 212.37 226.02 196.05 227.15 192.88C228.28 189.71 242.34 182.23 244.37 181.55C246.4 180.87 260.69 184.72 261.6 184.72C262.51 184.72 268.39 207.61 269.75 208.51C271.11 209.41 274 209.42 274 209.42Z" fill="#274430"/>
        <path fill-rule="evenodd" clip-rule="evenodd" d="M273.997 209.247C273.999 209.36 274 209.42 274 209.42C274 209.42 271.11 209.41 269.75 208.51C269.039 208.04 267.095 201.566 265.27 195.491C263.602 189.939 262.035 184.72 261.6 184.72C261.327 184.72 259.844 184.372 257.85 183.904C254.34 183.081 249.244 181.885 246.353 181.556C246.358 181.554 246.364 181.552 246.37 181.55C247.79 181.074 255.208 182.815 259.85 183.904C261.844 184.372 263.327 184.72 263.6 184.72C264.035 184.72 265.602 189.939 267.27 195.491C269.095 201.566 271.039 208.04 271.75 208.51C272.334 208.896 273.199 209.119 273.997 209.247ZM270.734 166.531L271.03 165.46C271.03 165.46 273.07 166.13 275.11 169.31C276.401 171.323 276.423 174.51 276.437 176.637C276.445 177.869 276.451 178.746 276.7 178.83C278.197 179.797 279.634 180.856 281 182L278.49 182.91C279.361 184.671 279.814 186.61 279.814 188.575C279.814 190.54 279.361 192.479 278.49 194.24C275.77 199.68 276 209.42 276 209.42C276 209.42 275.059 209.417 273.997 209.247C273.982 207.917 273.984 199.253 276.49 194.24C277.361 192.479 277.814 190.54 277.814 188.575C277.814 186.61 277.361 184.671 276.49 182.91L279 182C277.634 180.856 276.197 179.797 274.7 178.83C274.451 178.746 274.445 177.869 274.437 176.637C274.423 174.51 274.401 171.323 273.11 169.31C272.27 168.001 271.431 167.118 270.734 166.531ZM268.377 167.817L269.03 165.46C269.03 165.46 269.736 165.692 270.734 166.531L269.9 169.54C269.9 169.54 269.303 168.832 268.377 167.817ZM247.389 155.631C248.701 154.738 253.035 157.083 256.564 158.994C258.089 159.819 259.464 160.564 260.38 160.93C262.718 161.865 266.341 165.584 268.377 167.817L267.9 169.54C267.9 169.54 261.78 162.29 258.38 160.93C257.464 160.564 256.089 159.819 254.564 158.994C252.138 157.681 249.333 156.162 247.389 155.631ZM245.41 159.887C245.122 159.12 244.884 157.98 245 156.4C245.076 155.372 246.018 155.255 247.389 155.631C247.163 155.785 247.027 156.035 247 156.4C246.75 159.8 248.14 161.16 248.14 161.16C248.14 161.16 247.05 160.542 245.41 159.887ZM237.584 158.412C240.344 158.163 243.323 159.054 245.41 159.887C245.742 160.77 246.14 161.16 246.14 161.16C246.14 161.16 241.918 158.763 237.584 158.412ZM224.82 208.607C225.363 203.587 226.367 195.077 227.15 192.88C228.28 189.71 242.34 182.23 244.37 181.55C244.716 181.434 245.42 181.45 246.353 181.556C244.261 182.272 230.277 189.719 229.15 192.88C228.02 196.05 226.43 212.37 226.43 212.37C226.43 212.37 225.752 210.792 224.82 208.607ZM224.82 208.607C224.58 210.831 224.43 212.37 224.43 212.37C224.43 212.37 220.14 202.39 218.32 197.86C216.5 193.33 218.09 190.61 218.09 190.61C216.645 189.6 215.131 188.691 213.56 187.89C211.97 187.23 212.42 185.86 214.69 182.23C216.96 178.6 222.85 179.06 222.85 179.06L216.28 175.66C216.686 174.324 217.367 173.087 218.28 172.03C219.64 170.67 231.19 170.22 231.19 170.22C231.19 170.22 226.2 165.46 225.07 164.33C223.94 163.2 228.94 160.02 234.14 158.66C235.243 158.372 236.417 158.318 237.584 158.412C237.094 158.457 236.61 158.537 236.14 158.66C230.94 160.02 225.94 163.2 227.07 164.33C228.2 165.46 233.19 170.22 233.19 170.22C233.19 170.22 221.64 170.67 220.28 172.03C219.367 173.087 218.686 174.324 218.28 175.66L224.85 179.06C224.85 179.06 218.96 178.6 216.69 182.23C214.42 185.86 213.97 187.23 215.56 187.89C217.131 188.691 218.645 189.6 220.09 190.61C220.09 190.61 218.5 193.33 220.32 197.86C221.416 200.589 223.409 205.296 224.82 208.607Z" fill="white" fill-opacity="0.3"/>
        <path d="M224.4 212.87C224.303 212.868 224.209 212.837 224.129 212.782C224.049 212.727 223.987 212.65 223.95 212.56C223.95 212.46 219.62 202.56 217.82 198.05C216.33 194.33 217.04 191.76 217.43 190.79C216.123 189.881 214.753 189.065 213.33 188.35C213.064 188.26 212.821 188.11 212.62 187.913C212.419 187.715 212.265 187.475 212.17 187.21C211.83 186.12 212.6 184.59 214.24 181.96C215.78 179.49 218.81 178.78 220.84 178.6L216 176.1C215.896 176.05 215.812 175.964 215.766 175.857C215.721 175.75 215.715 175.631 215.75 175.52C216.188 174.1 216.924 172.791 217.91 171.68C219.15 170.44 226.71 169.94 229.99 169.77C228.52 168.36 225.55 165.52 224.71 164.68C224.569 164.548 224.469 164.377 224.423 164.189C224.377 164 224.386 163.803 224.45 163.62C224.94 161.81 229.9 159.25 234 158.18C237.92 157.18 242.6 158.92 244.93 159.99C244.542 158.825 244.395 157.593 244.5 156.37C244.502 156.121 244.57 155.877 244.696 155.663C244.822 155.449 245.003 155.272 245.22 155.15C246.73 154.32 250.14 156.03 254.79 158.55C256.27 159.35 257.67 160.11 258.56 160.47C261.43 161.61 266 166.62 267.66 168.47L268.54 165.29C268.56 165.224 268.592 165.163 268.634 165.11C268.677 165.057 268.73 165.013 268.79 164.98C268.851 164.951 268.918 164.936 268.985 164.936C269.053 164.936 269.119 164.951 269.18 164.98C269.27 164.98 271.41 165.75 273.52 168.98C274.89 171.11 274.91 174.4 274.92 176.58C274.906 177.174 274.933 177.769 275 178.36C276.499 179.336 277.939 180.402 279.31 181.55C279.379 181.608 279.432 181.682 279.464 181.766C279.495 181.85 279.504 181.941 279.49 182.03C279.473 182.116 279.433 182.197 279.375 182.264C279.318 182.33 279.243 182.381 279.16 182.41L277.16 183.13C277.959 184.909 278.352 186.843 278.31 188.792C278.269 190.741 277.794 192.657 276.92 194.4C274.29 199.67 274.48 209.25 274.48 209.35C274.48 209.485 274.426 209.615 274.33 209.71C274.286 209.758 274.231 209.796 274.171 209.822C274.111 209.848 274.046 209.861 273.98 209.86C273.85 209.86 270.86 209.86 269.4 208.86C268.66 208.37 267.58 205.11 264.71 195.56C263.42 191.29 261.84 186.02 261.3 185.13C260.84 185.07 259.83 184.83 257.67 184.33C253.8 183.42 245.75 181.52 244.45 181.95C242.33 182.66 228.57 190.09 227.54 192.95C226.45 196.03 224.87 212.15 224.85 212.31C224.841 212.421 224.794 212.526 224.718 212.607C224.642 212.689 224.54 212.743 224.43 212.76L224.4 212.87ZM222.22 179.54C220.74 179.54 216.77 179.8 215.08 182.54C213.75 184.68 212.9 186.25 213.08 186.96C213.08 187.09 213.23 187.29 213.69 187.49C215.29 188.3 216.831 189.222 218.3 190.25C218.406 190.321 218.481 190.431 218.508 190.555C218.536 190.68 218.516 190.81 218.45 190.92C218.45 190.92 217.02 193.51 218.71 197.73C220.04 201.05 222.71 207.37 224.06 210.45C224.52 206.01 225.7 195.33 226.61 192.76C227.88 189.21 242.49 181.68 244.15 181.13C245.59 180.64 251.48 181.96 257.9 183.47C259.63 183.88 261.27 184.26 261.53 184.27C262.19 184.27 262.44 184.65 265.67 195.39C267.22 200.52 269.33 207.53 269.98 208.16C271.074 208.679 272.269 208.953 273.48 208.96C273.48 206.83 273.62 198.89 276.03 194.07C276.857 192.377 277.286 190.519 277.286 188.635C277.286 186.751 276.857 184.893 276.03 183.2C275.996 183.137 275.975 183.067 275.97 182.995C275.966 182.923 275.976 182.85 276.002 182.783C276.028 182.715 276.068 182.654 276.119 182.604C276.171 182.553 276.232 182.514 276.3 182.49L277.96 181.89C276.867 180.965 275.711 180.116 274.5 179.35C273.91 179.16 273.91 178.44 273.89 176.69C273.89 174.63 273.89 171.52 272.65 169.63C271.824 168.244 270.679 167.074 269.31 166.22L268.31 169.72C268.287 169.808 268.241 169.888 268.175 169.951C268.11 170.015 268.029 170.059 267.94 170.08C267.851 170.098 267.758 170.092 267.672 170.062C267.586 170.032 267.509 169.98 267.45 169.91C267.39 169.84 261.37 162.74 258.13 161.44C256.804 160.84 255.509 160.172 254.25 159.44C251.25 157.83 246.79 155.44 245.64 156.03C245.59 156.03 245.46 156.13 245.44 156.44C245.24 159.53 246.44 160.8 246.44 160.82C246.52 160.91 246.564 161.025 246.564 161.145C246.564 161.265 246.52 161.38 246.44 161.47C246.367 161.565 246.262 161.63 246.144 161.654C246.027 161.678 245.905 161.659 245.8 161.6C245.74 161.6 239.12 157.87 234.16 159.16C229.52 160.37 225.6 162.87 225.32 163.9C226.44 165.1 231.39 169.82 231.44 169.9C231.511 169.968 231.56 170.056 231.582 170.152C231.603 170.248 231.596 170.348 231.56 170.439C231.525 170.531 231.464 170.611 231.384 170.668C231.304 170.725 231.209 170.757 231.11 170.76C226.39 170.94 219.37 171.58 218.53 172.43C217.745 173.303 217.14 174.322 216.75 175.43L222.94 178.63C223.041 178.685 223.121 178.771 223.166 178.877C223.211 178.982 223.22 179.099 223.19 179.21C223.157 179.321 223.088 179.417 222.994 179.484C222.9 179.551 222.786 179.585 222.67 179.58C222.67 179.58 222.56 179.54 222.22 179.54Z" fill="#274430"/>
        <path d="M236.234 174.976L236.067 175.051L235.937 175.179L236.64 175.89C235.937 175.179 235.937 175.179 235.937 175.179L235.937 175.179L235.934 175.182L235.926 175.19L235.893 175.223L235.765 175.349C235.653 175.461 235.489 175.623 235.281 175.832C234.864 176.248 234.269 176.845 233.553 177.569C232.123 179.017 230.213 180.974 228.294 183.009C226.378 185.041 224.442 187.163 222.966 188.936C222.23 189.821 221.595 190.636 221.131 191.318C220.9 191.659 220.7 191.984 220.55 192.279C220.411 192.553 220.267 192.891 220.235 193.236C220.21 193.494 220.234 193.879 220.27 194.284C220.309 194.721 220.372 195.277 220.455 195.931C220.622 197.241 220.872 198.972 221.178 200.975C221.791 204.985 222.634 210.112 223.497 215.202C224.36 220.293 225.244 225.35 225.939 229.22C226.286 231.155 226.587 232.795 226.814 233.995C226.928 234.595 227.024 235.088 227.099 235.454C227.167 235.792 227.23 236.084 227.277 236.231C227.338 236.424 227.439 236.577 227.508 236.673C227.586 236.779 227.675 236.881 227.765 236.975C227.944 237.162 228.173 237.369 228.432 237.586C228.954 238.023 229.663 238.555 230.497 239.144C232.169 240.326 234.399 241.776 236.764 243.216C239.13 244.655 241.646 246.091 243.891 247.242C246.106 248.377 248.148 249.282 249.529 249.595C252.169 250.194 254.852 250.131 257.048 249.775C258.148 249.596 259.143 249.342 259.965 249.051C260.764 248.767 261.475 248.423 261.949 248.029C262.067 247.931 262.367 247.725 262.877 247.388C263.07 247.261 263.294 247.114 263.54 246.953C263.897 246.72 264.3 246.456 264.723 246.176C266.175 245.215 268.009 243.969 269.848 242.56C271.684 241.155 273.547 239.57 275.048 237.929C276.529 236.309 277.749 234.536 278.147 232.747C278.351 231.829 278.354 230.378 278.249 228.655C278.142 226.894 277.913 224.732 277.6 222.324C276.973 217.506 275.999 211.653 274.954 205.952C273.908 200.25 272.789 194.688 271.867 190.451C271.407 188.333 270.994 186.539 270.664 185.222C270.5 184.564 270.353 184.017 270.23 183.603C270.169 183.396 270.111 183.214 270.056 183.063C270.01 182.935 269.94 182.755 269.845 182.605C269.677 182.339 269.402 182.113 269.187 181.95C268.938 181.762 268.623 181.554 268.26 181.334C267.531 180.891 266.553 180.366 265.393 179.803C263.071 178.675 259.971 177.375 256.58 176.269C253.193 175.164 249.487 174.243 245.959 173.89C242.447 173.539 239.011 173.74 236.234 174.976Z" fill="white" stroke="#274430" stroke-width="2"/>
        <path fill-rule="evenodd" clip-rule="evenodd" d="M251.711 248.942C256.032 249.397 260.128 248.242 261.31 247.26C261.55 247.061 262.157 246.664 263 246.111C266.939 243.533 276.05 237.57 277.17 232.53C278.53 226.41 270 184.72 269 183.14C268.13 181.765 251.984 173.85 241.088 174.817C251.547 175.61 264.232 181.925 265 183.14C266 184.72 274.53 226.41 273.17 232.53C272.05 237.57 262.939 243.533 259 246.111C258.157 246.664 257.55 247.061 257.31 247.26C256.508 247.927 254.36 248.674 251.711 248.942Z" fill="#565656" fill-opacity="0.3"/>
        <path d="M253.72 249.54C252.358 249.545 251 249.401 249.67 249.11C244.92 248.03 228.35 237.8 227.78 236.11C227.16 234.25 220.51 195.79 220.73 193.31C220.95 190.83 233.73 178.07 236.29 175.55C236.332 175.506 236.383 175.471 236.44 175.45C246.52 170.97 268.29 180.83 269.44 182.91C270.38 184.55 279.04 226.38 277.65 232.66C276.49 237.89 267.23 243.95 263.28 246.54C262.47 247.07 261.84 247.48 261.62 247.67C260.49 248.62 257.27 249.54 253.72 249.54ZM236.93 176.31C231.1 182.05 221.88 191.7 221.73 193.38C221.53 195.63 228.16 234.07 228.73 235.77C229.43 237.09 244.89 247 249.89 248.13C254.89 249.26 259.81 247.89 261.02 246.88C261.28 246.66 261.87 246.27 262.77 245.68C266.62 243.16 275.64 237.26 276.71 232.42C278.02 226.54 269.51 185.08 268.61 183.42C267.77 182.13 247 172 236.93 176.31Z" fill="#274430"/>
        <path d="M236.64 175.89C236.64 175.89 241.9 178.49 244.07 179.46C246.24 180.43 248.64 177.05 248.64 177.05C248.64 177.05 267.27 183.44 269.04 183.14C270.81 182.84 264.04 175.84 257.04 173.19C250.04 170.54 236.68 170.87 236.64 175.89Z" fill="#274430"/>
        <path d="M268.94 183.64C266.53 183.64 252.5 178.9 248.82 177.64C248.12 178.5 245.98 180.85 243.82 179.92C241.66 178.99 236.43 176.36 236.38 176.33C236.296 176.289 236.225 176.225 236.176 176.145C236.126 176.066 236.1 175.974 236.1 175.88C236.12 175.29 236.29 174.715 236.592 174.208C236.895 173.701 237.321 173.278 237.83 172.98C241.83 170.27 251.68 170.62 257.22 172.73C263.36 175.06 269.96 181.09 269.78 182.9C269.766 183.082 269.689 183.254 269.564 183.387C269.438 183.52 269.271 183.606 269.09 183.63L268.94 183.64ZM248.64 176.55C248.696 176.541 248.754 176.541 248.81 176.55C255.72 178.92 266.97 182.55 268.81 182.62C268.39 181.25 262.99 175.94 256.91 173.62C251.63 171.62 242.07 171.29 238.45 173.77C238.123 173.959 237.84 174.216 237.619 174.523C237.398 174.829 237.245 175.18 237.17 175.55C238.32 176.11 242.44 178.15 244.28 178.96C245.75 179.61 247.64 177.56 248.28 176.72C248.324 176.668 248.38 176.625 248.442 176.596C248.504 176.567 248.571 176.551 248.64 176.55Z" fill="#274430"/>
        <path d="M250.54 218.78C250.41 218.791 250.28 218.791 250.15 218.78L248.88 218.57C247.981 218.717 247.071 218.79 246.16 218.79C245.558 218.749 244.985 218.513 244.529 218.118C244.072 217.723 243.757 217.19 243.63 216.6C243.602 216.472 243.626 216.338 243.695 216.226C243.763 216.114 243.873 216.033 244 216C244.127 215.97 244.261 215.99 244.373 216.058C244.486 216.125 244.567 216.233 244.6 216.36C244.6 216.42 244.99 217.8 246.16 217.8C247.038 217.803 247.915 217.73 248.78 217.58H249L250.36 217.8C251.57 218.01 254.18 216.71 254.36 216.14C254.54 215.57 253.23 209.78 252.36 205.59C251.36 200.67 250.72 197.59 250.72 197C250.72 195.52 253.48 192.49 254.03 191.9C254.125 191.808 254.252 191.756 254.385 191.756C254.517 191.756 254.645 191.808 254.74 191.9C254.787 191.947 254.824 192.002 254.849 192.063C254.875 192.124 254.888 192.189 254.888 192.255C254.888 192.321 254.875 192.386 254.849 192.447C254.824 192.508 254.787 192.564 254.74 192.61C253.48 193.96 251.74 196.23 251.74 197.03C251.74 197.59 252.6 201.75 253.36 205.42C254.97 213.21 255.48 215.89 255.36 216.42C255 217.5 252.14 218.78 250.54 218.78Z" fill="#274430"/>
        <path d="M255.57 216.79C255.268 216.788 254.968 216.761 254.67 216.71C254.606 216.697 254.545 216.671 254.49 216.635C254.436 216.598 254.389 216.551 254.353 216.496C254.317 216.441 254.292 216.38 254.279 216.315C254.267 216.251 254.267 216.184 254.28 216.12C254.292 216.055 254.317 215.993 254.353 215.938C254.39 215.883 254.437 215.836 254.492 215.799C254.547 215.763 254.609 215.738 254.674 215.726C254.739 215.714 254.806 215.716 254.87 215.73C255.432 215.855 256.019 215.802 256.55 215.58C256.666 215.496 256.745 215.371 256.77 215.23L256.99 213.87C257.015 213.74 257.089 213.624 257.197 213.548C257.305 213.471 257.439 213.44 257.57 213.46C257.635 213.47 257.697 213.492 257.753 213.526C257.809 213.56 257.857 213.605 257.895 213.659C257.934 213.712 257.961 213.772 257.975 213.836C257.99 213.9 257.992 213.966 257.98 214.03L257.75 215.39C257.717 215.59 257.645 215.782 257.536 215.954C257.428 216.126 257.287 216.274 257.12 216.39C256.654 216.673 256.115 216.812 255.57 216.79Z" fill="#274430"/>
        <path d="M248.87 218.53C248.769 218.531 248.671 218.499 248.59 218.44C248.036 218.012 247.632 217.419 247.436 216.747C247.241 216.075 247.263 215.359 247.5 214.7C247.515 214.631 247.544 214.566 247.585 214.509C247.627 214.452 247.681 214.404 247.742 214.369C247.803 214.334 247.872 214.313 247.942 214.306C248.012 214.3 248.083 214.308 248.15 214.331C248.217 214.354 248.278 214.39 248.33 214.438C248.382 214.487 248.422 214.545 248.45 214.61C248.477 214.675 248.491 214.746 248.489 214.816C248.487 214.887 248.47 214.956 248.44 215.02C248.271 215.477 248.251 215.975 248.382 216.443C248.513 216.912 248.789 217.327 249.17 217.63C249.254 217.693 249.316 217.781 249.347 217.881C249.378 217.981 249.377 218.089 249.344 218.188C249.311 218.288 249.247 218.374 249.162 218.436C249.077 218.497 248.975 218.53 248.87 218.53Z" fill="#274430"/>
        <path d="M244.8 232.35C244.677 232.35 244.556 232.308 244.46 232.23C244.368 232.135 244.316 232.008 244.316 231.875C244.316 231.742 244.368 231.615 244.46 231.52C244.54 231.43 252.27 222.91 261.11 226.4C261.171 226.424 261.227 226.46 261.274 226.506C261.321 226.552 261.359 226.607 261.385 226.667C261.411 226.727 261.425 226.792 261.426 226.858C261.427 226.924 261.415 226.989 261.39 227.05C261.366 227.111 261.33 227.167 261.284 227.214C261.238 227.261 261.184 227.299 261.123 227.325C261.063 227.351 260.998 227.364 260.932 227.365C260.867 227.366 260.801 227.354 260.74 227.33C252.55 224.1 245.28 232.1 245.21 232.19C245.159 232.246 245.095 232.29 245.024 232.318C244.953 232.345 244.876 232.356 244.8 232.35Z" fill="#274430"/>
        <path d="M229.16 201.13C229.04 201.131 228.92 201.107 228.81 201.06C228.564 200.966 228.366 200.779 228.257 200.539C228.149 200.299 228.139 200.027 228.23 199.78C229.296 197.207 231.08 194.996 233.37 193.41C237.19 190.86 243.81 193.88 244.09 194.01C244.209 194.066 244.317 194.145 244.406 194.242C244.495 194.339 244.564 194.453 244.609 194.577C244.654 194.701 244.674 194.833 244.668 194.964C244.662 195.096 244.631 195.226 244.575 195.345C244.519 195.465 244.44 195.572 244.343 195.661C244.246 195.75 244.132 195.819 244.008 195.864C243.884 195.909 243.752 195.929 243.62 195.923C243.489 195.918 243.359 195.886 243.24 195.83C241.62 195.07 236.87 193.47 234.48 195.07C232.545 196.43 231.028 198.304 230.1 200.48C230.028 200.671 229.9 200.836 229.732 200.953C229.564 201.069 229.364 201.131 229.16 201.13Z" fill="#274430"/>
        <path d="M268.82 196.83C268.637 196.831 268.458 196.783 268.301 196.689C268.144 196.596 268.016 196.461 267.93 196.3C266.796 194.37 265.066 192.861 263 192C262.109 191.677 261.148 191.593 260.214 191.758C259.281 191.923 258.407 192.331 257.68 192.94C257.582 193.029 257.468 193.098 257.344 193.143C257.219 193.188 257.087 193.208 256.955 193.201C256.823 193.195 256.694 193.162 256.575 193.105C256.455 193.048 256.348 192.968 256.26 192.87C256.083 192.674 255.991 192.415 256.004 192.151C256.017 191.886 256.134 191.638 256.33 191.46C257.33 190.604 258.539 190.029 259.835 189.795C261.13 189.562 262.464 189.677 263.7 190.13C266.223 191.158 268.333 192.994 269.7 195.35C269.763 195.466 269.802 195.593 269.816 195.725C269.829 195.856 269.817 195.989 269.778 196.115C269.74 196.242 269.678 196.36 269.594 196.462C269.51 196.564 269.407 196.648 269.29 196.71C269.146 196.788 268.984 196.829 268.82 196.83Z" fill="#274430"/>
        <path d="M239.25 206.93C240.189 206.93 240.95 205.864 240.95 204.55C240.95 203.236 240.189 202.17 239.25 202.17C238.311 202.17 237.55 203.236 237.55 204.55C237.55 205.864 238.311 206.93 239.25 206.93Z" fill="#274430"/>
        <path d="M261.23 201.15C261.23 202.46 260.46 203.53 259.53 203.53C258.6 203.53 257.83 202.46 257.83 201.15C257.83 199.84 258.59 198.77 259.53 198.77C260.47 198.77 261.23 199.84 261.23 201.15Z" fill="#274430"/>
        <path d="M222.991 209.739L222.959 209.496L222.818 209.295L222 209.87C222.818 209.295 222.818 209.294 222.817 209.294L222.817 209.293L222.816 209.292L222.812 209.286L222.8 209.269C222.79 209.255 222.775 209.236 222.757 209.211C222.721 209.162 222.669 209.092 222.603 209.006C222.472 208.836 222.283 208.599 222.05 208.332C221.59 207.806 220.929 207.123 220.17 206.59C219.44 206.078 218.446 205.58 217.375 205.728C216.209 205.889 215.329 206.746 214.741 208.115C212.485 213.368 214.801 217.633 216.813 220.832C217.936 222.617 219.677 223.906 221.07 224.732C221.775 225.152 222.415 225.465 222.879 225.675C223.112 225.78 223.302 225.859 223.436 225.913C223.503 225.94 223.556 225.961 223.593 225.975L223.638 225.992L223.651 225.997L223.655 225.999L223.657 225.999L223.657 226C223.658 226 223.658 226 224 225.06L223.658 226L225.207 226.564L224.991 224.93L222.991 209.739Z" fill="white" stroke="#274430" stroke-width="2"/>
        <path d="M276.48 202.4L275.485 202.296L275.484 202.308L275.004 207.518L274.991 207.662L275.019 207.804L276.859 217.094L277.507 220.364L278.766 217.278L277.84 216.9L278.766 217.278L278.766 217.278L278.766 217.277L278.767 217.274L278.772 217.264L278.789 217.221L278.857 217.055C278.917 216.909 279.004 216.696 279.116 216.425C279.338 215.883 279.657 215.11 280.039 214.19C280.803 212.348 281.821 209.915 282.839 207.545C283.987 204.871 283.618 202.509 282.66 200.754C281.738 199.064 280.231 197.876 278.99 197.569C278.063 197.34 277.336 197.768 276.875 198.295C276.446 198.786 276.168 199.432 275.984 199.986C275.793 200.559 275.67 201.135 275.594 201.559C275.556 201.773 275.529 201.953 275.512 202.081C275.503 202.146 275.497 202.197 275.493 202.234L275.488 202.277L275.486 202.29L275.486 202.294L275.486 202.295L275.485 202.296C275.485 202.296 275.485 202.296 276.48 202.4Z" fill="white" stroke="#274430" stroke-width="2"/>
    </g>
    <defs>
        <clipPath id="clip0_345_3170">
            <rect width="500" height="481" fill="white"/>
        </clipPath>
    </defs>
</svg>
