<svg width="452" height="586" viewBox="0 0 452 586" fill="none" xmlns="http://www.w3.org/2000/svg">
<ellipse cx="179.841" cy="8.64191" rx="4.83241" ry="4.82111" fill="#F7EDDF"/>
<ellipse cx="179.841" cy="259.358" rx="4.83241" ry="4.82111" fill="#F7EDDF"/>
<ellipse cx="179.841" cy="220.642" rx="4.83241" ry="4.82111" fill="#F7EDDF"/>
<ellipse cx="179.841" cy="47.2108" rx="4.83241" ry="4.82111" fill="#F7EDDF"/>
<ellipse cx="4.84071" cy="85.7796" rx="4.83241" ry="4.82112" fill="#F7EDDF"/>
<ellipse cx="179.841" cy="85.7796" rx="4.83241" ry="4.82112" fill="#F7EDDF"/>
<ellipse cx="4.84071" cy="124.349" rx="4.83241" ry="4.82112" fill="#F7EDDF"/>
<ellipse cx="179.841" cy="124.349" rx="4.83241" ry="4.82112" fill="#F7EDDF"/>
<ellipse cx="4.84071" cy="162.917" rx="4.83241" ry="4.82112" fill="#F7EDDF"/>
<ellipse cx="179.841" cy="162.917" rx="4.83241" ry="4.82112" fill="#F7EDDF"/>
<ellipse cx="43.5004" cy="220.642" rx="4.83241" ry="4.82111" fill="#F7EDDF"/>
<ellipse cx="218.5" cy="220.642" rx="4.83241" ry="4.82111" fill="#F7EDDF"/>
<ellipse cx="43.5004" cy="47.2108" rx="4.83241" ry="4.82111" fill="#F7EDDF"/>
<ellipse cx="218.5" cy="47.2108" rx="4.83241" ry="4.82111" fill="#F7EDDF"/>
<ellipse cx="43.5004" cy="85.7796" rx="4.83241" ry="4.82112" fill="#F7EDDF"/>
<ellipse cx="218.5" cy="85.7796" rx="4.83241" ry="4.82112" fill="#F7EDDF"/>
<ellipse cx="43.5004" cy="124.349" rx="4.83241" ry="4.82112" fill="#F7EDDF"/>
<ellipse cx="218.5" cy="124.349" rx="4.83241" ry="4.82112" fill="#F7EDDF"/>
<ellipse cx="43.5004" cy="162.917" rx="4.83241" ry="4.82112" fill="#F7EDDF"/>
<ellipse cx="218.5" cy="162.917" rx="4.83241" ry="4.82112" fill="#F7EDDF"/>
<ellipse cx="82.1596" cy="8.64191" rx="4.83241" ry="4.82111" fill="#F7EDDF"/>
<ellipse cx="82.1596" cy="259.358" rx="4.83241" ry="4.82111" fill="#F7EDDF"/>
<ellipse cx="82.1596" cy="220.642" rx="4.83241" ry="4.82111" fill="#F7EDDF"/>
<ellipse cx="82.1596" cy="47.2108" rx="4.83241" ry="4.82111" fill="#F7EDDF"/>
<ellipse cx="82.1596" cy="85.7796" rx="4.83241" ry="4.82112" fill="#F7EDDF"/>
<ellipse cx="257.16" cy="85.7796" rx="4.83241" ry="4.82112" fill="#F7EDDF"/>
<ellipse cx="82.1596" cy="124.349" rx="4.83241" ry="4.82112" fill="#F7EDDF"/>
<ellipse cx="257.16" cy="124.349" rx="4.83241" ry="4.82112" fill="#F7EDDF"/>
<ellipse cx="82.1596" cy="162.917" rx="4.83241" ry="4.82112" fill="#F7EDDF"/>
<ellipse cx="257.16" cy="162.917" rx="4.83241" ry="4.82112" fill="#F7EDDF"/>
<ellipse cx="120.819" cy="8.64191" rx="4.83241" ry="4.82111" fill="#F7EDDF"/>
<ellipse cx="120.819" cy="220.642" rx="4.83241" ry="4.82111" fill="#F7EDDF"/>
<ellipse cx="120.819" cy="47.2108" rx="4.83241" ry="4.82111" fill="#F7EDDF"/>
<ellipse cx="120.819" cy="259.211" rx="4.83241" ry="4.82111" fill="#F7EDDF"/>
<ellipse cx="120.819" cy="85.7796" rx="4.83241" ry="4.82112" fill="#F7EDDF"/>
<ellipse cx="120.819" cy="124.349" rx="4.83241" ry="4.82112" fill="#F7EDDF"/>
<ellipse cx="120.819" cy="162.917" rx="4.83241" ry="4.82112" fill="#F7EDDF"/>
<ellipse cx="179.841" cy="201.358" rx="4.83241" ry="4.82111" fill="#F7EDDF"/>
<ellipse cx="179.841" cy="27.9261" rx="4.83241" ry="4.82111" fill="#F7EDDF"/>
<ellipse cx="179.841" cy="239.926" rx="4.83241" ry="4.82111" fill="#F7EDDF"/>
<ellipse cx="179.841" cy="66.4954" rx="4.83241" ry="4.82111" fill="#F7EDDF"/>
<ellipse cx="4.84071" cy="105.064" rx="4.83241" ry="4.82112" fill="#F7EDDF"/>
<ellipse cx="179.841" cy="105.064" rx="4.83241" ry="4.82112" fill="#F7EDDF"/>
<ellipse cx="4.84071" cy="143.633" rx="4.83241" ry="4.82112" fill="#F7EDDF"/>
<ellipse cx="179.841" cy="143.633" rx="4.83241" ry="4.82112" fill="#F7EDDF"/>
<ellipse cx="179.841" cy="182.202" rx="4.83241" ry="4.82112" fill="#F7EDDF"/>
<ellipse cx="43.5004" cy="201.358" rx="4.83241" ry="4.82111" fill="#F7EDDF"/>
<ellipse cx="218.5" cy="201.358" rx="4.83241" ry="4.82111" fill="#F7EDDF"/>
<ellipse cx="43.5004" cy="66.4954" rx="4.83241" ry="4.82111" fill="#F7EDDF"/>
<ellipse cx="218.5" cy="66.4954" rx="4.83241" ry="4.82111" fill="#F7EDDF"/>
<ellipse cx="43.5004" cy="105.064" rx="4.83241" ry="4.82112" fill="#F7EDDF"/>
<ellipse cx="218.5" cy="105.064" rx="4.83241" ry="4.82112" fill="#F7EDDF"/>
<ellipse cx="43.5004" cy="143.633" rx="4.83241" ry="4.82112" fill="#F7EDDF"/>
<ellipse cx="218.5" cy="143.633" rx="4.83241" ry="4.82112" fill="#F7EDDF"/>
<ellipse cx="43.5004" cy="182.202" rx="4.83241" ry="4.82112" fill="#F7EDDF"/>
<ellipse cx="218.5" cy="182.202" rx="4.83241" ry="4.82112" fill="#F7EDDF"/>
<ellipse cx="82.1596" cy="201.358" rx="4.83241" ry="4.82111" fill="#F7EDDF"/>
<ellipse cx="82.1596" cy="27.9261" rx="4.83241" ry="4.82111" fill="#F7EDDF"/>
<ellipse cx="82.1596" cy="239.926" rx="4.83241" ry="4.82111" fill="#F7EDDF"/>
<ellipse cx="82.1596" cy="66.4954" rx="4.83241" ry="4.82111" fill="#F7EDDF"/>
<ellipse cx="82.1596" cy="105.064" rx="4.83241" ry="4.82112" fill="#F7EDDF"/>
<ellipse cx="257.16" cy="105.064" rx="4.83241" ry="4.82112" fill="#F7EDDF"/>
<ellipse cx="82.1596" cy="143.633" rx="4.83241" ry="4.82112" fill="#F7EDDF"/>
<ellipse cx="257.16" cy="143.633" rx="4.83241" ry="4.82112" fill="#F7EDDF"/>
<ellipse cx="82.1596" cy="182.202" rx="4.83241" ry="4.82112" fill="#F7EDDF"/>
<ellipse cx="120.819" cy="201.358" rx="4.83241" ry="4.82111" fill="#F7EDDF"/>
<ellipse cx="120.819" cy="27.9261" rx="4.83241" ry="4.82111" fill="#F7EDDF"/>
<ellipse cx="120.819" cy="239.926" rx="4.83241" ry="4.82111" fill="#F7EDDF"/>
<ellipse cx="120.819" cy="66.4954" rx="4.83241" ry="4.82111" fill="#F7EDDF"/>
<ellipse cx="120.819" cy="105.064" rx="4.83241" ry="4.82112" fill="#F7EDDF"/>
<ellipse cx="120.819" cy="143.633" rx="4.83241" ry="4.82112" fill="#F7EDDF"/>
<ellipse cx="120.819" cy="182.202" rx="4.83241" ry="4.82112" fill="#F7EDDF"/>
<ellipse cx="160.511" cy="201.358" rx="4.83241" ry="4.82111" fill="#F7EDDF"/>
<ellipse cx="160.511" cy="27.9261" rx="4.83241" ry="4.82111" fill="#F7EDDF"/>
<ellipse cx="160.511" cy="239.926" rx="4.83241" ry="4.82111" fill="#F7EDDF"/>
<ellipse cx="160.511" cy="66.4954" rx="4.83241" ry="4.82111" fill="#F7EDDF"/>
<ellipse cx="160.511" cy="105.064" rx="4.83241" ry="4.82112" fill="#F7EDDF"/>
<ellipse cx="160.511" cy="143.633" rx="4.83241" ry="4.82112" fill="#F7EDDF"/>
<ellipse cx="160.511" cy="182.202" rx="4.83241" ry="4.82112" fill="#F7EDDF"/>
<ellipse cx="24.1703" cy="201.358" rx="4.83241" ry="4.82111" fill="#F7EDDF"/>
<ellipse cx="199.17" cy="201.358" rx="4.83241" ry="4.82111" fill="#F7EDDF"/>
<ellipse cx="199.17" cy="27.9261" rx="4.83241" ry="4.82111" fill="#F7EDDF"/>
<ellipse cx="199.17" cy="239.926" rx="4.83241" ry="4.82111" fill="#F7EDDF"/>
<ellipse cx="24.1703" cy="66.4954" rx="4.83241" ry="4.82111" fill="#F7EDDF"/>
<ellipse cx="199.17" cy="66.4954" rx="4.83241" ry="4.82111" fill="#F7EDDF"/>
<ellipse cx="24.1703" cy="105.064" rx="4.83241" ry="4.82112" fill="#F7EDDF"/>
<ellipse cx="199.17" cy="105.064" rx="4.83241" ry="4.82112" fill="#F7EDDF"/>
<ellipse cx="24.1703" cy="143.633" rx="4.83241" ry="4.82112" fill="#F7EDDF"/>
<ellipse cx="199.17" cy="143.633" rx="4.83241" ry="4.82112" fill="#F7EDDF"/>
<ellipse cx="24.1703" cy="182.202" rx="4.83241" ry="4.82112" fill="#F7EDDF"/>
<ellipse cx="199.17" cy="182.202" rx="4.83241" ry="4.82112" fill="#F7EDDF"/>
<ellipse cx="62.8295" cy="201.358" rx="4.83241" ry="4.82111" fill="#F7EDDF"/>
<ellipse cx="237.829" cy="201.358" rx="4.83241" ry="4.82111" fill="#F7EDDF"/>
<ellipse cx="62.8295" cy="27.9261" rx="4.83241" ry="4.82111" fill="#F7EDDF"/>
<ellipse cx="62.8295" cy="239.926" rx="4.83241" ry="4.82111" fill="#F7EDDF"/>
<ellipse cx="62.8295" cy="66.4954" rx="4.83241" ry="4.82111" fill="#F7EDDF"/>
<ellipse cx="237.829" cy="66.4954" rx="4.83241" ry="4.82111" fill="#F7EDDF"/>
<ellipse cx="62.8295" cy="105.064" rx="4.83241" ry="4.82112" fill="#F7EDDF"/>
<ellipse cx="237.829" cy="105.064" rx="4.83241" ry="4.82112" fill="#F7EDDF"/>
<ellipse cx="62.8295" cy="143.633" rx="4.83241" ry="4.82112" fill="#F7EDDF"/>
<ellipse cx="237.829" cy="143.633" rx="4.83241" ry="4.82112" fill="#F7EDDF"/>
<ellipse cx="62.8295" cy="182.202" rx="4.83241" ry="4.82112" fill="#F7EDDF"/>
<ellipse cx="237.829" cy="182.202" rx="4.83241" ry="4.82112" fill="#F7EDDF"/>
<ellipse cx="101.489" cy="201.358" rx="4.83241" ry="4.82111" fill="#F7EDDF"/>
<ellipse cx="101.489" cy="27.9261" rx="4.83241" ry="4.82111" fill="#F7EDDF"/>
<ellipse cx="101.489" cy="239.926" rx="4.83241" ry="4.82111" fill="#F7EDDF"/>
<ellipse cx="101.489" cy="66.4954" rx="4.83241" ry="4.82111" fill="#F7EDDF"/>
<ellipse cx="101.489" cy="105.064" rx="4.83241" ry="4.82112" fill="#F7EDDF"/>
<ellipse cx="101.489" cy="143.633" rx="4.83241" ry="4.82112" fill="#F7EDDF"/>
<ellipse cx="101.489" cy="182.202" rx="4.83241" ry="4.82112" fill="#F7EDDF"/>
<ellipse cx="140.148" cy="201.358" rx="4.83241" ry="4.82111" fill="#F7EDDF"/>
<ellipse cx="140.148" cy="27.9261" rx="4.83241" ry="4.82111" fill="#F7EDDF"/>
<ellipse cx="140.148" cy="239.926" rx="4.83241" ry="4.82111" fill="#F7EDDF"/>
<ellipse cx="140.148" cy="66.4954" rx="4.83241" ry="4.82111" fill="#F7EDDF"/>
<ellipse cx="140.148" cy="105.064" rx="4.83241" ry="4.82112" fill="#F7EDDF"/>
<ellipse cx="140.148" cy="143.633" rx="4.83241" ry="4.82112" fill="#F7EDDF"/>
<ellipse cx="140.148" cy="182.202" rx="4.83241" ry="4.82112" fill="#F7EDDF"/>
<ellipse cx="160.511" cy="8.64191" rx="4.83241" ry="4.82111" fill="#F7EDDF"/>
<ellipse cx="160.511" cy="220.642" rx="4.83241" ry="4.82111" fill="#F7EDDF"/>
<ellipse cx="160.511" cy="47.2108" rx="4.83241" ry="4.82111" fill="#F7EDDF"/>
<ellipse cx="160.511" cy="259.211" rx="4.83241" ry="4.82111" fill="#F7EDDF"/>
<ellipse cx="160.511" cy="85.7796" rx="4.83241" ry="4.82112" fill="#F7EDDF"/>
<ellipse cx="160.511" cy="124.349" rx="4.83241" ry="4.82112" fill="#F7EDDF"/>
<ellipse cx="160.511" cy="162.917" rx="4.83241" ry="4.82112" fill="#F7EDDF"/>
<ellipse cx="199.17" cy="220.642" rx="4.83241" ry="4.82111" fill="#F7EDDF"/>
<ellipse cx="199.17" cy="47.2108" rx="4.83241" ry="4.82111" fill="#F7EDDF"/>
<ellipse cx="24.1703" cy="85.7796" rx="4.83241" ry="4.82112" fill="#F7EDDF"/>
<ellipse cx="199.17" cy="85.7796" rx="4.83241" ry="4.82112" fill="#F7EDDF"/>
<ellipse cx="24.1703" cy="124.349" rx="4.83241" ry="4.82112" fill="#F7EDDF"/>
<ellipse cx="199.17" cy="124.349" rx="4.83241" ry="4.82112" fill="#F7EDDF"/>
<ellipse cx="24.1703" cy="162.917" rx="4.83241" ry="4.82112" fill="#F7EDDF"/>
<ellipse cx="199.17" cy="162.917" rx="4.83241" ry="4.82112" fill="#F7EDDF"/>
<ellipse cx="62.8295" cy="220.642" rx="4.83241" ry="4.82111" fill="#F7EDDF"/>
<ellipse cx="62.8295" cy="47.2108" rx="4.83241" ry="4.82111" fill="#F7EDDF"/>
<ellipse cx="62.8295" cy="85.7796" rx="4.83241" ry="4.82112" fill="#F7EDDF"/>
<ellipse cx="237.829" cy="85.7796" rx="4.83241" ry="4.82112" fill="#F7EDDF"/>
<ellipse cx="62.8295" cy="124.349" rx="4.83241" ry="4.82112" fill="#F7EDDF"/>
<ellipse cx="237.829" cy="124.349" rx="4.83241" ry="4.82112" fill="#F7EDDF"/>
<ellipse cx="62.8295" cy="162.917" rx="4.83241" ry="4.82112" fill="#F7EDDF"/>
<ellipse cx="237.829" cy="162.917" rx="4.83241" ry="4.82112" fill="#F7EDDF"/>
<ellipse cx="101.489" cy="8.64191" rx="4.83241" ry="4.82111" fill="#F7EDDF"/>
<ellipse cx="101.489" cy="220.642" rx="4.83241" ry="4.82111" fill="#F7EDDF"/>
<ellipse cx="101.489" cy="47.2108" rx="4.83241" ry="4.82111" fill="#F7EDDF"/>
<ellipse cx="101.489" cy="259.211" rx="4.83241" ry="4.82111" fill="#F7EDDF"/>
<ellipse cx="101.489" cy="85.7796" rx="4.83241" ry="4.82112" fill="#F7EDDF"/>
<ellipse cx="101.489" cy="124.349" rx="4.83241" ry="4.82112" fill="#F7EDDF"/>
<ellipse cx="101.489" cy="162.917" rx="4.83241" ry="4.82112" fill="#F7EDDF"/>
<ellipse cx="140.148" cy="8.64191" rx="4.83241" ry="4.82111" fill="#F7EDDF"/>
<ellipse cx="140.148" cy="220.642" rx="4.83241" ry="4.82111" fill="#F7EDDF"/>
<ellipse cx="140.148" cy="47.2108" rx="4.83241" ry="4.82111" fill="#F7EDDF"/>
<ellipse cx="140.148" cy="259.211" rx="4.83241" ry="4.82111" fill="#F7EDDF"/>
<ellipse cx="140.148" cy="85.7796" rx="4.83241" ry="4.82112" fill="#F7EDDF"/>
<ellipse cx="140.148" cy="124.349" rx="4.83241" ry="4.82112" fill="#F7EDDF"/>
<ellipse cx="140.148" cy="162.917" rx="4.83241" ry="4.82112" fill="#F7EDDF"/>
<path d="M359.327 433.576H360.327V432.576V200.864C360.327 198.102 358.089 195.864 355.327 195.864H126.5C123.739 195.864 121.5 198.102 121.5 200.864V432.576V433.576H122.5H359.327Z" fill="white" stroke="#274430" stroke-width="2"/>
<path d="M359.327 197.152C359.676 197.152 360 196.97 360.181 196.672C360.363 196.374 360.376 196.003 360.216 195.693L338.575 153.709C337.717 152.045 336.002 151 334.131 151H147.696C145.825 151 144.11 152.045 143.252 153.709L121.611 195.693C121.451 196.003 121.465 196.374 121.646 196.672C121.828 196.97 122.151 197.152 122.5 197.152H359.327Z" fill="#889596" stroke="#274430" stroke-width="2" stroke-linejoin="round"/>
<path d="M140.991 361.076H139.991V362.076V432.576V433.576H140.991H342.259H343.259V432.576V362.076V361.076H342.259H140.991Z" fill="#80B990" stroke="#274430" stroke-width="2"/>
<path d="M336.569 362.076H342.258V432.576H336.569V362.076Z" fill="#565656" fill-opacity="0.3"/>
<g clip-path="url(#clip0_148_12061)">
<rect x="153.081" y="376.318" width="51.2059" height="41.303" rx="2" fill="#93D3F6"/>
<path d="M153.081 394.388L184.592 376.318H204.287L153.081 407.296V394.388Z" fill="white" fill-opacity="0.3"/>
<path d="M155.05 417.622L204.287 388.365V393.528L162.928 417.622H155.05Z" fill="white" fill-opacity="0.3"/>
<rect x="153.081" y="376.318" width="51.2059" height="6.88384" fill="#565656" fill-opacity="0.3"/>
</g>
<rect x="152.081" y="375.318" width="53.2059" height="43.303" rx="3" stroke="#274430" stroke-width="2"/>
<path fill-rule="evenodd" clip-rule="evenodd" d="M160.904 418.334L160.904 375.606L162.327 375.606L162.327 418.334L160.904 418.334Z" fill="#304436"/>
<path fill-rule="evenodd" clip-rule="evenodd" d="M169.438 418.334L169.438 376.318L170.861 376.318L170.861 418.334L169.438 418.334Z" fill="#304436"/>
<path fill-rule="evenodd" clip-rule="evenodd" d="M204.287 404.803L153.081 404.803L153.081 403.379L204.287 403.379L204.287 404.803Z" fill="#304436"/>
<path fill-rule="evenodd" clip-rule="evenodd" d="M177.973 418.334L177.973 376.318L179.395 376.318L179.395 418.334L177.973 418.334Z" fill="#304436"/>
<path fill-rule="evenodd" clip-rule="evenodd" d="M186.507 418.334L186.507 376.318L187.93 376.318L187.93 418.334L186.507 418.334Z" fill="#304436"/>
<path fill-rule="evenodd" clip-rule="evenodd" d="M204.287 390.561L153.081 390.561L153.081 389.136L204.287 389.136L204.287 390.561Z" fill="#304436"/>
<path fill-rule="evenodd" clip-rule="evenodd" d="M195.042 418.334L195.042 376.318L196.464 376.318L196.464 418.334L195.042 418.334Z" fill="#304436"/>
<g clip-path="url(#clip1_148_12061)">
<rect x="278.251" y="376.318" width="51.2059" height="41.303" rx="2" fill="#93D3F6"/>
<path d="M278.251 394.388L309.762 376.318H329.457L278.251 407.296V394.388Z" fill="white" fill-opacity="0.3"/>
<path d="M280.22 417.622L329.457 388.365V393.528L288.098 417.622H280.22Z" fill="white" fill-opacity="0.3"/>
<rect x="278.251" y="376.318" width="51.2059" height="6.88384" fill="#565656" fill-opacity="0.3"/>
</g>
<rect x="277.251" y="375.318" width="53.2059" height="43.303" rx="3" stroke="#274430" stroke-width="2"/>
<path fill-rule="evenodd" clip-rule="evenodd" d="M286.074 418.334L286.074 375.606L287.497 375.606L287.497 418.334L286.074 418.334Z" fill="#304436"/>
<path fill-rule="evenodd" clip-rule="evenodd" d="M294.608 418.334L294.608 376.318L296.031 376.318L296.031 418.334L294.608 418.334Z" fill="#304436"/>
<path fill-rule="evenodd" clip-rule="evenodd" d="M329.457 404.803L278.251 404.803L278.251 403.379L329.457 403.379L329.457 404.803Z" fill="#304436"/>
<path fill-rule="evenodd" clip-rule="evenodd" d="M303.143 418.334L303.143 376.318L304.565 376.318L304.565 418.334L303.143 418.334Z" fill="#304436"/>
<path fill-rule="evenodd" clip-rule="evenodd" d="M311.677 418.334L311.677 376.318L313.1 376.318L313.1 418.334L311.677 418.334Z" fill="#304436"/>
<path fill-rule="evenodd" clip-rule="evenodd" d="M329.457 390.561L278.251 390.561L278.251 389.136L329.457 389.136L329.457 390.561Z" fill="#304436"/>
<path fill-rule="evenodd" clip-rule="evenodd" d="M320.211 418.334L320.211 376.318L321.634 376.318L321.634 418.334L320.211 418.334Z" fill="#304436"/>
<path d="M264.027 433.576H265.027V432.576V381.743C265.027 378.981 262.789 376.743 260.027 376.743H221.088C218.327 376.743 216.088 378.981 216.088 381.743V432.576V433.576H217.088H264.027Z" fill="#4B7857" stroke="#274430" stroke-width="2"/>
<g clip-path="url(#clip2_148_12061)">
<rect x="221.355" y="382.728" width="14.935" height="24.2121" rx="2" fill="#93D3F6"/>
<path d="M221.355 393.32L230.546 382.728H236.291L221.355 400.887V393.32Z" fill="white" fill-opacity="0.3"/>
<path d="M221.93 406.94L236.29 389.79V392.816L224.227 406.94H221.93Z" fill="white" fill-opacity="0.3"/>
<rect x="221.355" y="382.728" width="14.935" height="4.03535" fill="#565656" fill-opacity="0.3"/>
</g>
<rect x="220.355" y="381.728" width="16.935" height="26.2121" rx="3" stroke="#274430" stroke-width="2"/>
<g clip-path="url(#clip3_148_12061)">
<rect x="244.825" y="382.728" width="14.935" height="24.2121" rx="2" fill="#93D3F6"/>
<path d="M244.825 393.32L254.016 382.728H259.76L244.825 400.887V393.32Z" fill="white" fill-opacity="0.3"/>
<path d="M245.399 406.94L259.76 389.79V392.816L247.697 406.94H245.399Z" fill="white" fill-opacity="0.3"/>
<rect x="244.825" y="382.728" width="14.935" height="4.03535" fill="#565656" fill-opacity="0.3"/>
</g>
<rect x="243.825" y="381.728" width="16.935" height="26.2121" rx="3" stroke="#274430" stroke-width="2"/>
<rect x="239.847" y="377.743" width="1.42239" height="56.2576" fill="#274430"/>
<rect x="243.402" y="410.5" width="4.26715" height="1.42424" rx="0.712122" fill="#274430"/>
<g clip-path="url(#clip4_148_12061)">
<rect x="178.684" y="294.424" width="32.0037" height="38.4545" rx="2" fill="#93D3F6"/>
<path d="M178.684 311.248L198.379 294.424H210.688L178.684 323.265V311.248Z" fill="white" fill-opacity="0.3"/>
<path d="M179.915 332.879L210.688 305.64V310.447L184.839 332.879H179.915Z" fill="white" fill-opacity="0.3"/>
<rect x="178.684" y="294.424" width="32.0037" height="6.40909" fill="#565656" fill-opacity="0.3"/>
</g>
<rect x="177.684" y="293.424" width="34.0037" height="40.4545" rx="3" stroke="#274430" stroke-width="2"/>
<path fill-rule="evenodd" clip-rule="evenodd" d="M194.331 334.303L194.331 294.424L195.753 294.424L195.753 334.303L194.331 334.303Z" fill="#304436"/>
<path fill-rule="evenodd" clip-rule="evenodd" d="M212.11 314.364L178.684 314.364L178.684 312.94L212.11 312.94L212.11 314.364Z" fill="#304436"/>
<rect x="176.262" y="332.591" width="36.8484" height="3.42424" rx="1.71212" fill="white" stroke="#274430" stroke-width="2"/>
<rect x="177.262" y="335.015" width="34.8484" height="2.84849" rx="1.42424" fill="#565656" fill-opacity="0.3"/>
<rect x="267.583" y="335.015" width="34.8484" height="2.84849" rx="1.42424" fill="#565656" fill-opacity="0.3"/>
<rect x="267.583" y="264.515" width="34.8484" height="2.84848" rx="1.42424" fill="#565656" fill-opacity="0.3"/>
<rect x="177.262" y="264.515" width="34.8484" height="2.84848" rx="1.42424" fill="#565656" fill-opacity="0.3"/>
<g clip-path="url(#clip5_148_12061)">
<rect x="178.684" y="214.667" width="32.0037" height="38.4545" rx="2" fill="#93D3F6"/>
<path d="M178.684 231.49L198.379 214.667H210.688L178.684 243.507V231.49Z" fill="white" fill-opacity="0.3"/>
<path d="M179.915 253.121L210.688 225.882V230.689L184.839 253.121H179.915Z" fill="white" fill-opacity="0.3"/>
<rect x="178.684" y="214.667" width="32.0037" height="6.40909" fill="#565656" fill-opacity="0.3"/>
</g>
<rect x="177.684" y="213.667" width="34.0037" height="40.4545" rx="3" stroke="#274430" stroke-width="2"/>
<path fill-rule="evenodd" clip-rule="evenodd" d="M194.331 254.545L194.331 214.667L195.753 214.667L195.753 254.545L194.331 254.545Z" fill="#304436"/>
<path fill-rule="evenodd" clip-rule="evenodd" d="M212.11 234.606L178.684 234.606L178.684 233.182L212.11 233.182L212.11 234.606Z" fill="#304436"/>
<g clip-path="url(#clip6_148_12061)">
<rect x="269.006" y="294.424" width="32.0037" height="38.4545" rx="2" fill="#93D3F6"/>
<path d="M269.006 311.248L288.7 294.424H301.01L269.006 323.265V311.248Z" fill="white" fill-opacity="0.3"/>
<path d="M270.237 332.879L301.01 305.64V310.447L275.16 332.879H270.237Z" fill="white" fill-opacity="0.3"/>
<rect x="269.006" y="294.424" width="32.0037" height="6.40909" fill="#565656" fill-opacity="0.3"/>
</g>
<rect x="268.006" y="293.424" width="34.0037" height="40.4545" rx="3" stroke="#274430" stroke-width="2"/>
<path fill-rule="evenodd" clip-rule="evenodd" d="M284.652 334.303L284.652 294.424L286.075 294.424L286.075 334.303L284.652 334.303Z" fill="#304436"/>
<path fill-rule="evenodd" clip-rule="evenodd" d="M302.432 314.364L269.006 314.364L269.006 312.94L302.432 312.94L302.432 314.364Z" fill="#304436"/>
<rect x="266.583" y="332.591" width="36.8484" height="3.42424" rx="1.71212" fill="white" stroke="#274430" stroke-width="2"/>
<g clip-path="url(#clip7_148_12061)">
<rect x="269.006" y="214.667" width="32.0037" height="38.4545" rx="2" fill="#93D3F6"/>
<path d="M269.006 231.49L288.7 214.667H301.01L269.006 243.507V231.49Z" fill="white" fill-opacity="0.3"/>
<path d="M270.237 253.121L301.01 225.882V230.689L275.16 253.121H270.237Z" fill="white" fill-opacity="0.3"/>
<rect x="269.006" y="214.667" width="32.0037" height="6.40909" fill="#565656" fill-opacity="0.3"/>
</g>
<rect x="268.006" y="213.667" width="34.0037" height="40.4545" rx="3" stroke="#274430" stroke-width="2"/>
<path fill-rule="evenodd" clip-rule="evenodd" d="M284.652 254.545L284.652 214.667L286.075 214.667L286.075 254.545L284.652 254.545Z" fill="#304436"/>
<path fill-rule="evenodd" clip-rule="evenodd" d="M302.432 234.606L269.006 234.606L269.006 233.182L302.432 233.182L302.432 234.606Z" fill="#304436"/>
<rect x="266.583" y="252.121" width="36.8484" height="3.42424" rx="1.71212" fill="white" stroke="#274430" stroke-width="2"/>
<path d="M229.89 154.849L248.026 149.864L261.894 154.849V196.864H229.89V154.849Z" fill="#565656" fill-opacity="0.3"/>
<path d="M224.472 153.951C224.13 154.118 223.912 154.467 223.912 154.849V196.864C223.912 197.416 224.36 197.864 224.912 197.864H256.916C257.468 197.864 257.916 197.416 257.916 196.864V154.849C257.916 154.467 257.698 154.118 257.355 153.951L241.354 146.117C241.076 145.981 240.752 145.981 240.474 146.117L224.472 153.951Z" fill="white" stroke="#274430" stroke-width="2" stroke-linejoin="round"/>
<g clip-path="url(#clip8_148_12061)">
<rect x="229.179" y="156.273" width="23.4694" height="38.4545" rx="2" fill="#93D3F6"/>
<path d="M229.179 173.097L243.622 156.273H252.649L229.179 185.114V173.097Z" fill="white" fill-opacity="0.3"/>
<path d="M230.082 194.727L252.649 167.489V172.296L233.693 194.727H230.082Z" fill="white" fill-opacity="0.3"/>
<rect x="229.179" y="156.273" width="23.4694" height="6.40909" fill="#565656" fill-opacity="0.3"/>
</g>
<rect x="228.179" y="155.273" width="25.4694" height="40.4545" rx="3" stroke="#274430" stroke-width="2"/>
<path fill-rule="evenodd" clip-rule="evenodd" d="M240.558 196.152L240.558 156.273L241.98 156.273L241.98 196.152L240.558 196.152Z" fill="#304436"/>
<path fill-rule="evenodd" clip-rule="evenodd" d="M252.649 176.212L229.179 176.212L229.179 174.788L252.649 174.788L252.649 176.212Z" fill="#304436"/>
<rect x="221.778" y="194.439" width="38.2708" height="3.42424" rx="1.71212" fill="white" stroke="#274430" stroke-width="2"/>
<path d="M166.594 154.849L184.73 149.864L198.598 154.849V196.864H166.594V154.849Z" fill="#565656" fill-opacity="0.3"/>
<path d="M161.887 153.951C161.545 154.118 161.327 154.467 161.327 154.849V196.864C161.327 197.416 161.775 197.864 162.327 197.864H167.661H194.331C194.883 197.864 195.331 197.416 195.331 196.864V154.849C195.331 154.467 195.113 154.118 194.771 153.951L178.769 146.117C178.491 145.981 178.167 145.981 177.889 146.117L167.221 151.339L161.887 153.951Z" fill="white" stroke="#274430" stroke-width="2" stroke-linejoin="round"/>
<g clip-path="url(#clip9_148_12061)">
<rect x="166.594" y="156.273" width="23.4694" height="38.4545" rx="2" fill="#93D3F6"/>
<path d="M166.594 173.097L181.037 156.273H190.064L166.594 185.114V173.097Z" fill="white" fill-opacity="0.3"/>
<path d="M167.497 194.727L190.064 167.489V172.296L171.108 194.727H167.497Z" fill="white" fill-opacity="0.3"/>
<rect x="166.594" y="156.273" width="23.4694" height="6.40909" fill="#565656" fill-opacity="0.3"/>
</g>
<rect x="165.594" y="155.273" width="25.4694" height="40.4545" rx="3" stroke="#274430" stroke-width="2"/>
<path fill-rule="evenodd" clip-rule="evenodd" d="M177.973 196.152L177.973 156.273L179.396 156.273L179.396 196.152L177.973 196.152Z" fill="#304436"/>
<path fill-rule="evenodd" clip-rule="evenodd" d="M190.064 176.212L166.594 176.212L166.594 174.788L190.064 174.788L190.064 176.212Z" fill="#304436"/>
<rect x="159.193" y="194.439" width="38.2708" height="3.42424" rx="1.71212" fill="white" stroke="#274430" stroke-width="2"/>
<path d="M292.475 154.848L310.611 149.864L324.479 154.848V196.864H292.475V154.848Z" fill="#565656" fill-opacity="0.3"/>
<path d="M287.057 153.951C286.714 154.118 286.497 154.467 286.497 154.849V196.864C286.497 197.416 286.945 197.864 287.497 197.864H319.501C320.053 197.864 320.501 197.416 320.501 196.864V154.849C320.501 154.467 320.283 154.118 319.94 153.951L303.939 146.117C303.661 145.981 303.337 145.981 303.059 146.117L287.057 153.951Z" fill="white" stroke="#274430" stroke-width="2" stroke-linejoin="round"/>
<g clip-path="url(#clip10_148_12061)">
<rect x="291.764" y="156.273" width="23.4694" height="38.4545" rx="2" fill="#93D3F6"/>
<path d="M291.764 173.097L306.207 156.273H315.234L291.764 185.114V173.097Z" fill="white" fill-opacity="0.3"/>
<path d="M292.667 194.727L315.234 167.489V172.296L296.278 194.727H292.667Z" fill="white" fill-opacity="0.3"/>
<rect x="291.764" y="156.273" width="23.4694" height="6.40909" fill="#565656" fill-opacity="0.3"/>
</g>
<rect x="290.764" y="155.273" width="25.4694" height="40.4545" rx="3" stroke="#274430" stroke-width="2"/>
<path fill-rule="evenodd" clip-rule="evenodd" d="M303.143 196.152L303.143 156.273L304.565 156.273L304.565 196.152L303.143 196.152Z" fill="#304436"/>
<path fill-rule="evenodd" clip-rule="evenodd" d="M315.234 176.212L291.764 176.212L291.764 174.788L315.234 174.788L315.234 176.212Z" fill="#304436"/>
<rect x="284.363" y="194.439" width="38.2708" height="3.42424" rx="1.71212" fill="white" stroke="#274430" stroke-width="2"/>
<rect x="176.262" y="252.121" width="36.8484" height="3.42425" rx="1.71212" fill="white" stroke="#274430" stroke-width="2"/>
<path d="M140.991 362.076H342.259V368.485H140.991V362.076Z" fill="#565656" fill-opacity="0.3"/>
<path d="M137.879 351.818C135.117 351.818 132.879 354.057 132.879 356.818V358.076C132.879 360.837 135.117 363.076 137.879 363.076H345.37C348.132 363.076 350.37 360.837 350.37 358.076V356.818C350.37 354.057 348.132 351.818 345.37 351.818H137.879Z" fill="#80B990" stroke="#274430" stroke-width="2"/>
<path d="M345.371 352.818H326.612C326.612 352.818 323.719 355.564 321.624 356.786C316.675 359.673 307.727 362.076 307.727 362.076H345.371C347.58 362.076 349.371 360.285 349.371 358.076V356.818C349.371 354.609 347.58 352.818 345.371 352.818Z" fill="#565656" fill-opacity="0.3"/>
<rect x="121.5" y="264.939" width="238.827" height="6.98484" fill="white" stroke="#274430" stroke-width="2"/>
<rect x="126.056" y="265.939" width="1.42239" height="4.98484" fill="#274430"/>
<rect x="133.168" y="265.939" width="1.42239" height="4.98484" fill="#274430"/>
<rect x="140.28" y="265.939" width="1.42239" height="4.98484" fill="#274430"/>
<rect x="147.392" y="265.939" width="1.42239" height="4.98484" fill="#274430"/>
<rect x="154.504" y="265.939" width="1.42239" height="4.98484" fill="#274430"/>
<rect x="161.616" y="265.939" width="1.42239" height="4.98484" fill="#274430"/>
<rect x="168.728" y="265.939" width="1.42239" height="4.98484" fill="#274430"/>
<rect x="175.84" y="265.939" width="1.42238" height="4.98484" fill="#274430"/>
<rect x="182.952" y="265.939" width="1.42239" height="4.98484" fill="#274430"/>
<rect x="190.063" y="265.939" width="1.42239" height="4.98484" fill="#274430"/>
<rect x="197.175" y="265.939" width="1.42238" height="4.98484" fill="#274430"/>
<rect x="204.288" y="265.939" width="1.42239" height="4.98484" fill="#274430"/>
<rect x="211.399" y="265.939" width="1.42239" height="4.98484" fill="#274430"/>
<rect x="218.511" y="265.939" width="1.42239" height="4.98484" fill="#274430"/>
<rect x="225.623" y="265.939" width="1.42238" height="4.98484" fill="#274430"/>
<rect x="232.735" y="265.939" width="1.42239" height="4.98484" fill="#274430"/>
<rect x="239.847" y="265.939" width="1.42239" height="4.98484" fill="#274430"/>
<rect x="246.959" y="265.939" width="1.42238" height="4.98484" fill="#274430"/>
<rect x="254.071" y="265.939" width="1.42239" height="4.98484" fill="#274430"/>
<rect x="261.183" y="265.939" width="1.42239" height="4.98484" fill="#274430"/>
<rect x="268.295" y="265.939" width="1.42238" height="4.98484" fill="#274430"/>
<rect x="275.407" y="265.939" width="1.42239" height="4.98484" fill="#274430"/>
<rect x="282.519" y="265.939" width="1.42238" height="4.98484" fill="#274430"/>
<rect x="289.63" y="265.939" width="1.42238" height="4.98484" fill="#274430"/>
<rect x="296.742" y="265.939" width="1.42239" height="4.98484" fill="#274430"/>
<rect x="303.854" y="265.939" width="1.42238" height="4.98484" fill="#274430"/>
<rect x="310.966" y="265.939" width="1.42238" height="4.98484" fill="#274430"/>
<rect x="318.078" y="265.939" width="1.42239" height="4.98484" fill="#274430"/>
<rect x="325.19" y="265.939" width="1.42238" height="4.98484" fill="#274430"/>
<rect x="332.302" y="265.939" width="1.42239" height="4.98484" fill="#274430"/>
<rect x="339.414" y="265.939" width="1.42238" height="4.98484" fill="#274430"/>
<rect x="346.526" y="265.939" width="1.42239" height="4.98484" fill="#274430"/>
<rect x="353.638" y="265.939" width="1.42239" height="4.98484" fill="#274430"/>
<rect x="121.5" y="196.576" width="238.827" height="5.56061" fill="white" stroke="#274430" stroke-width="2"/>
<rect x="122.5" y="271.636" width="236.827" height="4.98486" fill="#565656" fill-opacity="0.3"/>
<rect x="122.5" y="201.849" width="236.827" height="4.98485" fill="#565656" fill-opacity="0.3"/>
<path d="M349.371 432.576H359.327V196.152L349.371 176.924V432.576Z" fill="#565656" fill-opacity="0.3"/>
<path d="M112.733 432.576H389.047C389.047 432.576 397.376 432.576 397.376 433.643C397.376 434.71 389.047 434.71 389.047 434.71H112.733C112.733 434.71 106.854 434.71 106.854 433.643C106.854 432.576 112.733 432.576 112.733 432.576Z" fill="#274430"/>
<path d="M384.13 383.556C392.086 383.556 399.202 379.112 404.292 372.105C409.382 365.096 412.5 355.464 412.5 344.872C412.5 334.36 409.418 311.19 404.454 290.664C401.972 280.398 399.005 270.731 395.689 263.612C394.033 260.056 392.266 257.081 390.391 254.98C388.529 252.893 386.434 251.532 384.13 251.532C381.879 251.532 379.828 252.831 378.001 254.834C376.164 256.848 374.431 259.701 372.806 263.117C369.552 269.956 366.629 279.266 364.163 289.23C358.996 310.107 355.771 334.121 355.771 344.872C355.771 355.458 358.887 365.09 363.974 372.1C369.06 379.109 376.173 383.556 384.13 383.556Z" fill="#92E3A9" stroke="#274430" stroke-width="2"/>
<path d="M384.13 252.532C376.75 252.532 369.827 270.33 364.907 290.209C364.907 290.209 370.944 273.394 376.74 263.613C379.392 259.139 384.13 252.532 384.13 252.532Z" fill="white" fill-opacity="0.3"/>
<path d="M384.88 382.542C399.647 381.995 411.5 365.335 411.5 344.872C411.5 324.064 399.244 252.532 384.13 252.532C399.244 252.532 407.802 324.064 407.802 344.872C407.802 365.334 399.526 381.993 384.88 382.542Z" fill="#565656" fill-opacity="0.3"/>
<path d="M399.667 355.928L391.236 359.009L392.932 354.002L388.906 359.863L384.88 361.319L384.599 344.904L399.227 325.733L391.383 333.459L392.712 328.092L388.967 335.854L384.514 340.247L384.075 314.589L382.476 352.004L368.604 337.515L376.23 347.72L369.044 346.938L377.913 349.983L382.305 355.88L381.537 373.919L376.425 370.502L381.378 377.65L379.036 432.793H386.136L384.929 363.943L399.667 355.928Z" fill="#274430"/>
<path d="M399.612 314.589C399.838 315.953 399.36 317.331 398.28 318.434C397.199 319.536 395.599 320.276 393.817 320.499C393.565 319.131 394.032 317.743 395.117 316.637C396.202 315.53 397.818 314.794 399.612 314.589Z" fill="white"/>
<path d="M407.02 326.409C407.192 327.773 406.836 329.151 406.025 330.254C405.214 331.356 404.013 332.097 402.674 332.319C402.488 330.953 402.839 329.568 403.652 328.462C404.465 327.356 405.675 326.619 407.02 326.409Z" fill="white"/>
<path d="M407.063 348.669C406.788 350.069 406.015 351.297 404.908 352.09C403.802 352.882 402.451 353.176 401.146 352.908C401.42 351.508 402.194 350.28 403.3 349.488C404.406 348.695 405.757 348.401 407.063 348.669Z" fill="white"/>
<path d="M362.688 348.629C362.962 350.043 363.736 351.284 364.842 352.084C365.949 352.884 367.3 353.179 368.605 352.905C368.256 351.529 367.501 350.315 366.455 349.453C365.319 348.729 363.993 348.439 362.688 348.629Z" fill="white"/>
<path d="M398.131 339.707C398.361 341.071 397.885 342.449 396.803 343.552C395.72 344.654 394.116 345.395 392.328 345.617C392.097 344.254 392.574 342.875 393.656 341.773C394.739 340.67 396.343 339.93 398.131 339.707Z" fill="white"/>
<path d="M395.188 301.291C395.358 302.997 394.999 304.719 394.187 306.097C393.375 307.475 392.173 308.4 390.833 308.679C390.663 306.973 391.022 305.251 391.834 303.873C392.646 302.495 393.848 301.57 395.188 301.291Z" fill="white"/>
<path d="M390.741 311.634C390.931 312.999 390.582 314.384 389.769 315.49C388.956 316.596 387.744 317.334 386.397 317.544C386.224 316.182 386.58 314.805 387.39 313.703C388.2 312.6 389.402 311.859 390.741 311.634Z" fill="white"/>
<path d="M402.582 304.246C402.755 305.949 402.399 307.67 401.587 309.048C400.776 310.426 399.572 311.353 398.23 311.634C398.057 309.931 398.414 308.21 399.225 306.832C400.037 305.454 401.24 304.527 402.582 304.246Z" fill="white"/>
<path d="M364.224 304.246C363.993 305.951 364.47 307.674 365.552 309.052C366.635 310.43 368.239 311.356 370.027 311.634C370.257 309.929 369.781 308.206 368.698 306.828C367.616 305.45 366.012 304.524 364.224 304.246Z" fill="white"/>
<path d="M396.667 289.471C396.837 291.176 396.478 292.899 395.666 294.277C394.854 295.654 393.652 296.58 392.312 296.858C392.142 295.153 392.501 293.43 393.313 292.053C394.125 290.675 395.327 289.749 396.667 289.471Z" fill="white"/>
<path d="M394.81 277.65C395.369 279.046 395.369 280.562 394.81 281.958C394.065 283.288 392.83 284.37 391.296 285.038C390.629 283.658 390.624 282.109 391.282 280.726C391.94 279.343 393.207 278.238 394.81 277.65Z" fill="white"/>
<path d="M376.595 274.695C378.191 275.339 379.421 276.469 380.027 277.847C380.633 279.225 380.567 280.744 379.843 282.083C378.248 281.439 377.017 280.309 376.412 278.93C375.806 277.552 375.872 276.034 376.595 274.695Z" fill="white"/>
<path d="M385.074 289.471C385.967 290.512 386.424 291.87 386.346 293.252C386.268 294.634 385.661 295.929 384.656 296.858C383.775 295.811 383.327 294.456 383.405 293.079C383.483 291.701 384.081 290.407 385.074 289.471Z" fill="white"/>
<path d="M385.083 267.307C385.97 268.348 386.423 269.706 386.346 271.088C386.268 272.47 385.666 273.765 384.668 274.695C383.781 273.654 383.327 272.296 383.405 270.914C383.482 269.532 384.085 268.237 385.083 267.307Z" fill="white"/>
<path d="M367.176 314.589C366.987 315.957 367.337 317.345 368.151 318.451C368.965 319.558 370.176 320.294 371.522 320.499C371.691 319.135 371.333 317.756 370.523 316.654C369.712 315.552 368.513 314.812 367.176 314.589Z" fill="white"/>
<path d="M361.266 327.887C361.036 329.591 361.511 331.314 362.591 332.692C363.672 334.071 365.273 334.996 367.057 335.274C367.313 333.566 366.847 331.831 365.763 330.447C364.678 329.063 363.061 328.143 361.266 327.887Z" fill="white"/>
<path d="M374.572 333.797C374.382 335.162 374.732 336.547 375.545 337.653C376.358 338.759 377.569 339.497 378.916 339.707C379.089 338.345 378.733 336.968 377.923 335.866C377.113 334.763 375.912 334.022 374.572 333.797Z" fill="white"/>
<path d="M378.093 314.589C377.354 315.927 377.28 317.454 377.886 318.838C378.493 320.221 379.732 321.349 381.333 321.977C382.047 320.636 382.109 319.116 381.504 317.739C380.9 316.361 379.677 315.232 378.093 314.589Z" fill="white"/>
<path d="M368.604 364.819C370.074 364.894 371.512 364.322 372.615 363.222C373.719 362.122 374.402 360.581 374.521 358.922C373.052 358.847 371.614 359.419 370.51 360.519C369.407 361.619 368.724 363.161 368.604 364.819Z" fill="white"/>
<path d="M393.75 362.047C394.239 363.441 395.212 364.651 396.52 365.493C397.931 366.2 399.559 366.455 401.146 366.216C400.764 364.765 399.774 363.51 398.39 362.723C397.005 361.936 395.338 361.681 393.75 362.012V362.047Z" fill="white"/>
<path d="M371.628 301.291C371.38 302.998 371.847 304.73 372.929 306.112C374.012 307.494 375.623 308.416 377.414 308.679C377.663 306.972 377.196 305.24 376.113 303.858C375.03 302.476 373.42 301.554 371.628 301.291Z" fill="white"/>
<path d="M371.62 290.948C371.389 292.312 371.866 293.69 372.948 294.793C374.031 295.895 375.635 296.636 377.423 296.858C377.653 295.495 377.177 294.116 376.095 293.014C375.012 291.911 373.408 291.171 371.62 290.948Z" fill="white"/>
<defs>
<clipPath id="clip0_148_12061">
<rect x="153.081" y="376.318" width="51.2059" height="41.303" rx="2" fill="white"/>
</clipPath>
<clipPath id="clip1_148_12061">
<rect x="278.251" y="376.318" width="51.2059" height="41.303" rx="2" fill="white"/>
</clipPath>
<clipPath id="clip2_148_12061">
<rect x="221.355" y="382.728" width="14.935" height="24.2121" rx="2" fill="white"/>
</clipPath>
<clipPath id="clip3_148_12061">
<rect x="244.825" y="382.728" width="14.935" height="24.2121" rx="2" fill="white"/>
</clipPath>
<clipPath id="clip4_148_12061">
<rect x="178.684" y="294.424" width="32.0037" height="38.4545" rx="2" fill="white"/>
</clipPath>
<clipPath id="clip5_148_12061">
<rect x="178.684" y="214.667" width="32.0037" height="38.4545" rx="2" fill="white"/>
</clipPath>
<clipPath id="clip6_148_12061">
<rect x="269.006" y="294.424" width="32.0037" height="38.4545" rx="2" fill="white"/>
</clipPath>
<clipPath id="clip7_148_12061">
<rect x="269.006" y="214.667" width="32.0037" height="38.4545" rx="2" fill="white"/>
</clipPath>
<clipPath id="clip8_148_12061">
<rect x="229.179" y="156.273" width="23.4694" height="38.4545" rx="2" fill="white"/>
</clipPath>
<clipPath id="clip9_148_12061">
<rect x="166.594" y="156.273" width="23.4694" height="38.4545" rx="2" fill="white"/>
</clipPath>
<clipPath id="clip10_148_12061">
<rect x="291.764" y="156.273" width="23.4694" height="38.4545" rx="2" fill="white"/>
</clipPath>
</defs>
</svg>
