<svg xmlns="http://www.w3.org/2000/svg" width="254" height="241" fill="none"><path fill="#fff" stroke="#274430" stroke-width="2" d="M208.854 239.823h1V48.068a5 5 0 0 0-5-5H17a5 5 0 0 0-5 5v191.755h196.854Z"/><path fill="#889596" stroke="#274430" stroke-linejoin="round" stroke-width="2" d="M208.854 44.48a1.002 1.002 0 0 0 .888-1.459L192.039 8.708A5 5 0 0 0 187.596 6H34.258a5 5 0 0 0-4.443 2.708L12.11 43.02A1 1 0 0 0 13 44.48h195.854Z"/><path fill="#80B990" stroke="#274430" stroke-width="2" d="M28.292 179.573h-1v60.25h168.446v-60.25H28.292Z"/><path fill="#565656" fill-opacity=".3" d="M190.033 180.573h4.705v58.25h-4.705v-58.25Z"/><g clip-path="url(#a)"><rect width="42.347" height="34.126" x="38.291" y="192.341" fill="#93D3F6" rx="2"/><path fill="#fff" fill-opacity=".3" d="m38.29 207.271 26.06-14.93h16.287l-42.346 25.595v-10.665ZM39.92 226.467l40.717-24.173v4.266l-34.203 19.907H39.92Z"/><path fill="#565656" fill-opacity=".3" d="M38.291 192.341h42.347v5.688H38.291z"/></g><rect width="44.347" height="36.126" x="37.291" y="191.341" stroke="#274430" stroke-width="2" rx="3"/><path fill="#304436" fill-rule="evenodd" d="M44.76 227.055v-35.303h1.177v35.303H44.76ZM51.818 227.055v-34.714h1.176v34.714h-1.176Z" clip-rule="evenodd"/><path fill="#304436" fill-rule="evenodd" d="M80.637 215.876H38.291v-1.177h42.346v1.177Z" clip-rule="evenodd"/><path fill="#304436" fill-rule="evenodd" d="M58.876 227.055v-34.714h1.176v34.714h-1.176ZM65.934 227.055v-34.714h1.176v34.714h-1.176Z" clip-rule="evenodd"/><path fill="#304436" fill-rule="evenodd" d="M80.637 204.108H38.291v-1.176h42.346v1.176Z" clip-rule="evenodd"/><path fill="#304436" fill-rule="evenodd" d="M72.991 227.055v-34.714h1.177v34.714H72.99Z" clip-rule="evenodd"/><g clip-path="url(#b)"><rect width="42.347" height="34.126" x="141.805" y="192.341" fill="#93D3F6" rx="2"/><path fill="#fff" fill-opacity=".3" d="m141.805 207.271 26.059-14.93h16.287l-42.346 25.595v-10.665ZM143.434 226.467l40.718-24.173v4.266l-34.204 19.907h-6.514Z"/><path fill="#565656" fill-opacity=".3" d="M141.805 192.341h42.347v5.688h-42.347z"/></g><rect width="44.347" height="36.126" x="140.805" y="191.341" stroke="#274430" stroke-width="2" rx="3"/><path fill="#304436" fill-rule="evenodd" d="M148.274 227.055v-35.303h1.177v35.303h-1.177ZM155.332 227.055v-34.714h1.176v34.714h-1.176Z" clip-rule="evenodd"/><path fill="#304436" fill-rule="evenodd" d="M184.151 215.876h-42.346v-1.177h42.346v1.177Z" clip-rule="evenodd"/><path fill="#304436" fill-rule="evenodd" d="M162.39 227.055v-34.714h1.176v34.714h-1.176ZM169.448 227.055v-34.714h1.176v34.714h-1.176Z" clip-rule="evenodd"/><path fill="#304436" fill-rule="evenodd" d="M184.151 204.108h-42.346v-1.176h42.346v1.176Z" clip-rule="evenodd"/><path fill="#304436" fill-rule="evenodd" d="M176.505 227.055v-34.714h1.177v34.714h-1.177Z" clip-rule="evenodd"/><path fill="#4B7857" stroke="#274430" stroke-width="2" d="M130.041 239.823h1v-42.305a5 5 0 0 0-5-5H95.224a5 5 0 0 0-5 5v42.305h39.817Z"/><g clip-path="url(#c)"><rect width="12.351" height="20.005" x="94.752" y="197.636" fill="#93D3F6" rx="2"/><path fill="#fff" fill-opacity=".3" d="m94.752 206.388 7.601-8.752h4.751L94.752 212.64v-6.252ZM95.228 217.641l11.876-14.17v2.501l-9.976 11.669h-1.9Z"/><path fill="#565656" fill-opacity=".3" d="M94.752 197.636h12.351v3.334H94.752z"/></g><rect width="14.351" height="22.005" x="93.752" y="196.636" stroke="#274430" stroke-width="2" rx="3"/><g clip-path="url(#d)"><rect width="12.351" height="20.005" x="114.162" y="197.636" fill="#93D3F6" rx="2"/><path fill="#fff" fill-opacity=".3" d="m114.162 206.388 7.6-8.752h4.751l-12.351 15.004v-6.252ZM114.637 217.641l11.876-14.17v2.501l-9.976 11.669h-1.9Z"/><path fill="#565656" fill-opacity=".3" d="M114.162 197.636h12.351v3.334h-12.351z"/></g><rect width="14.351" height="22.005" x="113.162" y="196.636" stroke="#274430" stroke-width="2" rx="3"/><path fill="#274430" d="M110.044 193.518h1.176V240h-1.176z"/><rect width="3.529" height="1.177" x="112.985" y="220.583" fill="#274430" rx=".588"/><g clip-path="url(#e)"><rect width="26.467" height="31.773" x="59.464" y="124.677" fill="#93D3F6" rx="2"/><path fill="#fff" fill-opacity=".3" d="m59.464 138.577 16.287-13.9h10.18l-26.467 23.829v-9.929ZM60.482 156.45l25.449-22.506v3.971L64.554 156.45h-4.072Z"/><path fill="#565656" fill-opacity=".3" d="M59.464 124.677h26.467v5.295H59.464z"/></g><rect width="28.467" height="33.773" x="58.464" y="123.677" stroke="#274430" stroke-width="2" rx="3"/><path fill="#304436" fill-rule="evenodd" d="M72.403 157.626v-32.949h1.177v32.949h-1.177Z" clip-rule="evenodd"/><path fill="#304436" fill-rule="evenodd" d="M87.107 141.151H59.464v-1.176h27.643v1.176Z" clip-rule="evenodd"/><rect width="30.819" height="3.177" x="57.288" y="156.038" fill="#fff" stroke="#274430" stroke-width="2" rx="1.588"/><rect width="28.819" height="2.354" x="58.288" y="158.215" fill="#565656" fill-opacity=".3" rx="1.177"/><rect width="28.819" height="2.354" x="132.982" y="158.215" fill="#565656" fill-opacity=".3" rx="1.177"/><rect width="28.819" height="2.354" x="132.982" y="99.965" fill="#565656" fill-opacity=".3" rx="1.177"/><rect width="28.819" height="2.354" x="58.288" y="99.965" fill="#565656" fill-opacity=".3" rx="1.177"/><g clip-path="url(#f)"><rect width="26.467" height="31.773" x="59.464" y="58.778" fill="#93D3F6" rx="2"/><path fill="#fff" fill-opacity=".3" d="m59.464 72.678 16.287-13.9h10.18l-26.467 23.83v-9.93ZM60.482 90.55 85.93 68.046v3.971L64.554 90.551h-4.072Z"/><path fill="#565656" fill-opacity=".3" d="M59.464 58.778h26.467v5.295H59.464z"/></g><rect width="28.467" height="33.773" x="58.464" y="57.778" stroke="#274430" stroke-width="2" rx="3"/><path fill="#304436" fill-rule="evenodd" d="M72.403 91.727v-32.95h1.177v32.95h-1.177Z" clip-rule="evenodd"/><path fill="#304436" fill-rule="evenodd" d="M87.107 75.252H59.464v-1.176h27.643v1.176Z" clip-rule="evenodd"/><g clip-path="url(#g)"><rect width="26.467" height="31.773" x="134.159" y="124.677" fill="#93D3F6" rx="2"/><path fill="#fff" fill-opacity=".3" d="m134.159 138.577 16.287-13.9h10.179l-26.466 23.829v-9.929ZM135.177 156.45l25.449-22.506v3.971l-21.377 18.535h-4.072Z"/><path fill="#565656" fill-opacity=".3" d="M134.159 124.677h26.467v5.295h-26.467z"/></g><rect width="28.467" height="33.773" x="133.159" y="123.677" stroke="#274430" stroke-width="2" rx="3"/><path fill="#304436" fill-rule="evenodd" d="M147.098 157.626v-32.949h1.176v32.949h-1.176Z" clip-rule="evenodd"/><path fill="#304436" fill-rule="evenodd" d="M161.802 141.151h-27.643v-1.176h27.643v1.176Z" clip-rule="evenodd"/><rect width="30.819" height="3.177" x="131.982" y="156.038" fill="#fff" stroke="#274430" stroke-width="2" rx="1.588"/><g clip-path="url(#h)"><rect width="26.467" height="31.773" x="134.159" y="58.778" fill="#93D3F6" rx="2"/><path fill="#fff" fill-opacity=".3" d="m134.159 72.678 16.287-13.9h10.179l-26.466 23.83v-9.93ZM135.177 90.55l25.449-22.505v3.971l-21.377 18.535h-4.072Z"/><path fill="#565656" fill-opacity=".3" d="M134.159 58.778h26.467v5.295h-26.467z"/></g><rect width="28.467" height="33.773" x="133.159" y="57.778" stroke="#274430" stroke-width="2" rx="3"/><path fill="#304436" fill-rule="evenodd" d="M147.098 91.727v-32.95h1.176v32.95h-1.176Z" clip-rule="evenodd"/><path fill="#304436" fill-rule="evenodd" d="M161.802 75.252h-27.643v-1.176h27.643v1.176Z" clip-rule="evenodd"/><rect width="30.819" height="3.177" x="131.982" y="89.551" fill="#fff" stroke="#274430" stroke-width="2" rx="1.588"/><path fill="#565656" fill-opacity=".3" d="m101.811 9.354 14.997-4.12 11.469 4.12v34.714h-26.466V9.354Z"/><path fill="#fff" stroke="#274430" stroke-linejoin="round" stroke-width="2" d="M97.254 8.455a1 1 0 0 0-.56.899v34.714a1 1 0 0 0 1 1h26.467a1 1 0 0 0 1-1V9.354a1 1 0 0 0-.561-.899l-13.233-6.472a1 1 0 0 0-.879 0L97.254 8.455Z"/><g clip-path="url(#i)"><rect width="19.409" height="31.773" x="101.223" y="10.53" fill="#93D3F6" rx="2"/><path fill="#fff" fill-opacity=".3" d="m101.223 24.43 11.944-13.9h7.465l-19.409 23.83v-9.93ZM101.969 42.303l18.663-22.506v3.972l-15.677 18.534h-2.986Z"/><path fill="#565656" fill-opacity=".3" d="M101.223 10.53h19.409v5.295h-19.409z"/></g><rect width="21.409" height="33.773" x="100.223" y="9.53" stroke="#274430" stroke-width="2" rx="3"/><path fill="#304436" fill-rule="evenodd" d="M110.633 43.48V10.53h1.176v32.95h-1.176Z" clip-rule="evenodd"/><path fill="#304436" fill-rule="evenodd" d="M120.632 27.005h-19.409v-1.177h19.409v1.177Z" clip-rule="evenodd"/><rect width="31.996" height="3.177" x="94.929" y="41.892" fill="#fff" stroke="#274430" stroke-width="2" rx="1.588"/><path fill="#565656" fill-opacity=".3" d="m49.465 9.354 14.998-4.12 11.469 4.12v34.714H49.465V9.354Z"/><path fill="#fff" stroke="#274430" stroke-linejoin="round" stroke-width="2" d="M45.497 8.455a1 1 0 0 0-.56.899v34.714a1 1 0 0 0 1 1h26.466a1 1 0 0 0 1-1V9.354a1 1 0 0 0-.56-.899L59.609 1.983a1 1 0 0 0-.879 0l-8.822 4.315-4.41 2.157Z"/><g clip-path="url(#j)"><rect width="19.409" height="31.773" x="49.465" y="10.53" fill="#93D3F6" rx="2"/><path fill="#fff" fill-opacity=".3" d="m49.465 24.43 11.944-13.9h7.465L49.465 34.36v-9.93ZM50.212 42.303l18.662-22.506v3.972L53.198 42.303h-2.986Z"/><path fill="#565656" fill-opacity=".3" d="M49.465 10.53h19.409v5.295H49.465z"/></g><rect width="21.409" height="33.773" x="48.465" y="9.53" stroke="#274430" stroke-width="2" rx="3"/><path fill="#304436" fill-rule="evenodd" d="M58.876 43.48V10.53h1.176v32.95h-1.176Z" clip-rule="evenodd"/><path fill="#304436" fill-rule="evenodd" d="M68.874 27.005H49.465v-1.177h19.41v1.177Z" clip-rule="evenodd"/><rect width="31.996" height="3.177" x="43.172" y="41.892" fill="#fff" stroke="#274430" stroke-width="2" rx="1.588"/><path fill="#565656" fill-opacity=".3" d="m153.568 9.354 14.998-4.12 11.469 4.12v34.714h-26.467V9.354Z"/><path fill="#fff" stroke="#274430" stroke-linejoin="round" stroke-width="2" d="M149.011 8.455a1 1 0 0 0-.56.899v34.714a1 1 0 0 0 1 1h26.466a1 1 0 0 0 1-1V9.354a1 1 0 0 0-.56-.899l-13.234-6.472a.998.998 0 0 0-.878 0l-13.234 6.472Z"/><g clip-path="url(#k)"><rect width="19.409" height="31.773" x="152.979" y="10.53" fill="#93D3F6" rx="2"/><path fill="#fff" fill-opacity=".3" d="m152.979 24.43 11.944-13.9h7.465l-19.409 23.83v-9.93ZM153.726 42.303l18.663-22.506v3.972l-15.677 18.534h-2.986Z"/><path fill="#565656" fill-opacity=".3" d="M152.979 10.53h19.409v5.295h-19.409z"/></g><rect width="21.409" height="33.773" x="151.979" y="9.53" stroke="#274430" stroke-width="2" rx="3"/><path fill="#304436" fill-rule="evenodd" d="M162.39 43.48V10.53h1.176v32.95h-1.176Z" clip-rule="evenodd"/><path fill="#304436" fill-rule="evenodd" d="M172.388 27.005h-19.409v-1.177h19.409v1.177Z" clip-rule="evenodd"/><rect width="31.996" height="3.177" x="146.686" y="41.892" fill="#fff" stroke="#274430" stroke-width="2" rx="1.588"/><rect width="30.819" height="3.177" x="57.288" y="89.55" fill="#fff" stroke="#274430" stroke-width="2" rx="1.588"/><path fill="#565656" fill-opacity=".3" d="M28.292 180.573h166.446v5.296H28.292v-5.296Z"/><path fill="#80B990" stroke="#274430" stroke-width="2" d="M26.235 171.924a4.825 4.825 0 0 0 0 9.649h170.56a4.824 4.824 0 0 0 0-9.649H26.235Z"/><path fill="#565656" fill-opacity=".3" d="M196.795 172.924h-14.996s-2.393 2.269-4.126 3.278c-4.093 2.386-11.492 4.371-11.492 4.371h30.614a3.825 3.825 0 1 0 0-7.649Z"/><path fill="#fff" stroke="#274430" stroke-width="2" d="M12 100.142h197.854v6.119H12z"/><path fill="#274430" d="M15.941 101.142h1.176v4.119h-1.176zM21.822 101.142h1.176v4.119h-1.176zM27.704 101.142h1.176v4.119h-1.176zM33.585 101.142h1.176v4.119h-1.176zM39.467 101.142h1.176v4.119h-1.176zM45.348 101.142h1.176v4.119h-1.176zM51.23 101.142h1.176v4.119H51.23zM57.111 101.142h1.176v4.119h-1.176zM62.993 101.142h1.176v4.119h-1.176zM68.874 101.142h1.176v4.119h-1.176zM74.756 101.142h1.176v4.119h-1.176zM80.637 101.142h1.176v4.119h-1.176zM86.519 101.142h1.176v4.119h-1.176zM92.4 101.142h1.176v4.119H92.4zM98.282 101.142h1.176v4.119h-1.176zM104.163 101.142h1.176v4.119h-1.176zM110.045 101.142h1.176v4.119h-1.176zM115.926 101.142h1.176v4.119h-1.176zM121.808 101.142h1.176v4.119h-1.176zM127.689 101.142h1.176v4.119h-1.176zM133.571 101.142h1.176v4.119h-1.176zM139.452 101.142h1.176v4.119h-1.176zM145.333 101.142h1.176v4.119h-1.176zM151.215 101.142h1.176v4.119h-1.176zM157.097 101.142h1.176v4.119h-1.176zM162.978 101.142h1.176v4.119h-1.176zM168.86 101.142h1.176v4.119h-1.176zM174.741 101.142h1.176v4.119h-1.176zM180.623 101.142h1.176v4.119h-1.176zM186.504 101.142h1.176v4.119h-1.176zM192.386 101.142h1.176v4.119h-1.176zM198.267 101.142h1.176v4.119h-1.176zM204.148 101.142h1.176v4.119h-1.176z"/><path fill="#fff" stroke="#274430" stroke-width="2" d="M12 43.657h197.854v4.942H12z"/><path fill="#565656" fill-opacity=".3" d="M13 105.849h195.854v4.119H13zM13 48.187h195.854v4.119H13z"/><path fill="#565656" fill-opacity=".3" d="M200.62 238.823h8.234V43.48l-8.234-15.887v211.23Z"/><path fill="#274430" d="M4.922 238.823h228.51s6.887 0 6.887.882-6.887.882-6.887.882H4.922s-4.861 0-4.861-.882 4.861-.882 4.861-.882Z"/><path fill="#92E3A9" stroke="#274430" stroke-width="2" d="M229.365 198.495c6.649 0 12.581-3.71 16.814-9.533 4.233-5.823 6.821-13.818 6.821-22.603 0-8.705-2.552-27.863-6.658-44.83-2.054-8.487-4.512-16.486-7.261-22.385-1.372-2.945-2.842-5.42-4.409-7.174-1.554-1.74-3.329-2.906-5.307-2.906-1.931 0-3.67 1.113-5.196 2.784-1.535 1.682-2.977 4.057-4.324 6.886-2.699 5.667-5.12 13.372-7.16 21.609-4.275 17.257-6.945 37.114-6.945 46.016 0 8.779 2.586 16.774 6.817 22.599 4.23 5.824 10.159 9.537 16.808 9.537Z"/><path fill="#fff" fill-opacity=".3" d="M229.365 90.064c-6.103 0-11.828 14.705-15.897 31.13 0 0 4.993-13.893 9.786-21.974 2.193-3.698 6.111-9.156 6.111-9.156Z"/><path fill="#565656" fill-opacity=".3" d="M229.877 197.487c12.262-.374 22.123-14.171 22.123-31.128 0-17.193-10.136-76.296-22.635-76.296 12.499 0 19.577 59.103 19.577 76.296 0 16.957-6.885 30.753-19.065 31.128Z"/><path fill="#274430" d="m242.214 175.493-6.971 2.546 1.402-4.137-3.33 4.843-3.329 1.203-.232-13.563 12.097-15.84-6.487 6.384 1.099-4.435-3.097 6.414-3.683 3.629-.363-21.2-1.322 30.915-11.472-11.972 6.306 8.432-5.942-.646 7.335 2.515 3.632 4.873-.636 14.905-4.227-2.824 4.096 5.906-1.937 45.561h5.872l-.999-56.886 12.188-6.623Z"/><path fill="#fff" d="M242.169 141.337c.187 1.128-.208 2.266-1.102 3.177-.893.911-2.216 1.522-3.691 1.707-.208-1.13.179-2.277 1.076-3.192.897-.914 2.233-1.522 3.717-1.692ZM248.295 151.104a4.425 4.425 0 0 1-.822 3.177 4.33 4.33 0 0 1-2.772 1.706 4.379 4.379 0 0 1 .809-3.187 4.278 4.278 0 0 1 2.785-1.696ZM248.33 169.496c-.227 1.157-.866 2.172-1.781 2.827a3.96 3.96 0 0 1-3.111.676c.226-1.157.866-2.171 1.781-2.826a3.96 3.96 0 0 1 3.111-.677ZM211.633 169.463c.227 1.169.867 2.194 1.782 2.855a3.918 3.918 0 0 0 3.111.679c-.288-1.138-.912-2.14-1.777-2.853a4.568 4.568 0 0 0-3.116-.681ZM240.944 162.091c.191 1.127-.203 2.266-1.098 3.177-.896.911-2.222 1.523-3.701 1.707-.19-1.127.203-2.266 1.099-3.177.895-.911 2.222-1.523 3.7-1.707ZM238.51 130.35c.141 1.409-.156 2.833-.828 3.971-.671 1.138-1.665 1.903-2.773 2.133-.141-1.409.156-2.832.827-3.971.672-1.138 1.666-1.903 2.774-2.133ZM234.833 138.896a4.364 4.364 0 0 1-.804 3.186 4.28 4.28 0 0 1-2.788 1.697 4.415 4.415 0 0 1 .821-3.174 4.334 4.334 0 0 1 2.771-1.709ZM244.625 132.792c.143 1.407-.151 2.829-.823 3.967-.671 1.139-1.666 1.905-2.776 2.137-.143-1.407.152-2.829.823-3.967.671-1.139 1.666-1.905 2.776-2.137ZM212.903 132.792a5.274 5.274 0 0 0 1.099 3.971c.895 1.138 2.222 1.903 3.7 2.133a5.269 5.269 0 0 0-1.098-3.971c-.895-1.138-2.222-1.903-3.701-2.133ZM239.734 120.584c.14 1.409-.156 2.833-.828 3.971-.672 1.138-1.666 1.903-2.774 2.133-.14-1.409.156-2.833.828-3.971.672-1.138 1.666-1.903 2.774-2.133ZM238.197 110.817a4.736 4.736 0 0 1 0 3.56c-.615 1.099-1.637 1.993-2.906 2.544a4.068 4.068 0 0 1-.011-3.562c.544-1.143 1.592-2.056 2.917-2.542ZM223.135 108.375c1.319.532 2.336 1.466 2.837 2.605a3.924 3.924 0 0 1-.152 3.5c-1.319-.532-2.336-1.466-2.837-2.605a3.924 3.924 0 0 1 .152-3.5ZM230.146 120.584a4.411 4.411 0 0 1 1.052 3.124 4.392 4.392 0 0 1-1.397 2.98 4.464 4.464 0 0 1-1.035-3.123 4.438 4.438 0 0 1 1.38-2.981ZM230.154 102.271a4.44 4.44 0 0 1 1.044 3.125 4.41 4.41 0 0 1-1.387 2.98 4.437 4.437 0 0 1-1.045-3.125 4.406 4.406 0 0 1 1.388-2.98ZM215.344 141.337a4.38 4.38 0 0 0 .807 3.192 4.264 4.264 0 0 0 2.787 1.692 4.431 4.431 0 0 0-.826-3.177 4.322 4.322 0 0 0-2.768-1.707ZM210.457 152.325a5.276 5.276 0 0 0 1.096 3.97c.894 1.139 2.218 1.904 3.693 2.134a5.198 5.198 0 0 0-1.07-3.989c-.897-1.144-2.234-1.904-3.719-2.115ZM221.461 157.208a4.364 4.364 0 0 0 .804 3.186 4.28 4.28 0 0 0 2.788 1.697 4.42 4.42 0 0 0-.821-3.174 4.334 4.334 0 0 0-2.771-1.709ZM224.373 141.337a3.908 3.908 0 0 0-.171 3.511c.502 1.143 1.527 2.075 2.851 2.593a3.958 3.958 0 0 0 .141-3.501c-.5-1.139-1.511-2.071-2.821-2.603ZM216.526 182.84c1.215.062 2.404-.411 3.317-1.32.913-.909 1.478-2.182 1.576-3.553-1.215-.062-2.404.411-3.316 1.32-.913.909-1.478 2.182-1.577 3.553ZM237.321 180.549c.405 1.153 1.209 2.152 2.291 2.848a6.44 6.44 0 0 0 3.825.597c-.315-1.199-1.134-2.236-2.279-2.886a5.525 5.525 0 0 0-3.837-.587v.028ZM219.027 130.35a5.221 5.221 0 0 0 1.076 3.983c.895 1.142 2.227 1.904 3.709 2.121a5.222 5.222 0 0 0-1.077-3.983c-.895-1.142-2.227-1.904-3.708-2.121ZM219.02 121.805c-.191 1.126.203 2.265 1.098 3.176s2.222 1.523 3.701 1.707c.19-1.127-.204-2.266-1.099-3.177s-2.222-1.522-3.7-1.706Z"/><defs><clipPath id="a"><rect width="42.347" height="34.126" x="38.291" y="192.341" fill="#fff" rx="2"/></clipPath><clipPath id="b"><rect width="42.347" height="34.126" x="141.805" y="192.341" fill="#fff" rx="2"/></clipPath><clipPath id="c"><rect width="12.351" height="20.005" x="94.752" y="197.636" fill="#fff" rx="2"/></clipPath><clipPath id="d"><rect width="12.351" height="20.005" x="114.162" y="197.636" fill="#fff" rx="2"/></clipPath><clipPath id="e"><rect width="26.467" height="31.773" x="59.464" y="124.677" fill="#fff" rx="2"/></clipPath><clipPath id="f"><rect width="26.467" height="31.773" x="59.464" y="58.778" fill="#fff" rx="2"/></clipPath><clipPath id="g"><rect width="26.467" height="31.773" x="134.159" y="124.677" fill="#fff" rx="2"/></clipPath><clipPath id="h"><rect width="26.467" height="31.773" x="134.159" y="58.778" fill="#fff" rx="2"/></clipPath><clipPath id="i"><rect width="19.409" height="31.773" x="101.223" y="10.53" fill="#fff" rx="2"/></clipPath><clipPath id="j"><rect width="19.409" height="31.773" x="49.465" y="10.53" fill="#fff" rx="2"/></clipPath><clipPath id="k"><rect width="19.409" height="31.773" x="152.979" y="10.53" fill="#fff" rx="2"/></clipPath></defs></svg>
