<svg width="171" height="152" viewBox="0 0 171 152" fill="none" xmlns="http://www.w3.org/2000/svg">
<path fill-rule="evenodd" clip-rule="evenodd" d="M42.7378 38.1409C42.9525 37.9262 43.1692 37.6957 43.3846 37.4644C43.7695 37.0066 44.1906 36.5767 44.6404 36.1779C44.7706 36.0598 44.908 35.9501 45.052 35.8493C45.0709 35.8304 45.0804 35.802 45.0898 35.7737C45.0992 35.7453 45.1087 35.717 45.1276 35.6981C45.0332 35.7359 44.9576 35.7926 44.882 35.8492C44.8064 35.9059 44.7308 35.9626 44.6363 36.0004C44.5985 36.0004 44.5607 35.9627 44.5985 35.9249L45.0023 35.622C44.994 35.6225 44.9852 35.6225 44.9764 35.6225C44.9387 35.6225 44.9387 35.5848 44.9387 35.5469C44.4514 35.472 44.0758 35.8058 43.7378 36.1061L43.7292 36.1138C43.6788 36.1391 43.6284 36.1138 43.5892 36.0942C43.5697 36.0844 43.5529 36.076 43.5403 36.076C43.2432 36.1751 42.9876 36.3572 42.7301 36.5407C42.4962 36.7074 42.2606 36.8752 41.9909 36.9831V36.9075C41.8969 36.9388 41.804 36.9807 41.7109 37.0227C41.5793 37.0821 41.4472 37.1417 41.3106 37.172C41.0548 37.2288 40.8204 37.2216 40.5913 37.2145C40.5158 37.2121 40.4405 37.2098 40.3656 37.2098C39.9035 37.266 39.4447 37.3477 38.9915 37.4545L38.9717 37.4594L38.9627 37.4616L38.952 37.4644C38.7068 37.5305 38.4704 37.6257 38.2478 37.748C38.239 37.7527 38.2304 37.7578 38.222 37.763C38.2032 37.7866 38.1847 37.8092 38.1673 37.8284C38.096 37.9195 38.008 37.9962 37.9081 38.0545C37.7438 38.1381 37.6006 38.2657 37.4584 38.3923C37.3997 38.4446 37.3412 38.4968 37.2814 38.5456C37.2636 38.558 37.2425 38.5647 37.2208 38.5648C37.1585 38.6246 37.0965 38.6846 37.0344 38.7446C36.8946 38.8797 36.7547 39.0152 36.6121 39.1474C36.5761 39.1641 36.5358 39.1689 36.4968 39.1612C36.5072 39.1457 36.5146 39.1338 36.5218 39.1218C36.5536 39.0684 36.5859 39.0153 36.6186 38.9624C36.6552 38.9033 36.6925 38.8448 36.7307 38.7869C36.7822 38.7087 36.8352 38.6314 36.8916 38.5568C36.9047 38.5426 36.9041 38.5206 36.8902 38.5072C36.876 38.4937 36.857 38.4866 36.8374 38.4874C37.0307 38.3066 37.2435 38.1478 37.4718 38.014C37.4466 38.0163 37.4099 37.9961 37.429 37.9695C37.4431 37.9499 37.4554 37.9296 37.4676 37.9092C37.4763 37.8949 37.4849 37.8806 37.4942 37.8665C37.4985 37.8553 37.5024 37.844 37.5063 37.8328C37.5004 37.8263 37.4945 37.8203 37.4886 37.8142L37.4777 37.803C37.4155 37.8399 37.3561 37.8814 37.3001 37.9271C37.2727 37.9518 37.2471 37.9843 37.2209 38.0176C37.1607 38.0942 37.0973 38.1748 37.0017 38.1737C36.9823 38.1734 36.963 38.1706 36.9444 38.1655C36.9304 38.1636 36.9169 38.159 36.9047 38.152L36.9096 38.1433L36.9152 38.1327L36.9207 38.1229L36.9387 38.0904L36.9484 38.0729L36.9567 38.0578L36.9712 38.0316C36.9802 38.0156 36.9889 37.9999 36.998 37.9837L37.0056 37.9704L37.0097 37.9634L37.0178 37.9495C37.0291 37.93 37.0404 37.9107 37.0518 37.8913L37.0666 37.8661L37.0899 37.826L37.1065 37.7975L37.1184 37.7771L37.1301 37.7573C37.1379 37.7449 37.1391 37.7296 37.1335 37.7161C37.1278 37.7027 37.116 37.6928 37.1017 37.6897C37.172 37.598 37.26 37.5213 37.3605 37.4642H37.3491C37.4487 37.414 37.5483 37.3565 37.6479 37.2989C37.6928 37.2729 37.7382 37.2467 37.7831 37.2214C37.7971 37.2095 37.8107 37.1975 37.8244 37.1856L37.8456 37.1674C37.6329 37.2393 37.4306 37.3391 37.244 37.4641C37.2216 37.4729 37.2003 37.4845 37.1807 37.4986C37.1452 37.5063 37.1085 37.4928 37.0864 37.4641C37.0803 37.4561 37.0771 37.4463 37.0773 37.4363C37.0994 37.3923 37.1471 37.361 37.198 37.3277C37.2345 37.3038 37.2726 37.2788 37.3042 37.2473C37.3418 37.2473 37.3796 37.2473 37.3796 37.2851C38.1301 36.6988 39.055 36.5637 39.9831 36.4282C40.5507 36.3454 41.1196 36.2623 41.6503 36.0757L41.9904 35.849C42.0876 35.8101 42.1748 35.7412 42.2674 35.6681C42.3549 35.599 42.4471 35.5261 42.5572 35.471C42.8626 35.2614 43.0889 34.9553 43.1997 34.6019C43.1957 34.5732 43.1825 34.5466 43.162 34.5262C42.687 35.0383 42.1238 35.4608 41.4991 35.7734C40.9268 36.0732 40.3152 36.1175 39.7068 36.1615C39.4715 36.1785 39.2366 36.1955 39.0047 36.2273C39.0426 36.1518 39.1182 36.1518 39.1937 36.1518C39.1937 36.062 39.241 36.0196 39.2982 35.9684C39.3133 35.9549 39.3291 35.9408 39.3449 35.925H39.4584C39.4772 35.925 39.4866 35.9061 39.496 35.8872C39.5055 35.8683 39.5149 35.8494 39.5338 35.8494C39.6094 35.8494 39.7229 35.8116 39.6851 35.8116C39.6275 35.7348 39.5407 35.7652 39.4444 35.799C39.3511 35.8316 39.249 35.8674 39.156 35.8116C39.1925 35.7751 39.2025 35.7297 39.2117 35.6883C39.2214 35.6441 39.2302 35.6044 39.2693 35.5849H39.4205C39.4284 35.5276 39.455 35.4744 39.4961 35.4337C39.8328 35.2316 40.1562 35.0562 40.4742 34.8838C40.6916 34.7659 40.9065 34.6494 41.1215 34.5266C41.0775 34.5266 41.0393 34.5436 41.0023 34.5601C40.9438 34.5862 40.8886 34.6108 40.8192 34.5645C40.857 34.5645 40.857 34.5361 40.857 34.5078C40.857 34.4794 40.857 34.451 40.8948 34.451C41.1327 34.3862 41.3458 34.2842 41.5625 34.1804C41.7245 34.1029 41.8885 34.0245 42.0663 33.9598C42.0145 33.9598 41.967 33.9732 41.921 33.9861C41.8329 34.0109 41.7499 34.0343 41.6506 33.9598C41.6757 33.9472 41.6967 33.9304 41.7177 33.9136C41.7597 33.88 41.8017 33.8464 41.8773 33.8464V33.733C41.8773 33.6952 41.9152 33.6952 41.953 33.6952C41.9243 33.6912 41.8977 33.678 41.8773 33.6574C41.8969 33.6184 41.9366 33.6096 41.9808 33.5998C42.0222 33.5906 42.0676 33.5806 42.1041 33.5441C42.0663 33.5441 41.9907 33.5441 41.9907 33.5063C42.1041 33.3551 42.293 33.3172 42.4821 33.2795C42.4631 33.2417 42.4253 33.2417 42.3922 33.2417C42.3592 33.2417 42.3308 33.2417 42.3308 33.2039C42.3308 33.1661 42.3686 33.1661 42.4064 33.1661H42.3308C42.2722 33.1368 42.2818 33.0848 42.289 33.0453C42.2911 33.0338 42.293 33.0234 42.293 33.015C42.4442 32.8386 42.4946 32.6286 42.5449 32.4187C42.5701 32.3137 42.5953 32.2087 42.6331 32.1079C42.5953 32.1079 42.5575 32.1079 42.5575 32.0701C42.1907 32.4737 41.61 32.6279 41.0579 32.7746L41.0081 32.7878H40.8192C40.6098 32.87 40.3749 32.8562 40.1766 32.75C40.0851 32.7042 40.0213 32.6446 39.9517 32.5796C39.9063 32.5371 39.8584 32.4924 39.7988 32.4476C39.5032 32.2589 39.186 32.1065 38.8539 31.9938C37.9155 31.687 36.9307 31.5464 35.9439 31.5782C36.2155 31.43 36.5055 31.3704 36.7989 31.3101C36.9546 31.2781 37.1113 31.2459 37.2667 31.2002C37.3606 31.1726 37.4538 31.1441 37.5464 31.1158C38.0876 30.9505 38.6132 30.79 39.194 30.8222C39.1172 30.7966 39.023 30.8057 38.9349 30.8143C38.8931 30.8183 38.8526 30.8222 38.8161 30.8222C38.3905 30.7918 37.9648 30.8837 37.5192 30.9799C37.411 31.0033 37.3016 31.0269 37.1907 31.0491C37.0019 31.0868 36.8226 31.1435 36.6432 31.2001C36.4636 31.2568 36.284 31.3135 36.0948 31.3513C36.0077 31.3804 35.9373 31.4317 35.8686 31.4818C35.7586 31.5621 35.653 31.6392 35.49 31.6158V31.5025C35.868 31.0486 36.3215 30.5955 36.9262 30.5577C37.5011 30.4619 38.0491 30.5281 38.6157 30.5965C38.7194 30.609 38.824 30.6216 38.9293 30.6333C39.4138 30.6848 39.8936 30.7732 40.3647 30.8978C40.4686 30.8978 40.5268 30.9891 40.5832 31.0776C40.6295 31.1502 40.6746 31.221 40.7428 31.238C40.8334 31.2682 40.9242 31.2743 41.0149 31.2803C41.151 31.2894 41.2871 31.2984 41.4229 31.3891C41.4229 31.3639 41.4187 31.3387 41.4145 31.3136C41.4061 31.2632 41.3977 31.2128 41.4229 31.1624C41.5082 31.077 41.6056 31.1001 41.7014 31.1228C41.7754 31.1403 41.8485 31.1575 41.9143 31.1246C42.1194 30.9964 41.9244 30.7986 41.7306 30.602C41.6388 30.5089 41.5472 30.416 41.4986 30.3309C41.5026 30.3023 41.5158 30.2757 41.5363 30.2553C41.6269 30.3346 41.7107 30.4173 41.7938 30.4993C41.9881 30.6909 42.1787 30.8788 42.4433 31.0112C42.6323 31.0867 43.0858 31.2002 43.0102 30.9735C42.8778 30.682 42.6524 30.4277 42.4254 30.1715C42.3285 30.0622 42.2314 29.9526 42.141 29.8396V29.689C42.0857 29.689 42.0709 29.6687 42.0521 29.6431C42.0452 29.6337 42.0378 29.6235 42.0277 29.6134V29.4623C41.9326 29.4148 41.9123 29.3374 41.8915 29.2583C41.8792 29.2116 41.8668 29.1643 41.8387 29.1222C41.7755 29.0169 41.771 28.8882 41.7663 28.7556C41.7626 28.6501 41.7588 28.5422 41.7253 28.4418C41.6571 28.2323 41.6066 28.0174 41.574 27.7994C41.5296 27.5473 41.4794 27.3069 41.4303 27.0713C41.3542 26.7063 41.2803 26.3528 41.234 25.9854C41.1758 25.4327 41.4537 24.9693 41.7399 24.492C41.8254 24.3495 41.9117 24.2057 41.9899 24.058C42.2544 23.6041 42.5567 23.1509 43.048 22.8486C43.1612 22.396 43.4622 22.0192 43.7632 21.6424L43.7657 21.6393C44.0675 21.2704 44.569 21.0457 44.9323 20.8833C45.26 20.7378 45.5952 20.6098 45.9365 20.5H20V40.4994H38.3682C38.8695 40.1385 39.3703 39.9096 39.9676 39.6366C40.2277 39.5177 40.506 39.3905 40.8106 39.2404C40.8691 39.2116 40.9368 39.1789 41.0112 39.1428L41.0129 39.142C41.5435 38.8852 42.416 38.4629 42.7378 38.1409ZM36.7372 35.3958C36.7637 35.2632 36.9017 35.2237 37.0341 35.1857C37.0905 35.1696 37.1458 35.1538 37.191 35.1312L37.2091 35.1219L37.2295 35.111C37.3016 35.0724 37.392 35.0239 37.4556 35.0556C37.4984 35.1198 37.5533 35.1355 37.6066 35.1508C37.6474 35.1625 37.6874 35.174 37.7202 35.2068C37.5837 35.3431 37.42 35.3565 37.2537 35.3701C37.1433 35.3792 37.0317 35.3883 36.9262 35.4336C36.9078 35.4336 36.885 35.4358 36.8615 35.4381C36.7883 35.4452 36.7086 35.453 36.7372 35.3958ZM32.3154 32.5991C31.976 33.2794 31.5709 33.9249 31.1061 34.5265C31.11 34.5552 31.1233 34.5818 31.1439 34.6022C32.051 33.5817 32.8824 32.7125 34.0535 31.9944C34.0825 31.98 34.0726 31.9932 34.0579 32.0129C34.0343 32.0447 33.9981 32.0933 34.0913 32.07C34.4841 31.9794 34.6595 31.6472 34.8299 31.3245C34.8726 31.2435 34.915 31.1632 34.9605 31.0874C35.1362 30.8019 35.3885 30.6186 35.6431 30.4335C35.8267 30.3 36.0116 30.1656 36.1699 29.9915C36.175 30.033 36.1611 30.0747 36.1321 30.1048C36.1623 30.1339 36.204 30.1478 36.2455 30.1426C36.3114 30.0933 36.3843 30.0726 36.455 30.0525C36.547 30.0264 36.6353 30.0013 36.6994 29.9159C36.386 29.7904 36.0389 29.777 35.7167 29.878C34.923 30.256 34.2429 30.8607 33.6003 31.541C33.2146 31.9494 32.8067 32.3346 32.3154 32.5991ZM34.1672 32.259C34.1375 32.3265 34.0836 32.3804 34.0161 32.4102C33.9783 32.4102 33.9405 32.4102 33.9405 32.3724C33.9744 32.2137 34.0892 32.0845 34.2429 32.0322C34.2807 32.0321 34.2807 32.07 34.2807 32.1078C34.2613 32.1467 34.2408 32.1677 34.2208 32.1881C34.202 32.2074 34.1836 32.2262 34.1672 32.259ZM35.9925 37.9389C36.023 37.9109 35.9899 37.89 35.9426 37.8804C35.9814 37.8509 36.0131 37.8133 36.0356 37.7701C36.0665 37.6959 35.8667 37.7137 35.8356 37.7353C35.8051 37.7596 35.7778 37.7878 35.7544 37.819C35.705 37.8722 35.6525 37.9224 35.5973 37.9695C35.5558 38.0075 35.5155 38.0466 35.4752 38.0856C35.4235 38.1358 35.3718 38.1859 35.3179 38.2334C35.2543 38.2893 35.4621 38.3186 35.5069 38.2788C35.5552 38.236 35.6017 38.1914 35.6479 38.1466C35.6675 38.1458 35.687 38.1432 35.7061 38.1387C35.8147 38.0933 35.9124 38.0252 35.9925 37.9389ZM35.3491 37.4644L35.3046 37.4958C35.1779 37.5852 35.051 37.6747 34.9176 37.7522C34.7978 37.8217 34.6739 37.8788 34.5496 37.9362C34.5061 37.9562 34.4625 37.9763 34.4191 37.997C34.4179 37.9937 34.4162 37.9906 34.4142 37.9878C34.3998 37.9676 34.3728 37.9611 34.3509 37.9726C34.2119 38.0518 34.0841 38.1492 33.9709 38.2622C33.9533 38.2789 33.9357 38.2959 33.9181 38.3131C33.8942 38.3366 33.8763 38.3544 33.8584 38.3724L33.8521 38.3787C33.8515 38.3793 33.8512 38.38 33.8509 38.3806L33.8498 38.3822C33.8229 38.4089 33.7971 38.4359 33.7675 38.4706C33.7539 38.4909 33.7368 38.5088 33.7171 38.5233C33.6936 38.5389 33.6286 38.5386 33.6346 38.495V38.4876L33.6319 38.4891C33.6105 38.5003 33.5891 38.5116 33.5675 38.522C33.5479 38.5312 33.5304 38.5415 33.5126 38.552L33.5085 38.5544C33.5002 38.5512 33.4913 38.5499 33.4824 38.5506C33.4726 38.5507 33.4631 38.5539 33.4552 38.5597C33.409 38.5959 33.3633 38.6345 33.3187 38.6749C33.2393 38.7464 33.1659 38.8244 33.0994 38.908L33.0886 38.922L33.0773 38.9366C33.0737 38.9416 33.0692 38.9472 33.0653 38.9523L33.0616 38.9569L33.056 38.9649L33.0451 38.9809L33.036 38.9945C33.026 39.0049 33.0151 39.0101 33.0035 39.0117L32.9972 39.0025C32.9941 38.9981 32.991 38.9937 32.9883 38.9891L32.982 38.9784L32.9777 38.9708C32.9662 38.9513 32.9555 38.9311 32.9454 38.9103L32.9443 38.908L32.94 38.8992L32.9354 38.8893C32.9763 38.8453 33.0158 38.7998 33.054 38.7532L33.0616 38.7441C33.0749 38.7279 33.0879 38.7118 33.1009 38.6956L33.1642 38.6147C33.1688 38.6085 33.1733 38.6027 33.1779 38.5969L33.1873 38.5848C33.2288 38.5306 33.2685 38.478 33.3055 38.4252L33.3083 38.4211L33.3149 38.4113C33.3181 38.4067 33.3212 38.402 33.3246 38.3973C33.3427 38.3706 33.3601 38.3436 33.3764 38.3161C33.3911 38.2914 33.4049 38.2663 33.4177 38.2407L33.4208 38.2351L33.4247 38.2273C33.4258 38.2251 33.4268 38.2228 33.4277 38.2205C33.4288 38.2181 33.4298 38.2156 33.4309 38.2132C33.4442 38.1847 33.4562 38.1554 33.4668 38.1251L33.4702 38.1153L33.4723 38.1091C33.4745 38.103 33.4767 38.0968 33.4786 38.0905C33.4829 38.0769 33.4868 38.0629 33.4905 38.0488C33.4912 38.0457 33.4917 38.0426 33.4926 38.0396L33.4959 38.0264C33.4994 38.0126 33.5029 37.9987 33.5057 37.9842C33.5073 37.9754 33.5057 37.9664 33.5011 37.9588C33.5437 37.8857 33.5939 37.8173 33.6509 37.7547C33.6482 37.7564 33.6453 37.758 33.6424 37.7595C33.6394 37.7611 33.6364 37.7628 33.6336 37.7646C33.6035 37.784 33.579 37.8076 33.5545 37.8313C33.5351 37.8502 33.5156 37.869 33.4933 37.8857C33.4521 37.9164 33.3763 37.8655 33.425 37.829C33.4552 37.8049 33.4839 37.7789 33.5109 37.7511C33.5747 37.6765 33.639 37.6124 33.7078 37.5532L33.724 37.5415C33.7608 37.5148 33.7934 37.4911 33.8239 37.4645C33.8277 37.4612 33.8312 37.4577 33.835 37.4543L33.8404 37.4494C33.8662 37.4157 33.8944 37.3839 33.9249 37.3544L33.9265 37.3528C33.9272 37.352 33.9279 37.3513 33.9288 37.3507C34.1499 37.1373 34.4634 37.0601 34.7827 36.9816C34.9857 36.9316 35.1911 36.881 35.3765 36.7945C35.4817 36.7524 35.5987 36.7689 35.7144 36.7853C35.8063 36.7984 35.8974 36.8113 35.981 36.7945C36.0996 36.7829 36.2187 36.8095 36.3212 36.8702C36.0593 37.0128 35.8125 37.1697 35.5712 37.3232C35.4999 37.3686 35.4292 37.4136 35.3586 37.4578L35.3491 37.4644ZM35.9812 34.7533H36.2836C36.2623 34.796 36.2048 34.8025 36.1656 34.807C36.1354 34.8104 36.1161 34.8126 36.1325 34.8291C36.246 34.9422 36.4727 34.9045 36.6238 34.8289C36.7386 34.7643 36.8709 34.7378 37.0017 34.7533C37.0395 34.7533 37.0395 34.6777 37.0395 34.64C37.137 34.671 37.2395 34.6839 37.3417 34.6777C38.2488 34.4887 39.1181 34.2998 39.9495 33.884C39.1105 33.2387 38.0786 32.9515 37.0656 32.6696C36.8922 32.6214 36.7194 32.5733 36.5481 32.5235C36.5859 32.5235 36.6237 32.5361 36.6615 32.5487C36.7371 32.5739 36.8127 32.5991 36.8883 32.5235C36.7855 32.4413 36.6714 32.4262 36.5583 32.4112C36.4637 32.3987 36.3697 32.3863 36.2836 32.3346C36.2921 32.3346 36.3025 32.3365 36.314 32.3386C36.3535 32.3459 36.4055 32.3554 36.4348 32.2968C36.2333 32.1961 36.0318 32.1625 35.8303 32.1289C35.7295 32.1121 35.6286 32.0952 35.5277 32.07C35.7088 32.0374 35.838 31.876 35.8301 31.6921C35.8301 31.6544 35.7545 31.6544 35.7167 31.6544C35.2632 31.8811 34.9608 32.2968 34.7719 32.7881C34.9407 32.8846 35.1248 32.8733 35.3047 32.8624C35.4068 32.8562 35.5076 32.85 35.6034 32.8637C35.5192 32.9476 35.3938 32.9694 35.273 32.9904C35.2306 32.9978 35.1888 33.005 35.1495 33.0149C35.0335 33.0438 34.9227 33.1282 34.9605 33.2038C34.9811 33.2324 35.0118 33.2519 35.0464 33.2585C34.9571 33.282 34.8755 33.3283 34.8094 33.3928C34.9176 33.4738 35.0257 33.4584 35.1337 33.4429C35.1769 33.4368 35.22 33.4306 35.2632 33.4306C35.2632 33.481 35.2968 33.4978 35.3305 33.5146C35.3473 33.523 35.3641 33.5314 35.3767 33.544C35.2115 33.6042 35.076 33.7261 34.9987 33.884C34.9533 33.9975 34.8671 34.07 34.781 34.1426C34.7235 34.191 34.6661 34.2393 34.6208 34.2998V34.4131C34.4923 34.5287 34.3595 34.6311 34.2284 34.7324C33.9734 34.9292 33.7244 35.1213 33.5248 35.3958C33.5625 35.3958 33.5625 35.4336 33.5625 35.4713C33.5283 35.5227 33.4786 35.5586 33.4309 35.593C33.3733 35.6345 33.3187 35.6738 33.2979 35.7358C33.2979 35.7737 33.2979 35.8115 33.3358 35.8115C33.5735 35.7323 33.78 35.6012 33.9825 35.4726C34.1665 35.3558 34.3473 35.241 34.5452 35.1691C34.7068 35.1286 34.8467 35.0559 34.9824 34.9853C35.1006 34.9239 35.2156 34.8641 35.3388 34.8289C35.4332 34.81 35.5372 34.7817 35.6411 34.7533C35.7451 34.725 35.849 34.6966 35.9435 34.6777C35.9435 34.7155 35.9435 34.7533 35.9812 34.7533ZM37.7243 38.0846C37.7273 38.0824 37.7303 38.08 37.7333 38.0776L37.74 38.0722C37.7947 38.0336 37.8455 37.9842 37.891 37.9252C37.8879 37.9242 37.8848 37.9231 37.8817 37.9218C37.8788 37.9207 37.876 37.9193 37.8732 37.9179C37.8228 37.9695 37.7738 38.025 37.7243 38.0846ZM45.0965 35.6046L45.018 35.6633C45.0614 35.6613 45.0965 35.6503 45.0965 35.6046Z" fill="#000091"/>
<path d="M74.9994 20.5H53.4857C53.5573 20.5235 53.6258 20.5554 53.6899 20.595C53.8646 20.6887 54.091 20.8096 54.2327 20.8839C54.5226 21.0174 54.7715 21.2262 54.9533 21.4885C55.0289 21.6019 55.1423 21.8287 55.0667 21.9799C54.9911 22.1688 54.9533 22.4712 54.7644 22.5468C54.5376 22.6601 54.2352 22.6601 53.9707 22.6223C53.8169 22.6157 53.6645 22.5903 53.5168 22.5468C54.0836 22.7735 54.6127 23.0381 54.9907 23.5672C55.0285 23.6428 55.1796 23.6805 55.3309 23.6805C55.3687 23.6805 55.3687 23.7561 55.3687 23.7939C55.293 23.8696 55.2174 23.9073 55.2552 24.0206H55.3687C55.5576 23.945 55.5198 23.5668 55.7844 23.6805C55.9773 23.7994 56.0436 24.0483 55.9355 24.2474C55.7938 24.3844 55.6421 24.5107 55.4817 24.6253C55.4439 24.7094 55.4439 24.8057 55.4817 24.8899C55.5763 25.026 55.6407 25.1807 55.6706 25.3437C55.7841 25.6082 55.8218 25.9106 55.9352 26.1751C56.0864 26.742 56.2375 27.3089 56.1997 27.8758C56.1997 28.1782 56.0485 28.4427 56.1619 28.7451C56.2375 29.0474 56.4264 29.2742 56.5777 29.5387C56.7287 29.7654 56.88 29.9166 56.9934 30.1434C57.22 30.5213 57.6358 30.8992 57.4473 31.3527C57.3339 31.6172 56.9182 31.5795 56.6537 31.7307C56.4269 31.9196 56.6159 32.2219 56.7292 32.4109C56.9182 32.7511 56.5024 32.9778 56.2379 33.0912C56.3135 33.2045 56.4647 33.1667 56.5024 33.2423C56.5402 33.4313 56.7292 33.5447 56.6159 33.7336C56.4647 33.9604 56.0112 34.0738 56.2379 34.4139C56.3891 34.6785 56.2907 34.9723 56.2002 35.2454C56.0868 35.5855 55.7845 35.7366 55.5199 35.8123C55.287 35.8812 55.0411 35.8941 54.8022 35.85C54.7332 35.8082 54.6558 35.7823 54.5755 35.7745C53.9329 35.6988 53.2904 35.5099 52.648 35.5099C52.4659 35.5376 52.2881 35.5884 52.1189 35.661C51.9543 35.7817 51.8012 35.9171 51.6613 36.0657L51.6569 36.0704C51.6285 36.1006 51.6013 36.1312 51.5745 36.162C51.558 36.1811 51.5419 36.2006 51.5258 36.22C51.5149 36.2329 51.5042 36.2459 51.4936 36.259C51.3839 36.3967 51.2845 36.5423 51.1961 36.6946C51.1905 36.7042 51.1848 36.7138 51.1794 36.7235C51.1695 36.741 51.1599 36.7587 51.1502 36.7763C51.0313 36.997 50.9354 37.2293 50.864 37.4697C50.6071 38.3351 50.7194 39.0777 50.8998 39.2579C50.95 39.3081 52.1472 39.6777 52.9811 40.0487C53.2887 40.1779 53.5868 40.3287 53.8731 40.5H74.9994V20.5Z" fill="#E1000F"/>
<path d="M54.765 27.796C54.9163 27.8338 55.1429 27.8338 55.1429 27.9094C55.0674 28.2116 54.6137 28.2872 54.387 28.5897H54.2739C54.1606 28.6653 54.1984 28.8542 54.085 28.8542C53.9706 28.8291 53.8511 28.8424 53.7449 28.892C53.8961 29.0431 54.085 29.1567 54.3117 29.1187C54.3768 29.1413 54.4217 29.2012 54.4251 29.2701C54.4541 29.2673 54.4811 29.2538 54.5007 29.2322C54.5386 29.2322 54.5764 29.2322 54.5764 29.2701V29.4212C54.4629 29.5724 54.2739 29.4967 54.1226 29.5346C54.4074 29.6102 54.707 29.6102 54.9917 29.5346C55.2186 29.459 54.9917 29.0807 55.143 28.892C55.0675 28.892 55.143 28.7786 55.0675 28.7786C55.143 28.7031 55.2186 28.5897 55.2942 28.5519C55.384 28.5543 55.4691 28.5118 55.521 28.4385C55.521 28.363 55.3699 28.3252 55.4076 28.2494C55.6343 28.0985 55.8232 27.8716 55.7478 27.6449C55.7099 27.5315 55.4076 27.5315 55.2186 27.4559C55.0295 27.3804 54.8028 27.4559 54.5762 27.4937C54.3871 27.4937 54.1981 27.6071 54.0092 27.6449C53.7518 27.7328 53.5096 27.8602 53.2915 28.0227C53.5621 27.9249 53.8402 27.8491 54.123 27.796C54.3494 27.796 54.5419 27.7402 54.765 27.796Z" fill="#808080"/>
<path d="M20.1631 66.5H23.1451V60.557H24.6781L28.6051 66.5H32.1121L27.5131 59.99C29.0251 59.297 29.8861 57.974 29.8861 56.189C29.8861 53.459 27.8911 51.8 24.6571 51.8H20.1631V66.5ZM24.8251 54.278C26.0851 54.278 26.8201 55.034 26.8201 56.147C26.8201 57.344 26.0851 58.079 24.8251 58.079H23.1451V54.278H24.8251ZM39.918 50.54L42.648 47.705H39.582L37.209 50.54H39.918ZM34.311 66.5H42.879V64.022H37.293V60.242H42.039V57.764H37.293V54.278H42.879V51.8H34.311V66.5ZM46.6541 66.5H49.6361V60.557H51.5051C54.7391 60.557 56.7131 58.898 56.7131 56.189C56.7131 53.459 54.7391 51.8 51.5051 51.8H46.6541V66.5ZM51.6311 54.278C52.8911 54.278 53.6471 55.034 53.6471 56.147C53.6471 57.344 52.8911 58.079 51.6311 58.079H49.6361V54.278H51.6311ZM68.1585 60.998C68.1585 62.972 67.0245 64.127 65.1975 64.127C63.3285 64.127 62.2155 62.972 62.2155 60.998V51.8H59.2335V60.746C59.2335 64.61 61.5015 66.92 65.1765 66.92C68.8725 66.92 71.1405 64.61 71.1405 60.746V51.8H68.1585V60.998ZM75.1549 66.5H79.7959C83.1769 66.5 85.2559 64.862 85.2559 62.174C85.2559 60.641 84.3949 59.381 82.8409 58.688C83.8699 58.016 84.4159 56.987 84.4159 55.79C84.4159 53.312 82.5469 51.8 79.4809 51.8H75.1549V66.5ZM79.5439 54.278C80.6779 54.278 81.3499 54.887 81.3499 55.916C81.3499 56.987 80.6779 57.596 79.5439 57.596H78.1369V54.278H79.5439ZM79.9639 60.074C81.3499 60.074 82.1899 60.788 82.1899 62.048C82.1899 63.287 81.3499 64.022 79.9639 64.022H78.1369V60.074H79.9639ZM88.626 66.5H97.194V63.791H91.608V51.8H88.626V66.5ZM100.128 66.5H103.11V51.8H100.128V66.5ZM119.856 66.122L118.974 65.282C120.78 63.854 121.872 61.607 121.872 59.15C121.872 54.95 118.701 51.38 114.081 51.38C109.44 51.38 106.269 54.95 106.269 59.15C106.269 63.35 109.44 66.92 114.081 66.92C114.795 66.92 115.467 66.836 116.097 66.668L117.84 68.222C119.289 69.482 120.801 70.154 122.439 70.154C123.09 70.154 123.51 70.07 123.993 69.881V67.361C123.678 67.487 123.258 67.529 122.943 67.529C121.998 67.529 120.99 67.151 119.856 66.122ZM114.081 64.127C111.309 64.127 109.335 61.964 109.335 59.15C109.335 56.336 111.309 54.173 114.081 54.173C116.832 54.173 118.806 56.336 118.806 59.15C118.806 61.964 116.832 64.127 114.081 64.127ZM133.709 60.998C133.709 62.972 132.575 64.127 130.748 64.127C128.879 64.127 127.766 62.972 127.766 60.998V51.8H124.784V60.746C124.784 64.61 127.052 66.92 130.727 66.92C134.423 66.92 136.691 64.61 136.691 60.746V51.8H133.709V60.998ZM140.706 66.5H149.274V64.022H143.688V60.242H148.434V57.764H143.688V54.278H149.274V51.8H140.706V66.5ZM20.1631 87.5H23.1451V81.242H27.8911V78.764H23.1451V75.278H28.7311V72.8H20.1631V87.5ZM31.6654 87.5H34.6474V81.557H36.1804L40.1074 87.5H43.6144L39.0154 80.99C40.5274 80.297 41.3884 78.974 41.3884 77.189C41.3884 74.459 39.3934 72.8 36.1594 72.8H31.6654V87.5ZM36.3274 75.278C37.5874 75.278 38.3224 76.034 38.3224 77.147C38.3224 78.344 37.5874 79.079 36.3274 79.079H34.6474V75.278H36.3274ZM44.601 87.5H47.772L49.179 83.678H55.059L56.466 87.5H59.637L54.072 72.8H50.166L44.601 87.5ZM50.103 81.137L52.119 75.614L54.135 81.137H50.103ZM62.217 87.5H65.199V76.874L71.772 87.5H75.594V72.8H72.612V83.426L66.039 72.8H62.217V87.5ZM86.5673 85.127C83.7953 85.127 81.8213 82.964 81.8213 80.15C81.8213 77.336 83.7953 75.173 86.5673 75.173C88.2473 75.173 89.5703 75.992 90.4103 77.189L92.7623 75.362C91.4183 73.577 89.2343 72.38 86.5673 72.38C81.9263 72.38 78.7552 75.95 78.7552 80.15C78.7552 83.888 81.2753 87.122 85.0973 87.794L83.2492 90.881H85.8953L87.7223 87.836C89.8643 87.563 91.6283 86.471 92.7623 84.917L90.4103 83.111C89.5703 84.308 88.2473 85.127 86.5673 85.127ZM93.7096 87.5H96.8806L98.2876 83.678H104.168L105.575 87.5H108.746L103.181 72.8H99.2746L93.7096 87.5ZM99.2116 81.137L101.228 75.614L103.244 81.137H99.2116ZM111.325 87.5H114.307V72.8H111.325V87.5ZM117.403 85.463C118.705 87.017 120.364 87.92 122.842 87.92C125.551 87.92 127.693 86.261 127.735 83.489C127.735 78.449 121.057 79.205 121.057 76.538C121.057 75.656 121.75 74.984 122.8 74.984C123.913 74.984 124.879 75.719 125.74 76.832L127.924 74.858C126.664 73.367 124.984 72.38 122.779 72.38C119.965 72.38 118.033 74.312 118.033 76.643C118.033 81.62 124.711 80.885 124.711 83.594C124.711 84.644 123.997 85.274 122.821 85.274C121.624 85.274 120.448 84.602 119.566 83.468L117.403 85.463ZM131.172 87.5H139.74V85.022H134.154V81.242H138.9V78.764H134.154V75.278H139.74V72.8H131.172V87.5Z" fill="#1E1E1E"/>
<path fill-rule="evenodd" clip-rule="evenodd" d="M71.96 122.2L70.1 123.9H69.62L70.72 121.96H71.96V122.2ZM70.62 128.78H70.22C69.72 129.38 69.16 129.86 68.62 129.86C68.06 129.86 67.78 129.52 67.78 128.78C67.78 128.48 67.82 128.16 67.88 127.88L71.14 126.8C71.78 125.28 71.02 124.62 70.12 124.62C68.58 124.62 66.82 127.32 66.82 129.48C66.82 130.5 67.3 131.06 68.06 131.06C68.94 131.04 69.86 130.18 70.62 128.78ZM69.5 125.5C69.94 125.5 70.32 125.84 70.12 126.62L68.1 127.16C68.42 126.2 69.02 125.5 69.5 125.5ZM63.14 125.54H64.22L62.5 130.26C62.34 130.66 62.56 131.06 62.98 131.06C64.2 131.06 65.66 130.02 66.22 128.54H65.92C65.48 129.16 64.52 129.84 63.8 129.96L65.38 125.54H67L67.2 124.86H65.62L66.22 123.16H65.6L64.48 124.86L63.14 125.04V125.54ZM61.64 124.64C61.86 124.64 62.16 124.88 62.02 125.32L60.08 130.02C60.58 129.94 61.1 129.46 61.4 129.02H61.72C61.26 130.2 60.22 131.06 59.32 131.06C59.1 131.06 58.78 130.82 58.94 130.38L60.74 125.68C60.24 125.76 59.72 126.24 59.42 126.68H59.12C59.58 125.48 60.7 124.64 61.64 124.64ZM62.2 123.44C62.6 123.44 62.94 123.12 62.94 122.7C62.94 122.3 62.6 121.96 62.2 121.96C61.78 121.96 61.46 122.3 61.46 122.7C61.46 123.1 61.8 123.44 62.2 123.44ZM53.46 127.34C53.9 126.38 53.74 125.94 53.46 125.94C53.22 125.94 52.94 126.2 52.66 126.68H52.36C52.82 125.66 53.42 124.64 54.08 124.64C54.64 124.64 54.84 125.2 54.84 125.82V126.7C54.931 126.594 55.0195 126.49 55.106 126.389C55.9509 125.397 56.5961 124.64 57.34 124.64C57.92 124.64 58.22 125 58.22 125.54C58.22 125.86 58.12 126.26 57.9 126.68L56.24 130.02C56.74 129.94 57.26 129.46 57.56 129.02H57.86C57.4 130.22 56.28 131.06 55.34 131.06C54.92 131.06 54.68 130.62 54.86 130.26L56.78 126.56C57 126.14 57.04 125.86 56.7 125.86C56.24 125.86 55.16 126.62 54.58 127.32L53.32 130.64C53.18 130.98 53.04 131.06 52.72 131.06C52.2 131.06 51.94 130.72 52.18 130.18L53.46 127.34ZM52.16 126.06C52.38 125.3 52.26 124.62 51.68 124.62C50.9567 124.62 50.7302 125.098 50.0292 126.576L49.98 126.68V125.8C49.98 125.18 49.78 124.62 49.22 124.62C48.56 124.62 47.96 125.64 47.5 126.66H47.8C48.12 126.2 48.42 125.92 48.66 125.92C48.94 125.92 49.1 126.36 48.66 127.32L47.38 130.16C47.14 130.7 47.4 131.04 47.92 131.04C48.24 131.04 48.38 130.96 48.52 130.62L49.78 127.3C50.14 126.86 50.46 126.48 50.86 126.06H52.16ZM45.84 126.62C46.04 125.84 45.66 125.5 45.22 125.5C44.74 125.5 44.14 126.2 43.82 127.16L45.84 126.62ZM46.34 128.78H45.94C45.44 129.38 44.88 129.86 44.34 129.86C43.78 129.86 43.5 129.52 43.5 128.78C43.5 128.48 43.54 128.16 43.6 127.88L46.86 126.8C47.5 125.28 46.74 124.62 45.84 124.62C44.3 124.62 42.54 127.32 42.54 129.48C42.54 130.5 43.02 131.06 43.78 131.06C44.66 131.04 45.58 130.18 46.34 128.78ZM39.94 125.54H38.86V125.04L40.2 124.86L41.32 123.16H41.94L41.34 124.86H42.92L42.72 125.54H41.1L39.52 129.96C40.24 129.84 41.2 129.16 41.64 128.54H41.94C41.38 130.02 39.92 131.06 38.7 131.06C38.28 131.06 38.06 130.66 38.22 130.26L39.94 125.54ZM33.14 129.2C33.14 127.74 34.76 125.78 35.66 125.78C35.86 125.78 36.06 125.8 36.22 125.86L35.28 128.38C34.74 129.04 33.9 129.84 33.5 129.84C33.28 129.84 33.14 129.64 33.14 129.2ZM37.6 124.32L38.1 124.36L36.36 128.36C35.94 129.32 36.12 129.76 36.36 129.76C36.6 129.76 36.9 129.48 37.22 129.02H37.52C37.06 130.04 36.46 131.06 35.8 131.06C35.24 131.06 34.9 130.46 35 129.38L35.04 129L34.9311 129.152C34.2147 130.154 33.5664 131.06 32.9 131.06C32.32 131.06 32.02 130.7 32.02 130.16C32.02 127.84 34.56 124.88 36.94 124.88H37.04L37.6 124.32ZM33.02 126.06C33.24 125.3 33.12 124.62 32.54 124.62C31.8167 124.62 31.5902 125.098 30.8892 126.576L30.84 126.68V125.8C30.84 125.18 30.64 124.62 30.08 124.62C29.42 124.62 28.82 125.64 28.36 126.66H28.66C28.98 126.2 29.28 125.92 29.5 125.92C29.78 125.92 29.94 126.36 29.5 127.32L28.22 130.18C27.98 130.72 28.24 131.06 28.76 131.06C29.08 131.06 29.22 130.98 29.36 130.64L30.62 127.32C30.98 126.88 31.3 126.5 31.7 126.08H33.02V126.06ZM24.78 130.46L24.66 130.82H20L20.12 130.44C21.56 130.18 21.8 130.06 22.4 128.44L23.7 124.96C24.28 123.34 24.16 123.22 22.9 122.96L23.02 122.6H29.08L28.72 124.54H28.28C28.28 123.38 28.16 123.08 27.06 123.08H26.78C25.7 123.08 25.56 123.24 25.26 124.08L24.4 126.42H25.66C26.5 126.42 26.82 125.9 27.2 125.22H27.64L26.6 128.06H26.16C26.26 127.2 26.26 126.86 25.48 126.86H24.22L23.64 128.46C23.013 130.125 23.1922 130.159 24.6851 130.442C24.7162 130.448 24.7478 130.454 24.78 130.46Z" fill="#1E1E1E"/>
<path fill-rule="evenodd" clip-rule="evenodd" d="M28.74 106.9L26.88 108.24V108.26H26.4L27.5 106.66H28.74V106.9ZM41.74 116.28L44.72 108.36L44.62 108.24L42.56 108.48V108.72L42.96 109.02C43.3015 109.286 43.2111 109.533 42.9277 110.309L42.88 110.44L40.6 116.52C40.42 116.88 40.66 117.32 41.08 117.32C42.02 117.32 43.02 116.46 43.48 115.28H43.18C42.86 115.72 42.22 116.2 41.74 116.28ZM55.4 110.18L57.26 108.48V108.24H56.02L54.92 110.18H55.4ZM55.52 115.04H55.92C55.18 116.46 54.26 117.32 53.38 117.32C52.62 117.32 52.14 116.76 52.14 115.74C52.14 113.58 53.9 110.88 55.44 110.88C56.32 110.88 57.1 111.54 56.46 113.06L53.18 114.14C53.12 114.42 53.08 114.74 53.08 115.04C53.08 115.78 53.36 116.12 53.92 116.12C54.46 116.12 55.02 115.64 55.52 115.04ZM55.42 112.88C55.62 112.12 55.24 111.78 54.8 111.78C54.34 111.78 53.74 112.48 53.4 113.42L55.42 112.88ZM49.54 111.82H48.46V111.32L49.8 111.14L50.92 109.44H51.54L50.94 111.14H52.52L52.32 111.82H50.7L49.12 116.24C49.84 116.12 50.8 115.44 51.24 114.82H51.54C50.98 116.3 49.52 117.34 48.3 117.34C47.88 117.34 47.66 116.94 47.82 116.54L49.54 111.82ZM47.34 111.58C47.46 111.14 47.18 110.9 46.94 110.9C46 110.9 44.88 111.76 44.42 112.94H44.72C45.02 112.5 45.54 112.02 46.04 111.94L44.24 116.64C44.08 117.08 44.4 117.32 44.62 117.32C45.52 117.32 46.56 116.46 47.02 115.28H46.72C46.42 115.72 45.9 116.2 45.4 116.28L47.34 111.58ZM48.26 108.98C48.26 109.38 47.92 109.72 47.52 109.72C47.12 109.72 46.78 109.38 46.78 108.98C46.78 108.58 47.1 108.24 47.52 108.24C47.92 108.24 48.26 108.58 48.26 108.98ZM38.16 112.06C37.26 112.06 35.64 114.02 35.64 115.48C35.64 115.92 35.78 116.12 36.02 116.12C36.4 116.12 37.24 115.32 37.78 114.66L38.72 112.14C38.54 112.08 38.36 112.06 38.16 112.06ZM40.6 110.64L40.1 110.6L39.54 111.16H39.44C37.06 111.16 34.52 114.12 34.52 116.44C34.52 116.98 34.82 117.34 35.4 117.34C36.0664 117.34 36.7147 116.434 37.4311 115.432L37.54 115.28L37.5 115.66C37.4 116.74 37.74 117.34 38.3 117.34C38.96 117.34 39.56 116.32 40.02 115.3H39.72C39.4 115.76 39.1 116.04 38.86 116.04C38.62 116.04 38.44 115.6 38.86 114.64L40.6 110.64ZM30.52 117.12C29.66 117.46 29.06 117.86 29.06 118.48C29.06 119.06 29.6 119.3 30.72 119.3C32.22 119.3 33.04 118.86 33.04 118.28C33.04 118.02 32.7 117.9 31.8 117.6C31.22 117.42 30.8 117.26 30.52 117.12ZM31.52 114.66C31.12 114.66 30.98 114.32 30.98 113.96C30.98 112.8 31.54 111.36 32.44 111.36C32.84 111.36 32.98 111.7 32.98 112.06C32.96 113.24 32.4 114.66 31.52 114.66ZM32.28 116.54C33.38 116.88 34.06 117.14 34.06 117.9C34.06 118.88 32.26 120.04 30.08 120.02C28.82 120.02 27.74 119.68 27.74 118.86C27.74 118.08 28.46 117.44 30.22 116.92C29.98 116.76 29.88 116.56 29.88 116.28C29.88 115.8 30.32 115.42 31.08 115.06C30.34 114.96 29.86 114.4 29.86 113.58C29.86 112.32 30.9 110.88 32.54 110.88C32.88 110.88 33.18 110.96 33.42 111.12H35.22L35.02 111.8H33.96C34.02 111.98 34.06 112.18 34.06 112.4C34.06 113.62 33.08 115.02 31.52 115.1C31.12 115.32 30.92 115.62 30.92 115.86C30.92 116.142 31.2472 116.238 31.9702 116.449C32.0663 116.477 32.1697 116.507 32.28 116.54ZM25.94 113.12C26.72 113.12 26.74 113.46 26.62 114.32H27.06L28.1 111.48H27.66C27.28 112.16 26.96 112.68 26.12 112.68H24.4L25.24 110.34C25.54 109.5 25.68 109.34 26.76 109.34H27.52C28.62 109.34 28.74 109.64 28.74 110.8H29.18L29.54 108.86H23.02L22.9 109.22C24.16 109.48 24.28 109.6 23.7 111.22L22.4 114.72C21.8 116.34 21.56 116.46 20.1 116.72L20 117.1H27.24L28.54 115.04H28.04C27.2 115.86 26.36 116.62 24.72 116.62C22.9161 116.62 22.9483 116.532 23.4895 115.045C23.5243 114.949 23.5613 114.848 23.6 114.74L24.2 113.14H25.94V113.12Z" fill="#1E1E1E"/>
<path fill-rule="evenodd" clip-rule="evenodd" d="M31.92 95.98C32.32 95.98 32.66 95.64 32.66 95.24C32.66 94.84 32.32 94.5 31.92 94.5C31.5 94.5 31.18 94.84 31.18 95.24C31.18 95.66 31.5 95.98 31.92 95.98ZM33.66 103.58C35.22 103.6 37.84 100.72 37.84 98.5C37.84 97.54 37.6 97.18 36.92 97.18C36.08 97.18 35.3 98.08 34.52 99.16L36.2 94.66L36.1 94.52L34.04 94.76V95L34.44 95.3C34.7883 95.5709 34.6873 95.8418 34.3906 96.6378L34.36 96.72L32.54 101.48C32.38 101.88 32.2 102.36 32.2 102.48C32.2 103.04 32.96 103.58 33.66 103.58ZM55.18 96.46L57.04 94.76V94.52H55.8L54.7 96.46H55.18ZM55.3 101.32H55.7C54.94 102.74 54.02 103.6 53.14 103.58C52.38 103.58 51.9 103.04 51.9 102.02C51.9 99.86 53.66 97.16 55.2 97.16C56.08 97.16 56.86 97.82 56.22 99.34L52.96 100.42C52.9 100.7 52.86 101.02 52.86 101.32C52.86 102.06 53.14 102.4 53.7 102.4C54.24 102.4 54.8 101.92 55.3 101.32ZM55.2 99.16C55.4 98.4 55.02 98.06 54.58 98.06C54.1 98.06 53.5 98.76 53.18 99.7L55.2 99.16ZM49.3 98.1H48.22V97.6L49.56 97.42L50.68 95.72H51.3L50.7 97.42H52.28L52.08 98.1H50.46L48.88 102.52C49.6 102.4 50.56 101.72 51 101.1H51.3C50.74 102.58 49.28 103.62 48.06 103.62C47.64 103.62 47.42 103.22 47.58 102.82L49.3 98.1ZM47.66 98.62C47.88 97.86 47.76 97.18 47.18 97.18C46.4567 97.18 46.2302 97.6577 45.5292 99.1362L45.48 99.24V98.36C45.48 97.74 45.28 97.18 44.72 97.18C44.06 97.18 43.46 98.2 43 99.22H43.3C43.62 98.76 43.92 98.48 44.14 98.48C44.42 98.48 44.58 98.92 44.14 99.88L42.86 102.72C42.62 103.26 42.88 103.6 43.4 103.6C43.72 103.6 43.86 103.52 44 103.18L45.26 99.86C45.62 99.42 45.94 99.04 46.34 98.62H47.66ZM41.32 99.16C41.52 98.4 41.14 98.06 40.7 98.06C40.22 98.06 39.64 98.76 39.3 99.7L41.32 99.16ZM41.82 101.32H41.42C40.92 101.92 40.36 102.4 39.82 102.4C39.26 102.4 38.98 102.06 38.98 101.32C38.98 101.02 39.02 100.7 39.08 100.42L42.34 99.34C42.98 97.82 42.22 97.16 41.32 97.16C39.78 97.16 38.02 99.86 38.02 102.02C38.02 103.04 38.5 103.58 39.26 103.58C40.14 103.6 41.06 102.74 41.82 101.32ZM33.42 102.08C33.42 102.34 33.88 102.64 34.2 102.64C35.5 102.64 36.72 100.3 36.7 99C36.7 98.56 36.48 98.38 36.18 98.38C35.7 98.38 34.82 99.1 34.26 99.78L33.74 101.18C33.56 101.64 33.42 102 33.42 102.08ZM31.32 97.18C31.56 97.18 31.84 97.42 31.72 97.86L29.8 102.56C30.3 102.48 30.82 102 31.12 101.56H31.42C30.96 102.74 29.92 103.6 29.02 103.6C28.78 103.6 28.46 103.36 28.62 102.92L30.42 98.22C29.92 98.3 29.4 98.78 29.1 99.22H28.8C29.26 98.04 30.38 97.18 31.32 97.18ZM23.02 95.1H27.32L27.2 95.48C25.74 95.74 25.5 95.86 24.9 97.48L23.62 101C23 102.68 23.16 102.88 24.26 102.88C25.619 102.88 26.5102 101.892 27.2883 101.03C27.3461 100.966 27.4033 100.902 27.46 100.84H27.96L26.54 103.36H20L20.12 103C21.56 102.74 21.8 102.62 22.4 101L23.7 97.46C24.28 95.84 24.16 95.72 22.9 95.46L23.02 95.1Z" fill="#1E1E1E"/>
</svg>
