<svg width="91" height="136" viewBox="0 0 91 136" fill="none" xmlns="http://www.w3.org/2000/svg">
    <path
        d="M71.1065 10.7183L62.6547 15.2237C62.492 15.3098 62.3551 15.4501 62.2615 15.6269C62.1679 15.8036 62.1218 16.0088 62.1291 16.2163C62.1364 16.4238 62.1967 16.6242 62.3024 16.7921C62.4082 16.9599 62.5545 17.0876 62.7227 17.1589L64.6676 17.9951L50.948 54.2466C50.9077 54.3736 50.8461 54.4901 50.7668 54.5894C50.6876 54.6887 50.5921 54.7688 50.486 54.8252C50.38 54.8816 50.2653 54.9131 50.1486 54.918C50.0319 54.9228 49.9154 54.9009 49.8059 54.8535L32.2814 47.3311C32.0595 47.2365 31.8146 47.2476 31.6003 47.3619C31.3859 47.4763 31.2195 47.6847 31.1376 47.9414L12.75 105.82L21.8443 105.82L36.4842 61.3761C36.5246 61.249 36.5862 61.1325 36.6654 61.0333C36.7447 60.934 36.8401 60.8539 36.9462 60.7975C37.0523 60.7411 37.167 60.7096 37.2837 60.7047C37.4004 60.6999 37.5168 60.7217 37.6264 60.7691L55.1509 68.2916C55.2607 68.3388 55.3774 68.3605 55.4944 68.3554C55.6113 68.3502 55.7262 68.3184 55.8324 68.2618C55.9386 68.2051 56.0341 68.1246 56.1135 68.0251C56.1928 67.9255 56.2544 67.8087 56.2947 67.6813L73.1283 21.6217L75.0754 22.4573C75.2425 22.5264 75.4234 22.5371 75.5955 22.4879C75.7676 22.4388 75.9233 22.332 76.0433 22.1809C76.1633 22.0297 76.2423 21.8409 76.2704 21.6379C76.2985 21.4349 76.2746 21.2266 76.2015 21.039L72.296 11.2255C72.1946 10.9768 72.0129 10.7842 71.7903 10.6893C71.5678 10.5944 71.3221 10.6049 71.1065 10.7183Z"
        fill="#F3B7B7" />
    <path fill-rule="evenodd" clip-rule="evenodd"
        d="M75.0754 22.4573C75.2425 22.5264 75.4234 22.5371 75.5955 22.4879C75.7676 22.4388 75.9233 22.332 76.0433 22.1809C76.1633 22.0297 76.2423 21.8409 76.2704 21.6379C76.2985 21.4349 76.2746 21.2266 76.2015 21.039L72.296 11.2255C72.1946 10.9768 72.0129 10.7842 71.7903 10.6893C71.5678 10.5944 71.3221 10.6049 71.1065 10.7183L62.6547 15.2237C62.492 15.3098 62.3551 15.4501 62.2615 15.6269C62.1679 15.8036 62.1218 16.0088 62.1291 16.2163C62.1364 16.4238 62.1967 16.6242 62.3024 16.7921C62.4082 16.9599 62.5545 17.0876 62.7227 17.1589L64.6676 17.9951L50.948 54.2466C50.9077 54.3736 50.8461 54.4901 50.7668 54.5894C50.6876 54.6887 50.5921 54.7688 50.486 54.8252C50.38 54.8816 50.2653 54.9131 50.1486 54.918C50.0319 54.9228 49.9154 54.9009 49.8059 54.8535L32.2814 47.3311C32.0595 47.2365 31.8146 47.2476 31.6003 47.3619C31.3859 47.4763 31.2195 47.6847 31.1376 47.9414L12.75 105.82L21.8443 105.82L36.4842 61.3761C36.5246 61.249 36.5862 61.1325 36.6654 61.0333C36.7447 60.934 36.8401 60.8539 36.9462 60.7975C37.0523 60.7411 37.167 60.7096 37.2837 60.7047C37.4004 60.6999 37.5168 60.7217 37.6264 60.7691L55.1509 68.2916C55.2607 68.3388 55.3774 68.3605 55.4944 68.3554C55.6113 68.3502 55.7262 68.3184 55.8324 68.2618C55.9386 68.2051 56.0341 68.1246 56.1135 68.0251C56.1928 67.9255 56.2544 67.8087 56.2947 67.6813L73.1283 21.6217L75.0754 22.4573ZM38.1873 59.4683C38.1879 59.4685 38.1884 59.4688 38.189 59.469L55.1301 66.7409L72.3114 19.7296L74.5355 20.684L71.1905 12.2789L63.9439 16.1419L66.4723 17.229L52.2839 54.7193C52.1933 54.9876 52.0567 55.2444 51.8739 55.4734C51.6809 55.7151 51.4376 55.9238 51.1508 56.0762C50.8632 56.2291 50.5421 56.3195 50.2076 56.3334C49.8736 56.3473 49.5456 56.2842 49.2449 56.1544C49.2444 56.1542 49.2438 56.1539 49.2433 56.1537L32.3225 48.8904L14.6865 104.403L20.8194 104.403L35.1341 60.9471C35.135 60.9442 35.1359 60.9413 35.1369 60.9383C35.2272 60.6574 35.3677 60.3882 35.5584 60.1493C35.7514 59.9076 35.9946 59.6989 36.2814 59.5465C36.5691 59.3936 36.8902 59.3032 37.2247 59.2893C37.5588 59.2754 37.8868 59.3385 38.1873 59.4683ZM55.7089 66.9894L55.7097 66.9898L55.7107 66.9902C55.7101 66.9899 55.7095 66.9897 55.7089 66.9894Z"
        fill="#274430" />
    <path
        d="M55.6526 100.885H27.0059C25.8323 100.885 24.8809 101.837 24.8809 103.01V105.34C24.8809 106.513 25.8323 107.465 27.0059 107.465H55.6526C56.8262 107.465 57.7776 106.513 57.7776 105.34V103.01C57.7776 101.837 56.8262 100.885 55.6526 100.885Z"
        fill="#E3C191" />
    <path fill-rule="evenodd" clip-rule="evenodd"
        d="M27.006 99.4689H55.6528C57.6088 99.4689 59.1944 101.055 59.1944 103.011V105.34C59.1944 107.296 57.6088 108.882 55.6528 108.882H27.006C25.05 108.882 23.4644 107.296 23.4644 105.34V103.011C23.4644 101.055 25.05 99.4689 27.006 99.4689ZM27.006 100.886H55.6528C56.8264 100.886 57.7778 101.837 57.7778 103.011V105.34C57.7778 106.513 56.8264 107.465 55.6528 107.465H27.006C25.8324 107.465 24.881 106.513 24.881 105.34V103.011C24.881 101.837 25.8324 100.886 27.006 100.886Z"
        fill="#274430" />
    <rect x="26.1968" y="100.885" width="1.31587" height="6.57935" fill="#565656" fill-opacity="0.3" />
    <rect x="28.8286" y="100.885" width="1.31587" height="6.57935" fill="#565656" fill-opacity="0.3" />
    <rect x="31.4604" y="100.885" width="1.31587" height="6.57935" fill="#565656" fill-opacity="0.3" />
    <rect x="34.0918" y="100.885" width="1.31587" height="6.57935" fill="#565656" fill-opacity="0.3" />
    <rect x="36.7236" y="100.885" width="1.31587" height="6.57935" fill="#565656" fill-opacity="0.3" />
    <rect x="39.3555" y="100.885" width="1.31587" height="6.57935" fill="#565656" fill-opacity="0.3" />
    <rect x="41.9873" y="100.885" width="1.31587" height="6.57935" fill="#565656" fill-opacity="0.3" />
    <rect x="44.6191" y="100.885" width="1.31587" height="6.57935" fill="#565656" fill-opacity="0.3" />
    <rect x="47.2505" y="100.885" width="1.31587" height="6.57935" fill="#565656" fill-opacity="0.3" />
    <rect x="49.8823" y="100.885" width="1.31587" height="6.57935" fill="#565656" fill-opacity="0.3" />
    <rect x="52.5142" y="100.885" width="1.31587" height="6.57935" fill="#565656" fill-opacity="0.3" />
    <rect x="55.146" y="100.885" width="1.31587" height="6.57935" fill="#565656" fill-opacity="0.3" />
    <path
        d="M54.7777 100.885H53.3366C53.3366 100.885 51.7434 104.304 49.8825 105.656C48.0252 107.004 44.29 107.465 44.29 107.465H54.7777C56.4346 107.465 57.7777 106.122 57.7777 104.465V103.885C57.7777 102.229 56.4346 100.885 54.7777 100.885Z"
        fill="#565656" fill-opacity="0.3" />
    <path
        d="M56.7907 100.885H25.8678C25.3227 100.885 24.8809 101.327 24.8809 101.872H57.7776C57.7776 101.327 57.3358 100.885 56.7907 100.885Z"
        fill="#565656" fill-opacity="0.3" />
    <path
        d="M55.6526 79.7083H27.0059C25.8323 79.7083 24.8809 80.6596 24.8809 81.8333V84.1626C24.8809 85.3362 25.8323 86.2876 27.0059 86.2876H55.6526C56.8262 86.2876 57.7776 85.3362 57.7776 84.1626V81.8333C57.7776 80.6596 56.8262 79.7083 55.6526 79.7083Z"
        fill="#E3C191" />
    <path fill-rule="evenodd" clip-rule="evenodd"
        d="M27.006 78.2916H55.6528C57.6088 78.2916 59.1944 79.8773 59.1944 81.8333V84.1626C59.1944 86.1187 57.6088 87.7043 55.6528 87.7043H27.006C25.05 87.7043 23.4644 86.1187 23.4644 84.1626V81.8333C23.4644 79.8773 25.05 78.2916 27.006 78.2916ZM27.006 79.7083H55.6528C56.8264 79.7083 57.7778 80.6597 57.7778 81.8333V84.1626C57.7778 85.3362 56.8264 86.2876 55.6528 86.2876H27.006C25.8324 86.2876 24.881 85.3363 24.881 84.1626V81.8333C24.881 80.6597 25.8324 79.7083 27.006 79.7083Z"
        fill="#274430" />
    <rect x="26.1968" y="79.7083" width="1.31587" height="6.57935" fill="#565656" fill-opacity="0.3" />
    <rect x="28.8286" y="79.7083" width="1.31587" height="6.57935" fill="#565656" fill-opacity="0.3" />
    <rect x="31.4604" y="79.7083" width="1.31587" height="6.57935" fill="#565656" fill-opacity="0.3" />
    <rect x="34.0918" y="79.7083" width="1.31587" height="6.57935" fill="#565656" fill-opacity="0.3" />
    <rect x="36.7236" y="79.7083" width="1.31587" height="6.57935" fill="#565656" fill-opacity="0.3" />
    <rect x="39.3555" y="79.7083" width="1.31587" height="6.57935" fill="#565656" fill-opacity="0.3" />
    <rect x="41.9873" y="79.7083" width="1.31587" height="6.57935" fill="#565656" fill-opacity="0.3" />
    <rect x="44.6191" y="79.7083" width="1.31587" height="6.57935" fill="#565656" fill-opacity="0.3" />
    <rect x="47.2505" y="79.7083" width="1.31587" height="6.57935" fill="#565656" fill-opacity="0.3" />
    <rect x="49.8823" y="79.7083" width="1.31587" height="6.57935" fill="#565656" fill-opacity="0.3" />
    <rect x="52.5142" y="79.7083" width="1.31587" height="6.57935" fill="#565656" fill-opacity="0.3" />
    <rect x="55.146" y="79.7083" width="1.31587" height="6.57935" fill="#565656" fill-opacity="0.3" />
    <path
        d="M54.7777 79.7083H53.3366C53.3366 79.7083 51.7434 83.1267 49.8825 84.4783C48.0252 85.8272 44.29 86.2876 44.29 86.2876H54.7777C56.4346 86.2876 57.7777 84.9445 57.7777 83.2876V82.7083C57.7777 81.0514 56.4346 79.7083 54.7777 79.7083Z"
        fill="#565656" fill-opacity="0.3" />
    <path
        d="M56.7907 79.7083H25.8678C25.3227 79.7083 24.8809 80.1501 24.8809 80.6952H57.7776C57.7776 80.1501 57.3358 79.7083 56.7907 79.7083Z"
        fill="#565656" fill-opacity="0.3" />
    <path
        d="M56.0637 58.7366H27.417C26.2434 58.7366 25.292 59.688 25.292 60.8616V63.1909C25.292 64.3645 26.2434 65.3159 27.417 65.3159H56.0637C57.2373 65.3159 58.1887 64.3645 58.1887 63.1909V60.8616C58.1887 59.688 57.2373 58.7366 56.0637 58.7366Z"
        fill="#E3C191" />
    <path fill-rule="evenodd" clip-rule="evenodd"
        d="M27.4172 57.3199H56.0639C58.0199 57.3199 59.6056 58.9056 59.6056 60.8616V63.191C59.6056 65.147 58.0199 66.7326 56.0639 66.7326H27.4172C25.4611 66.7326 23.8755 65.147 23.8755 63.191V60.8616C23.8755 58.9056 25.4611 57.3199 27.4172 57.3199ZM27.4172 58.7366H56.0639C57.2375 58.7366 58.1889 59.688 58.1889 60.8616V63.191C58.1889 64.3646 57.2375 65.316 56.0639 65.316H27.4172C26.2435 65.316 25.2922 64.3646 25.2922 63.191V60.8616C25.2922 59.688 26.2435 58.7366 27.4172 58.7366Z"
        fill="#274430" />
    <rect x="26.6079" y="58.7366" width="1.31587" height="6.57935" fill="#565656" fill-opacity="0.3" />
    <rect x="29.2397" y="58.7366" width="1.31587" height="6.57935" fill="#565656" fill-opacity="0.3" />
    <rect x="31.8716" y="58.7366" width="1.31587" height="6.57935" fill="#565656" fill-opacity="0.3" />
    <rect x="34.5029" y="58.7366" width="1.31587" height="6.57935" fill="#565656" fill-opacity="0.3" />
    <rect x="37.1348" y="58.7366" width="1.31587" height="6.57935" fill="#565656" fill-opacity="0.3" />
    <rect x="39.7666" y="58.7366" width="1.31587" height="6.57935" fill="#565656" fill-opacity="0.3" />
    <rect x="42.3984" y="58.7366" width="1.31587" height="6.57935" fill="#565656" fill-opacity="0.3" />
    <rect x="45.0303" y="58.7366" width="1.31587" height="6.57935" fill="#565656" fill-opacity="0.3" />
    <rect x="47.6616" y="58.7366" width="1.31587" height="6.57935" fill="#565656" fill-opacity="0.3" />
    <rect x="50.2935" y="58.7366" width="1.31587" height="6.57935" fill="#565656" fill-opacity="0.3" />
    <rect x="52.9253" y="58.7366" width="1.31587" height="6.57935" fill="#565656" fill-opacity="0.3" />
    <rect x="55.5571" y="58.7366" width="1.31587" height="6.57935" fill="#565656" fill-opacity="0.3" />
    <path
        d="M55.1888 58.7366H53.7478C53.7478 58.7366 52.1545 62.155 50.2936 63.5066C48.4364 64.8555 44.7012 65.3159 44.7012 65.3159H55.1888C56.8457 65.3159 58.1888 63.9728 58.1888 62.3159V61.7366C58.1888 60.0797 56.8457 58.7366 55.1888 58.7366Z"
        fill="#565656" fill-opacity="0.3" />
    <path
        d="M57.2018 58.7366H26.2789C25.7338 58.7366 25.292 59.1784 25.292 59.7235H58.1887C58.1887 59.1784 57.7469 58.7366 57.2018 58.7366Z"
        fill="#565656" fill-opacity="0.3" />
    <path
        d="M58.3255 93.6893H29.6787C28.5051 93.6893 27.5537 94.6407 27.5537 95.8143V98.1437C27.5537 99.3173 28.5051 100.269 29.6787 100.269H58.3255C59.4991 100.269 60.4505 99.3173 60.4505 98.1437V95.8143C60.4505 94.6407 59.4991 93.6893 58.3255 93.6893Z"
        fill="#E3C191" />
    <path fill-rule="evenodd" clip-rule="evenodd"
        d="M29.6789 92.2727H58.3256C60.2816 92.2727 61.8673 93.8584 61.8673 95.8144V98.1437C61.8673 100.1 60.2816 101.685 58.3256 101.685H29.6789C27.7229 101.685 26.1372 100.1 26.1372 98.1437V95.8144C26.1372 93.8584 27.7229 92.2727 29.6789 92.2727ZM29.6789 93.6894H58.3256C59.4992 93.6894 60.4506 94.6408 60.4506 95.8144V98.1437C60.4506 99.3173 59.4992 100.269 58.3256 100.269H29.6789C28.5053 100.269 27.5539 99.3173 27.5539 98.1437V95.8144C27.5539 94.6408 28.5053 93.6894 29.6789 93.6894Z"
        fill="#274430" />
    <rect x="28.8696" y="93.6893" width="1.31587" height="6.57935" fill="#565656" fill-opacity="0.3" />
    <rect x="31.5015" y="93.6893" width="1.31587" height="6.57935" fill="#565656" fill-opacity="0.3" />
    <rect x="34.1333" y="93.6893" width="1.31587" height="6.57935" fill="#565656" fill-opacity="0.3" />
    <rect x="36.7646" y="93.6893" width="1.31587" height="6.57935" fill="#565656" fill-opacity="0.3" />
    <rect x="39.3965" y="93.6893" width="1.31587" height="6.57935" fill="#565656" fill-opacity="0.3" />
    <rect x="42.0283" y="93.6893" width="1.31587" height="6.57935" fill="#565656" fill-opacity="0.3" />
    <rect x="44.6602" y="93.6893" width="1.31587" height="6.57935" fill="#565656" fill-opacity="0.3" />
    <rect x="47.292" y="93.6893" width="1.31587" height="6.57935" fill="#565656" fill-opacity="0.3" />
    <rect x="49.9233" y="93.6893" width="1.31587" height="6.57935" fill="#565656" fill-opacity="0.3" />
    <rect x="52.5552" y="93.6893" width="1.31587" height="6.57935" fill="#565656" fill-opacity="0.3" />
    <rect x="55.187" y="93.6893" width="1.31587" height="6.57935" fill="#565656" fill-opacity="0.3" />
    <rect x="57.8188" y="93.6893" width="1.31587" height="6.57935" fill="#565656" fill-opacity="0.3" />
    <path
        d="M57.4506 93.6893H56.0095C56.0095 93.6893 54.4162 97.1078 52.5553 98.4594C50.6981 99.8083 46.9629 100.269 46.9629 100.269H57.4506C59.1074 100.269 60.4506 98.9255 60.4506 97.2687V96.6893C60.4506 95.0325 59.1074 93.6893 57.4506 93.6893Z"
        fill="#565656" fill-opacity="0.3" />
    <path
        d="M59.4636 93.6893H28.5406C27.9956 93.6893 27.5537 94.1312 27.5537 94.6762H60.4505C60.4505 94.1312 60.0086 93.6893 59.4636 93.6893Z"
        fill="#565656" fill-opacity="0.3" />
    <path
        d="M58.3255 72.5121H29.6787C28.5051 72.5121 27.5537 73.4635 27.5537 74.6371V76.9664C27.5537 78.14 28.5051 79.0914 29.6787 79.0914H58.3255C59.4991 79.0914 60.4505 78.14 60.4505 76.9664V74.6371C60.4505 73.4635 59.4991 72.5121 58.3255 72.5121Z"
        fill="#E3C191" />
    <path fill-rule="evenodd" clip-rule="evenodd"
        d="M29.6789 71.0955H58.3256C60.2816 71.0955 61.8673 72.6811 61.8673 74.6371V76.9665C61.8673 78.9225 60.2816 80.5081 58.3256 80.5081H29.6789C27.7229 80.5081 26.1372 78.9225 26.1372 76.9665V74.6371C26.1372 72.6811 27.7229 71.0955 29.6789 71.0955ZM29.6789 72.5121H58.3256C59.4992 72.5121 60.4506 73.4635 60.4506 74.6371V76.9665C60.4506 78.1401 59.4992 79.0915 58.3256 79.0915H29.6789C28.5053 79.0915 27.5539 78.1401 27.5539 76.9665V74.6371C27.5539 73.4635 28.5053 72.5121 29.6789 72.5121Z"
        fill="#274430" />
    <rect x="28.8696" y="72.5121" width="1.31587" height="6.57935" fill="#565656" fill-opacity="0.3" />
    <rect x="31.5015" y="72.5121" width="1.31587" height="6.57935" fill="#565656" fill-opacity="0.3" />
    <rect x="34.1333" y="72.5121" width="1.31587" height="6.57935" fill="#565656" fill-opacity="0.3" />
    <rect x="36.7646" y="72.5121" width="1.31587" height="6.57935" fill="#565656" fill-opacity="0.3" />
    <rect x="39.3965" y="72.5121" width="1.31587" height="6.57935" fill="#565656" fill-opacity="0.3" />
    <rect x="42.0283" y="72.5121" width="1.31587" height="6.57935" fill="#565656" fill-opacity="0.3" />
    <rect x="44.6602" y="72.5121" width="1.31587" height="6.57935" fill="#565656" fill-opacity="0.3" />
    <rect x="47.292" y="72.5121" width="1.31587" height="6.57935" fill="#565656" fill-opacity="0.3" />
    <rect x="49.9233" y="72.5121" width="1.31587" height="6.57935" fill="#565656" fill-opacity="0.3" />
    <rect x="52.5552" y="72.5121" width="1.31587" height="6.57935" fill="#565656" fill-opacity="0.3" />
    <rect x="55.187" y="72.5121" width="1.31587" height="6.57935" fill="#565656" fill-opacity="0.3" />
    <rect x="57.8188" y="72.5121" width="1.31587" height="6.57935" fill="#565656" fill-opacity="0.3" />
    <path
        d="M57.4506 72.5121H56.0095C56.0095 72.5121 54.4162 75.9305 52.5553 77.2821C50.6981 78.631 46.9629 79.0914 46.9629 79.0914H57.4506C59.1074 79.0914 60.4506 77.7483 60.4506 76.0914V75.5121C60.4506 73.8552 59.1074 72.5121 57.4506 72.5121Z"
        fill="#565656" fill-opacity="0.3" />
    <path
        d="M59.4636 72.5121H28.5406C27.9956 72.5121 27.5537 72.9539 27.5537 73.499H60.4505C60.4505 72.9539 60.0086 72.5121 59.4636 72.5121Z"
        fill="#565656" fill-opacity="0.3" />
    <path
        d="M58.7366 51.5404H30.0898C28.9162 51.5404 27.9648 52.4918 27.9648 53.6654V55.9948C27.9648 57.1684 28.9162 58.1198 30.0898 58.1198H58.7366C59.9102 58.1198 60.8616 57.1684 60.8616 55.9948V53.6654C60.8616 52.4918 59.9102 51.5404 58.7366 51.5404Z"
        fill="#E3C191" />
    <path fill-rule="evenodd" clip-rule="evenodd"
        d="M30.09 50.1238H58.7368C60.6928 50.1238 62.2784 51.7094 62.2784 53.6654V55.9948C62.2784 57.9508 60.6928 59.5365 58.7368 59.5365H30.09C28.134 59.5365 26.5483 57.9508 26.5483 55.9948V53.6654C26.5483 51.7094 28.134 50.1238 30.09 50.1238ZM30.09 51.5404H58.7368C59.9104 51.5404 60.8618 52.4918 60.8618 53.6654V55.9948C60.8618 57.1684 59.9104 58.1198 58.7368 58.1198H30.09C28.9164 58.1198 27.965 57.1684 27.965 55.9948V53.6654C27.965 52.4918 28.9164 51.5404 30.09 51.5404Z"
        fill="#274430" />
    <rect x="29.2808" y="51.5404" width="1.31587" height="6.57935" fill="#565656" fill-opacity="0.3" />
    <rect x="31.9126" y="51.5404" width="1.31587" height="6.57935" fill="#565656" fill-opacity="0.3" />
    <rect x="34.5444" y="51.5404" width="1.31587" height="6.57935" fill="#565656" fill-opacity="0.3" />
    <rect x="37.1758" y="51.5404" width="1.31587" height="6.57935" fill="#565656" fill-opacity="0.3" />
    <rect x="39.8076" y="51.5404" width="1.31587" height="6.57935" fill="#565656" fill-opacity="0.3" />
    <rect x="42.4395" y="51.5404" width="1.31587" height="6.57935" fill="#565656" fill-opacity="0.3" />
    <rect x="45.0713" y="51.5404" width="1.31587" height="6.57935" fill="#565656" fill-opacity="0.3" />
    <rect x="47.7031" y="51.5404" width="1.31587" height="6.57935" fill="#565656" fill-opacity="0.3" />
    <rect x="50.3345" y="51.5404" width="1.31587" height="6.57935" fill="#565656" fill-opacity="0.3" />
    <rect x="52.9663" y="51.5404" width="1.31587" height="6.57935" fill="#565656" fill-opacity="0.3" />
    <rect x="55.5981" y="51.5404" width="1.31587" height="6.57935" fill="#565656" fill-opacity="0.3" />
    <rect x="58.23" y="51.5404" width="1.31587" height="6.57935" fill="#565656" fill-opacity="0.3" />
    <path
        d="M57.8617 51.5404H56.4206C56.4206 51.5404 54.8274 54.9589 52.9665 56.3104C51.1092 57.6594 47.374 58.1198 47.374 58.1198H57.8617C59.5185 58.1198 60.8617 56.7766 60.8617 55.1198V54.5404C60.8617 52.8836 59.5185 51.5404 57.8617 51.5404Z"
        fill="#565656" fill-opacity="0.3" />
    <path
        d="M59.8747 51.5404H28.9517C28.4067 51.5404 27.9648 51.9823 27.9648 52.5273H60.8616C60.8616 51.9823 60.4197 51.5404 59.8747 51.5404Z"
        fill="#565656" fill-opacity="0.3" />
    <path
        d="M53.1853 86.2876H24.5386C23.365 86.2876 22.4136 87.239 22.4136 88.4126V90.742C22.4136 91.9156 23.365 92.867 24.5386 92.867H53.1853C54.3589 92.867 55.3103 91.9156 55.3103 90.7419V88.4126C55.3103 87.239 54.3589 86.2876 53.1853 86.2876Z"
        fill="#E3C191" />
    <path fill-rule="evenodd" clip-rule="evenodd"
        d="M24.5387 84.871H53.1855C55.1415 84.871 56.7272 86.4566 56.7272 88.4126V90.742C56.7272 92.698 55.1415 94.2837 53.1855 94.2837H24.5387C22.5827 94.2837 20.9971 92.698 20.9971 90.742V88.4126C20.9971 86.4566 22.5827 84.871 24.5387 84.871ZM24.5387 86.2876H53.1855C54.3591 86.2876 55.3105 87.239 55.3105 88.4126V90.742C55.3105 91.9156 54.3591 92.867 53.1855 92.867H24.5387C23.3651 92.867 22.4137 91.9156 22.4137 90.742V88.4126C22.4137 87.239 23.3651 86.2876 24.5387 86.2876Z"
        fill="#274430" />
    <rect x="23.7295" y="86.2876" width="1.31587" height="6.57935" fill="#565656" fill-opacity="0.3" />
    <rect x="26.3613" y="86.2876" width="1.31587" height="6.57935" fill="#565656" fill-opacity="0.3" />
    <rect x="28.9932" y="86.2876" width="1.31587" height="6.57935" fill="#565656" fill-opacity="0.3" />
    <rect x="31.6245" y="86.2876" width="1.31587" height="6.57935" fill="#565656" fill-opacity="0.3" />
    <rect x="34.2563" y="86.2876" width="1.31587" height="6.57935" fill="#565656" fill-opacity="0.3" />
    <rect x="36.8882" y="86.2876" width="1.31587" height="6.57935" fill="#565656" fill-opacity="0.3" />
    <rect x="39.52" y="86.2876" width="1.31587" height="6.57935" fill="#565656" fill-opacity="0.3" />
    <rect x="42.1519" y="86.2876" width="1.31587" height="6.57935" fill="#565656" fill-opacity="0.3" />
    <rect x="44.7832" y="86.2876" width="1.31587" height="6.57935" fill="#565656" fill-opacity="0.3" />
    <rect x="47.415" y="86.2876" width="1.31587" height="6.57935" fill="#565656" fill-opacity="0.3" />
    <rect x="50.0469" y="86.2876" width="1.31587" height="6.57935" fill="#565656" fill-opacity="0.3" />
    <rect x="52.6787" y="86.2876" width="1.31587" height="6.57935" fill="#565656" fill-opacity="0.3" />
    <path
        d="M52.3104 86.2876H50.8694C50.8694 86.2876 49.2761 89.7061 47.4152 91.0576C45.5579 92.4066 41.8228 92.867 41.8228 92.867H52.3104C53.9673 92.867 55.3104 91.5238 55.3104 89.8669V89.2876C55.3104 87.6307 53.9673 86.2876 52.3104 86.2876Z"
        fill="#565656" fill-opacity="0.3" />
    <path
        d="M54.3234 86.2876H23.4005C22.8554 86.2876 22.4136 86.7294 22.4136 87.2745H55.3103C55.3103 86.7294 54.8685 86.2876 54.3234 86.2876Z"
        fill="#565656" fill-opacity="0.3" />
    <path
        d="M53.1853 65.3159H24.5386C23.365 65.3159 22.4136 66.2673 22.4136 67.4409V69.7703C22.4136 70.9439 23.365 71.8953 24.5386 71.8953H53.1853C54.3589 71.8953 55.3103 70.9439 55.3103 69.7703V67.4409C55.3103 66.2673 54.3589 65.3159 53.1853 65.3159Z"
        fill="#E3C191" />
    <path fill-rule="evenodd" clip-rule="evenodd"
        d="M24.5387 63.8993H53.1855C55.1415 63.8993 56.7272 65.485 56.7272 67.441V69.7703C56.7272 71.7263 55.1415 73.312 53.1855 73.312H24.5387C22.5827 73.312 20.9971 71.7263 20.9971 69.7703V67.441C20.9971 65.485 22.5827 63.8993 24.5387 63.8993ZM24.5387 65.316H53.1855C54.3591 65.316 55.3105 66.2674 55.3105 67.441V69.7703C55.3105 70.9439 54.3591 71.8953 53.1855 71.8953H24.5387C23.3651 71.8953 22.4137 70.9439 22.4137 69.7703V67.441C22.4137 66.2674 23.3651 65.316 24.5387 65.316Z"
        fill="#274430" />
    <rect x="23.7295" y="65.3159" width="1.31587" height="6.57935" fill="#565656" fill-opacity="0.3" />
    <rect x="26.3613" y="65.3159" width="1.31587" height="6.57935" fill="#565656" fill-opacity="0.3" />
    <rect x="28.9932" y="65.3159" width="1.31587" height="6.57935" fill="#565656" fill-opacity="0.3" />
    <rect x="31.6245" y="65.3159" width="1.31587" height="6.57935" fill="#565656" fill-opacity="0.3" />
    <rect x="34.2563" y="65.3159" width="1.31587" height="6.57935" fill="#565656" fill-opacity="0.3" />
    <rect x="36.8882" y="65.3159" width="1.31587" height="6.57935" fill="#565656" fill-opacity="0.3" />
    <rect x="39.52" y="65.3159" width="1.31587" height="6.57935" fill="#565656" fill-opacity="0.3" />
    <rect x="42.1519" y="65.3159" width="1.31587" height="6.57935" fill="#565656" fill-opacity="0.3" />
    <rect x="44.7832" y="65.3159" width="1.31587" height="6.57935" fill="#565656" fill-opacity="0.3" />
    <rect x="47.415" y="65.3159" width="1.31587" height="6.57935" fill="#565656" fill-opacity="0.3" />
    <rect x="50.0469" y="65.3159" width="1.31587" height="6.57935" fill="#565656" fill-opacity="0.3" />
    <rect x="52.6787" y="65.3159" width="1.31587" height="6.57935" fill="#565656" fill-opacity="0.3" />
    <path
        d="M52.3104 65.3159H50.8694C50.8694 65.3159 49.2761 68.7344 47.4152 70.0859C45.5579 71.4349 41.8228 71.8953 41.8228 71.8953H52.3104C53.9673 71.8953 55.3104 70.5521 55.3104 68.8953V68.3159C55.3104 66.6591 53.9673 65.3159 52.3104 65.3159Z"
        fill="#565656" fill-opacity="0.3" />
    <path
        d="M54.3234 65.3159H23.4005C22.8554 65.3159 22.4136 65.7578 22.4136 66.3028H55.3103C55.3103 65.7578 54.8685 65.3159 54.3234 65.3159Z"
        fill="#565656" fill-opacity="0.3" />
    <path
        d="M53.3909 44.3442H24.7441C23.5705 44.3442 22.6191 45.2956 22.6191 46.4692V48.7986C22.6191 49.9722 23.5705 50.9236 24.7441 50.9236H53.3909C54.5645 50.9236 55.5159 49.9722 55.5159 48.7986V46.4692C55.5159 45.2956 54.5645 44.3442 53.3909 44.3442Z"
        fill="#E3C191" />
    <path fill-rule="evenodd" clip-rule="evenodd"
        d="M24.7443 42.9276H53.3911C55.3471 42.9276 56.9327 44.5133 56.9327 46.4693V48.7986C56.9327 50.7546 55.3471 52.3403 53.3911 52.3403H24.7443C22.7883 52.3403 21.2026 50.7546 21.2026 48.7986V46.4693C21.2026 44.5133 22.7883 42.9276 24.7443 42.9276ZM24.7443 44.3443H53.3911C54.5647 44.3443 55.5161 45.2957 55.5161 46.4693V48.7986C55.5161 49.9722 54.5647 50.9236 53.3911 50.9236H24.7443C23.5707 50.9236 22.6193 49.9722 22.6193 48.7986V46.4693C22.6193 45.2957 23.5707 44.3443 24.7443 44.3443Z"
        fill="#274430" />
    <rect x="23.9351" y="44.3442" width="1.31587" height="6.57935" fill="#565656" fill-opacity="0.3" />
    <rect x="26.5669" y="44.3442" width="1.31587" height="6.57935" fill="#565656" fill-opacity="0.3" />
    <rect x="29.1987" y="44.3442" width="1.31587" height="6.57935" fill="#565656" fill-opacity="0.3" />
    <rect x="31.8301" y="44.3442" width="1.31587" height="6.57935" fill="#565656" fill-opacity="0.3" />
    <rect x="34.4619" y="44.3442" width="1.31587" height="6.57935" fill="#565656" fill-opacity="0.3" />
    <rect x="37.0938" y="44.3442" width="1.31587" height="6.57935" fill="#565656" fill-opacity="0.3" />
    <rect x="39.7256" y="44.3442" width="1.31587" height="6.57935" fill="#565656" fill-opacity="0.3" />
    <rect x="42.3574" y="44.3442" width="1.31587" height="6.57935" fill="#565656" fill-opacity="0.3" />
    <rect x="44.9888" y="44.3442" width="1.31587" height="6.57935" fill="#565656" fill-opacity="0.3" />
    <rect x="47.6206" y="44.3442" width="1.31587" height="6.57935" fill="#565656" fill-opacity="0.3" />
    <rect x="50.2524" y="44.3442" width="1.31587" height="6.57935" fill="#565656" fill-opacity="0.3" />
    <rect x="52.8843" y="44.3442" width="1.31587" height="6.57935" fill="#565656" fill-opacity="0.3" />
    <path
        d="M52.516 44.3442H51.0749C51.0749 44.3442 49.4817 47.7627 47.6208 49.1143C45.7635 50.4632 42.0283 50.9236 42.0283 50.9236H52.516C54.1728 50.9236 55.516 49.5804 55.516 47.9236V47.3442C55.516 45.6874 54.1728 44.3442 52.516 44.3442Z"
        fill="#565656" fill-opacity="0.3" />
    <path
        d="M54.529 44.3442H23.606C23.061 44.3442 22.6191 44.7861 22.6191 45.3311H55.5159C55.5159 44.7861 55.074 44.3442 54.529 44.3442Z"
        fill="#565656" fill-opacity="0.3" />
    <path
        d="M75.4604 103.916L68.05 76.26C67.7462 75.1264 66.581 74.4536 65.4474 74.7574L63.2004 75.3595C62.0668 75.6632 61.394 76.8284 61.6978 77.9621L69.1081 105.618C69.4119 106.752 70.5771 107.424 71.7107 107.121L73.9578 106.518C75.0914 106.215 75.7641 105.049 75.4604 103.916Z"
        fill="#E3C191" />
    <path fill-rule="evenodd" clip-rule="evenodd"
        d="M69.4186 75.8933L76.829 103.549C77.3352 105.438 76.214 107.381 74.3246 107.887L72.0776 108.489C70.1882 108.995 68.2462 107.874 67.74 105.985L60.3296 78.3287C59.8234 76.4393 60.9446 74.4973 62.8339 73.991L65.081 73.3889C66.9703 72.8827 68.9124 74.0039 69.4186 75.8933ZM68.0502 76.2599L75.4606 103.916C75.7643 105.049 75.0916 106.215 73.958 106.518L71.7109 107.12C70.5773 107.424 69.4121 106.751 69.1084 105.618L61.698 77.962C61.3943 76.8284 62.067 75.6632 63.2006 75.3594L65.4476 74.7573C66.5812 74.4536 67.7465 75.1263 68.0502 76.2599Z"
        fill="#274430" />
    <rect x="67.8403" y="75.4778" width="1.31526" height="6.57629" transform="rotate(75 67.8403 75.4778)" fill="#565656"
        fill-opacity="0.3" />
    <rect x="68.5215" y="78.0187" width="1.31526" height="6.57629" transform="rotate(75 68.5215 78.0187)" fill="#565656"
        fill-opacity="0.3" />
    <rect x="69.2021" y="80.5596" width="1.31526" height="6.57629" transform="rotate(75 69.2021 80.5596)" fill="#565656"
        fill-opacity="0.3" />
    <rect x="69.8828" y="83.1005" width="1.31526" height="6.57629" transform="rotate(75 69.8828 83.1005)" fill="#565656"
        fill-opacity="0.3" />
    <rect x="70.564" y="85.6414" width="1.31526" height="6.57629" transform="rotate(75 70.564 85.6414)" fill="#565656"
        fill-opacity="0.3" />
    <rect x="71.2446" y="88.1823" width="1.31526" height="6.57629" transform="rotate(75 71.2446 88.1823)" fill="#565656"
        fill-opacity="0.3" />
    <rect x="71.9253" y="90.7231" width="1.31526" height="6.57629" transform="rotate(75 71.9253 90.7231)" fill="#565656"
        fill-opacity="0.3" />
    <rect x="72.6064" y="93.264" width="1.31526" height="6.57629" transform="rotate(75 72.6064 93.264)" fill="#565656"
        fill-opacity="0.3" />
    <rect x="73.2871" y="95.8049" width="1.31526" height="6.57629" transform="rotate(75 73.2871 95.8049)" fill="#565656"
        fill-opacity="0.3" />
    <rect x="73.9678" y="98.3458" width="1.31526" height="6.57629" transform="rotate(75 73.9678 98.3458)" fill="#565656"
        fill-opacity="0.3" />
    <rect x="74.6489" y="100.887" width="1.31526" height="6.57629" transform="rotate(75 74.6489 100.887)" fill="#565656"
        fill-opacity="0.3" />
    <rect x="75.3296" y="103.427" width="1.31526" height="6.57629" transform="rotate(75 75.3296 103.427)" fill="#565656"
        fill-opacity="0.3" />
    <path
        d="M74.958 101.992L75.2452 103.077C75.6681 104.675 74.7184 106.315 73.1215 106.743L70.2616 107.509C69.9017 107.618 69.6581 107.671 69.6581 107.671L70.2616 107.509C71.1823 107.228 72.8646 106.571 73.1809 105.445C73.329 104.917 73.4734 104.159 73.5826 103.521C73.7079 102.788 74.2397 102.185 74.958 101.992Z"
        fill="#565656" fill-opacity="0.3" />
    <path
        d="M75.7583 105.028L67.7527 75.1504C67.6131 74.6296 67.0778 74.3205 66.557 74.4601L75.068 106.223C75.5888 106.084 75.8978 105.549 75.7583 105.028Z"
        fill="#565656" fill-opacity="0.3" />
</svg>
