<svg width="89" height="164" viewBox="0 0 89 164" fill="none"
    xmlns="http://www.w3.org/2000/svg">
    <g clip-path="url(#clip0_90_18014)">
        <path d="M70.3805 21.4946L70.3776 21.4961C70.3423 21.5147 70.2887 21.5585 70.243 21.6449C70.197 21.7318 70.1689 21.8448 70.1732 21.9675C70.1775 22.0902 70.2133 22.1977 70.2628 22.2763C70.3118 22.3541 70.364 22.389 70.3954 22.4023L70.4004 22.4044L73.1249 23.5759L74.0038 23.9537L73.6652 24.8485L54.4543 75.6098C54.3623 75.888 54.2229 76.151 54.0382 76.3824C53.8468 76.6221 53.6088 76.8251 53.3326 76.9718C53.0558 77.1189 52.7495 77.2046 52.4323 77.2178L52.3906 76.2187L52.4323 77.2178C52.1156 77.231 51.8033 77.1714 51.5152 77.047C51.5146 77.0467 51.514 77.0465 51.5134 77.0462L26.9685 66.5103C26.9682 66.5102 26.968 66.51 26.9677 66.5099C26.9492 66.5022 26.9355 66.5008 26.9252 66.5013C26.9147 66.5017 26.8989 66.5046 26.8776 66.5159C26.8331 66.5397 26.7564 66.6084 26.7114 66.7492C26.7114 66.7493 26.7113 66.7494 26.7113 66.7495L1.36694 146.526L12.0165 146.526L32.2956 84.9629C32.2962 84.961 32.2968 84.9592 32.2973 84.9573C32.3892 84.6706 32.5311 84.3993 32.721 84.1615C32.9123 83.9219 33.1504 83.7188 33.4266 83.5721C33.7034 83.425 34.0097 83.3393 34.327 83.3261C34.6433 83.3129 34.9552 83.3724 35.243 83.4965L35.2458 83.4977M70.3805 21.4946L34.8486 84.4154L35.2458 83.4977M70.3805 21.4946L82.2158 15.1856C82.2163 15.1853 82.2168 15.1851 82.2173 15.1848C82.2391 15.1736 82.2559 15.1705 82.2677 15.17C82.2797 15.1695 82.2954 15.1712 82.3158 15.1799C82.3573 15.1976 82.4349 15.2544 82.4894 15.3862C82.4898 15.3871 82.4901 15.388 82.4905 15.3889L87.9556 29.1215C87.9559 29.1222 87.9562 29.123 87.9565 29.1237C87.9951 29.2241 88.0097 29.3426 87.9934 29.4603C87.977 29.579 87.9326 29.6735 87.8827 29.7364C87.8337 29.798 87.7881 29.8198 87.7639 29.8268L88.0385 30.7883L87.7639 29.8268C87.743 29.8327 87.7219 29.833 87.6953 29.8226L70.3805 21.4946ZM35.2458 83.4977L59.7927 94.0345L59.7934 94.0348C59.8119 94.0427 59.8256 94.0442 59.8357 94.0437C59.846 94.0433 59.8614 94.0405 59.8822 94.0294C59.9037 94.0179 59.9334 93.9961 59.9644 93.9571C59.9957 93.9178 60.0258 93.8642 60.0472 93.7966L60.0538 93.7758L60.0613 93.7553L83.643 29.2317L84.0056 28.2393L84.9766 28.656L87.692 29.8213L35.2458 83.4977Z" fill="#F3B7B7" stroke="#274430" stroke-width="2"/>
        <path d="M60.0778 139.613H19.9937C17.7845 139.613 15.9937 141.404 15.9937 143.613V146.83C15.9937 149.039 17.7845 150.83 19.9937 150.83H60.0778C62.2869 150.83 64.0778 149.039 64.0778 146.83V143.613C64.0778 141.404 62.2869 139.613 60.0778 139.613Z" fill="#E3C191" stroke="#274430" stroke-width="2"/>
        <rect x="18.8369" y="140.613" width="1.84337" height="9.21683" fill="#565656" fill-opacity="0.3"/>
        <rect x="22.5239" y="140.613" width="1.84337" height="9.21683" fill="#565656" fill-opacity="0.3"/>
        <rect x="26.2104" y="140.613" width="1.84336" height="9.21683" fill="#565656" fill-opacity="0.3"/>
        <rect x="29.897" y="140.613" width="1.84336" height="9.21683" fill="#565656" fill-opacity="0.3"/>
        <rect x="33.584" y="140.613" width="1.84336" height="9.21683" fill="#565656" fill-opacity="0.3"/>
        <rect x="37.2705" y="140.613" width="1.84336" height="9.21683" fill="#565656" fill-opacity="0.3"/>
        <rect x="40.9575" y="140.613" width="1.84336" height="9.21683" fill="#565656" fill-opacity="0.3"/>
        <rect x="44.644" y="140.613" width="1.84336" height="9.21683" fill="#565656" fill-opacity="0.3"/>
        <rect x="48.3311" y="140.613" width="1.84337" height="9.21683" fill="#565656" fill-opacity="0.3"/>
        <rect x="52.0176" y="140.613" width="1.84336" height="9.21683" fill="#565656" fill-opacity="0.3"/>
        <rect x="55.7041" y="140.613" width="1.84336" height="9.21683" fill="#565656" fill-opacity="0.3"/>
        <rect x="59.3911" y="140.613" width="1.84336" height="9.21683" fill="#565656" fill-opacity="0.3"/>
        <path d="M60.0776 140.613H56.8562C56.8562 140.613 54.6243 145.402 52.0174 147.295C49.4156 149.185 44.1831 149.83 44.1831 149.83H60.0776C61.7345 149.83 63.0776 148.487 63.0776 146.83V143.613C63.0776 141.956 61.7345 140.613 60.0776 140.613Z" fill="#565656" fill-opacity="0.3"/>
        <path d="M61.6953 140.613H18.3762C17.6126 140.613 16.9937 141.232 16.9937 141.996H63.0778C63.0778 141.232 62.4588 140.613 61.6953 140.613Z" fill="#565656" fill-opacity="0.3"/>
        <path d="M60.0778 109.947H19.9937C17.7845 109.947 15.9937 111.737 15.9937 113.947V117.163C15.9937 119.373 17.7845 121.163 19.9937 121.163H60.0778C62.2869 121.163 64.0778 119.372 64.0778 117.163V113.947C64.0778 111.737 62.2869 109.947 60.0778 109.947Z" fill="#E3C191" stroke="#274430" stroke-width="2"/>
        <rect x="18.8369" y="110.947" width="1.84337" height="9.21683" fill="#565656" fill-opacity="0.3"/>
        <rect x="22.5239" y="110.947" width="1.84337" height="9.21683" fill="#565656" fill-opacity="0.3"/>
        <rect x="26.2104" y="110.947" width="1.84336" height="9.21683" fill="#565656" fill-opacity="0.3"/>
        <rect x="29.897" y="110.947" width="1.84336" height="9.21683" fill="#565656" fill-opacity="0.3"/>
        <rect x="33.584" y="110.947" width="1.84336" height="9.21683" fill="#565656" fill-opacity="0.3"/>
        <rect x="37.2705" y="110.947" width="1.84336" height="9.21683" fill="#565656" fill-opacity="0.3"/>
        <rect x="40.9575" y="110.947" width="1.84336" height="9.21683" fill="#565656" fill-opacity="0.3"/>
        <rect x="44.644" y="110.947" width="1.84336" height="9.21683" fill="#565656" fill-opacity="0.3"/>
        <rect x="48.3311" y="110.947" width="1.84337" height="9.21683" fill="#565656" fill-opacity="0.3"/>
        <rect x="52.0176" y="110.947" width="1.84336" height="9.21683" fill="#565656" fill-opacity="0.3"/>
        <rect x="55.7041" y="110.947" width="1.84336" height="9.21683" fill="#565656" fill-opacity="0.3"/>
        <rect x="59.3911" y="110.947" width="1.84336" height="9.21683" fill="#565656" fill-opacity="0.3"/>
        <path d="M60.0776 110.947H56.8562C56.8562 110.947 54.6243 115.735 52.0174 117.629C49.4156 119.518 44.1831 120.163 44.1831 120.163H60.0776C61.7345 120.163 63.0776 118.82 63.0776 117.163V113.947C63.0776 112.29 61.7345 110.947 60.0776 110.947Z" fill="#565656" fill-opacity="0.3"/>
        <path d="M61.6953 110.947H18.3762C17.6126 110.947 16.9937 111.566 16.9937 112.329H63.0778C63.0778 111.566 62.4588 110.947 61.6953 110.947Z" fill="#565656" fill-opacity="0.3"/>
        <path d="M60.6535 80.568H20.5693C18.3602 80.568 16.5693 82.3589 16.5693 84.568V87.7848C16.5693 89.994 18.3602 91.7848 20.5693 91.7848H60.6535C62.8626 91.7848 64.6535 89.994 64.6535 87.7848V84.568C64.6535 82.3589 62.8626 80.568 60.6535 80.568Z" fill="#E3C191" stroke="#274430" stroke-width="2"/>
        <rect x="19.4126" y="81.568" width="1.84337" height="9.21684" fill="#565656" fill-opacity="0.3"/>
        <rect x="23.0996" y="81.568" width="1.84337" height="9.21684" fill="#565656" fill-opacity="0.3"/>
        <rect x="26.7861" y="81.568" width="1.84336" height="9.21684" fill="#565656" fill-opacity="0.3"/>
        <rect x="30.4727" y="81.568" width="1.84336" height="9.21684" fill="#565656" fill-opacity="0.3"/>
        <rect x="34.1597" y="81.568" width="1.84336" height="9.21684" fill="#565656" fill-opacity="0.3"/>
        <rect x="37.8462" y="81.568" width="1.84336" height="9.21684" fill="#565656" fill-opacity="0.3"/>
        <rect x="41.5332" y="81.568" width="1.84336" height="9.21684" fill="#565656" fill-opacity="0.3"/>
        <rect x="45.2197" y="81.568" width="1.84336" height="9.21684" fill="#565656" fill-opacity="0.3"/>
        <rect x="48.9067" y="81.568" width="1.84337" height="9.21684" fill="#565656" fill-opacity="0.3"/>
        <rect x="52.5933" y="81.568" width="1.84336" height="9.21684" fill="#565656" fill-opacity="0.3"/>
        <rect x="56.2798" y="81.568" width="1.84336" height="9.21684" fill="#565656" fill-opacity="0.3"/>
        <rect x="59.9668" y="81.568" width="1.84336" height="9.21684" fill="#565656" fill-opacity="0.3"/>
        <path d="M60.6533 81.568H57.4319C57.4319 81.568 55.2 86.3568 52.5931 88.2502C49.9913 90.1399 44.7588 90.7848 44.7588 90.7848H60.6533C62.3101 90.7848 63.6533 89.4417 63.6533 87.7848V84.568C63.6533 82.9111 62.3101 81.568 60.6533 81.568Z" fill="#565656" fill-opacity="0.3"/>
        <path d="M62.2709 81.568H18.9519C18.1883 81.568 17.5693 82.187 17.5693 82.9505H63.6535C63.6535 82.187 63.0345 81.568 62.2709 81.568Z" fill="#565656" fill-opacity="0.3"/>
        <path d="M63.8219 129.532H23.7378C21.5287 129.532 19.7378 131.323 19.7378 133.532V136.749C19.7378 138.958 21.5287 140.749 23.7378 140.749H63.8219C66.0311 140.749 67.8219 138.958 67.8219 136.749V133.532C67.8219 131.323 66.0311 129.532 63.8219 129.532Z" fill="#E3C191" stroke="#274430" stroke-width="2"/>
        <rect x="22.5811" y="130.532" width="1.84337" height="9.21683" fill="#565656" fill-opacity="0.3"/>
        <rect x="26.2681" y="130.532" width="1.84337" height="9.21683" fill="#565656" fill-opacity="0.3"/>
        <rect x="29.9546" y="130.532" width="1.84336" height="9.21683" fill="#565656" fill-opacity="0.3"/>
        <rect x="33.6411" y="130.532" width="1.84336" height="9.21683" fill="#565656" fill-opacity="0.3"/>
        <rect x="37.3281" y="130.532" width="1.84336" height="9.21683" fill="#565656" fill-opacity="0.3"/>
        <rect x="41.0146" y="130.532" width="1.84336" height="9.21683" fill="#565656" fill-opacity="0.3"/>
        <rect x="44.7017" y="130.532" width="1.84336" height="9.21683" fill="#565656" fill-opacity="0.3"/>
        <rect x="48.3882" y="130.532" width="1.84336" height="9.21683" fill="#565656" fill-opacity="0.3"/>
        <rect x="52.0752" y="130.532" width="1.84337" height="9.21683" fill="#565656" fill-opacity="0.3"/>
        <rect x="55.7617" y="130.532" width="1.84337" height="9.21683" fill="#565656" fill-opacity="0.3"/>
        <rect x="59.4482" y="130.532" width="1.84336" height="9.21683" fill="#565656" fill-opacity="0.3"/>
        <rect x="63.1353" y="130.532" width="1.84336" height="9.21683" fill="#565656" fill-opacity="0.3"/>
        <path d="M63.8217 130.532H60.6004C60.6004 130.532 58.3684 135.321 55.7615 137.215C53.1598 139.104 47.9272 139.749 47.9272 139.749H63.8217C65.4786 139.749 66.8217 138.406 66.8217 136.749V133.532C66.8217 131.875 65.4786 130.532 63.8217 130.532Z" fill="#565656" fill-opacity="0.3"/>
        <path d="M65.4394 130.532H22.1203C21.3568 130.532 20.7378 131.151 20.7378 131.915H66.8219C66.8219 131.151 66.203 130.532 65.4394 130.532Z" fill="#565656" fill-opacity="0.3"/>
        <path d="M63.8219 99.8657H23.7378C21.5287 99.8657 19.7378 101.657 19.7378 103.866V107.083C19.7378 109.292 21.5287 111.083 23.7378 111.083H63.8219C66.0311 111.083 67.8219 109.292 67.8219 107.083V103.866C67.8219 101.657 66.0311 99.8657 63.8219 99.8657Z" fill="#E3C191" stroke="#274430" stroke-width="2"/>
        <rect x="22.5811" y="100.866" width="1.84337" height="9.21683" fill="#565656" fill-opacity="0.3"/>
        <rect x="26.2681" y="100.866" width="1.84337" height="9.21683" fill="#565656" fill-opacity="0.3"/>
        <rect x="29.9546" y="100.866" width="1.84336" height="9.21683" fill="#565656" fill-opacity="0.3"/>
        <rect x="33.6411" y="100.866" width="1.84336" height="9.21683" fill="#565656" fill-opacity="0.3"/>
        <rect x="37.3281" y="100.866" width="1.84336" height="9.21683" fill="#565656" fill-opacity="0.3"/>
        <rect x="41.0146" y="100.866" width="1.84336" height="9.21683" fill="#565656" fill-opacity="0.3"/>
        <rect x="44.7017" y="100.866" width="1.84336" height="9.21683" fill="#565656" fill-opacity="0.3"/>
        <rect x="48.3882" y="100.866" width="1.84336" height="9.21683" fill="#565656" fill-opacity="0.3"/>
        <rect x="52.0752" y="100.866" width="1.84337" height="9.21683" fill="#565656" fill-opacity="0.3"/>
        <rect x="55.7617" y="100.866" width="1.84337" height="9.21683" fill="#565656" fill-opacity="0.3"/>
        <rect x="59.4482" y="100.866" width="1.84336" height="9.21683" fill="#565656" fill-opacity="0.3"/>
        <rect x="63.1353" y="100.866" width="1.84336" height="9.21683" fill="#565656" fill-opacity="0.3"/>
        <path d="M63.8217 100.866H60.6004C60.6004 100.866 58.3684 105.655 55.7615 107.548C53.1598 109.438 47.9272 110.083 47.9272 110.083H63.8217C65.4786 110.083 66.8217 108.739 66.8217 107.083V103.866C66.8217 102.209 65.4786 100.866 63.8217 100.866Z" fill="#565656" fill-opacity="0.3"/>
        <path d="M65.4394 100.866H22.1203C21.3568 100.866 20.7378 101.485 20.7378 102.248H66.8219C66.8219 101.485 66.203 100.866 65.4394 100.866Z" fill="#565656" fill-opacity="0.3"/>
        <path d="M64.3981 70.4871H24.314C22.1048 70.4871 20.314 72.2779 20.314 74.4871V77.7039C20.314 79.913 22.1048 81.7039 24.314 81.7039H64.3981C66.6072 81.7039 68.3981 79.913 68.3981 77.7039V74.4871C68.3981 72.2779 66.6072 70.4871 64.3981 70.4871Z" fill="#E3C191" stroke="#274430" stroke-width="2"/>
        <rect x="23.1572" y="71.4871" width="1.84337" height="9.21684" fill="#565656" fill-opacity="0.3"/>
        <rect x="26.8442" y="71.4871" width="1.84337" height="9.21684" fill="#565656" fill-opacity="0.3"/>
        <rect x="30.5308" y="71.4871" width="1.84336" height="9.21684" fill="#565656" fill-opacity="0.3"/>
        <rect x="34.2173" y="71.4871" width="1.84336" height="9.21684" fill="#565656" fill-opacity="0.3"/>
        <rect x="37.9043" y="71.4871" width="1.84336" height="9.21684" fill="#565656" fill-opacity="0.3"/>
        <rect x="41.5908" y="71.4871" width="1.84336" height="9.21684" fill="#565656" fill-opacity="0.3"/>
        <rect x="45.2778" y="71.4871" width="1.84336" height="9.21684" fill="#565656" fill-opacity="0.3"/>
        <rect x="48.9644" y="71.4871" width="1.84336" height="9.21684" fill="#565656" fill-opacity="0.3"/>
        <rect x="52.6514" y="71.4871" width="1.84337" height="9.21684" fill="#565656" fill-opacity="0.3"/>
        <rect x="56.3379" y="71.4871" width="1.84337" height="9.21684" fill="#565656" fill-opacity="0.3"/>
        <rect x="60.0244" y="71.4871" width="1.84336" height="9.21684" fill="#565656" fill-opacity="0.3"/>
        <rect x="63.7114" y="71.4871" width="1.84336" height="9.21684" fill="#565656" fill-opacity="0.3"/>
        <path d="M64.3979 71.4871H61.1766C61.1766 71.4871 58.9446 76.2759 56.3377 78.1693C53.7359 80.0589 48.5034 80.7039 48.5034 80.7039H64.3979C66.0548 80.7039 67.3979 79.3607 67.3979 77.7039V74.4871C67.3979 72.8302 66.0548 71.4871 64.3979 71.4871Z" fill="#565656" fill-opacity="0.3"/>
        <path d="M66.0156 71.4871H22.6965C21.9329 71.4871 21.314 72.106 21.314 72.8696H67.3981C67.3981 72.106 66.7791 71.4871 66.0156 71.4871Z" fill="#565656" fill-opacity="0.3"/>
        <path d="M56.6213 119.163H16.5371C14.328 119.163 12.5371 120.954 12.5371 123.163V126.38C12.5371 128.589 14.328 130.38 16.5371 130.38H56.6213C58.8304 130.38 60.6213 128.589 60.6213 126.38V123.163C60.6213 120.954 58.8304 119.163 56.6213 119.163Z" fill="#E3C191" stroke="#274430" stroke-width="2"/>
        <rect x="15.3804" y="120.163" width="1.84337" height="9.21683" fill="#565656" fill-opacity="0.3"/>
        <rect x="19.0674" y="120.163" width="1.84337" height="9.21683" fill="#565656" fill-opacity="0.3"/>
        <rect x="22.7539" y="120.163" width="1.84336" height="9.21683" fill="#565656" fill-opacity="0.3"/>
        <rect x="26.4404" y="120.163" width="1.84336" height="9.21683" fill="#565656" fill-opacity="0.3"/>
        <rect x="30.1274" y="120.163" width="1.84336" height="9.21683" fill="#565656" fill-opacity="0.3"/>
        <rect x="33.814" y="120.163" width="1.84336" height="9.21683" fill="#565656" fill-opacity="0.3"/>
        <rect x="37.501" y="120.163" width="1.84336" height="9.21683" fill="#565656" fill-opacity="0.3"/>
        <rect x="41.1875" y="120.163" width="1.84336" height="9.21683" fill="#565656" fill-opacity="0.3"/>
        <rect x="44.8745" y="120.163" width="1.84337" height="9.21683" fill="#565656" fill-opacity="0.3"/>
        <rect x="48.561" y="120.163" width="1.84337" height="9.21683" fill="#565656" fill-opacity="0.3"/>
        <rect x="52.2476" y="120.163" width="1.84337" height="9.21683" fill="#565656" fill-opacity="0.3"/>
        <rect x="55.9346" y="120.163" width="1.84336" height="9.21683" fill="#565656" fill-opacity="0.3"/>
        <path d="M56.6211 120.163H53.3997C53.3997 120.163 51.1678 124.952 48.5609 126.846C45.9591 128.735 40.7266 129.38 40.7266 129.38H56.6211C58.2779 129.38 59.6211 128.037 59.6211 126.38V123.163C59.6211 121.507 58.2779 120.163 56.6211 120.163Z" fill="#565656" fill-opacity="0.3"/>
        <path d="M58.2387 120.163H14.9196C14.1561 120.163 13.5371 120.782 13.5371 121.546H59.6213C59.6213 120.782 59.0023 120.163 58.2387 120.163Z" fill="#565656" fill-opacity="0.3"/>
        <path d="M56.6213 89.7848H16.5371C14.328 89.7848 12.5371 91.5757 12.5371 93.7848V97.0016C12.5371 99.2108 14.328 101.002 16.5371 101.002H56.6213C58.8304 101.002 60.6213 99.2108 60.6213 97.0016V93.7848C60.6213 91.5756 58.8304 89.7848 56.6213 89.7848Z" fill="#E3C191" stroke="#274430" stroke-width="2"/>
        <rect x="15.3804" y="90.7848" width="1.84337" height="9.21683" fill="#565656" fill-opacity="0.3"/>
        <rect x="19.0674" y="90.7848" width="1.84337" height="9.21683" fill="#565656" fill-opacity="0.3"/>
        <rect x="22.7539" y="90.7848" width="1.84336" height="9.21683" fill="#565656" fill-opacity="0.3"/>
        <rect x="26.4404" y="90.7848" width="1.84336" height="9.21683" fill="#565656" fill-opacity="0.3"/>
        <rect x="30.1274" y="90.7848" width="1.84336" height="9.21683" fill="#565656" fill-opacity="0.3"/>
        <rect x="33.814" y="90.7848" width="1.84336" height="9.21683" fill="#565656" fill-opacity="0.3"/>
        <rect x="37.501" y="90.7848" width="1.84336" height="9.21683" fill="#565656" fill-opacity="0.3"/>
        <rect x="41.1875" y="90.7848" width="1.84336" height="9.21683" fill="#565656" fill-opacity="0.3"/>
        <rect x="44.8745" y="90.7848" width="1.84337" height="9.21683" fill="#565656" fill-opacity="0.3"/>
        <rect x="48.561" y="90.7848" width="1.84337" height="9.21683" fill="#565656" fill-opacity="0.3"/>
        <rect x="52.2476" y="90.7848" width="1.84337" height="9.21683" fill="#565656" fill-opacity="0.3"/>
        <rect x="55.9346" y="90.7848" width="1.84336" height="9.21683" fill="#565656" fill-opacity="0.3"/>
        <path d="M56.6211 90.7848H53.3997C53.3997 90.7848 51.1678 95.5736 48.5609 97.467C45.9591 99.3567 40.7266 100.002 40.7266 100.002H56.6211C58.2779 100.002 59.6211 98.6585 59.6211 97.0016V93.7848C59.6211 92.1279 58.2779 90.7848 56.6211 90.7848Z" fill="#565656" fill-opacity="0.3"/>
        <path d="M58.2387 90.7848H14.9196C14.1561 90.7848 13.5371 91.4038 13.5371 92.1673H59.6213C59.6213 91.4038 59.0023 90.7848 58.2387 90.7848Z" fill="#565656" fill-opacity="0.3"/>
        <path d="M56.9093 60.4061H16.8252C14.6161 60.4061 12.8252 62.197 12.8252 64.4061V67.623C12.8252 69.8321 14.6161 71.623 16.8252 71.623H56.9093C59.1185 71.623 60.9093 69.8321 60.9093 67.623V64.4061C60.9093 62.197 59.1185 60.4061 56.9093 60.4061Z" fill="#E3C191" stroke="#274430" stroke-width="2"/>
        <rect x="15.6685" y="61.4061" width="1.84337" height="9.21683" fill="#565656" fill-opacity="0.3"/>
        <rect x="19.3555" y="61.4061" width="1.84337" height="9.21683" fill="#565656" fill-opacity="0.3"/>
        <rect x="23.042" y="61.4061" width="1.84336" height="9.21683" fill="#565656" fill-opacity="0.3"/>
        <rect x="26.7285" y="61.4061" width="1.84336" height="9.21683" fill="#565656" fill-opacity="0.3"/>
        <rect x="30.4155" y="61.4061" width="1.84336" height="9.21683" fill="#565656" fill-opacity="0.3"/>
        <rect x="34.1021" y="61.4061" width="1.84336" height="9.21683" fill="#565656" fill-opacity="0.3"/>
        <rect x="37.7891" y="61.4061" width="1.84336" height="9.21683" fill="#565656" fill-opacity="0.3"/>
        <rect x="41.4756" y="61.4061" width="1.84336" height="9.21683" fill="#565656" fill-opacity="0.3"/>
        <rect x="45.1626" y="61.4061" width="1.84337" height="9.21683" fill="#565656" fill-opacity="0.3"/>
        <rect x="48.8491" y="61.4061" width="1.84336" height="9.21683" fill="#565656" fill-opacity="0.3"/>
        <rect x="52.5356" y="61.4061" width="1.84336" height="9.21683" fill="#565656" fill-opacity="0.3"/>
        <rect x="56.2227" y="61.4061" width="1.84336" height="9.21683" fill="#565656" fill-opacity="0.3"/>
        <path d="M56.9091 61.4061H53.6878C53.6878 61.4061 51.4558 66.195 48.849 68.0883C46.2472 69.978 41.0146 70.623 41.0146 70.623H56.9091C58.566 70.623 59.9091 69.2798 59.9091 67.623V64.4061C59.9091 62.7493 58.566 61.4061 56.9091 61.4061Z" fill="#565656" fill-opacity="0.3"/>
        <path d="M58.5268 61.4061H15.2077C14.4442 61.4061 13.8252 62.0251 13.8252 62.7887H59.9093C59.9093 62.0251 59.2904 61.4061 58.5268 61.4061Z" fill="#565656" fill-opacity="0.3"/>
        <path d="M88.8091 144.577L78.4401 105.88C77.8684 103.746 75.675 102.479 73.5412 103.051L70.4381 103.883C68.3042 104.454 67.0379 106.648 67.6097 108.782L77.9786 147.479C78.5504 149.613 80.7438 150.879 82.8776 150.308L85.9807 149.476C88.1146 148.904 89.3809 146.711 88.8091 144.577Z" fill="#E3C191" stroke="#274430" stroke-width="2"/>
        <rect x="77.1748" y="105.02" width="1.84251" height="9.21254" transform="rotate(75 77.1748 105.02)" fill="#565656" fill-opacity="0.3"/>
        <rect x="78.1284" y="108.58" width="1.84251" height="9.21254" transform="rotate(75 78.1284 108.58)" fill="#565656" fill-opacity="0.3"/>
        <rect x="79.082" y="112.139" width="1.84251" height="9.21254" transform="rotate(75 79.082 112.139)" fill="#565656" fill-opacity="0.3"/>
        <rect x="80.0356" y="115.699" width="1.84251" height="9.21254" transform="rotate(75 80.0356 115.699)" fill="#565656" fill-opacity="0.3"/>
        <rect x="80.9897" y="119.258" width="1.84251" height="9.21254" transform="rotate(75 80.9897 119.258)" fill="#565656" fill-opacity="0.3"/>
        <rect x="81.9434" y="122.818" width="1.84251" height="9.21254" transform="rotate(75 81.9434 122.818)" fill="#565656" fill-opacity="0.3"/>
        <rect x="82.897" y="126.377" width="1.84251" height="9.21254" transform="rotate(75 82.897 126.377)" fill="#565656" fill-opacity="0.3"/>
        <rect x="83.8511" y="129.937" width="1.84251" height="9.21254" transform="rotate(75 83.8511 129.937)" fill="#565656" fill-opacity="0.3"/>
        <rect x="84.8047" y="133.496" width="1.84251" height="9.21254" transform="rotate(75 84.8047 133.496)" fill="#565656" fill-opacity="0.3"/>
        <rect x="85.7583" y="137.055" width="1.84251" height="9.21254" transform="rotate(75 85.7583 137.055)" fill="#565656" fill-opacity="0.3"/>
        <rect x="86.7119" y="140.615" width="1.84251" height="9.21254" transform="rotate(75 86.7119 140.615)" fill="#565656" fill-opacity="0.3"/>
        <rect x="87.666" y="144.174" width="1.84251" height="9.21254" transform="rotate(75 87.666 144.174)" fill="#565656" fill-opacity="0.3"/>
        <path d="M87.1455 142.164L87.8545 144.842C88.2775 146.441 87.3277 148.08 85.7308 148.508L80.5664 149.892C80.0622 150.045 79.7211 150.118 79.7211 150.118L80.5664 149.892C81.8562 149.499 84.2129 148.578 84.656 147C84.8635 146.261 85.0658 145.199 85.2187 144.305C85.3943 143.278 86.1393 142.433 87.1455 142.164Z" fill="#565656" fill-opacity="0.3"/>
        <path d="M88.2666 146.416L77.0517 104.562C76.8562 103.832 76.1063 103.399 75.3767 103.595L87.2995 148.091C88.0291 147.896 88.4621 147.146 88.2666 146.416Z" fill="#565656" fill-opacity="0.3"/>
    </g>
    <defs>
        <clipPath id="clip0_90_18014">
            <rect width="89" height="162.735" fill="white" transform="translate(0 0.63269)"/>
        </clipPath>
    </defs>
</svg>
