<svg xmlns="http://www.w3.org/2000/svg" width="91" height="136" fill="none"><path fill="#F3B7B7" d="m71.106 10.718-8.451 4.506a.958.958 0 0 0-.394.403c-.093.177-.14.382-.132.59.007.207.068.407.173.575a.933.933 0 0 0 .42.367l1.946.836-13.72 36.252c-.04.127-.102.243-.181.342-.08.1-.175.18-.281.236a.787.787 0 0 1-.68.028L32.28 47.331a.78.78 0 0 0-.68.03.988.988 0 0 0-.463.58L12.75 105.82h9.094l14.64-44.444c.04-.127.102-.243.181-.343.08-.099.175-.18.281-.236a.788.788 0 0 1 .68-.028l17.525 7.523a.781.781 0 0 0 .681-.03.91.91 0 0 0 .282-.237c.079-.1.14-.216.18-.344l16.834-46.06 1.947.836c.168.07.348.08.52.03a.886.886 0 0 0 .448-.306c.12-.151.2-.34.227-.543a1.203 1.203 0 0 0-.069-.599l-3.905-9.814a.97.97 0 0 0-.506-.536.788.788 0 0 0-.684.03Z"/><path fill="#274430" fill-rule="evenodd" d="M75.075 22.457c.168.07.348.08.52.03a.886.886 0 0 0 .448-.306c.12-.151.2-.34.227-.543a1.203 1.203 0 0 0-.069-.599l-3.905-9.814a.97.97 0 0 0-.506-.536.788.788 0 0 0-.684.03l-8.451 4.505a.958.958 0 0 0-.394.403c-.093.177-.14.382-.132.59.007.207.068.407.173.575a.933.933 0 0 0 .42.367l1.946.836-13.72 36.252c-.04.127-.102.243-.181.342-.08.1-.175.18-.281.236a.787.787 0 0 1-.68.028L32.28 47.331a.78.78 0 0 0-.68.03.988.988 0 0 0-.463.58L12.75 105.82h9.094l14.64-44.444c.04-.127.102-.243.181-.343.08-.099.175-.18.281-.236a.788.788 0 0 1 .68-.028l17.525 7.523a.781.781 0 0 0 .681-.03.91.91 0 0 0 .282-.237c.079-.1.14-.216.18-.344l16.834-46.06 1.947.836ZM38.187 59.468l.002.001 16.941 7.272L72.311 19.73l2.224.954-3.344-8.405-7.247 3.863 2.528 1.087-14.188 37.49a2.48 2.48 0 0 1-.41.754 2.32 2.32 0 0 1-.723.603 2.203 2.203 0 0 1-1.906.078h-.002l-16.92-7.264-17.636 55.513h6.132l14.315-43.456.003-.009c.09-.28.23-.55.421-.789a2.32 2.32 0 0 1 .723-.602 2.204 2.204 0 0 1 1.906-.079ZM55.71 66.99l.002.001h-.002Z" clip-rule="evenodd"/><path fill="#E3C191" d="M55.653 100.885H27.006a2.125 2.125 0 0 0-2.125 2.125v2.33c0 1.173.951 2.125 2.125 2.125h28.647a2.125 2.125 0 0 0 2.125-2.125v-2.33a2.125 2.125 0 0 0-2.125-2.125Z"/><path fill="#274430" fill-rule="evenodd" d="M27.006 99.469h28.647a3.542 3.542 0 0 1 3.541 3.542v2.329a3.542 3.542 0 0 1-3.541 3.542H27.006a3.542 3.542 0 0 1-3.542-3.542v-2.329a3.542 3.542 0 0 1 3.542-3.542Zm0 1.417h28.647c1.173 0 2.125.951 2.125 2.125v2.329a2.125 2.125 0 0 1-2.125 2.125H27.006a2.125 2.125 0 0 1-2.125-2.125v-2.329c0-1.174.951-2.125 2.125-2.125Z" clip-rule="evenodd"/><path fill="#565656" fill-opacity=".3" d="M26.197 100.885h1.316v6.579h-1.316zM28.829 100.885h1.316v6.579h-1.316zM31.46 100.885h1.316v6.579H31.46zM34.092 100.885h1.316v6.579h-1.316zM36.724 100.885h1.316v6.579h-1.316zM39.355 100.885h1.316v6.579h-1.316zM41.987 100.885h1.316v6.579h-1.316zM44.619 100.885h1.316v6.579h-1.316zM47.251 100.885h1.316v6.579h-1.316zM49.882 100.885h1.316v6.579h-1.316zM52.514 100.885h1.316v6.579h-1.316zM55.146 100.885h1.316v6.579h-1.316z"/><path fill="#565656" fill-opacity=".3" d="M54.778 100.885h-1.441s-1.594 3.419-3.455 4.771c-1.857 1.348-5.592 1.809-5.592 1.809h10.488a3 3 0 0 0 3-3v-.58a3 3 0 0 0-3-3Z"/><path fill="#565656" fill-opacity=".3" d="M56.79 100.885H25.869a.987.987 0 0 0-.987.987h32.897a.987.987 0 0 0-.987-.987Z"/><path fill="#E3C191" d="M55.653 79.708H27.006a2.125 2.125 0 0 0-2.125 2.125v2.33c0 1.173.951 2.125 2.125 2.125h28.647a2.125 2.125 0 0 0 2.125-2.125v-2.33a2.125 2.125 0 0 0-2.125-2.125Z"/><path fill="#274430" fill-rule="evenodd" d="M27.006 78.292h28.647a3.542 3.542 0 0 1 3.541 3.541v2.33a3.542 3.542 0 0 1-3.541 3.541H27.006a3.542 3.542 0 0 1-3.542-3.541v-2.33a3.542 3.542 0 0 1 3.542-3.541Zm0 1.416h28.647c1.173 0 2.125.952 2.125 2.125v2.33a2.125 2.125 0 0 1-2.125 2.125H27.006a2.125 2.125 0 0 1-2.125-2.125v-2.33c0-1.173.951-2.125 2.125-2.125Z" clip-rule="evenodd"/><path fill="#565656" fill-opacity=".3" d="M26.197 79.708h1.316v6.579h-1.316zM28.829 79.708h1.316v6.579h-1.316zM31.46 79.708h1.316v6.579H31.46zM34.092 79.708h1.316v6.579h-1.316zM36.724 79.708h1.316v6.579h-1.316zM39.355 79.708h1.316v6.579h-1.316zM41.987 79.708h1.316v6.579h-1.316zM44.619 79.708h1.316v6.579h-1.316zM47.251 79.708h1.316v6.579h-1.316zM49.882 79.708h1.316v6.579h-1.316zM52.514 79.708h1.316v6.579h-1.316zM55.146 79.708h1.316v6.579h-1.316z"/><path fill="#565656" fill-opacity=".3" d="M54.778 79.708h-1.441s-1.594 3.419-3.455 4.77c-1.857 1.35-5.592 1.81-5.592 1.81h10.488a3 3 0 0 0 3-3v-.58a3 3 0 0 0-3-3Z"/><path fill="#565656" fill-opacity=".3" d="M56.79 79.708H25.869a.987.987 0 0 0-.987.987h32.897a.987.987 0 0 0-.987-.987Z"/><path fill="#E3C191" d="M56.064 58.737H27.417a2.125 2.125 0 0 0-2.125 2.125v2.329c0 1.174.951 2.125 2.125 2.125h28.647a2.125 2.125 0 0 0 2.125-2.125v-2.33a2.125 2.125 0 0 0-2.125-2.124Z"/><path fill="#274430" fill-rule="evenodd" d="M27.417 57.32h28.647a3.542 3.542 0 0 1 3.542 3.542v2.329a3.542 3.542 0 0 1-3.542 3.542H27.417a3.542 3.542 0 0 1-3.542-3.542v-2.33a3.542 3.542 0 0 1 3.542-3.541Zm0 1.417h28.647c1.173 0 2.125.951 2.125 2.125v2.329a2.125 2.125 0 0 1-2.125 2.125H27.417a2.125 2.125 0 0 1-2.125-2.125v-2.33c0-1.173.951-2.124 2.125-2.124Z" clip-rule="evenodd"/><path fill="#565656" fill-opacity=".3" d="M26.608 58.737h1.316v6.579h-1.316zM29.24 58.737h1.316v6.579H29.24zM31.872 58.737h1.316v6.579h-1.316zM34.503 58.737h1.316v6.579h-1.316zM37.135 58.737h1.316v6.579h-1.316zM39.767 58.737h1.316v6.579h-1.316zM42.398 58.737h1.316v6.579h-1.316zM45.03 58.737h1.316v6.579H45.03zM47.662 58.737h1.316v6.579h-1.316zM50.294 58.737h1.316v6.579h-1.316zM52.925 58.737h1.316v6.579h-1.316zM55.557 58.737h1.316v6.579h-1.316z"/><path fill="#565656" fill-opacity=".3" d="M55.189 58.737h-1.441s-1.593 3.418-3.454 4.77c-1.858 1.349-5.593 1.809-5.593 1.809H55.19a3 3 0 0 0 3-3v-.58a3 3 0 0 0-3-3Z"/><path fill="#565656" fill-opacity=".3" d="M57.202 58.737H26.279a.987.987 0 0 0-.987.986h32.897a.987.987 0 0 0-.987-.986Z"/><path fill="#E3C191" d="M58.325 93.69H29.68a2.125 2.125 0 0 0-2.125 2.124v2.33c0 1.173.951 2.125 2.125 2.125h28.646a2.125 2.125 0 0 0 2.125-2.125v-2.33a2.125 2.125 0 0 0-2.125-2.125Z"/><path fill="#274430" fill-rule="evenodd" d="M29.679 92.273h28.647a3.542 3.542 0 0 1 3.541 3.541v2.33a3.541 3.541 0 0 1-3.541 3.541H29.679a3.541 3.541 0 0 1-3.542-3.541v-2.33a3.542 3.542 0 0 1 3.542-3.541Zm0 1.416h28.647c1.173 0 2.125.952 2.125 2.125v2.33a2.125 2.125 0 0 1-2.125 2.125H29.679a2.125 2.125 0 0 1-2.125-2.125v-2.33c0-1.173.951-2.125 2.125-2.125Z" clip-rule="evenodd"/><path fill="#565656" fill-opacity=".3" d="M28.87 93.689h1.316v6.579H28.87zM31.502 93.689h1.316v6.579h-1.316zM34.133 93.689h1.316v6.579h-1.316zM36.765 93.689h1.316v6.579h-1.316zM39.397 93.689h1.316v6.579h-1.316zM42.028 93.689h1.316v6.579h-1.316zM44.66 93.689h1.316v6.579H44.66zM47.292 93.689h1.316v6.579h-1.316zM49.923 93.689h1.316v6.579h-1.316zM52.555 93.689h1.316v6.579h-1.316zM55.187 93.689h1.316v6.579h-1.316zM57.819 93.689h1.316v6.579h-1.316z"/><path fill="#565656" fill-opacity=".3" d="M57.45 93.69h-1.44s-1.594 3.418-3.455 4.77c-1.857 1.348-5.592 1.809-5.592 1.809H57.45a3 3 0 0 0 3-3v-.58a3 3 0 0 0-3-3Z"/><path fill="#565656" fill-opacity=".3" d="M59.464 93.69H28.54a.987.987 0 0 0-.987.986H60.45a.987.987 0 0 0-.987-.987Z"/><path fill="#E3C191" d="M58.325 72.512H29.68a2.125 2.125 0 0 0-2.125 2.125v2.33c0 1.173.951 2.124 2.125 2.124h28.646a2.125 2.125 0 0 0 2.125-2.125v-2.329a2.125 2.125 0 0 0-2.125-2.125Z"/><path fill="#274430" fill-rule="evenodd" d="M29.679 71.096h28.647a3.542 3.542 0 0 1 3.541 3.541v2.33a3.542 3.542 0 0 1-3.541 3.541H29.679a3.542 3.542 0 0 1-3.542-3.541v-2.33a3.542 3.542 0 0 1 3.542-3.541Zm0 1.416h28.647c1.173 0 2.125.951 2.125 2.125v2.33a2.125 2.125 0 0 1-2.125 2.124H29.679a2.125 2.125 0 0 1-2.125-2.124v-2.33c0-1.174.951-2.125 2.125-2.125Z" clip-rule="evenodd"/><path fill="#565656" fill-opacity=".3" d="M28.87 72.512h1.316v6.579H28.87zM31.502 72.512h1.316v6.579h-1.316zM34.133 72.512h1.316v6.579h-1.316zM36.765 72.512h1.316v6.579h-1.316zM39.397 72.512h1.316v6.579h-1.316zM42.028 72.512h1.316v6.579h-1.316zM44.66 72.512h1.316v6.579H44.66zM47.292 72.512h1.316v6.579h-1.316zM49.923 72.512h1.316v6.579h-1.316zM52.555 72.512h1.316v6.579h-1.316zM55.187 72.512h1.316v6.579h-1.316zM57.819 72.512h1.316v6.579h-1.316z"/><path fill="#565656" fill-opacity=".3" d="M57.45 72.512h-1.44s-1.594 3.418-3.455 4.77c-1.857 1.349-5.592 1.81-5.592 1.81H57.45a3 3 0 0 0 3-3v-.58a3 3 0 0 0-3-3Z"/><path fill="#565656" fill-opacity=".3" d="M59.464 72.512H28.54a.987.987 0 0 0-.987.987H60.45a.987.987 0 0 0-.987-.987Z"/><path fill="#E3C191" d="M58.737 51.54H30.09a2.125 2.125 0 0 0-2.125 2.125v2.33c0 1.173.951 2.125 2.125 2.125h28.647a2.125 2.125 0 0 0 2.125-2.125v-2.33a2.125 2.125 0 0 0-2.125-2.125Z"/><path fill="#274430" fill-rule="evenodd" d="M30.09 50.124h28.647a3.542 3.542 0 0 1 3.541 3.541v2.33a3.542 3.542 0 0 1-3.541 3.541H30.09a3.542 3.542 0 0 1-3.542-3.541v-2.33a3.542 3.542 0 0 1 3.542-3.541Zm0 1.416h28.647c1.173 0 2.125.952 2.125 2.125v2.33a2.125 2.125 0 0 1-2.125 2.125H30.09a2.125 2.125 0 0 1-2.125-2.125v-2.33c0-1.173.951-2.125 2.125-2.125Z" clip-rule="evenodd"/><path fill="#565656" fill-opacity=".3" d="M29.281 51.54h1.316v6.579h-1.316zM31.913 51.54h1.316v6.579h-1.316zM34.544 51.54h1.316v6.579h-1.316zM37.176 51.54h1.316v6.579h-1.316zM39.808 51.54h1.316v6.579h-1.316zM42.44 51.54h1.316v6.579H42.44zM45.071 51.54h1.316v6.579h-1.316zM47.703 51.54h1.316v6.579h-1.316zM50.334 51.54h1.316v6.579h-1.316zM52.966 51.54h1.316v6.579h-1.316zM55.598 51.54h1.316v6.579h-1.316zM58.23 51.54h1.316v6.579H58.23z"/><path fill="#565656" fill-opacity=".3" d="M57.862 51.54H56.42s-1.594 3.419-3.454 4.77c-1.858 1.35-5.593 1.81-5.593 1.81h10.488a3 3 0 0 0 3-3v-.58a3 3 0 0 0-3-3Z"/><path fill="#565656" fill-opacity=".3" d="M59.875 51.54H28.952a.987.987 0 0 0-.987.987h32.897a.987.987 0 0 0-.987-.987Z"/><path fill="#E3C191" d="M53.185 86.288H24.54a2.125 2.125 0 0 0-2.125 2.125v2.329c0 1.174.951 2.125 2.125 2.125h28.646a2.125 2.125 0 0 0 2.125-2.125v-2.33a2.125 2.125 0 0 0-2.125-2.124Z"/><path fill="#274430" fill-rule="evenodd" d="M24.539 84.871h28.646a3.542 3.542 0 0 1 3.542 3.542v2.329a3.542 3.542 0 0 1-3.541 3.542H24.538a3.542 3.542 0 0 1-3.542-3.542v-2.33a3.542 3.542 0 0 1 3.542-3.541Zm0 1.417h28.646c1.174 0 2.125.951 2.125 2.125v2.329a2.125 2.125 0 0 1-2.125 2.125H24.54a2.125 2.125 0 0 1-2.125-2.125v-2.33c0-1.173.951-2.124 2.125-2.124Z" clip-rule="evenodd"/><path fill="#565656" fill-opacity=".3" d="M23.73 86.288h1.316v6.579H23.73zM26.361 86.288h1.316v6.579h-1.316zM28.993 86.288h1.316v6.579h-1.316zM31.625 86.288h1.316v6.579h-1.316zM34.256 86.288h1.316v6.579h-1.316zM36.888 86.288h1.316v6.579h-1.316zM39.52 86.288h1.316v6.579H39.52zM42.152 86.288h1.316v6.579h-1.316zM44.783 86.288h1.316v6.579h-1.316zM47.415 86.288h1.316v6.579h-1.316zM50.047 86.288h1.316v6.579h-1.316zM52.679 86.288h1.316v6.579h-1.316z"/><path fill="#565656" fill-opacity=".3" d="M52.31 86.288h-1.44s-1.594 3.418-3.455 4.77c-1.857 1.349-5.592 1.809-5.592 1.809H52.31a3 3 0 0 0 3-3v-.58a3 3 0 0 0-3-3Z"/><path fill="#565656" fill-opacity=".3" d="M54.323 86.288H23.401a.987.987 0 0 0-.987.987H55.31a.987.987 0 0 0-.987-.987Z"/><path fill="#E3C191" d="M53.185 65.316H24.54a2.125 2.125 0 0 0-2.125 2.125v2.33c0 1.173.951 2.124 2.125 2.124h28.646a2.125 2.125 0 0 0 2.125-2.125v-2.33a2.125 2.125 0 0 0-2.125-2.124Z"/><path fill="#274430" fill-rule="evenodd" d="M24.539 63.9h28.646a3.542 3.542 0 0 1 3.542 3.541v2.33a3.542 3.542 0 0 1-3.541 3.541H24.538a3.542 3.542 0 0 1-3.542-3.542v-2.329a3.542 3.542 0 0 1 3.542-3.542Zm0 1.416h28.646c1.174 0 2.125.951 2.125 2.125v2.33a2.125 2.125 0 0 1-2.125 2.124H24.54a2.125 2.125 0 0 1-2.125-2.125v-2.329c0-1.174.951-2.125 2.125-2.125Z" clip-rule="evenodd"/><path fill="#565656" fill-opacity=".3" d="M23.73 65.316h1.316v6.579H23.73zM26.361 65.316h1.316v6.579h-1.316zM28.993 65.316h1.316v6.579h-1.316zM31.625 65.316h1.316v6.579h-1.316zM34.256 65.316h1.316v6.579h-1.316zM36.888 65.316h1.316v6.579h-1.316zM39.52 65.316h1.316v6.579H39.52zM42.152 65.316h1.316v6.579h-1.316zM44.783 65.316h1.316v6.579h-1.316zM47.415 65.316h1.316v6.579h-1.316zM50.047 65.316h1.316v6.579h-1.316zM52.679 65.316h1.316v6.579h-1.316z"/><path fill="#565656" fill-opacity=".3" d="M52.31 65.316h-1.44s-1.594 3.418-3.455 4.77c-1.857 1.349-5.592 1.81-5.592 1.81H52.31a3 3 0 0 0 3-3v-.58a3 3 0 0 0-3-3Z"/><path fill="#565656" fill-opacity=".3" d="M54.323 65.316H23.401a.987.987 0 0 0-.987.987H55.31a.987.987 0 0 0-.987-.987Z"/><path fill="#E3C191" d="M53.39 44.344H24.745a2.125 2.125 0 0 0-2.125 2.125v2.33c0 1.173.951 2.125 2.125 2.125h28.647a2.125 2.125 0 0 0 2.125-2.125v-2.33a2.125 2.125 0 0 0-2.125-2.125Z"/><path fill="#274430" fill-rule="evenodd" d="M24.744 42.928h28.647a3.542 3.542 0 0 1 3.542 3.541v2.33a3.542 3.542 0 0 1-3.542 3.541H24.744a3.542 3.542 0 0 1-3.541-3.541v-2.33a3.542 3.542 0 0 1 3.541-3.541Zm0 1.416h28.647c1.174 0 2.125.952 2.125 2.125v2.33a2.125 2.125 0 0 1-2.125 2.125H24.744a2.125 2.125 0 0 1-2.125-2.125v-2.33c0-1.173.952-2.125 2.125-2.125Z" clip-rule="evenodd"/><path fill="#565656" fill-opacity=".3" d="M23.935 44.344h1.316v6.579h-1.316zM26.567 44.344h1.316v6.579h-1.316zM29.199 44.344h1.316v6.579h-1.316zM31.83 44.344h1.316v6.579H31.83zM34.462 44.344h1.316v6.579h-1.316zM37.094 44.344h1.316v6.579h-1.316zM39.726 44.344h1.316v6.579h-1.316zM42.357 44.344h1.316v6.579h-1.316zM44.989 44.344h1.316v6.579h-1.316zM47.621 44.344h1.316v6.579h-1.316zM50.252 44.344h1.316v6.579h-1.316zM52.884 44.344H54.2v6.579h-1.316z"/><path fill="#565656" fill-opacity=".3" d="M52.516 44.344h-1.441s-1.593 3.419-3.454 4.77c-1.858 1.35-5.593 1.81-5.593 1.81h10.488a3 3 0 0 0 3-3v-.58a3 3 0 0 0-3-3Z"/><path fill="#565656" fill-opacity=".3" d="M54.529 44.344H23.606a.987.987 0 0 0-.987.987h32.897a.987.987 0 0 0-.987-.987Z"/><path fill="#E3C191" d="M75.46 103.916 68.05 76.26a2.125 2.125 0 0 0-2.603-1.503l-2.247.602a2.125 2.125 0 0 0-1.502 2.603l7.41 27.656a2.126 2.126 0 0 0 2.603 1.503l2.247-.603a2.124 2.124 0 0 0 1.502-2.602Z"/><path fill="#274430" fill-rule="evenodd" d="m69.419 75.893 7.41 27.656a3.542 3.542 0 0 1-2.504 4.338l-2.247.602a3.542 3.542 0 0 1-4.338-2.504l-7.41-27.656a3.542 3.542 0 0 1 2.504-4.338l2.247-.602a3.542 3.542 0 0 1 4.338 2.504Zm-1.369.367 7.41 27.656a2.124 2.124 0 0 1-1.502 2.602l-2.247.602a2.125 2.125 0 0 1-2.603-1.502l-7.41-27.656a2.125 2.125 0 0 1 1.503-2.603l2.247-.602a2.125 2.125 0 0 1 2.602 1.503Z" clip-rule="evenodd"/><path fill="#565656" fill-opacity=".3" d="m67.84 75.478.34 1.27-6.352 1.702-.34-1.27zM68.521 78.02l.34 1.27-6.351 1.701-.34-1.27zM69.202 80.56l.34 1.27-6.352 1.702-.34-1.27zM69.883 83.1l.34 1.27-6.351 1.703-.34-1.27zM70.564 85.641l.34 1.27-6.351 1.702-.34-1.27zM71.245 88.183l.34 1.27-6.352 1.702-.34-1.27zM71.925 90.723l.34 1.27-6.351 1.702-.34-1.27zM72.606 93.264l.34 1.27-6.351 1.702-.34-1.27zM73.287 95.805l.34 1.27-6.352 1.702-.34-1.27zM73.968 98.346l.34 1.27-6.352 1.702-.34-1.27zM74.649 100.887l.34 1.27-6.352 1.702-.34-1.27zM75.33 103.427l.34 1.27-6.352 1.703-.34-1.27z"/><path fill="#565656" fill-opacity=".3" d="m74.958 101.992.287 1.085a3 3 0 0 1-2.124 3.666l-2.86.766c-.36.109-.603.162-.603.162l.604-.162c.92-.281 2.603-.938 2.919-2.064.148-.528.292-1.286.402-1.924a1.908 1.908 0 0 1 1.375-1.529Z"/><path fill="#565656" fill-opacity=".3" d="M75.758 105.028 67.753 75.15a.976.976 0 0 0-1.196-.69l8.511 31.763a.975.975 0 0 0 .69-1.195Z"/></svg>
