<svg width="721" height="377" fill="none" xmlns="http://www.w3.org/2000/svg">
    <path opacity=".2" d="M393.681 200.713h-36.775v14.893h36.775v-14.893ZM379.677 147.711h-36.776v14.894h36.776v-14.894ZM246.58 200.283h-36.775v14.893h36.775v-14.893ZM299.999 96.64h-36.775v14.894h36.775V96.641ZM340.273 96.64h-36.775v14.894h36.775V96.641ZM183.536 310.426h-36.775v14.893h36.775v-14.893ZM164.274 328.82h-36.775v14.893h36.775V328.82Z" fill="#9198E3"/>
    <path opacity=".1" d="M359.535 168.296H322.76v14.893h36.775v-14.893ZM414.703 251.974h-36.775v14.893h36.775v-14.893ZM199.3 274.749h-36.776v14.893H199.3v-14.893ZM241.333 274.749h-36.775v14.893h36.775v-14.893ZM244.831 253.724h-36.775v14.893h36.775v-14.893ZM401.568 168.296h-36.775v14.893h36.775v-14.893Z" fill="#9198E3"/>
    <path opacity=".2" d="M292.112 327.32h-36.775v14.893h36.775V327.32Z" fill="#9198E3"/>
    <path opacity=".1" d="M271.97 347.914h-36.775v14.893h36.775v-14.893ZM314.003 347.914h-36.775v14.893h36.775v-14.893ZM262.344 181.629h-36.775v14.893h36.775v-14.893ZM207.177 327.95h-36.776v14.893h36.776V327.95ZM321.011 78.237h-36.776V93.13h36.776V78.237ZM193.172 95.58h-36.775v14.894h36.775V95.58Z" fill="#9198E3"/>
    <path opacity=".2" d="M321.011 200.713h-36.776v14.893h36.776v-14.893ZM305.786 162.605h36.776v-14.893h-36.776v14.893ZM438.893 215.176h36.775v-14.893h-36.775v14.893ZM385.474 111.534h36.776V96.64h-36.776v14.894ZM345.201 111.534h36.775V96.64h-36.775v14.894ZM501.938 325.309h36.775v-14.893h-36.775v14.893ZM521.2 343.713h36.775V328.82H521.2v14.893Z" fill="#9198E3"/>
    <path opacity=".1" d="M325.939 183.199h36.775v-14.893h-36.775v14.893ZM270.761 266.867h36.775v-14.893h-36.775v14.893ZM486.174 289.652h36.775v-14.893h-36.775v14.893ZM444.141 289.652h36.775v-14.893h-36.775v14.893ZM440.642 268.617h36.775v-14.893h-36.775v14.893ZM283.895 183.199h36.775v-14.893h-36.775v14.893Z" fill="#9198E3"/>
    <path opacity=".2" d="M393.351 342.223h36.775V327.33h-36.775v14.893Z" fill="#9198E3"/>
    <path opacity=".1" d="M413.493 362.807h36.776v-14.893h-36.776v14.893ZM371.47 362.807h36.775v-14.893H371.47v14.893Z" fill="#9198E3"/>
    <path opacity=".2" d="M571.629 156.823h36.775V141.93h-36.775v14.893Z" fill="#9198E3"/>
    <path opacity=".1" d="M591.781 177.428h36.775v-14.893h-36.775v14.893ZM549.748 177.428h36.775v-14.893h-36.775v14.893Z" fill="#9198E3"/>
    <path opacity=".2" d="M585.984 267.737h36.775v-14.893h-36.775v14.893Z" fill="#9198E3"/>
    <path opacity=".1" d="M423.119 196.522h36.776v-14.893h-36.776v14.893ZM478.287 342.833h36.775V327.94h-36.775v14.893ZM364.453 93.14h36.775V78.247h-36.775V93.14Z" fill="#9198E3"/>
    <path opacity=".2" d="M607.005 218.427h36.775v-14.894h-36.775v14.894Z" fill="#9198E3"/>
    <path opacity=".1" d="M585.984 200.033h36.775V185.14h-36.775v14.893ZM492.291 110.474h36.775V95.58h-36.775v14.894Z" fill="#9198E3"/>
    <path opacity=".2" d="M576.897 14.893h36.775V0h-36.775v14.893Z" fill="#9198E3"/>
    <path opacity=".1" d="M648.688 104.262h36.775V89.369h-36.775v14.893ZM606.655 104.262h36.775V89.369h-36.775v14.893ZM603.156 83.228h36.776V68.335h-36.776v14.893ZM630.646 143.081h36.775v-14.894h-36.775v14.894Z" fill="#9198E3"/>
    <path opacity=".2" d="M526.977 30.227h36.775V15.333h-36.775v14.894Z" fill="#9198E3"/>
    <path fill-rule="evenodd" clip-rule="evenodd" d="M675.727 233.05v43.009h-4.998V233.05h4.998ZM656.735 174.037v102.022h-4.998V174.037h4.998ZM644.74 134.029v143.03h-4.998v-143.03h4.998Z" fill="#777268"/>
    <path fill-rule="evenodd" clip-rule="evenodd" d="M675.728 233.05v43.009h-1V233.05h1ZM656.735 174.037v102.022h-.999V174.037h.999ZM644.74 134.029v143.03h-.999v-143.03h.999Z" fill="#565656" fill-opacity=".3"/>
    <path fill-rule="evenodd" clip-rule="evenodd" d="M671.729 233.05v43.009h-1V233.05h1ZM652.737 174.037v102.022h-1V174.037h1ZM640.742 134.029v143.03h-1v-143.03h1Z" fill="#fff" fill-opacity=".3"/>
    <path d="M638.592 132.512s-2.621-3.143-10.379-9.619c-7.757-6.476-38.174-22.281-38.174-22.281s16.485 5.181 22.046 8.446c5.562 3.264 12.9 7.163 12.9 7.163s-21.51-16.136-23.665-17.056c-2.154-.92 21.05 11.928 21.05 11.928s-10.516-13.897-15.301-18.284c-4.785-4.386-14.382-15.159-14.382-15.159s25.918 23.901 27.181 25.323c1.262 1.423 6.719 7.668 6.719 7.668l-10.918-17.79 11.853 13.972s-17.721-24.11-18.589-25.27c-.867-1.16 11.258 10.788 11.258 10.788l-12.943-23.355 26.473 35.692-4.13-15.092 6.489 15.312-6.349-39.453 9.504 38.538s-1.134-25.572-1.448-30.794c-.314-5.223-.985-10.724-.985-10.724s5.681 33.971 5.859 34.925c.178.953.971 8.742.971 8.742l2.665-19.333c.562-4.073-.606-17.408-.323-19.435.282-2.027 2.289 29.965 2.213 31.302a37.301 37.301 0 0 1-1.107 6.486c-.625 2.101 4.879-12.807 6.677-19.086 1.797-6.278 5.149-18.118 5.149-18.118s-1.814 16.864-2.556 19.974c-.741 3.11-6.173 19.988-6.173 19.988s9.663-17.038 14.41-21.894c4.747-4.856 13.234-14.033 13.234-14.033s-12.735 20.248-15.337 24.011c-2.602 3.763-9.756 16.7-9.756 16.7s14.039-13.207 14.824-14.34c.784-1.134 10.884-10.653 10.884-10.653s-19.741 22.636-20.614 24.01c-7.409 11.621-9.697 17.014-11.257 19.28-1.56 2.266-4.566 3.865-7.973 1.521Z" fill="#92E3A9"/>
    <path fill-rule="evenodd" clip-rule="evenodd" d="M628.213 122.893c7.758 6.476 10.379 9.619 10.379 9.619 1.724 1.187 3.346 1.363 4.73.953 1.788-.144 3.275-1.277 4.226-2.658.549-.798 1.19-1.985 2.112-3.696 1.696-3.144 4.347-8.058 9.145-15.584.872-1.374 20.614-24.01 20.614-24.01s-2.299 2.167-4.789 4.557c2.254-2.593 3.806-4.373 3.806-4.373s-10.1 9.519-10.884 10.653c-.607.876-9.131 8.964-12.972 12.593 1.986-3.558 6.842-12.18 8.887-15.137 2.602-3.763 15.336-24.01 15.336-24.01s-1.084 1.172-2.694 2.9a3928.22 3928.22 0 0 0 1.712-2.717s-8.487 9.177-13.234 14.033c-3.379 3.456-9.248 13.085-12.351 18.348 1.623-5.09 4.565-14.396 5.097-16.626.741-3.11 2.555-19.973 2.555-19.973l-1.585 5.593c.352-3.083.603-5.41.603-5.41s-3.352 11.84-5.149 18.118c-1.004 3.505-3.162 9.699-4.765 14.122a36.1 36.1 0 0 0 .178-1.705c.076-1.337-1.931-33.33-2.214-31.302-.117.84.015 3.625.17 6.887.174 3.658.376 7.916.287 10.708-.573-8.89-1.28-18.554-1.439-17.412-.118.84.015 3.625.169 6.888.219 4.605.483 10.163.154 12.547l-2.094 15.196c-.223-2.084-.469-4.308-.559-4.789-.178-.954-5.86-34.925-5.86-34.925s.672 5.502.986 10.724c.027.46.061 1.077.1 1.82l-2.068-12.36s.671 5.501.985 10.724c.225 3.746.872 17.964 1.22 25.702l-8.293-33.63 1.931 11.998-2.914-11.814 5.7 35.419-4.857-11.461 1.932 7.061-2.915-6.878 3.476 12.701-24.836-33.484 3.306 5.966-4.289-5.783 11.545 20.832c-3.484-3.415-9.497-9.278-8.877-8.449.183.245 1.112 1.506 2.466 3.346-2.136-2.061-3.788-3.616-3.449-3.162.485.648 6.216 8.44 11.188 15.204l-3.469-4.09 2.979 4.853-3.962-4.67 8.231 13.412a1012.149 1012.149 0 0 0-3.05-3.473c-1.262-1.422-27.18-25.322-27.18-25.322s2.903 3.258 6.311 6.92c-4.15-3.838-7.294-6.737-7.294-6.737s9.597 10.773 14.382 15.16c3.905 3.58 11.628 13.494 14.336 17.019-3.923-2.177-12.757-7.09-16.951-9.504-1.063-.721-1.826-1.205-2.151-1.344-.516-.22.424.35 2.151 1.344 1.362.925 3.215 2.24 5.266 3.721a703.507 703.507 0 0 1-6.248-3.537c-1.063-.722-1.827-1.206-2.152-1.344-.516-.22.424.35 2.152 1.344 4.212 2.86 13.125 9.457 18.054 13.128-2.518-1.377-5.705-3.148-8.458-4.763-5.562-3.265-22.047-8.445-22.047-8.445s.934.485 2.516 1.32c-2.109-.7-3.498-1.137-3.498-1.137s30.417 15.805 38.174 22.281Zm-34.676-21.144c7.447 3.931 29.26 15.618 35.659 20.96 7.758 6.476 10.378 9.619 10.378 9.619 1.332.916 2.602 1.23 3.748 1.137 1.35-.399 2.473-1.355 3.243-2.474.55-.798 1.19-1.985 2.113-3.696 1.696-3.144 4.346-8.058 9.144-15.584.628-.989 11.025-12.986 16.808-19.637-2.729 2.618-5.685 5.503-6.096 6.096-.785 1.134-14.823 14.34-14.823 14.34s.328-.594.869-1.563c-1.128 1.066-1.852 1.747-1.852 1.747s7.154-12.937 9.756-16.7c2.01-2.906 10.061-15.642 13.625-21.294-2.895 3.108-7.489 8.012-10.539 11.132-4.748 4.856-14.41 21.894-14.41 21.894s.435-1.352 1.076-3.362c-1.256 2.131-2.059 3.546-2.059 3.546s5.432-16.878 6.173-19.988c.466-1.955 1.356-9.344 1.953-14.564a5868.019 5868.019 0 0 1-3.564 12.525c-1.797 6.278-7.301 21.186-6.677 19.085a37.22 37.22 0 0 0 .93-4.78c-1.268 3.5-2.188 5.892-1.912 4.964.559-2.125.93-4.295 1.107-6.486.033-.583-.33-7.005-.774-13.89a18.534 18.534 0 0 1-.133 1.84l-2.665 19.332s-.195-1.909-.412-3.953l-.571 4.137s-.793-7.789-.971-8.742c-.105-.566-2.147-12.746-3.791-22.565.404 7.705 1.347 28.974 1.347 28.974l-1.21-4.908.228 5.092-6.59-26.724 4.418 27.455-1.632-3.85.649 4.034-3.574-8.434 2.197 8.03-1.636-2.207.654 2.391-22.184-29.909 9.637 17.388s-.989-.974-2.381-2.338l1.398 2.522s-4.489-4.424-7.809-7.626a60023.42 60023.42 0 0 1 16.122 21.925l-8.383-9.883 7.401 10.066-7.891-9.303 7.939 12.937s-1.868-2.137-3.67-4.195l2.687 4.379s-5.457-6.245-6.719-7.668c-.823-.927-12.119-11.402-19.887-18.585 2.79 2.996 5.917 6.264 8.071 8.238 4.784 4.386 15.301 18.284 15.301 18.284l-1.948-1.081c.61.794.965 1.264.965 1.264s-6.765-3.745-12.65-7.047c6.978 5.038 16.248 11.991 16.248 11.991s-1.873-.994-4.442-2.4c2.086 1.554 3.459 2.584 3.459 2.584s-7.338-3.899-12.9-7.163c-3.946-2.317-13.395-5.599-18.548-7.309Z" fill="#fff" fill-opacity=".3"/>
    <path fill-rule="evenodd" clip-rule="evenodd" d="M627.231 123.077c7.757 6.476 10.378 9.619 10.378 9.619 1.725 1.186 3.346 1.363 4.73.953 1.788-.144 3.275-1.277 4.226-2.658.549-.798 1.19-1.985 2.112-3.696 1.696-3.144 4.347-8.058 9.145-15.584.872-1.374 20.614-24.01 20.614-24.01s-2.299 2.167-4.789 4.556c2.254-2.592 3.807-4.373 3.807-4.373s-10.1 9.52-10.885 10.653c-.607.877-9.131 8.965-12.972 12.594 1.987-3.558 6.842-12.18 8.887-15.137 2.602-3.763 15.336-24.01 15.336-24.01s-1.084 1.172-2.694 2.9l1.712-2.717s-8.486 9.177-13.234 14.033c-3.379 3.456-9.248 13.084-12.351 18.348 1.623-5.09 4.565-14.397 5.097-16.626.741-3.11 2.555-19.973 2.555-19.973l-1.585 5.593c.353-3.084.603-5.41.603-5.41s-3.352 11.84-5.149 18.118c-1.004 3.505-3.162 9.698-4.765 14.122.073-.567.132-1.136.178-1.705.076-1.337-1.931-33.33-2.214-31.303-.117.84.015 3.626.17 6.888.174 3.658.376 7.916.287 10.708-.573-8.891-1.28-18.554-1.439-17.412-.117.84.015 3.625.17 6.888.218 4.605.482 10.163.153 12.547l-2.094 15.196c-.223-2.084-.469-4.308-.559-4.79-.178-.953-5.86-34.924-5.86-34.924s.672 5.501.986 10.724c.027.46.061 1.077.1 1.82l-2.068-12.36s.671 5.501.985 10.723c.225 3.747.872 17.965 1.22 25.703l-8.293-33.63 1.931 11.998-2.913-11.814 5.699 35.419-4.857-11.462 1.932 7.062-2.915-6.878 3.476 12.701-24.836-33.484 3.306 5.966-4.289-5.783 11.545 20.832c-3.484-3.415-9.497-9.278-8.877-8.449.183.245 1.112 1.506 2.466 3.345-2.136-2.06-3.788-3.615-3.448-3.161.484.648 8.646 10.727 13.618 17.49l-5.9-6.377 2.979 4.854-3.962-4.67 8.231 13.412a1012.149 1012.149 0 0 0-3.05-3.473c-1.262-1.422-27.18-25.322-27.18-25.322s2.903 3.258 6.311 6.92c-4.15-3.838-7.294-6.737-7.294-6.737s9.597 10.773 14.382 15.16c3.905 3.58 11.628 13.494 14.336 17.019-3.923-2.177-12.757-7.09-16.951-9.504-1.063-.722-1.826-1.205-2.151-1.344-.516-.22.424.35 2.151 1.344 1.362.925 3.215 2.24 5.266 3.721a703.507 703.507 0 0 1-6.248-3.537c-1.063-.722-1.827-1.206-2.151-1.344-.517-.22.423.35 2.151 1.344 4.212 2.86 13.125 9.457 18.054 13.128-2.518-1.377-5.705-3.148-8.458-4.763-5.562-3.265-22.047-8.445-22.047-8.445s.934.485 2.516 1.32c-2.109-.7-3.498-1.137-3.498-1.137s30.417 15.804 38.175 22.281Zm-34.677-21.144c7.447 3.931 29.26 15.618 35.659 20.96 7.758 6.476 10.379 9.619 10.379 9.619 1.331.916 2.601 1.23 3.747 1.137 1.35-.399 2.473-1.355 3.243-2.474.55-.799 1.19-1.985 2.113-3.696 1.696-3.144 4.346-8.058 9.144-15.584.628-.989 11.025-12.986 16.808-19.638-2.728 2.619-5.685 5.504-6.096 6.097-.785 1.133-14.823 14.34-14.823 14.34s.328-.594.869-1.563l-.869 1.563s6.171-12.753 8.773-16.516c2.01-2.906 10.061-15.643 13.625-21.294-2.895 3.108-7.489 8.012-10.539 11.132-4.748 4.856-14.41 21.894-14.41 21.894s.435-1.353 1.076-3.362l-1.076 3.362s4.449-16.695 5.19-19.804c.466-1.955 1.356-9.344 1.953-14.564a5868.019 5868.019 0 0 1-3.564 12.525c-1.797 6.278-7.301 21.186-6.677 19.085a37.22 37.22 0 0 0 .93-4.78c-.08 2.361-1.206 5.708-.93 4.78.56-2.125-.052-4.112.125-6.302.033-.583-.33-7.005-.774-13.89a18.235 18.235 0 0 1-.133 1.84l-2.665 19.332s-.194-1.909-.412-3.953l.412 3.953s-1.776-7.605-1.954-8.559c-.105-.565-2.147-12.745-3.791-22.564.404 7.705 1.347 28.974 1.347 28.974l-7.572-26.54 4.418 27.455-4.557-8.25 2.197 8.03-23.166-29.725 9.637 17.388s-.989-.974-2.381-2.339l2.381 2.339s-5.472-4.24-8.792-7.443c5.077 6.898 16.122 21.925 16.122 21.925l-5.952-7.597c3.939 5.357 5.952 7.597 5.952 7.597l-8.873-9.119 7.939 12.937s-1.867-2.137-3.67-4.195l3.67 4.195s-6.44-6.061-7.702-7.484c-.823-.927-12.119-11.402-19.887-18.585 2.79 2.996 5.918 6.264 8.071 8.238 4.785 4.386 15.301 18.283 15.301 18.283s-.742-.41-1.948-1.08l1.948 1.08s-7.748-3.562-13.633-6.863c6.978 5.038 16.248 11.991 16.248 11.991s-1.872-.995-4.442-2.4a227.9 227.9 0 0 1 4.442 2.4s-8.321-3.715-13.882-6.98c-3.947-2.316-13.396-5.598-18.549-7.308Z" fill="#565656" fill-opacity=".3"/>
    <path fill-rule="evenodd" clip-rule="evenodd" d="M637.058 133.795h-.001v-.001l-.014-.016a20.657 20.657 0 0 0-.448-.498 52.168 52.168 0 0 0-1.683-1.721c-1.583-1.554-4.137-3.922-7.979-7.13-3.702-3.09-13.053-8.562-21.686-13.356a741.855 741.855 0 0 0-15.79-8.508l-.339-.177.921-1.775s4.767 2.477 11.008 5.871c9.524 5.18 22.48 12.497 27.166 16.409 7.758 6.476 10.379 9.619 10.379 9.619 3.407 2.345 6.413.745 7.973-1.521.55-.798 1.19-1.985 2.113-3.696 1.695-3.144 4.346-8.058 9.144-15.584.245-.385 1.974-2.443 4.335-5.205a1719.46 1719.46 0 0 1 6.413-7.446c5.005-5.785 9.866-11.36 9.866-11.36a377.606 377.606 0 0 1 1.506 1.316v.001l-.003.003-.846.97-2.247 2.583a4113.348 4113.348 0 0 0-6.878 7.927 1529.846 1529.846 0 0 0-7.036 8.178 311.832 311.832 0 0 0-2.436 2.886c-.308.371-.556.673-.736.899-.142.177-.213.272-.24.308-.012.016-.015.02-.011.013l-.001.003c-3.678 5.768-6.08 9.983-7.756 13.036-.457.832-.87 1.597-1.246 2.295-.959 1.778-1.68 3.115-2.295 4.008-.977 1.419-2.473 2.733-4.394 3.279-1.997.567-4.21.233-6.358-1.245a1.976 1.976 0 0 1-.4-.364l-.001-.001Zm23.645-28.666c3.317-3.173 6.487-6.253 6.848-6.775.785-1.134 10.885-10.653 10.885-10.653l1.506 1.315a2.002 2.002 0 0 0-.119-2.756 1.998 1.998 0 0 0-2.757-.015l1.37 1.456-1.37-1.456-.438.413-1.158 1.096c-.961.912-2.251 2.14-3.567 3.406a320.403 320.403 0 0 0-3.729 3.633 79.007 79.007 0 0 0-1.377 1.397c-.323.34-.685.73-.889 1.025.007-.01-.004.002-.037.038-.074.081-.259.284-.611.644-.444.454-1.045 1.051-1.755 1.746-.698.685-1.496 1.458-2.341 2.272 1.186-2.01 2.26-3.765 2.964-4.783 1.33-1.923 5.192-7.97 8.688-13.482a3450.387 3450.387 0 0 0 6.144-9.723l.552-.877-1.692-1.067 1.692 1.066a1.998 1.998 0 0 0-3.159-2.424l1.467 1.358-1.467-1.358-.001.001-.371.401-1.025 1.104c-.868.935-2.076 2.232-3.431 3.68-2.715 2.901-6.01 6.395-8.367 8.806-1.716 1.755-3.953 4.887-6.139 8.213.606-1.999 1.083-3.637 1.276-4.444.405-1.699 1.058-6.847 1.596-11.381a885.754 885.754 0 0 0 .922-8.108l.08-.733-1.987-.215 1.987.215a2 2 0 0 0-3.911-.76l1.924.545-1.924-.546-.001.003-.551 1.945-1.348 4.756c-1.063 3.745-2.35 8.272-3.248 11.409-.463 1.62-1.186 3.846-1.988 6.212-.176-2.979-.402-6.585-.637-10.107a722.738 722.738 0 0 0-.767-10.574c-.114-1.37-.218-2.49-.304-3.212a8.699 8.699 0 0 0-.151-.944 2.37 2.37 0 0 0-.125-.38 2.064 2.064 0 0 0-.267-.456 2.01 2.01 0 0 0-1.404-.775c-.987-.092-1.582.522-1.777.774-.2.26-.288.506-.317.591-.069.202-.095.38-.104.443-.101.726-.065 2.156-.007 3.672.041 1.062.099 2.298.161 3.6l.096 2.046c.19 4.187.323 8.311.074 10.12l-.658 4.773c-.559-3.323-1.292-7.7-2.023-12.06l-1.972-11.781-.891-5.323-1.971.33 1.971-.33a2 2 0 0 0-3.956.573l.007.059.022.18.079.685c.067.591.16 1.434.263 2.44.205 2.014.449 4.664.603 7.237.106 1.754.305 5.838.523 10.48l-4.642-18.823a1.999 1.999 0 0 0-3.914.797l3.728 23.171-.054-.128a1.999 1.999 0 0 0-3.769 1.309l1.318 4.816-20.128-27.137a1.998 1.998 0 0 0-3.353 2.163l6.376 11.505-.179-.169a44.89 44.89 0 0 0-1.219-1.12l-.014-.013a3.815 3.815 0 0 0-.548-.41 2.02 2.02 0 0 0-.932-.275c-.366-.016-1.248.075-1.789.94a2.009 2.009 0 0 0-.259 1.495c.078.356.242.613.263.647l.002.003c.052.083.101.15.131.191.334.447 3.232 4.385 6.648 9.03a2 2 0 0 0-.014 2.116l1.054 1.719a3244.057 3244.057 0 0 0-7.857-7.305c-3.32-3.077-6.6-6.11-9.05-8.374l-2.955-2.727-1.116-1.03-1.355 1.47 1.355-1.47a1.999 1.999 0 0 0-2.847 2.802l1.492-1.331-1.492 1.33.111.125.315.352a503.216 503.216 0 0 0 4.995 5.486c2.992 3.236 6.641 7.084 9.102 9.34 2.204 2.02 5.805 6.298 8.995 10.263l-2.7-1.508a898.073 898.073 0 0 1-7.318-4.133l-.163-.094c-.163-.11-.319-.216-.468-.315-.744-.496-1.484-.969-1.959-1.172a3.332 3.332 0 0 0-.189-.075l-.004-.001a2.228 2.228 0 0 0-.447-.112 2.03 2.03 0 0 0-1.126.167 2.004 2.004 0 0 0-.612 3.196c.078.084.149.145.185.176.191.161.476.336.643.439l.005.003c.407.251 1.051.628 1.85 1.088.479.326 1.022.703 1.617 1.12a211.56 211.56 0 0 0-4.384-1.601 301.835 301.835 0 0 0-8.814-2.96l-.141-.045-.049-.016-.6 1.909.599-1.909a2 2 0 0 0-1.52 3.684l.921-1.775s5.902 1.854 11.835 4.044c3.697 1.364 7.405 2.858 9.705 4.115.177.096.346.192.506.286 5.562 3.264 12.9 7.163 12.9 7.163s-3.236-2.427-7.324-5.453c-1.459-1.08-3.026-2.236-4.594-3.385l-.411-.302c-3.518-2.576-6.99-5.081-9.184-6.572 3.458 1.991 10.071 5.681 14.485 8.135l.788.438c2.16 1.2 3.625 2.011 3.625 2.011s-1.252-1.654-3.088-4.001c-1.862-2.379-4.324-5.471-6.692-8.273-2.066-2.445-4.061-4.67-5.521-6.01-4.785-4.386-14.382-15.158-14.382-15.158s7.981 7.36 15.302 14.154c2.147 1.993 4.237 3.937 6.052 5.633a501.582 501.582 0 0 1 4.974 4.688c.448.431.743.724.852.847 1.263 1.423 6.72 7.668 6.72 7.668l-10.918-17.79 11.853 13.973-5.638-7.67-5.127-6.972-.115-.157-.862-1.172a469.594 469.594 0 0 0-6.847-9.3c-.072-.097-.054-.102.041-.03.194.147.706.616 1.412 1.282a478.946 478.946 0 0 1 4.801 4.633 1383.6 1383.6 0 0 1 5.004 4.903l-12.943-23.354 26.473 35.691-4.13-15.091 6.489 15.311-6.349-39.453 9.504 38.538s-.202-4.555-.459-10.212c-.149-3.26-.315-6.888-.472-10.22-.215-4.586-.412-8.614-.517-10.362-.314-5.223-.985-10.724-.985-10.724l1.786 10.675 1.708 10.197a4706.282 4706.282 0 0 0 2.365 14.053c.02.107.048.3.081.558.265 2.045.89 8.184.89 8.184l2.665-19.332c.329-2.385.065-7.942-.154-12.548-.091-1.928-.175-3.689-.204-4.98-.02-.895-.013-1.564.034-1.908.018-.129.043-.12.075.01.057.244.136.907.229 1.882.336 3.523.861 11.12 1.276 17.717.081 1.285.157 2.533.228 3.705.147 2.455.266 4.578.337 6.023.053 1.086.079 1.79.069 1.966a37.293 37.293 0 0 1-1.108 6.485c-.081.273-.058.259.046.013v-.001c.12-.282.347-.867.65-1.67a349.186 349.186 0 0 0 1.727-4.72l.011-.032c.203-.565.41-1.149.621-1.743 1.37-3.874 2.844-8.213 3.622-10.932.5-1.745 1.119-3.918 1.753-6.148 1.648-5.795 3.397-11.97 3.397-11.97s-.716 6.651-1.432 12.37c-.424 3.386-.848 6.446-1.124 7.603-.378 1.588-1.98 6.766-3.456 11.453-1.416 4.493-2.717 8.535-2.717 8.535s1.961-3.457 4.55-7.701c3.158-5.177 7.251-11.525 9.86-14.193a498.884 498.884 0 0 0 5.93-6.209 1339.34 1339.34 0 0 0 7.303-7.824s-2.615 4.159-5.717 9.057c-3.744 5.91-8.196 12.897-9.619 14.954-1.429 2.067-4.231 6.899-6.466 10.837a655.733 655.733 0 0 0-3.29 5.863s2.186-2.057 4.881-4.616c.991-.941 2.05-1.95 3.094-2.949Zm-57.82-4.96c.184.107.38.221.589.34-.2-.135-.388-.262-.566-.38-.768-.51-1.322-.851-1.586-.964-.186-.08-.183-.056-.022.052.232.157.791.491 1.585.952Z" fill="#274430"/>
    <path d="M651.164 171.365s-1.422-3.838-6.574-12.535c-5.152-8.696-28.551-33.754-28.551-33.754s13.811 10.39 17.964 15.325c4.154 4.935 9.77 11.062 9.77 11.062s-14.892-22.396-16.616-23.983c-1.725-1.587 15.862 18.276 15.862 18.276s-5.276-16.613-8.323-22.346c-3.047-5.734-8.499-19.094-8.499-19.094s16.457 31.187 17.172 32.95c.715 1.762 3.776 9.472 3.776 9.472l-4.356-20.417 6.51 17.131s-8.66-28.646-9.09-30.03c-.431-1.384 7.012 13.929 7.012 13.929l-4.408-26.338 13.046 42.487 1.142-15.605 1.008 16.601 7.179-39.31-3.9 39.501s7.463-24.484 8.91-29.511c1.446-5.028 2.649-10.438 2.649-10.438s-5.979 33.92-6.129 34.879c-.151.958-2.002 8.565-2.002 8.565l8.962-17.333c1.889-3.652 5.237-16.612 6.18-18.428.942-1.817-7.84 29.01-8.357 30.245a37.274 37.274 0 0 1-3.208 5.743c-1.29 1.772 8.873-10.442 12.661-15.759 3.789-5.318 10.899-15.359 10.899-15.359s-7.336 15.29-9.073 17.974c-1.736 2.684-12.487 16.779-12.487 16.779s14.792-12.833 20.887-15.824c6.096-2.991 17.157-8.807 17.157-8.807s-18.76 14.833-22.468 17.51c-3.709 2.678-14.768 12.483-14.768 12.483s17.639-7.759 18.757-8.566c1.118-.806 13.815-6.405 13.815-6.405s-26.162 14.742-27.442 15.746c-10.862 8.479-14.818 12.799-17.044 14.413-2.227 1.615-5.594 2.119-8.023-1.229Z" fill="#92E3A9"/>
    <path fill-rule="evenodd" clip-rule="evenodd" d="M644.59 158.83c5.152 8.697 6.574 12.535 6.574 12.535 1.229 1.694 2.699 2.402 4.14 2.478 1.734.462 3.514-.11 4.87-1.094.785-.568 1.784-1.473 3.225-2.778 2.647-2.397 6.785-6.144 13.819-11.635 1.281-1.003 27.443-15.746 27.443-15.746s-2.891 1.274-6.035 2.695c2.989-1.691 5.047-2.85 5.047-2.85s-12.697 5.599-13.815 6.405c-.864.624-11.598 5.4-16.428 7.538 3.059-2.691 10.512-9.196 13.426-11.3 3.709-2.677 22.468-17.51 22.468-17.51s-1.413.743-3.507 1.835l2.52-1.99s-11.061 5.816-17.157 8.807c-4.338 2.129-13.083 9.245-17.763 13.169 3.228-4.256 9.106-12.045 10.351-13.969 1.736-2.683 9.073-17.973 9.073-17.973l-3.361 4.743c1.361-2.79 2.373-4.899 2.373-4.899s-7.11 10.041-10.899 15.359c-2.115 2.968-6.216 8.085-9.202 11.719.257-.51.503-1.026.736-1.548.518-1.234 9.3-32.061 8.357-30.245-.39.753-1.195 3.422-2.138 6.549-1.056 3.506-2.286 7.587-3.302 10.189 2.426-8.572 4.984-17.917 4.453-16.893-.391.753-1.195 3.422-2.138 6.549-1.331 4.414-2.936 9.741-4.042 11.879l-7.044 13.624c.486-2.039.995-4.217 1.071-4.701.15-.959 6.129-34.879 6.129-34.879s-1.202 5.41-2.649 10.438c-.127.442-.301 1.036-.512 1.75l2.174-12.343s-1.203 5.41-2.649 10.438c-1.038 3.606-5.172 17.225-7.426 24.636l3.403-34.471-2.183 11.954 1.196-12.109-6.445 35.29-.754-12.426-.535 7.302-.453-7.457-.961 13.133-12.239-39.86 1.126 6.729-2.114-6.884 3.932 23.494c-2.144-4.383-5.856-11.919-5.549-10.93.091.291.546 1.791 1.209 3.977-1.326-2.656-2.365-4.674-2.196-4.132.24.772 3.043 10.033 5.473 18.068l-1.905-5.014 1.188 5.57-2.176-5.725 3.284 15.392c-.719-1.804-1.42-3.561-1.717-4.292-.715-1.763-17.172-32.95-17.172-32.95s1.649 4.041 3.641 8.632c-2.632-5.004-4.628-8.787-4.628-8.787s5.452 13.36 8.499 19.094c2.486 4.679 6.458 16.605 7.834 20.832-2.971-3.363-9.659-10.945-12.807-14.621-.761-1.036-1.319-1.747-1.579-1.986-.413-.38.283.471 1.579 1.986.976 1.326 2.283 3.185 3.723 5.266a700.965 700.965 0 0 1-4.71-5.421c-.761-1.036-1.32-1.747-1.579-1.986-.414-.38.282.471 1.579 1.986 3.016 4.103 9.217 13.299 12.638 18.406-1.914-2.139-4.328-4.873-6.383-7.316-4.154-4.935-17.964-15.325-17.964-15.325s.718.769 1.93 2.084c-1.754-1.363-2.918-2.239-2.918-2.239s23.399 25.058 28.551 33.754Zm-25.633-31.515c5.708 6.194 22.371 24.498 26.62 31.671 5.152 8.696 6.574 12.534 6.574 12.534.949 1.308 2.042 2.028 3.153 2.323 1.406.075 2.783-.451 3.883-1.249.784-.569 1.784-1.473 3.224-2.778 2.648-2.397 6.786-6.144 13.82-11.635.921-.722 14.725-8.558 22.395-12.896-3.446 1.557-7.196 3.289-7.78 3.71-1.118.807-18.758 8.566-18.758 8.566s.508-.45 1.342-1.183c-1.419.628-2.329 1.028-2.329 1.028s11.059-9.805 14.768-12.483c2.864-2.068 14.703-11.384 19.948-15.52-3.766 1.962-9.733 5.05-13.649 6.972-6.095 2.991-20.888 15.824-20.888 15.824s.862-1.129 2.137-2.81c-1.896 1.589-3.124 2.655-3.124 2.655s10.751-14.095 12.487-16.779c1.092-1.687 4.396-8.355 6.7-13.075a6696.123 6696.123 0 0 1-7.538 10.615c-3.789 5.317-13.951 17.531-12.662 15.759a37.081 37.081 0 0 0 2.472-4.195c-2.364 2.876-4.029 4.823-3.459 4.04a37.274 37.274 0 0 0 3.208-5.743c.226-.539 2.026-6.714 3.904-13.352a18.39 18.39 0 0 1-.739 1.69l-8.962 17.333s.454-1.865.93-3.864l-1.918 3.709s1.851-7.607 2.002-8.565c.089-.569 2.228-12.732 3.955-22.536-2.19 7.398-8.397 27.761-8.397 27.761l.496-5.03-1.484 4.875 2.704-27.392-4.995 27.356-.254-4.175-.734 4.02-.555-9.144-.608 8.303-.806-2.627-.181 2.472-10.932-35.603 3.282 19.609s-.607-1.248-1.464-2.999l.476 2.844s-2.755-5.669-4.816-9.797c2.484 8.198 7.882 26.053 7.882 26.053l-4.605-12.117 3.617 11.962-4.334-11.406 3.167 14.847s-1.047-2.638-2.059-5.18l1.072 5.025s-3.061-7.71-3.776-9.472c-.466-1.149-7.619-14.796-12.544-24.163 1.629 3.757 3.487 7.882 4.858 10.462 3.047 5.733 8.323 22.346 8.323 22.346l-1.476-1.669c.31.952.489 1.514.489 1.514s-5.127-5.791-9.573-10.869c4.897 7.08 11.314 16.731 11.314 16.731s-1.433-1.563-3.386-3.746c1.448 2.162 2.399 3.591 2.399 3.591s-5.616-6.127-9.77-11.062c-2.947-3.502-10.758-9.752-15.046-13.086Z" fill="#fff" fill-opacity=".3"/>
    <path fill-rule="evenodd" clip-rule="evenodd" d="M643.603 158.675c5.152 8.697 6.573 12.535 6.573 12.535 1.23 1.694 2.7 2.402 4.141 2.478 1.733.461 3.513-.11 4.87-1.094.784-.569 1.784-1.473 3.225-2.778 2.647-2.397 6.785-6.144 13.819-11.635 1.281-1.004 27.442-15.746 27.442-15.746s-2.89 1.274-6.035 2.695c2.99-1.691 5.048-2.85 5.048-2.85s-12.697 5.599-13.815 6.405c-.864.624-11.598 5.4-16.429 7.538 3.06-2.691 10.513-9.196 13.427-11.3 3.709-2.677 22.468-17.51 22.468-17.51s-1.413.743-3.508 1.835c1.547-1.22 2.52-1.99 2.52-1.99s-11.061 5.816-17.156 8.807c-4.338 2.129-13.083 9.245-17.764 13.169 3.229-4.256 9.107-12.045 10.351-13.969 1.737-2.683 9.073-17.974 9.073-17.974l-3.36 4.743c1.361-2.789 2.373-4.898 2.373-4.898s-7.11 10.041-10.899 15.359c-2.115 2.968-6.216 8.085-9.202 11.719.257-.51.502-1.026.736-1.548.518-1.234 9.3-32.061 8.357-30.245-.391.753-1.195 3.422-2.138 6.549-1.057 3.506-2.287 7.587-3.302 10.189 2.426-8.572 4.984-17.917 4.453-16.893-.391.753-1.196 3.422-2.138 6.549-1.331 4.414-2.937 9.741-4.042 11.879l-7.044 13.624c.486-2.039.995-4.217 1.071-4.701.15-.959 6.129-34.879 6.129-34.879s-1.203 5.41-2.649 10.438c-.127.442-.301 1.036-.513 1.75l2.175-12.343s-1.203 5.41-2.65 10.438c-1.037 3.606-5.171 17.225-7.425 24.636l3.403-34.471-2.183 11.954 1.196-12.109-6.445 35.29-.755-12.426-.534 7.302-.453-7.457-.962 13.133-12.239-39.86 1.126 6.729-2.113-6.884 3.932 23.494c-2.145-4.384-5.857-11.919-5.549-10.93.091.291.546 1.791 1.208 3.977-1.326-2.656-2.364-4.674-2.195-4.132.24.772 4.571 13 7.001 21.035l-3.434-7.981 1.189 5.57-2.176-5.725 3.283 15.392a881.141 881.141 0 0 0-1.716-4.292c-.715-1.763-17.172-32.95-17.172-32.95s1.649 4.041 3.64 8.632c-2.632-5.004-4.628-8.787-4.628-8.787s5.453 13.36 8.5 19.094c2.486 4.679 6.458 16.605 7.834 20.832-2.972-3.363-9.66-10.945-12.807-14.621-.761-1.036-1.32-1.747-1.579-1.986-.413-.38.282.471 1.579 1.986a241.199 241.199 0 0 1 3.722 5.266 720.354 720.354 0 0 1-4.709-5.421c-.762-1.036-1.32-1.747-1.58-1.986-.413-.38.283.471 1.58 1.986 3.016 4.103 9.216 13.299 12.638 18.406-1.914-2.139-4.328-4.873-6.383-7.316-4.154-4.935-17.965-15.325-17.965-15.325s.719.769 1.931 2.084c-1.754-1.363-2.918-2.239-2.918-2.239s23.399 25.058 28.551 33.754ZM617.97 127.16c5.708 6.194 22.371 24.498 26.62 31.671 5.152 8.696 6.574 12.534 6.574 12.534.949 1.308 2.041 2.028 3.153 2.323 1.405.075 2.783-.451 3.882-1.249.785-.569 1.784-1.474 3.225-2.778 2.648-2.397 6.785-6.144 13.819-11.635.922-.722 14.725-8.558 22.395-12.896-3.445 1.557-7.195 3.289-7.779 3.71-1.119.807-18.758 8.566-18.758 8.566s.508-.45 1.341-1.183l-1.341 1.183s10.072-9.96 13.781-12.638c2.864-2.068 14.703-11.384 19.947-15.52-3.765 1.962-9.732 5.05-13.648 6.972-6.095 2.991-20.888 15.824-20.888 15.824s.861-1.129 2.136-2.81l-2.136 2.81s9.764-14.25 11.5-16.934c1.091-1.687 4.396-8.355 6.7-13.076a6281.612 6281.612 0 0 1-7.538 10.616c-3.789 5.317-13.952 17.531-12.662 15.759a37.231 37.231 0 0 0 2.472-4.195c-.864 2.199-3.042 4.978-2.472 4.195 1.237-1.815 1.323-3.892 2.22-5.898.226-.539 2.026-6.714 3.905-13.352a18.39 18.39 0 0 1-.739 1.69l-8.962 17.333s.453-1.865.93-3.864l-.93 3.864s.863-7.762 1.013-8.72c.089-.569 2.229-12.732 3.955-22.536-2.189 7.398-8.397 27.761-8.397 27.761l1.717-27.547-4.995 27.356-1.543-9.299-.608 8.303-11.92-35.758 3.282 19.609s-.606-1.248-1.463-2.999l1.463 2.999s-3.743-5.824-5.804-9.952c2.485 8.198 7.882 26.053 7.882 26.053l-3.076-9.15c1.926 6.365 3.076 9.15 3.076 9.15l-5.321-11.561 3.167 14.847s-1.047-2.638-2.06-5.18l2.06 5.18s-4.048-7.865-4.763-9.627c-.466-1.149-7.619-14.796-12.545-24.163 1.63 3.757 3.488 7.882 4.859 10.462 3.047 5.733 8.323 22.346 8.323 22.346l-1.476-1.669 1.476 1.669s-6.115-5.946-10.561-11.024c4.897 7.08 11.315 16.731 11.315 16.731s-1.433-1.563-3.386-3.746c1.487 1.595 3.386 3.746 3.386 3.746s-6.604-6.282-10.757-11.217c-2.948-3.502-10.759-9.752-15.046-13.086Z" fill="#565656" fill-opacity=".3"/>
    <path fill-rule="evenodd" clip-rule="evenodd" d="m649.29 172.062-.001-.001v-.001l-.008-.02-.044-.112a18.099 18.099 0 0 0-.212-.506c-.2-.466-.526-1.188-1.012-2.185-.974-1.993-2.591-5.08-5.143-9.386-2.458-4.15-9.447-12.432-15.985-19.834a738.015 738.015 0 0 0-11.297-12.488l-.748-.807-.261-.28 1.46-1.366s3.668 3.927 8.418 9.212c7.249 8.064 17.021 19.289 20.133 24.543 5.152 8.696 6.574 12.534 6.574 12.534 2.429 3.348 5.796 2.844 8.023 1.229.784-.568 1.784-1.473 3.224-2.778 2.648-2.397 6.786-6.144 13.82-11.635.359-.281 2.675-1.644 5.823-3.458 2.506-1.445 5.538-3.176 8.529-4.877 6.647-3.781 13.09-7.411 13.09-7.411l.981 1.743h-.001l-.004.002-1.12.633a3676.142 3676.142 0 0 0-12.109 6.858 1597.741 1597.741 0 0 0-9.36 5.358c-1.314.76-2.433 1.414-3.26 1.906a66.89 66.89 0 0 0-.994.602c-.192.12-.291.186-.328.21-.017.011-.021.014-.015.009l-.003.002c-5.391 4.209-9.061 7.38-11.659 9.697-.709.633-1.353 1.216-1.94 1.748-1.498 1.355-2.623 2.375-3.501 3.011-1.394 1.011-3.243 1.75-5.236 1.623-2.072-.132-4.047-1.187-5.578-3.297a1.977 1.977 0 0 1-.256-.477v-.001Zm31.853-19.123c4.184-1.883 8.201-3.727 8.715-4.099 1.118-.806 13.815-6.405 13.815-6.405l.981 1.743a2.002 2.002 0 0 0 .807-2.639 1.999 1.999 0 0 0-2.594-.935l.806 1.831-.806-1.831-.551.244-1.457.646c-1.21.539-2.836 1.266-4.498 2.019a317.315 317.315 0 0 0-4.728 2.178c-.68.323-1.286.616-1.764.858-.418.212-.889.459-1.18.669.01-.007-.004 0-.048.024-.096.051-.338.18-.79.402-.57.28-1.336.642-2.237 1.06-.887.412-1.896.874-2.964 1.359 1.788-1.497 3.386-2.793 4.389-3.518 1.895-1.368 7.553-5.779 12.688-9.807 2.578-2.022 5.04-3.961 6.858-5.394l2.177-1.718.813-.642c0-.001.001-.001-1.238-1.571l1.239 1.57a2.002 2.002 0 0 0-2.169-3.341l.93 1.771-.93-1.771-.002.001-.484.254-1.334.699c-1.13.591-2.701 1.41-4.462 2.323-3.527 1.827-7.799 4.02-10.825 5.505-2.202 1.081-5.357 3.286-8.527 5.691 1.238-1.682 2.235-3.066 2.685-3.763.949-1.466 3.283-6.1 5.302-10.195a837.352 837.352 0 0 0 3.575-7.334l.32-.665-1.802-.866 1.802.866a2.002 2.002 0 0 0-.788-2.59 1.997 1.997 0 0 0-2.645.567l1.631 1.157-1.631-1.157-.002.002-1.168 1.65-2.858 4.032a6488.043 6488.043 0 0 1-6.867 9.67c-.978 1.372-2.402 3.229-3.948 5.192a1342.08 1342.08 0 0 0 2.773-9.741 719.432 719.432 0 0 0 2.804-10.224c.35-1.328.625-2.419.785-3.129a8.53 8.53 0 0 0 .173-.94 2.35 2.35 0 0 0 .009-.4 2.017 2.017 0 0 0-1.165-1.718c-.899-.417-1.665-.037-1.932.135a2.05 2.05 0 0 0-.497.452 2.292 2.292 0 0 0-.245.383c-.338.65-.781 2.01-1.232 3.458-.316 1.015-.674 2.2-1.05 3.448l-.592 1.96c-1.217 4.01-2.468 7.943-3.307 9.565l-2.213 4.279a31399.46 31399.46 0 0 1 4.189-23.808l.937-5.315-1.969-.348 1.969.348a2 2 0 0 0-3.921-.782l-.013.058-.039.177a218.798 218.798 0 0 1-.721 3.06 181.123 181.123 0 0 1-1.845 7.024c-.486 1.689-1.661 5.605-3.004 10.054l1.904-19.295a1.999 1.999 0 0 0-3.956-.556l-4.216 23.087-.008-.139a2 2 0 0 0-3.99-.025l-.364 4.98-9.919-32.303a1.999 1.999 0 0 0-3.883.918l2.172 12.975a45.457 45.457 0 0 0-.897-1.699c-.058-.103-.207-.368-.38-.569a2.042 2.042 0 0 0-.786-.571c-.339-.137-1.201-.347-2 .288a2.01 2.01 0 0 0-.743 1.323c-.045.361.024.659.033.698v.003c.021.096.045.176.06.225.166.532 1.583 5.212 3.253 10.731a2.002 2.002 0 0 0-.719 1.991l.421 1.972a3148.546 3148.546 0 0 0-4.97-9.51 8150.058 8150.058 0 0 0-7.612-14.475l-.708-1.344-1.768.934 1.768-.934a2 2 0 0 0-3.619 1.69l1.851-.756-1.851.756.063.155.179.436a499.931 499.931 0 0 0 2.879 6.84c1.741 4.05 3.896 8.896 5.464 11.846 1.403 2.64 3.37 7.875 5.054 12.678-.673-.765-1.36-1.547-2.041-2.324a875.164 875.164 0 0 1-5.52-6.34l-.122-.143c-.117-.158-.229-.31-.337-.453-.535-.716-1.075-1.409-1.455-1.759a3.825 3.825 0 0 0-.156-.137c-.032-.026-.182-.149-.384-.254a2.009 2.009 0 0 0-1.118-.219 2 2 0 0 0-1.813 2.027c.006.412.142.719.168.776l.002.006c.046.105.092.186.116.227.126.216.336.476.459.628l.004.005c.301.372.782.943 1.381 1.644.343.467.73 1.003 1.151 1.596a207.272 207.272 0 0 0-3.599-2.974 299.139 299.139 0 0 0-6.87-5.393l-.45-.342-.118-.089-.041-.031c-.001 0-.001-.001-1.203 1.598l1.202-1.599a1.999 1.999 0 0 0-2.662 2.965l1.46-1.366s4.945 3.72 9.807 7.766c3.029 2.521 6.027 5.168 7.776 7.12.134.151.262.297.381.439 4.154 4.935 9.77 11.062 9.77 11.062s-2.241-3.369-5.084-7.587a1322.766 1322.766 0 0 0-3.201-4.726l-.287-.421c-2.457-3.604-4.893-7.125-6.465-9.263 2.595 3.031 7.599 8.719 10.94 12.506l.597.677c1.635 1.853 2.746 3.107 2.746 3.107s-.628-1.978-1.576-4.804c-.961-2.864-2.251-6.601-3.548-10.033-1.132-2.996-2.269-5.759-3.199-7.509-3.047-5.734-8.499-19.094-8.499-19.094s5.068 9.604 9.701 18.454c1.359 2.596 2.681 5.127 3.826 7.332a539.51 539.51 0 0 1 3.125 6.08c.277.557.458.931.52 1.084.715 1.762 3.776 9.472 3.776 9.472l-4.356-20.417 6.51 17.131-2.755-9.112-2.506-8.286-.057-.186-.421-1.393a11.13 11.13 0 0 1-.052-.171c-1.124-3.713-2.138-7.064-2.741-9.05a918.29 918.29 0 0 0-.558-1.832c-.036-.116-.017-.115.048-.015.134.203.46.817.903 1.68a477.787 477.787 0 0 1 2.981 5.971 1656.953 1656.953 0 0 1 3.08 6.293l-4.408-26.338 13.046 42.487 1.142-15.605 1.008 16.601 7.179-39.31-3.9 39.501s1.329-4.36 2.974-9.779c.949-3.123 2.002-6.598 2.966-9.792 1.327-4.395 2.486-8.257 2.97-9.94 1.446-5.028 2.649-10.438 2.649-10.438l-1.878 10.66-1.792 10.182a4457.898 4457.898 0 0 0-2.459 14.037c-.017.107-.056.299-.11.553-.433 2.016-1.892 8.012-1.892 8.012l8.962-17.333c1.106-2.138 2.711-7.465 4.042-11.879.557-1.848 1.066-3.536 1.469-4.763.28-.849.509-1.478.669-1.786.06-.116.081-.099.066.034-.026.248-.173.9-.411 1.85-.859 3.433-2.899 10.77-4.709 17.127-.352 1.238-.696 2.44-1.021 3.568a587.784 587.784 0 0 1-1.692 5.791c-.312 1.041-.522 1.713-.59 1.875a37.343 37.343 0 0 1-3.208 5.744c-.168.23-.142.224.038.027l.001-.001a52.83 52.83 0 0 0 1.169-1.357 329.913 329.913 0 0 0 3.225-3.899c.379-.465.77-.945 1.166-1.436 2.584-3.194 5.421-6.791 7.062-9.094a3408.02 3408.02 0 0 0 3.703-5.209c3.488-4.913 7.196-10.149 7.196-10.149s-2.894 6.03-5.476 11.181c-1.53 3.051-2.951 5.794-3.597 6.792-.886 1.371-4.123 5.716-7.079 9.641-2.833 3.762-5.408 7.138-5.408 7.138s3.002-2.604 6.858-5.739c4.704-3.825 10.68-8.441 14.029-10.085a497.209 497.209 0 0 0 7.661-3.871c4.9-2.519 9.496-4.936 9.496-4.936s-3.853 3.047-8.412 6.627c-5.5 4.321-12.028 9.419-14.056 10.883-2.037 1.471-6.29 5.09-9.711 8.055a673.428 673.428 0 0 0-5.057 4.428s2.747-1.208 6.141-2.721c1.248-.556 2.583-1.153 3.901-1.746Zm-52.849-23.991.442.518a68.401 68.401 0 0 0-.406-.547c-.554-.739-.962-1.245-1.173-1.439-.149-.137-.154-.114-.039.042.166.225.582.727 1.176 1.426Z" fill="#274430"/>
    <path d="M669.33 231.389s-1.999-3.57-8.436-11.362c-6.438-7.792-33.437-28.916-33.437-28.916s15.254 8.121 20.122 12.352 11.365 9.412 11.365 9.412-18.182-19.814-20.132-21.114c-1.949-1.3 18.503 15.593 18.503 15.593s-7.787-15.593-11.685-20.784c-3.899-5.191-11.356-17.544-11.356-17.544s21.092 28.256 22.071 29.886c.98 1.631 5.198 8.772 5.198 8.772l-7.467-19.494 9.087 15.914s-12.995-26.956-13.635-28.257c-.64-1.3 9.086 12.673 9.086 12.673l-8.436-25.335 19.472 39.948-1.289-15.593 3.568 16.243 1-39.948 2.269 39.628s3.578-25.345 4.228-30.536c.65-5.191 1-10.722 1-10.722s-.65 34.437-.65 35.407c0 .97-.65 8.772-.65 8.772l6.168-18.514c1.299-3.901 2.599-17.224 3.248-19.164.65-1.94-3.248 29.876-3.568 31.177a37.352 37.352 0 0 1-2.279 6.171c-1 1.95 7.147-11.693 10.066-17.534a8633.263 8633.263 0 0 0 8.386-16.863s-4.878 16.243-6.177 19.164c-1.3 2.92-9.736 18.514-9.736 18.514s12.625-14.974 18.182-18.874C708.974 186.56 719 179.098 719 179.098s-16.233 17.564-19.482 20.785c-3.249 3.22-12.655 14.623-12.655 14.623s16.224-10.402 17.203-11.373c.98-.97 12.655-8.471 12.655-8.471s-23.56 18.623-24.67 19.814c-9.416 10.062-12.655 14.943-14.604 16.883-1.949 1.941-5.198 2.961-8.117.03Z" fill="#92E3A9"/>
    <path fill-rule="evenodd" clip-rule="evenodd" d="M660.894 220.027c6.437 7.792 8.436 11.362 8.436 11.362 1.478 1.484 3.04 1.955 4.475 1.807 1.784.186 3.454-.654 4.641-1.837.687-.683 1.534-1.732 2.756-3.245 2.244-2.779 5.751-7.122 11.849-13.638 1.109-1.191 24.67-19.814 24.67-19.814s-2.658 1.707-5.544 3.599c2.691-2.135 4.544-3.599 4.544-3.599s-11.675 7.501-12.655 8.471c-.757.75-10.621 7.135-15.062 9.996 2.606-3.133 8.961-10.716 11.514-13.246 3.248-3.221 19.482-20.785 19.482-20.785s-1.281.953-3.181 2.357l2.181-2.357s-10.026 7.462-15.584 11.363c-3.956 2.776-11.492 11.163-15.508 15.766 2.53-4.705 7.13-13.312 8.061-15.406 1.3-2.921 6.178-19.164 6.178-19.164l-2.585 5.207c.912-2.967 1.585-5.207 1.585-5.207s-5.467 11.022-8.386 16.863c-1.63 3.261-4.888 8.953-7.275 13.006.175-.544.337-1.092.487-1.643.32-1.301 4.219-33.117 3.569-31.177-.269.805-.651 3.566-1.097 6.802-.501 3.627-1.083 7.85-1.683 10.578 1.068-8.845 2.147-18.474 1.78-17.38-.269.805-.65 3.566-1.097 6.802-.63 4.567-1.391 10.079-2.151 12.362l-4.848 14.552c.164-2.089.33-4.32.33-4.81 0-.97.649-35.407.649-35.407s-.35 5.531-.999 10.722c-.058.457-.137 1.07-.236 1.808l.236-12.53s-.35 5.531-1 10.722c-.466 3.724-2.439 17.82-3.518 25.49l-1.98-34.582-.304 12.148-.695-12.148-.898 35.864-2.671-12.159.604 7.297-1.603-7.297 1.085 13.124-18.269-37.479 2.156 6.472-3.155-6.472 7.525 22.599c-2.798-3.997-7.632-10.866-7.175-9.937.134.274.817 1.685 1.81 3.742-1.722-2.418-3.06-4.251-2.81-3.742.357.726 4.561 9.44 8.207 17.001l-2.659-4.658 2.037 5.319-3.037-5.319 5.629 14.696a963.302 963.302 0 0 0-2.36-3.974c-.98-1.63-22.071-29.886-22.071-29.886s2.255 3.736 4.934 7.963c-3.376-4.536-5.934-7.963-5.934-7.963s7.457 12.353 11.356 17.544c3.181 4.236 8.953 15.402 10.968 19.364-3.457-2.861-11.239-9.313-14.918-12.456-.912-.905-1.574-1.521-1.868-1.717-.467-.312.352.421 1.868 1.717a242.188 242.188 0 0 1 4.493 4.624 713.085 713.085 0 0 1-5.492-4.624c-.913-.905-1.575-1.521-1.869-1.717-.467-.312.353.421 1.869 1.717 3.615 3.585 11.166 11.708 15.337 16.222-2.222-1.816-5.03-4.143-7.439-6.237-4.869-4.231-20.122-12.352-20.122-12.352s.828.648 2.23 1.76c-1.944-1.076-3.23-1.76-3.23-1.76s26.999 21.124 33.437 28.916Zm-30.207-27.156c6.599 5.232 25.897 20.729 31.206 27.156 6.438 7.792 8.437 11.362 8.437 11.362 1.14 1.145 2.331 1.687 3.475 1.807 1.4-.145 2.679-.878 3.642-1.837.687-.683 1.534-1.732 2.755-3.245 2.244-2.779 5.751-7.122 11.849-13.638.798-.857 13.221-10.739 20.126-16.215-3.163 2.072-6.599 4.365-7.111 4.872-.98.971-17.203 11.373-17.203 11.373s.431-.523 1.141-1.377c-1.304.84-2.141 1.377-2.141 1.377s9.406-11.403 12.655-14.623c2.509-2.487 12.761-13.528 17.301-18.428-3.416 2.522-8.832 6.499-12.403 9.006-5.558 3.9-18.183 18.874-18.183 18.874s.676-1.25 1.675-3.108c-1.626 1.864-2.674 3.108-2.674 3.108s8.436-15.594 9.736-18.514c.817-1.836 3.048-8.936 4.592-13.957-1.815 3.653-4.195 8.44-5.802 11.656-2.919 5.841-11.065 19.484-10.066 17.534a37.249 37.249 0 0 0 1.792-4.528c-1.889 3.208-3.233 5.39-2.791 4.528a37.352 37.352 0 0 0 2.279-6.171c.139-.568.961-6.947 1.788-13.797a18.376 18.376 0 0 1-.469 1.784l-6.167 18.514s.159-1.913.32-3.962l-1.32 3.962s.65-7.802.65-8.772c0-.575.228-12.923.414-22.877-1.016 7.648-3.993 28.728-3.993 28.728l-.289-5.046c-.424 3.022-.71 5.046-.71 5.046l-1.574-27.48-.695 27.8-.898-4.084-.102 4.084-1.965-8.946.686 8.296-1.204-2.469.204 2.469-16.317-33.476 6.281 18.863s-.793-1.139-1.911-2.736l.911 2.736s-3.6-5.173-6.276-8.931c3.725 7.714 11.824 24.515 11.824 24.515l-6.427-11.256 5.428 11.256-6.05-10.595 5.43 14.175s-1.443-2.443-2.838-4.798l1.838 4.798s-4.218-7.141-5.198-8.772c-.638-1.062-9.819-13.434-16.137-21.923 2.192 3.458 4.667 7.245 6.421 9.581 3.899 5.191 11.686 20.784 11.686 20.784l-1.717-1.42c.454.893.717 1.42.717 1.42s-5.962-4.925-11.142-9.252c5.935 6.235 13.771 14.773 13.771 14.773s-1.658-1.321-3.926-3.175c1.766 1.911 2.926 3.175 2.926 3.175s-6.497-5.181-11.365-9.412c-3.455-3.002-12.14-7.964-16.892-10.592Z" fill="#fff" fill-opacity=".3"/>
    <path fill-rule="evenodd" clip-rule="evenodd" d="M659.894 220.027c6.437 7.792 8.437 11.362 8.437 11.362 1.477 1.484 3.039 1.955 4.474 1.807 1.784.186 3.454-.654 4.642-1.837.687-.683 1.534-1.732 2.755-3.245 2.244-2.779 5.751-7.122 11.849-13.638 1.11-1.191 24.67-19.814 24.67-19.814s-2.658 1.707-5.544 3.599c2.691-2.135 4.545-3.599 4.545-3.599s-11.676 7.501-12.655 8.471c-.758.75-10.621 7.135-15.062 9.996 2.605-3.133 8.96-10.716 11.513-13.246 3.249-3.221 19.482-20.785 19.482-20.785s-1.281.953-3.181 2.357l2.182-2.357s-10.026 7.462-15.584 11.363c-3.956 2.776-11.493 11.163-15.508 15.766 2.529-4.705 7.129-13.312 8.061-15.406 1.299-2.921 6.177-19.164 6.177-19.164l-2.585 5.207c.913-2.967 1.586-5.207 1.586-5.207s-5.468 11.022-8.387 16.863c-1.629 3.261-4.887 8.953-7.275 13.006.175-.544.338-1.092.488-1.643.32-1.301 4.218-33.117 3.568-31.177-.269.805-.65 3.566-1.097 6.802-.5 3.627-1.083 7.85-1.683 10.578 1.069-8.845 2.147-18.474 1.781-17.38-.27.805-.651 3.566-1.097 6.802-.631 4.567-1.391 10.079-2.152 12.362l-4.848 14.552c.164-2.089.33-4.32.33-4.81 0-.97.65-35.407.65-35.407s-.35 5.531-1 10.722c-.057.457-.137 1.07-.235 1.808l.235-12.53s-.35 5.531-.999 10.722c-.467 3.724-2.44 17.82-3.518 25.49l-1.98-34.582-.304 12.148-.696-12.148-.897 35.864-2.671-12.159.603 7.297-1.603-7.297 1.085 13.124-18.268-37.479 2.155 6.472-3.155-6.472 7.526 22.599c-2.798-3.997-7.633-10.866-7.176-9.937.135.274.817 1.685 1.81 3.742-1.721-2.418-3.06-4.251-2.809-3.742.357.726 6.53 12.134 10.177 19.695l-4.63-7.352 2.038 5.319-3.037-5.319 5.629 14.696a935.429 935.429 0 0 0-2.361-3.974c-.979-1.63-22.071-29.886-22.071-29.886s2.256 3.736 4.935 7.963c-3.376-4.536-5.934-7.963-5.934-7.963s7.457 12.353 11.355 17.544c3.182 4.236 8.954 15.402 10.968 19.364-3.456-2.861-11.238-9.313-14.917-12.456-.913-.905-1.575-1.521-1.868-1.717-.468-.312.352.421 1.868 1.717a245.292 245.292 0 0 1 4.493 4.624 696.84 696.84 0 0 1-5.493-4.624c-.913-.905-1.574-1.521-1.868-1.717-.467-.312.352.421 1.868 1.717 3.616 3.585 11.166 11.708 15.338 16.222-2.223-1.816-5.031-4.143-7.44-6.237-4.868-4.231-20.122-12.352-20.122-12.352s.829.648 2.23 1.76c-1.944-1.076-3.229-1.76-3.229-1.76s26.999 21.124 33.436 28.916Zm-30.207-27.156c6.599 5.232 25.897 20.729 31.207 27.156 6.437 7.792 8.436 11.362 8.436 11.362 1.141 1.145 2.331 1.687 3.475 1.807 1.4-.145 2.68-.878 3.642-1.837.687-.683 1.534-1.732 2.755-3.245 2.244-2.779 5.752-7.122 11.849-13.638.799-.857 13.221-10.739 20.126-16.215-3.162 2.072-6.599 4.365-7.111 4.872-.979.971-17.203 11.373-17.203 11.373s.432-.523 1.142-1.377l-1.142 1.377s8.407-11.403 11.655-14.623c2.509-2.487 12.761-13.528 17.301-18.428-3.415 2.522-8.831 6.499-12.403 9.006-5.557 3.9-18.182 18.874-18.182 18.874s.676-1.25 1.675-3.108l-1.675 3.108s7.437-15.594 8.736-18.514c.817-1.836 3.048-8.936 4.592-13.957-1.814 3.653-4.194 8.44-5.801 11.656-2.919 5.841-11.066 19.484-10.066 17.534a37.243 37.243 0 0 0 1.791-4.528c-.512 2.306-2.233 5.39-1.791 4.528.94-1.986.703-4.051 1.279-6.171.14-.568.961-6.947 1.788-13.797a18.407 18.407 0 0 1-.468 1.784l-6.168 18.514s.16-1.913.32-3.962l-.32 3.962s-.35-7.802-.35-8.772c0-.575.229-12.923.415-22.877-1.017 7.648-3.993 28.728-3.993 28.728l-2.573-27.48-.696 27.8-2.965-8.946.686 8.296-17.317-33.476 6.282 18.863s-.793-1.139-1.911-2.736l1.911 2.736s-4.601-5.173-7.277-8.931a63261.07 63261.07 0 0 1 11.825 24.515l-4.457-8.562c2.888 5.989 4.457 8.562 4.457 8.562l-7.049-10.595 5.429 14.175s-1.443-2.443-2.837-4.798l2.837 4.798s-5.218-7.141-6.197-8.772c-.639-1.062-9.82-13.434-16.137-21.923 2.191 3.458 4.666 7.245 6.421 9.581 3.898 5.191 11.685 20.784 11.685 20.784l-1.717-1.42 1.717 1.42s-6.962-4.925-12.141-9.252c5.935 6.235 13.77 14.773 13.77 14.773s-1.657-1.321-3.925-3.175a226.93 226.93 0 0 1 3.925 3.175s-7.497-5.181-12.365-9.412c-3.454-3.002-12.14-7.964-16.892-10.592Z" fill="#565656" fill-opacity=".3"/>
    <path fill-rule="evenodd" clip-rule="evenodd" d="M667.587 232.369v-.001l-.001-.001-.01-.018a28.477 28.477 0 0 0-.349-.572 52.013 52.013 0 0 0-1.339-2.001c-1.271-1.818-3.347-4.616-6.535-8.475-3.071-3.717-11.26-10.815-18.866-17.113a740.402 740.402 0 0 0-13.96-11.265l-.301-.236 1.231-1.576s4.232 3.311 9.744 7.794c8.411 6.842 19.804 16.415 23.693 21.122 6.437 7.792 8.436 11.362 8.436 11.362 2.919 2.931 6.168 1.911 8.117-.03.687-.684 1.534-1.733 2.755-3.245 2.244-2.779 5.751-7.122 11.849-13.638.311-.334 2.389-2.039 5.217-4.321 2.252-1.816 4.979-3.996 7.67-6.141a4459.722 4459.722 0 0 1 11.783-9.353l1.239 1.57-.001.001-.003.003-1.009.798a4352.523 4352.523 0 0 0-10.899 8.654 1589.797 1589.797 0 0 0-8.417 6.746c-1.18.955-2.184 1.774-2.924 2.389-.371.308-.67.56-.889.749-.172.148-.259.228-.292.258l-.013.012-.002.002c-4.674 4.994-7.809 8.696-10.016 11.389-.603.734-1.149 1.411-1.646 2.027-1.269 1.572-2.223 2.753-2.992 3.518-1.221 1.216-2.932 2.232-4.921 2.416-2.067.191-4.182-.544-6.022-2.392a2.02 2.02 0 0 1-.326-.431l-.001-.001Zm28.504-23.834c3.843-2.509 7.524-4.955 7.975-5.402.98-.97 12.655-8.472 12.655-8.472l1.239 1.57a2 2 0 0 0-2.319-3.253l1.08 1.683-1.08-1.683-.506.326-1.339.865a852.88 852.88 0 0 0-4.132 2.692c-1.523 1-3.086 2.036-4.332 2.886-.623.424-1.176.808-1.61 1.121-.38.275-.807.591-1.062.844a23.234 23.234 0 0 1-.762.551c-.52.365-1.22.842-2.045 1.394-.813.545-1.739 1.158-2.718 1.803 1.534-1.757 2.912-3.285 3.79-4.156 1.661-1.646 6.567-6.882 11.015-11.658a3212.281 3212.281 0 0 0 7.823-8.428l.704-.761s.001-.001-1.467-1.359l1.468 1.358a2 2 0 0 0-2.661-2.963l1.193 1.605-1.193-1.605-.001.001-.439.326-1.209.897c-1.026.76-2.451 1.813-4.049 2.987-3.201 2.353-7.081 5.182-9.84 7.119-2.009 1.41-4.783 4.077-7.542 6.945.962-1.854 1.732-3.376 2.069-4.134.71-1.595 2.297-6.536 3.658-10.894a847.874 847.874 0 0 0 2.395-7.801l.213-.706-1.914-.576 1.914.576a1.998 1.998 0 0 0-3.705-1.466l1.791.89-1.791-.89-.001.002-.899 1.811-2.198 4.427c-1.732 3.486-3.828 7.7-5.286 10.619-.754 1.507-1.872 3.563-3.095 5.741.374-2.96.814-6.547 1.229-10.052.467-3.941.905-7.789 1.186-10.536.14-1.366.243-2.487.291-3.213a8.82 8.82 0 0 0 .025-.955 2.348 2.348 0 0 0-.053-.397 2.075 2.075 0 0 0-.179-.497 2.01 2.01 0 0 0-1.238-1.02c-.953-.272-1.651.223-1.888.434a2.049 2.049 0 0 0-.421.523 2.394 2.394 0 0 0-.183.416c-.233.695-.46 2.108-.681 3.608a403.552 403.552 0 0 0-.503 3.57c-.091.663-.185 1.344-.281 2.027-.581 4.151-1.208 8.23-1.785 9.962l-1.522 4.571a30276.955 30276.955 0 0 1 .448-24.17l.102-5.395-1.999-.038 1.999.038a2 2 0 0 0-3.994-.165l-.004.06-.012.18-.048.689c-.043.593-.106 1.439-.19 2.446a179.3 179.3 0 0 1-.734 7.225c-.219 1.744-.772 5.795-1.41 10.399l-1.108-19.357a1.998 1.998 0 0 0-3.995.065l-.587 23.462-.03-.137a1.998 1.998 0 0 0-3.945.595l.412 4.976-14.805-30.373a2 2 0 0 0-3.694 1.509l4.157 12.481-.145-.198a44.4 44.4 0 0 0-.993-1.326l-.011-.015c-.074-.092-.263-.331-.464-.503a2.048 2.048 0 0 0-.865-.442c-.357-.083-1.241-.156-1.932.595a2.01 2.01 0 0 0-.528 1.422c.011.364.125.647.14.684l.001.004c.035.091.071.166.094.212.246.5 2.372 4.903 4.877 10.097a2 2 0 0 0-.402 2.078l.721 1.883a3278.74 3278.74 0 0 0-6.383-8.624 7729.78 7729.78 0 0 0-9.763-13.118l-.909-1.218-1.601 1.197 1.601-1.197a2 2 0 0 0-3.313 2.231l1.712-1.034-1.712 1.034.087.143.245.404a519.77 519.77 0 0 0 3.904 6.31c2.347 3.731 5.227 8.184 7.233 10.854 1.795 2.391 4.55 7.257 6.957 11.741-.783-.651-1.583-1.317-2.376-1.979a866.554 866.554 0 0 1-6.435-5.407l-.143-.122c-.14-.139-.275-.271-.403-.396-.64-.624-1.28-1.225-1.71-1.512-.047-.03-.107-.069-.172-.108l-.004-.002c-.036-.021-.202-.12-.419-.192a2.003 2.003 0 0 0-1.137-.043 2.004 2.004 0 0 0-1.478 2.284c.07.406.252.688.286.741l.003.005c.062.096.12.169.15.207.158.193.406.417.551.549l.005.004c.354.321.918.81 1.619 1.409.411.409.876.879 1.384 1.398a214.11 214.11 0 0 0-4.016-2.379 311.724 311.724 0 0 0-8.12-4.529l-.131-.071-.046-.024-.94 1.766.939-1.766a2 2 0 0 0-2.17 3.342l1.231-1.576s5.462 2.908 10.892 6.15c3.383 2.02 6.755 4.171 8.785 5.828.157.128.305.253.445.374 4.868 4.231 11.366 9.412 11.366 9.412s-2.736-2.981-6.199-6.706c-1.236-1.33-2.564-2.754-3.894-4.172l-.349-.371c-2.986-3.18-5.938-6.28-7.822-8.148 3.034 2.591 8.858 7.434 12.746 10.657l.694.576c1.903 1.577 3.194 2.643 3.194 2.643s-.927-1.856-2.301-4.501c-1.393-2.681-3.246-6.172-5.059-9.361-1.583-2.784-3.135-5.338-4.325-6.922-3.899-5.191-11.355-17.544-11.355-17.544s6.495 8.701 12.443 16.725a2756.34 2756.34 0 0 1 4.916 6.649 532.222 532.222 0 0 1 4.03 5.523c.36.506.597.848.682.989.979 1.631 5.197 8.772 5.197 8.772l-7.466-19.494 9.086 15.913-4.134-8.574-3.76-7.796a686.507 686.507 0 0 1-.717-1.486l-.078-.161c-1.685-3.494-3.207-6.647-4.11-8.515l-.836-1.724c-.053-.108-.034-.11.046-.022.163.18.581.736 1.152 1.52 1 1.373 2.47 3.446 3.87 5.436a1220.203 1220.203 0 0 1 4.019 5.739l-8.437-25.335 19.472 39.948-1.289-15.593 3.568 16.243 1-39.948 2.269 39.628s.637-4.514 1.423-10.122c.453-3.232.955-6.829 1.412-10.134.63-4.547 1.176-8.543 1.393-10.28.65-5.191 1-10.722 1-10.722l-.203 10.822-.193 10.337c-.136 7.326-.254 13.834-.254 14.248 0 .109-.008.304-.023.564-.114 2.059-.627 8.208-.627 8.208l6.168-18.514c.761-2.283 1.521-7.795 2.152-12.362.263-1.912.504-3.659.713-4.933.144-.883.273-1.54.384-1.869.041-.124.064-.11.071.024.012.249-.033.915-.12 1.891-.316 3.525-1.195 11.09-1.998 17.65-.156 1.279-.31 2.519-.455 3.684-.306 2.44-.579 4.549-.774 5.983-.147 1.077-.251 1.774-.293 1.945a37.283 37.283 0 0 1-2.279 6.171c-.13.253-.105.244.042.022l.001-.002c.169-.255.5-.788.944-1.522a331.457 331.457 0 0 0 2.565-4.323l.017-.029.93-1.599c2.057-3.557 4.303-7.551 5.567-10.081a4609.55 4609.55 0 0 0 2.851-5.72c2.684-5.395 5.536-11.143 5.536-11.143s-1.924 6.406-3.678 11.896c-1.038 3.251-2.017 6.181-2.5 7.268-.664 1.491-3.188 6.286-5.5 10.623a1601.712 1601.712 0 0 1-4.236 7.891s2.562-3.039 5.886-6.735c4.054-4.509 9.242-9.996 12.297-12.139a508.624 508.624 0 0 0 6.968-5.014c4.449-3.248 8.615-6.349 8.615-6.349s-3.334 3.607-7.282 7.852c-4.765 5.122-10.423 11.171-12.2 12.933-1.784 1.768-5.425 6.004-8.345 9.464-2.398 2.841-4.31 5.159-4.31 5.159s2.527-1.62 5.646-3.641c1.146-.743 2.372-1.54 3.582-2.33Zm-55.927-15.5.517.443c-.171-.17-.334-.329-.486-.478-.662-.643-1.144-1.08-1.382-1.239-.169-.112-.17-.089-.032.047.199.197.688.628 1.383 1.227Z" fill="#274430"/>
    <path d="M675.458 376h.498l.3-.398c8.876-11.787 14.606-31.165 14.606-52.993 0-1.922 0-3.762.04-5.6v-.033l-.001-.033a115.83 115.83 0 0 0-1.503-14.125l-.001-.009-.002-.009c-.32-1.701-.642-3.385-1.006-5.032l-.002-.01-.002-.01-.073-.299a162.87 162.87 0 0 0-.931-3.719 79.604 79.604 0 0 0-6.437-16.861l-.28-.54H631.847l-.28.54a79.6 79.6 0 0 0-6.434 16.85 64.117 64.117 0 0 0-1.01 4.041 78.091 78.091 0 0 0-1.01 5.057l-.001.001a116.01 116.01 0 0 0-1.502 14.113c-.131 1.88-.131 3.785-.131 5.658v.02c0 21.828 5.73 41.206 14.605 52.993l.3.398H675.458Z" fill="#fff" stroke="#274430" stroke-width="2" stroke-miterlimit="10"/>
    <path d="M675.458 375c8.706-11.562 14.404-30.706 14.404-52.391v-.003c0-1.92 0-3.769.04-5.618a114.82 114.82 0 0 0-1.49-14.003c-.32-1.701-.639-3.371-.999-5.001-.33-1.361-.65-2.691-1-4.001a78.64 78.64 0 0 0-6.357-16.654h-5.998a78.59 78.59 0 0 1 6.358 16.654c.349 1.31.669 2.64.999 4.001.36 1.63.68 3.3 1 5.001a115.016 115.016 0 0 1 1.489 14.003c-.04 1.849-.04 3.699-.04 5.618v.003c0 21.685-5.698 40.829-14.404 52.391h5.998Z" fill="#565656" fill-opacity=".3"/>
    <path d="M687.201 294.063H625.27c-.359 1.31-.688 2.64-1.026 4.001h63.922a61.609 61.609 0 0 0-.965-4.001Zm1.991 9.002h-65.913a111.788 111.788 0 0 0-1.529 14.003h68.972a111.79 111.79 0 0 0-1.53-14.003Z" fill="#274430"/>
    <path d="M622.479 322.609c0 21.685 5.698 40.829 14.404 52.391h7.997c-8.707-11.562-14.404-30.709-14.404-52.393 0-1.89 0-3.77.13-5.619.209-4.694.707-9.37 1.489-14.003.29-1.701.61-3.371 1-5.001.3-1.361.619-2.691.999-4.001a78.59 78.59 0 0 1 6.358-16.654h-7.997a78.533 78.533 0 0 0-6.357 16.654c-.38 1.31-.7 2.64-1 4.001-.39 1.63-.71 3.3-1 5.001a114.818 114.818 0 0 0-1.489 14.003c-.13 1.849-.13 3.729-.13 5.619v.002Z" fill="#fff" fill-opacity=".3"/>
    <path d="M568 20.296a1 1 0 0 0-1-1H193a1 1 0 0 0-1 1v285.116a1 1 0 0 0 1 1h374a1 1 0 0 0 1-1V20.296Z" fill="#fff" stroke="#274430" stroke-width="2" stroke-linecap="round" stroke-linejoin="round"/>
    <path d="M568 36.727a1 1 0 0 0-1-1H193a1 1 0 0 0-1 1v36.727a1 1 0 0 0 1 1h374a1 1 0 0 0 1-1V36.727Z" fill="#DFF7E6" stroke="#274430" stroke-width="2" stroke-linecap="round" stroke-linejoin="round"/>
    <path d="M567 36.727H193v3.866h374v-3.866ZM567 75.386H193v3.867h374v-3.867Z" fill="#565656" fill-opacity=".3"/>
    <path d="M568 20.296a1 1 0 0 0-1-1H193a1 1 0 0 0-1 1v14.498a1 1 0 0 0 1 1h374a1 1 0 0 0 1-1V20.296Z" fill="#D2D4EE" stroke="#274430" stroke-width="2" stroke-linecap="round" stroke-linejoin="round"/>
    <path d="M338.858 24.125H206.809v7.002h132.049v-7.002Z" fill="#fff" stroke="#274430" stroke-width="2" stroke-linecap="round" stroke-linejoin="round"/>
    <path d="M536.477 27.126a2.498 2.498 0 0 0-2.989-2.453 2.497 2.497 0 0 0-1.965 1.965 2.503 2.503 0 1 0 4.954.488ZM547.483 27.126a2.499 2.499 0 0 0-2.989-2.453 2.5 2.5 0 1 0 2.989 2.453ZM555.986 29.626a2.501 2.501 0 1 0 .002-5.002 2.501 2.501 0 0 0-.002 5.002Z" fill="#fff" stroke="#1E1E1E" stroke-linecap="round" stroke-linejoin="round"/>
    <path d="M223.886 41.219h15.887M258.942 41.219h15.887M293.998 41.219h15.887M329.054 41.219h15.887M364.11 41.219h15.887M523.492 41.219h8.413M523.492 44.96h8.413M523.492 48.7h8.413" stroke="#1E1E1E" stroke-miterlimit="10"/>
    <path d="M567 75.386h-13V306.38h13V75.386Z" fill="#565656" fill-opacity=".3"/>
    <path d="M322.87 95.02a1 1 0 0 0-1-1h-96.961a1 1 0 0 0-1 1V277.06a1 1 0 0 0 1 1h96.961a1 1 0 0 0 1-1V95.02Z" fill="#D2D4EE" stroke="#274430" stroke-width="2" stroke-linecap="round" stroke-linejoin="round"/>
    <path d="M321.87 95.02h-7.997s2.6 150.953 0 160.135C310.316 267.719 300 277.059 300 277.059h21.87V95.02Z" fill="#565656" fill-opacity=".3"/>
    <path d="M324.869 95.02a1 1 0 0 0-1-1H222.91a1 1 0 0 0-1 1v20.005a1 1 0 0 0 1 1h100.959a1 1 0 0 0 1-1V95.02Z" fill="#fff" stroke="#274430" stroke-width="2" stroke-linecap="round" stroke-linejoin="round"/>
    <path d="M313.374 95.02h10.495v20.005h-36.954c-4.017.215-7.028 0-7.028 0h7.028c5.259-.282 12.244-1.3 16.463-4.501 5.737-4.354 9.996-15.504 9.996-15.504ZM322.51 115.335h-98.08v4.001h98.08v-4.001Z" fill="#565656" fill-opacity=".3"/>
    <path d="M299.119 236.481H247.83c-5.244 0-9.496 4.254-9.496 9.502v3c0 5.248 4.252 9.502 9.496 9.502h51.289c5.245 0 9.497-4.254 9.497-9.502v-3c0-5.248-4.252-9.502-9.497-9.502Z" fill="#535F57"/>
    <path d="M245.911 173.167h53.968M245.911 183.619h53.968M245.911 194.072h53.968" stroke="#1E1E1E" stroke-linecap="round" stroke-linejoin="round"/>
    <path d="m273.5 96.65 2.015 5.91H282l-5.249 3.643 2.015 5.91-5.266-3.643-5.249 3.643 2.015-5.91L265 102.56h6.502l1.998-5.91Z" fill="#E3C191"/>
    <path d="M257.192 250.784c1.007 0 1.801-.501 2.304-1.234l1.411 1.105c-.806 1.119-2.116 1.839-3.715 1.839-2.783 0-4.684-2.186-4.684-4.757 0-2.571 1.901-4.757 4.684-4.757 1.599 0 2.909.733 3.715 1.826l-1.411 1.118c-.503-.732-1.297-1.234-2.304-1.234-1.662 0-2.846 1.324-2.846 3.047s1.184 3.047 2.846 3.047ZM262.244 252.237v-9.642h1.6v3.676a2.55 2.55 0 0 1 1.876-.771c1.372 0 2.468.964 2.468 2.88v3.857h-1.612v-3.793c0-.861-.466-1.401-1.259-1.401-.806 0-1.234.553-1.473.964v4.23h-1.6ZM273.026 245.5c2.065 0 3.475 1.556 3.475 3.497 0 1.941-1.41 3.497-3.475 3.497-2.065 0-3.475-1.556-3.475-3.497 0-1.941 1.41-3.497 3.475-3.497Zm.025 5.451c1.02 0 1.788-.836 1.788-1.954 0-1.131-.768-1.954-1.788-1.954-1.058 0-1.838.823-1.838 1.954s.78 1.954 1.838 1.954ZM278.766 244.626c-.567 0-1.045-.489-1.045-1.067 0-.579.478-1.067 1.045-1.067s1.033.488 1.033 1.067c0 .578-.466 1.067-1.033 1.067Zm-.806 7.611v-6.48h1.599v6.48h-1.599ZM280.837 251.298l1.058-.977c.39.502.856.861 1.46.861.517 0 .781-.308.781-.694 0-1.131-3.035-.707-3.035-2.982 0-1.145.945-2.006 2.267-2.006.969 0 1.851.476 2.304 1.106l-1.057.951c-.328-.411-.743-.746-1.235-.746-.503 0-.742.283-.742.617 0 1.106 3.034.72 3.034 2.957-.025 1.363-1.095 2.109-2.292 2.109-1.133 0-1.939-.463-2.543-1.196ZM287.952 244.626c-.567 0-1.045-.489-1.045-1.067 0-.579.478-1.067 1.045-1.067.566 0 1.032.488 1.032 1.067 0 .578-.466 1.067-1.032 1.067Zm-.806 7.611v-6.48h1.599v6.48h-1.599ZM290.663 252.237v-6.48h1.599v.643c.416-.437.957-.771 1.675-.771.214 0 .403.038.554.09v1.607a2.683 2.683 0 0 0-.705-.09c-.781 0-1.285.437-1.524.848v4.153h-1.599Z" fill="#fff"/>
    <path d="M429.827 95.02a1 1 0 0 0-1-1h-96.961a1 1 0 0 0-1 1V277.06a1 1 0 0 0 1 1h96.961a1 1 0 0 0 1-1V95.02Z" fill="#D2D4EE" stroke="#274430" stroke-width="2" stroke-linecap="round" stroke-linejoin="round"/>
    <path d="M429.467 115.335h-98.081v4.001h98.081v-4.001Z" fill="#565656" fill-opacity=".3"/>
    <path d="M406.356 236.48h-51.29c-5.244 0-9.496 4.255-9.496 9.502v3.001c0 5.248 4.252 9.502 9.496 9.502h51.29c5.244 0 9.496-4.254 9.496-9.502v-3.001c0-5.247-4.252-9.502-9.496-9.502Z" fill="#535F57"/>
    <path d="M353.717 173.167h53.978M353.717 183.619h53.978M353.717 194.072h53.978M353.717 204.524h53.978" stroke="#1E1E1E" stroke-linecap="round" stroke-linejoin="round"/>
    <path d="M428.87 95.683h-7.997s2.6 150.953 0 160.134C417.316 268.382 407 277.722 407 277.722h21.87V95.683Z" fill="#565656" fill-opacity=".3"/>
    <path d="M431.826 96.02a1 1 0 0 0-1-1H329.867a1 1 0 0 0-1 1v20.005a1 1 0 0 0 1 1h100.959a1 1 0 0 0 1-1V96.02Z" fill="#fff" stroke="#274430" stroke-width="2" stroke-linecap="round" stroke-linejoin="round"/>
    <path d="M420.33 95.02h10.496v20.905h-36.954c-4.018.225-7.028 0-7.028 0h7.028c5.259-.294 12.243-1.358 16.462-4.704 5.738-4.549 9.996-16.2 9.996-16.2ZM567 36.727h-20.523s-8.326 20.373-19.545 28.328C516.5 72.004 481 73.454 481 73.454h86V36.727ZM554.352 20.296H567v14.429h-44.531c-4.841.155-8.469 0-8.469 0h8.469c6.337-.203 14.754-.938 19.838-3.247 6.914-3.14 12.045-11.182 12.045-11.182Z" fill="#565656" fill-opacity=".3"/>
    <path d="m369.5 97.616 2.015 6.115H378l-5.249 3.77 2.015 6.115-5.266-3.77-5.249 3.77 2.015-6.115-5.266-3.77h6.502l1.998-6.115ZM390.5 97.616l2.015 6.115H399l-5.249 3.77 2.015 6.115-5.266-3.77-5.249 3.77 2.015-6.115-5.266-3.77h6.502l1.998-6.115Z" fill="#E3C191"/>
    <path d="M362.15 250.784c1.007 0 1.801-.501 2.304-1.234l1.411 1.105c-.806 1.119-2.116 1.839-3.715 1.839-2.783 0-4.684-2.186-4.684-4.757 0-2.571 1.901-4.757 4.684-4.757 1.599 0 2.909.733 3.715 1.826l-1.411 1.118c-.503-.732-1.297-1.234-2.304-1.234-1.662 0-2.846 1.324-2.846 3.047s1.184 3.047 2.846 3.047ZM367.202 252.237v-9.642h1.6v3.676a2.55 2.55 0 0 1 1.876-.771c1.372 0 2.468.964 2.468 2.88v3.857h-1.612v-3.793c0-.861-.466-1.401-1.259-1.401-.806 0-1.234.553-1.473.964v4.23h-1.6ZM377.984 245.5c2.065 0 3.475 1.556 3.475 3.497 0 1.941-1.41 3.497-3.475 3.497-2.065 0-3.475-1.556-3.475-3.497 0-1.941 1.41-3.497 3.475-3.497Zm.025 5.451c1.02 0 1.788-.836 1.788-1.954 0-1.131-.768-1.954-1.788-1.954-1.058 0-1.838.823-1.838 1.954s.78 1.954 1.838 1.954ZM383.724 244.626c-.567 0-1.045-.489-1.045-1.067 0-.579.478-1.067 1.045-1.067s1.033.488 1.033 1.067c0 .578-.466 1.067-1.033 1.067Zm-.806 7.611v-6.48h1.599v6.48h-1.599ZM385.795 251.298l1.058-.977c.39.502.856.861 1.46.861.517 0 .781-.308.781-.694 0-1.131-3.035-.707-3.035-2.982 0-1.145.945-2.006 2.267-2.006.969 0 1.851.476 2.304 1.106l-1.057.951c-.328-.411-.743-.746-1.235-.746-.503 0-.742.283-.742.617 0 1.106 3.034.72 3.034 2.957-.025 1.363-1.095 2.109-2.292 2.109-1.133 0-1.939-.463-2.543-1.196ZM392.91 244.626c-.567 0-1.045-.489-1.045-1.067 0-.579.478-1.067 1.045-1.067.566 0 1.032.488 1.032 1.067 0 .578-.466 1.067-1.032 1.067Zm-.806 7.611v-6.48h1.599v6.48h-1.599ZM395.621 252.237v-6.48h1.599v.643c.416-.437.957-.771 1.675-.771.214 0 .403.038.554.09v1.607a2.683 2.683 0 0 0-.705-.09c-.781 0-1.285.437-1.524.848v4.153h-1.599Z" fill="#fff"/>
    <path d="M363.463 145.954v-2.718h2.007v-1.462h-2.007v-2.719h2.283c.727-4.052 2.909-6.027 6.42-6.027 2.332 0 4.113 1.001 5.292 2.591l-2.558 1.974c-.577-.897-1.43-1.538-2.684-1.538-1.505 0-2.558.718-3.034 3h6.044v2.719h-6.32v1.462h6.32v2.718h-6.044c.451 2.334 1.504 3.052 3.034 3.052 1.229 0 2.082-.667 2.684-1.539l2.558 1.949c-1.179 1.591-2.96 2.616-5.292 2.616-3.511 0-5.693-1.974-6.42-6.078h-2.283ZM265.893 145.954v-2.718h2.006v-1.462h-2.006v-2.719h2.282c.727-4.052 2.909-6.027 6.42-6.027 2.333 0 4.113 1.001 5.292 2.591l-2.558 1.974c-.577-.897-1.43-1.538-2.684-1.538-1.504 0-2.558.718-3.034 3h6.044v2.719h-6.32v1.462h6.32v2.718h-6.044c.451 2.334 1.504 3.052 3.034 3.052 1.229 0 2.082-.667 2.684-1.539l2.558 1.949c-1.179 1.591-2.959 2.616-5.292 2.616-3.511 0-5.693-1.974-6.42-6.078h-2.282ZM379.457 145.954v-2.718h2.006v-1.462h-2.006v-2.719h2.282c.728-4.052 2.909-6.027 6.421-6.027 2.332 0 4.113 1.001 5.291 2.591l-2.558 1.974c-.577-.897-1.429-1.538-2.683-1.538-1.505 0-2.558.718-3.035 3h6.044v2.719h-6.32v1.462h6.32v2.718h-6.044c.452 2.334 1.505 3.052 3.035 3.052 1.229 0 2.081-.667 2.683-1.539l2.558 1.949c-1.178 1.591-2.959 2.616-5.291 2.616-3.512 0-5.693-1.974-6.421-6.078h-2.282Z" fill="#304436"/>
    <path d="M536.784 95.02a1 1 0 0 0-1-1h-96.961a1 1 0 0 0-1 1V277.06a1 1 0 0 0 1 1h96.961a1 1 0 0 0 1-1V95.02Z" fill="#D2D4EE" stroke="#274430" stroke-width="2" stroke-linecap="round" stroke-linejoin="round"/>
    <path d="M535.87 95.683h-7.997s2.6 150.953 0 160.134C524.316 268.382 514 277.722 514 277.722h21.87V95.683Z" fill="#565656" fill-opacity=".3"/>
    <path d="M536.424 115.335h-98.081v4.001h98.081v-4.001Z" fill="#565656" fill-opacity=".3"/>
    <path d="M513.393 236.481h-51.289c-5.245 0-9.497 4.254-9.497 9.502v3c0 5.248 4.252 9.502 9.497 9.502h51.289c5.244 0 9.496-4.254 9.496-9.502v-3c0-5.248-4.252-9.502-9.496-9.502Z" fill="#535F57"/>
    <path d="M460.764 173.167h53.968M460.764 183.619h53.968M460.764 194.072h53.968M460.764 204.524h53.968M460.764 214.976h53.968" stroke="#1E1E1E" stroke-linecap="round" stroke-linejoin="round"/>
    <path d="M538.783 95.02a1 1 0 0 0-1-1H436.824a1 1 0 0 0-1 1v20.005a1 1 0 0 0 1 1h100.959a1 1 0 0 0 1-1V95.02Z" fill="#fff" stroke="#274430" stroke-width="2" stroke-linecap="round" stroke-linejoin="round"/>
    <path d="M527.287 95.02h10.496v20.005h-36.954c-4.018.215-7.028 0-7.028 0h7.028c5.259-.282 12.243-1.3 16.462-4.501 5.738-4.354 9.996-15.504 9.996-15.504Z" fill="#565656" fill-opacity=".3"/>
    <path d="m466.5 96.65 2.015 6.115H475l-5.249 3.769 2.015 6.115-5.266-3.769-5.249 3.769 2.015-6.115-5.266-3.769h6.502l1.998-6.116ZM487.5 96.65l2.015 6.115H496l-5.249 3.769 2.015 6.115-5.266-3.769-5.249 3.769 2.015-6.115-5.266-3.769h6.502l1.998-6.116ZM508.5 96.65l2.015 6.115H517l-5.249 3.769 2.015 6.115-5.266-3.769-5.249 3.769 2.015-6.115-5.266-3.769h6.502l1.998-6.116Z" fill="#E3C191"/>
    <path d="M469.107 250.784c1.007 0 1.8-.501 2.304-1.234l1.41 1.105c-.806 1.119-2.115 1.839-3.714 1.839-2.783 0-4.685-2.186-4.685-4.757 0-2.571 1.902-4.757 4.685-4.757 1.599 0 2.908.733 3.714 1.826l-1.41 1.118c-.504-.732-1.297-1.234-2.304-1.234-1.663 0-2.846 1.324-2.846 3.047s1.183 3.047 2.846 3.047ZM474.159 252.237v-9.642h1.599v3.676a2.553 2.553 0 0 1 1.876-.771c1.373 0 2.469.964 2.469 2.88v3.857h-1.612v-3.793c0-.861-.466-1.401-1.259-1.401-.806 0-1.235.553-1.474.964v4.23h-1.599ZM484.941 245.5c2.065 0 3.475 1.556 3.475 3.497 0 1.941-1.41 3.497-3.475 3.497-2.066 0-3.476-1.556-3.476-3.497 0-1.941 1.41-3.497 3.476-3.497Zm.025 5.451c1.02 0 1.788-.836 1.788-1.954 0-1.131-.768-1.954-1.788-1.954-1.058 0-1.839.823-1.839 1.954s.781 1.954 1.839 1.954ZM490.681 244.626c-.567 0-1.046-.489-1.046-1.067 0-.579.479-1.067 1.046-1.067.566 0 1.032.488 1.032 1.067 0 .578-.466 1.067-1.032 1.067Zm-.806 7.611v-6.48h1.599v6.48h-1.599ZM492.751 251.298l1.058-.977c.391.502.856.861 1.461.861.516 0 .781-.308.781-.694 0-1.131-3.035-.707-3.035-2.982 0-1.145.944-2.006 2.266-2.006.97 0 1.851.476 2.305 1.106l-1.058.951c-.327-.411-.743-.746-1.234-.746-.504 0-.743.283-.743.617 0 1.106 3.035.72 3.035 2.957-.025 1.363-1.096 2.109-2.292 2.109-1.133 0-1.939-.463-2.544-1.196ZM499.866 244.626c-.566 0-1.045-.489-1.045-1.067 0-.579.479-1.067 1.045-1.067.567 0 1.033.488 1.033 1.067 0 .578-.466 1.067-1.033 1.067Zm-.806 7.611v-6.48h1.6v6.48h-1.6ZM502.577 252.237v-6.48h1.6v.643c.415-.437.957-.771 1.674-.771.214 0 .403.038.554.09v1.607a2.671 2.671 0 0 0-.705-.09c-.78 0-1.284.437-1.523.848v4.153h-1.6Z" fill="#fff"/>
    <path d="M463.423 145.954v-2.718h2.006v-1.462h-2.006v-2.719h2.282c.727-4.052 2.909-6.027 6.42-6.027 2.333 0 4.113 1.001 5.292 2.591l-2.558 1.974c-.577-.897-1.429-1.538-2.683-1.538-1.505 0-2.559.718-3.035 3h6.044v2.719h-6.32v1.462h6.32v2.718h-6.044c.451 2.334 1.505 3.052 3.035 3.052 1.228 0 2.081-.667 2.683-1.539l2.558 1.949c-1.179 1.591-2.959 2.616-5.292 2.616-3.511 0-5.693-1.974-6.42-6.078h-2.282ZM479.417 145.954v-2.718h2.006v-1.462h-2.006v-2.719h2.282c.727-4.052 2.909-6.027 6.42-6.027 2.332 0 4.113 1.001 5.292 2.591l-2.558 1.974c-.577-.897-1.43-1.538-2.684-1.538-1.505 0-2.558.718-3.034 3h6.044v2.719h-6.32v1.462h6.32v2.718h-6.044c.451 2.334 1.504 3.052 3.034 3.052 1.229 0 2.082-.667 2.684-1.539l2.558 1.949c-1.179 1.591-2.96 2.616-5.292 2.616-3.511 0-5.693-1.974-6.42-6.078h-2.282ZM495.41 145.954v-2.718h2.007v-1.462h-2.007v-2.719h2.282c.728-4.052 2.91-6.027 6.421-6.027 2.332 0 4.113 1.001 5.292 2.591l-2.559 1.974c-.576-.897-1.429-1.538-2.683-1.538-1.505 0-2.558.718-3.035 3h6.044v2.719h-6.32v1.462h6.32v2.718h-6.044c.452 2.334 1.505 3.052 3.035 3.052 1.229 0 2.081-.667 2.683-1.539l2.559 1.949c-1.179 1.591-2.96 2.616-5.292 2.616-3.511 0-5.693-1.974-6.421-6.078h-2.282ZM201 60.682l1.476-1.298c.602.738 1.405 1.175 2.222 1.175.802 0 1.29-.41 1.29-1.093 0-1.763-4.558-1.285-4.558-4.523 0-1.517 1.319-2.774 3.239-2.774 1.505 0 2.651.642 3.511 1.612l-1.49 1.285c-.588-.725-1.247-1.203-2.007-1.203-.716 0-1.189.437-1.189 1.011 0 1.736 4.557 1.244 4.557 4.523-.028 1.804-1.49 2.884-3.339 2.884-1.691 0-2.823-.588-3.712-1.599ZM210.859 53.918c-.645 0-1.19-.52-1.19-1.134 0-.615.545-1.135 1.19-1.135.645 0 1.175.52 1.175 1.135 0 .614-.53 1.134-1.175 1.134Zm-.917 8.09V55.12h1.82v6.888h-1.82ZM213.945 62.008V55.12h1.82v.52c.487-.451 1.103-.793 1.992-.793.917 0 1.72.383 2.193 1.12.516-.6 1.204-1.12 2.422-1.12 1.49 0 2.666.984 2.666 2.924v4.237h-1.835V57.84c0-.834-.473-1.353-1.29-1.353-.788 0-1.218.52-1.505.984.015.095.015.191.015.3v4.237h-1.835V57.84c0-.834-.473-1.353-1.29-1.353-.831 0-1.261.587-1.533 1.025v4.496h-1.82ZM231.873 59.029V55.12h1.835v3.827c0 2.063-1.262 3.334-3.383 3.334s-3.368-1.271-3.368-3.334V55.12h1.835v3.909c0 .997.544 1.612 1.548 1.612.989 0 1.533-.615 1.533-1.612ZM235.723 62.008v-10.25h1.82v10.25h-1.82ZM241.761 62.212c-1.448 0-2.437-.792-2.437-2.063 0-1.038.846-1.817 2.394-2.063l2.207-.356v-.177c0-.724-.573-1.19-1.405-1.19-.702 0-1.247.315-1.634.82l-1.332-.97c.644-.847 1.705-1.366 3.024-1.366 2.092 0 3.167 1.189 3.167 2.706v4.455h-1.82v-.67c-.459.533-1.319.874-2.164.874Zm-.631-2.145c0 .465.387.765 1.003.765.832 0 1.434-.369 1.792-.915v-.97l-1.72.273c-.76.123-1.075.424-1.075.847ZM248.288 59.493v-2.815h-1.347V55.12h1.347V53.4h1.834v1.721h2.208v1.558h-2.208v2.815c0 .765.43 1.066 1.147 1.066.502 0 .831-.055 1.075-.15v1.517c-.358.15-.788.218-1.39.218-1.806 0-2.666-.97-2.666-2.65ZM260.47 60.887c-.674.86-1.792 1.394-3.153 1.394-2.566 0-4.013-1.708-4.013-3.717 0-2.036 1.347-3.717 3.712-3.717 2.006 0 3.325 1.298 3.325 3.102 0 .383-.058.738-.115.97h-5.059c.172 1.285 1.003 1.804 2.135 1.804.789 0 1.477-.328 1.864-.82l1.304.984Zm-3.497-4.619c-.932 0-1.548.492-1.749 1.394h3.325c-.028-.697-.559-1.394-1.576-1.394ZM266.794 59.029V55.12h1.834v3.827c0 2.063-1.261 3.334-3.382 3.334-2.121 0-3.368-1.271-3.368-3.334V55.12h1.834v3.909c0 .997.545 1.612 1.548 1.612.989 0 1.534-.615 1.534-1.612ZM270.643 62.008V55.12h1.82v.684c.473-.465 1.089-.82 1.906-.82.244 0 .459.04.631.095v1.709a3.277 3.277 0 0 0-.803-.096c-.888 0-1.461.464-1.734.902v4.414h-1.82Z" fill="#304436"/>
</svg>
