<svg width="167" height="168" viewBox="0 0 167 168" fill="none"
    xmlns="http://www.w3.org/2000/svg">
    <path fill-rule="evenodd" clip-rule="evenodd" d="M158.958 47.5C157.304 47.5 155.958 46.1542 155.958 44.5C155.958 42.8457 157.304 41.5 158.958 41.5C160.613 41.5 161.958 42.8457 161.958 44.5C161.958 46.1542 160.613 47.5 158.958 47.5Z" fill="#CACAFB"/>
    <path fill-rule="evenodd" clip-rule="evenodd" d="M127.96 86.7156C126.306 86.7156 124.96 85.3698 124.96 83.7156C124.96 82.0612 126.306 80.7156 127.96 80.7156C129.615 80.7156 130.96 82.0612 130.96 83.7156C130.96 85.3698 129.615 86.7156 127.96 86.7156Z" fill="#CACAFB"/>
    <path fill-rule="evenodd" clip-rule="evenodd" d="M65.5835 167.85C63.9293 167.85 62.5835 166.504 62.5835 164.85C62.5835 163.196 63.9293 161.85 65.5835 161.85C67.2377 161.85 68.5835 163.196 68.5835 164.85C68.5835 166.504 67.2377 167.85 65.5835 167.85Z" fill="#CACAFB"/>
    <path fill-rule="evenodd" clip-rule="evenodd" d="M65.5835 6C63.9293 6 62.5835 4.6542 62.5835 3C62.5835 1.34566 63.9293 0 65.5835 0C67.2377 0 68.5835 1.34566 68.5835 3C68.5835 4.6542 67.2377 6 65.5835 6Z" fill="#CACAFB"/>
    <path d="M61.5 139.025C61.5 139.691 61.0031 140.243 60.3601 140.327L60.1645 140.339L49 140.339H44.774L29.3836 140.339C24.2167 140.339 20.0016 136.262 19.7793 131.151L19.7789 131.143L19.77 130.725V26.9751C19.77 21.8083 23.8464 17.5932 28.958 17.3708L29.3917 17.3616H99.9335C105.1 17.3616 109.316 21.438 109.538 26.5497L109.547 26.9831V103.186C109.547 103.912 108.959 104.5 108.234 104.5C107.567 104.5 107.016 104.003 106.931 103.36L106.92 103.165V26.9751C106.92 23.2541 104.011 20.213 100.343 20.0005L100.332 19.9998L99.9446 19.9886H29.3836C25.6626 19.9886 22.6215 22.8972 22.4089 26.5653L22.4083 26.5763L22.3971 26.9641V130.725C22.3971 134.446 25.3056 137.487 28.9737 137.7L28.9848 137.7L29.3726 137.712L44.7795 137.712H49L60.1865 137.712C60.9119 137.712 61.5 138.3 61.5 139.025Z" fill="#274430"/>
    <path d="M67.3163 137.712H68.9124C69.6379 137.712 70.226 138.3 70.226 139.025C70.226 139.751 69.6379 140.339 68.9124 140.339H67.3163C66.5898 140.339 66.0012 139.749 66.0027 139.022C66.0042 138.298 66.5919 137.712 67.3163 137.712Z" fill="#274430"/>
    <path fill-rule="evenodd" clip-rule="evenodd" d="M30.145 66.381C30.145 63.3636 32.5911 60.9175 35.6086 60.9175H93.7086C96.726 60.9175 99.1721 63.3636 99.1721 66.381V70.531C99.1721 73.5484 96.726 75.9945 93.7086 75.9945H35.6086C32.5911 75.9945 30.145 73.5484 30.145 70.531V66.381ZM93.7086 63.5445H35.6086C34.042 63.5445 32.7721 64.8145 32.7721 66.381V70.531C32.7721 72.0975 34.042 73.3675 35.6086 73.3675H93.7086C95.2751 73.3675 96.545 72.0975 96.545 70.531V66.381C96.545 64.8145 95.2751 63.5445 93.7086 63.5445Z" fill="#80B990"/>
    <path fill-rule="evenodd" clip-rule="evenodd" d="M30.145 86.0268C30.145 83.0093 32.5911 80.5632 35.6086 80.5632H72.9586C75.976 80.5632 78.4221 83.0093 78.4221 86.0268V90.1768C78.4221 93.1942 75.976 95.6403 72.9586 95.6403H35.6086C32.5911 95.6403 30.145 93.1942 30.145 90.1768V86.0268ZM72.9586 83.1903H35.6086C34.042 83.1903 32.7721 84.4602 32.7721 86.0268V90.1768C32.7721 91.7433 34.042 93.0132 35.6086 93.0132H72.9586C74.5251 93.0132 75.795 91.7433 75.795 90.1768V86.0268C75.795 84.4602 74.5251 83.1903 72.9586 83.1903Z" fill="#80B990"/>
    <rect x="29.7769" y="103.56" width="33.5046" height="12.1835" rx="4" fill="#83BD93"/>
    <rect x="29.7769" y="33.5046" width="46.4495" height="6.09174" rx="3.04587" fill="#3D5745"/>
    <path d="M101.5 116.375C101.741 116.135 102.066 116 102.406 116C102.746 116 103.072 116.135 103.312 116.375C103.553 116.616 103.688 116.941 103.688 117.281V124.726L108.811 126.777C109.113 126.911 109.352 127.156 109.477 127.462C109.604 127.77 109.605 128.115 109.482 128.425C109.358 128.734 109.119 128.983 108.815 129.118C108.513 129.253 108.17 129.266 107.859 129.154L101.93 126.783C101.693 126.687 101.489 126.523 101.346 126.311C101.202 126.099 101.125 125.849 101.125 125.593V117.281C101.125 116.941 101.26 116.616 101.5 116.375Z" fill="#274430"/>
    <path d="M103 106.5C98.0935 106.5 93.3879 108.449 89.9185 111.919C86.7521 115.085 84.8521 119.281 84.5443 123.72C84.4954 124.426 85.0736 125 85.7812 125C86.4889 125 87.0571 124.425 87.1139 123.72C87.4166 119.962 89.0448 116.416 91.7305 113.73C94.7193 110.742 98.7731 109.062 103 109.062C107.227 109.062 111.281 110.742 114.27 113.73C117.258 116.719 118.938 120.773 118.938 125C118.938 129.227 117.258 133.281 114.27 136.27C111.281 139.258 107.227 140.938 103 140.938C99.2019 140.938 95.5435 139.582 92.6719 137.138C92.133 136.68 91.3249 136.675 90.8245 137.175C90.3241 137.676 90.3214 138.491 90.8552 138.955C94.2115 141.877 98.522 143.5 103 143.5C107.907 143.5 112.612 141.551 116.081 138.081C119.551 134.612 121.5 129.907 121.5 125C121.5 120.093 119.551 115.388 116.081 111.919C112.612 108.449 107.907 106.5 103 106.5Z" fill="#274430"/>
    <path d="M123.832 112.792C126.172 116.065 127.381 120.014 127.275 124.036C127.257 124.744 126.626 125.26 125.922 125.193C125.218 125.125 124.707 124.499 124.717 123.791C124.768 120.447 123.765 117.17 121.85 114.427C121.445 113.847 121.518 113.042 122.063 112.592C122.609 112.141 123.421 112.216 123.832 112.792Z" fill="#274430"/>
</svg>
