<svg width="80" height="81" viewBox="0 0 80 81" fill="none"
    xmlns="http://www.w3.org/2000/svg">
    <path d="M36.9001 75.1874C36.9001 75.5794 36.6078 75.9037 36.2295 75.9534L36.1145 75.96L29.5471 75.9601H27.0613H18.008C14.9687 75.9601 12.4893 73.5622 12.3585 70.5554L12.3583 70.5507L12.353 70.305V9.27562C12.353 6.23633 14.7509 3.75684 17.7577 3.62604L18.0128 3.62061H59.508C62.5474 3.62061 65.0269 6.01849 65.1576 9.02538L65.1631 9.28035V54.1058C65.1631 54.5326 64.8171 54.8785 64.3904 54.8785C63.9984 54.8785 63.674 54.5862 63.6244 54.2079L63.6177 54.0929V9.27562C63.6177 7.08681 61.9068 5.29792 59.7491 5.1729L59.7426 5.17253L59.5145 5.16594H18.008C15.8192 5.16594 14.0303 6.87683 13.9053 9.03456L13.905 9.04104L13.8984 9.26916V70.305C13.8984 72.4939 15.6093 74.2827 17.767 74.4078L17.7735 74.4081L18.0016 74.4147H27.0645H29.5471L36.1274 74.4147C36.5541 74.4147 36.9001 74.7606 36.9001 75.1874Z" fill="#274430"/>
    <path d="M40.3216 74.4148H41.2606C41.6873 74.4148 42.0332 74.7607 42.0332 75.1875C42.0332 75.6142 41.6873 75.9601 41.2606 75.9601H40.3216C39.8943 75.9601 39.5481 75.6132 39.549 75.1859C39.5499 74.7597 39.8955 74.4148 40.3216 74.4148Z" fill="#274430"/>
    <path fill-rule="evenodd" clip-rule="evenodd" d="M18.4561 32.4555C18.4561 30.6806 19.8949 29.2417 21.6699 29.2417H55.8464C57.6213 29.2417 59.0602 30.6806 59.0602 32.4555V34.8967C59.0602 36.6717 57.6213 38.1106 55.8464 38.1106H21.6699C19.8949 38.1106 18.4561 36.6717 18.4561 34.8967V32.4555ZM55.8464 30.787H21.6699C20.7484 30.787 20.0014 31.534 20.0014 32.4555V34.8967C20.0014 35.8182 20.7484 36.5652 21.6699 36.5652H55.8464C56.7679 36.5652 57.5149 35.8182 57.5149 34.8967V32.4555C57.5149 31.534 56.7679 30.787 55.8464 30.787Z" fill="#80B990"/>
    <path fill-rule="evenodd" clip-rule="evenodd" d="M18.4561 44.0119C18.4561 42.237 19.8949 40.7981 21.6699 40.7981H43.6405C45.4154 40.7981 46.8543 42.237 46.8543 44.0119V46.4531C46.8543 48.2281 45.4154 49.667 43.6405 49.667H21.6699C19.8949 49.667 18.4561 48.2281 18.4561 46.4531V44.0119ZM43.6405 42.3434H21.6699C20.7484 42.3434 20.0014 43.0904 20.0014 44.0119V46.4531C20.0014 47.3746 20.7484 48.1216 21.6699 48.1216H43.6405C44.562 48.1216 45.309 47.3746 45.309 46.4531V44.0119C45.309 43.0904 44.562 42.3434 43.6405 42.3434Z" fill="#80B990"/>
    <rect x="18.2397" y="54.3254" width="19.7086" height="7.16676" rx="3.58338" fill="#83BD93"/>
    <rect x="18.2397" y="13.1167" width="27.3233" height="3.58338" rx="1.79169" fill="#3D5745"/>
    <path d="M60.4298 61.8639C60.5712 61.7226 60.7629 61.6432 60.9628 61.6432C61.1627 61.6432 61.3544 61.7226 61.4957 61.8639C61.637 62.0053 61.7165 62.197 61.7165 62.3968V66.7759L64.73 67.9825C64.9078 68.0612 65.0484 68.2056 65.1223 68.3855C65.1967 68.5668 65.1976 68.7699 65.1248 68.9517C65.052 69.1336 64.9113 69.28 64.7324 69.3599C64.5548 69.4393 64.3534 69.4468 64.1704 69.3811L60.6827 67.986C60.5429 67.9299 60.4232 67.8332 60.3388 67.7085C60.2544 67.5838 60.2093 67.4368 60.2091 67.2862V62.3968C60.2091 62.197 60.2885 62.0053 60.4298 61.8639Z" fill="#274430"/>
    <path d="M61.312 56.0549C58.4259 56.0549 55.6579 57.2015 53.6171 59.2423C51.7545 61.1049 50.6368 63.5731 50.4558 66.1841C50.427 66.5994 50.7671 66.9373 51.1834 66.9373C51.5996 66.9373 51.9339 66.5993 51.9673 66.1844C52.1453 63.9736 53.1031 61.888 54.6829 60.3082C56.4411 58.55 58.8256 57.5623 61.312 57.5623C63.7984 57.5623 66.183 58.55 67.9412 60.3082C69.6993 62.0663 70.687 64.4509 70.687 66.9373C70.687 69.4237 69.6993 71.8083 67.9412 73.5664C66.183 75.3246 63.7984 76.3123 61.312 76.3123C59.0778 76.3123 56.9259 75.5148 55.2367 74.0774C54.9197 73.8077 54.4443 73.805 54.15 74.0993C53.8557 74.3937 53.8541 74.8731 54.168 75.1464C56.1423 76.8646 58.6779 77.8196 61.312 77.8196C64.1982 77.8196 66.9662 76.6731 69.007 74.6323C71.0479 72.5914 72.1944 69.8235 72.1944 66.9373C72.1944 64.0511 71.0479 61.2831 69.007 59.2423C66.9662 57.2015 64.1982 56.0549 61.312 56.0549Z" fill="#274430"/>
    <path d="M73.5666 59.7561C74.943 61.6816 75.6542 64.0044 75.5919 66.3704C75.5809 66.7865 75.2101 67.0904 74.7957 67.0507C74.3814 67.011 74.0809 66.6426 74.0872 66.2264C74.1171 64.259 73.5268 62.3312 72.4005 60.7179C72.1622 60.3766 72.205 59.9031 72.526 59.6382C72.8471 59.3733 73.3245 59.4175 73.5666 59.7561Z" fill="#274430"/>
    <path fill-rule="evenodd" clip-rule="evenodd" d="M70.3677 19.797C69.3947 19.797 68.603 19.0053 68.603 18.0323C68.603 17.0591 69.3947 16.2676 70.3677 16.2676C71.3408 16.2676 72.1324 17.0591 72.1324 18.0323C72.1324 19.0053 71.3408 19.797 70.3677 19.797Z" fill="#CACAFB"/>
    <path fill-rule="evenodd" clip-rule="evenodd" d="M70.9571 42.8651C69.984 42.8651 69.1924 42.0735 69.1924 41.1004C69.1924 40.1273 69.984 39.3357 70.9571 39.3357C71.9301 39.3357 72.7218 40.1273 72.7218 41.1004C72.7218 42.0735 71.9301 42.8651 70.9571 42.8651Z" fill="#CACAFB"/>
    <path fill-rule="evenodd" clip-rule="evenodd" d="M4.85308 76.4735C3.88003 76.4735 3.08838 75.6819 3.08838 74.7088C3.08838 73.7357 3.88003 72.9441 4.85308 72.9441C5.82614 72.9441 6.61779 73.7357 6.61779 74.7088C6.61779 75.6819 5.82614 76.4735 4.85308 76.4735Z" fill="#CACAFB"/>
    <path fill-rule="evenodd" clip-rule="evenodd" d="M5.44146 5.9735C4.4684 5.9735 3.67676 5.18186 3.67676 4.2088C3.67676 3.23566 4.4684 2.44409 5.44146 2.44409C6.41452 2.44409 7.20617 3.23566 7.20617 4.2088C7.20617 5.18186 6.41452 5.9735 5.44146 5.9735Z" fill="#CACAFB"/>
</svg>
