<svg width="89" height="164" viewBox="0 0 89 164" fill="none"
    xmlns="http://www.w3.org/2000/svg">
    <path d="M37.6962 131.312C38.2991 132.726 38.8919 134.381 39.4453 136.086L41.6653 135.487C41.0892 133.705 40.4604 131.941 39.8094 130.414C39.4183 129.498 39.0319 128.613 38.6549 127.751C37.1452 124.296 35.7874 121.189 34.8908 117.732C33.81 113.566 33.5461 111.245 33.3375 109.134C33.3247 109.005 33.312 108.875 33.2994 108.747L33.2994 108.746C33.1023 106.731 32.9111 104.775 32.0785 101.575C31.9191 100.962 31.2922 100.594 30.6783 100.753C30.0645 100.912 29.696 101.538 29.8554 102.151C30.6425 105.176 30.8195 106.986 31.0139 108.973C31.0264 109.101 31.039 109.23 31.0518 109.359C31.2685 111.551 31.5487 113.995 32.6673 118.307C33.6139 121.956 35.0624 125.268 36.5812 128.741C36.9508 129.586 37.3245 130.441 37.6962 131.312Z" fill="#FFE4BF"/>
    <path d="M55.8499 139.702C56.3306 140.66 56.7827 141.791 57.1923 142.96L59.4127 142.363C58.9868 141.141 58.508 139.935 57.989 138.9C57.6771 138.279 57.3673 137.68 57.0651 137.096C55.8549 134.756 54.7664 132.652 54.1566 130.264C53.4215 127.386 53.3433 125.756 53.3028 124.272C53.3003 124.18 53.298 124.09 53.2956 123.999L53.2956 123.998C53.259 122.581 53.2235 121.206 52.6566 118.995C52.548 118.571 51.9627 118.358 51.3492 118.519C50.7357 118.679 50.3264 119.153 50.4349 119.576C50.9709 121.666 51.0038 122.939 51.0399 124.336C51.0423 124.426 51.0446 124.517 51.0471 124.608C51.0891 126.15 51.1739 127.866 51.9347 130.845C52.5785 133.366 53.7399 135.608 54.9576 137.96C55.2539 138.533 55.5536 139.111 55.8499 139.702Z" fill="#FFE4BF"/>
    <path d="M67.5541 129.02C68.157 130.433 68.7498 132.088 69.3032 133.793L71.5232 133.195C70.9471 131.413 70.3184 129.648 69.6673 128.122C69.2762 127.205 68.8898 126.321 68.5128 125.458C67.0031 122.003 65.6453 118.896 64.7487 115.44C63.6679 111.274 63.404 108.953 63.1954 106.842C63.1826 106.712 63.17 106.583 63.1573 106.454L63.1573 106.453C62.9603 104.439 62.769 102.483 61.9364 99.2823C61.777 98.6696 61.1501 98.3019 60.5362 98.461C59.9224 98.6201 59.5539 99.2457 59.7133 99.8584C60.5004 102.884 60.6775 104.694 60.8718 106.68C60.8843 106.808 60.8969 106.937 60.9097 107.067C61.1264 109.259 61.4066 111.703 62.5252 116.015C63.4718 119.663 64.9203 122.976 66.4392 126.449C66.8087 127.294 67.1824 128.149 67.5541 129.02Z" fill="#FFE4BF"/>
    <path d="M44.5003 99.6194C59.4797 99.6194 71.6261 87.4993 71.6261 72.5443C71.6261 57.5892 59.4797 45.4691 44.5003 45.4691C29.521 45.4691 17.3745 57.5892 17.3745 72.5443C17.3745 87.4993 29.521 99.6194 44.5003 99.6194Z" fill="#FED992" stroke="#274430" stroke-width="2"/>
    <path d="M68.6261 72.5443C68.6261 85.837 57.8283 96.6194 44.5003 96.6194C31.1723 96.6194 20.3745 85.837 20.3745 72.5443C20.3745 59.2516 31.1723 48.4691 44.5003 48.4691C57.8283 48.4691 68.6261 59.2516 68.6261 72.5443Z" stroke="#FFA451" stroke-opacity="0.3" stroke-width="4"/>
    <path d="M47.5361 32.0187C46.7448 30.0857 43.978 30.0857 43.1868 32.0187L40.5149 38.5463C39.8795 40.0988 41.0546 41.7383 42.6896 41.7383H48.0333C49.6682 41.7383 50.8434 40.0988 50.2079 38.5463L47.5361 32.0187ZM17.9359 41.7445C16.0128 40.9386 14.0485 42.8865 14.861 44.8178L17.5964 51.3191C18.2458 52.8627 20.2352 53.1945 21.3924 52.0396L25.171 48.2683C26.3308 47.1108 25.9948 45.1221 24.4498 44.4746L17.9359 41.7445ZM85.1023 72.7112C87.0392 71.9214 87.0392 69.1554 85.1023 68.3657L78.5621 65.699C77.0136 65.0676 75.3679 66.2332 75.3679 67.8717V73.2051C75.3679 74.8437 77.0136 76.0093 78.5621 75.3779L85.1023 72.7112ZM73.3272 44.0073C74.1398 42.0761 72.1754 40.1281 70.2524 40.9341L63.7385 43.6641C62.1935 44.3116 61.8575 46.3003 63.0173 47.4579L66.7959 51.2291C67.953 52.384 69.9424 52.0523 70.5919 50.5086L73.3272 44.0073ZM3.89795 68.3657C1.9611 69.1554 1.9611 71.9214 3.89795 72.7112L10.4382 75.3779C11.9867 76.0093 13.6324 74.8436 13.6324 73.2051V67.8717C13.6324 66.2332 11.9867 65.0676 10.4382 65.699L3.89795 68.3657ZM12.8309 98.2445C12.0184 100.176 13.9827 102.124 15.9058 101.318L22.4197 98.5877C23.9647 97.9402 24.3007 95.9515 23.1409 94.794L19.3623 91.0227C18.2052 89.8678 16.2158 90.1996 15.5663 91.7432L12.8309 98.2445ZM43.1868 113.07C43.978 115.003 46.7448 115.003 47.5361 113.07L50.2079 106.542C50.8434 104.99 49.6682 103.35 48.0333 103.35H42.6896C41.0546 103.35 39.8795 104.99 40.5149 106.542L43.1868 113.07ZM72.2825 102.128C74.2055 102.934 76.1699 100.986 75.3573 99.055L72.622 92.5537C71.9725 91.01 69.9831 90.6782 68.826 91.8332L65.0473 95.6044C63.8876 96.762 64.2236 98.7507 65.7685 99.3982L72.2825 102.128Z" fill="#FED992" stroke="#274430" stroke-width="2"/>
    <path d="M40.5151 106.542L41.4406 106.163L40.5151 106.542L43.187 113.07C43.9782 115.003 46.745 115.003 47.5363 113.07L50.2081 106.542C50.8436 104.99 49.6684 103.35 48.0335 103.35H42.6898C41.0548 103.35 39.8797 104.99 40.5151 106.542Z" fill="#FED992" stroke="#274430" stroke-width="2"/>
    <path d="M42.4588 141.313C42.2124 142.385 40.7627 142.622 40.1864 141.685L36.7815 136.145C36.3288 135.408 36.78 134.452 37.647 134.31L42.5074 133.515C43.3744 133.374 44.1079 134.136 43.9143 134.979L42.4588 141.313Z" fill="#FFE4BF"/>
    <path d="M59.9588 148.45C59.7124 149.522 58.2627 149.759 57.6864 148.822L54.2815 143.282C53.8288 142.545 54.28 141.589 55.147 141.447L60.0074 140.652C60.8744 140.51 61.6079 141.273 61.4143 142.116L59.9588 148.45Z" fill="#FFE4BF"/>
    <path d="M72.0696 139.283C71.8233 140.355 70.3735 140.592 69.7973 139.655L66.3924 134.115C65.9397 133.379 66.3909 132.422 67.2578 132.28L72.1183 131.485C72.9852 131.344 73.7187 132.107 73.5252 132.949L72.0696 139.283Z" fill="#FFE4BF"/>
    <path d="M63.7236 46.7501L67.5022 50.5214C68.1761 51.1941 69.3064 50.9852 69.67 50.1209L64.1249 44.5864C63.2588 44.9494 63.0496 46.0774 63.7236 46.7501Z" fill="white" fill-opacity="0.3"/>
    <path d="M42.6898 40.7383H48.0335C48.9867 40.7383 49.6379 39.7931 49.2827 38.9252H41.4406C41.0854 39.7931 41.7366 40.7383 42.6898 40.7383Z" fill="white" fill-opacity="0.3"/>
    <path d="M20.6859 51.3318L24.4645 47.5605C25.1385 46.8878 24.9293 45.7598 24.0632 45.3969L18.5181 50.9313C18.8817 51.7957 20.012 52.0045 20.6859 51.3318Z" fill="white" fill-opacity="0.3"/>
    <path d="M12.6326 73.2051V67.8717C12.6326 66.9204 11.6855 66.2704 10.8159 66.625V74.4518C11.6855 74.8064 12.6326 74.1564 12.6326 73.2051Z" fill="white" fill-opacity="0.3"/>
    <path d="M22.4343 95.5018L18.6557 91.7305C17.9817 91.0578 16.8515 91.2666 16.4878 92.131L22.033 97.6654C22.899 97.3025 23.1083 96.1744 22.4343 95.5018Z" fill="white" fill-opacity="0.3"/>
    <path d="M48.0335 104.35H42.6898C41.7366 104.35 41.0854 105.295 41.4406 106.163H49.2827C49.6379 105.295 48.9867 104.35 48.0335 104.35Z" fill="white" fill-opacity="0.3"/>
    <path d="M69.5324 92.5409L65.7538 96.3122C65.0799 96.9849 65.2891 98.1129 66.1551 98.4759L71.7003 92.9414C71.3366 92.077 70.2064 91.8682 69.5324 92.5409Z" fill="white" fill-opacity="0.3"/>
    <path d="M76.3677 67.8717V73.2051C76.3677 74.1564 77.3148 74.8064 78.1844 74.4518V66.625C77.3148 66.2704 76.3677 66.9204 76.3677 67.8717Z" fill="white" fill-opacity="0.3"/>
</svg>
