<svg xmlns="http://www.w3.org/2000/svg" width="91" height="136" fill="none"><path fill="#FFE4BF" d="M40.567 108.944c.428 1.002.848 2.175 1.24 3.383l1.573-.424c-.408-1.263-.854-2.513-1.315-3.595-.277-.65-.551-1.277-.818-1.888-1.07-2.449-2.032-4.651-2.668-7.1-.766-2.953-.953-4.599-1.101-6.094l-.027-.275v-.001c-.14-1.428-.275-2.814-.865-5.083a.814.814 0 0 0-1.576.409c.558 2.144.683 3.427.821 4.835l.027.274c.154 1.553.352 3.286 1.145 6.342.671 2.586 1.698 4.933 2.774 7.395.262.599.527 1.205.79 1.822ZM53.434 114.89c.34.68.661 1.481.952 2.31l1.573-.423c-.302-.867-.64-1.721-1.009-2.455-.22-.44-.44-.865-.655-1.279-.857-1.658-1.629-3.149-2.061-4.842-.521-2.04-.577-3.195-.605-4.247l-.005-.193v-.001c-.026-1.004-.051-1.979-.453-3.546-.077-.3-.492-.451-.927-.337-.435.114-.725.449-.648.749.38 1.481.403 2.384.429 3.374l.005.193c.03 1.092.09 2.308.63 4.42.456 1.786 1.279 3.376 2.142 5.043.21.406.422.816.632 1.234ZM61.73 107.32c.427 1.001.847 2.174 1.24 3.383l1.573-.425c-.409-1.263-.854-2.513-1.316-3.595-.277-.65-.55-1.276-.818-1.888-1.07-2.449-2.032-4.651-2.668-7.1-.766-2.953-.953-4.598-1.1-6.094l-.028-.275c-.14-1.429-.275-2.815-.865-5.083a.814.814 0 0 0-1.576.408c.558 2.144.684 3.427.821 4.835.01.09.018.182.027.274.154 1.554.352 3.286 1.145 6.342.671 2.586 1.698 4.934 2.774 7.395.262.599.527 1.205.79 1.823Z"/><path fill="#FED992" d="M63.907 67.292c0 10.207-8.29 18.48-18.517 18.48S26.872 77.5 26.872 67.293s8.29-18.481 18.516-18.481c10.227 0 18.517 8.274 18.517 18.48Z"/><path fill="#274430" fill-rule="evenodd" d="M65.323 67.292c0 10.992-8.927 19.897-19.933 19.897-11.007 0-19.934-8.905-19.934-19.897 0-10.992 8.927-19.898 19.934-19.898 11.006 0 19.933 8.906 19.933 19.898ZM45.39 85.772c10.226 0 18.517-8.273 18.517-18.48S55.617 48.81 45.39 48.81s-18.517 8.274-18.517 18.48c0 10.208 8.29 18.482 18.517 18.482Z" clip-rule="evenodd"/><path stroke="#FFA451" stroke-opacity=".3" stroke-width="4" d="M61.907 67.292c0 9.098-7.392 16.48-16.517 16.48-9.126 0-16.517-7.382-16.517-16.48 0-9.099 7.39-16.481 16.516-16.481 9.126 0 16.517 7.382 16.517 16.48Z"/><path fill="#FED992" d="M45.115 38.837c.32-.783 1.45-.783 1.77 0l1.894 4.627c.252.615-.21 1.285-.885 1.285h-3.788c-.675 0-1.137-.67-.885-1.285l1.894-4.627ZM25.036 47.365c-.328-.78.47-1.577 1.252-1.25l4.617 1.936c.614.257.762 1.056.284 1.533l-2.678 2.673c-.478.477-1.279.329-1.537-.284l-1.938-4.608ZM73.9 64.986c.784.32.784 1.448 0 1.768l-4.636 1.89c-.617.251-1.288-.21-1.288-.884v-3.78c0-.674.671-1.135 1.288-.884l4.635 1.89ZM63.916 45.541c.781-.327 1.58.47 1.252 1.25l-1.939 4.608c-.258.612-1.059.76-1.536.284l-2.678-2.673c-.478-.477-.33-1.276.284-1.534l4.617-1.935ZM16.88 66.754c-.785-.32-.785-1.448 0-1.768l4.635-1.89c.617-.25 1.288.21 1.288.884v3.78c0 .674-.671 1.135-1.288.884l-4.635-1.89ZM24.85 87.032c-.782.327-1.581-.47-1.253-1.25l1.939-4.608c.257-.613 1.058-.76 1.536-.284l2.678 2.673c.478.477.33 1.276-.284 1.534l-4.617 1.935ZM46.885 95.746c-.32.783-1.45.783-1.77 0L43.22 91.12c-.252-.616.21-1.285.885-1.285h3.788c.675 0 1.137.67.885 1.285l-1.894 4.626ZM66.607 86.356c.328.78-.471 1.578-1.252 1.25l-4.617-1.935c-.614-.257-.762-1.057-.285-1.534l2.678-2.672c.478-.477 1.28-.33 1.537.284l1.939 4.607Z"/><path fill="#274430" fill-rule="evenodd" d="m48.197 38.3 1.893 4.627c.65 1.585-.555 3.239-2.196 3.239h-3.788c-1.64 0-2.845-1.654-2.196-3.239l1.894-4.626c.8-1.957 3.592-1.957 4.393 0Zm-21.361 6.51 4.617 1.934c1.575.66 1.903 2.68.737 3.843l-2.678 2.673c-1.162 1.16-3.18.838-3.843-.737l-1.939-4.608c-.823-1.957 1.162-3.92 3.106-3.106Zm47.598 23.255-4.635 1.89c-1.578.644-3.24-.547-3.24-2.195v-3.78c0-1.648 1.662-2.839 3.24-2.195l4.635 1.89c1.96.799 1.96 3.591 0 4.39Zm-7.96-20.725-1.939 4.608c-.663 1.575-2.68 1.897-3.843.737l-2.678-2.672c-1.166-1.164-.838-3.183.737-3.843l4.617-1.935c1.944-.815 3.93 1.148 3.106 3.105ZM16.345 63.675l4.636-1.89c1.578-.644 3.239.547 3.239 2.195v3.78c0 1.648-1.661 2.84-3.24 2.196l-4.635-1.89c-1.96-.8-1.96-3.592 0-4.391Zm5.946 21.558 1.939-4.608c.663-1.575 2.68-1.897 3.843-.737l2.678 2.672c1.166 1.164.838 3.183-.737 3.843l-4.617 1.935c-1.944.815-3.929-1.148-3.106-3.105Zm21.513 11.05-1.894-4.627c-.649-1.585.555-3.238 2.197-3.238h3.787c1.641 0 2.845 1.653 2.196 3.238l-1.893 4.627c-.801 1.956-3.593 1.956-4.393 0Zm21.003-7.37-4.617-1.935c-1.575-.66-1.903-2.68-.737-3.843l2.678-2.673c1.162-1.16 3.18-.838 3.843.737l1.939 4.608c.823 1.957-1.162 3.92-3.106 3.106ZM46.885 38.837c-.32-.783-1.45-.783-1.77 0l-1.894 4.627c-.252.615.21 1.285.886 1.285h3.787c.675 0 1.137-.67.885-1.285l-1.894-4.627Zm-20.597 7.279c-.781-.328-1.58.47-1.252 1.25l1.939 4.607c.257.613 1.058.76 1.536.284l2.678-2.673c.478-.477.33-1.276-.284-1.533l-4.617-1.935ZM73.9 64.986c.785.32.785 1.448 0 1.768l-4.635 1.89c-.616.251-1.288-.21-1.288-.884v-3.78c0-.674.672-1.135 1.288-.884l4.635 1.89Zm-8.731-18.195c.328-.78-.47-1.577-1.252-1.25l-4.617 1.935c-.614.258-.762 1.057-.284 1.534l2.678 2.673c.477.477 1.279.328 1.536-.284l1.939-4.608ZM16.88 66.754c-.784-.32-.784-1.448 0-1.768l4.636-1.89c.616-.25 1.287.21 1.287.884v3.78c0 .674-.671 1.135-1.288.884l-4.635-1.89Zm6.717 19.028c-.328.78.47 1.577 1.252 1.25l4.617-1.935c.614-.258.762-1.057.284-1.534l-2.678-2.673c-.477-.477-1.278-.329-1.536.284l-1.939 4.608Zm23.288 9.964c-.32.783-1.45.783-1.77 0L43.22 91.12c-.252-.616.21-1.285.886-1.285h3.787c.675 0 1.137.67.885 1.285l-1.894 4.626Zm18.47-8.14c.781.328 1.58-.47 1.252-1.25l-1.939-4.607c-.258-.613-1.059-.761-1.536-.284l-2.678 2.672c-.478.477-.33 1.277.284 1.534l4.617 1.935Z" clip-rule="evenodd"/><path fill="#FED992" stroke="#274430" stroke-width="2" d="m42.296 91.499.925-.38-.925.38 1.893 4.626c.66 1.611 2.962 1.611 3.622 0l1.894-4.626-.926-.38.926.38c.532-1.3-.454-2.664-1.811-2.664h-3.788c-1.357 0-2.342 1.364-1.81 2.664Z"/><path fill="#FFE4BF" d="M43.943 116.033c-.175.759-1.203.927-1.61.263l-2.414-3.926c-.321-.522-.001-1.201.613-1.301l3.445-.563c.615-.101 1.134.44.997 1.037l-1.031 4.49ZM56.346 121.091c-.174.76-1.202.928-1.61.263l-2.413-3.926c-.321-.522-.001-1.2.613-1.301l3.445-.563c.614-.1 1.134.44.997 1.037l-1.032 4.49ZM64.93 114.594c-.175.76-1.202.928-1.61.263l-2.414-3.926c-.32-.522 0-1.2.614-1.301l3.444-.563c.615-.101 1.135.44.998 1.037l-1.032 4.49Z"/><path fill="#fff" fill-opacity=".3" d="m59.014 49.01 2.679 2.673c.477.477 1.278.329 1.536-.284l-3.93-3.923c-.614.258-.762 1.057-.285 1.534ZM44.106 44.749h3.788c.675 0 1.137-.67.885-1.285h-5.558c-.252.615.21 1.285.885 1.285ZM28.511 52.257l2.678-2.673c.478-.477.33-1.276-.284-1.533l-3.93 3.922c.257.613 1.058.76 1.536.284ZM22.803 67.76v-3.78c0-.674-.671-1.135-1.287-.884v5.548c.616.251 1.287-.21 1.287-.884ZM29.75 83.563l-2.678-2.673c-.477-.477-1.279-.329-1.536.284l3.93 3.923c.614-.258.762-1.057.284-1.534ZM47.894 89.835h-3.788c-.675 0-1.137.67-.885 1.285h5.558c.252-.615-.21-1.285-.885-1.285ZM63.132 81.465l-2.678 2.673c-.478.476-.33 1.276.284 1.533l3.93-3.922c-.258-.613-1.059-.761-1.536-.284ZM67.977 63.98v3.78c0 .674.67 1.135 1.287.884v-5.548c-.616-.25-1.287.21-1.287.884Z"/></svg>
