<svg width="40" height="40" viewBox="0 0 40 40" fill="none" xmlns="http://www.w3.org/2000/svg">
<path d="M4.93225 14.25C5.27977 14.25 5.62732 14.6828 5.91455 15.3773L10.0055 15.3773C10.9223 15.3773 11.6654 14.6418 11.6654 13.7345L11.6654 9.78195C10.9475 9.5041 10.541 9.18736 10.541 8.8512C10.541 7.74989 14.904 6.85711 20.286 6.85711C25.668 6.85711 30.031 7.74989 30.031 8.8512C30.031 9.20172 29.589 9.53112 28.8129 9.81734L28.8129 13.7345C28.8129 14.6418 29.556 15.3773 30.4727 15.3773L34.6544 15.3773C34.9502 14.6265 35.2908 14.199 35.6531 14.199C36.7916 14.199 37.7146 18.4194 37.7146 23.6256C37.7146 28.8317 36.7916 33.0522 35.6531 33.0522C35.3056 33.0522 34.9782 32.659 34.6909 31.9645L5.93401 31.9645C5.63812 32.7153 5.34722 33.1428 4.91887 33.1428C3.78036 33.1428 2.85742 28.9224 2.85742 23.7162C2.85742 18.5101 3.79375 14.25 4.93225 14.25Z" fill="white"/>
<ellipse cx="4.57161" cy="23.6938" rx="7.69388" ry="1.33333" transform="rotate(-90 4.57161 23.6938)" fill="#E41571"/>
<path fill-rule="evenodd" clip-rule="evenodd" d="M20.2863 6.85712C18.8022 6.85712 17.3956 6.92501 16.1366 7.04643C12.8298 7.36534 10.5412 8.05359 10.5412 8.85121C10.5412 9.18737 10.9478 9.50411 11.6657 9.78196V13.7345C11.6657 14.6418 10.9225 15.3773 10.0058 15.3773L7.04874 15.3773C7.30027 16.2822 7.50507 17.3983 7.65411 18.6546C7.83914 20.2144 7.93438 21.9585 7.93192 23.7254C7.92946 25.4923 7.82937 27.2309 7.63996 28.7801C7.49083 29.9999 7.28869 31.0834 7.0419 31.9645H34.6912C34.9784 32.659 35.3059 33.0522 35.6534 33.0522C36.7919 33.0522 37.7148 28.8318 37.7148 23.6256C37.7148 18.4194 36.7919 14.199 35.6534 14.199C35.291 14.199 34.9505 14.6265 34.6546 15.3773H30.473C29.5563 15.3773 28.8131 14.6418 28.8131 13.7345V9.81735C29.5893 9.53114 30.0313 9.20174 30.0313 8.85121C30.0313 7.74991 25.6683 6.85712 20.2863 6.85712ZM5.91659 32.009C6.1852 31.1571 6.4148 30.0122 6.5811 28.652C6.76473 27.15 6.86284 25.4541 6.86525 23.7239C6.86766 21.9937 6.77428 20.292 6.59479 18.779C6.43211 17.4077 6.20527 16.2471 5.93806 15.3773H5.91481C5.62758 14.6829 5.28003 14.25 4.93251 14.25C3.79401 14.25 2.85768 18.5101 2.85768 23.7162C2.85768 28.9224 3.78062 33.1428 4.91913 33.1428C5.33895 33.1428 5.62674 32.7322 5.91659 32.009ZM10.1584 10.1595C10.2921 10.2685 10.4409 10.3667 10.599 10.4558V13.7345C10.599 14.0505 10.3386 14.3161 10.0058 14.3161L6.57704 14.3161C6.48135 14.1549 6.37596 14.0031 6.25981 13.8669C6.01271 13.577 5.56865 13.1888 4.93251 13.1888C4.43165 13.1888 4.04335 13.4276 3.78342 13.6723C3.52801 13.9127 3.33253 14.2147 3.17895 14.5126C2.87019 15.1114 2.6226 15.9084 2.42602 16.8045C2.0291 18.6139 1.79102 21.0597 1.79102 23.7162C1.79102 26.3718 2.02559 28.8076 2.41918 30.6075C2.61409 31.4987 2.86009 32.2916 3.16819 32.8875C3.3215 33.184 3.51698 33.4849 3.77288 33.7243C4.03388 33.9686 4.42129 34.2041 4.91913 34.2041C5.55636 34.2041 6.01336 33.8621 6.30559 33.5027C6.4237 33.3575 6.52737 33.1954 6.61976 33.0257H34.0297C34.1239 33.1831 34.228 33.331 34.3435 33.4637C34.6061 33.7652 35.0434 34.1134 35.6534 34.1134C36.1512 34.1134 36.5386 33.8779 36.7996 33.6337C37.0555 33.3943 37.251 33.0934 37.4043 32.7968C37.7124 32.2009 37.9584 31.4081 38.1533 30.5168C38.5469 28.717 38.7815 26.2811 38.7815 23.6256C38.7815 20.9701 38.5469 18.5342 38.1533 16.7344C37.9584 15.8431 37.7124 15.0502 37.4043 14.4544C37.251 14.1578 37.0555 13.8569 36.7996 13.6175C36.5386 13.3733 36.1512 13.1378 35.6534 13.1378C35.0175 13.1378 34.5701 13.5149 34.3082 13.829C34.1858 13.9757 34.0761 14.1403 33.977 14.3161H30.473C30.1402 14.3161 29.8798 14.0505 29.8798 13.7345V10.507C30.0571 10.4131 30.2232 10.3092 30.3716 10.1934C30.6862 9.94783 31.0979 9.50447 31.0979 8.85121C31.0979 8.33859 30.8393 7.95069 30.5894 7.70085C30.3426 7.45401 30.0343 7.26693 29.7319 7.12065C29.1227 6.82589 28.3098 6.58953 27.3919 6.40171C25.5387 6.02249 23.027 5.7959 20.2863 5.7959C17.5455 5.7959 15.0338 6.02249 13.1806 6.40171C12.2628 6.58953 11.4499 6.8259 10.8406 7.12065C10.5382 7.26693 10.2299 7.45401 9.98306 7.70085C9.73322 7.95069 9.47458 8.33859 9.47458 8.85121C9.47458 9.47813 9.85515 9.91238 10.1584 10.1595Z" fill="#111827"/>
</svg>
