<svg width="267" height="44" viewBox="0 0 267 44" fill="none" xmlns="http://www.w3.org/2000/svg">
<path d="M4 6.5H52.5361C53.7137 6.50009 54.8068 7.09172 55.4521 8.06445L55.5742 8.26367L62.4316 20.2637C63.0081 21.2725 63.0445 22.4965 62.54 23.5322L62.4316 23.7363L55.5742 35.7363C54.9511 36.8267 53.792 37.4999 52.5361 37.5H4C2.067 37.5 0.5 35.933 0.5 34V10C0.5 8.067 2.067 6.5 4 6.5Z" fill="#FFFED7" stroke="#111827"/>
<path d="M23.1069 30V17.4H30.4509V19.524H25.6629V22.512H29.7309V24.636H25.6629V27.876H30.4509V30H23.1069Z" fill="#111827"/>
<path d="M195.707 22.7071C196.098 22.3166 196.098 21.6834 195.707 21.2929L189.343 14.9289C188.953 14.5384 188.319 14.5384 187.929 14.9289C187.538 15.3195 187.538 15.9526 187.929 16.3431L193.586 22L187.929 27.6569C187.538 28.0474 187.538 28.6805 187.929 29.0711C188.319 29.4616 188.953 29.4616 189.343 29.0711L195.707 22.7071ZM72 23H133.5V21H72V23ZM133.5 23H195V21H133.5V23Z" fill="#111827"/>
<path d="M91.236 13V4.6H94.536C97.2 4.6 99 6.532 99 8.8C99 11.068 97.2 13 94.536 13H91.236ZM94.56 6.148H92.94V11.452H94.56C96.12 11.452 97.248 10.288 97.248 8.8C97.248 7.3 96.12 6.148 94.56 6.148ZM106.043 12.016C105.479 12.772 104.543 13.24 103.403 13.24C101.255 13.24 100.043 11.74 100.043 9.976C100.043 8.188 101.171 6.712 103.151 6.712C104.831 6.712 105.935 7.852 105.935 9.436C105.935 9.772 105.887 10.084 105.839 10.288H101.603C101.747 11.416 102.443 11.872 103.391 11.872C104.051 11.872 104.627 11.584 104.951 11.152L106.043 12.016ZM103.115 7.96C102.335 7.96 101.819 8.392 101.651 9.184H104.435C104.411 8.572 103.967 7.96 103.115 7.96ZM116.358 10.6C116.358 12.196 115.05 13.24 113.298 13.24C111.714 13.24 110.694 12.544 110.01 11.344L111.426 10.468C111.894 11.392 112.458 11.8 113.286 11.8C114.102 11.8 114.714 11.308 114.714 10.528C114.714 9.76 114.114 9.28 113.226 9.28H111.846V7.84H113.118C113.826 7.84 114.342 7.444 114.342 6.796C114.342 6.16 113.862 5.8 113.202 5.8C112.53 5.8 112.074 6.16 111.726 6.76L110.406 5.944C111.018 4.948 111.966 4.36 113.322 4.36C114.858 4.36 115.998 5.236 115.998 6.616C115.998 7.396 115.662 8.056 115.038 8.488C115.89 8.92 116.358 9.676 116.358 10.6ZM120.518 4.36C122.726 4.36 123.758 6.28 123.758 8.8C123.758 11.32 122.726 13.24 120.518 13.24C118.31 13.24 117.278 11.32 117.278 8.8C117.278 6.28 118.31 4.36 120.518 4.36ZM120.518 5.86C119.45 5.86 118.934 7.036 118.934 8.8C118.934 10.576 119.45 11.74 120.518 11.74C121.574 11.74 122.09 10.564 122.09 8.8C122.09 7.024 121.574 5.86 120.518 5.86ZM126.561 4.336C127.773 4.336 128.601 5.212 128.601 6.34C128.601 7.468 127.773 8.344 126.561 8.344C125.337 8.344 124.497 7.468 124.497 6.34C124.497 5.212 125.337 4.336 126.561 4.336ZM125.205 12.988L131.373 4.588H132.933L126.765 12.988H125.205ZM126.561 7.324C127.089 7.324 127.473 6.916 127.473 6.34C127.473 5.752 127.089 5.356 126.561 5.356C126.021 5.356 125.637 5.752 125.637 6.34C125.637 6.928 126.021 7.324 126.561 7.324ZM131.625 9.22C132.837 9.22 133.665 10.096 133.665 11.224C133.665 12.352 132.837 13.228 131.625 13.228C130.401 13.228 129.561 12.352 129.561 11.224C129.561 10.096 130.401 9.22 131.625 9.22ZM131.625 12.208C132.153 12.208 132.537 11.8 132.537 11.224C132.537 10.636 132.153 10.24 131.625 10.24C131.085 10.24 130.701 10.636 130.701 11.224C130.701 11.812 131.085 12.208 131.625 12.208ZM143.789 12.016C143.225 12.772 142.289 13.24 141.149 13.24C139.001 13.24 137.789 11.74 137.789 9.976C137.789 8.188 138.917 6.712 140.897 6.712C142.577 6.712 143.681 7.852 143.681 9.436C143.681 9.772 143.633 10.084 143.585 10.288H139.349C139.493 11.416 140.189 11.872 141.137 11.872C141.797 11.872 142.373 11.584 142.697 11.152L143.789 12.016ZM140.861 7.96C140.081 7.96 139.565 8.392 139.397 9.184H142.181C142.157 8.572 141.713 7.96 140.861 7.96ZM145.542 10.792V8.32H144.414V6.952H145.542V5.44H147.078V6.952H148.926V8.32H147.078V10.792C147.078 11.464 147.438 11.728 148.038 11.728C148.458 11.728 148.734 11.68 148.938 11.596V12.928C148.638 13.06 148.278 13.12 147.774 13.12C146.262 13.12 145.542 12.268 145.542 10.792ZM153.045 10.768V9.304L156.645 4.6H158.541V9.304H159.393V10.768H158.541V13H156.921V10.768H153.045ZM154.713 9.304H156.921V6.436L154.713 9.304ZM163.502 4.36C165.71 4.36 166.742 6.28 166.742 8.8C166.742 11.32 165.71 13.24 163.502 13.24C161.294 13.24 160.262 11.32 160.262 8.8C160.262 6.28 161.294 4.36 163.502 4.36ZM163.502 5.86C162.434 5.86 161.918 7.036 161.918 8.8C161.918 10.576 162.434 11.74 163.502 11.74C164.558 11.74 165.074 10.564 165.074 8.8C165.074 7.024 164.558 5.86 163.502 5.86ZM169.546 4.336C170.758 4.336 171.586 5.212 171.586 6.34C171.586 7.468 170.758 8.344 169.546 8.344C168.322 8.344 167.482 7.468 167.482 6.34C167.482 5.212 168.322 4.336 169.546 4.336ZM168.19 12.988L174.358 4.588H175.918L169.75 12.988H168.19ZM169.546 7.324C170.074 7.324 170.458 6.916 170.458 6.34C170.458 5.752 170.074 5.356 169.546 5.356C169.006 5.356 168.622 5.752 168.622 6.34C168.622 6.928 169.006 7.324 169.546 7.324ZM174.61 9.22C175.822 9.22 176.65 10.096 176.65 11.224C176.65 12.352 175.822 13.228 174.61 13.228C173.386 13.228 172.546 12.352 172.546 11.224C172.546 10.096 173.386 9.22 174.61 9.22ZM174.61 12.208C175.138 12.208 175.522 11.8 175.522 11.224C175.522 10.636 175.138 10.24 174.61 10.24C174.07 10.24 173.686 10.636 173.686 11.224C173.686 11.812 174.07 12.208 174.61 12.208Z" fill="#E41571"/>
<path d="M207 6.5H255.536C256.714 6.50009 257.807 7.09172 258.452 8.06445L258.574 8.26367L265.432 20.2637C266.008 21.2725 266.044 22.4965 265.54 23.5322L265.432 23.7363L258.574 35.7363C257.951 36.8267 256.792 37.4999 255.536 37.5H207C205.067 37.5 203.5 35.933 203.5 34V10C203.5 8.067 205.067 6.5 207 6.5Z" fill="#D3FFE1" stroke="#111827"/>
<path d="M231.808 27.966C233.248 27.966 234.382 27.264 235.102 26.238L237.118 27.786C235.966 29.352 234.094 30.36 231.808 30.36C227.83 30.36 225.112 27.3 225.112 23.7C225.112 20.1 227.83 17.04 231.808 17.04C234.094 17.04 235.966 18.066 237.118 19.596L235.102 21.162C234.382 20.136 233.248 19.434 231.808 19.434C229.432 19.434 227.74 21.288 227.74 23.7C227.74 26.112 229.432 27.966 231.808 27.966Z" fill="#111827"/>
</svg>
